<svg width="100" height="100" viewBox="0 0 100 100" fill="none" xmlns="http://www.w3.org/2000/svg">
<g clip-path="url(#clip0_839_1414)">
<path d="M77.9434 69.1392H74.9261C74.9089 69.1392 74.895 69.1531 74.895 69.1703V70.7847C74.895 70.8018 74.9089 70.8158 74.9261 70.8158H77.9434C77.9606 70.8158 77.9745 70.8018 77.9745 70.7847V69.1703C77.9745 69.1531 77.9606 69.1392 77.9434 69.1392Z" fill="#005CA4"/>
<path d="M73.7442 74.7381H69.576C69.5073 74.7381 69.4517 74.6822 69.4517 74.6137V65.3441C69.4517 65.311 69.4648 65.2795 69.4881 65.2562C69.5115 65.2329 69.5431 65.2197 69.576 65.2197H70.9448C70.9777 65.2197 71.0094 65.2329 71.0327 65.2562C71.056 65.2795 71.0692 65.311 71.0692 65.3441V72.9649C71.0692 73.0166 71.1108 73.0583 71.1625 73.0583H73.7442C73.8129 73.0583 73.8687 73.1141 73.8687 73.1826V74.5824C73.8785 74.6203 73.8698 74.6608 73.8454 74.6914C73.8208 74.722 73.7833 74.7393 73.7442 74.7381Z" fill="#005CA4"/>
<path fill-rule="evenodd" clip-rule="evenodd" d="M64.879 74.6448C65.1579 74.7476 65.4527 74.8003 65.75 74.8003C66.0556 74.8134 66.3613 74.7711 66.6521 74.6759C66.9515 74.5642 67.226 74.3951 67.4608 74.1782C67.7015 73.9503 67.8921 73.6749 68.0206 73.3694C68.1746 73.0057 68.2488 72.6134 68.2385 72.2186V67.7082C68.2435 67.324 68.1694 66.9428 68.0206 66.5884C67.8921 66.283 67.7015 66.0076 67.4608 65.7796C67.226 65.5628 66.9515 65.3938 66.6521 65.2819C66.081 65.0642 65.45 65.0642 64.879 65.2819C64.5796 65.3938 64.305 65.5628 64.0702 65.7796C63.8298 66.0076 63.639 66.283 63.5104 66.5884C63.3617 66.9428 63.2875 67.324 63.2927 67.7082V72.1876C63.2823 72.5821 63.3565 72.9746 63.5104 73.3384C63.639 73.6438 63.8298 73.9192 64.0702 74.1471C64.305 74.364 64.5796 74.5332 64.879 74.6448ZM65.1079 67.0417C65.2708 66.8607 65.5067 66.7628 65.75 66.7751V66.8061C65.9779 66.7944 66.2013 66.8726 66.3721 67.0238C66.5475 67.2069 66.6379 67.4553 66.621 67.7082V72.2186C66.6419 72.4721 66.551 72.7221 66.3721 72.903C66.0229 73.2015 65.5081 73.2015 65.159 72.903C64.98 72.7221 64.8892 72.4721 64.9102 72.2186V67.7082C64.8723 67.4676 64.945 67.2228 65.1079 67.0417Z" fill="#005CA4"/>
<path fill-rule="evenodd" clip-rule="evenodd" d="M59.6221 74.738H57.7248C57.6561 74.738 57.6002 74.6822 57.6002 74.6136V65.3441C57.6002 65.2753 57.6561 65.2197 57.7248 65.2197H59.7467C60.1515 65.2095 60.554 65.2836 60.9286 65.4374C61.2383 65.5726 61.5144 65.7745 61.7373 66.0284C62.1046 66.4797 62.3219 67.0343 62.3594 67.6147C62.4217 68.4857 62.235 69.3568 61.5196 69.8855H61.4886C61.7569 70.0495 61.9727 70.287 62.1106 70.5699C62.3644 71.1572 62.4402 71.8061 62.3283 72.4361C62.2783 72.9951 62.0617 73.5261 61.7063 73.9603C61.2708 74.458 60.5554 74.738 59.6221 74.738ZM59.2177 70.7563V72.9649C59.2177 73.0166 59.2596 73.0582 59.3111 73.0582H59.7154C59.9298 73.0661 60.1429 73.0234 60.3375 72.9338C60.9908 72.5918 61.0219 71.4097 60.5242 70.912L60.4308 70.8186C60.1756 70.6399 59.8367 70.6499 59.5169 70.6591C59.4471 70.6611 59.3781 70.6632 59.3111 70.6632C59.2596 70.6632 59.2177 70.7049 59.2177 70.7563ZM59.2452 69.1428C59.2277 69.1253 59.2177 69.1015 59.2177 69.0768L59.1867 66.8993C59.1867 66.8478 59.2286 66.8059 59.28 66.8059H59.6844C60.0169 66.7653 60.3496 66.8801 60.5865 67.117C60.9277 67.6445 60.9398 68.3199 60.6175 68.859C60.4621 69.0768 60.1821 69.1701 59.7467 69.1701H59.3111C59.2863 69.1701 59.2627 69.1603 59.2452 69.1428Z" fill="#005CA4"/>
<path d="M56.5427 74.7381H52.4056C52.3369 74.7381 52.2812 74.6822 52.2812 74.6137V65.3441C52.2812 65.2754 52.3369 65.2197 52.4056 65.2197H56.5738C56.6069 65.2197 56.6383 65.2329 56.6617 65.2562C56.685 65.2795 56.6981 65.311 56.6981 65.3441V66.6816C56.6981 66.7147 56.685 66.7462 56.6617 66.7695C56.6383 66.7929 56.6069 66.806 56.5738 66.806H53.9921C53.9404 66.806 53.8988 66.8478 53.8988 66.8993V69.0456C53.8988 69.0972 53.9404 69.1389 53.9921 69.1389H56.2004C56.2335 69.1389 56.2652 69.152 56.2885 69.1754C56.3119 69.1987 56.325 69.2303 56.325 69.2635V70.601C56.325 70.6697 56.2692 70.7254 56.2004 70.7254H53.9921C53.9404 70.7254 53.8988 70.7672 53.8988 70.8187V72.9649C53.8988 73.0166 53.9404 73.0583 53.9921 73.0583H56.5738C56.6425 73.0583 56.6981 73.1141 56.6981 73.1826V74.5824C56.7119 74.6266 56.6998 74.6745 56.6673 74.707C56.6346 74.7397 56.5867 74.7516 56.5427 74.7381Z" fill="#005CA4"/>
<path d="M50.9125 74.7381H49.544C49.4752 74.7381 49.4194 74.6823 49.4194 74.6137V70.01C49.4081 69.9798 49.3821 69.9575 49.3504 69.9512C49.3188 69.9448 49.286 69.9554 49.264 69.9789L48.2063 73.276L48.1129 73.3383H47.3665L47.2731 73.276L46.2467 69.9789C46.2246 69.9554 46.1919 69.9448 46.1602 69.9512C46.1285 69.9575 46.1025 69.9798 46.0913 70.01V74.5825C46.0913 74.6512 46.0354 74.7071 45.9667 74.7071H44.5981C44.5294 74.7071 44.4738 74.6512 44.4738 74.5825V65.3442C44.4738 65.2754 44.5294 65.2198 44.5981 65.2198H45.9046C45.9627 65.2179 46.0144 65.2567 46.029 65.3131L47.6775 69.7612C47.6948 69.7873 47.724 69.8029 47.7552 69.8029C47.7867 69.8029 47.8158 69.7873 47.8331 69.7612L49.4506 65.2819C49.465 65.2256 49.5169 65.1869 49.575 65.1885H50.9125C50.9813 65.1885 51.0369 65.2444 51.0369 65.3131V74.5514C51.0613 74.5927 51.06 74.6442 51.0335 74.6839C51.0069 74.7237 50.96 74.7448 50.9125 74.7381Z" fill="#005CA4"/>
<path d="M43.105 74.7381H41.8298C41.7714 74.74 41.7198 74.7012 41.7052 74.6448L39.901 69.9477C39.8791 69.9242 39.8464 69.9137 39.8148 69.92C39.7831 69.9265 39.7568 69.9488 39.7456 69.979V74.5825C39.7456 74.6512 39.69 74.7069 39.6212 74.7069H38.2214C38.1527 74.7069 38.097 74.6512 38.097 74.5825V65.3442C38.097 65.2754 38.1527 65.2198 38.2214 65.2198H39.5279C39.586 65.2179 39.6377 65.2567 39.6523 65.3131L41.4254 70.01C41.4473 70.0335 41.48 70.044 41.5116 70.0377C41.5433 70.0315 41.5695 70.0092 41.5808 69.979V65.3442C41.5808 65.311 41.5939 65.2796 41.6173 65.2562C41.6406 65.2329 41.6723 65.2198 41.7052 65.2198H43.0739C43.1068 65.2198 43.1385 65.2329 43.1618 65.2562C43.1852 65.2796 43.1983 65.311 43.1983 65.3442V74.5825C43.2077 74.6156 43.2029 74.651 43.1854 74.6804C43.1677 74.71 43.1385 74.7308 43.105 74.7381Z" fill="#005CA4"/>
<path fill-rule="evenodd" clip-rule="evenodd" d="M33.7733 74.6448C34.0523 74.7476 34.347 74.8003 34.6443 74.8003C34.95 74.8134 35.2556 74.7711 35.5464 74.6759C35.8458 74.5642 36.1204 74.3951 36.3552 74.1782C36.5956 73.9503 36.7862 73.6749 36.915 73.3694C37.0689 73.0057 37.1431 72.6134 37.1327 72.2186V67.7082C37.1377 67.324 37.0637 66.9428 36.915 66.5884C36.7862 66.283 36.5956 66.0076 36.3552 65.7796C36.1204 65.5628 35.8458 65.3938 35.5464 65.2819C34.9754 65.0642 34.3443 65.0642 33.7733 65.2819C33.4739 65.3938 33.1991 65.5628 32.9645 65.7796C32.7239 66.0076 32.5333 66.283 32.4048 66.5884C32.256 66.9428 32.1818 67.324 32.1868 67.7082V72.1876C32.1766 72.5821 32.2508 72.9746 32.4048 73.3384C32.5333 73.6438 32.7239 73.9192 32.9645 74.1471C33.1991 74.364 33.4739 74.5332 33.7733 74.6448ZM34.0023 67.0417C34.1652 66.8607 34.401 66.7628 34.6443 66.7751V66.8061C34.8723 66.7944 35.0956 66.8726 35.2664 67.0238C35.4418 67.2069 35.532 67.4553 35.5152 67.7082V72.2186C35.5362 72.4721 35.4454 72.7221 35.2664 72.903C34.9173 73.2015 34.4025 73.2015 34.0533 72.903C33.8743 72.7221 33.7835 72.4721 33.8043 72.2186V67.7082C33.7666 67.4676 33.8393 67.2228 34.0023 67.0417Z" fill="#005CA4"/>
<path d="M28.8588 74.8001C28.5744 74.7965 28.2919 74.7547 28.0188 74.6757C27.7335 74.5984 27.4683 74.4605 27.2413 74.2713C26.9998 74.0563 26.8088 73.7907 26.6813 73.4938C26.5215 73.1099 26.4471 72.6959 26.4635 72.2807V67.5836C26.4656 67.2534 26.529 66.9265 26.6502 66.6195C26.8667 66.0307 27.3171 65.5578 27.8944 65.313C28.5033 65.0688 29.1829 65.0688 29.7919 65.313C30.074 65.4368 30.3279 65.6165 30.5383 65.8418C30.7558 66.0759 30.925 66.3507 31.036 66.6505C31.1613 66.9782 31.2246 67.3261 31.2227 67.677V68.237C31.2227 68.2699 31.2096 68.3016 31.1863 68.3249C31.1629 68.3482 31.1313 68.3613 31.0983 68.3613H29.6985C29.6298 68.3613 29.5742 68.3055 29.5742 68.237V67.7703C29.581 67.5241 29.5042 67.2828 29.3563 67.0859C29.2296 66.9034 29.0185 66.798 28.7965 66.8059C28.5623 66.7799 28.3335 66.8882 28.2054 67.0859C28.0898 67.3393 28.0365 67.6166 28.05 67.8947V72.2184C28.0367 72.4566 28.0906 72.6936 28.2054 72.9028C28.3413 73.0886 28.5685 73.1845 28.7965 73.1516H29.0765L29.3252 72.9961C29.4088 72.9188 29.4727 72.823 29.5119 72.7161C29.5629 72.5661 29.584 72.4076 29.5742 72.2495V71.783C29.5742 71.7143 29.6298 71.6584 29.6985 71.6584H31.0671C31.1358 71.6584 31.1917 71.7143 31.1917 71.783V72.3738C31.1877 73.0101 30.9431 73.6213 30.5073 74.0847C30.2931 74.3057 30.0402 74.4849 29.7606 74.6136C29.4771 74.7403 29.1694 74.804 28.8588 74.8001Z" fill="#005CA4"/>
<path d="M23.8817 69.1392H20.8645C20.8473 69.1392 20.8334 69.1531 20.8334 69.1703V70.7847C20.8334 70.8018 20.8473 70.8158 20.8645 70.8158H23.8817C23.8989 70.8158 23.9129 70.8018 23.9129 70.7847V69.1703C23.9129 69.1531 23.8989 69.1392 23.8817 69.1392Z" fill="#005CA4"/>
<path d="M49.4196 30.6924C47.5238 30.6901 45.6342 30.9093 43.7894 31.3457C42.0032 31.7668 40.2784 32.4149 38.6569 33.2743C38.4173 33.3964 38.2542 33.6295 38.2215 33.8964C38.1592 34.4251 38.0971 34.9228 38.0659 35.4205C38.0348 35.9182 38.0038 36.447 38.0038 36.9447C38.0015 40.8312 39.0205 44.6499 40.9588 48.0184C42.884 51.3695 45.664 54.1495 49.0152 56.0747C49.2557 56.2137 49.5521 56.2137 49.7927 56.0747C53.1552 54.1539 55.9465 51.3734 57.8802 48.0184C59.8186 44.6499 60.8375 40.8312 60.8352 36.9447C60.8352 36.447 60.8042 35.9493 60.7732 35.4205C60.7419 34.8918 60.6798 34.3941 60.6175 33.8964C60.5848 33.6295 60.4217 33.3964 60.1821 33.2743C58.5605 32.4153 56.8357 31.7672 55.0496 31.3457C53.2048 30.9095 51.3152 30.6903 49.4196 30.6924Z" fill="url(#paint0_linear_839_1414)"/>
<path fill-rule="evenodd" clip-rule="evenodd" d="M53.5877 29.0128L52.2502 25.5288C50.3648 25.2251 48.4431 25.2251 46.5579 25.5288L45.2202 29.0438C47.9931 28.6184 50.8148 28.6184 53.5877 29.0438V29.0128ZM42.2962 29.6659L42.9806 26.4932C40.4629 27.468 38.1979 28.9993 36.3552 30.9724L39.5902 30.568C40.4737 30.2149 41.3775 29.9136 42.2962 29.6659ZM62.6752 34.9803L62.6706 34.8918L62.7016 34.9228C62.6862 34.7828 62.6706 34.6507 62.655 34.5184C62.6395 34.3861 62.6239 34.254 62.6083 34.114L64.7545 34.0207C65.7195 35.6313 66.4229 37.3847 66.8387 39.2155L61.8929 42.948C62.446 40.878 62.7283 38.7451 62.7327 36.6026C62.7327 36.0707 62.7048 35.5388 62.6752 34.9805V34.9803ZM33.4312 51.1601L35.7329 45.9343C35.8485 45.6674 35.7404 45.3565 35.4841 45.2188L31.5027 43.1659C31.4931 45.9397 32.1323 48.6772 33.3689 51.1601H33.4312ZM62.4216 30.9724L59.1866 30.568H59.2179C58.3341 30.2147 57.4306 29.9134 56.5116 29.6659L55.8585 26.4932C58.3539 27.4761 60.5968 29.007 62.4216 30.9724ZM36.1327 34.9803V34.9805C36.1033 35.5388 36.0752 36.0707 36.0752 36.6026C36.077 38.7555 36.3593 40.899 36.915 42.9793L31.9691 39.2465C32.3818 37.4049 33.0854 35.6409 34.0533 34.0207L36.2306 34.114C36.2206 34.1943 36.2106 34.2422 36.2006 34.2901C36.1795 34.3907 36.1585 34.4913 36.1373 34.8918L36.1327 34.9803ZM67.3054 43.1347L63.3237 45.2188C63.0677 45.3565 62.9595 45.6674 63.075 45.9343L65.3768 51.1601H65.4389C66.6758 48.6772 67.3148 45.9397 67.3054 43.1659V43.1347ZM38.4391 47.1474C38.7191 47.7384 38.9991 48.3295 39.3412 48.9205C40.9683 51.7511 43.1475 54.2263 45.7491 56.199L41.612 59.3097C39.2345 58.153 37.142 56.4855 35.4841 54.4261L38.4391 47.1474ZM48.8285 58.3765L45.7491 60.7095C48.16 61.2092 50.6479 61.2092 53.0589 60.7095L49.9793 58.3765C49.6477 58.1278 49.1914 58.1278 48.8595 58.3765H48.8285ZM53.0279 56.199C55.6289 54.2257 57.8077 51.7507 59.4356 48.9205H59.4666C59.8089 48.3605 60.0887 47.7695 60.3064 47.1784L63.2616 54.4572C61.6035 56.5165 59.511 58.1843 57.1337 59.3409L53.0279 56.199Z" fill="url(#paint1_linear_839_1414)"/>
<path fill-rule="evenodd" clip-rule="evenodd" d="M42.8873 34.7049V34.767L43.1673 34.9849H43.2917C44.2661 34.2147 45.3448 33.5862 46.4954 33.1185C46.5348 33.1047 46.56 33.0666 46.5577 33.0251C46.56 32.9837 46.5348 32.9457 46.4954 32.9318L46.029 32.7764H45.9046C44.8329 33.2672 43.8292 33.8945 42.9183 34.6426L42.8873 34.7049ZM42.7006 36.7578H42.6073L42.545 36.6957L42.4829 36.2914C42.4748 36.2472 42.4863 36.202 42.514 36.1668C43.9892 34.7205 45.7929 33.6532 47.7708 33.0564C47.8246 33.0374 47.8842 33.0493 47.9265 33.0874L48.1442 33.3362C48.1715 33.3589 48.1833 33.3951 48.1752 33.4295L48.1129 33.4918C46.0538 34.087 44.1871 35.2135 42.7006 36.7578ZM45.5313 35.5757C46.7333 34.832 48.0619 34.3153 49.4506 34.0516L49.5127 33.9895C49.5211 33.9549 49.509 33.9189 49.4817 33.8962L49.1706 33.6162H49.0463C47.7038 33.9047 46.4204 34.4201 45.2513 35.1403C44.1519 35.8109 43.1738 36.6628 42.3586 37.6599C42.3306 37.6949 42.3194 37.7403 42.3273 37.7843L42.3896 38.2199L42.4517 38.282H42.545C43.36 37.1903 44.3729 36.2618 45.5313 35.5447V35.5757ZM48.9529 35.047C48.1773 35.2424 47.4261 35.5241 46.7133 35.887C45.3825 36.5878 44.2244 37.5759 43.3227 38.7797H43.1983L42.8873 38.6553L42.825 38.593C42.8083 38.5643 42.8083 38.5287 42.825 38.4997C43.7904 37.212 45.0346 36.1591 46.4644 35.4203C47.2158 35.0316 48.009 34.7289 48.8286 34.5182C49.5721 34.3293 50.3327 34.2145 51.0992 34.1762C51.1588 34.1647 51.2194 34.1891 51.2548 34.2382L51.4413 34.5493C51.4579 34.5782 51.4579 34.6139 51.4413 34.6426L51.3479 34.7049C50.5396 34.7309 49.7363 34.8455 48.9529 35.047ZM51.5969 35.5447H51.5036C48.4756 35.5885 45.6479 37.0657 43.8827 39.5264H43.7894L43.7271 39.4641L43.5717 39.153C43.5527 39.0993 43.5646 39.0397 43.6027 38.9974C44.4956 37.8216 45.6446 36.8643 46.9621 36.198C48.3156 35.5141 49.8015 35.132 51.3169 35.0782C51.3833 35.0726 51.4461 35.1103 51.4725 35.1714L51.5969 35.4514C51.6136 35.4803 51.6136 35.516 51.5969 35.5447ZM56.4494 37.1312C55.0046 36.2901 53.3619 35.8499 51.6902 35.8557H51.5658C50.0111 35.8678 48.4831 36.2632 47.1177 37.0068C45.8963 37.6745 44.8513 38.6234 44.0692 39.7751C44.0415 39.8232 44.0415 39.8826 44.0692 39.9307L44.2871 40.1795H44.4425C45.1802 39.0512 46.1844 38.1216 47.3665 37.4732C48.6463 36.7755 50.0773 36.4018 51.5346 36.3845H51.6592C53.2679 36.3768 54.8486 36.8068 56.2317 37.6289H56.325L56.3871 37.5666L56.4804 37.2245C56.4888 37.1899 56.4767 37.1539 56.4494 37.1312ZM47.3975 37.8155C48.6581 37.0947 50.0825 36.7091 51.5346 36.6957H51.6592H51.6902C53.2979 36.6874 54.874 37.1409 56.2317 38.002V38.0643C56.2398 38.0989 56.2277 38.1349 56.2004 38.1576L55.9517 38.3753H55.8273C54.5636 37.6045 53.1081 37.2055 51.6279 37.2245H51.5346C50.1694 37.2378 48.8304 37.602 47.6465 38.282C46.5569 38.8997 45.6458 39.7893 45.0025 40.8639H44.8469L44.6602 40.6149C44.624 40.5695 44.624 40.5049 44.6602 40.4595C45.3406 39.3657 46.2811 38.4576 47.3975 37.8155ZM55.9206 38.873C54.669 38.0045 53.1825 37.538 51.6592 37.5355H51.5658C50.2638 37.5503 48.9879 37.9041 47.8642 38.562C46.829 39.1701 45.9708 40.0389 45.3756 41.0816C45.359 41.1105 45.359 41.1459 45.3756 41.1749L45.469 41.237H45.8113L45.9356 41.1749C46.4854 40.2897 47.2438 39.5528 48.1442 39.0287C49.1821 38.4168 50.3611 38.0845 51.5658 38.0643H51.6592C53.1746 38.0574 54.65 38.5493 55.8583 39.4641H55.9517C55.9908 39.4503 56.0163 39.4122 56.014 39.3707V38.9974C56.0073 38.9424 55.9717 38.8949 55.9206 38.873ZM51.6279 38.3753C53.2094 38.3664 54.7383 38.9424 55.9206 39.9928H55.9517C55.969 40.0326 55.969 40.0776 55.9517 40.1172V40.5839C55.954 40.6253 55.9288 40.6635 55.8894 40.6772H55.7961C54.6815 39.5682 53.1692 38.9522 51.5969 38.9664H51.5036C50.4892 38.9782 49.4944 39.2457 48.6106 39.7441C47.7973 40.1978 47.1123 40.8507 46.62 41.6414H46.4954L46.2156 41.4859V41.3616C46.2086 41.3414 46.2086 41.3195 46.2156 41.2993C46.7533 40.4316 47.5025 39.7145 48.3929 39.2151C49.3531 38.6762 50.4336 38.3874 51.5346 38.3753H51.6279ZM55.7029 41.1439C55.7346 41.1084 55.7346 41.0547 55.7029 41.0193C55.2065 40.4762 54.6027 40.042 53.9298 39.7441C53.2069 39.4159 52.4219 39.2462 51.6279 39.2464H51.5658C50.4523 39.2578 49.3683 39.6047 48.4552 40.2418C48.0263 40.5547 47.6486 40.9326 47.3354 41.3616C47.1592 41.5857 47.0029 41.8251 46.8688 42.077C46.844 42.1135 46.8331 42.1576 46.8377 42.2014L46.9621 42.7301L47.0244 42.7924L47.1177 42.7301C47.4556 41.8909 48.0417 41.1747 48.7973 40.6772C49.6183 40.1014 50.5942 39.787 51.5969 39.7751H51.6592C52.3769 39.7693 53.0877 39.9178 53.7431 40.2105C54.3629 40.4945 54.9146 40.9082 55.3606 41.4237H55.485L55.7029 41.1439ZM53.6811 35.7314C54.5921 35.9157 55.4721 36.2299 56.2938 36.6645H56.3871C56.4144 36.6418 56.4265 36.6057 56.4183 36.5712L56.325 36.1668C56.3092 36.1234 56.275 36.0893 56.2317 36.0734C55.5658 35.7503 54.8671 35.4999 54.1475 35.327H54.0231L53.6498 35.5757C53.6225 35.5985 53.6106 35.6347 53.6188 35.6691L53.6811 35.7314ZM42.7629 34.3316H42.6696L42.6073 34.3005L42.545 33.9585C42.5338 33.8989 42.5581 33.838 42.6073 33.8028L43.6648 33.0564H43.7894L44.1938 33.1807L44.2558 33.2428C44.2642 33.2774 44.2521 33.3137 44.2248 33.3362C43.7169 33.6368 43.2288 33.9693 42.7629 34.3316ZM52.0636 43.6632C51.9383 43.5668 51.7858 43.5122 51.6279 43.5078C51.4411 43.4993 51.259 43.5676 51.1238 43.697C50.9888 43.8262 50.9123 44.0051 50.9125 44.1922C50.9275 44.3687 51.0046 44.5339 51.1302 44.6587L52.219 45.6541H52.3433L52.6544 45.4674V45.4053C52.6627 45.3707 52.6506 45.3347 52.6233 45.312C52.1879 44.9387 51.4725 44.2855 51.4725 44.2855L51.4102 44.1609C51.4256 44.0703 51.5048 44.0043 51.5969 44.0055H51.7213L52.7167 44.8764H52.81L52.8723 44.8143L52.9967 44.472C53.0048 44.4376 52.9927 44.4014 52.9654 44.3789L52.0636 43.6632ZM51.6279 42.6368C52.0411 42.6447 52.4379 42.7989 52.7477 43.0724L53.6498 43.9122C53.6679 43.9282 53.679 43.9503 53.6811 43.9745V44.0366L53.4011 44.2543H53.2767L52.4056 43.4768C52.1931 43.2816 51.9165 43.171 51.6279 43.1657H51.5658C51.2767 43.168 50.999 43.2791 50.7881 43.4768C50.5883 43.6607 50.4754 43.9205 50.4771 44.1922C50.4815 44.408 50.5581 44.6162 50.6948 44.7832C51.1611 45.3314 51.7188 45.7943 52.3433 46.1518V46.2141L52.4679 46.6805C52.4761 46.7151 52.464 46.7512 52.4367 46.7739H52.3433C51.5556 46.3539 50.8581 45.7832 50.2904 45.0943C50.0775 44.8409 49.9569 44.5228 49.9483 44.1922C49.9471 43.7803 50.1158 43.3866 50.4148 43.1034C50.7248 42.8066 51.1367 42.6397 51.5658 42.6368H51.6279ZM53.3388 42.4191C53.1892 42.283 53.0217 42.168 52.8411 42.077C52.464 41.8905 52.0486 41.7947 51.6279 41.797H51.5969C50.9265 41.7982 50.2817 42.0539 49.7927 42.5124C49.325 42.9572 49.0654 43.5778 49.0773 44.2232C49.0883 44.7218 49.2633 45.2026 49.575 45.592C50.0667 46.2195 50.6546 46.7655 51.3169 47.2095H51.4102L51.7836 47.0539L51.8456 46.9916C51.854 46.9572 51.8419 46.9209 51.8146 46.8982C51.1248 46.4666 50.5146 45.9195 50.0104 45.2807C49.7729 44.9791 49.6417 44.6072 49.6373 44.2232C49.6327 43.713 49.8479 43.2257 50.2281 42.8857C50.6181 42.5264 51.1288 42.3266 51.6592 42.3257H51.6902C52.024 42.3235 52.354 42.398 52.6544 42.5435L53.0277 42.8234L53.9608 43.6945H54.0542C54.084 43.6853 54.1073 43.662 54.1165 43.6322V43.1657C54.1244 43.1216 54.1131 43.0764 54.0854 43.0412L53.3388 42.4191ZM51.5658 40.9572H51.6279C52.574 40.9657 53.4788 41.3455 54.1475 42.0147C54.1802 42.0472 54.1921 42.0951 54.1786 42.1391L53.9921 42.4191H53.8365C53.2588 41.8195 52.4606 41.4822 51.6279 41.4859H51.5658C50.8044 41.4897 50.0721 41.7782 49.5127 42.2947C48.9717 42.7893 48.6665 43.4903 48.6729 44.2232C48.6796 44.7751 48.8652 45.3099 49.2017 45.7474C49.6888 46.3684 50.2652 46.9135 50.9125 47.3649C50.9398 47.3876 50.9519 47.4237 50.9436 47.4582L50.8504 47.8003L50.7881 47.8626H50.6948C49.9723 47.3637 49.3321 46.7551 48.7973 46.0585C48.3867 45.5335 48.1575 44.8895 48.1442 44.2232C48.1381 43.3503 48.4994 42.5151 49.1396 41.9214C49.7979 41.3057 50.6644 40.9614 51.5658 40.9572ZM51.6279 40.1172H51.5658C50.4183 40.1253 49.3171 40.5701 48.4863 41.3616C47.6773 42.1168 47.2254 43.1789 47.2421 44.2855C47.2488 45.1307 47.5329 45.9503 48.0508 46.6184C48.8044 47.5651 49.734 48.3572 50.7881 48.9514H50.9125L51.1615 48.7024C51.1886 48.6797 51.2006 48.6437 51.1925 48.6091V48.547C50.1644 47.9535 49.2654 47.1603 48.5486 46.2141C48.0954 45.6364 47.8442 44.9262 47.8331 44.1922C47.8246 43.2364 48.22 42.3214 48.9217 41.6726C49.6536 40.9803 50.6206 40.5914 51.6279 40.5839C52.6406 40.5812 53.6175 40.9587 54.3652 41.6414H54.4898L54.8008 41.4549V41.3926C54.809 41.358 54.7969 41.322 54.7696 41.2993C53.9167 40.5072 52.7919 40.073 51.6279 40.0862V40.1172ZM50.5704 49.7912H50.4461C49.3192 49.1595 48.3175 48.3266 47.4908 47.3339C47.4631 47.2987 47.4519 47.2535 47.4598 47.2095L47.5531 46.8051L47.6154 46.7428H47.7086C48.5154 47.8166 49.5313 48.7159 50.6948 49.3868C50.7365 49.4134 50.7502 49.468 50.7258 49.5112L50.5704 49.7912ZM51.0058 51.0353H51.0369V50.5689C51.0394 50.5274 51.014 50.4893 50.9748 50.4755C49.8661 49.9324 48.8567 49.207 47.9886 48.3293H47.8952C47.8561 48.343 47.8306 48.381 47.8331 48.4226V48.8891C47.8331 48.938 47.8561 48.9841 47.8952 49.0135C48.7958 49.8555 49.8248 50.5484 50.9436 51.0666L51.0058 51.0353ZM48.6729 50.2266L48.7352 50.1645L48.8286 50.1955C49.3875 50.608 49.9806 50.9722 50.6015 51.2843C50.6406 51.298 50.6661 51.3362 50.6638 51.3776V51.813H50.5704C49.9081 51.5047 49.2733 51.1405 48.6729 50.7243C48.6238 50.6891 48.5994 50.6284 48.6106 50.5689L48.6729 50.2266ZM51.5658 53.1195C51.5825 53.0905 51.5825 53.0551 51.5658 53.0262L51.2858 52.5595H51.2236C50.3502 52.2132 49.5161 51.7753 48.7352 51.2532H48.6419C48.6146 51.2757 48.6025 51.312 48.6106 51.3464V51.7507C48.6106 51.7997 48.6338 51.8459 48.6729 51.8753C49.5431 52.4226 50.4717 52.8712 51.4413 53.2128L51.5036 53.1195H51.5658ZM49.295 52.5595H49.3883L49.3573 52.5907C50.2125 53.0212 51.1088 53.3649 52.0323 53.6172C52.0583 53.6345 52.0742 53.6637 52.0742 53.6949C52.0742 53.7262 52.0583 53.7553 52.0323 53.7726L51.5969 53.9905H51.4725C50.8008 53.7676 50.1461 53.4972 49.5127 53.1818L49.4194 53.0884L49.264 52.6528C49.2556 52.6184 49.2677 52.5822 49.295 52.5595Z" fill="white"/>
<path fill-rule="evenodd" clip-rule="evenodd" d="M57.0692 47.2613C57.1604 47.1763 57.2071 47.0538 57.196 46.9296C57.2113 46.8148 57.1673 46.7003 57.0794 46.6248C56.9917 46.5496 56.8717 46.5238 56.7604 46.5563L56.5427 46.6186C56.6367 46.4292 56.8292 46.309 57.0404 46.3076C57.0473 46.2201 57.0254 46.1326 56.9783 46.0586C56.5683 46.1063 56.26 46.4548 56.2629 46.8673C56.2433 46.9988 56.285 47.1319 56.3758 47.229C56.4669 47.3259 56.5969 47.3761 56.7294 47.3651C56.8525 47.3848 56.9779 47.3465 57.0692 47.2613ZM56.8913 46.8069C56.9275 46.8371 56.9481 46.8823 56.9471 46.9296V46.9607C56.9415 47.0098 56.9127 47.0536 56.8698 47.078C56.8269 47.1026 56.7746 47.1053 56.7294 47.085C56.6361 47.085 56.5427 46.9917 56.5427 46.8363L56.7604 46.774C56.8069 46.7646 56.855 46.7767 56.8913 46.8069Z" fill="white"/>
<path d="M56.0763 46.1208V47.334H55.7963V46.4319L55.5786 46.5252C55.5179 46.4565 55.4846 46.3679 55.4852 46.2763L55.8584 46.1208H56.0763Z" fill="white"/>
<path fill-rule="evenodd" clip-rule="evenodd" d="M54.6454 47.365C55.1119 47.365 55.3919 47.1784 55.3919 46.6806C55.3919 46.3386 55.2363 46.0896 54.9252 46.0896C54.6848 46.0896 54.4898 46.2846 54.4898 46.5252C54.4802 46.635 54.5196 46.7436 54.5977 46.8217C54.6757 46.8996 54.7842 46.9392 54.8942 46.9296C54.9763 46.9283 55.0544 46.8948 55.1119 46.8363C55.0809 47.085 54.8942 47.1163 54.6142 47.1163C54.6107 47.1471 54.6107 47.1786 54.6142 47.2096C54.6111 47.2631 54.6217 47.3167 54.6454 47.365ZM55.1429 46.6186L54.9252 46.6806V46.7119C54.8657 46.7311 54.8004 46.7125 54.7596 46.665C54.7188 46.6173 54.7107 46.55 54.7386 46.494C54.7265 46.4417 54.7423 46.3869 54.7802 46.349C54.8182 46.3111 54.8729 46.2952 54.9252 46.3075C55.0498 46.3075 55.1429 46.4319 55.1429 46.6186Z" fill="white"/>
<path d="M54.3031 46.1208V47.334H54.0231V46.4319L53.8054 46.5252C53.7447 46.4565 53.7116 46.3679 53.712 46.2763L54.0854 46.1208H54.3031Z" fill="white"/>
</g>
<defs>
<linearGradient id="paint0_linear_839_1414" x1="44.5507" y1="22.8595" x2="29.8342" y2="43.3149" gradientUnits="userSpaceOnUse">
<stop stop-color="#8CBAE4"/>
<stop offset="0.11" stop-color="#6DACDF"/>
<stop offset="0.54" stop-color="#005CA4"/>
<stop offset="1" stop-color="#005CA4"/>
</linearGradient>
<linearGradient id="paint1_linear_839_1414" x1="42.8383" y1="18.759" x2="24.961" y2="49.7551" gradientUnits="userSpaceOnUse">
<stop offset="0.05" stop-color="#8CBAE4"/>
<stop offset="0.54" stop-color="#005CA4"/>
<stop offset="1" stop-color="#005CA4"/>
</linearGradient>
<clipPath id="clip0_839_1414">
<rect width="100" height="100" fill="white"/>
</clipPath>
</defs>
</svg>
