<svg width="100" height="100" viewBox="0 0 100 100" fill="none" xmlns="http://www.w3.org/2000/svg">
<g clip-path="url(#clip0_840_1751)">
<path fill-rule="evenodd" clip-rule="evenodd" d="M25.1458 40.2839C31.9806 34.3824 40.9852 31.2014 50.0077 31.2506C50.9412 31.2558 51.876 31.2979 52.8077 31.3726C65.0608 32.0922 76.5962 39.2616 83.0808 49.5443C83.9433 51.6316 82.431 53.3437 81.0243 54.9362C80.5589 55.4629 80.1052 55.9766 79.7527 56.4864C72.4825 65.1093 61.3625 70.5518 49.9752 70.3045C49.2779 70.3064 48.5806 70.3012 47.8837 70.2635C37.2652 69.8195 27.0468 64.6922 20.255 56.5839C19.9015 56.0891 19.4672 55.5979 19.0243 55.097C17.6986 53.5979 16.2964 52.0122 16.7557 49.9839C18.7847 46.1985 21.9941 43.1612 25.1458 40.2839ZM64.0054 38.6151C59.9789 35.2629 54.7122 33.5604 49.4952 33.6593C45.4375 33.7362 41.4093 34.9047 38.0285 37.2399C33.6093 40.2437 29.701 44.8914 29.2479 50.3743C29.1452 55.5537 32.5866 60.0812 36.3929 63.2976C40.9939 66.9972 47.0852 68.7689 52.9618 67.9443C61.0033 66.9764 68.5256 61.1214 70.7275 53.2718C72.0383 47.5689 68.245 42.0818 64.0054 38.6151Z" fill="#FFBB00"/>
<path fill-rule="evenodd" clip-rule="evenodd" d="M49.4631 35.63C55.1235 35.4463 60.8181 38.6588 63.3304 43.7925C66.486 49.7042 65.1262 57.6582 60.0017 62.0621C56.9498 64.9369 52.5567 66.3092 48.389 65.8542C41.0942 65.1807 35.0452 58.5317 35.0017 51.263C34.6348 44.385 39.5892 37.6859 46.346 36.0942C47.3723 35.818 48.4148 35.664 49.4631 35.63Z" fill="#00821B"/>
</g>
<defs>
<clipPath id="clip0_840_1751">
<rect width="100" height="100" fill="white"/>
</clipPath>
</defs>
</svg>
