<svg width="100" height="100" viewBox="0 0 100 100" fill="none" xmlns="http://www.w3.org/2000/svg">
<path d="M14 16V62H40.7435V46.145L49.4932 54.8279L58.2565 46.145V62H61.8982C61.9337 60.7529 61.9578 59.1094 61.9379 58.4069C61.9104 57.6721 61.8692 55.9029 61.8692 54.9503C61.8692 49.6427 62.3362 48.336 62.3362 40.6875C62.3362 38.4011 61.8143 37.8431 61.0726 37.8431C60.2346 37.8431 58.1331 39.4219 56.581 40.5106C54.0948 42.2527 52.7487 43.6545 51.1417 43.6545C50.1802 43.6545 49.6444 43.2326 49.04 42.4705C48.9165 42.3343 48.6005 41.6949 48.6005 41.1912C48.6005 40.6196 48.8201 39.8303 49.6992 39.3131C50.647 38.7551 51.691 38.8639 53.9435 37.5165C56.6084 35.9243 59.7949 34.0735 60.3033 33.7469C61.2235 33.2705 61.0036 32.5357 61.0036 31.8552C61.0036 30.3853 62.3361 29.8681 63.4898 29.8681C64.5888 29.8681 65.2756 30.2764 65.4403 30.3445C65.8525 30.1131 66.9238 29.5143 68.9293 28.2894C71.4016 26.7788 71.3604 25.5811 72.8988 25.2545C74.6021 24.887 75.6871 26.5338 75.6871 27.6906C75.6871 29.419 73.4619 30.426 72.3357 31.0521C69.1901 32.8077 68.0914 33.5426 66.965 34.2639C67.02 34.9579 67.02 36.5775 67.02 37.9658C67.02 40.2793 67.7205 44.6072 67.7205 47.0024C67.7205 49.8468 67.5967 53.3851 67.5967 54.2562C67.5967 55.6715 67.748 57.2776 67.9266 58.4207C68.0155 59.3194 68.1322 60.7945 68.1967 62H85V39.8346C84.968 39.897 84.9357 39.9576 84.9038 40.0207C83.4478 42.906 81.5799 46.0904 80.1651 50.9626C79.7805 52.3916 79.6293 53.4667 79.6018 54.8822C79.547 57.291 76.0718 58.2573 74.1489 55.5082C72.5692 53.249 70.7423 45.1923 70.5363 44.2396C69.6572 40.3337 69.3278 38.9047 69.2178 37.4621C69.0667 35.6112 69.8221 34.5497 71.4842 34.1277C73.201 33.6786 74.6022 34.5361 74.7396 36.4006C75.0005 39.9117 75.2203 42.6473 75.5636 44.2396C75.6735 44.7705 75.9893 44.9609 76.3328 44.9609C76.786 44.9609 77.0471 44.6615 77.1981 44.3212C77.8445 42.9241 79.5167 37.005 85 30.1172V16H58.5587L49.4932 24.9686L40.4413 16H14Z" fill="black"/>
<path d="M68.3459 66.4V79H65.4299V73.834H59.7059V79H56.7899V66.4H59.7059V71.368H65.4299V66.4H68.3459ZM71.327 66.4H77.051C78.419 66.4 79.625 66.664 80.669 67.192C81.725 67.708 82.541 68.44 83.117 69.388C83.705 70.336 83.999 71.44 83.999 72.7C83.999 73.96 83.705 75.064 83.117 76.012C82.541 76.96 81.725 77.698 80.669 78.226C79.625 78.742 78.419 79 77.051 79H71.327V66.4ZM76.907 76.606C78.167 76.606 79.169 76.258 79.913 75.562C80.669 74.854 81.047 73.9 81.047 72.7C81.047 71.5 80.669 70.552 79.913 69.856C79.169 69.148 78.167 68.794 76.907 68.794H74.243V76.606H76.907Z" fill="black"/>
</svg>
