<svg width="100" height="100" viewBox="0 0 100 100" fill="none" xmlns="http://www.w3.org/2000/svg">
<g clip-path="url(#clip0_841_131)">
<path d="M73.9902 65.2104H19.3363C17.7592 65.2104 16.5238 63.8583 16.68 62.301L19.4698 37.8021C19.5388 37.1458 19.8487 36.5383 20.3396 36.0975C20.8305 35.6569 21.4675 35.4141 22.1268 35.4166H76.7787C78.3585 35.4166 79.5933 36.7666 79.4377 38.3239L76.6493 62.8235C76.5808 63.4806 76.2706 64.0887 75.7793 64.5298C75.2879 64.9708 74.6502 65.2133 73.9902 65.2104Z" fill="#335A45"/>
<path d="M29.3579 38.1556C30.1556 38.1467 30.9452 38.3144 31.6706 38.6467C32.3461 38.955 32.9492 39.4023 33.4406 39.9592C33.925 40.52 34.2836 41.1783 34.4919 41.8898C34.7156 42.6581 34.7694 43.466 34.6494 44.2573L32.1965 61.8262H29.3225L30.199 55.5829H23.6808L22.8071 61.8296H20.0039L22.4567 44.2606C22.5696 43.426 22.8425 42.621 23.2602 41.8898C23.6736 41.1619 24.2067 40.5092 24.8375 39.9592C25.4646 39.4125 26.1742 38.9685 26.9398 38.644C27.7046 38.3192 28.5271 38.1529 29.3579 38.1556ZM24.0665 52.7452H30.5846L31.7761 44.2827C31.8931 43.3742 31.6827 42.5989 31.1452 41.9573C30.6077 41.3156 29.8833 40.9948 28.9721 40.9954C28.5142 40.9929 28.0602 41.0821 27.6373 41.2579C27.2269 41.4262 26.8479 41.6627 26.5161 41.9573C26.1825 42.2562 25.9038 42.611 25.6925 43.006C25.4742 43.4033 25.3261 43.835 25.2546 44.2827L24.0665 52.7452Z" fill="white"/>
<path d="M39.6263 61.8296C38.8333 61.84 38.0483 61.6713 37.3296 61.3361C36.6638 61.0269 36.0721 60.5783 35.5944 60.0206C35.1167 59.4519 34.7644 58.7886 34.5604 58.0742C34.3363 57.2998 34.2825 56.4863 34.4029 55.6892L36.0154 44.2575C36.1302 43.4238 36.4044 42.6198 36.8231 41.89C37.2392 41.1592 37.7719 40.5017 38.4002 39.9433C39.0213 39.3883 39.7323 38.9436 40.5027 38.6281C41.2696 38.3136 42.0906 38.1531 42.9194 38.1558C43.7098 38.145 44.4929 38.3067 45.2148 38.6294C45.8886 38.9331 46.4871 39.3817 46.9681 39.9433C47.4498 40.5119 47.8075 41.175 48.0179 41.89C48.2421 42.6581 48.2961 43.4663 48.1761 44.2575L47.8958 46.1867H45.0573L45.3375 44.2708C45.4538 43.365 45.2433 42.5925 44.7069 41.9533C44.1702 41.3144 43.4458 40.995 42.5336 40.9954C42.0767 40.9936 41.6242 41.0827 41.2021 41.2579C40.7919 41.4271 40.4127 41.664 40.0808 41.9588C39.7473 42.2577 39.4686 42.6129 39.2573 43.0081C39.0392 43.4058 38.8911 43.8381 38.8194 44.2863L37.2069 55.6986C37.0902 56.6338 37.3008 57.4156 37.8383 58.044C38.3758 58.6723 39.1 58.9873 40.0108 58.9886H43.2698L44.3211 51.3779H40.1829L40.6033 48.5367H47.58L45.7227 61.8304L39.6263 61.8296Z" fill="white"/>
<path d="M50.9093 55.5514L50.0329 61.8308H47.2297L50.5589 38.1196H55.6399C56.3968 38.1114 57.1464 38.2685 57.8364 38.58C58.5266 38.8916 59.1404 39.35 59.6352 39.9231C60.1122 40.4923 60.4643 41.1556 60.6685 41.8698C60.892 42.6441 60.946 43.4575 60.8266 44.2546L60.0924 49.4458C59.9414 50.605 59.5016 51.7077 58.8137 52.6523C58.1239 53.5996 57.2185 54.3419 56.0972 54.8796L59.0412 61.8269H55.7447L53.1518 55.5475L50.9093 55.5514ZM51.2943 52.7104H53.5756C54.0193 52.7108 54.4593 52.6279 54.8724 52.4658C55.2912 52.3037 55.677 52.0669 56.0112 51.7664C56.3424 51.4691 56.6243 51.1206 56.846 50.7344C57.0716 50.3408 57.2204 49.9077 57.2845 49.4585L58.0187 44.2827C58.0908 43.8575 58.0681 43.4214 57.952 43.006C57.8441 42.6135 57.6529 42.2489 57.3914 41.9373C57.1318 41.6331 56.8091 41.3894 56.4456 41.2231C56.0612 41.0462 55.6424 40.9566 55.2195 40.9612H52.9416L51.2943 52.7104Z" fill="white"/>
<path d="M72.8463 55.7246C72.7292 56.5656 72.4496 57.376 72.0227 58.11C71.6029 58.8429 71.064 59.5008 70.4281 60.0567C69.799 60.6052 69.0823 61.044 68.3077 61.3546C67.534 61.6681 66.7069 61.8287 65.8723 61.8275C65.0819 61.8381 64.2988 61.6767 63.5769 61.3546C62.9067 61.0529 62.309 60.6102 61.825 60.0567C61.3386 59.4937 60.9852 58.8283 60.7911 58.11C60.5786 57.3333 60.5306 56.5208 60.6502 55.7246L62.2621 44.2906C62.3781 43.4517 62.6517 42.6423 63.0683 41.9052C63.4783 41.1704 64.0119 40.5123 64.6456 39.9592C65.2729 39.4127 65.9827 38.9687 66.7486 38.644C67.5133 38.3192 68.3361 38.1529 69.1667 38.1556C69.9644 38.1467 70.754 38.3144 71.4794 38.6467C72.1548 38.9548 72.7577 39.4021 73.2488 39.9592C73.7356 40.5246 74.0944 41.1885 74.3006 41.9058C74.5242 42.6804 74.5777 43.4942 74.4581 44.2912L72.8463 55.7246ZM71.6196 44.3206C71.7365 43.4119 71.5204 42.6302 70.9715 41.976C70.4223 41.3217 69.6923 40.9948 68.7808 40.9954C68.3354 40.9956 67.8946 41.0848 67.4842 41.2579C67.0667 41.431 66.6817 41.674 66.3454 41.976C65.6658 42.5898 65.2148 43.4167 65.0661 44.3206L63.4536 55.7331C63.3811 56.141 63.4 56.56 63.509 56.9596C63.6181 57.3592 63.8146 57.7296 64.0842 58.0437C64.3413 58.3473 64.6652 58.5871 65.0306 58.744C65.4179 58.9098 65.8354 58.9929 66.2567 58.9883C66.7061 58.9873 67.1513 58.9044 67.5708 58.744C67.9961 58.5844 68.3879 58.3471 68.7263 58.0437C69.0594 57.7465 69.3433 57.3977 69.5671 57.011C69.7927 56.6167 69.9415 56.1831 70.0056 55.7331L71.6196 44.3206Z" fill="white"/>
<path d="M84.8034 52.59H79.8471L79.1442 57.8915H74.7178L75.4201 52.59H70.4763L71.089 47.9639H76.0328L76.7294 42.7052H81.1565L80.4599 47.9639H85.4167L84.8034 52.59Z" fill="#88BC51"/>
</g>
<defs>
<clipPath id="clip0_841_131">
<rect width="100" height="100" fill="white"/>
</clipPath>
</defs>
</svg>
