<svg width="100" height="100" viewBox="0 0 100 100" fill="none" xmlns="http://www.w3.org/2000/svg">
<path d="M14.9246 55.8301H15.5731C18.5353 55.8301 20.4088 54.2602 23.0829 50.4229H23.1309L21.1854 56.4485H9V56.4009C10.1689 55.7349 10.4571 55.1165 10.8734 53.4198L13.8838 41.4717C14.0679 40.7264 14.172 40.1872 14.172 39.775C14.172 39.212 14.0199 38.8473 13.5235 38.4906V38.443H20.4088V38.4906C19.2399 39.1565 18.9517 39.775 18.5353 41.4796L14.9246 55.8301Z" fill="#F51A50"/>
<path d="M27.6384 54.1096C27.6064 54.2682 27.5904 54.4347 27.5904 54.6011C27.5904 55.0372 27.7986 55.3226 28.2149 55.3226C28.4551 55.3147 28.6872 55.2434 28.8874 55.1165V55.1641C28.0788 56.2741 27.07 56.7101 25.9491 56.7101C24.2598 56.7101 23.5313 55.7032 23.5313 54.3395C23.5233 53.9669 23.5713 53.5942 23.6594 53.2295L25.3246 46.5141C25.5328 45.6896 25.6609 45.198 25.6609 44.8412C25.6609 44.3814 25.5088 44.0722 25.1165 43.763V43.7075H30.2645L27.6384 54.1096ZM29.0635 37.5391C30.3926 37.5391 31.3213 38.4906 31.3213 39.7274C31.3293 41.0832 30.2244 42.1931 28.8554 42.2011C28.8474 42.2011 28.8394 42.2011 28.8313 42.2011C27.5023 42.2011 26.5736 41.2497 26.5736 40.0128C26.5496 38.665 27.6384 37.555 28.9995 37.5391C29.0155 37.5312 29.0395 37.5312 29.0635 37.5391H29.0635Z" fill="#F51A50"/>
<path d="M36.6773 43.7075H38.6308L38.3186 44.3497H36.5492L33.635 56.0362C32.5702 60.3334 30.6967 62.1094 26.8538 62.1649V62.1173C28.2308 61.1897 28.8313 58.9539 30.0242 53.8004L32.2339 44.3576H31.041L31.1211 44.0722L32.4421 43.5093L32.6742 42.7878C33.611 39.109 36.4131 37 39.3834 37C41.0247 37 42.3457 37.8008 42.3457 39.1328C42.3457 40.655 41.2248 41.5034 39.9278 41.5034C39.0712 41.5034 38.4707 41.0435 38.3426 40.4964C39.1192 40.3696 39.9839 39.6957 39.9839 38.2289C39.9839 37.7374 39.7277 37.4044 39.2553 37.4044C38.3186 37.4044 37.542 38.6888 37.0456 41.7016L36.6773 43.7075Z" fill="#F51A50"/>
<path d="M36.7334 51.9927C36.7334 47.9016 40.136 43.422 44.5794 43.422C46.7091 43.422 47.7739 44.5003 47.7739 46.0226C47.7739 48.9085 44.6275 50.1374 40.9927 50.296C40.9126 50.7796 40.8726 51.2712 40.8646 51.7628C40.8646 53.8242 41.8493 54.8231 43.2264 54.8231C44.3953 54.8231 45.2039 54.2602 46.1887 52.9679H46.3488C45.26 55.4653 43.3865 56.7022 41.1288 56.7022C38.5508 56.7022 36.7334 55.0848 36.7334 51.9927ZM41.0727 49.9154C43.2584 49.2494 44.8917 46.752 44.8917 44.7144C44.8917 44.199 44.7075 43.8898 44.3713 43.8898C43.2024 43.8898 41.6172 47.0533 41.0727 49.9154Z" fill="#F51A50"/>
<path d="M51.753 53.3564C51.697 53.5308 51.6729 53.7132 51.6729 53.8955C51.6729 54.6408 52.1693 55.0769 52.7938 55.0769C53.2101 55.0769 53.7545 54.8469 54.2509 54.3792L54.2749 54.4267C53.3142 55.9411 52.0412 56.6943 50.4 56.6943C48.5265 56.6943 47.5417 55.616 47.5417 53.9431C47.5578 53.515 47.6138 53.0947 47.7259 52.6825L49.8315 44.3417H48.8948L48.9749 44.0087C51.6729 43.319 53.4183 41.8205 55.0836 39.22H55.3157L54.1949 43.6995H56.6368L56.3485 44.3417H54.0107L51.753 53.3564Z" fill="#F51A50"/>
<path d="M59.4468 54.1096C59.4148 54.2682 59.3988 54.4347 59.3908 54.6012C59.3908 55.0372 59.599 55.3226 60.0153 55.3226C60.2555 55.3147 60.4877 55.2434 60.6878 55.1165V55.1641C59.8792 56.2741 58.8704 56.7101 57.7495 56.7101C56.0602 56.7101 55.3317 55.7032 55.3317 54.3395C55.3237 53.9669 55.3717 53.5942 55.4598 53.2295L57.1251 46.5141C57.3332 45.6896 57.4613 45.198 57.4613 44.8412C57.4613 44.3814 57.3012 44.0722 56.9169 43.763V43.7075H62.0649L59.4468 54.1096ZM60.8719 37.5391C62.201 37.5391 63.1297 38.4906 63.1297 39.7274C63.1297 41.0832 62.0248 42.1852 60.6558 42.1931C60.6478 42.1931 60.6398 42.1931 60.6398 42.1931C59.3187 42.1931 58.382 41.2417 58.382 40.0049C58.358 38.6571 59.4468 37.5471 60.8079 37.5312C60.8319 37.5312 60.8479 37.5312 60.8719 37.5392L60.8719 37.5391Z" fill="#F51A50"/>
<path d="M78.7818 54.1096C78.7338 54.2682 78.7018 54.4347 78.7018 54.6012C78.7018 55.0372 78.9099 55.3226 79.3503 55.3226C79.5824 55.3147 79.8066 55.2434 79.9988 55.1165V55.1641C79.2222 56.2741 78.2054 56.7101 77.0925 56.7101C75.3792 56.7101 74.6266 55.7032 74.6266 54.3395C74.6266 53.9748 74.7067 53.618 74.7867 53.2295L76.2679 47.3387C76.364 47.0295 76.42 46.7124 76.428 46.3873C76.428 45.975 76.2679 45.7213 75.8596 45.7213C75.0509 45.7213 74.2183 46.7758 73.6499 48.9402L71.7764 56.4564H67.5892L69.879 47.3466C69.975 47.0533 70.0311 46.752 70.0391 46.4428C70.0391 46.0067 69.8549 45.7213 69.4146 45.7213C68.606 45.7213 67.8054 46.7758 67.2289 49.0116L65.3635 56.4485H61.1522L63.6501 46.5141C63.8343 45.6896 63.9624 45.198 63.9624 44.8412C63.9624 44.3814 63.8023 44.0722 63.442 43.763V43.7075H68.5659L67.8134 46.6648C68.7741 44.6351 69.967 43.4458 71.7604 43.4458C73.4737 43.4458 74.2263 44.6034 74.2263 46.0939C74.2183 46.2763 74.2023 46.4586 74.1703 46.6331C75.155 44.6034 76.404 43.4458 78.1733 43.4458C79.9187 43.4458 80.6392 44.5558 80.6392 46.0226C80.6312 46.5062 80.5672 46.9898 80.4551 47.4656L78.7818 54.1096Z" fill="#F51A50"/>
<path d="M80.9595 51.9927C80.9595 47.9016 84.3621 43.422 88.8055 43.422C90.9352 43.422 92 44.5003 92 46.0226C92 48.9085 88.8536 50.1374 85.2188 50.296C85.1387 50.7796 85.0987 51.2712 85.0907 51.7628C85.0907 53.8242 86.0754 54.8231 87.4525 54.8231C88.6214 54.8231 89.43 54.2602 90.4148 52.9679H90.5669C89.478 55.4653 87.6046 56.7022 85.3469 56.7022C82.7849 56.7022 80.9595 55.0848 80.9595 51.9927ZM85.2988 49.9154C87.4845 49.2494 89.1178 46.752 89.1178 44.7144C89.1178 44.199 88.9336 43.8898 88.5974 43.8898C87.4365 43.8898 85.8512 47.0533 85.2988 49.9154Z" fill="#F51A50"/>
</svg>
