<svg width="100" height="100" viewBox="0 0 100 100" fill="none" xmlns="http://www.w3.org/2000/svg">
<g clip-path="url(#clip0_840_1799)">
<path d="M26.0373 70.1459L25.1207 73.4168C25.1138 73.4376 25.1171 73.4584 25.1311 73.4793C25.145 73.5001 25.1623 73.5105 25.1832 73.5105H26.9123C26.9332 73.5105 26.9505 73.5001 26.9644 73.4793C26.9784 73.4584 26.9817 73.4376 26.9748 73.4168L26.0582 70.1459C26.0582 70.139 26.0546 70.1355 26.0477 70.1355C26.0409 70.1355 26.0373 70.139 26.0373 70.1459ZM23.3394 76.4584C23.1936 76.4584 23.079 76.3995 22.9957 76.2813C22.9123 76.1632 22.895 76.0349 22.9436 75.8959L25.0998 69.4167C25.1623 69.2501 25.263 69.1147 25.4019 69.0105C25.5477 68.9063 25.7075 68.8542 25.8811 68.8542H26.2561C26.4367 68.8542 26.5963 68.9063 26.7352 69.0105C26.8811 69.1147 26.9817 69.2501 27.0373 69.4167L29.1936 75.8959C29.2421 76.0349 29.2248 76.1632 29.1415 76.2813C29.0582 76.3995 28.9436 76.4584 28.7977 76.4584H28.4227C28.2561 76.4584 28.0998 76.4063 27.954 76.3022C27.815 76.1911 27.7213 76.0522 27.6727 75.8855L27.3394 74.7084C27.3325 74.6528 27.2942 74.6251 27.2248 74.6251H24.8707C24.8082 74.6251 24.77 74.6528 24.7561 74.7084L24.4227 75.8855C24.3811 76.0522 24.2873 76.1911 24.1415 76.3022C24.0025 76.4063 23.8463 76.4584 23.6727 76.4584H23.3394Z" fill="#047BE3"/>
<path d="M31.6657 70.0417V72.5521C31.6657 72.6006 31.6934 72.6319 31.749 72.6458C32.0129 72.6806 32.2698 72.6979 32.5198 72.6979C33.0823 72.6979 33.5094 72.5765 33.8011 72.3333C34.0996 72.0833 34.249 71.7292 34.249 71.2708C34.249 70.3473 33.6725 69.8854 32.5198 69.8854C32.2698 69.8854 32.0129 69.9027 31.749 69.9375C31.6934 69.9515 31.6657 69.986 31.6657 70.0417ZM30.8115 76.4583C30.6517 76.4583 30.5129 76.3994 30.3948 76.2813C30.2838 76.1631 30.2281 76.0244 30.2281 75.8646V69.5C30.2281 69.3333 30.2838 69.184 30.3948 69.0521C30.5059 68.9202 30.6448 68.8473 30.8115 68.8333C31.4017 68.7777 31.9713 68.75 32.5198 68.75C33.5615 68.75 34.3427 68.9583 34.8636 69.375C35.3844 69.7848 35.6448 70.3819 35.6448 71.1667C35.6448 72.0348 35.3913 72.691 34.8844 73.1354C34.3844 73.5798 33.6413 73.8021 32.6552 73.8021C32.4261 73.8021 32.124 73.7881 31.749 73.7604C31.6934 73.7604 31.6657 73.7881 31.6657 73.8437V75.8646C31.6657 76.0244 31.6067 76.1631 31.4886 76.2813C31.3704 76.3994 31.2317 76.4583 31.0719 76.4583H30.8115Z" fill="#047BE3"/>
<path d="M38.6512 70.1459L37.7345 73.4168C37.7274 73.4376 37.731 73.4584 37.7449 73.4793C37.7587 73.5001 37.7762 73.5105 37.797 73.5105H39.5262C39.547 73.5105 39.5643 73.5001 39.5783 73.4793C39.592 73.4584 39.5956 73.4376 39.5887 73.4168L38.672 70.1459C38.672 70.139 38.6685 70.1355 38.6616 70.1355C38.6545 70.1355 38.6512 70.139 38.6512 70.1459ZM35.9533 76.4584C35.8074 76.4584 35.6929 76.3995 35.6095 76.2813C35.5262 76.1632 35.5087 76.0349 35.5574 75.8959L37.7137 69.4167C37.7762 69.2501 37.8768 69.1147 38.0158 69.0105C38.1616 68.9063 38.3212 68.8542 38.4949 68.8542H38.8699C39.0504 68.8542 39.2102 68.9063 39.3491 69.0105C39.4949 69.1147 39.5956 69.2501 39.6512 69.4167L41.8074 75.8959C41.856 76.0349 41.8387 76.1632 41.7554 76.2813C41.672 76.3995 41.5574 76.4584 41.4116 76.4584H41.0366C40.8699 76.4584 40.7137 76.4063 40.5679 76.3022C40.4289 76.1911 40.3352 76.0522 40.2866 75.8855L39.9533 74.7084C39.9462 74.6528 39.9081 74.6251 39.8387 74.6251H37.4845C37.422 74.6251 37.3837 74.6528 37.3699 74.7084L37.0366 75.8855C36.9949 76.0522 36.9012 76.1911 36.7554 76.3022C36.6164 76.4063 36.4602 76.4584 36.2866 76.4584H35.9533Z" fill="#047BE3"/>
<path d="M44.2795 70.0417V72.3021C44.2795 72.3577 44.3108 72.3854 44.3733 72.3854H44.8941C46.1302 72.3854 46.7483 71.9444 46.7483 71.0625C46.7483 70.2777 46.1754 69.8854 45.0295 69.8854C44.8212 69.8854 44.6025 69.9027 44.3733 69.9375C44.3108 69.9515 44.2795 69.986 44.2795 70.0417ZM43.4358 76.4583C43.276 76.4583 43.137 76.3994 43.0191 76.2813C42.901 76.1631 42.842 76.0244 42.842 75.8646V69.5C42.842 69.3333 42.8977 69.184 43.0087 69.0521C43.1197 68.9202 43.2587 68.8473 43.4254 68.8333C44.0156 68.7777 44.5852 68.75 45.1337 68.75C46.1545 68.75 46.9185 68.941 47.4254 69.3229C47.9323 69.6979 48.1858 70.2292 48.1858 70.9167C48.1858 71.4098 48.0504 71.8438 47.7795 72.2188C47.5156 72.5938 47.1581 72.8577 46.7066 73.0104C46.6998 73.0104 46.6962 73.014 46.6962 73.0208C46.6962 73.0348 46.6998 73.0417 46.7066 73.0417C47.04 73.25 47.3245 73.6598 47.5608 74.2708L48.1858 75.9063C48.2343 76.0381 48.217 76.1631 48.1337 76.2813C48.0573 76.3994 47.9497 76.4583 47.8108 76.4583H47.4879C47.3073 76.4583 47.1441 76.4098 46.9983 76.3125C46.8525 76.2083 46.7483 76.0729 46.6858 75.9063L46.1025 74.3021C45.9775 73.9688 45.8352 73.75 45.6754 73.6458C45.5156 73.5417 45.2412 73.4896 44.8525 73.4896H44.3733C44.3108 73.4896 44.2795 73.5208 44.2795 73.5833V75.8646C44.2795 76.0244 44.2206 76.1631 44.1025 76.2813C43.9914 76.3994 43.856 76.4583 43.6962 76.4583H43.4358Z" fill="#047BE3"/>
<path d="M50.0377 76.4584C49.8781 76.4584 49.7392 76.3995 49.6211 76.2813C49.5031 76.1632 49.444 76.0245 49.444 75.8647V69.448C49.444 69.2882 49.5031 69.1495 49.6211 69.0313C49.7392 68.9132 49.8781 68.8542 50.0377 68.8542H53.5794C53.7392 68.8542 53.8781 68.9132 53.9961 69.0313C54.1142 69.1495 54.1731 69.2882 54.1731 69.448C54.1731 69.6078 54.1142 69.7465 53.9961 69.8647C53.8781 69.9757 53.7392 70.0313 53.5794 70.0313H50.9961C50.9336 70.0313 50.9023 70.0626 50.9023 70.1251V71.8022C50.9023 71.8647 50.9336 71.8959 50.9961 71.8959H53.4023C53.5621 71.8959 53.694 71.9515 53.7981 72.0626C53.9094 72.1736 53.9648 72.3057 53.9648 72.4584C53.9648 72.6111 53.9094 72.7432 53.7981 72.8543C53.694 72.9584 53.5621 73.0105 53.4023 73.0105H50.9961C50.9336 73.0105 50.9023 73.0417 50.9023 73.1042V75.1876C50.9023 75.2501 50.9336 75.2813 50.9961 75.2813H53.5794C53.7392 75.2813 53.8781 75.3403 53.9961 75.4584C54.1142 75.5695 54.1731 75.7049 54.1731 75.8647C54.1731 76.0245 54.1142 76.1632 53.9961 76.2813C53.8781 76.3995 53.7392 76.4584 53.5794 76.4584H50.0377Z" fill="#047BE3"/>
<path d="M58.7127 76.5625C57.6154 76.5625 56.7439 76.2256 56.0981 75.5521C55.4591 74.8715 55.1398 73.9062 55.1398 72.6562C55.1398 71.4202 55.4487 70.4619 56.0669 69.7812C56.6919 69.0937 57.5633 68.75 58.6814 68.75C59.1954 68.75 59.6258 68.7812 59.9731 68.8437C60.1398 68.8715 60.2787 68.9548 60.3898 69.0938C60.5008 69.2327 60.5564 69.389 60.5564 69.5625V69.6458C60.5564 69.7917 60.4939 69.9063 60.3689 69.9896C60.2508 70.0729 60.1225 70.0973 59.9835 70.0625C59.6433 69.9723 59.2612 69.9271 58.8377 69.9271C58.1502 69.9271 57.6085 70.1631 57.2127 70.6354C56.8237 71.1077 56.6294 71.7812 56.6294 72.6562C56.6294 73.5244 56.8308 74.1979 57.2335 74.6771C57.6433 75.1494 58.1883 75.3854 58.8689 75.3854C59.3273 75.3854 59.7196 75.3437 60.046 75.2604C60.185 75.2256 60.3133 75.25 60.4314 75.3333C60.5564 75.4167 60.6189 75.5313 60.6189 75.6771V75.75C60.6189 75.9235 60.5633 76.0798 60.4523 76.2187C60.3481 76.3506 60.2091 76.4306 60.0356 76.4583C59.6398 76.5277 59.1987 76.5625 58.7127 76.5625Z" fill="#047BE3"/>
<path d="M63.0127 76.4584C62.8529 76.4584 62.7139 76.3995 62.596 76.2813C62.4779 76.1632 62.4189 76.0245 62.4189 75.8647V69.448C62.4189 69.2882 62.4779 69.1495 62.596 69.0313C62.7139 68.9132 62.8529 68.8542 63.0127 68.8542H63.4294C63.5889 68.8542 63.7279 68.9132 63.846 69.0313C63.9639 69.1495 64.0231 69.2882 64.0231 69.448V75.8647C64.0231 76.0245 63.9639 76.1632 63.846 76.2813C63.7279 76.3995 63.5889 76.4584 63.4294 76.4584H63.0127Z" fill="#047BE3"/>
<path d="M67.3206 70.0625V75.25C67.3206 75.2985 67.3483 75.3298 67.4039 75.3438C67.626 75.3785 67.8343 75.3958 68.0289 75.3958C68.8414 75.3958 69.4385 75.1771 69.8206 74.7396C70.2025 74.2952 70.3935 73.566 70.3935 72.5521C70.3935 71.6423 70.1989 70.9756 69.8102 70.5521C69.4212 70.1285 68.8275 69.9167 68.0289 69.9167C67.8343 69.9167 67.626 69.934 67.4039 69.9687C67.3483 69.9827 67.3206 70.014 67.3206 70.0625ZM66.4664 76.4896C66.2927 76.4688 66.1504 76.3958 66.0393 76.2708C65.9281 76.139 65.8727 75.986 65.8727 75.8125V69.5C65.8727 69.3265 65.9281 69.1771 66.0393 69.0521C66.1504 68.9202 66.2927 68.8437 66.4664 68.8229C66.9108 68.7744 67.4073 68.75 67.956 68.75C69.1921 68.75 70.1364 69.0729 70.7893 69.7188C71.4489 70.3646 71.7789 71.309 71.7789 72.5521C71.7789 73.8854 71.4489 74.889 70.7893 75.5625C70.1364 76.2292 69.1921 76.5625 67.956 76.5625C67.4073 76.5625 66.9108 76.5381 66.4664 76.4896Z" fill="#047BE3"/>
<path d="M75.2519 70.1459L74.3353 73.4168C74.3284 73.4376 74.3319 73.4584 74.3457 73.4793C74.3596 73.5001 74.3769 73.5105 74.3978 73.5105H76.1269C76.1478 73.5105 76.1653 73.5001 76.179 73.4793C76.193 73.4584 76.1965 73.4376 76.1894 73.4168L75.2728 70.1459C75.2728 70.139 75.2694 70.1355 75.2624 70.1355C75.2555 70.1355 75.2519 70.139 75.2519 70.1459ZM72.554 76.4584C72.4082 76.4584 72.2936 76.3995 72.2103 76.2813C72.1269 76.1632 72.1096 76.0349 72.1582 75.8959L74.3144 69.4167C74.3769 69.2501 74.4778 69.1147 74.6165 69.0105C74.7623 68.9063 74.9221 68.8542 75.0957 68.8542H75.4707C75.6513 68.8542 75.8111 68.9063 75.9498 69.0105C76.0957 69.1147 76.1965 69.2501 76.2519 69.4167L78.4082 75.8959C78.4569 76.0349 78.4394 76.1632 78.3561 76.2813C78.2728 76.3995 78.1582 76.4584 78.0124 76.4584H77.6373C77.4707 76.4584 77.3144 76.4063 77.1686 76.3022C77.0299 76.1911 76.9361 76.0522 76.8873 75.8855L76.554 74.7084C76.5471 74.6528 76.509 74.6251 76.4394 74.6251H74.0853C74.0228 74.6251 73.9846 74.6528 73.9707 74.7084L73.6374 75.8855C73.5957 76.0522 73.5019 76.1911 73.3561 76.3022C73.2173 76.4063 73.0611 76.4584 72.8874 76.4584H72.554Z" fill="#047BE3"/>
<path d="M48.4113 21.963C48.4721 21.4292 48.9238 21.0261 49.4609 21.0261C49.9965 21.0261 50.4476 21.427 50.5101 21.9588L55.3092 62.6872C55.4296 63.7097 54.6196 64.603 53.5903 64.583L45.4421 64.4247C44.4419 64.4053 43.6753 63.5292 43.7886 62.5353L48.4113 21.963Z" fill="#047BE3"/>
<path fill-rule="evenodd" clip-rule="evenodd" d="M34.7462 60.0605C34.4956 59.8674 34.396 59.5378 34.4896 59.2355L46.3398 21.0018C46.7618 19.6397 48.0216 18.7112 49.4479 18.7112C50.8679 18.7112 52.1239 19.6321 52.551 20.9864L64.6004 59.1905C64.6958 59.4928 64.5973 59.8235 64.3466 60.0176C62.7629 61.2451 61.0227 62.2805 59.1612 63.0891C58.7119 63.2841 58.2075 62.996 58.1277 62.5128L51.4033 21.7774C51.2508 20.8543 50.4527 20.1772 49.5173 20.1772C48.5831 20.1772 47.7856 20.8524 47.6319 21.7741L40.8369 62.4824C40.756 62.9659 40.2504 63.253 39.8012 63.0562C37.9896 62.2622 36.2939 61.2528 34.7462 60.0605Z" fill="#047BE3"/>
<path d="M29.3029 54.4361L30.1904 55.6705L30.6918 56.2878C30.9139 56.5703 31.1546 56.6578 31.3779 56.6415C31.9585 56.5992 32.2212 55.9313 32.4208 55.3845L34.0483 50.9253L39.8737 35.7251C41.6998 30.7997 45.3983 20.8488 45.5835 20.4475C45.815 19.946 46.7408 17.7084 49.6343 17.7084C51.9491 17.7084 53.2223 19.5345 53.5696 20.4475L57.466 30.594L61.4398 41.4734C63.2014 46.1672 66.7869 55.717 67.0337 56.3651C67.2806 57.0132 67.7025 56.8151 67.8825 56.6351C68.3198 56.1592 69.2789 55.0997 69.6185 54.6676C69.8662 54.3522 69.8689 53.8259 69.8123 53.4247C69.7762 53.1703 69.6808 52.9299 69.5743 52.6959L58.1219 27.5461L54.4568 19.5602C54.0325 18.5957 52.4429 16.6667 49.48 16.6667C46.5171 16.6667 44.6704 19.3416 44.1175 20.679C39.2823 31.2755 29.55 52.6074 29.3029 53.163C29.056 53.7184 29.2002 54.2432 29.3029 54.4361Z" fill="#047BE3"/>
</g>
<defs>
<clipPath id="clip0_840_1799">
<rect width="100" height="100" fill="white"/>
</clipPath>
</defs>
</svg>
