<svg width="100" height="100" viewBox="0 0 100 100" fill="none" xmlns="http://www.w3.org/2000/svg">
<g clip-path="url(#clip0_836_144)">
<path d="M63.7423 29.5291L63.0774 30.6756C66.6013 31.3591 68.6625 32.8583 68.6625 34.6C68.6625 35.7685 67.776 36.8929 66.2689 36.8929C63.9639 36.8929 62.2796 33.2992 62.2796 33.2992C61.792 33.2772 60.9276 33.2551 60.9276 33.2551C60.9276 33.2551 58.4454 30.1244 54.6999 29V34.115C55.0323 34.4016 55.4534 34.7764 55.8523 35.2835C54.1458 34.2693 52.3949 33.4976 49.2921 33.4976C45.9012 33.4976 41.7789 34.8646 39.474 38.5685L39.7178 39.0094C40.7594 37.8409 42.3773 37.1134 42.4438 37.0913C40.1832 39.0535 38.8977 42.3165 38.255 44.4331L40.2275 46.3953C42.4438 43.926 46.145 41.5669 51.1538 41.5669C54.8993 41.5669 58.7113 43.1323 61.3709 45.822L63.4985 43.6835C61.7033 40.6409 59.5314 38.4803 59.4649 38.4142C59.5535 38.4583 61.4817 39.5606 64.8505 39.5606C67.9754 39.5606 70.768 37.8189 70.768 35.2394C70.768 32.1748 68.1084 30.2126 63.7423 29.5291Z" fill="#0073FF"/>
<path d="M39.1858 53.3181V57.1543H37.1912C37.1912 57.1543 37.1912 54.641 37.1912 54.2C37.1912 53.2961 37.0582 52.5244 36.1495 52.5244C35.0414 52.5244 34.8419 53.6047 34.8419 54.4646V57.1543H32.8473V54.3102C32.8473 53.6268 32.8916 52.5244 31.8056 52.5244C30.8748 52.5244 30.498 53.3402 30.498 54.4646V57.1543H28.5033V51.1795H30.498V51.9732H30.5423C31.0299 51.3339 31.7834 50.9811 32.5813 50.9811C34.177 50.9811 34.5316 51.9732 34.5316 51.9732C34.5316 51.9732 35.2187 50.9811 36.8144 50.9811C38.4545 50.9811 39.1858 51.841 39.1858 53.3181ZM16.0256 51.1795V57.1543H14.031V56.4709H13.9866C13.6542 57 12.812 57.3528 12.0363 57.3528C10.3298 57.3528 9 55.9417 9 54.1559C9 52.348 10.3076 50.9811 12.0142 50.9811C13.4547 50.9811 14.0531 51.9732 14.0531 51.9732V51.2016H16.0256V51.1795ZM14.1418 54.1559C14.1418 53.3181 13.4547 52.6126 12.5904 52.6126C11.726 52.6126 11.039 53.2961 11.039 54.1559C11.039 54.9055 11.6374 55.6992 12.5904 55.6992C13.5656 55.6992 14.1418 54.8835 14.1418 54.1559ZM47.0093 51.1795V57.1543H45.0147V56.4709H44.9704C44.6379 57 43.7957 57.3528 43.02 57.3528C41.3135 57.3528 39.9837 55.9417 39.9837 54.1559C39.9837 52.348 41.2913 50.9811 42.9979 50.9811C44.4385 50.9811 45.0369 51.9732 45.0369 51.9732V51.2016H47.0093V51.1795ZM45.1255 54.1559C45.1255 53.3181 44.4385 52.6126 43.5741 52.6126C42.7097 52.6126 42.0227 53.2961 42.0227 54.1559C42.0227 54.9055 42.6211 55.6992 43.5741 55.6992C44.5493 55.6992 45.1255 54.8835 45.1255 54.1559ZM21.5664 50.9811C20.6798 50.9811 19.9485 51.2898 19.5052 51.9732H19.4609V51.1795H17.4662V57.1543H19.4609V54.4646C19.4609 53.1858 19.9263 52.5244 20.7685 52.5244C21.6107 52.5244 21.8101 53.1638 21.8101 54.1118C21.8101 54.4646 21.8101 57.1543 21.8101 57.1543H23.8048V53.4504C23.7826 51.7969 23.0291 50.9811 21.5664 50.9811ZM26.0876 47.8504C25.467 47.8504 24.9573 48.3575 24.9573 48.9748C24.9573 49.5921 25.467 50.0992 26.0876 50.0992C26.7081 50.0992 27.2179 49.5921 27.2179 48.9748C27.2179 48.3575 26.7081 47.8504 26.0876 47.8504ZM25.0903 51.1795V57.1543H27.0849V51.1795H25.0903ZM48.4499 48.7984V57.1323H50.4446V48.7984H48.4499ZM56.4286 51.1795V51.9512C56.4286 51.9512 57.027 50.9591 58.4676 50.9591C60.1741 50.9591 61.4817 52.326 61.4817 54.1339C61.4817 55.9197 60.1519 57.3307 58.4454 57.3307C57.6697 57.3307 56.8275 56.9559 56.4951 56.4488H56.4286V59.5575H54.4339V51.1795H56.4286ZM57.8692 55.6992C58.8222 55.6992 59.4206 54.9055 59.4206 54.1559C59.4206 53.3181 58.7335 52.6126 57.8692 52.6126C57.0048 52.6126 56.3178 53.3181 56.3178 54.1559C56.3178 54.8835 56.894 55.6992 57.8692 55.6992ZM62.3239 48.7984V57.1323H64.3186V48.7984H62.3239ZM72.2307 51.1795V57.1543H70.236V56.4709H70.1917C69.8593 57 69.0171 57.3528 68.2414 57.3528C66.5348 57.3528 65.2051 55.9417 65.2051 54.1559C65.2051 52.348 66.5127 50.9811 68.2192 50.9811C69.6598 50.9811 70.2582 51.9732 70.2582 51.9732V51.2016H72.2307V51.1795ZM70.3247 54.1559C70.3247 53.3181 69.6377 52.6126 68.7733 52.6126C67.9089 52.6126 67.2219 53.2961 67.2219 54.1559C67.2219 54.9055 67.8203 55.6992 68.7733 55.6992C69.7706 55.6992 70.3247 54.8835 70.3247 54.1559ZM77.7493 50.9811C76.8628 50.9811 76.1314 51.2898 75.6881 51.9732H75.6438V51.1795H73.6491V57.1543H75.6438V54.4646C75.6438 53.1858 76.1092 52.5244 76.9514 52.5244C77.7936 52.5244 77.9931 53.1638 77.9931 54.1118C77.9931 54.4646 77.9931 57.1543 77.9931 57.1543H79.9877V53.4504C79.9877 51.7969 79.2342 50.9811 77.7493 50.9811ZM86.149 54.7291H82.8246C83.024 55.4347 83.6224 55.8536 84.4425 55.8536C85.2625 55.8536 85.6171 55.6551 86.149 55.4787L86.5258 56.8898C85.9052 57.1102 85.2625 57.3528 84.3538 57.3528C82.1154 57.3528 80.7634 56.0299 80.7634 54.178C80.7634 52.5024 81.8272 50.9591 83.9549 50.9591C86.3928 50.9591 87.368 52.7008 87.1907 54.7071L86.149 54.7291ZM82.8024 53.4945H85.4398C85.329 52.8992 84.8192 52.3921 84.1322 52.3921C83.5338 52.3921 82.9797 52.7228 82.8024 53.4945ZM90.5373 52.7228V54.9937C90.5373 55.5228 90.6924 55.7654 91.047 55.8315C91.2908 55.8756 91.7119 55.8536 91.9778 55.7654L92.133 57.1984C91.6011 57.3307 91.2021 57.3528 90.8254 57.3528C89.2296 57.3528 88.5426 56.5591 88.5426 54.9937V52.7228H87.6782V51.1795H88.5426V49.7685H90.5373V51.1795H91.9557V52.7228H90.5373Z" fill="black"/>
<path d="M47.5856 65.9953H45.1477V63.1953H43.0865V70.7795H45.1477V67.9795H47.5856V70.7795H49.6468V63.1953H47.5856V65.9953Z" fill="#0073FF"/>
<path d="M54.1458 63.1953H51.4198V70.7795H54.1458C56.2735 70.7795 58.0243 69.0819 58.0243 66.9874C58.0243 64.8929 56.2735 63.1953 54.1458 63.1953ZM54.1458 68.8834H53.4588V65.1134H54.1458C55.1653 65.1134 55.941 65.9291 55.941 66.9874C55.9632 68.0677 55.1875 68.8834 54.1458 68.8834Z" fill="#0073FF"/>
</g>
<defs>
<clipPath id="clip0_836_144">
<rect width="83" height="42" fill="white" transform="translate(9 29)"/>
</clipPath>
</defs>
</svg>
