<svg width="100" height="100" viewBox="0 0 100 100" fill="none" xmlns="http://www.w3.org/2000/svg">
<path d="M23.0023 39.4948L5 57.4971H14.0012L16.2485 55.2497H32.0035L27.4971 50.7549H20.7549L27.5087 44.0011L23.0023 39.4948Z" fill="url(#paint0_linear_837_367)"/>
<path d="M23.0024 39.4948L18.5076 43.9895L32.0035 57.4855H41.0047L23.0024 39.4948Z" fill="url(#paint1_linear_837_367)"/>
<path d="M54.5006 35L45.4994 44.0012L41.0046 39.5064H32.0035L41.0046 48.5075L25.2034 64.2972H34.2045L45.4994 53.0023L49.9942 57.4971H58.9954L49.9942 48.4959L63.5017 35H54.5006Z" fill="url(#paint2_linear_837_367)"/>
<path d="M68.0082 39.4948L50.0059 57.4971H59.007L68.0082 48.4959L77.0093 57.4971L95.0001 39.4948H85.9989L76.9977 48.4959L68.0082 39.4948Z" fill="url(#paint3_linear_837_367)"/>
<path d="M61.2543 57.4971H74.7502L68.008 50.7549L61.2543 57.4971Z" fill="#E4051E"/>
<path d="M70.2554 57.4971H74.7502L68.0081 50.7549L70.2554 57.4971Z" fill="#8C2B1D"/>
<defs>
<linearGradient id="paint0_linear_837_367" x1="4.59619" y1="52.0442" x2="26.4689" y2="47.5796" gradientUnits="userSpaceOnUse">
<stop stop-color="#3A3A3A"/>
<stop offset="1" stop-color="#363636"/>
</linearGradient>
<linearGradient id="paint1_linear_837_367" x1="21.7425" y1="42.2025" x2="35.6743" y2="57.0784" gradientUnits="userSpaceOnUse">
<stop stop-color="#373737"/>
<stop offset="0.3" stop-color="#373737"/>
<stop offset="0.6" stop-color="#393939"/>
<stop offset="1" stop-color="#313231"/>
</linearGradient>
<linearGradient id="paint2_linear_837_367" x1="28.8821" y1="34.024" x2="50.8607" y2="56.2231" gradientUnits="userSpaceOnUse">
<stop stop-color="#3A3A3A"/>
<stop offset="0.5" stop-color="#393939"/>
<stop offset="1" stop-color="#313130"/>
</linearGradient>
<linearGradient id="paint3_linear_837_367" x1="50.3698" y1="57.3794" x2="94.7504" y2="39.5566" gradientUnits="userSpaceOnUse">
<stop stop-color="#3A3A3A"/>
<stop offset="1" stop-color="#393939"/>
</linearGradient>
</defs>
</svg>
