<svg width="100" height="100" viewBox="0 0 100 100" fill="none" xmlns="http://www.w3.org/2000/svg">
<g clip-path="url(#clip0_839_1308)">
<path fill-rule="evenodd" clip-rule="evenodd" d="M40.414 27.0526V18H50.0703H59.7273L59.7223 27.0476L59.7183 36.0965L50.066 36.1009L40.414 36.1056V27.0526ZM62.6663 27.0405C62.6663 32.0126 62.672 36.0861 62.6783 36.0932C62.6853 36.1002 67.0287 36.1036 72.3303 36.1009L81.9697 36.0965L81.9747 27.0476L81.9797 18H72.3227H62.6663V27.0405ZM77.9133 32.6425C76.839 33.1818 75.5657 33.5429 74.209 33.6908C73.9023 33.7245 72.775 33.7396 72.4797 33.7144C71.4747 33.6291 70.6303 33.4429 69.7263 33.1057C68.7407 32.7389 67.7407 31.9992 67.0223 31.1059C66.1857 30.0637 65.7263 28.8655 65.603 27.4016C65.521 26.4275 65.7803 25.2064 66.283 24.203C67.1503 22.4729 68.597 21.3344 70.7423 20.6957C71.6437 20.4269 73.0263 20.3296 74.2947 20.4465C75.1123 20.5213 76.4163 20.8615 77.525 21.2896L77.9457 21.452L78.0247 21.4816V22.6727C78.0247 23.3275 78.0203 23.8634 78.0147 23.8634C78.01 23.8634 77.9203 23.8166 77.8163 23.7587C77.2013 23.4198 76.3703 23.0715 75.633 22.8438C74.613 22.5292 73.5243 22.3715 72.7623 22.4275C72.476 22.4494 72.1283 22.4955 71.916 22.5416C70.7847 22.7859 69.981 23.1904 69.3077 23.8536C68.908 24.2478 68.635 24.6355 68.426 25.1043C68.118 25.7972 67.9463 26.7363 68.0067 27.4016C68.0903 28.3239 68.3993 29.1363 68.937 29.8454C69.1837 30.1728 69.6497 30.5871 70.0387 30.8293C70.8923 31.3592 72.0853 31.658 73.347 31.6573C74.707 31.6556 76.331 31.1345 77.8993 30.193L78.1533 30.0414L78.149 31.2834L78.1443 32.5263L77.9133 32.6425ZM54.337 32.1359C53.6827 32.8551 52.7743 33.2836 51.4663 33.4914L51.161 33.5396L48.329 33.546L45.4963 33.5513V27.0526V20.5536L47.8757 20.559L48.3027 20.56C49.953 20.5637 50.2607 20.5644 50.56 20.6146C50.6287 20.626 50.697 20.6402 50.7807 20.6574L50.8747 20.6765C52.538 21.0141 53.5814 21.939 53.8904 23.3507C53.9277 23.5185 53.9323 23.595 53.933 23.9827C53.934 24.4674 53.917 24.5934 53.81 24.9285C53.6737 25.3556 53.4693 25.678 53.1127 26.0337C52.868 26.2772 52.6313 26.4564 52.3853 26.5838C52.3373 26.6087 52.2973 26.6339 52.298 26.639C52.298 26.6437 52.3917 26.6754 52.5057 26.7091C52.974 26.8462 53.4027 27.0483 53.767 27.3059C53.9887 27.4619 54.3383 27.8028 54.494 28.014C54.774 28.3919 54.9627 28.818 55.073 29.3226C55.1217 29.5446 55.1383 30.028 55.109 30.3156C55.0337 31.0267 54.7613 31.6691 54.337 32.1359ZM47.807 24.2582V22.5747L48.8933 22.5814C49.905 22.5885 49.99 22.5915 50.154 22.6269C50.916 22.7909 51.367 23.1749 51.524 23.7893C51.5577 23.923 51.5614 23.979 51.5537 24.2114C51.5374 24.6712 51.4247 24.9558 51.139 25.2603C50.854 25.5635 50.4567 25.7649 49.9044 25.8875C49.729 25.9259 49.67 25.9286 48.763 25.9357L47.807 25.9427V24.2582ZM47.807 27.9992V29.774V31.5488L49.3083 31.5417L49.446 31.5411C50.5833 31.535 50.8253 31.534 51.058 31.4862C51.1207 31.4734 51.183 31.4572 51.262 31.4363L51.2953 31.4275C51.9147 31.2638 52.3677 30.923 52.585 30.4558C52.7207 30.163 52.7743 29.7454 52.7147 29.4513C52.55 28.6432 51.8813 28.1329 50.8337 28.019C50.7227 28.0062 50.1147 27.9992 49.2304 27.9992H47.807ZM18.1627 27.0526V18H27.8097H37.4577V27.0526V36.1056H27.8097H18.1627V27.0526ZM29.214 33.4914C29.9157 33.3806 30.4524 33.2199 30.9604 32.9673C31.7964 32.5529 32.369 31.949 32.6567 31.1793C32.8054 30.7818 32.8644 30.4234 32.8644 29.9202C32.8644 29.6096 32.8574 29.52 32.822 29.3442C32.7034 28.7601 32.4254 28.2023 32.0427 27.7769C31.612 27.2982 30.9554 26.9098 30.223 26.699C30.126 26.671 30.0457 26.6437 30.0457 26.639C30.0457 26.6339 30.1184 26.5891 30.207 26.5396C30.7064 26.2577 31.1547 25.7928 31.4037 25.298C31.586 24.9363 31.6704 24.5809 31.685 24.1113C31.7 23.6606 31.657 23.3582 31.5234 22.9573C31.116 21.7363 30.05 20.9302 28.469 20.6459L28.4627 20.6449C28.373 20.6287 28.299 20.6156 28.225 20.6048C27.8844 20.555 27.5364 20.555 25.587 20.555H25.532H23.2447V27.0533V33.5513L26.0774 33.546L28.9094 33.5396L29.214 33.4914ZM25.5554 27.9971V29.772V31.5471H26.9464C28.4224 31.5471 28.5724 31.5397 28.9284 31.4562C29.644 31.2864 30.1427 30.9196 30.3524 30.4059C30.4404 30.1917 30.4764 29.996 30.4764 29.7272C30.4764 29.5109 30.47 29.4584 30.427 29.3169C30.221 28.6382 29.6927 28.2218 28.8207 28.0504C28.6187 28.0106 28.5754 28.0099 27.0844 28.0035L25.5554 27.9971ZM25.5554 24.2575V22.5747L26.641 22.5814C27.6794 22.5878 27.7344 22.5898 27.9067 22.6292C28.416 22.7431 28.7814 22.9489 29.012 23.2527C29.2107 23.5138 29.3064 23.8021 29.307 24.1413C29.307 24.6277 29.1627 24.9861 28.8364 25.3064C28.5824 25.5557 28.257 25.7299 27.8427 25.839C27.496 25.9313 27.3677 25.9397 26.4284 25.9404H25.5554V24.2575ZM76.749 45.1855V52.8231V60.4607H79.655C81.3477 60.4607 82.7163 60.4529 82.931 60.4418C85.0713 60.3347 86.7127 59.6853 87.9497 58.4578C88.2437 58.1654 88.466 57.8993 88.6863 57.5746C89.5687 56.2778 90 54.7054 90 52.7867C90 51.3366 89.741 50.0559 89.2343 48.9999C88.8933 48.2885 88.5167 47.7418 88.0143 47.2295C86.838 46.0287 85.1803 45.3415 83.1287 45.2051C82.9527 45.1933 81.6917 45.1855 79.797 45.1855H76.749ZM85.2147 57.3338C84.6197 57.7383 83.911 57.9856 83.0147 58.1014C82.8197 58.1267 82.52 58.1331 81.134 58.1395L79.4847 58.1469V52.8238V47.4996L81.1987 47.5074L81.2747 47.5077C82.6107 47.5128 82.9043 47.5141 83.1927 47.5552C83.274 47.567 83.355 47.5818 83.4587 47.6007L83.476 47.6041C85.2683 47.9301 86.4727 49.0545 86.93 50.83C87.0933 51.4663 87.144 51.9167 87.1447 52.7776C87.1453 53.4459 87.1313 53.6629 87.0603 54.1287C86.8387 55.5724 86.2153 56.6537 85.2147 57.3338ZM64.046 60.4485C64.039 60.4418 64.0333 57.005 64.0333 52.8113V45.1855H65.4013H66.769L66.774 51.6425L66.7783 58.0987L70.553 58.1038L74.328 58.1078V59.2841V60.4607H69.193C66.3687 60.4607 64.0523 60.4556 64.046 60.4485ZM49.5257 52.8224V45.1842L52.6077 45.1913H52.7454H52.7457C55.3477 45.1963 55.767 45.1973 56.1807 45.2485C56.26 45.2586 56.3393 45.2704 56.4337 45.2842L56.4563 45.2876C57.9177 45.5032 58.9957 45.9839 59.7927 46.7754C60.438 47.4158 60.8053 48.1898 60.9383 49.1862C61.0037 49.6783 60.9923 50.3018 60.9087 50.7923C60.6553 52.2751 59.7173 53.4052 58.23 54.0196L58.224 54.0223L58.2233 54.0226L58.2223 54.0229L58.2203 54.0239C58.1077 54.0711 58.0147 54.1102 58.0113 54.1129C58.0077 54.1156 58.1907 54.4053 58.42 54.7573C59.5513 56.5011 60.5943 58.1735 61.5307 59.7476C61.7587 60.1309 61.945 60.4479 61.945 60.4529C61.945 60.457 61.2393 60.4607 60.3767 60.4607H58.8077L58.6917 60.2542C58.2497 59.4663 57.784 58.6697 56.794 57.0128C55.6317 55.0658 55.3347 54.5871 55.2973 54.5949C55.279 54.5976 54.5803 54.6053 53.744 54.6104L52.224 54.6195V57.5402V60.4607H50.8747H49.5257V52.8224ZM55.1033 52.4283C55.8197 52.3919 56.3393 52.2926 56.8307 52.0972C57.371 51.8833 57.746 51.5549 57.976 51.0951C58.3067 50.4346 58.309 49.3961 57.981 48.7217C57.682 48.108 57.0733 47.6937 56.1783 47.4956C55.5837 47.3639 55.4137 47.3528 53.7164 47.3417L52.224 47.3319V49.8889V52.4465L53.4947 52.4458C54.1934 52.4458 54.9173 52.4381 55.1033 52.4283ZM35.716 60.203C36.386 60.4829 37.1584 60.6641 38.0204 60.7453C38.3927 60.7797 39.5064 60.7706 39.8597 60.7291C41.0537 60.59 42.0374 60.2717 42.9457 59.7301C44.761 58.6474 45.9164 56.7783 46.2717 54.3493C46.3984 53.4816 46.4017 52.2613 46.2813 51.375C46.176 50.604 46.007 49.9566 45.7233 49.2394C45.3603 48.3212 44.8777 47.5859 44.1847 46.8943C43.427 46.1385 42.5487 45.5985 41.5294 45.2617C39.9257 44.7315 37.8594 44.7244 36.2284 45.2421C34.7804 45.7019 33.549 46.6144 32.709 47.851C32.1264 48.7069 31.7197 49.7124 31.517 50.7923C31.3834 51.504 31.3487 51.9295 31.3504 52.842C31.351 53.4843 31.3574 53.6494 31.3917 53.963C31.5014 54.9735 31.6977 55.7705 32.023 56.5257C32.7687 58.2591 34.0007 59.4858 35.716 60.203ZM42.0407 57.2078C41.387 57.8616 40.6014 58.2365 39.6007 58.3746C39.3994 58.4026 38.5874 58.4268 38.4364 58.4096L38.1964 58.383C37.2154 58.2739 36.4084 57.9118 35.759 57.2906C34.8337 56.4048 34.316 55.1372 34.2027 53.481C34.1744 53.0771 34.1914 52.1002 34.2314 51.7664C34.335 50.9055 34.5124 50.2759 34.833 49.6251C35.08 49.1246 35.3557 48.7426 35.731 48.3835C36.599 47.5522 37.791 47.1497 39.154 47.2268C39.856 47.2666 40.39 47.3983 40.941 47.6664C42.1294 48.2444 42.9167 49.2799 43.2967 50.7643C43.555 51.7711 43.6044 53.1023 43.4264 54.254C43.2377 55.4744 42.764 56.4866 42.0407 57.2078ZM14.1077 60.4283C12.6687 55.6826 11.3494 50.8266 10.2154 46.1051C10.1027 45.6349 10.0057 45.2361 10.0007 45.2175C9.9907 45.1876 10.0697 45.1855 11.4677 45.1855H12.9447L13.114 46.0266C13.9907 50.3648 14.6017 53.0821 15.4847 56.5634C15.616 57.0835 15.7267 57.5116 15.7294 57.5143C15.7437 57.5285 16.6167 54.2897 17.081 52.5018L17.1254 52.331C17.2147 51.9877 17.3377 51.5131 17.423 51.1871C17.7594 49.9027 17.8657 49.487 18.2647 47.888L18.722 46.059L18.7817 45.8202L20.117 45.8154L21.4534 45.8104L21.47 45.8518C21.48 45.8747 21.5597 46.187 21.6467 46.546C21.8297 47.2975 22.4947 49.9407 22.6987 50.7279C22.9184 51.5717 23.111 52.3114 23.23 52.7594L23.328 53.131L23.441 53.5584C23.6557 54.3702 24.436 57.257 24.4564 57.3156C24.4614 57.3297 24.4697 57.3375 24.473 57.3324C24.4867 57.32 24.9544 55.4677 25.183 54.5235C25.763 52.1302 26.5544 48.5472 27.1264 45.7188C27.1764 45.4712 27.222 45.2499 27.2277 45.227L27.237 45.1855H28.6787H30.1204L30.1104 45.227C29.7797 46.6292 28.934 49.9448 28.3157 52.2626C27.65 54.7559 26.5947 58.4928 26.0424 60.3094L25.9964 60.4607H24.557H23.1167L23.0877 60.364C23.0717 60.3114 22.843 59.5192 22.5804 58.6047C22.1597 57.1408 21.9284 56.3276 21.5504 54.9833C21.2077 53.7622 20.5744 51.4515 20.243 50.2038L20.2377 50.1829C20.0844 49.6086 20.053 49.4921 20.041 49.4941C20.038 49.4944 20.036 49.5025 20.0337 49.513L20.0334 49.5143C19.999 49.6682 19.1707 52.72 18.8367 53.9266L18.7934 54.0832C18.6877 54.4656 18.5137 55.0944 18.3764 55.5893C17.9254 57.2283 17.651 58.2038 17.25 59.597L17.0044 60.4516L15.5607 60.4563C14.1977 60.4607 14.1167 60.4593 14.1077 60.4283ZM71.1687 81.0465C72.2833 81.5844 73.5407 81.8987 74.947 81.991C75.173 82.0058 76.0997 82.0014 76.3423 81.9849C78.1943 81.8552 79.541 81.3452 80.507 80.4061C81.3647 79.5724 81.7803 78.4592 81.7327 77.1233C81.699 76.1653 81.4933 75.53 81.0143 74.8944C80.6123 74.3618 79.875 73.8337 79.0313 73.4746C78.5093 73.2519 77.589 72.9673 76.481 72.6847C75.505 72.4347 74.8597 72.2326 74.5447 72.0757C74.0907 71.8503 73.789 71.5879 73.6383 71.2878C73.4407 70.893 73.3943 70.3696 73.5147 69.902C73.6853 69.2354 74.294 68.7231 75.1877 68.4934C75.648 68.3751 75.8357 68.3569 76.573 68.3563C77.0993 68.3563 77.295 68.3627 77.5067 68.3886C78.7043 68.5348 79.9463 68.9272 80.8023 69.4304C80.8897 69.4816 80.9657 69.5227 80.9707 69.5227C80.9763 69.5227 80.9813 68.9811 80.9813 68.3192V67.1157L80.7997 67.0247C80.1017 66.6761 79.1257 66.3753 78.2097 66.2247C76.742 65.9839 75.1807 66.0694 73.9817 66.4551C72.352 66.9786 71.2433 68.0517 70.8817 69.4544C70.769 69.8916 70.7513 70.0553 70.753 70.663C70.7537 71.273 70.7767 71.469 70.897 71.8854C71.099 72.5823 71.5557 73.2219 72.1537 73.6474C73.024 74.2655 73.962 74.6384 75.8363 75.1113C77.0657 75.4215 77.473 75.5593 77.9063 75.8113C78.169 75.9645 78.359 76.1073 78.4997 76.2562C78.826 76.6049 78.9597 76.9407 78.976 77.4523C78.995 78.0499 78.7937 78.5508 78.3807 78.9345C77.9747 79.3124 77.3997 79.5664 76.7027 79.6769C75.5797 79.8561 74.1253 79.7294 72.9043 79.3457C72.3197 79.1618 71.638 78.8617 71.1003 78.5515C70.957 78.4689 70.8343 78.4012 70.828 78.4012C70.8217 78.4012 70.817 78.958 70.817 79.6391V80.877L71.1687 81.0465ZM53.076 81.0939C53.1677 81.3971 53.2457 81.6558 53.25 81.6686C53.2563 81.6868 53.5623 81.6915 54.6987 81.6915C56.0547 81.6915 56.1397 81.6895 56.1497 81.6595C56.1877 81.5349 56.7497 79.5657 56.9087 78.9988C57.3457 77.4486 58.5257 73.1596 58.9527 71.5691C59.0787 71.1015 59.184 70.7222 59.1863 70.7253C59.1897 70.728 59.2673 71.0112 59.3593 71.3535C60.141 74.2739 60.8237 76.7251 61.7797 80.0464L62.2083 81.5355L62.252 81.6824H63.693H65.133L65.1577 81.609C65.1703 81.5686 65.2633 81.2583 65.364 80.9198C66.517 77.0239 67.598 73.0603 68.6433 68.8979C68.9757 67.5768 69.2353 66.5248 69.2487 66.4487C69.2543 66.4187 69.1767 66.4164 67.8223 66.4157C66.6797 66.4157 66.3877 66.4208 66.3757 66.439C66.368 66.4514 66.3117 66.7104 66.2503 67.0143C65.6573 69.9475 64.8643 73.5305 64.2633 75.9932C64.0427 76.9009 63.6183 78.5663 63.609 78.5663C63.5847 78.5663 62.4277 74.2449 61.7973 71.8022C61.6567 71.2555 60.8903 68.2121 60.713 67.4919L60.604 67.0507H59.2673C58.097 67.0507 57.9277 67.054 57.915 67.0779C57.9063 67.0931 57.803 67.5027 57.6847 67.9881C57.3097 69.5227 56.9017 71.1184 56.039 74.4214C55.5267 76.3822 54.8747 78.7691 54.8603 78.732C54.798 78.5643 53.881 74.8034 53.5363 73.3004C53.2147 71.9002 52.6047 69.0205 52.2017 66.9981L52.1777 66.8799V66.8792L52.1773 66.8782C52.1257 66.6198 52.086 66.4231 52.0847 66.4208C52.08 66.413 49.1507 66.4157 49.143 66.4235C49.1234 66.4423 50.054 70.2025 50.5233 72.0016C51.3353 75.115 52.1517 78.0226 53.076 81.0939ZM36.4677 81.6686C36.4634 81.6558 36.4614 78.2183 36.4634 74.031L36.4684 66.4164H41.5967H46.7253L46.7304 67.5566L46.7353 68.6958L42.9697 68.7005L39.204 68.7049V70.672V72.6392L42.5624 72.6433L45.922 72.6483V73.7973V74.9456H42.558H39.194V77.1694V79.3942L43.168 79.3983L47.142 79.4033V80.5425V81.6824L41.8094 81.6868C37.5524 81.6908 36.4747 81.6868 36.4677 81.6686ZM19.8534 66.4157L19.8484 74.0539L19.8434 81.6915H21.1564H22.4687L22.4737 76.008L22.4777 70.3241L22.7564 70.728C23.9447 72.4452 25.4984 74.7684 27.298 77.5187L27.3244 77.5588C27.5484 77.9 27.893 78.4248 28.108 78.7502C28.4457 79.2619 28.9004 79.9588 29.91 81.5123L30.0267 81.6915L31.3987 81.6868L32.7714 81.6824V74.0492V66.4157H31.469H30.166L30.157 72.0639L30.1477 77.7117L30.1 77.6383C30.0724 77.5979 29.8474 77.2506 29.599 76.8666C27.633 73.831 25.0017 69.8902 23.137 67.1884L22.6074 66.4208C22.605 66.4181 21.9847 66.4157 21.228 66.4157H19.8534Z" fill="#B90005"/>
</g>
<defs>
<clipPath id="clip0_839_1308">
<rect width="100" height="100" fill="white"/>
</clipPath>
</defs>
</svg>
