<svg width="100" height="100" viewBox="0 0 100 100" fill="none" xmlns="http://www.w3.org/2000/svg">
<g clip-path="url(#clip0_839_1319)">
<path fill-rule="evenodd" clip-rule="evenodd" d="M88.6928 48.0173V47.0965H91.6667V54.4029C91.6667 55.7542 91.1815 56.7977 90.4382 57.4117C89.6628 58.0565 88.5636 58.3325 87.303 58.3325C84.9111 58.3633 83.2623 57.4423 82.9713 55.5698H85.9775C86.1069 55.9381 86.4948 56.2758 87.2382 56.2758C88.24 56.2758 88.5959 55.6925 88.5959 54.8021V54.1881H88.5311C88.0463 54.7406 87.3675 55.1398 86.398 55.1398C84.4905 55.1398 82.8096 53.789 82.8096 51.149C82.8096 48.7233 84.1673 46.8508 86.2361 46.8508C87.4323 46.8508 88.1432 47.3112 88.6284 48.0173H88.6928ZM85.8807 51.026C85.8807 52.1617 86.4298 52.9602 87.303 52.9602C88.1757 52.9602 88.7253 52.1313 88.7253 51.026C88.7253 49.9821 88.2078 49.1225 87.303 49.1225C86.4298 49.1225 85.8807 49.8594 85.8807 51.026ZM82.1307 46.9429C82.3896 46.9429 82.5513 46.9735 82.6482 47.0348V49.6137H82.5838C80.7409 49.3069 79.6744 50.1356 79.6744 52.039V55.5698H76.5388V47.1269H79.5125V48.57H79.5773C80.224 47.4033 81.0642 46.9429 82.1307 46.9429ZM74.5348 47.9869C73.7586 47.2804 72.7567 46.8817 71.4313 46.8817C68.7809 46.8817 66.9382 48.6929 66.9382 51.3329C66.9382 54.0042 68.7809 55.7846 71.5286 55.8154C73.7586 55.8154 75.3425 54.8637 75.8598 52.9294H72.8538C72.6598 53.4821 72.175 53.7277 71.6255 53.7277C70.688 53.7277 70.1707 53.175 70.0413 52.1313H75.9892C76.0215 50.4121 75.5692 48.9383 74.5348 47.9869ZM70.0413 50.4425C70.1386 49.4602 70.6234 48.8769 71.4961 48.9077C72.2394 48.9077 72.8215 49.4296 72.8859 50.4425H70.0413ZM60.5378 47.9869C61.1198 47.2496 61.928 46.8508 63.0592 46.8508C65.2896 46.8508 66.5828 48.7542 66.5828 51.3025C66.5828 54.1577 65.1928 55.8154 62.8655 55.8154C61.8955 55.8154 60.8936 55.3854 60.3763 54.4338H60.344V55.539H57.37V43.75H60.4732V47.9869H60.5378ZM60.3763 51.2717C60.3763 52.6225 60.9905 53.5129 61.928 53.5129C62.8655 53.5129 63.3828 52.6529 63.3828 51.2717C63.3828 49.9208 62.8655 49.0304 61.928 49.0304C60.958 49.0304 60.3763 49.9208 60.3763 51.2717ZM56.465 50.2585V55.539H53.3617V50.7804C53.3617 49.9208 53.0709 49.3681 52.2953 49.3681C51.5192 49.3681 51.1313 50.0437 51.1313 50.9646V55.539H48.0282V50.7804C48.0282 49.9208 47.7375 49.3681 46.9617 49.3681C46.1855 49.3681 45.7978 50.0437 45.7978 50.9646V55.539H42.598V47.1269H45.5717V48.3856H45.6363C46.218 47.4033 47.0261 46.8817 48.3192 46.8817C49.4505 46.8817 50.2911 47.4033 50.7113 48.3244H50.7759C51.4867 47.2192 52.4244 46.8817 53.5236 46.8817C55.5919 46.8817 56.465 48.3244 56.465 50.2585ZM37.3932 46.9121C34.5811 46.9121 32.7709 48.6929 32.7709 51.3638C32.7709 54.0346 34.5811 55.8154 37.3611 55.8154C40.1734 55.8154 41.9511 54.0346 41.9511 51.3638C41.9511 48.6929 40.2057 46.9121 37.3932 46.9121ZM37.3288 53.789C36.3588 53.789 35.9065 52.8373 35.9065 51.3638C35.9065 49.89 36.3588 48.969 37.3288 48.969C38.2986 48.969 38.7832 49.89 38.7832 51.3638C38.7832 52.8373 38.2986 53.7585 37.3288 53.789ZM23.2027 51.3638C23.2027 48.6929 25.013 46.9121 27.8255 46.9121C30.6375 46.9121 32.4155 48.7235 32.4155 51.3638C32.4155 54.0346 30.6375 55.8154 27.8255 55.8154C25.013 55.8154 23.2027 54.0346 23.2027 51.3638ZM26.3384 51.3638C26.3384 52.8373 26.7911 53.789 27.7607 53.789C28.7303 53.7585 29.2153 52.8373 29.2153 51.3638C29.2153 49.89 28.7303 48.969 27.7607 48.969C26.7911 48.969 26.3384 49.89 26.3384 51.3638ZM19.3559 55.5698H22.5563V43.75H19.3559V55.5698ZM16.7702 49.1533V49.0921C17.7401 48.6621 18.2246 47.956 18.2246 46.82C18.2246 45.8377 17.837 45.0392 17.1257 44.4869C16.4792 44.0265 15.6062 43.75 14.4428 43.75H8.33337V55.539H14.6042C15.8327 55.539 16.7378 55.3242 17.4491 54.8329C18.2894 54.219 18.8066 53.2365 18.8066 51.9777C18.8066 50.6577 18.0632 49.5525 16.7702 49.1533ZM14.1194 52.9294V52.96H11.7276V50.5348H14.1194C14.8307 50.5348 15.4127 50.9033 15.4127 51.7321C15.4127 52.4996 14.8628 52.9294 14.1194 52.9294ZM13.7963 46.2981H11.6951V48.3244H13.8284V48.3548C14.4752 48.3548 14.9597 48.0173 14.9597 47.3113C14.9597 46.6356 14.4752 46.2981 13.7963 46.2981Z" fill="black"/>
</g>
<defs>
<clipPath id="clip0_839_1319">
<rect width="100" height="100" fill="white"/>
</clipPath>
</defs>
</svg>
