<svg width="100" height="100" viewBox="0 0 100 100" fill="none" xmlns="http://www.w3.org/2000/svg">
<path d="M97.2733 91.0592C97.283 94.2395 94.7158 96.8363 91.5151 96.8733C69.3295 97.1265 46.7417 96.8981 24.6627 97C19.3829 96.9444 14.1064 96.8733 8.8266 96.8363C5.61956 96.8154 3.03716 94.218 3.04345 91.0315C3.08383 63.6498 3.05637 36.1927 3.00001 8.80784C2.99355 5.59986 5.61035 2.99695 8.8392 3C36.27 3.01852 63.9399 3.11741 91.3642 3.01852C94.5713 3.00697 97.1878 5.56895 97.2189 8.75848C97.2562 12.4729 97.2779 16.4066 97.2532 19.5003C96.9766 40.4349 97.2189 70.5732 97.2741 91.0585" fill="#2ECCF2"/>
<path d="M44.0833 46.8281C43.6949 41.6162 41.1839 36.5803 36.448 33.8539C31.2583 30.8681 23.1788 30.6705 17.9525 33.5853C11.8927 36.9601 8.67321 43.7065 9.37876 50.3817C10.0345 56.6095 13.1047 62.5656 19.584 64.5632C25.4915 66.3881 33.2791 66.2923 38.5301 62.8001C43.9094 59.2247 44.5183 52.6449 44.0833 46.8278" fill="white"/>
<path d="M72.2956 31.6636C66.9785 31.8026 61.7454 34.0287 58.7591 38.5428C55.4868 43.4922 54.9213 51.3966 57.6466 56.6582C60.8039 62.75 67.513 66.2205 74.3335 65.8377C80.6946 65.4857 86.8881 62.7531 89.2155 56.4976C91.3349 50.7916 91.5928 43.1559 88.2801 37.8447C84.8898 32.4104 78.2271 31.5057 72.2948 31.6633" fill="white"/>
<path d="M28.8544 38.3927C28.4877 38.3186 28.1272 38.2723 27.773 38.2445C24.2615 37.8833 20.7375 38.6737 18.6896 41.8015C16.7598 44.7564 16.5174 49.2272 17.6206 52.4848C18.8916 56.2425 22.1328 58.8978 26.2534 59.0645C29.7867 59.2065 33.9788 58.0703 35.8309 54.9303C37.4251 52.2348 37.4935 47.9522 36.642 45.0159C35.6382 41.5547 32.3909 39.1246 28.8544 38.3929" fill="black"/>
<path d="M82.7275 42.5148C80.8319 39.6433 77.2985 38.4855 73.9983 38.2693C73.3799 38.2293 72.7646 38.22 72.1431 38.2714C69.02 38.5339 66.0709 40.0159 64.57 42.9492C62.3201 47.3521 62.9447 53.8053 67.0653 56.8096C70.9777 59.6564 77.9356 60.5303 81.6056 56.7603C85.0022 53.2744 85.3751 46.5249 82.7274 42.514" fill="black"/>
<path d="M50.4297 70.0268H50.4017C50.2774 70.0268 50.15 70.0268 50.0257 70.0247C49.9077 70.0178 49.7864 70.0131 49.6684 70.0062C49.6619 70.0062 49.6522 70.0062 49.6467 70.0041C49.4572 69.9948 49.2676 69.9793 49.0811 69.9578C48.9662 69.9462 48.8574 69.93 48.7455 69.9177C48.6989 69.9084 48.6491 69.9015 48.5994 69.8968C45.6969 69.4708 44.1897 68.1461 44.193 68.1461C43.8169 67.8559 43.4938 67.5471 43.2452 67.2198C42.6423 66.4263 42.5024 65.3148 42.9157 64.6603C43.2793 64.089 43.9692 63.7895 44.7088 63.9408C44.7088 63.9408 44.7679 63.9501 44.8704 63.9841C44.8768 63.9862 44.8865 63.9862 44.8952 63.991C44.9792 64.0188 45.0879 64.0651 45.2215 64.133C45.2558 64.1515 45.2898 64.167 45.321 64.1855C45.4764 64.2689 45.6566 64.3863 45.8555 64.5314C45.8555 64.5314 45.8771 64.5499 45.9177 64.5839C45.9456 64.6048 45.9705 64.621 45.9984 64.6425C45.9984 64.6425 46.0357 64.6733 46.0916 64.7196C46.3868 64.945 46.9213 65.331 47.5024 65.6305C48.2824 66.0072 49.2645 66.3221 50.3615 66.3036H50.464C51.561 66.3221 52.543 66.0072 53.3198 65.6305C53.904 65.331 54.4385 64.945 54.7337 64.7196C54.7896 64.6733 54.8269 64.6425 54.8269 64.6455C54.8549 64.6207 54.8797 64.6055 54.9077 64.5837C54.948 64.5497 54.9698 64.5312 54.9635 64.5404C55.1655 64.386 55.3458 64.2687 55.5011 64.1853C55.5354 64.1668 55.5695 64.1513 55.6006 64.1328C55.7374 64.0649 55.8461 64.0186 55.93 63.9908C55.9397 63.9887 55.9462 63.9887 55.9549 63.9839C56.0544 63.9499 56.1165 63.9406 56.1165 63.9499C56.8561 63.7894 57.546 64.0888 57.9095 64.66C58.3228 65.3146 58.183 66.4262 57.5801 67.2196C57.3315 67.5469 57.0083 67.8557 56.6354 68.1459C56.6354 68.1459 55.1283 69.4705 52.2227 69.8966C52.176 69.9035 52.1265 69.9082 52.0767 69.9175C51.9679 69.929 51.8592 69.9453 51.7442 69.9575C51.5577 69.9784 51.3682 69.9946 51.1786 70.0039C51.1721 70.0059 51.1625 70.0059 51.157 70.0059C51.0296 70.0152 50.9053 70.0175 50.7778 70.0245C50.6629 70.0265 50.5448 70.0265 50.4298 70.0265" fill="#ED1C99"/>
</svg>
