<svg width="100" height="100" viewBox="0 0 100 100" fill="none" xmlns="http://www.w3.org/2000/svg">
<g clip-path="url(#clip0_836_145)">
<g clip-path="url(#clip1_836_145)">
<path d="M100 0H0V100H100V0Z" fill="#A01B21"/>
<path d="M80.4029 33.9272C80.2479 38.0325 75.5229 40.4338 71.3401 40.0465C71.3401 41.5957 71.3401 44.694 71.3401 44.7715C69.4036 42.7575 66.6926 41.7506 63.6716 41.828C59.5663 41.6731 56.313 43.5322 54.454 46.1658V42.2153H50.0388V35.8637H43.4547V41.828C40.124 41.5957 37.9551 43.2998 36.7932 46.2432V42.3703H30.4416V45.2363C28.3502 42.0604 25.2518 41.5957 21.8436 41.5957C18.0481 41.5182 11.5415 42.4477 11.3866 48.567H17.7383C18.7452 45.0039 23.0829 45.8559 24.0124 46.9404C24.8645 47.8699 25.0969 50.2711 21.3788 50.5035C13.478 50.8908 10.4571 52.9822 10.5345 57.4748C10.3796 62.4322 14.2526 64.0589 17.7383 63.904C21.1465 63.9814 22.2309 63.3617 24.7096 61.1929L24.942 63.2068H37.1031V52.8273C37.0256 50.0387 39.5043 47.2502 43.4547 47.6375V57.0875C43.3773 63.0519 46.0109 63.5167 54.2991 63.1294V59.9535C59.7212 66.3826 72.1147 65.0659 73.9737 57.0875H67.6995C66.5376 60.4183 58.9466 60.4958 59.1015 54.3765L74.2061 54.4539C74.5159 50.5035 73.509 47.4051 71.7274 45.3137C72.1147 45.3137 76.375 45.3137 78.5438 45.3137C78.5438 51.3555 78.5438 57.3974 78.5438 63.4392H86.5996V33.9272H80.4029ZM17.2735 57.3199C17.196 53.5244 22.3858 54.9187 24.3997 53.2146V55.3834C24.7096 60.031 17.6608 61.3478 17.2735 57.3199ZM53.5245 58.172C51.2007 58.4818 50.0388 57.9396 50.1163 55.3834L50.0388 46.3981H54.2216C51.8978 49.1092 51.588 55.1511 53.5245 58.172V58.172ZM59.0241 50.7359C59.9536 44.849 67.0798 44.7715 67.777 50.7359H59.0241Z" fill="white"/>
</g>
</g>
<defs>
<clipPath id="clip0_836_145">
<rect width="100" height="100" fill="white"/>
</clipPath>
<clipPath id="clip1_836_145">
<rect width="100" height="100" fill="white"/>
</clipPath>
</defs>
</svg>
