<svg width="100" height="100" viewBox="0 0 100 100" fill="none" xmlns="http://www.w3.org/2000/svg">
<g clip-path="url(#clip0_840_2248)">
<path d="M39.6531 46.1092C39.6531 43.5023 41.4297 41.7878 44.4814 41.7878C45.1878 41.7878 45.7797 41.8783 45.9855 41.9241V44.8292C45.803 44.76 45.3703 44.6684 44.824 44.6684C43.6614 44.6684 42.9105 45.3095 42.9105 46.4979V46.8397H45.575V49.5158H43.0473V58.5729H39.6531V46.1092Z" fill="#0059F0"/>
<path d="M50.7002 58.5729H47.2837V46.8397H50.7002V58.5729Z" fill="#0059F0"/>
<path d="M55.9068 53.883C53.7274 53.2709 52.1821 52.3528 52.1821 50.072C52.1821 47.884 53.9154 46.4733 56.6333 46.4733C58.3198 46.4733 59.7261 46.8955 60.4292 47.2016V50.2128C59.656 49.8129 58.4845 49.4365 57.4532 49.3427C57.0783 49.3193 56.7034 49.3193 56.3752 49.3896C55.8834 49.4835 55.3917 49.7191 55.3917 50.2363C55.3917 50.8249 55.9769 51.1298 57.2185 51.5062C59.8896 52.259 61.1556 53.2006 61.1556 55.3171C61.1556 57.5756 59.3044 58.8924 56.3284 58.8924C54.5484 58.8924 53.1889 58.4925 52.3457 58.1161V55.0357C53.447 55.6232 55.1336 56.1169 56.2817 56.1169C57.1484 56.1169 57.946 55.8823 57.946 55.1764C57.946 54.5409 57.2429 54.2817 55.9068 53.883" fill="#0059F0"/>
<path d="M68.2501 46.4733C67.2288 46.4733 66.3733 46.8564 65.708 47.3568V42.6155H62.2915V58.5729H65.708V49.7816C66.1297 49.4756 66.6514 49.3025 67.2477 49.3025C68.4782 49.3025 68.7963 50.2407 68.7963 51.361V58.5729H72.214V51.0694C72.214 48.0504 70.8244 46.4733 68.2501 46.4733" fill="#0059F0"/>
<path d="M73.7504 42.6155H77.0534V46.8397H80.0828V49.5158H77.0534V54.4102C77.0534 55.6231 77.7598 56.0342 78.5119 56.0342C79.2172 56.0342 79.947 55.8052 80.4477 55.5539V58.3663C79.947 58.6187 78.8979 58.8924 77.5551 58.8924C75.7551 58.8924 74.0018 58.0469 73.7504 55.6455C73.7281 55.2791 73.6825 54.8904 73.6825 54.4794L73.7504 42.6155Z" fill="#0059F0"/>
<path d="M93.0001 46.8397H89.4467L86.7667 53.6462L84.0856 46.8397H80.5333L85.6475 58.5729H87.9081L93.0001 46.8397Z" fill="#0059F0"/>
<path d="M50.8827 43.4576C50.8827 44.5053 50.0361 45.3553 48.9915 45.3553C47.9479 45.3553 47.1013 44.5053 47.1013 43.4576C47.1013 42.4088 47.9479 41.5589 48.9915 41.5589C50.0361 41.5589 50.8827 42.4088 50.8827 43.4576Z" fill="#0059F0"/>
<path d="M23.466 39.5272V43.8977L21.0763 46.2969C21.0051 46.3672 20.8917 46.3672 20.8216 46.2969L18.4308 43.8977V39.5965C18.4308 38.2573 19.4387 37.099 20.7682 37.0063C21.5336 36.9527 22.2333 37.2442 22.7295 37.7401C23.1845 38.1969 23.466 38.8291 23.466 39.5272Z" fill="#0059F0"/>
<path d="M21.0763 53.7032L23.466 56.1023V60.4002C23.466 61.7617 22.4247 62.9323 21.0708 62.9971C19.6256 63.0663 18.4308 61.9092 18.4308 60.4728V56.1023L20.8216 53.7032C20.8916 53.6317 21.0051 53.6317 21.0763 53.7032" fill="#0059F0"/>
<path d="M14.8698 47.4718L17.2605 49.8721C17.3306 49.9425 17.3306 50.0575 17.2605 50.1279L14.8698 52.5282H10.5922C9.19374 52.5282 8.00447 51.4146 8.00002 50.0095C7.99759 49.307 8.28038 48.6714 8.73762 48.2124C9.19375 47.7556 9.82342 47.4718 10.5176 47.4718H14.8698Z" fill="#0059F0"/>
<path d="M33.8947 50.1223C33.8302 51.4816 32.6643 52.5282 31.3081 52.5282H27.0272L24.6375 50.1279C24.5663 50.0575 24.5663 49.9425 24.6375 49.8721L27.0272 47.4718H31.3804C32.81 47.4718 33.9637 48.6714 33.8947 50.1223" fill="#0059F0"/>
<path d="M15.3537 40.8072L18.4309 43.8977V47.292C18.4309 47.3914 18.3508 47.4718 18.2518 47.4718H14.8697L11.7925 44.3824C10.8091 43.3951 10.8091 41.7957 11.7925 40.8072C12.2843 40.3135 12.9273 40.0678 13.5737 40.0678C14.2178 40.0678 14.863 40.3135 15.3537 40.8072" fill="#0059F0"/>
<path d="M30.1044 59.1917C29.1209 60.1802 27.5278 60.1802 26.5433 59.1917L23.4661 56.1034V52.708C23.4661 52.6086 23.5473 52.5282 23.6463 52.5282H27.0272L30.1044 55.6175C31.0879 56.6049 31.0879 58.2066 30.1044 59.1917" fill="#0059F0"/>
<path d="M14.8697 52.5282H18.2518C18.3508 52.5282 18.4309 52.6086 18.4309 52.708V56.1023L15.3537 59.1917C14.3702 60.1802 12.7749 60.1802 11.7925 59.1917C11.3019 58.6991 11.0549 58.0524 11.0549 57.4046C11.0549 56.7579 11.3019 56.1123 11.7925 55.6164L14.8697 52.5282Z" fill="#0059F0"/>
<path d="M30.0543 44.4327L27.0272 47.4719H23.6463C23.5473 47.4719 23.4672 47.3915 23.4672 47.292V43.8977L26.5433 40.8083C27.5556 39.7919 29.2133 39.8209 30.1878 40.8954C31.1012 41.9018 31.0133 43.4699 30.0543 44.4327" fill="#0059F0"/>
</g>
<defs>
<clipPath id="clip0_840_2248">
<rect width="85" height="26" fill="white" transform="translate(8 37)"/>
</clipPath>
</defs>
</svg>
