<svg width="100" height="100" viewBox="0 0 100 100" fill="none" xmlns="http://www.w3.org/2000/svg">
<path d="M14.051 37.034C13.2465 37.1562 12.5722 37.5072 12.0123 38.0907C11.4682 38.6585 11.133 39.3525 11.0344 40.1098C11.0028 40.3503 10.995 43.2603 11.0028 50.224C11.0147 59.3762 11.0226 60.0188 11.0857 60.2554C11.4603 61.6278 12.4224 62.582 13.7789 62.9289C14.0352 62.996 14.6385 62.9999 24.2245 62.9999H34.3978L34.733 62.9133C35.1904 62.7908 35.7977 62.4834 36.1329 62.2035C36.7283 61.7025 37.154 61.0244 37.3434 60.279L37.4342 59.9241V49.9874V40.0506L37.3315 39.6719C37.0752 38.7571 36.5153 38.004 35.7227 37.515C35.3678 37.2981 34.8041 37.0931 34.3939 37.034C34.0706 36.9906 14.3546 36.9867 14.051 37.034ZM25.6833 42.7713C28.1795 43.0987 30.2614 44.049 31.8899 45.6105C32.6077 46.3006 33.1084 46.9354 33.5855 47.7713C33.9326 48.3706 34.3426 49.3603 34.4728 49.8966L34.4964 50.0071H34.0862H33.6763L33.6486 49.8966C33.5855 49.6444 33.3253 49.0054 33.1084 48.5717C31.8151 45.9693 29.2401 44.1554 26.0973 43.623C24.5872 43.3667 22.8521 43.422 21.4247 43.773C18.6487 44.455 16.5076 46.1231 15.3325 48.5205C15.1826 48.8163 14.9973 49.2737 14.9145 49.5339L14.7607 50.0032L14.3585 50.0071C14.1337 50.0071 13.9524 49.9913 13.9524 49.9755C13.9524 49.9046 14.1574 49.254 14.2954 48.903C15.3995 46.0204 17.8522 43.8832 20.9989 43.0671C21.7282 42.8779 22.1423 42.8107 23.3175 42.6963C23.6605 42.661 25.2378 42.7122 25.6833 42.7713ZM25.2103 46.119C26.4247 46.3872 27.4539 47.0457 28.1715 48.0157C29.2284 49.4472 29.4255 51.3714 28.6763 52.9999C28.2425 53.9463 27.3631 54.8533 26.4325 55.3226C25.7346 55.6736 25.0762 55.8194 24.2245 55.8194C23.5264 55.8194 23.1715 55.7641 22.588 55.5592C21.6732 55.2398 20.8648 54.6444 20.2694 53.8516C19.9854 53.4731 19.6148 52.7083 19.4965 52.2665C19.114 50.8194 19.3624 49.3289 20.1906 48.1262C20.4586 47.7319 21.0226 47.1679 21.4169 46.8999C22.0162 46.4858 22.7299 46.202 23.4752 46.0796C23.8696 46.0126 24.8277 46.0362 25.2103 46.119Z" fill="#2387C8"/>
<path d="M23.4787 46.8762C22.6586 47.0378 21.9608 47.4044 21.3574 47.9881C19.7289 49.5615 19.6775 52.1048 21.2352 53.7571C22.4732 55.0662 24.3896 55.4211 26.0025 54.6402C27.0986 54.1079 27.8953 53.1378 28.2185 51.9431C28.3052 51.6158 28.3171 51.4819 28.321 50.9337C28.3249 50.3619 28.3132 50.2672 28.2146 49.9123C27.7728 48.3194 26.5426 47.1758 24.9417 46.8723C24.5631 46.8012 23.8494 46.8012 23.4787 46.8762ZM24.9022 48.1775C25.0285 48.2089 25.3005 48.3155 25.5056 48.418C26.2035 48.7571 26.7714 49.4588 26.9647 50.2278C27.1302 50.8667 27.0435 51.6474 26.7478 52.2114C26.0222 53.5913 24.3857 54.1514 22.9977 53.4927C22.2565 53.142 21.6728 52.4478 21.4598 51.6632C21.3693 51.3161 21.3693 50.5552 21.4598 50.2042C21.7478 49.112 22.6703 48.2997 23.8297 48.1103C24.0821 48.0709 24.6145 48.1025 24.9022 48.1775Z" fill="#2387C8"/>
<path d="M58.4648 38.906H60.3728V37H58.4648V38.906Z" fill="#2387C8"/>
<path d="M44.9307 40.2077C43.0227 40.459 41.854 41.5419 41.4764 43.4154C41.3414 44.0804 41.3334 44.4088 41.3334 48.2817V52.1666H43.2413V49.9362H44.8473C45.7653 49.9362 46.5882 49.9158 46.7671 49.8916C47.7965 49.7497 48.5796 49.3685 49.1719 48.7237C49.943 47.8842 50.2769 46.7811 50.2769 45.0902C50.2808 44.2507 50.2332 43.7601 50.098 43.2206C49.6527 41.4201 48.528 40.4428 46.62 40.2036C46.2266 40.155 45.328 40.1589 44.9307 40.2077ZM46.7591 42.2069C47.3593 42.373 47.8123 42.7219 48.047 43.1964C48.2537 43.6141 48.3332 44.0277 48.357 44.8185C48.4086 46.4689 48.0908 47.3002 47.244 47.726C46.7353 47.9814 46.5843 47.9977 44.8193 48.0181L43.2333 48.0384L43.2533 46.1162C43.2652 44.4777 43.281 44.1534 43.3367 43.8938C43.5713 42.872 44.0562 42.3772 45.0299 42.1663C45.3837 42.0933 46.433 42.1176 46.7591 42.2069Z" fill="#2387C8"/>
<path d="M55.6946 40.2078C53.8105 40.3944 52.626 41.1202 52.1649 42.3732C51.9582 42.929 51.9463 43.1519 51.9463 46.6799V49.9364H53.8501L53.8621 46.6394C53.874 43.5129 53.8781 43.3343 53.9496 43.1439C54.061 42.8518 54.4026 42.5153 54.7088 42.3977C55.0942 42.2475 55.627 42.1503 56.2114 42.1219L56.7558 42.0976V40.1632L56.3901 40.1673C56.1873 40.1712 55.8734 40.1875 55.6946 40.2078Z" fill="#2387C8"/>
<path d="M58.4648 49.9364H60.3728V40.1632H58.4648V49.9364Z" fill="#2387C8"/>
<path d="M65.759 40.2078C64.0021 40.439 62.8771 41.3716 62.42 42.9816C62.1855 43.8088 62.1894 43.7887 62.1736 46.9841L62.1576 49.9364H64.0656L64.0816 47.0855C64.0974 44.032 64.1013 44.0036 64.3121 43.4277C64.5466 42.787 64.9838 42.4016 65.6992 42.2029C66.0691 42.0976 67.2018 42.1015 67.5675 42.2029C68.0009 42.3247 68.3068 42.495 68.5573 42.7463C68.8155 43.0141 68.9587 43.2817 69.0859 43.7521C69.1735 44.0725 69.1735 44.1211 69.1893 47.0044L69.2012 49.9364H71.141L71.1568 47.0246C71.1687 44.19 71.1726 44.1089 71.2563 43.7846C71.4827 42.9127 71.9318 42.4341 72.7348 42.207C73.1044 42.1015 74.2731 42.1015 74.6428 42.207C75.4538 42.4341 75.9267 42.9166 76.1293 43.7116C76.2526 44.2023 76.2725 44.6969 76.2725 47.3086V49.9364H78.1844L78.1725 46.9841C78.1567 43.6873 78.1567 43.6912 77.8663 42.8154C77.2822 41.0351 75.9107 40.1632 73.6888 40.1632C72.2419 40.1632 71.0773 40.5972 70.35 41.4041L70.171 41.6027L69.9524 41.3635C69.3841 40.7512 68.4578 40.3214 67.4323 40.2078C66.9912 40.155 66.1564 40.1591 65.759 40.2078Z" fill="#2387C8"/>
<path d="M83.6656 40.2078C82.4692 40.3659 81.5628 40.8322 80.9746 41.5988C80.5335 42.1786 80.2035 43.0708 80.0921 43.9953C80.0286 44.5185 80.0405 45.739 80.1081 46.2419C80.4102 48.4075 81.539 49.5996 83.5661 49.8958C83.7293 49.9159 84.9296 49.9363 86.4203 49.9363H88.9919V48.0344L86.4599 48.0181C84.23 48.006 83.8922 47.9939 83.6695 47.9371C82.823 47.7059 82.2505 47.122 82.0597 46.2946L82.0042 46.0432H88.9999L88.98 44.9969C88.9561 43.6101 88.837 42.9937 88.4316 42.1907C87.8512 41.0309 86.8495 40.3902 85.335 40.2036C84.9454 40.1549 84.0393 40.159 83.6656 40.2078ZM85.5616 42.2475C85.9313 42.3692 86.3009 42.6084 86.5076 42.8517C86.6946 43.0747 86.9091 43.5249 86.9806 43.8412L87.0363 44.0967H82.0042L82.0597 43.8412C82.2267 43.1154 82.6878 42.5475 83.2999 42.3125C83.7174 42.1502 84.0036 42.1097 84.6395 42.1259C85.1521 42.138 85.2834 42.1543 85.5616 42.2475Z" fill="#2387C8"/>
<path d="M83.6332 55.5545H84.9052V54.3334H83.6332V55.5545Z" fill="#2387C8"/>
<path d="M41.3572 60.6956L41.4645 61.0775C41.7388 62.0703 42.2954 62.6297 43.2654 62.8897C43.7345 63.0119 44.748 63.0119 45.249 62.8897C46.2348 62.6456 46.8152 62.0586 47.0854 61.0303C47.2406 60.4356 47.2406 59.3522 47.0776 58.7061C46.8948 57.9773 46.4216 57.3589 45.8294 57.0831C45.2808 56.8231 45.1456 56.8034 43.814 56.7876L42.6093 56.7678V54.3334H41.3334L41.3572 60.6956ZM44.9589 58.1073C45.2728 58.2098 45.5114 58.3753 45.6544 58.5878C45.9566 59.0409 46.032 60.1361 45.8054 60.8531C45.6227 61.4439 45.1058 61.7395 44.259 61.7395C43.4125 61.7395 42.9274 61.4519 42.7207 60.8373C42.6373 60.597 42.6332 60.4867 42.6173 59.2812L42.6054 57.9892L43.6508 58.0048C44.5812 58.0206 44.7242 58.0325 44.9589 58.1073Z" fill="#2387C8"/>
<path d="M60.6565 57.3628C60.6565 59.8958 60.6645 60.4473 60.7163 60.7389C60.9269 61.9403 61.4993 62.5981 62.5846 62.8897C63.0537 63.0119 64.0673 63.0158 64.5682 62.8897C65.0572 62.7675 65.4307 62.5667 65.7449 62.2514C66.1902 61.8103 66.4246 61.2195 66.5002 60.3645C66.659 58.5878 66.0589 57.3548 64.8384 56.957C64.3654 56.8034 64.0952 56.7759 62.9742 56.7759H61.9285V54.3334H60.6565V57.3628ZM64.2781 58.1073C64.9896 58.3398 65.2479 58.8086 65.244 59.8878C65.244 60.2031 65.224 60.5103 65.1922 60.6364C65.0015 61.4045 64.5125 61.7395 63.5782 61.7395C62.7317 61.7395 62.2466 61.4558 62.0399 60.8373C61.9565 60.5931 61.9485 60.4945 61.9366 59.2812L61.9246 57.9892L62.9701 58.0048C63.9004 58.0206 64.0434 58.0325 64.2781 58.1073Z" fill="#2387C8"/>
<path d="M85.8276 57.7489C85.8395 60.8256 85.8514 61.1919 85.911 61.3967C86.1894 62.3342 86.9248 62.8189 88.2844 62.9606C88.4911 62.9803 88.7374 63 88.8328 63H88.9998V61.7395H88.7056C88.4035 61.7395 87.9225 61.6645 87.7078 61.5819C87.4972 61.5031 87.3063 61.3495 87.2069 61.1761L87.1116 61.0106L87.0877 54.3334H85.8157L85.8276 57.7489Z" fill="#2387C8"/>
<path d="M49.7445 56.8544C48.719 57.0711 48.0749 57.7014 47.8086 58.7652C47.733 59.0724 47.7211 59.226 47.7211 59.8877C47.7211 60.7663 47.7848 61.1288 48.0391 61.6488C48.1943 61.9718 48.552 62.3775 48.8421 62.5627C49.7684 63.1496 51.5374 63.1377 52.4557 62.5391C52.8968 62.2513 53.2547 61.7355 53.4177 61.1485C53.6163 60.4552 53.6163 59.3205 53.4216 58.6272C53.1473 57.658 52.4953 57.0555 51.5095 56.8544C51.0127 56.7521 50.2413 56.7521 49.7445 56.8544ZM51.0127 58.0363C51.911 58.1663 52.3046 58.7297 52.3046 59.8877C52.3046 60.8452 52.0342 61.3927 51.438 61.6291C51.2432 61.7077 51.1437 61.7158 50.6389 61.7158C50.1341 61.7158 50.0346 61.7077 49.8399 61.6291C49.3788 61.4477 49.1324 61.113 49.0291 60.5338C48.9216 59.9469 48.9812 59.1788 49.1602 58.7769C49.4186 58.1899 50.1261 57.9102 51.0127 58.0363Z" fill="#2387C8"/>
<path d="M54.2011 56.823C54.2208 56.8505 54.6741 57.536 55.2147 58.3475L56.1925 59.8208L55.1471 61.3847C54.5708 62.2474 54.0978 62.9644 54.0978 62.9763C54.0978 62.988 54.4356 62.9999 54.8529 62.9999H55.6082L56.2839 61.9955C56.6577 61.4438 56.9677 60.9908 56.9758 60.9908C56.9758 60.9908 57.2897 61.4438 57.6596 61.9955L58.3312 62.9999H59.0826C59.6629 62.9999 59.826 62.988 59.81 62.9488C59.8022 62.9252 59.3331 62.2121 58.7685 61.373C58.1722 60.4788 57.7588 59.8169 57.7707 59.7855C57.7826 59.7538 58.2318 59.0724 58.7685 58.2688C59.3051 57.4652 59.7424 56.8033 59.7424 56.7914C59.7424 56.7836 59.4007 56.7758 58.9871 56.7758H58.2279L56.9716 58.6666L55.7076 56.7758H54.9404C54.3361 56.7758 54.1771 56.7875 54.2011 56.823Z" fill="#2387C8"/>
<path d="M69.3428 56.8388C68.1819 57.016 67.53 57.4966 67.2637 58.3633C67.2121 58.5366 67.2 58.9108 67.1881 60.7821L67.1722 62.9999H68.4482V60.9672C68.4482 59.553 68.4642 58.8833 68.4961 58.7533C68.5637 58.4855 68.8061 58.2608 69.14 58.1585C69.3586 58.0914 70.0264 57.9969 70.2807 57.9969C70.3525 57.9969 70.3564 57.9575 70.3564 57.3863V56.7758L70.0305 56.7797C69.8476 56.7836 69.5415 56.8072 69.3428 56.8388Z" fill="#2387C8"/>
<path d="M72.6817 56.8307C71.6562 57.0317 71.0719 57.5712 71.0043 58.3868L70.9805 58.6665H72.2644V58.5443C72.2644 58.3632 72.4711 58.1779 72.7654 58.0912C72.9363 58.0401 73.1389 58.0204 73.5365 58.0204C74.1845 58.0204 74.4746 58.0912 74.6774 58.2923C74.7886 58.4026 74.8085 58.4498 74.8085 58.6193C74.8085 58.7571 74.7847 58.8437 74.7251 58.9187C74.5461 59.1432 74.2918 59.2062 73.3616 59.2573C72.3877 59.3087 71.9464 59.4465 71.5091 59.8365C71.1434 60.1634 70.9686 60.644 71.0004 61.2429C71.0362 61.8417 71.2628 62.2671 71.7119 62.5626C72.5268 63.1023 74.3355 63.1495 75.2577 62.6532C75.5242 62.5112 75.8461 62.1568 75.9614 61.8732C76.0567 61.6407 76.0606 61.6329 76.0728 60.0137C76.0806 58.9501 76.0687 58.3159 76.0409 58.182C75.9018 57.5123 75.4605 57.0987 74.6575 56.8859C74.2599 56.7795 73.1073 56.7479 72.6817 56.8307ZM74.8005 60.8687C74.7886 61.3412 74.7808 61.3846 74.6933 61.4793C74.5143 61.6684 74.264 61.7195 73.5365 61.7195C72.5506 61.7195 72.3041 61.6093 72.2724 61.1484C72.2564 60.9237 72.2605 60.9079 72.3916 60.7779C72.5745 60.5968 72.7296 60.5612 73.5365 60.514C73.918 60.4943 74.3316 60.451 74.4508 60.4234C74.8443 60.3251 74.8165 60.2895 74.8005 60.8687Z" fill="#2387C8"/>
<path d="M76.9946 57.9969H81.5663L81.5425 58.1033C81.435 58.5366 81.2203 58.8636 80.9182 59.0408C80.7035 59.163 80.302 59.2575 79.9762 59.2575C79.2885 59.2575 78.6086 59.4152 78.1874 59.6711C77.9328 59.8247 77.6069 60.1477 77.4518 60.3999C77.1537 60.8727 76.9946 61.6013 76.9946 62.476V62.9999H82.878V61.7394H78.3066L78.3304 61.6291C78.3941 61.3572 78.565 61.0577 78.7518 60.8924C79.046 60.6324 79.2924 60.5574 79.9881 60.5141C80.7154 60.4708 81.0534 60.3999 81.4868 60.1952C82.4369 59.746 82.878 58.8044 82.878 57.2405V56.7758H76.9946V57.9969Z" fill="#2387C8"/>
<path d="M83.6332 62.9999H84.9052V56.7758H83.6332V62.9999Z" fill="#2387C8"/>
</svg>
