<svg width="100" height="100" viewBox="0 0 100 100" fill="none" xmlns="http://www.w3.org/2000/svg">
<g clip-path="url(#clip0_837_387)">
<path d="M95 41H38.7881V60H95V41Z" fill="#E11A50"/>
<path d="M61.7608 51.4268C63.5659 51.1774 64.9594 51.6201 64.9752 50.0588C64.8667 49.2443 63.9954 48.9495 63.1842 48.9495C61.8637 48.9635 60.9981 49.2933 60.8487 50.5029H58.6009C58.4123 45.8498 67.0756 46.1784 67.0904 49.4823L67.0575 55.0077C67.0196 55.6352 67.0828 55.8792 67.8874 55.8037H68.0028C68.054 55.791 68.1053 55.7781 68.1565 55.7653L68.1421 57.3253C66.3387 57.8715 65.4461 57.5975 65.039 56.4004C63.9965 57.2744 62.9264 57.5675 61.5494 57.575C59.493 57.6415 58.2569 56.4554 58.2819 54.5969C58.2149 52.2134 60.6534 51.6037 61.7608 51.4268V51.4268ZM64.8575 52.3132C64.755 52.4413 64.6342 52.5013 64.3651 52.5653C63.2546 53.092 60.4979 52.7871 60.5193 54.4083C60.5649 55.7606 63.5397 56.6664 64.8383 54.3691C64.8511 54.3435 64.8575 54.3178 64.8575 54.2923V52.3133L64.8575 52.3132Z" fill="black"/>
<path d="M69.1019 57.4025V47.2578H71.2655V49.0711C72.1137 47.4956 73.4371 46.9231 74.9667 47.1533V49.2861C73.916 49.2861 72.5496 49.0739 71.7051 50.8137C71.3307 51.3407 71.4289 55.097 71.388 57.4025H69.1019Z" fill="black"/>
<path d="M77.4997 55.8953V49.136H75.7869V47.323H77.4997V44.4043H79.697V47.323H81.6733V49.136H79.697V55.0041C79.9252 55.8281 80.8378 55.5326 81.6733 55.5584V57.3933C80.0452 57.4677 77.7855 57.7666 77.4997 55.8954V55.8953Z" fill="black"/>
<path d="M85.0455 54.0965C85.185 55.5721 86.3926 55.812 87.3377 55.7695C88.2308 55.7294 89.4331 55.2476 89.3762 54.4382C89.283 53.1129 82.9496 53.4702 82.9917 50.1228C83.0142 47.4156 85.8028 46.9984 87.5997 47.0841C88.5399 47.1154 89.549 47.4256 90.2396 47.9025C90.8039 48.2994 91.2763 49.3 91.33 50.292H89.0049C88.6511 48.3698 85.0753 48.7128 85.2374 49.9697C85.4481 51.6037 89.4107 50.966 90.8273 52.4272C91.3381 52.9541 91.7018 53.5508 91.6503 54.4689C91.5216 56.7623 89.3897 57.5806 87.3578 57.5747C84.927 57.5676 82.8681 56.7883 82.8429 54.0965C83.4541 54.0964 84.4164 54.0965 85.0455 54.0965V54.0965Z" fill="black"/>
<path d="M48.2476 48.1686C47.8126 47.6995 47.3889 47.4457 47.4103 46.7945C47.4356 46.0255 48.3103 45.7459 48.8358 46.0981C49.3801 46.4629 49.5598 47.2922 48.2476 48.1686ZM51.4886 57.4044H56.0666L53.1996 54.0016C54.0347 52.9901 54.4537 51.8231 55.0161 50.5976H51.5148C51.4635 51.0858 51.359 51.2298 51.0999 51.5401L50.1557 50.3565C51.3792 49.803 52.6367 48.4792 52.6367 46.8064C52.6367 44.55 50.7844 43.2838 48.518 43.2838C46.5753 43.2838 44.1118 44.1014 44.1118 46.7273C44.1118 47.8166 44.48 48.5947 45.1106 49.3533C43.5598 50.2481 42.1329 51.2732 42.1329 53.3351C42.1329 56.0388 44.6164 57.7163 46.8658 57.7163C48.4677 57.7163 49.7859 57.2175 50.6039 56.42L51.4886 57.4044ZM48.4552 53.632C48.6768 53.9044 48.5916 53.846 48.0974 54.1767C47.7565 54.4101 47.5446 54.4602 47.1319 54.4875C46.4652 54.5317 45.9027 54.2139 45.8156 53.3409C45.7457 52.6407 46.4297 52.2736 47.0943 51.8846L48.4552 53.632Z" fill="black"/>
<path d="M14.3849 43.4171H11.7497V45.7281H14.3849V43.4171ZM11.7497 57.52H14.3849V47.3082H11.7497V57.52Z" fill="#B8B8B8"/>
<path d="M15.9308 57.52H18.8111V43.4171H15.9308V57.52Z" fill="#B8B8B8"/>
<path d="M20.3476 57.52H23.1443V51.5944C23.1443 49.5995 24.4836 49.244 25.0351 49.244C26.8076 49.244 26.7289 50.6068 26.7289 51.792V57.52H29.5256V51.8315C29.5256 50.5476 29.821 49.244 31.3966 49.244C32.9919 49.244 33.1101 50.3698 33.1101 51.7327V57.52H35.9068V50.6859C35.9068 48.0391 34.3509 47.0317 32.1844 47.0317C30.7664 47.0317 29.7028 47.8416 29.112 48.7304C28.5605 47.5058 27.4182 47.0317 26.138 47.0317C24.8184 47.0317 23.7549 47.6441 23.0261 48.6909H22.9868V47.3083H20.3476L20.3476 57.52Z" fill="#B8B8B8"/>
<path d="M5.70247 57.5202H8.54669V49.1849H10.5096V47.3084H8.54669V46.6961C8.54669 45.8468 8.86716 45.5308 9.62829 45.5308C9.98882 45.5308 10.3293 45.5505 10.6698 45.5901V43.4964C10.1891 43.4766 9.66835 43.4174 9.16761 43.4174C6.84417 43.4174 5.70247 44.721 5.70247 46.5184V47.3085H3.99994V49.1849H5.70247V57.5202Z" fill="#B8B8B8"/>
</g>
<defs>
<clipPath id="clip0_837_387">
<rect width="91" height="19" fill="white" transform="translate(4 41)"/>
</clipPath>
</defs>
</svg>
