<svg width="100" height="100" viewBox="0 0 100 100" fill="none" xmlns="http://www.w3.org/2000/svg">
<g clip-path="url(#clip0_839_1390)">
<path d="M15.0855 42.0506V41.9495C15.5286 41.8307 15.8665 41.6345 16.088 41.3611C16.3096 41.0877 16.4204 40.7251 16.4204 40.2615C16.4204 38.7637 15.4234 38.0088 13.4294 38.0088H6.11255V46.6987H13.6565C14.4153 46.6987 15.0246 46.6036 15.4788 46.4134C15.9329 46.2231 16.2542 45.9378 16.4425 45.5693C16.6308 45.2008 16.7305 44.7134 16.7305 44.1071C16.7305 43.7743 16.6862 43.483 16.6032 43.2334C16.5201 42.9838 16.4038 42.7817 16.2487 42.6271C16.0936 42.4726 15.9219 42.3537 15.7335 42.2586C15.5452 42.1695 15.3292 42.0981 15.0855 42.0506ZM12.1001 41.3908H9.51341V40.1723H12.1001C12.3659 40.1723 12.5487 40.2258 12.6539 40.3209C12.7592 40.416 12.8146 40.5765 12.8146 40.7964C12.8146 41.0045 12.7592 41.1531 12.6484 41.2482C12.5376 41.3433 12.3548 41.3908 12.1001 41.3908V41.3908ZM12.1776 44.5945H9.51341V43.1799H12.1776C12.4878 43.1799 12.7038 43.2394 12.8256 43.3523C12.9475 43.4652 13.0084 43.6495 13.0084 43.8991C13.0084 44.1488 12.942 44.3271 12.8201 44.4341C12.6983 44.541 12.4822 44.5945 12.1776 44.5945Z" fill="#BCBDC1"/>
<path d="M23.9263 46.6899H27.3546L23.6289 38H19.5222L15.7913 46.6899H19.2248L19.6683 45.5963H23.4828L23.9263 46.6899ZM21.6042 40.7877L22.5748 43.3316H20.5763C20.9363 42.4044 21.2598 41.5604 21.5416 40.7877H21.6042Z" fill="#BCBDC1"/>
<path d="M34.2075 38V42.553H34.1351L30.7474 38H26.8136V46.6899H30.0286V42.0894H30.101L33.5333 46.6899H37.4225V38H34.2075Z" fill="#BCBDC1"/>
<path d="M44.2944 38H38.1215V46.6899H44.2944C45.1638 46.6899 45.9057 46.6127 46.5201 46.4581C47.1287 46.3036 47.6387 46.0539 48.056 45.7092C48.4676 45.3644 48.769 44.9187 48.966 44.3659C49.1573 43.819 49.2559 43.1414 49.2559 42.345C49.2559 41.5485 49.1573 40.8768 48.966 40.3241C48.769 39.7772 48.4676 39.3255 48.056 38.9807C47.6387 38.636 47.1287 38.3864 46.5201 38.2318C45.9057 38.0773 45.1638 38 44.2944 38V38ZM43.3206 40.5559C44.0335 40.5559 44.5494 40.6985 44.874 40.9719C45.1986 41.2453 45.3608 41.703 45.3608 42.345C45.3608 42.9869 45.1986 43.4505 44.874 43.7239C44.5494 43.9974 44.0335 44.1341 43.3206 44.1341H41.6803V40.5559H43.3206Z" fill="#BCBDC1"/>
<path d="M14.5385 51.744H20.2961C20.0338 48.1576 15.5785 47.573 12.7638 47.5801C11.8303 47.5801 11.0005 47.6228 10.2744 47.6911C9.54027 47.7678 8.85407 47.9043 8.19978 48.092C7.5455 48.2883 7.0109 48.5442 6.58003 48.8599C6.14916 49.1755 5.81404 49.585 5.56668 50.0799C5.31933 50.5747 5.19964 51.1548 5.20762 51.8117C5.1491 55.9371 10.5549 55.3419 13.6187 55.9937C14.1931 56.062 14.6091 56.2403 14.8166 56.3768C15.4116 57.8058 13.7831 57.9147 13.2295 57.9195C12.1435 57.8599 10.9682 57.914 10.8803 56.7538H4.99988C5.03469 60.5936 9.22214 60.8409 12.8755 61.0001C13.5458 61.0001 14.1522 60.9916 14.6948 60.966C17.3665 60.6848 20.6628 60.0591 20.8147 56.6149C20.919 52.2574 14.9548 52.8904 11.811 52.0817C11.2524 52.0305 10.8649 51.979 10.6734 51.8681C10.4739 51.7572 10.3782 51.5866 10.3782 51.3562C10.5147 50.0817 13.3119 50.479 13.8685 50.7311C14.2196 50.9188 14.5815 51.1833 14.5385 51.744V51.744Z" fill="#D51B20"/>
<path d="M30.3833 48.0579H20.6743V60.5308H25.4935V56.6814H30.3833C31.333 56.6814 32.1335 56.5961 32.7928 56.4255C33.4443 56.2548 33.9701 55.9818 34.3704 55.6064C34.7629 55.2311 35.0533 54.7789 35.226 54.2414C35.4495 53.0549 35.5971 51.7732 35.2338 50.5917C35.0611 50.0457 34.7864 49.5765 34.394 49.184C34.0016 48.8001 33.4757 48.5186 32.8164 48.3309C32.1571 48.1517 31.3408 48.0579 30.3833 48.0579H30.3833ZM28.8998 53.6229H25.4935V50.9712H28.8998C29.3865 50.9712 29.724 51.0651 29.9202 51.2528C30.1164 51.4405 30.3598 51.7613 30.3598 52.346C30.3598 52.9308 30.1164 53.1708 29.9202 53.3499C29.7161 53.5376 29.3786 53.6229 28.8998 53.6229V53.6229Z" fill="#D51B20"/>
<path d="M43.5823 47.5801C40.7047 47.5801 38.5702 48.1346 37.1788 49.2266C35.7874 50.3272 35.0996 52.0164 35.0996 54.2943C35.0996 56.5807 35.7874 58.27 37.1788 59.362C38.5702 60.454 40.7047 61 43.5823 61C46.4599 61 48.5865 60.454 49.9779 59.362C51.3693 58.27 52.065 56.5807 52.065 54.2943C52.065 52.0164 51.3693 50.3272 49.9779 49.2266C48.5865 48.1346 46.4599 47.5801 43.5823 47.5801V47.5801ZM43.5823 57.7753C40.9864 57.829 40.3238 56.2054 40.3238 54.2943C40.3238 52.3833 40.9864 50.7955 43.5823 50.7955C46.1782 50.7955 46.7603 52.3833 46.7603 54.2943C46.7603 56.2054 46.1782 57.7215 43.5823 57.7753Z" fill="#D51B20"/>
<path d="M64.7839 54.3749C65.5234 54.1531 65.8086 53.917 66.1986 53.3796C66.9071 52.5477 66.7605 51.0612 66.5341 50.3887C66.3624 49.8768 66.0816 49.4332 65.6915 49.0493C65.3015 48.6739 64.7788 48.3838 64.1157 48.1961C63.4526 48.0084 62.6491 48.0579 61.7051 48.0579H51.8678V60.5308H56.7638V56.6822H60.4279C62.1279 57.0006 61.1977 60.176 61.7519 60.5308H67.0411C66.0299 59.4348 66.5592 57.415 66.1918 55.8839C66.0067 55.1123 65.7676 54.7866 64.7839 54.3749V54.3749ZM60.2385 53.5759H56.7638V51.1973H60.2385C60.6754 51.1973 61.0404 51.2912 61.2277 51.4618C61.4071 51.6324 61.5007 51.9054 61.5007 52.2808C61.5007 52.6477 61.4071 53.1579 61.2277 53.3285C61.0404 53.4992 60.6754 53.5781 60.2385 53.5759V53.5759Z" fill="#D51B20"/>
<path d="M80.4525 48.0579H66.5618V51.212H71.076V60.5308H75.9382V51.212H80.4525V48.0579Z" fill="#D51B20"/>
<path d="M89.7224 51.744H95.4801C95.2177 48.1576 90.7625 47.573 87.9478 47.5801C87.0142 47.5801 86.1844 47.6228 85.4583 47.6911C84.7242 47.7678 84.038 47.9043 83.3837 48.092C82.7295 48.2883 82.1949 48.5442 81.764 48.8599C81.3331 49.1755 80.998 49.585 80.7506 50.0799C80.5033 50.5747 80.3836 51.1548 80.3916 51.8117C80.3331 55.9371 85.7388 55.3419 88.8026 55.9937C89.3771 56.062 89.7931 56.2403 90.0005 56.3768C90.5956 57.8058 88.9671 57.9147 88.4134 57.9195C87.3275 57.8599 86.1521 57.914 86.0643 56.7538H80.1838C80.2187 60.5936 84.4061 60.8409 88.0595 61.0001C88.7297 61.0001 89.3362 60.9916 89.8787 60.966C92.5505 60.6848 95.8467 60.0591 95.9987 56.6149C96.1029 52.2574 90.1388 52.8904 86.9949 52.0817C86.4364 52.0305 86.0489 51.979 85.8574 51.8681C85.6579 51.7572 85.5621 51.5866 85.5621 51.3562C85.6986 50.0817 88.4959 50.479 89.0525 50.7311C89.4035 50.9188 89.7655 51.1833 89.7224 51.744V51.744Z" fill="#D51B20"/>
</g>
<defs>
<clipPath id="clip0_839_1390">
<rect width="91" height="23" fill="white" transform="translate(5 38)"/>
</clipPath>
</defs>
</svg>
