<svg width="100" height="100" viewBox="0 0 100 100" fill="none" xmlns="http://www.w3.org/2000/svg">
<g clip-path="url(#clip0_103_15)">
<path d="M70.443 46.4417H73.7788V52.2971H81.2605V46.4417H84.5892V61.028H81.2605V55.0893H73.7788V61.028H70.443" fill="black"/>
<path d="M88.9269 49.1714V58.2983H92.3095C93.5798 58.2983 94.6052 57.9163 95.3857 57.1522C96.1662 56.3743 96.5565 55.256 96.5565 53.7974V53.6932C96.5565 52.2345 96.1662 51.1163 95.3857 50.3383C94.6052 49.5604 93.5798 49.1714 92.3095 49.1714H88.9269V49.1714ZM85.5981 46.4417H92.3324C93.4956 46.4417 94.5516 46.6153 95.5005 46.9626C96.4494 47.3099 97.2528 47.8031 97.9109 48.4421C98.5843 49.0672 99.097 49.8243 99.4491 50.7134C99.8164 51.5886 100 52.561 100 53.6307V53.8182C100 54.8879 99.8164 55.8672 99.4491 56.7563C99.097 57.6315 98.5843 58.3886 97.9109 59.0276C97.2528 59.6666 96.4494 60.1598 95.5005 60.5071C94.5516 60.8544 93.4956 61.028 92.3324 61.028H85.5981V46.4417Z" fill="black"/>
<path d="M0 30H33.5536C33.5529 41.1333 33.555 52.2674 33.5536 63.4007C22.3688 63.4021 11.1848 63.4 0 63.4007V30Z" fill="black"/>
<path d="M35.9646 32.3966C39.1547 32.3938 42.3455 32.3904 45.5357 32.3979C48.7444 36.367 51.9242 40.3608 55.1343 44.3292C55.1399 40.3512 55.135 36.3725 55.1426 32.3945C58.3328 32.3952 61.5229 32.3904 64.713 32.3972C64.7172 41.8392 64.713 51.2811 64.7151 60.7237C64.7137 60.8206 64.7178 60.9196 64.7082 61.0172C61.5657 61.022 58.4232 61.0192 55.2814 61.0178C55.2365 61.013 55.1461 61.0041 55.1012 60.9993C51.9166 57.035 48.7354 53.068 45.5495 49.1051C45.5329 53.0749 45.5467 57.0447 45.5398 61.0144C42.3476 61.0282 39.1554 61.0261 35.9632 61.0172C35.9591 51.477 35.9604 41.9368 35.9646 32.3966V32.3966Z" fill="black"/>
<path d="M2.24037 65.9794C2.69521 65.7347 3.24117 65.6715 3.74294 65.789C4.30615 65.9196 4.79344 66.3017 5.09505 66.7876C4.74236 67.0055 4.38276 67.2158 4.01143 67.4007C3.83543 67.2612 3.67668 67.0804 3.44685 67.0323C3.00166 66.9107 2.50955 67.2199 2.41361 67.666C2.26798 68.1952 2.76492 68.7718 3.31364 68.7017C3.60421 68.701 3.81265 68.4832 4.0135 68.3052C4.38069 68.501 4.74167 68.712 5.09713 68.9285C4.75893 69.5045 4.14464 69.8577 3.50344 70H2.99131C2.70971 69.921 2.4212 69.8474 2.16928 69.6942C1.5267 69.3299 1.10015 68.6096 1.11395 67.8708C1.08635 67.0942 1.55361 66.3375 2.24037 65.9794V65.9794Z" fill="black"/>
<path d="M20.5908 65.7656C21.2376 65.6701 21.9257 65.8653 22.3916 66.3292C22.9562 66.8474 23.1825 67.6818 22.9789 68.4158C22.767 69.2832 21.9402 69.9416 21.0505 69.989C20.2312 70.0488 19.4016 69.5801 19.0289 68.8522C18.7307 68.2935 18.6997 67.6014 18.9599 67.0227C19.238 66.3608 19.8779 65.8687 20.5908 65.7656V65.7656ZM20.6578 67.1354C20.3582 67.2419 20.1339 67.5498 20.1443 67.8694C20.1305 68.2777 20.5059 68.6454 20.9132 68.6399C21.3984 68.6612 21.8166 68.1361 21.6696 67.6708C21.5737 67.2461 21.0657 66.9739 20.6578 67.1354V67.1354Z" fill="black"/>
<path d="M23.4483 67.444C23.616 66.5546 24.4167 65.8199 25.3271 65.756C26.0221 65.6797 26.7433 65.9608 27.1844 66.5045C27.7711 67.1835 27.8304 68.2378 27.3535 68.9918C27.0256 69.5416 26.4314 69.8639 25.8199 70H25.2829C24.9702 69.912 24.6465 69.833 24.3753 69.6467C23.6568 69.1876 23.2668 68.277 23.4483 67.444V67.444ZM25.2822 67.1354C24.9592 67.2515 24.7245 67.5959 24.768 67.9409C24.7997 68.2948 25.1062 68.6076 25.4658 68.6344C25.9248 68.6976 26.3762 68.2591 26.3113 67.7979C26.2975 67.3127 25.7322 66.9526 25.2822 67.1354V67.1354Z" fill="black"/>
<path d="M53.424 66.6337C53.8409 66.0481 54.569 65.69 55.291 65.7395C55.9543 65.7684 56.5886 66.1368 56.9537 66.6873C57.2291 67.1155 57.3595 67.6399 57.2878 68.1457C57.1987 68.7711 56.8274 69.3608 56.2752 69.6811C56.0157 69.8406 55.7189 69.9162 55.429 70H54.8996C54.6519 69.923 54.3965 69.8626 54.1673 69.7375C53.6076 69.4481 53.1962 68.8935 53.0796 68.277C52.9643 67.712 53.0934 67.1052 53.424 66.6337V66.6337ZM54.8941 67.1382C54.6022 67.2536 54.3827 67.5512 54.3992 67.8694C54.3847 68.2701 54.7485 68.6296 55.146 68.6358C55.6126 68.6639 56.0316 68.1911 55.9363 67.7327C55.8742 67.2708 55.3262 66.9533 54.8941 67.1382V67.1382Z" fill="black"/>
<path d="M6.46097 65.8316C7.14358 65.822 7.82895 65.8103 8.51087 65.8378C8.93604 67.1917 9.36949 68.5436 9.7843 69.9003C9.31013 69.901 8.83596 69.9044 8.36179 69.9017C8.25964 69.6873 8.23962 69.4447 8.14092 69.2289C7.70678 69.2041 7.26989 69.2117 6.83575 69.2247C6.7474 69.4447 6.72393 69.6873 6.61626 69.899C6.14002 69.9045 5.66309 69.9017 5.18616 69.9038C5.6058 68.545 6.03304 67.1876 6.46097 65.8316V65.8316ZM7.12425 68.211C7.36444 68.2179 7.60532 68.2179 7.84552 68.211C7.73991 67.7904 7.62189 67.3718 7.48316 66.9601C7.35133 67.3732 7.23814 67.7924 7.12425 68.211Z" fill="black"/>
<path d="M10.213 65.8282C10.8811 65.8186 11.5492 65.8247 12.2173 65.8254C12.53 65.8364 12.8551 65.7993 13.1539 65.9134C13.5833 66.0612 13.9332 66.4179 14.0692 66.8488C14.1858 67.2598 14.1264 67.7265 13.869 68.0735C13.733 68.279 13.5211 68.411 13.3341 68.5636C13.5715 69.0213 13.8738 69.4433 14.1106 69.9017C13.6109 69.8997 13.1091 69.9155 12.6101 69.8948C12.3913 69.5079 12.2173 69.0962 11.9916 68.7141C11.8515 68.7038 11.71 68.7065 11.5699 68.7113C11.5451 69.1065 11.5706 69.5031 11.5547 69.899C11.1082 69.9079 10.6609 69.9017 10.2144 69.8983C10.1943 68.5423 10.1964 67.1835 10.213 65.8282V65.8282ZM11.5651 67.0172C11.5534 67.2419 11.554 67.468 11.5644 67.6935C11.8936 67.6907 12.2277 67.7223 12.5542 67.6749C12.8385 67.5753 12.8399 67.1306 12.5542 67.0323C12.2277 66.9904 11.8943 67.0165 11.5651 67.0172Z" fill="black"/>
<path d="M14.5018 65.8268C15.8678 65.822 17.2344 65.8186 18.5996 65.8309C18.6051 66.2234 18.6072 66.6158 18.5982 67.0082C18.171 67.024 17.7417 66.9993 17.3144 67.0213C17.2951 67.9801 17.32 68.9395 17.3027 69.8983C16.7961 69.8976 16.2874 69.9182 15.7822 69.888C15.776 68.9306 15.7898 67.9732 15.776 67.0165C15.3501 67.0014 14.9243 67.0241 14.4991 67.0069C14.4977 66.6137 14.4936 66.2199 14.5018 65.8268V65.8268Z" fill="black"/>
<path d="M28.0975 65.8282C28.5469 65.8254 28.9976 65.8151 29.4469 65.8296C29.9238 66.3766 30.3538 66.9636 30.8245 67.5169C30.8425 66.9547 30.8204 66.3911 30.8376 65.8289C31.2856 65.8213 31.7342 65.8213 32.1821 65.8261C32.1932 67.1808 32.1822 68.5361 32.1897 69.8914C31.739 69.912 31.2835 69.912 30.8328 69.8921C30.3559 69.3505 29.9369 68.7595 29.4586 68.2193C29.4289 68.778 29.4565 69.3389 29.442 69.8983C28.9948 69.9052 28.5469 69.9024 28.0989 69.8997C28.0865 68.543 28.0899 67.1849 28.0975 65.8282V65.8282Z" fill="black"/>
<path d="M34.9679 65.8241C35.422 65.8309 35.8796 65.8055 36.3324 65.8412C36.7907 66.3938 37.2159 66.9739 37.6949 67.5093C37.7066 66.9485 37.6907 66.3876 37.7038 65.8268C38.1497 65.8206 38.597 65.8199 39.0435 65.8302C39.049 67.1863 39.0518 68.5423 39.0421 69.8983C38.5976 69.9038 38.1525 69.9052 37.7087 69.8983C37.2145 69.3595 36.7962 68.754 36.3131 68.2048C36.2986 68.7684 36.3165 69.3326 36.3041 69.8962C35.8575 69.9058 35.4103 69.9058 34.9644 69.8955C34.961 68.5388 34.954 67.1808 34.9679 65.8241V65.8241Z" fill="black"/>
<path d="M39.6495 65.8289C40.8381 65.8172 42.028 65.8254 43.2172 65.8289C43.222 66.2234 43.2448 66.6213 43.1979 67.0137C42.4649 67.0158 41.7312 67.0048 40.9982 67.0213C40.994 67.1395 40.9975 67.2598 41.0099 67.3787C41.629 67.3993 42.2488 67.3697 42.8686 67.3897C42.8755 67.7203 42.8845 68.0522 42.8597 68.3821C42.2399 68.3931 41.6194 68.3739 41.0003 68.3924C40.994 68.5306 40.9927 68.6708 41.0051 68.8096C41.7422 68.8227 42.4801 68.8075 43.2179 68.8185C43.2234 69.178 43.2358 69.5395 43.2103 69.8983C42.0238 69.9031 40.8374 69.9051 39.6509 69.8976C39.6419 68.5416 39.6447 67.1849 39.6495 65.8289V65.8289Z" fill="black"/>
<path d="M43.6879 65.8302C45.0517 65.8158 46.4163 65.8268 47.7801 65.8275C47.776 66.2193 47.8215 66.6303 47.7497 67.0117C47.3328 67.0206 46.9153 67.0014 46.4991 67.0193C46.486 67.9787 46.506 68.9388 46.4894 69.8983C45.9835 69.8997 45.4762 69.9127 44.971 69.8914C44.9654 68.932 44.9799 67.9725 44.9647 67.0144C44.5382 66.9979 44.1103 67.0323 43.6851 66.9952C43.6748 66.6076 43.6679 66.2179 43.6879 65.8302V65.8302Z" fill="black"/>
<path d="M48.1294 65.8282C48.5836 65.8227 49.0384 65.8192 49.4926 65.8296C49.6244 66.4137 49.6996 67.011 49.848 67.5924C50.093 67.066 50.2808 66.5148 50.5327 65.9918C50.7653 66.5093 50.9489 67.0481 51.2001 67.5567C51.381 66.9966 51.4162 66.3966 51.568 65.8275C52.0194 65.8186 52.4708 65.8241 52.9222 65.8289C52.6689 67.1856 52.4101 68.5423 52.1429 69.8962C51.7695 69.9072 51.3954 69.9031 51.0227 69.899C50.8385 69.5471 50.7108 69.1684 50.5272 68.8165C50.3387 69.1684 50.2186 69.5533 50.0226 69.901C49.6548 69.9038 49.2855 69.9127 48.9183 69.8955C48.6367 68.5436 48.3917 67.1842 48.1294 65.8282V65.8282Z" fill="black"/>
<path d="M57.7252 65.8302C58.4072 65.8199 59.0898 65.8234 59.7724 65.8261C60.0968 65.8316 60.4364 65.8021 60.7421 65.9361C61.3198 66.1581 61.705 66.7773 61.6498 67.3917C61.5994 67.8838 61.2639 68.2976 60.8546 68.5546C61.0928 69.0158 61.3909 69.444 61.6401 69.8996C61.1383 69.901 60.6365 69.9065 60.1347 69.8983C59.9049 69.5189 59.7399 69.1038 59.5301 68.7141C59.3859 68.6838 59.2368 68.6955 59.0918 68.7024C59.0711 69.1017 59.1036 69.5024 59.076 69.9017C58.626 69.9038 58.1759 69.9045 57.7266 69.8983C57.7169 68.5423 57.7197 67.1862 57.7252 65.8302V65.8302ZM59.0884 67.0158C59.0808 67.2405 59.0808 67.4667 59.0884 67.6921C59.3845 67.7017 59.6813 67.7017 59.9781 67.6928C60.112 67.6873 60.2279 67.5849 60.2714 67.4625C60.3604 67.2708 60.1893 67.0186 59.9822 67.0158C59.684 67.0096 59.3859 67.0082 59.0884 67.0158V67.0158Z" fill="black"/>
<path d="M62.0866 65.8316C62.536 65.8144 62.9853 65.8268 63.4346 65.8289C63.4864 66.257 63.4319 66.699 63.4608 67.132C63.8232 66.7134 64.1221 66.244 64.4872 65.8282C65.0608 65.8172 65.635 65.8254 66.2093 65.8289C65.7047 66.4914 65.1484 67.1148 64.6459 67.778C65.1415 68.5045 65.7102 69.1794 66.212 69.901C65.6371 69.899 65.0621 69.9079 64.4879 69.8997C64.1248 69.4151 63.8204 68.888 63.4615 68.4007C63.4464 68.8955 63.4588 69.3918 63.4539 69.888C62.9998 69.9168 62.5422 69.9004 62.0873 69.8962C62.079 68.5416 62.0804 67.1863 62.0866 65.8316V65.8316Z" fill="black"/>
<path d="M67.1072 57.7063H70.443V61.028H67.1072V57.7063Z" fill="#F6E600"/>
<path d="M70.443 54.3846H73.7788V57.7063H70.443V54.3846Z" fill="#2E80C4"/>
<path d="M70.443 54.3846H67.1072V51.063H70.443V54.3846Z" fill="#D21280"/>
<path d="M33.5543 30H67.1072C67.1059 41.1326 67.1141 52.268 67.1072 63.4007C55.9232 63.4069 44.7377 63.4 33.5536 63.4007C33.555 52.2674 33.5529 41.1333 33.5536 30" fill="white"/>
<path d="M16.148 31.8612C19.0296 31.5492 22.0002 32.1045 24.5747 33.4316C27.1354 34.7498 29.3254 36.8096 30.7306 39.3217C27.9546 40.9017 25.1779 42.4804 22.4047 44.0646C21.778 43.0062 20.8048 42.143 19.6446 41.7086C18.2821 41.1766 16.7015 41.2461 15.3867 41.8832C14.3735 42.3677 13.5211 43.178 12.9869 44.1629C12.4968 45.0591 12.2752 46.0955 12.3491 47.112C12.454 48.4935 13.118 49.8261 14.1643 50.7402C15.5213 51.9416 17.507 52.3821 19.2449 51.8536C20.5736 51.4722 21.7076 50.5416 22.4075 49.3622C25.1772 50.9526 27.9595 52.5217 30.7299 54.1113C29.1011 57.0028 26.45 59.301 23.3696 60.5491C21.074 61.4852 18.5416 61.8268 16.0776 61.5574C13.8123 61.3175 11.6078 60.543 9.68698 59.3244C6.95653 57.6034 4.81483 54.9808 3.68013 51.9677C2.7801 49.5766 2.50885 46.954 2.90158 44.4302C3.24737 42.1828 4.12048 40.0193 5.43118 38.1574C6.7329 36.31 8.45221 34.7512 10.4365 33.6571C12.1924 32.6832 14.1471 32.0619 16.148 31.8612Z" fill="white"/>
<path d="M35.9645 32.3966C39.1546 32.3938 42.3454 32.3904 45.5355 32.3979C48.7443 36.367 51.924 40.3608 55.1342 44.3292C55.1397 40.3512 55.1349 36.3725 55.1425 32.3945C58.3326 32.3952 61.5227 32.3904 64.7128 32.3972C64.717 41.8392 64.7128 51.2811 64.7149 60.7237C64.7135 60.8206 64.7177 60.9196 64.708 61.0172C61.5655 61.022 58.423 61.0192 55.2812 61.0178C55.2363 61.013 55.1459 61.0041 55.1011 60.9993C51.9165 57.035 48.7353 53.068 45.5493 49.1051C45.5328 53.0749 45.5466 57.0447 45.5397 61.0144C42.3475 61.0282 39.1553 61.0261 35.9631 61.0172C35.9589 51.477 35.9603 41.9368 35.9645 32.3966V32.3966Z" fill="black"/>
</g>
<defs>
<clipPath id="clip0_103_15">
<rect width="100" height="40" fill="white" transform="translate(0 30)"/>
</clipPath>
</defs>
</svg>
