<svg width="100" height="100" viewBox="0 0 100 100" fill="none" xmlns="http://www.w3.org/2000/svg">
<g clip-path="url(#clip0_840_2922)">
<path d="M73.6152 17.4905C86.3704 30.144 86.3704 50.66 73.6152 63.314C60.8604 75.9676 40.1802 75.9676 27.425 63.314C14.6702 50.66 14.6702 30.144 27.425 17.4905C40.1802 4.83651 60.8604 4.83651 73.6152 17.4905Z" fill="#147A7F"/>
<path d="M27.2502 39.2104H45.339V63.2781H41.0155V43.2692H27.3047L27.2502 39.2104Z" fill="white"/>
<path d="M49.6085 39.2104V63.2509C49.6085 63.2509 73.6361 64.7985 74.6488 39.1291L70.0647 39.0747C70.0647 39.0747 71.2003 55.174 54.4933 58.5947V39.2238L49.6085 39.2104Z" fill="white"/>
<path d="M14 81.2181H21.5576V82.311H18.3871V90.8132H17.1722V82.311H14V81.2181ZM25.0345 90.8132L21.6234 81.2181H22.8853L25.716 89.2968L28.5518 81.2181H29.8085L26.4044 90.8132H25.0345Z" fill="#147A7F"/>
<path d="M41.6966 81.9565V83.326C41.2887 82.9192 40.8547 82.6149 40.3946 82.413C39.9344 82.2116 39.4446 82.1104 38.9252 82.1104C37.9047 82.1104 37.1234 82.4459 36.5809 83.1168C36.038 83.7877 35.7669 84.7573 35.7669 86.0252C35.7669 87.2888 36.038 88.2558 36.5809 88.9267C37.1234 89.5977 37.9047 89.9331 38.9252 89.9331C39.4446 89.9331 39.9344 89.8324 40.3946 89.6305C40.8547 89.4291 41.2887 89.1247 41.6966 88.7175V90.0749C41.2735 90.3827 40.8255 90.614 40.3527 90.7683C39.8795 90.9226 39.3802 91 38.8538 91C37.5012 91 36.4362 90.5556 35.6589 89.6668C34.8815 88.7772 34.4928 87.5633 34.4928 86.0252C34.4928 84.4828 34.8815 83.2672 35.6589 82.3784C36.4362 81.4888 37.5012 81.0435 38.8538 81.0435C39.388 81.0435 39.8917 81.1196 40.3649 81.2718C40.8377 81.4239 41.2818 81.6522 41.6966 81.9565V81.9565Z" fill="#147A7F"/>
<path d="M46.5604 82.496L44.9203 87.2719H48.2058L46.5604 82.496ZM45.8789 81.2181H47.2489L50.653 90.8132H49.3963L48.5823 88.3509H44.556L43.742 90.8132H42.4679L45.8789 81.2181ZM45.9975 78.5967H47.1217L48.3836 80.3051H47.5522L46.5587 79.1622L45.5669 80.3051H44.7355L45.9975 78.5967Z" fill="#147A7F"/>
<path d="M51.951 81.2181H53.7516L56.0314 87.7474L58.3234 81.2181H60.1239V90.8132H58.9457V82.3871L56.6414 88.9682H55.4266L53.1241 82.3871V90.8132H51.951V81.2181Z" fill="#147A7F"/>
<path d="M65.5147 82.496L63.8745 87.2719H67.1601L65.5147 82.496ZM64.8332 81.2181H66.2031L69.6072 90.8132H68.3505L67.5365 88.3509H63.5102L62.6962 90.8132H61.4221L64.8332 81.2181Z" fill="#147A7F"/>
<path d="M75.1403 86.314C75.3991 86.4086 75.6514 86.6105 75.8967 86.9192C76.1429 87.227 76.3891 87.6515 76.6357 88.1918L77.8628 90.8132H76.5643L75.4226 88.3509C75.1272 87.709 74.8409 87.2832 74.5633 87.0731C74.2853 86.8634 73.908 86.7584 73.4304 86.7584H72.1127V90.8132H70.9048V81.2181H73.6326C74.654 81.2181 75.4157 81.4477 75.9176 81.9063C76.4205 82.3641 76.6724 83.0558 76.6724 83.9813C76.6724 84.5857 76.5416 85.0871 76.2802 85.4857C76.0187 85.8834 75.6388 86.1596 75.1403 86.314ZM72.1127 82.285V85.6915H73.6326C74.2147 85.6915 74.6544 85.5471 74.952 85.2575C75.2492 84.9683 75.3982 84.5429 75.3982 83.9813C75.3982 83.4202 75.2492 82.997 74.952 82.7121C74.6544 82.4277 74.2147 82.285 73.6326 82.285H72.1127Z" fill="#147A7F"/>
<path d="M81.9079 82.496L80.2677 87.2719H83.5532L81.9079 82.496ZM81.2263 81.2181H82.5963L86.0004 90.8132H84.7437L83.9297 88.3509H79.9034L79.0894 90.8132H77.8153L81.2263 81.2181Z" fill="#147A7F"/>
</g>
<defs>
<clipPath id="clip0_840_2922">
<rect width="72" height="83" fill="white" transform="translate(14 8)"/>
</clipPath>
</defs>
</svg>
