<svg width="100" height="100" viewBox="0 0 100 100" fill="none" xmlns="http://www.w3.org/2000/svg">
<rect width="100" height="100" fill="#000105"/>
<g clip-path="url(#clip0_103_2)">
<path fill-rule="evenodd" clip-rule="evenodd" d="M49.2009 69.3853H97.397V21H49.2009V69.3853Z" fill="#FFFFFE"/>
<path fill-rule="evenodd" clip-rule="evenodd" d="M49.2009 69.3853H97.397V21H49.2009V69.3853Z" fill="#FFFFFE"/>
<path fill-rule="evenodd" clip-rule="evenodd" d="M1 69.3853H49.2009V21H1V69.3853Z" fill="#000105"/>
<path fill-rule="evenodd" clip-rule="evenodd" d="M33.1726 49.0491C32.4986 50.2386 31.5216 51.228 30.3411 51.9166C29.1607 52.6052 27.8189 52.9683 26.4526 52.9689C22.1763 52.9689 18.7065 49.4865 18.7065 45.1933C18.7065 40.8988 22.1763 37.4176 26.4526 37.4176C27.8188 37.4184 29.1603 37.7814 30.3407 38.4697C31.5211 39.1581 32.4982 40.1471 33.1726 41.3363L45.1334 34.479C41.4221 27.9781 34.4511 23.5919 26.4526 23.5919C14.5702 23.5919 4.93823 33.2634 4.93823 45.1933C4.93823 57.1231 14.5702 66.7958 26.4514 66.7958C34.4499 66.7958 41.4221 62.412 45.1322 55.91L33.1713 49.0503L33.1726 49.0491Z" fill="#FFFFFE"/>
<path fill-rule="evenodd" clip-rule="evenodd" d="M93.9538 65.9294V24.457H80.1831V41.7362L66.4113 24.457H52.6394V65.9294H66.4125V48.6491L80.1843 65.9294H93.9538Z" fill="#000105"/>
<path fill-rule="evenodd" clip-rule="evenodd" d="M73.5755 77.1718L74.2697 78.768H75.9056L77.032 72.8411H75.0508L74.5558 75.4439L73.5755 73.049L72.5891 75.4439L72.0977 72.8411H70.1177L71.2429 78.768H72.8752L73.5755 77.1718ZM69.6408 72.8411H63.7371V74.5691H65.5818V78.7656H67.7936V74.5703H69.6408V72.8411ZM80.2447 76.9156C79.9503 76.915 79.6682 76.7977 79.46 76.5893C79.2518 76.381 79.1346 76.0986 79.134 75.804C79.134 75.5099 79.2507 75.228 79.4584 75.02C79.6662 74.8121 79.9479 74.6953 80.2417 74.6953C80.5355 74.6953 80.8172 74.8121 81.025 75.02C81.2327 75.228 81.3494 75.5099 81.3494 75.804C81.3494 76.419 80.8556 76.9156 80.2447 76.9156V76.9156ZM80.2447 72.7179C79.4286 72.7198 78.6467 73.046 78.0707 73.6246C77.4948 74.2033 77.172 74.9872 77.1733 75.804C77.172 76.6208 77.4948 77.4046 78.0707 77.9833C78.6467 78.562 79.4286 78.8881 80.2447 78.8901C81.061 78.8885 81.8433 78.5625 82.4195 77.9837C82.9957 77.405 83.3186 76.621 83.3173 75.804C83.3186 74.987 82.9957 74.2029 82.4195 73.6242C81.8433 73.0455 81.061 72.7195 80.2447 72.7179V72.7179ZM57.098 78.7656V72.8411H55.1313V75.3098L53.1646 72.8411H51.1979V78.7656H53.1658V76.2982L55.1313 78.7656H57.098ZM63.0923 74.5703V72.8424H57.9299V78.7656H63.0923V77.1633H59.893V76.5676H62.601V75.085H59.893V74.5691L63.0923 74.5703ZM85.8696 74.5703H87.0974C87.2285 74.5703 87.3542 74.6223 87.447 74.7149C87.5398 74.8076 87.5921 74.9333 87.5924 75.0645C87.5915 75.1952 87.5389 75.3203 87.4462 75.4124C87.3535 75.5046 87.2281 75.5563 87.0974 75.5563H85.8696V74.5703V74.5703ZM89.5579 74.94C89.5579 73.8646 88.7104 72.8411 87.3473 72.8411H83.9017V78.7656H85.8696V77.0389H86.495L87.3594 78.7656H89.5579L88.3868 76.796C89.0726 76.4456 89.5579 75.7472 89.5579 74.94V74.94ZM96.133 72.8411H93.6073L92.1392 74.7829V72.8411H90.1737V78.7656H92.1392V76.5592L93.6073 78.7656H96.133L93.8415 75.6916L96.133 72.8411ZM11.2369 76.303L11.7548 74.4833L12.2728 76.303H11.2369ZM12.9827 78.7728H15.0749L13.229 72.846H10.2807L8.43349 78.7728H10.5342L10.8167 77.782H12.7001L12.9827 78.7728V78.7728ZM27.7252 72.846H21.8263V74.5751H23.6662V78.7728H25.884V74.5751H27.7252V72.846ZM6.72151 76.4057C6.58701 76.6371 6.38022 76.8178 6.133 76.92C5.88578 77.0222 5.61184 77.0402 5.35339 76.9713C5.09494 76.9023 4.86631 76.7502 4.70273 76.5384C4.53915 76.3266 4.44969 76.0668 4.44813 75.7991C4.44782 75.6389 4.47904 75.4801 4.54003 75.3319C4.60102 75.1837 4.69057 75.049 4.80358 74.9355C4.91658 74.8219 5.05083 74.7318 5.19865 74.6701C5.34647 74.6085 5.50498 74.5766 5.66511 74.5763C6.11906 74.5763 6.51023 74.8252 6.72151 75.195L8.32362 74.2682C8.0561 73.7958 7.6682 73.4029 7.19948 73.1295C6.73075 72.8561 6.19797 72.712 5.65545 72.7119C4.83989 72.7144 4.05869 73.0409 3.48347 73.6195C2.90825 74.1982 2.58605 74.9817 2.58766 75.7979C2.58655 76.2024 2.66506 76.603 2.8187 76.9771C2.97235 77.3511 3.19812 77.6912 3.48312 77.9779C3.76812 78.2646 4.10676 78.4923 4.4797 78.648C4.85264 78.8037 5.25258 78.8843 5.65666 78.8852C6.19908 78.8853 6.73183 78.7415 7.20057 78.4683C7.6693 78.1951 8.05725 77.8023 8.32483 77.3301L6.72151 76.4057ZM31.0453 76.9205C30.8997 76.9202 30.7556 76.8911 30.6211 76.8351C30.4867 76.779 30.3647 76.697 30.2619 76.5937C30.1592 76.4904 30.0777 76.3679 30.0223 76.2331C29.9669 76.0983 29.9385 75.954 29.9388 75.8082C29.9391 75.6625 29.9681 75.5182 30.0242 75.3837C30.0802 75.2491 30.1621 75.127 30.2653 75.0241C30.3685 74.9213 30.4909 74.8398 30.6256 74.7843C30.7603 74.7288 30.9045 74.7005 31.0502 74.7008C31.3443 74.7014 31.6261 74.819 31.8336 75.0275C32.0411 75.2361 32.1573 75.5187 32.1567 75.813C32.156 76.1074 32.0386 76.3894 31.8302 76.5971C31.6217 76.8048 31.3394 76.9211 31.0453 76.9205V76.9205ZM31.0453 72.7227C30.6412 72.7235 30.2413 72.804 29.8683 72.9595C29.4953 73.115 29.1565 73.3426 28.8714 73.6292C28.5863 73.9158 28.3604 74.2558 28.2066 74.6298C28.0528 75.0037 27.9742 75.4044 27.9751 75.8088C27.9735 76.6256 28.296 77.4096 28.8717 77.9885C29.4474 78.5674 30.2292 78.8939 31.0453 78.8961C31.4496 78.8953 31.8498 78.8148 32.223 78.6592C32.5962 78.5037 32.9352 78.276 33.2205 77.9894C33.5058 77.7027 33.7319 77.3625 33.8859 76.9884C34.0399 76.6143 34.1187 76.2134 34.1179 75.8088C34.1189 75.4042 34.0402 75.0033 33.8862 74.6292C33.7323 74.2551 33.5061 73.915 33.2208 73.6283C32.9354 73.3417 32.5964 73.1142 32.2231 72.9588C31.8498 72.8034 31.4496 72.7232 31.0453 72.7227V72.7227ZM37.6856 76.9205C37.5401 76.9202 37.3961 76.8911 37.2618 76.8351C37.1275 76.779 37.0056 76.697 36.903 76.5938C36.8004 76.4906 36.7191 76.3681 36.6639 76.2334C36.6086 76.0987 36.5804 75.9544 36.5809 75.8088C36.5809 75.5149 36.6975 75.2331 36.9051 75.0253C37.1128 74.8175 37.3944 74.7008 37.688 74.7008C37.9816 74.7008 38.2632 74.8175 38.4708 75.0253C38.6785 75.2331 38.7951 75.5149 38.7951 75.8088C38.7951 76.1034 38.6782 76.386 38.4702 76.5944C38.2622 76.8029 37.9799 76.9202 37.6856 76.9205V76.9205ZM37.6856 72.7227C37.2813 72.7234 36.8811 72.8037 36.5078 72.9591C36.1345 73.1146 35.7955 73.3421 35.51 73.6286C35.2246 73.9152 34.9984 74.2552 34.8442 74.6293C34.6901 75.0034 34.6111 75.4042 34.6117 75.8088C34.6108 76.626 34.934 77.4102 35.5103 77.9891C36.0867 78.5679 36.869 78.8942 37.6856 78.8961C38.5025 78.8948 39.2855 78.5689 39.8624 77.9899C40.4392 77.411 40.7628 76.6264 40.7618 75.8088C40.7624 75.404 40.6834 75.003 40.5291 74.6287C40.3748 74.2545 40.1483 73.9144 39.8627 73.6278C39.577 73.3412 39.2377 73.1137 38.8641 72.9584C38.4905 72.8031 38.0901 72.723 37.6856 72.7227V72.7227ZM47.2463 78.7728V72.8472H45.2796V75.3158L43.3117 72.8472H41.3462V78.7728H43.3129V76.3042L45.2808 78.7728H47.2463ZM17.6175 74.5739H18.8466C19.117 74.5739 19.3344 74.7962 19.3344 75.0693C19.3344 75.3412 19.117 75.5635 18.8466 75.5635H17.6175V74.5739V74.5739ZM21.3047 74.9449C21.3047 73.8694 20.4547 72.8472 19.0905 72.8472H15.6472V78.7728H17.6175V77.0449H18.2393L19.1038 78.7728H21.3047L20.1312 76.8033C20.8157 76.4504 21.3047 75.752 21.3047 74.9449V74.9449ZM98.0623 77.1513V77.4388H97.5818V78.7656H97.2425V77.4388H96.762V77.1525L98.0623 77.1513Z" fill="#FFFFFE"/>
<mask id="mask0_103_2" style="mask-type:alpha" maskUnits="userSpaceOnUse" x="98" y="77" width="2" height="2">
<path d="M98.2543 77.1525H99.8081V78.7656H98.2555L98.2543 77.1525Z" fill="white"/>
</mask>
<g mask="url(#mask0_103_2)">
<path fill-rule="evenodd" clip-rule="evenodd" d="M99.3276 77.1525H99.8093V78.7656H99.4954V77.6757C99.4954 77.6443 99.5002 77.6008 99.5002 77.5428V77.4098L99.1936 78.7656H98.8676L98.5658 77.4098V78.7656H98.2543V77.1525H98.7444L99.0366 78.4248L99.3264 77.1525H99.3276Z" fill="#FFFFFE"/>
</g>
</g>
<defs>
<clipPath id="clip0_103_2">
<rect width="99" height="58" fill="white" transform="translate(1 21)"/>
</clipPath>
</defs>
</svg>
