<svg width="100" height="100" viewBox="0 0 100 100" fill="none" xmlns="http://www.w3.org/2000/svg">
<path d="M18.424 24.0483C17.2531 24.2781 16.9357 24.3766 16.4651 24.6064C15.6553 25.0113 14.944 25.7445 14.5828 26.5325C14.2217 27.3313 14.1013 28.6993 14.3093 29.6951C14.4844 30.5049 15.141 31.5227 15.7976 31.9714C16.6949 32.5952 17.3844 32.7702 18.9712 32.825C21.2255 32.8906 22.4731 32.4967 23.458 31.3914C23.9395 30.8661 24.3882 29.8921 24.3882 29.3997V29.1261H22.8561C21.521 29.1261 21.324 29.148 21.324 29.3012C21.324 29.5857 20.6346 30.1876 20.175 30.3189C18.2708 30.8442 16.7059 29.6185 17.1436 27.9442C17.4281 26.9155 18.2599 26.434 19.6278 26.5215C20.4157 26.5653 20.7878 26.7732 21.1599 27.3532L21.3787 27.6925L22.8999 27.7034H24.421L24.3444 27.2438C24.235 26.5981 23.655 25.5585 23.1844 25.1864C22.5278 24.6611 21.6852 24.3 20.7987 24.1358C19.9999 23.9936 18.9055 23.9607 18.424 24.0483Z" fill="black"/>
<path d="M27.343 24.2343C27.343 24.2672 25.6468 31.9276 25.5373 32.3872L25.4717 32.6389L26.8724 32.6061L28.2623 32.5733L28.4264 31.7525L28.6015 30.9317L30.1117 30.8989C31.8298 30.8661 31.7095 30.7895 31.9393 31.9933L32.0597 32.628H33.4604H34.8612L33.92 28.4147L32.9898 24.2015H30.1664C28.6125 24.2015 27.343 24.2124 27.343 24.2343ZM31.0857 27.594C31.3702 29.0276 31.4578 28.9072 30.1336 28.9072C29.4989 28.9072 28.9845 28.8853 28.9845 28.8634C28.9845 28.8415 29.083 28.3381 29.2034 27.7581C29.3238 27.1781 29.4223 26.6747 29.4223 26.6419C29.4223 26.62 29.7506 26.6091 30.1555 26.6309L30.8887 26.6638L31.0857 27.594Z" fill="black"/>
<path d="M36.3165 28.4147V32.6279H37.6845H39.0524L39.0743 30.1656L39.1071 27.7034L41.1317 30.1656L43.1562 32.6279H44.5022H45.8374V28.4147V24.2015H44.5241H43.2109V26.609C43.2109 27.9332 43.1781 29.0166 43.1343 29.0056C43.0796 29.0056 42.1603 27.9222 41.0769 26.609L39.1071 24.2124H37.7173L36.3165 24.2015V28.4147Z" fill="black"/>
<path d="M49.23 24.2343C49.23 24.2672 47.5337 31.9276 47.4243 32.3872L47.3586 32.6389L48.7594 32.6061L50.1492 32.5733L50.3134 31.7525L50.4885 30.9317L52.0425 30.8989C53.8153 30.8661 53.5855 30.7238 53.8262 31.9933L53.9466 32.628H55.3474H56.7481L56.2338 30.297C55.9383 29.0276 55.5225 27.1234 55.3036 26.0838L54.8878 24.2015H52.0643C50.4994 24.2015 49.23 24.2124 49.23 24.2343ZM52.9726 27.594C53.2572 29.0276 53.3447 28.9072 52.0206 28.9072C51.3858 28.9072 50.8715 28.8853 50.8715 28.8634C50.8715 28.8415 50.97 28.3381 51.0904 27.7581C51.2107 27.1781 51.3092 26.6747 51.3092 26.6419C51.3092 26.62 51.6375 26.6091 52.0425 26.6309L52.7757 26.6638L52.9726 27.594Z" fill="black"/>
<path d="M58.313 28.4147V32.6279H62.1432H65.9734V31.3694V30.1109L63.5987 30.089L61.213 30.0562L61.1802 27.1234L61.1583 24.2015H59.7356H58.313V28.4147Z" fill="black"/>
<path d="M63.5878 36.4363C60.5018 36.7209 57.9738 36.9945 57.9738 37.0382C57.9738 37.0929 58.7946 38.0888 59.8123 39.2707C60.8191 40.4526 61.6399 41.4594 61.629 41.5032C61.5742 41.7002 55.818 49.0213 54.9315 50.0172C53.6949 51.4289 52.0206 53.0704 50.7621 54.121C50.193 54.6025 49.6458 55.0512 49.5583 55.1387C49.427 55.2591 50.4776 55.281 55.9055 55.281H62.4169L61.432 54.9418C60.1406 54.504 59.1667 53.924 58.3897 53.1033C56.8138 51.4508 56.7591 49.4591 58.2255 47.3142L58.5429 46.8545H62.3512H66.1596L68.8298 50.0938C70.2962 51.8776 71.6094 53.5082 71.7517 53.727C72.0362 54.1867 72.0143 54.7338 71.7079 55.0731C71.5219 55.281 71.686 55.281 78.6898 55.281H85.8578L84.8838 54.318C83.5925 53.0704 81.94 51.0787 75.2864 42.8054C70.5807 36.9397 69.749 35.9658 69.4973 35.9439C69.3332 35.9439 66.6739 36.1628 63.5878 36.4363ZM63.8395 44.053C64.715 45.0926 65.4263 46.0119 65.4263 46.0775C65.4263 46.1651 64.518 46.1979 62.2965 46.1979C59.5606 46.1979 59.1776 46.176 59.2323 46.0338C59.3418 45.7492 62.0995 42.1488 62.209 42.1488C62.2308 42.1488 62.9641 43.0024 63.8395 44.053Z" fill="black"/>
<path d="M14.7579 45.8696V55.3029L21.8493 55.2481C26.2048 55.2153 29.2033 55.1496 29.6411 55.073C31.7313 54.7229 33.2962 54.11 34.1717 53.3111C34.489 53.0157 34.8283 52.5342 35.0909 52.0198C35.4958 51.1881 35.4958 51.1772 35.4958 49.8202C35.4958 48.5288 35.4739 48.3975 35.1894 47.8175C34.686 46.7998 33.7668 46.1541 32.3113 45.8039C31.195 45.5413 31.1731 45.5303 31.8298 45.3662C33.2415 44.9941 34.1498 44.3594 34.6532 43.4182C34.9268 42.9039 34.9486 42.7616 34.9486 41.4922C34.9486 40.2227 34.9268 40.0805 34.6422 39.4676C34.1169 38.3405 33.2852 37.6729 31.8188 37.1805C29.9913 36.5676 29.5316 36.5348 21.8493 36.491L14.7579 36.4363V45.8696ZM27.4743 41.1529C27.7041 41.2295 28.0214 41.4046 28.1856 41.5469C28.4482 41.7658 28.492 41.8862 28.492 42.4005C28.492 43.1009 28.3607 43.2979 27.6712 43.6152C27.2116 43.8232 26.949 43.845 24.0927 43.8779L20.9957 43.9216V42.499C20.9957 41.722 21.0285 41.0545 21.0833 41.0107C21.2036 40.8794 27.0037 41.0107 27.4743 41.1529ZM27.7478 47.6205C27.9886 47.6971 28.3388 47.8941 28.5139 48.0802C28.7656 48.3428 28.8203 48.496 28.8203 48.9338C28.8203 49.5904 28.5358 50.0062 27.9448 50.2141C27.2663 50.4549 25.2965 50.5862 23.075 50.5534L21.0504 50.5206L21.0176 48.9447L20.9848 47.3798L24.1365 47.4345C26.1063 47.4673 27.4633 47.533 27.7478 47.6205Z" fill="black"/>
<path d="M36.8639 45.8696V55.281H39.3809H41.8979V51.9323V48.5727L42.3575 48.6383C42.6092 48.6711 42.9375 48.7915 43.0907 48.9119C43.6598 49.3278 43.7036 49.5357 43.7364 52.5123L43.7802 55.281H46.2972H48.8142L48.7704 52.7859C48.7266 50.5206 48.7047 50.247 48.4859 49.6779C47.9715 48.3866 46.7677 47.4783 45.1153 47.1281C44.7213 47.0515 44.3711 46.964 44.3492 46.9421C44.3273 46.9092 44.6666 46.8108 45.1043 46.7123C45.5311 46.6028 46.3409 46.2964 46.8881 46.0338C49.0878 44.9723 50.0836 43.1009 49.6787 40.7809C49.5036 39.785 49.1315 39.019 48.5077 38.4062C47.0632 36.9507 44.7213 36.4582 39.3043 36.4582H36.8639V45.8696ZM43.3205 41.5141C44.1851 41.7768 44.5572 42.2802 44.5572 43.1885C44.5572 44.3813 43.9005 44.9832 42.3137 45.2787L41.8979 45.3443V43.3854C41.8979 42.302 41.9307 41.3828 41.9745 41.35C42.0511 41.2624 42.7843 41.35 43.3205 41.5141Z" fill="black"/>
<path d="M57.8425 56.8131C56.7263 57.0101 55.9602 57.601 55.621 58.5312C55.5444 58.7611 55.4787 59.4067 55.4678 59.9977C55.4678 60.9279 55.5006 61.103 55.7742 61.6392C56.3542 62.7883 57.547 63.2479 59.6263 63.1275C61.3006 63.04 62.3184 62.449 62.7014 61.3437C62.8984 60.7965 62.8984 59.0675 62.7014 58.5312C62.5154 57.995 62.001 57.4041 61.4976 57.1414C60.7097 56.7475 59.1229 56.6052 57.8425 56.8131Z" fill="black"/>
<path d="M24.5633 57.0319C18.8071 57.3274 15.7101 58.2248 14.5938 59.921C14.1123 60.6433 13.9482 61.3327 14.0138 62.3286C14.1233 64.0357 15.1629 64.9878 17.7237 65.721C20.1203 66.4105 23.6331 66.7169 33.2525 67.0999C41.2631 67.4173 43.5065 67.7456 43.408 68.5992C43.2876 69.6279 41.0004 69.8905 33.2087 69.803C30.44 69.7701 27.5728 69.6935 26.8505 69.6279C23.4362 69.3214 20.0218 68.8728 16.695 68.2928C15.6772 68.1177 14.8236 67.9754 14.8018 67.9754C14.7799 67.9754 14.758 69.5184 14.758 71.4007V74.826L17.4063 75.1872C25.4935 76.2596 32.2894 76.6645 37.9691 76.4128C45.5858 76.0736 48.7265 75.0668 49.8756 72.5717C50.2586 71.729 50.2696 70.2735 49.8975 69.4309C49.2737 68.0301 47.6431 67.2422 44.4148 66.7716C42.4778 66.498 40.705 66.3777 34.511 66.115C24.6181 65.6882 22.4403 65.5131 21.1818 64.9878C20.2954 64.6158 20.6237 63.8607 21.8165 63.5433C23.3377 63.1493 30.4509 63.0618 35.0034 63.3791C38.5929 63.6308 43.4955 64.178 47.0412 64.7252L48.628 64.9769L48.6609 61.8033C48.6718 60.0633 48.6718 58.6187 48.639 58.5968C48.5295 58.4765 42.2152 57.7104 38.9978 57.4149C34.4234 56.9991 28.3936 56.8459 24.5633 57.0319Z" fill="black"/>
<path d="M68.9281 66.6622V76.0736H77.464H85.9999V73.1189V70.1641L80.7252 70.1422L75.4395 70.1094L75.4066 63.6746L75.3848 57.2508H72.1564H68.9281V66.6622Z" fill="black"/>
<path d="M51.6375 66.7717V69.0698L54.1873 69.0917L56.7262 69.1245V70.2188V71.3132L54.1873 71.346L51.6375 71.3679V73.7208V76.0736H59.2979H66.9583V73.7208V71.3679L64.4194 71.346L61.8696 71.3132L61.8368 67.8879L61.8149 64.4735H56.7262H51.6375V66.7717Z" fill="black"/>
</svg>
