<svg width="100" height="100" viewBox="0 0 100 100" fill="none" xmlns="http://www.w3.org/2000/svg">
<g clip-path="url(#clip0_840_2241)">
<path fill-rule="evenodd" clip-rule="evenodd" d="M83.5771 51.323L80.0515 63.6429H82.5931L82.9622 62.0724H86.2421L86.5704 63.6429H89.1528L85.5862 51.323H83.5771ZM84.6022 54.6717C84.6022 54.8373 84.6365 55.0852 84.7046 55.4163C84.7735 55.7466 84.8344 56.0501 84.8896 56.3255L85.7096 59.922H83.4547L84.3155 56.3255C84.3699 56.0501 84.4315 55.7466 84.4996 55.4163C84.5684 55.0852 84.6022 54.8373 84.6022 54.6717Z" fill="black"/>
<path fill-rule="evenodd" clip-rule="evenodd" d="M71.8111 51.2819V63.6429H74.271V59.7152H75.3367L76.9767 63.6429H79.3958L77.6733 59.2195C78.193 58.861 78.6166 58.3717 78.9449 57.7516C79.2724 57.1314 79.4366 56.4215 79.4366 55.6229V55.333C79.4366 54.1759 79.0883 53.211 78.3908 52.439C77.6942 51.667 76.799 51.2819 75.706 51.2819H71.8111ZM74.271 53.5969H75.4601C75.8973 53.5969 76.2665 53.7416 76.5668 54.0306C76.867 54.3205 77.0175 54.7678 77.0175 55.3742V55.4575C77.0175 56.1463 76.867 56.6428 76.5668 56.9456C76.2665 57.2484 75.8973 57.4002 75.4601 57.4002H74.271V53.5969Z" fill="black"/>
<path fill-rule="evenodd" clip-rule="evenodd" d="M78.3708 36.3982V48.7592H82.3065C82.9351 48.7592 83.5156 48.6357 84.0489 48.3878C84.5822 48.1391 85.0258 47.7952 85.3814 47.3543C85.7369 46.9126 86.0172 46.3546 86.2222 45.6796C86.4271 45.0045 86.5296 44.2809 86.5296 43.509V41.2762C86.5296 40.5875 86.4271 39.94 86.2222 39.3335C86.0172 38.7271 85.7369 38.203 85.3814 37.7621C85.0258 37.3212 84.5822 36.9837 84.0489 36.7496C83.5156 36.5154 82.9351 36.3982 82.3065 36.3982H78.3708ZM80.8307 38.7133H82.0198C82.3745 38.7133 82.6756 38.7682 82.9214 38.8789C83.1673 38.9887 83.3722 39.1543 83.5364 39.3747C83.7278 39.6226 83.8648 39.9125 83.9464 40.2428C84.0281 40.5738 84.0697 40.9461 84.0697 41.3595V43.3434C84.0697 43.8675 84.0281 44.3286 83.9464 44.7283C83.8648 45.128 83.7278 45.4656 83.5364 45.7417C83.3722 45.9622 83.1673 46.1415 82.9214 46.2787C82.6756 46.4168 82.3745 46.4853 82.0198 46.4853H80.8307V38.7133Z" fill="black"/>
<path fill-rule="evenodd" clip-rule="evenodd" d="M50.6145 36.2327C50.0412 36.2327 49.5424 36.3085 49.1188 36.4595C48.6952 36.6113 48.3052 36.8117 47.9497 37.0596C47.4308 37.528 47.0209 38.1481 46.7198 38.92C46.4195 39.692 46.2689 40.6561 46.2689 41.814V43.3022C46.2689 44.4876 46.4195 45.4801 46.7198 46.2787C47.0209 47.0781 47.4308 47.6845 47.9497 48.0979C48.3052 48.3741 48.6952 48.5872 49.1188 48.739C49.5424 48.8909 50.0412 48.966 50.6145 48.966C51.1342 48.966 51.6058 48.8909 52.0294 48.739C52.453 48.5872 52.8423 48.3741 53.1979 48.0979C53.7448 47.6845 54.1547 47.0781 54.4278 46.2787C54.7008 45.4801 54.8377 44.5013 54.8377 43.3434V41.814C54.8377 40.6561 54.7008 39.692 54.4278 38.92C54.1547 38.1481 53.7448 37.528 53.1979 37.0596C52.8423 36.8117 52.453 36.6113 52.0294 36.4595C51.6058 36.3085 51.1342 36.2327 50.6145 36.2327ZM50.6145 38.5478C50.8612 38.5478 51.0799 38.5889 51.2712 38.6721C51.4626 38.7545 51.626 38.8788 51.7629 39.0435C51.9543 39.2639 52.1048 39.6023 52.2137 40.057C52.3234 40.5116 52.3779 41.1244 52.3779 41.8964V43.3022C52.3779 44.0742 52.3234 44.6807 52.2137 45.1216C52.1048 45.5625 51.9543 45.8935 51.7629 46.1139C51.626 46.3069 51.4554 46.4515 51.2504 46.5476C51.0454 46.6445 50.8331 46.6921 50.6145 46.6921C50.3415 46.6921 50.0957 46.6445 49.8771 46.5476C49.6585 46.4515 49.4807 46.3069 49.3438 46.1139C49.1524 45.8935 49.0026 45.5625 48.8929 45.1216C48.7832 44.6807 48.7289 44.0742 48.7289 43.3022V41.8964C48.7289 41.1244 48.7832 40.5116 48.8929 40.057C49.0026 39.6023 49.1524 39.2639 49.3438 39.0435C49.4807 38.8788 49.6585 38.7545 49.8771 38.6721C50.0957 38.5889 50.3415 38.5478 50.6145 38.5478V38.5478Z" fill="black"/>
<path fill-rule="evenodd" clip-rule="evenodd" d="M89.9728 51.2819V63.6429H96V61.369H92.4327V51.2819H89.9728Z" fill="black"/>
<path fill-rule="evenodd" clip-rule="evenodd" d="M65.7838 53.597V63.6429H68.2029V53.597H70.4986V51.2819H63.4881V53.597H65.7838Z" fill="black"/>
<path fill-rule="evenodd" clip-rule="evenodd" d="M54.551 51.2819V63.6429H56.7643V56.491L60.0858 63.6429H62.2582V51.2819H60.0033V58.517L56.6826 51.2819H54.551Z" fill="black"/>
<path fill-rule="evenodd" clip-rule="evenodd" d="M46.5148 51.2819V63.6429H52.747V61.369H48.9747V58.517H52.1728V56.2011H48.9747V53.597H52.747V51.2819H46.5148Z" fill="black"/>
<path fill-rule="evenodd" clip-rule="evenodd" d="M40.1192 53.9692C40.2561 53.7762 40.4267 53.6454 40.6317 53.576C40.8366 53.5073 41.0625 53.4726 41.3083 53.4726C41.6366 53.4726 41.9577 53.5558 42.2716 53.7205C42.5863 53.886 42.8385 54.2171 43.0299 54.7129L45.2031 53.8037C44.8476 52.8662 44.3215 52.1774 43.6248 51.7365C42.9274 51.2956 42.1555 51.0752 41.3083 51.0752C40.7886 51.0752 40.3041 51.1575 39.8525 51.3231C39.4017 51.4886 39.0125 51.709 38.6842 51.9844C38.1654 52.4253 37.7618 53.0317 37.4751 53.8037C37.1876 54.5756 37.0443 55.5398 37.0443 56.6977V58.2271C37.0443 59.4125 37.1876 60.3912 37.4751 61.1623C37.7618 61.9343 38.1654 62.5407 38.6842 62.9816C39.0125 63.2578 39.4017 63.4645 39.8525 63.6017C40.3041 63.7398 40.7886 63.8085 41.3083 63.8085C42.2099 63.8085 42.9962 63.5953 43.6657 63.1681C44.3351 62.741 44.8476 62.0998 45.2031 61.2455L43.0299 60.2531C42.8385 60.7489 42.5927 61.08 42.2924 61.2455C41.9913 61.411 41.6638 61.4934 41.3083 61.4934C41.0625 61.4934 40.8366 61.4587 40.6317 61.39C40.4267 61.3214 40.2561 61.1906 40.1192 60.9976C39.9278 60.8046 39.7781 60.4808 39.6684 60.0254C39.5587 59.5708 39.5042 58.9579 39.5042 58.1859V56.8213C39.5042 55.9944 39.5587 55.3605 39.6684 54.9196C39.7781 54.4787 39.9278 54.1622 40.1192 53.9692V53.9692Z" fill="black"/>
<path fill-rule="evenodd" clip-rule="evenodd" d="M21.5475 52.1499C21.1919 52.8113 20.6795 53.3418 20.01 53.7415C19.3398 54.1412 18.6087 54.3407 17.816 54.3407C16.6413 54.3407 15.6364 53.9208 14.8028 53.0802C13.9692 52.2396 13.5528 51.2262 13.5528 50.0416C13.5528 48.8562 13.9692 47.8363 14.8028 46.982C15.6364 46.1277 16.6413 45.7005 17.816 45.7005C18.6087 45.7005 19.3398 45.9137 20.01 46.3409C20.6795 46.768 21.1919 47.2985 21.5475 47.9324L24.8682 46.0308C24.1843 44.7905 23.2146 43.7916 21.9574 43.0334C20.6995 42.276 19.3198 41.8964 17.816 41.8964C16.723 41.8964 15.6844 42.1104 14.7003 42.5376C13.7162 42.9647 12.8626 43.5437 12.1379 44.2737C11.414 45.0045 10.8399 45.8652 10.4163 46.8577C9.99271 47.8501 9.78052 48.9111 9.78052 50.0416C9.78052 51.1713 9.99271 52.2323 10.4163 53.2247C10.8399 54.2171 11.414 55.0779 12.1379 55.8087C12.8626 56.5394 13.7162 57.1176 14.7003 57.5448C15.6844 57.9719 16.723 58.1859 17.816 58.1859C19.2926 58.1859 20.6658 57.7999 21.9366 57.028C23.2074 56.2568 24.1843 55.2644 24.8682 54.0516L21.5475 52.1499Z" fill="#F8BA0F" fill-opacity="0.941176"/>
<path fill-rule="evenodd" clip-rule="evenodd" d="M61.0282 48.7593H63.0373L64.8414 42.0208L65.6205 48.7593H67.8754L66.4813 36.3982H64.1856L62.0532 44.1703L59.9216 36.3982H57.5842L56.1493 48.7593H58.4458L59.1833 42.0208L61.0282 48.7593Z" fill="black"/>
<path fill-rule="evenodd" clip-rule="evenodd" d="M69.802 36.3982V48.7593H76.28V46.4854H72.2211V43.6333H75.7876V41.2763H72.2211V38.7133H76.28V36.3982H69.802Z" fill="black"/>
<path fill-rule="evenodd" clip-rule="evenodd" d="M89.9727 42.8065V48.7593H92.4326V42.8065L95.8766 36.3982H93.2118L91.1619 40.2839L89.1944 36.3982H86.5295L89.9727 42.8065Z" fill="black"/>
<path fill-rule="evenodd" clip-rule="evenodd" d="M40.1192 39.0436C40.2561 38.8789 40.4267 38.7545 40.6317 38.6721C40.8366 38.589 41.0625 38.5478 41.3083 38.5478C41.6366 38.5478 41.9577 38.6374 42.2716 38.8167C42.5863 38.9959 42.8385 39.3472 43.0299 39.8705L45.2031 38.8789C44.8476 37.9414 44.3215 37.2663 43.6248 36.8529C42.9274 36.4394 42.1555 36.2327 41.3083 36.2327C40.7886 36.2327 40.3041 36.3086 39.8525 36.4596C39.4017 36.6114 39.0125 36.8117 38.6842 37.0596C38.1654 37.5279 37.7618 38.1481 37.4751 38.92C37.1876 39.692 37.0443 40.6561 37.0443 41.8141V43.3023C37.0443 44.4877 37.1876 45.4801 37.4751 46.2787C37.7618 47.0781 38.1654 47.6845 38.6842 48.098C39.0125 48.3741 39.4017 48.5873 39.8525 48.7391C40.3041 48.8909 40.7886 48.966 41.3083 48.966C42.2099 48.966 42.9962 48.7528 43.6657 48.3257C44.3351 47.8985 44.8476 47.2436 45.2031 46.3619L43.0299 45.4106C42.8385 45.879 42.5927 46.2101 42.2924 46.403C41.9913 46.596 41.6638 46.6921 41.3083 46.6921C41.0625 46.6921 40.8366 46.6445 40.6317 46.5476C40.4267 46.4515 40.2561 46.3069 40.1192 46.114C39.9278 45.8935 39.7781 45.5624 39.6684 45.1216C39.5587 44.6807 39.5042 44.0742 39.5042 43.3023V41.8964C39.5042 41.1245 39.5587 40.5116 39.6684 40.057C39.7781 39.6024 39.9278 39.264 40.1192 39.0436Z" fill="black"/>
<path fill-rule="evenodd" clip-rule="evenodd" d="M33.6828 49.9584C33.6828 52.1637 33.2656 54.2446 32.4321 56.2019C31.5985 58.1585 30.471 59.8607 29.0497 61.3077C27.6284 62.7547 25.9476 63.8981 24.0074 64.7387C22.0664 65.5793 20.0029 66 17.8161 66C14.8645 66 12.1652 65.2418 9.71892 63.7261C7.27264 62.2104 5.36687 60.2256 4 57.7725L7.32069 55.9532C8.33203 57.7725 9.78058 59.247 11.6663 60.3774C13.5529 61.5071 15.6028 62.0724 17.8161 62.0724C19.456 62.0724 21.0142 61.755 22.49 61.1211C23.9658 60.4873 25.2438 59.6265 26.3232 58.5372C27.4034 57.4487 28.2642 56.1672 28.9064 54.6927C29.5486 53.2182 29.8697 51.6404 29.8697 49.9584V50.0416C29.8697 48.3596 29.5486 46.7817 28.9064 45.3073C28.2642 43.8328 27.4034 42.5513 26.3232 41.4628C25.2438 40.3735 23.9658 39.5127 22.49 38.8789C21.0142 38.245 19.456 37.9276 17.8161 37.9276C15.6028 37.9276 13.5529 38.4929 11.6663 39.6225C9.78058 40.753 8.33203 42.2275 7.32069 44.0468L4 42.2275C5.36687 39.7744 7.27264 37.7895 9.71892 36.2739C12.1652 34.7582 14.8645 34 17.8161 34C20.0029 34 22.0664 34.4207 24.0074 35.2613C25.9476 36.1019 27.6284 37.2453 29.0497 38.6923C30.471 40.1393 31.5985 41.8415 32.4321 43.7981C33.2656 45.7554 33.6828 47.8363 33.6828 50.0416V49.9584Z" fill="#F8BA0F" fill-opacity="0.941176"/>
</g>
<defs>
<clipPath id="clip0_840_2241">
<rect width="92" height="32" fill="white" transform="translate(4 34)"/>
</clipPath>
</defs>
</svg>
