<svg width="100" height="100" viewBox="0 0 100 100" fill="none" xmlns="http://www.w3.org/2000/svg">
<g clip-path="url(#clip0_837_389)">
<path fill-rule="evenodd" clip-rule="evenodd" d="M72.6576 20.9999H94L76.2298 48.7351L93.887 78.996H72.506L64.9456 65.6336L57.9459 78.996H35.525L54.091 48.8032L54.0463 48.6453L52.8729 46.9319L51.7221 45.1951L35.4341 20.9999H57.9311L64.9905 33.8981L71.9306 20.9999" fill="#E72C2D"/>
<path fill-rule="evenodd" clip-rule="evenodd" d="M6 21H49.4497C49.4351 26.4418 49.48 31.9437 49.4275 37.3481H25.63C25.6127 37.353 25.6042 37.3672 25.608 37.393V44.3156C32.1122 44.3679 37.9633 44.3232 44.5057 44.3384C44.5193 44.3392 44.5326 44.3411 44.5287 44.3603V60.1452H25.608C25.5928 66.4209 25.6376 72.7576 25.585 78.996C18.8621 78.9809 12.6857 79.0266 6 78.9734V21Z" fill="#E72C2D"/>
</g>
<defs>
<clipPath id="clip0_837_389">
<rect width="88" height="58" fill="white" transform="translate(6 21)"/>
</clipPath>
</defs>
</svg>
