<svg width="100" height="100" viewBox="0 0 100 100" fill="none" xmlns="http://www.w3.org/2000/svg">
<g clip-path="url(#clip0_841_181)">
<path fill-rule="evenodd" clip-rule="evenodd" d="M79.4045 41.8779V51.9584L70.5956 42.2646C70.4247 42.0719 70.335 41.8779 69.9408 41.8779H66.9202V58.0971L70.8114 58.0967V47.8596L79.5948 57.6802C79.8333 57.9252 79.9366 58.0967 80.2947 58.0967H83.3333V41.8779H79.4045ZM49.9998 45.0027H55.6397V58.0971H59.6641V45.0027H65.2091V41.8779H49.9998V45.0027ZM48.9223 49.8831H45.3737V54.3469C45.3737 54.3469 44.1314 54.9331 42.5285 54.9331C38.9181 54.9331 36.94 52.85 36.94 50.1209C36.94 47.3096 38.8595 45.0648 42.626 45.0648C45.0539 45.0648 47.1272 46.0071 47.1272 46.0071L48.7464 43.094C48.7464 43.094 45.9395 41.6667 42.4268 41.6667C36.605 41.6667 32.8395 45.4061 32.8395 50.0515C32.8395 54.8884 36.832 58.3236 42.2716 58.3236C46.767 58.3236 49.1125 56.4304 49.1125 56.4304V50.0619C49.1125 49.9554 49.0266 49.8831 48.9223 49.8831ZM31.1483 53.609L32.351 56.7306C32.351 56.7306 29.6027 58.3334 26.0679 58.3334C19.8879 58.3334 16.6666 54.3169 16.6666 50.0704C16.6666 45.8109 19.9738 41.6717 26.2331 41.6717C29.6739 41.6717 32.231 43.1338 32.231 43.1338L30.5945 46.0819C30.5945 46.0819 28.712 45.06 26.4475 45.06C22.94 45.06 20.7585 47.1881 20.7585 50.0327C20.7585 52.6815 22.7666 54.9298 26.3539 54.9298C28.9189 54.9298 31.1483 53.609 31.1483 53.609Z" fill="#BFAE62"/>
</g>
<defs>
<clipPath id="clip0_841_181">
<rect width="100" height="100" fill="white"/>
</clipPath>
</defs>
</svg>
