<svg width="100" height="100" viewBox="0 0 100 100" fill="none" xmlns="http://www.w3.org/2000/svg">
<g clip-path="url(#clip0_836_152)">
<path d="M53.705 58.1239H53.0733V42.996H33.8315V58.1239H33.2129V29.2987H33.8446V42.3999H53.0733V29.2987H53.705V58.1239ZM55.3107 61.2502H60.0751V60.6806H59.7592C59.2419 60.6726 58.7383 60.5114 58.3115 60.2169C57.9955 59.9916 57.74 59.691 57.5677 59.3419C57.3955 58.9928 57.3119 58.6062 57.3244 58.2167V57.7V29.5637C57.3222 29.1925 57.4111 28.8266 57.5833 28.4984C57.7556 28.1703 58.0057 27.89 58.3115 27.6826C58.7383 27.3882 59.2419 27.2269 59.7592 27.219H60.0751V26.6494H46.7164V27.219H47.0323C47.5496 27.2269 48.0532 27.3882 48.48 27.6826C48.7877 27.8912 49.039 28.1736 49.2113 28.5043C49.3836 28.8349 49.4715 29.2035 49.4671 29.5769V30.173V38.9557H37.464V30.173V29.5769C37.466 29.2018 37.5594 28.8329 37.7361 28.5026C37.9128 28.1723 38.1674 27.8908 38.4774 27.6826C38.9042 27.3882 39.4078 27.2269 39.9252 27.219H40.241V26.6494H26.8428V27.219H27.1587C27.6806 27.2243 28.1891 27.3857 28.6196 27.6826C28.923 27.8925 29.1712 28.1733 29.3431 28.5009C29.5151 28.8285 29.6055 29.1932 29.6067 29.5637V57.7V58.2167C29.6192 58.6062 29.5356 58.9928 29.3634 59.3419C29.1911 59.691 28.9356 59.9916 28.6196 60.2169C28.1891 60.5138 27.6806 60.6752 27.1587 60.6806H26.8428V61.2502H40.2015V60.6806H39.8857C39.3683 60.6726 38.8647 60.5114 38.4379 60.2169C38.1458 60.0205 37.9041 59.7573 37.7325 59.4488C37.5609 59.1402 37.4644 58.7952 37.4508 58.4419V46.4137H49.4671V58.4419C49.461 58.8004 49.3678 59.152 49.1958 59.466C49.0237 59.78 48.778 60.0469 48.48 60.2434C48.0532 60.5378 47.5496 60.6991 47.0323 60.7071H46.7164V61.2767L55.3107 61.2502Z" fill="url(#paint0_linear_836_152)"/>
<path d="M72.1571 51.9907C71.2753 55.2361 70.6304 58.7731 69.9855 61.2635H46.7164V60.1375C49.8224 57.0775 53.218 53.7128 56.1004 50.2288C60.1409 45.3275 62.5494 40.7308 62.5494 36.1341C62.5494 32.0011 60.4962 28.8749 56.2715 28.8749C52.5205 28.8749 50.112 31.405 48.3747 33.9484L47.1507 33.0079C48.2655 31.122 49.5568 29.3477 51.007 27.7091C52.0671 26.5434 53.3561 25.6118 54.7924 24.9733C56.2287 24.3348 57.7811 24.0034 59.3512 24C65.1027 24 69.8802 27.7356 69.8802 34.1074C69.8802 38.9425 67.3664 42.5456 61.6808 47.9769L54.271 55.1699H64.5236C68.1035 55.1699 68.7484 55.0507 70.9726 51.5138L72.1571 51.9907Z" fill="url(#paint1_linear_836_152)"/>
<path d="M53.705 58.124H53.0733V47.288H49.4671V58.4419C49.461 58.8004 49.3678 59.152 49.1958 59.466C49.0237 59.7801 48.778 60.047 48.48 60.2435C48.0532 60.5379 47.5496 60.6991 47.0322 60.7071H46.7164V61.2767H60.0751V60.7071H59.7592C59.2418 60.6991 58.7383 60.5379 58.3115 60.2435C57.9955 60.0181 57.74 59.7175 57.5677 59.3684C57.3954 59.0194 57.3118 58.6327 57.3244 58.2432V57.7266V47.288H53.705V58.124Z" fill="url(#paint2_linear_836_152)"/>
<path d="M70.92 51.5138C68.6957 55.0507 68.0508 55.1699 64.471 55.1699H51.6387C49.9935 56.892 48.322 58.5479 46.7164 60.1243V61.2502H69.9855C70.6304 58.7731 71.3017 55.2362 72.1571 51.9774L70.92 51.5138Z" fill="url(#paint3_linear_836_152)"/>
<path d="M75 65.0653H24V64.2705H75V65.0653Z" fill="#CD3937"/>
<path d="M24.2896 68.0856H26.1716V71.4768H29.633V68.0856H31.5151V76.8286H29.633V73.2652H26.1716V76.8286H24.2896V68.0856Z" fill="black"/>
<path d="M35.0291 68.0856V76.8286H33.2129V68.0856H35.0291Z" fill="black"/>
<path d="M37.8983 73.9805C38.0167 74.3353 38.2405 74.645 38.5395 74.8677C38.8384 75.0904 39.198 75.2153 39.5698 75.2257C40.1752 75.2257 40.6885 74.921 40.6885 74.3514C40.6885 73.7818 40.3989 73.6493 39.7804 73.4241L38.7406 73.0134C38.1823 72.7953 37.7145 72.392 37.4146 71.8702C37.1147 71.3484 37.0006 70.7392 37.0911 70.1433C37.1816 69.5474 37.4713 69.0003 37.9124 68.5925C38.3534 68.1847 38.9195 67.9404 39.5171 67.9001C40.133 67.9025 40.735 68.0837 41.251 68.4221C41.767 68.7605 42.1749 69.2416 42.4258 69.8077L40.8728 70.7085C40.7759 70.4255 40.6004 70.1765 40.3671 69.991C40.1338 69.8055 39.8525 69.6913 39.5566 69.662C38.9907 69.662 38.5959 69.9799 38.5959 70.4303C38.5959 70.8807 38.8986 71.0926 39.4382 71.2913L40.57 71.7285C41.952 72.2584 42.6232 73.0532 42.6232 74.2322C42.6141 74.6211 42.5255 75.004 42.363 75.3569C42.2005 75.7099 41.9676 76.0255 41.6787 76.2839C41.3898 76.5424 41.0511 76.7382 40.6838 76.8593C40.3164 76.9803 39.9283 77.024 39.5435 76.9875C38.8495 77.0108 38.1655 76.8169 37.5856 76.4326C37.0058 76.0483 36.5586 75.4924 36.3058 74.8415L37.8983 73.9805Z" fill="black"/>
<path d="M43.3471 68.0856H49.7961V69.8342H47.5192V76.8286H45.6372V69.8342H43.3471V68.0856Z" fill="black"/>
<path d="M54.7579 76.9875C53.8694 76.9797 53.0031 76.7073 52.2681 76.2048C51.5331 75.7022 50.9623 74.9919 50.6277 74.1634C50.293 73.335 50.2095 72.4253 50.3876 71.5491C50.5657 70.6729 50.9975 69.8694 51.6286 69.2398C52.2596 68.6102 53.0617 68.1826 53.9337 68.011C54.8058 67.8394 55.7088 67.9314 56.5289 68.2754C57.3491 68.6195 58.0498 69.2001 58.5427 69.9443C59.0355 70.6884 59.2986 71.5627 59.2986 72.4571C59.2986 73.0554 59.1809 73.6478 58.9522 74.2C58.7236 74.7523 58.3885 75.2535 57.9663 75.6747C57.5441 76.0959 57.0433 76.4288 56.4926 76.6541C55.9419 76.8795 55.3524 76.9928 54.7579 76.9875ZM54.7579 69.7547C54.2373 69.7547 53.7284 69.9101 53.2955 70.2012C52.8627 70.4923 52.5253 70.9061 52.3261 71.3902C52.1268 71.8743 52.0747 72.407 52.1763 72.921C52.2778 73.4349 52.5285 73.907 52.8967 74.2775C53.2648 74.648 53.7338 74.9003 54.2444 75.0026C54.755 75.1048 55.2843 75.0523 55.7653 74.8518C56.2462 74.6513 56.6574 74.3117 56.9466 73.876C57.2358 73.4403 57.3902 72.9281 57.3902 72.4041C57.3902 72.0562 57.3221 71.7117 57.1898 71.3902C57.0575 71.0688 56.8637 70.7767 56.6192 70.5307C56.3748 70.2847 56.0846 70.0895 55.7653 69.9564C55.4459 69.8232 55.1036 69.7547 54.7579 69.7547Z" fill="black"/>
<path d="M62.3783 76.8285H60.5358V68.0856H63.4839C63.8799 68.0306 64.283 68.0618 64.666 68.1772C65.049 68.2927 65.4028 68.4896 65.7036 68.7546C66.0043 69.0196 66.245 69.3466 66.4093 69.7135C66.5736 70.0803 66.6576 70.4783 66.6558 70.8807C66.6555 71.4466 66.4752 71.9976 66.1412 72.4529C65.8073 72.9082 65.3373 73.2439 64.8 73.4109L67.1954 76.8285H65.0106L62.8785 73.6361H62.3783V76.8285ZM62.3783 72.0862H63.4839C63.6487 72.109 63.8165 72.0958 63.9757 72.0476C64.135 71.9993 64.2821 71.9171 64.407 71.8065C64.5319 71.6958 64.6316 71.5595 64.6995 71.4066C64.7673 71.2537 64.8016 71.0879 64.8 70.9204C64.8 70.7546 64.7644 70.5906 64.6956 70.4399C64.6268 70.2891 64.5266 70.1551 64.4016 70.047C64.2766 69.9388 64.13 69.8591 63.9716 69.8132C63.8132 69.7673 63.6469 69.7564 63.4839 69.7812H62.431L62.3783 72.0862Z" fill="black"/>
<path d="M71.9071 76.8286H70.0645V73.0135L66.9716 68.0724H69.1037L70.9858 71.2914L72.9074 68.0856H75L71.9071 73.0135V76.8286Z" fill="black"/>
<path d="M72.7758 75.6628H73.5654V75.8748H73.289V76.7491H73.0521V75.8748H72.7758V75.6628Z" fill="black"/>
<path d="M74.9342 75.6628V76.7491H74.7105V76.047L74.3946 76.7491H74.2498L73.9339 76.047V76.7491H73.7102V75.6628H74.0129L74.3551 76.4179L74.6841 75.6628H74.9342Z" fill="black"/>
</g>
<defs>
<linearGradient id="paint0_linear_836_152" x1="26.8428" y1="27.219" x2="40.3514" y2="60.62" gradientUnits="userSpaceOnUse">
<stop stop-color="#D8993E"/>
<stop offset="0.519697" stop-color="#EFC243"/>
<stop offset="1" stop-color="#AD6A1A"/>
</linearGradient>
<linearGradient id="paint1_linear_836_152" x1="54.2709" y1="55.1699" x2="53.058" y2="47.2904" gradientUnits="userSpaceOnUse">
<stop stop-color="#641B1D"/>
<stop offset="1" stop-color="#E61D19"/>
</linearGradient>
<linearGradient id="paint2_linear_836_152" x1="50.3438" y1="49.5022" x2="52.5249" y2="52.2677" gradientUnits="userSpaceOnUse">
<stop stop-color="#D8993E" stop-opacity="0"/>
<stop offset="1" stop-color="#B66815"/>
</linearGradient>
<linearGradient id="paint3_linear_836_152" x1="46.7164" y1="60.1243" x2="69.9862" y2="61.2489" gradientUnits="userSpaceOnUse">
<stop stop-color="#781B1C"/>
<stop offset="1" stop-color="#5C1309"/>
</linearGradient>
<clipPath id="clip0_836_152">
<rect width="51" height="53" fill="white" transform="translate(24 24)"/>
</clipPath>
</defs>
</svg>
