<svg width="100" height="100" viewBox="0 0 100 100" fill="none" xmlns="http://www.w3.org/2000/svg">
<g clip-path="url(#clip0_839_1326)">
<path fill-rule="evenodd" clip-rule="evenodd" d="M44.2488 27.0833C54.0871 27.0833 62.1962 35.8735 63.3506 47.2168L75 45.8528V49.618V53.3828L63.4175 52.0268C62.5552 63.7333 54.305 72.9166 44.2488 72.9166C33.6179 72.9166 25 62.6564 25 49.9999C25 37.3433 33.6179 27.0833 44.2488 27.0833ZM28.6348 49.9999C28.6348 60.2666 35.6252 68.5895 44.2488 68.5895C52.4179 68.5895 59.1173 61.1187 59.801 51.6035L42.8406 49.618L59.7329 47.6401C58.7581 38.4885 52.2002 31.4103 44.2488 31.4103C35.6252 31.4103 28.6348 39.733 28.6348 49.9999Z" fill="#007FCF"/>
</g>
<defs>
<clipPath id="clip0_839_1326">
<rect width="100" height="100" fill="white"/>
</clipPath>
</defs>
</svg>
