<svg width="100" height="100" viewBox="0 0 100 100" fill="none" xmlns="http://www.w3.org/2000/svg">
<path fill-rule="evenodd" clip-rule="evenodd" d="M29.7428 63.8452C30.4953 63.8452 31.0707 63.8895 31.4248 63.978C31.7789 64.0665 32.1773 64.1993 32.4872 64.4649C32.8413 64.7305 33.1069 65.0403 33.2839 65.4387C33.461 65.8371 33.5495 66.2355 33.5495 66.7224C33.5495 67.2535 33.461 67.6962 33.2397 68.0503C33.0626 68.4044 32.7085 68.7143 32.2659 69.0241C32.8413 69.2454 33.2397 69.5553 33.5052 69.9537C33.7708 70.352 33.9036 70.8832 33.9036 71.4586C33.9036 71.9898 33.8151 72.4767 33.5938 72.9193C33.3725 73.362 33.0626 73.7604 32.7085 74.0702C32.3544 74.3358 31.956 74.5571 31.4691 74.6456C31.0265 74.7342 30.4068 74.8227 29.61 74.8227H24.9623V63.8452L29.7428 63.8452ZM27.2197 68.1831H29.4772C30.1412 68.1831 30.6281 68.0946 30.8937 67.9618C31.1593 67.7847 31.2478 67.4749 31.2478 67.0322C31.2478 66.5896 31.115 66.2797 30.8494 66.1027C30.5838 65.9256 30.1412 65.8371 29.5215 65.8371H27.2197V68.1831ZM27.2197 72.8308H29.433C30.274 72.8308 30.8494 72.7423 31.1593 72.5652C31.4691 72.3439 31.6462 71.9898 31.6462 71.4586C31.6462 70.8832 31.5134 70.5291 31.2035 70.352C30.8937 70.175 30.3182 70.0865 29.4772 70.0865H27.264V72.8308H27.2197Z" fill="#CC0000"/>
<path fill-rule="evenodd" clip-rule="evenodd" d="M40.7941 63.8452C41.5024 63.8452 42.0778 63.8895 42.4319 63.978C42.786 64.0665 43.1401 64.1993 43.45 64.3764C43.4942 64.3764 43.4942 64.4207 43.5385 64.4207C43.5828 64.4207 43.5828 64.4649 43.627 64.4649C44.0254 64.7305 44.291 65.0846 44.4681 65.5273C44.6451 65.9699 44.7336 66.4568 44.7336 66.988C44.7336 67.6519 44.6009 68.1388 44.3795 68.493C44.1139 68.8471 43.7156 69.2012 43.1844 69.511C43.4057 69.5995 43.5828 69.6881 43.7156 69.7766C43.8484 69.8651 43.9369 69.9979 44.0254 70.0865C44.2467 70.352 44.3353 70.6619 44.3795 71.0603C44.4238 71.4586 44.4681 71.857 44.4681 72.2997C44.4681 72.3439 44.4681 72.3439 44.4681 72.3882C44.4681 72.4324 44.4681 72.4767 44.4681 72.4767V72.521V72.5652C44.4681 73.0079 44.5123 73.4062 44.5566 73.8046C44.6008 74.203 44.7336 74.4686 44.955 74.6899H42.4319C42.3876 74.6014 42.3434 74.5129 42.3434 74.4243C42.2991 74.3358 42.2991 74.2473 42.2549 74.203C42.2106 74.0702 42.2106 73.8932 42.1663 73.7161C42.1663 73.539 42.1221 73.3177 42.1221 72.9636C42.1221 72.8751 42.1221 72.7866 42.1221 72.698C42.1221 72.6095 42.1221 72.521 42.1221 72.4324C42.1221 71.7685 42.0335 71.2373 41.9007 70.8832C41.7237 70.5291 41.1925 70.352 40.3072 70.352H38.2268V74.6899H35.9694V63.8452L40.7941 63.8452ZM38.1826 68.6257H40.3515C41.104 68.6257 41.6352 68.5372 41.945 68.3159C42.2549 68.0946 42.3876 67.7405 42.3876 67.2093C42.3876 66.6781 42.2549 66.324 41.945 66.1027C41.6794 65.9256 41.104 65.7928 40.3515 65.7928H38.1826V68.6257Z" fill="#CC0000"/>
<path fill-rule="evenodd" clip-rule="evenodd" d="M50.2927 63.8452H52.8158L56.6667 74.8227H54.2765L53.524 72.521H49.5402L48.7877 74.8227H46.3975L50.2927 63.8452ZM52.9043 70.6619L51.5321 66.3683L50.1599 70.6619H52.9043Z" fill="#CC0000"/>
<path fill-rule="evenodd" clip-rule="evenodd" d="M58.1771 71.3702H60.3461C60.4789 72.0342 60.7444 72.5211 61.1428 72.7867C61.5412 73.0523 62.0724 73.1851 62.7363 73.1851C63.356 73.1851 63.8429 73.0523 64.197 72.831C64.5512 72.6096 64.7725 72.2998 64.7725 71.9014C64.7725 71.6801 64.6839 71.503 64.5512 71.3702C64.4184 71.1932 64.1528 71.0604 63.8429 70.9719L60.5231 69.6882C59.8592 69.4669 59.3723 69.1128 58.9739 68.7144C58.5755 68.316 58.3984 67.7406 58.3984 66.9881C58.3984 65.97 58.7526 65.1733 59.505 64.5536C60.2575 63.9339 61.2313 63.624 62.4265 63.624C63.7544 63.624 64.7725 63.9339 65.525 64.5536C66.2775 65.1733 66.6316 66.0143 66.7201 67.1652H64.5069C64.3741 66.5897 64.197 66.1471 63.8429 65.8815C63.5331 65.6159 63.0462 65.4831 62.4265 65.4831C61.8953 65.4831 61.4527 65.6159 61.0986 65.8372C60.7444 66.0585 60.5674 66.3684 60.5674 66.7225C60.5674 66.8996 60.6116 67.0324 60.7444 67.2094C60.8772 67.3422 61.0543 67.475 61.3199 67.5635L64.7725 68.8472C65.4364 69.1128 66.0119 69.4669 66.4102 69.821C66.8086 70.1751 67.0299 70.7948 67.0299 71.5916C67.0299 72.1227 66.8972 72.6096 66.6758 73.0523C66.4545 73.4949 66.1004 73.8933 65.6578 74.2474C65.3036 74.513 64.861 74.7343 64.4184 74.8228C63.9757 74.9114 63.4003 74.9999 62.7363 74.9999C61.8068 74.9999 61.01 74.8671 60.3903 74.6015C59.7264 74.3359 59.2395 73.9376 58.8411 73.4507C58.8411 73.4064 58.7968 73.4064 58.7968 73.3621C58.7968 73.3179 58.7526 73.3179 58.7526 73.2736C58.5755 73.0523 58.487 72.7867 58.3984 72.4769C58.3099 72.167 58.2214 71.8572 58.1771 71.3702L58.1771 71.3702Z" fill="#CC0000"/>
<path fill-rule="evenodd" clip-rule="evenodd" d="M71.2488 63.8452V74.8227H68.9913V63.8452H71.2488Z" fill="#CC0000"/>
<path fill-rule="evenodd" clip-rule="evenodd" d="M76.5642 63.8452V72.8308H81.8759V74.8227H74.3068V63.8452H76.5642Z" fill="#CC0000"/>
<path d="M35.6965 35.0491H29.7724C27.7523 35.0491 25.815 35.8432 24.3865 37.2566C22.9581 38.67 22.1556 40.5871 22.1556 42.586C22.1556 44.5849 22.9581 46.5019 24.3865 47.9153C25.815 49.3287 27.7523 50.1228 29.7724 50.1228H36.3989C36.529 50.1228 36.6577 50.0975 36.7779 50.0482C36.898 49.999 37.0072 49.9268 37.0991 49.8358C37.1911 49.7448 37.264 49.6368 37.3137 49.518C37.3635 49.3991 37.3891 49.2717 37.3891 49.143V31.8418C37.3909 30.3343 37.8958 28.8695 38.8254 27.6752C39.755 26.4808 41.0572 25.6237 42.5298 25.237C44.0023 24.8503 45.5627 24.9557 46.9684 25.5367C48.3742 26.1178 49.5467 27.142 50.3037 28.4502L57.7004 41.2545V31.8418C57.7022 30.3343 58.2071 28.8695 59.1367 27.6752C60.0663 26.4808 61.3685 25.6237 62.8411 25.237C64.3136 24.8503 65.8739 24.9557 67.2797 25.5367C68.6855 26.1178 69.858 27.142 70.615 28.4502L78.0117 41.2545V25H82.2432L83.0895 25.8374L83.9358 25H88.1674V53.3301C88.1656 54.8377 87.6606 56.3024 86.7311 57.4967C85.8015 58.6911 84.4992 59.5482 83.0267 59.9349C81.5542 60.3216 79.9938 60.2163 78.588 59.6352C77.1823 59.0542 76.0098 58.03 75.2528 56.7217L67.8561 43.9175V53.3301C67.8543 54.8377 67.3493 56.3024 66.4198 57.4967C65.4902 58.6911 64.1879 59.5482 62.7154 59.9349C61.2429 60.3216 59.6825 60.2163 58.2768 59.6352C56.871 59.0542 55.6985 58.03 54.9415 56.7217L47.5448 43.9175V53.3301C47.5448 54.2286 47.3659 55.1183 47.0185 55.9484C46.671 56.7785 46.1617 57.5327 45.5196 58.168C44.8776 58.8033 44.1153 59.3073 43.2765 59.6511C42.4376 59.995 41.5385 60.1719 40.6305 60.1719H29.7724C25.0589 60.1719 20.5384 58.3191 17.2054 55.0211C13.8724 51.7231 12 47.2501 12 42.586C12 37.9219 13.8724 33.4488 17.2054 30.1508C20.5384 26.8528 25.0589 25 29.7724 25H35.6965V29.1871L34.8502 30.0246L35.6965 30.862V35.0491Z" fill="#CC0000"/>
<path d="M35.6966 30.0246H29.7724C26.4056 30.0246 23.1767 31.348 20.796 33.7037C18.4153 36.0594 17.0779 39.2545 17.0779 42.586C17.0779 45.9175 18.4153 49.1125 20.796 51.4682C23.1767 53.8239 26.4056 55.1474 29.7724 55.1474H40.6305C40.8717 55.1474 41.1105 55.1004 41.3333 55.009C41.5561 54.9177 41.7586 54.7839 41.9291 54.6151C42.0996 54.4464 42.2349 54.246 42.3272 54.0256C42.4195 53.8051 42.467 53.5688 42.467 53.3301V31.8418C42.4677 31.4419 42.6017 31.0534 42.8481 30.7366C43.0946 30.4197 43.4398 30.1921 43.8303 30.089C44.2208 29.986 44.6347 30.0133 45.0079 30.1667C45.3811 30.32 45.6927 30.5909 45.8945 30.9374L59.3508 54.2346C59.5526 54.581 59.8643 54.8519 60.2375 55.0053C60.6107 55.1586 61.0246 55.1859 61.415 55.0829C61.8055 54.9798 62.1507 54.7523 62.3972 54.4354C62.6436 54.1185 62.7776 53.73 62.7783 53.3301V31.8418C62.779 31.4419 62.913 31.0534 63.1594 30.7366C63.4059 30.4197 63.7511 30.1921 64.1416 30.089C64.5321 29.986 64.946 30.0133 65.3192 30.1667C65.6924 30.32 66.004 30.5909 66.2058 30.9374L79.6621 54.2346C79.8639 54.581 80.1755 54.8519 80.5487 55.0053C80.922 55.1586 81.3359 55.1859 81.7263 55.0829C82.1168 54.9798 82.462 54.7523 82.7085 54.4354C82.9549 54.1185 83.0889 53.73 83.0896 53.3301V25" stroke="white" stroke-width="0.792629"/>
</svg>
