<svg width="100" height="100" viewBox="0 0 100 100" fill="none" xmlns="http://www.w3.org/2000/svg">
<g clip-path="url(#clip0_839_1370)">
<path fill-rule="evenodd" clip-rule="evenodd" d="M31.4516 33.3345C22.7556 33.3345 15.713 40.3489 15.713 48.9909C15.713 57.619 22.7556 64.6335 31.4516 64.6335H41.3652C43.0606 64.7844 44.7425 64.1691 45.9462 62.9519C47.1356 61.7484 47.7374 60.0665 47.5597 58.3708V49.4558L54.1779 60.7775C58.184 67.5602 65.7734 64.7703 65.7734 58.9177V49.4834L72.3911 60.8048C76.4117 67.5737 84.0006 64.7979 84.0006 58.9453V33.3345H80.199V58.8225C80.2128 60.0533 79.2554 61.092 78.0246 61.1881C77.0675 61.1605 76.2059 60.6136 75.7689 59.7661L69.3827 48.8405L63.6674 39.0227C63.3526 38.5034 62.9286 38.243 62.5462 38.3663C62.2038 38.4623 61.9856 38.7907 61.9991 39.1457V58.7949C61.9856 59.8204 61.3154 60.7097 60.3448 61.0236C59.2095 61.2835 58.0195 60.7229 57.5276 59.6701L51.593 49.5242L45.4402 39.0227C45.1389 38.5034 44.7154 38.243 44.3055 38.3663C43.9636 38.4623 43.731 38.7907 43.7578 39.1457V58.3714C43.731 59.725 42.6365 60.8189 41.27 60.8597H31.4243C24.8204 60.8597 19.4732 55.5272 19.4732 48.9638C19.4732 42.3864 24.8204 37.0671 31.4243 37.0671H36.5246V33.3345H31.4516ZM44.141 33.1565C41.1191 33.1157 38.4528 35.5083 38.4528 38.9818V54.5011C38.4528 54.7883 38.3433 55.0488 38.1521 55.2535C37.9606 55.4452 37.701 55.5683 37.4273 55.5683H31.4651C27.815 55.5542 24.848 52.628 24.8064 48.9909C24.8204 45.3129 27.815 42.3588 31.4927 42.3588H36.5522V38.5986H31.4243C27.6914 38.5986 24.2454 40.5818 22.3865 43.7949C20.5261 47.0083 20.5261 50.9597 22.3865 54.1731C24.2454 57.3864 27.6914 59.3693 31.4243 59.3693H41.2424C41.7755 59.3285 42.2136 58.9044 42.2404 58.3714V39.0227C42.2544 38.0107 42.9243 37.1088 43.9087 36.8075C45.0435 36.5344 46.2194 37.0947 46.7259 38.1475L52.8244 48.649L58.7584 58.7949C59.0591 59.315 59.4967 59.574 59.8931 59.4654C60.2353 59.3693 60.4676 59.0413 60.4403 58.6857V39.0227C60.4535 38.0107 61.1239 37.1088 62.0951 36.8075C63.2434 36.4932 64.4607 37.0671 64.9253 38.1475L70.5999 47.8699L76.9721 58.7949C77.2863 59.315 77.7104 59.574 78.1203 59.4654C78.4625 59.3693 78.681 59.0413 78.6539 58.6857V33.3345H74.8932V48.4714L68.2752 37.1355C64.2554 30.3669 56.666 33.1565 56.666 39.0094V48.4443L50.048 37.1223C48.4213 34.36 46.2058 33.1841 44.141 33.1565Z" fill="#CC1417"/>
</g>
<defs>
<clipPath id="clip0_839_1370">
<rect width="100" height="100" fill="white"/>
</clipPath>
</defs>
</svg>
