<svg width="100" height="100" viewBox="0 0 100 100" fill="none" xmlns="http://www.w3.org/2000/svg">
<g clip-path="url(#clip0_840_1763)">
<path d="M41.0666 35.3068C41.0736 35.3069 41.0805 35.3069 41.0875 35.3068C42.1573 35.3405 43.268 35.4348 44.3915 35.5446C44.5111 35.801 44.6335 36.0163 44.7504 36.2361C38.3341 38.5887 33.3324 44.4497 33.5295 50.8135C33.6502 54.7098 35.6901 58.2649 39.1769 60.7875C42.6589 63.3065 47.5588 64.8875 53.6807 65.1963C60.9011 65.5606 67.118 65.1655 72.4806 63.8348C80.4354 61.8609 86.4582 57.6641 90.8162 51.0404C90.4416 54.0041 89.8161 57.3031 89.085 58.8748C89.085 58.8784 89.085 58.882 89.085 58.8856C89.0813 58.8963 89.0778 58.9071 89.0745 58.918C89.0673 58.9286 89.0604 58.9394 89.0536 58.9504C89.0536 58.954 89.0536 58.9576 89.0536 58.9612C84.9594 69.0155 76.9659 75.3488 67.9524 78.8011C58.9376 82.2539 48.9253 82.7388 41.2356 81.0812C28.0315 78.2347 20.4743 72.7011 16.1127 67.5088C11.7529 62.3188 10.5809 57.3163 10.4125 55.8274C10.4091 55.7351 10.3913 55.6439 10.3597 55.5573L10.3387 55.5033C8.96664 50.3661 11.8066 44.9882 18.0656 40.9259C23.5697 37.3535 31.6203 35.0149 41.0668 35.3068L41.0666 35.3068Z" fill="#338000"/>
<path d="M50.3131 17.0015C53.6758 16.9757 56.8875 17.2876 59.7712 17.9092C72.9753 20.7556 80.5219 26.2893 84.8835 31.4816C89.209 36.6308 90.4008 41.5772 90.5837 43.1089V43.1197C90.5847 43.2193 90.6026 43.318 90.6365 43.4114C90.6398 43.4223 90.6433 43.4331 90.647 43.4438C92.0535 48.5973 89.2115 53.9986 82.9306 58.0752C77.4265 61.6476 69.3759 63.9862 59.9294 63.6943C59.9226 63.6941 59.9152 63.6946 59.9084 63.6943C58.8352 63.6605 57.7211 63.556 56.5939 63.4458C56.4766 63.195 56.3603 62.9807 56.2455 62.765C62.6646 60.4139 67.6636 54.5534 67.4664 48.1877C67.3458 44.2913 65.3059 40.7363 61.819 38.2137C58.3371 35.6946 53.4371 34.1137 47.3153 33.8048C40.0949 33.4406 33.878 33.8249 28.5153 35.1556C20.5656 37.1282 14.5476 41.3336 10.1903 47.9499C10.5652 44.9888 11.1807 41.6854 11.911 40.1156C11.9224 40.0944 11.933 40.0728 11.9427 40.0507C11.9427 40.0476 11.9427 40.043 11.9427 40.0399C16.0369 29.9856 24.0303 23.6523 33.0438 20.2C38.6781 18.042 44.7087 17.0443 50.3132 17.0015L50.3131 17.0015Z" fill="#FFCC00"/>
</g>
<defs>
<clipPath id="clip0_840_1763">
<rect width="81" height="65" fill="white" transform="translate(10 17)"/>
</clipPath>
</defs>
</svg>
