<svg width="100" height="100" viewBox="0 0 100 100" fill="none" xmlns="http://www.w3.org/2000/svg">
<path d="M16.3669 70.2982C16.2514 70.2982 16.1403 70.3122 16.0383 70.359C15.3875 70.6253 14.7096 70.773 14.0428 70.773C12.188 70.773 11.0226 69.2931 11.0226 66.9649C11.0226 65.1383 11.9136 63.2051 14.0157 63.2051C14.7162 63.2051 15.3559 63.3378 16.0519 63.6724H16.0539C16.1539 63.7192 16.2649 63.7438 16.383 63.7438C16.8293 63.7438 17.1966 63.38 17.1966 62.9337C17.1966 62.582 16.9725 62.2805 16.6549 62.1699C15.8117 61.7724 14.9001 61.5729 13.893 61.5729C10.8548 61.5729 9 63.9448 9 67.0418C9 69.8459 10.5533 72.4067 13.7413 72.4067C15.1358 72.4067 15.9499 72.1454 16.587 71.854C16.6303 71.8334 16.7866 71.752 16.8202 71.7278C17.0293 71.5851 17.1604 71.3464 17.1604 71.0786C17.1604 70.6414 16.8067 70.2982 16.3669 70.2982Z" fill="#0082C0"/>
<path d="M84.569 65.5841C84.6077 65.4776 84.6278 65.36 84.6278 65.2389C84.6278 64.6997 84.1926 64.265 83.6575 64.265C83.2313 64.265 82.8705 64.5379 82.7414 64.9183L81.4172 68.4093L81.0861 69.4726L80.7323 68.3927L79.3881 64.9183C79.2544 64.5379 78.8891 64.265 78.4674 64.265C77.9277 64.265 77.4971 64.6997 77.4971 65.2389C77.4971 65.36 77.5172 65.4776 77.5584 65.5841C77.5649 65.5962 77.5674 65.6092 77.5719 65.6218L79.9956 71.6304C80.0227 71.7083 80.066 71.7827 80.1046 71.852C80.2655 72.1621 80.5941 72.3777 80.9705 72.3777C80.9841 72.3777 81.0001 72.3737 81.0162 72.3737C81.0343 72.3737 81.0454 72.3777 81.0614 72.3777C81.0931 72.3777 81.1157 72.3737 81.1519 72.3722C81.17 72.3737 81.2016 72.3777 81.2248 72.3777C81.6393 72.3777 82.0002 72.1124 82.1383 71.742L84.5555 65.6178C84.56 65.6082 84.5665 65.5962 84.569 65.5881V65.5841Z" fill="#0082C0"/>
<path d="M67.4456 61.5931C66.915 61.5931 66.4818 62.0177 66.4708 62.5459V62.5996V68.9565H66.4386L61.5049 62.177L61.3596 61.9785C61.1491 61.7413 60.834 61.5931 60.4913 61.5931C59.8475 61.5931 59.3259 62.1157 59.3259 62.7604V71.4355C59.3259 71.9566 59.734 72.3832 60.244 72.4124H60.3621C60.8521 72.3842 61.2466 71.9933 61.2782 71.5038V71.3656V65.1117H61.3144L66.2778 71.9008L66.312 71.9566C66.514 72.2129 66.82 72.3877 67.1668 72.4124H67.323C67.9286 72.3722 68.4024 71.8827 68.4231 71.2772V71.1958V62.6338V62.5097C68.3914 61.9991 67.9673 61.5931 67.4456 61.5931Z" fill="#0082C0"/>
<path d="M52.7207 72.4395C50.1111 72.4395 48.9071 70.6761 48.9071 68.3389C48.9071 66.0313 50.3172 64.2705 52.8182 64.2705C55.4258 64.2705 56.6273 65.9997 56.6273 68.354C56.6273 70.6605 55.2193 72.4395 52.7207 72.4395ZM52.7976 65.7916C51.374 65.7916 50.9091 67.0258 50.9091 68.3037C50.9091 69.6208 51.3081 70.9168 52.7343 70.9168C54.1449 70.9168 54.6278 69.666 54.6278 68.354C54.6278 67.0419 54.2082 65.7916 52.7976 65.7916" fill="#0082C0"/>
<path d="M73.3115 72.4395C70.704 72.4395 69.5024 70.6761 69.5024 68.3389C69.5024 66.0313 70.9125 64.2705 73.4115 64.2705C76.0231 64.2705 77.2206 65.9997 77.2206 68.354C77.2206 70.6605 75.8146 72.4395 73.3115 72.4395ZM73.3975 65.7916C71.9738 65.7916 71.509 67.0258 71.509 68.3037C71.509 69.6208 71.908 70.9168 73.3316 70.9168C74.7402 70.9168 75.2231 69.666 75.2231 68.354C75.2231 67.0419 74.8035 65.7916 73.3975 65.7916" fill="#0082C0"/>
<path d="M30.434 64.2087C29.5089 64.2087 28.5837 64.5319 27.8375 65.1093C27.7651 64.6364 27.3596 64.2741 26.8606 64.2741C26.3254 64.2741 25.8787 64.7133 25.8787 65.2575C25.8787 65.3022 25.8832 65.4047 25.8832 65.4047V71.3978C25.8832 71.9445 26.3279 72.3848 26.8742 72.3848C27.4204 72.3848 27.8651 71.9445 27.8651 71.3928V71.3767L27.8696 71.3762V67.1661C27.8943 66.851 28.0691 66.5771 28.3229 66.4153C28.7832 66.1379 29.339 65.95 29.8084 65.95C30.8104 65.95 31.0576 66.5922 31.0576 67.4947V71.3601V71.4109C31.0576 71.9516 31.4973 72.3938 32.0416 72.3938C32.5838 72.3938 33.021 71.9576 33.028 71.4159L33.03 67.1515C33.03 65.3595 32.2707 64.2087 30.434 64.2087Z" fill="#0082C0"/>
<path d="M42.7165 63.3192C42.7598 63.3192 42.8095 63.3137 42.8547 63.3026C42.8819 63.2976 42.914 63.2885 42.9547 63.2725C42.9819 63.2609 43.7231 62.8815 44.0065 62.8815C44.5306 62.8815 44.9362 63.3931 45.5055 63.3931C46.0975 63.3931 47.0086 62.7639 47.0272 62.7503C47.1834 62.6383 47.2764 62.4564 47.2764 62.2539C47.2764 61.9081 47.002 61.6332 46.6598 61.6332C46.5483 61.6332 46.4397 61.6639 46.3442 61.7192C46.3377 61.7232 46.3287 61.7272 46.3241 61.7307C46.002 61.9056 45.594 62.1116 45.4171 62.1116C45.0136 62.1116 44.3854 61.586 43.8025 61.586C43.3648 61.586 42.8547 61.8342 42.4718 62.0815C42.4351 62.1071 42.3376 62.1795 42.3175 62.1951C42.1723 62.3121 42.0793 62.4885 42.0793 62.685C42.0793 63.0353 42.3628 63.3192 42.7165 63.3192Z" fill="#0082C0"/>
<path d="M24.8198 67.3911C24.8224 67.3458 24.8244 67.3001 24.8244 67.2549C24.8244 67.2066 24.8224 67.1554 24.8198 67.1061C24.8224 67.0624 24.8244 67.0162 24.8244 66.9715C24.8244 65.4815 23.2872 64.2739 21.2806 64.2739C20.1851 64.2739 19.2077 64.6302 18.5388 65.1971C18.3574 65.3348 18.2328 65.5564 18.2328 65.8061C18.2328 66.2217 18.573 66.5564 18.9856 66.5564C19.1102 66.5564 19.2308 66.5287 19.3328 66.475C19.3735 66.4529 19.4982 66.3805 19.5479 66.3438C19.775 66.187 20.3374 65.7599 21.2575 65.7599C22.3937 65.7599 22.9037 66.2403 22.9037 66.8343V67.1695C22.7022 67.1554 22.5027 67.1504 22.2917 67.1504C21.5319 67.1504 20.8042 67.2338 20.1489 67.384V67.3875C18.7635 67.7031 17.7454 68.6258 17.7454 69.9052C17.7454 71.3534 19.4665 72.3901 21.0695 72.3901C21.9037 72.3901 22.6248 72.1384 23.2143 71.768C23.3188 72.0987 23.5706 72.372 24.0083 72.372C24.4615 72.372 24.8289 72.0072 24.8314 71.5514V70.4293V70.2358V67.3946L24.8198 67.3911ZM21.6525 70.9841V70.9846C21.5525 70.9982 21.4459 71.0047 21.3414 71.0047C20.3982 71.0047 19.6228 70.4645 19.6137 69.7966C19.6137 69.6941 19.6298 69.5946 19.659 69.4966C19.8112 69.0544 20.2987 68.7067 20.9243 68.5951C21.36 68.5363 21.8198 68.5026 22.2917 68.5026C22.5027 68.5026 22.7042 68.5092 22.9062 68.5217L22.9083 69.8001C22.8902 70.3981 22.3505 70.8931 21.6525 70.9841Z" fill="#0082C0"/>
<path d="M91.7023 67.3911C91.7068 67.3458 91.7068 67.3001 91.7068 67.2549C91.7068 67.2066 91.7068 67.1554 91.7023 67.1061C91.7068 67.0624 91.7068 67.0162 91.7068 66.9715C91.7068 65.4815 90.1696 64.2739 88.163 64.2739C87.0721 64.2739 86.0927 64.6302 85.4258 65.1971C85.2379 65.3348 85.1178 65.5564 85.1178 65.8061C85.1178 66.2217 85.4534 66.5564 85.8751 66.5564C85.9997 66.5564 86.1133 66.5287 86.2198 66.475C86.258 66.4529 86.3831 66.3805 86.4329 66.3438C86.6575 66.187 87.2148 65.7599 88.1424 65.7599C89.2696 65.7599 89.7842 66.2403 89.7842 66.8343V67.1695C89.5892 67.1554 89.3806 67.1504 89.1786 67.1504C88.4098 67.1504 87.6866 67.2338 87.0339 67.384V67.3875C85.6484 67.7031 84.6278 68.6258 84.6278 69.9052C84.6278 71.3534 86.3489 72.3901 87.952 72.3901C88.7907 72.3901 89.5073 72.1384 90.1013 71.768C90.2038 72.0987 90.453 72.372 90.8927 72.372C91.3485 72.372 91.7113 72.0072 91.7113 71.5514V70.4293V70.2358V67.3946L91.7023 67.3911ZM88.5349 70.9841L88.5324 70.9846C88.4349 70.9982 88.3329 71.0047 88.2284 71.0047C87.2761 71.0047 86.5097 70.4645 86.4987 69.7966C86.5007 69.6941 86.5168 69.5946 86.5439 69.4966C86.6937 69.0544 87.1831 68.7067 87.8047 68.5951C88.2374 68.5363 88.7022 68.5026 89.1786 68.5026C89.3806 68.5026 89.5892 68.5092 89.7842 68.5217L89.7887 69.8001C89.7726 70.3981 89.2399 70.8931 88.5349 70.9841Z" fill="#0082C0"/>
<path d="M48.0861 67.3911C48.0886 67.3458 48.0906 67.3001 48.0906 67.2549C48.0906 67.2066 48.0886 67.1554 48.0836 67.1061C48.0886 67.0624 48.0906 67.0162 48.0906 66.9715C48.0906 65.4815 46.5534 64.2739 44.5443 64.2739C43.4493 64.2739 42.4719 64.6302 41.8076 65.1971C41.6171 65.3348 41.499 65.5564 41.499 65.8061C41.499 66.2217 41.8372 66.5564 42.2498 66.5564C42.379 66.5564 42.4945 66.5287 42.5965 66.475C42.6398 66.4529 42.7574 66.3805 42.8121 66.3438C43.0388 66.187 43.5986 65.7599 44.5237 65.7599C45.6534 65.7599 46.17 66.2403 46.17 66.8343V67.1695C45.9685 67.1554 45.7644 67.1504 45.5579 67.1504C44.7916 67.1504 44.0684 67.2338 43.4177 67.384V67.3875C42.0252 67.7031 41.0116 68.6258 41.0116 69.9052C41.0116 71.3534 42.7347 72.3901 44.3333 72.3901C45.1725 72.3901 45.8865 72.1384 46.4805 71.768C46.5825 72.0987 46.8368 72.372 47.272 72.372C47.7258 72.372 48.0976 72.0072 48.0976 71.5514V70.4293V70.2358V67.3946L48.0861 67.3911ZM44.9162 70.9841V70.9846C44.8117 70.9982 44.7101 71.0047 44.6076 71.0047C43.6599 71.0047 42.8915 70.4645 42.878 69.7966C42.88 69.6941 42.896 69.5946 42.9207 69.4966C43.0775 69.0544 43.5624 68.7067 44.184 68.5951C44.6237 68.5363 45.084 68.5026 45.5579 68.5026C45.7644 68.5026 45.9685 68.5092 46.17 68.5217V69.8001C46.1589 70.3981 45.6147 70.8931 44.9162 70.9841" fill="#0082C0"/>
<path d="M39.9301 70.6404C39.7216 70.5877 39.014 70.8203 38.7055 70.8811C38.4723 70.9238 38.2296 70.9475 37.9326 70.9475C36.5537 70.9475 35.8487 69.8891 35.8487 68.3484C35.8487 66.7775 36.6376 65.7976 38.014 65.7976C38.3633 65.7976 38.6965 65.8594 39.0095 65.9554C39.2 66.0117 39.6809 66.1635 39.8623 66.1378C40.2065 66.0826 40.4698 65.7831 40.4698 65.4217C40.4698 65.1263 40.293 64.872 40.0367 64.7599C40.0186 64.7464 39.996 64.7353 39.9708 64.7237C39.2955 64.4207 38.5402 64.274 37.8216 64.274C35.3341 64.274 33.8441 65.9589 33.8441 68.4449C33.8441 70.4334 34.7195 71.8294 36.3723 72.2927C36.3723 72.2927 36.6286 72.3721 37.0391 72.4173C36.9713 72.5852 36.8939 72.7485 36.817 72.9028C36.8009 72.9329 36.7808 72.9621 36.7673 72.9947C36.7487 73.0314 36.7215 73.0681 36.7014 73.1073C36.6969 73.1324 36.6808 73.159 36.6718 73.1872C36.5537 73.5671 36.7648 73.9666 37.1437 74.0847C37.3477 74.1555 37.5698 74.1184 37.7422 74.0073C37.7623 73.9947 37.7829 73.9807 37.799 73.9641C37.8829 73.9163 37.9778 73.8867 38.0869 73.8867C38.3542 73.8837 38.5789 74.0641 38.5789 74.2827C38.5789 74.5053 38.3567 74.6842 38.0869 74.6842C37.9507 74.6842 37.4859 74.5309 37.3407 74.5309C37.0004 74.5309 36.7306 74.7123 36.7306 75.048C36.7306 75.3199 36.9371 75.5294 37.1798 75.6048V75.6083C37.3949 75.6762 37.6105 75.74 37.8552 75.74C38.8869 75.7375 39.7261 75.2294 39.7261 74.1862C39.7261 73.5148 39.207 72.946 38.4834 72.7289C38.5105 72.6681 38.5286 72.6038 38.5492 72.5369C38.5653 72.4912 38.5789 72.4414 38.5924 72.3937C39.0728 72.3264 39.5266 72.1932 40.005 71.9741C40.0301 71.961 40.0593 71.9485 40.0799 71.9374C40.2995 71.8168 40.4472 71.5852 40.4472 71.3183C40.4472 70.9947 40.2296 70.7213 39.9301 70.6404Z" fill="#0082C0"/>
<path d="M84.8232 29.6377C84.8232 28.7985 84.3468 28.0744 83.6534 27.7181C83.6735 27.6015 83.678 27.4834 83.678 27.3593C83.678 26.199 82.7463 25.2593 81.581 25.2593C81.4629 25.2593 81.1885 25.3457 81.0729 25.3663C80.2317 24.5226 79.0638 23.9999 77.7804 23.9999C77.3452 23.9999 76.9327 24.0608 76.5337 24.1703V24.1673L62.0515 28.4246L62.5138 27.4497C62.5545 27.3724 62.5912 27.294 62.6274 27.2131C62.7249 26.9668 62.7772 26.701 62.7772 26.4216C62.7772 26.1367 62.7204 25.8628 62.6229 25.6125C62.4686 25.2492 62.2239 24.9366 61.9063 24.706C61.555 24.4457 61.1219 24.2959 60.648 24.2959C60.5595 24.2959 60.4686 24.3 60.3756 24.3125C60.2716 24.3266 60.1696 24.3482 60.0651 24.3758L52.1428 26.004C50.4333 24.7522 48.3267 24.011 46.0457 24.011C43.3291 24.011 40.8597 25.0598 39.012 26.7673L39.0029 26.7769C38.8738 26.8945 38.7512 27.0161 38.624 27.1332C38.3637 27.3794 36.1617 29.4628 36.13 29.497C35.7717 29.8216 35.334 30.0468 34.8355 30.0468C34.7059 30.0468 34.5747 30.0297 34.4456 30.002L30.4048 28.8251C30.2867 28.788 30.1736 28.7548 30.0601 28.7231L30.0058 28.7096C29.0736 28.4558 28.0942 28.3241 27.0786 28.3241C20.8906 28.3241 15.8729 33.3383 15.8729 39.5288C15.8729 42.6213 17.1242 45.4194 19.1514 47.446C19.3127 47.6119 19.5348 47.7179 19.7775 47.7179C20.2534 47.7179 20.6413 47.3315 20.6413 46.8541C20.6413 46.6254 20.5529 46.4174 20.4052 46.2631H20.4077C20.4011 46.2566 20.3986 46.2525 20.3986 46.2495C20.3941 46.246 20.3916 46.2445 20.3896 46.2415C18.6639 44.5249 17.6006 42.151 17.6006 39.5288C17.6006 34.2916 21.8409 30.0468 27.0786 30.0468C27.9877 30.0468 28.8651 30.1744 29.6973 30.4111L33.8491 31.6282C34.1622 31.7197 34.4928 31.7719 34.8355 31.7719C35.5657 31.7719 36.2979 31.5352 36.8808 31.1001C37.1617 30.8915 37.4064 30.6327 37.6672 30.398C37.9054 30.1719 38.1411 29.9448 38.3863 29.7196C38.6492 29.4719 38.919 29.2216 39.1863 28.9714C39.4044 28.7653 39.624 28.5573 39.8462 28.3508C39.9487 28.2513 40.0552 28.1578 40.1572 28.0603L40.1637 28.0533C41.7055 26.6176 43.7668 25.7346 46.0457 25.7346C49.5398 25.7346 52.5529 27.8236 53.9047 30.8197C53.9318 30.8845 53.9589 30.9498 53.9841 31.0166C54.2539 31.6297 54.8615 32.0594 55.571 32.0594C55.7911 32.0594 56.0017 32.0182 56.1946 31.9438L76.8965 25.8532V25.8593C77.1774 25.7723 77.4698 25.7251 77.7804 25.7251C78.2658 25.7251 78.7307 25.8457 79.1387 26.0573L58.0972 33.9619L57.8997 34.0378L57.8977 34.0383L56.3761 34.6066L55.6414 34.883C55.5755 34.9051 55.5142 34.9303 55.4509 34.9574C54.9951 35.1604 54.6484 35.5509 54.4986 36.0333C54.4735 36.1182 54.4509 36.2102 54.4398 36.3016C54.365 36.6393 54.265 36.969 54.1514 37.2881C53.8821 38.0253 53.5192 38.7158 53.0725 39.3444C53.0725 39.3444 53.0745 39.3479 53.077 39.3529C52.0293 40.8675 50.2765 41.8595 48.2925 41.8595C46.9865 41.8595 45.7824 41.4263 44.8101 40.7032L40.0798 36.7841L40.0778 36.7896C38.8828 35.8077 37.3637 35.2202 35.6968 35.2202C31.8923 35.2202 28.8018 38.3057 28.8018 42.1158V42.9771C28.8018 43.8827 28.6249 44.7495 28.3098 45.5445C28.2781 45.6239 28.2415 45.6988 28.2098 45.7757V45.7777C28.1646 45.8837 28.1374 46.0013 28.1374 46.1254C28.1374 46.5877 28.5093 46.9671 28.9787 46.9671C29.1937 46.9671 29.3983 46.8817 29.541 46.7465V46.7495C29.6068 46.6963 29.6701 46.6435 29.7334 46.5933C30.5455 45.947 31.5701 45.5616 32.6812 45.5616C34.7014 45.5616 36.4205 46.8229 37.1049 48.5993L38.7059 53.2587H38.7079C39.7557 56.303 42.6422 58.4924 46.0457 58.4924C47.7463 58.4924 49.3131 57.9422 50.5961 57.0135L80.7624 36.6836C82.1749 35.8815 83.1247 34.3649 83.1247 32.6237C83.1247 32.3714 83.1066 32.1227 83.0639 31.88L83.7328 31.5161C83.7328 31.5161 83.7328 31.5126 83.7302 31.5101C84.3855 31.1408 84.8232 30.4392 84.8232 29.6377ZM61.0198 26.5739L60.1173 28.4794L59.8359 29.0769L57.2238 29.8428L55.571 30.3287C55.3489 29.798 55.0745 29.292 54.773 28.8106C54.46 28.3241 54.1107 27.8643 53.7278 27.4362L58.5279 26.4533L60.5776 26.0321C60.6002 26.0271 60.6274 26.0206 60.648 26.0206C60.8701 26.0206 61.049 26.201 61.049 26.4216C61.049 26.4734 61.0354 26.5276 61.0198 26.5739M82.8936 30.0036L60.4912 42.5957V42.5987C60.2399 42.7495 60.0651 43.0249 60.0651 43.3404C60.0651 43.8153 60.453 44.1993 60.9269 44.1993C61.0832 44.1993 61.2239 44.159 61.3505 44.0882C61.3505 44.0882 61.3505 44.0902 61.353 44.0922L81.395 32.8212C81.3357 33.6669 80.9277 34.4117 80.3111 34.9127L49.8664 55.4396C49.8664 55.4396 49.3332 55.7919 49.3131 55.8019C48.3744 56.4115 47.2498 56.7668 46.0457 56.7668C43.513 56.7668 41.3497 55.2105 40.4587 52.9964L38.8602 48.3883C38.819 48.2656 38.7763 48.143 38.7311 48.0224L38.717 47.9877C37.7853 45.5611 35.4386 43.8374 32.6812 43.8374C31.8923 43.8374 31.1304 43.9807 30.4365 44.24C30.4953 43.8284 30.5274 43.4058 30.5274 42.9771V42.1158C30.5274 39.2575 32.8375 36.9419 35.6968 36.9419C36.9712 36.9419 38.1366 37.4017 39.0371 38.162L39.0416 38.1569L43.2633 41.658C43.404 41.7872 43.5558 41.9093 43.708 42.0248L43.7417 42.0565V42.055C45.0096 43.0128 46.5829 43.5837 48.2925 43.5837C50.9544 43.5837 53.2921 42.2032 54.6368 40.1253C54.6348 40.1233 54.6303 40.1218 54.6303 40.1218C55.3489 39.0519 55.8725 37.8368 56.1514 36.5358L59.7002 35.2021L81.5061 26.992C81.5307 26.9859 81.5558 26.9834 81.581 26.9834C81.7915 26.9834 81.9619 27.1533 81.9619 27.3593C81.9619 27.4905 81.8935 27.604 81.7915 27.6714C81.7669 27.6819 81.7373 27.698 81.7121 27.7085L58.4439 38.475H58.4459C58.165 38.6183 57.9721 38.9077 57.9721 39.2434C57.9721 39.7218 58.3555 40.1092 58.8294 40.1092C58.954 40.1092 59.0741 40.0791 59.1761 40.0334H59.1786L82.3111 29.3287C82.3946 29.2985 82.4674 29.2654 82.5423 29.2277C82.5805 29.2141 82.6282 29.2081 82.6714 29.2081C82.9096 29.2081 83.1021 29.3985 83.1021 29.6377C83.1021 29.7925 83.0207 29.9267 82.8936 30.0036" fill="#0082C0"/>
<path d="M34.407 39.5285C33.6929 39.5285 33.1145 40.1089 33.1145 40.8205C33.1145 41.5356 33.6929 42.1155 34.407 42.1155C35.1211 42.1155 35.697 41.5356 35.697 40.8205C35.697 40.1089 35.1211 39.5285 34.407 39.5285Z" fill="#0082C0"/>
</svg>
