<svg width="100" height="100" viewBox="0 0 100 100" fill="none" xmlns="http://www.w3.org/2000/svg">
<path d="M35.0082 69.1622L31.7722 77.3708C31.7722 77.4164 31.7722 77.5077 31.8633 77.5077H33.5953C33.6409 77.5077 33.6864 77.462 33.6864 77.462L34.3245 75.6835C34.37 75.5922 34.4613 75.5467 34.5524 75.5467H37.4692C37.5604 75.5467 37.6516 75.5922 37.6971 75.6835L38.3352 77.462C38.3352 77.5077 38.3808 77.5077 38.4263 77.5077H40.1583C40.2038 77.5077 40.2494 77.462 40.2494 77.3708L37.0134 69.1622C37.0134 69.1167 36.968 69.1167 36.9223 69.1167H35.1449C35.0537 69.1167 35.0082 69.1167 35.0082 69.1622ZM36.9223 74.0417C36.8767 74.0874 36.8312 74.133 36.74 74.133H35.1904C35.0993 74.133 35.0537 74.0874 35.0082 74.0417C34.9625 73.9962 34.9625 73.9049 34.9625 73.8138L35.7373 71.6704C35.7829 71.5792 35.874 71.5336 35.9653 71.5336C36.0564 71.5336 36.1476 71.5792 36.1931 71.6704L36.968 73.8138C36.968 73.9049 36.9223 73.9506 36.9223 74.0417Z" fill="#A4A536"/>
<path d="M47.1315 74.0416C47.0402 74.0872 46.9491 74.0416 46.9035 73.9504L43.1663 69.1166C43.1663 69.1166 43.1207 69.0709 43.0752 69.0709H41.6623C41.6167 69.0709 41.5712 69.1166 41.5712 69.1621V77.3706C41.5712 77.4162 41.6167 77.4619 41.6623 77.4619H43.2574C43.303 77.4619 43.3486 77.4162 43.3486 77.3706V72.8103C43.3486 72.7192 43.3941 72.6279 43.4853 72.5824C43.5765 72.5367 43.6677 72.5824 43.7132 72.6735L47.4504 77.5074L47.496 77.553H48.9089C48.9545 77.553 49 77.5074 49 77.4619V69.2534C49 69.2077 48.9545 69.1621 48.9089 69.1621H47.3593C47.3137 69.1621 47.2682 69.2077 47.2682 69.2534V73.9048C47.3137 73.9048 47.2226 73.9961 47.1315 74.0416Z" fill="#A4A536"/>
<path d="M53.7398 69.1622L50.5039 77.3708C50.5039 77.4164 50.5039 77.5077 50.5951 77.5077H52.327C52.3726 77.5077 52.4182 77.462 52.4182 77.462L53.0562 75.6835C53.1018 75.5922 53.193 75.5467 53.2841 75.5467H56.2009C56.2922 75.5467 56.3833 75.5922 56.4289 75.6835L57.0669 77.462C57.0669 77.5077 57.1125 77.5077 57.1581 77.5077H58.89C58.9356 77.5077 58.9811 77.462 58.9811 77.3708L55.7453 69.1622C55.7453 69.1167 55.6996 69.1167 55.654 69.1167H53.8766C53.7855 69.1167 53.7398 69.1167 53.7398 69.1622ZM55.654 74.0417C55.6085 74.0874 55.5629 74.133 55.4718 74.133H53.9222C53.831 74.133 53.7855 74.0874 53.7398 74.0417C53.6942 73.9962 53.6942 73.9049 53.6942 73.8138L54.4691 71.6704C54.5147 71.5792 54.6058 71.5336 54.6969 71.5336C54.7882 71.5336 54.8793 71.5792 54.9249 71.6704L55.6996 73.8138C55.6996 73.9049 55.6996 73.9506 55.654 74.0417Z" fill="#A4A536"/>
<path d="M60.3485 69.2079V77.4164C60.3485 77.462 60.394 77.5077 60.4396 77.5077H66.1366C66.1823 77.5077 66.2279 77.462 66.2279 77.4164V75.8659C66.2279 75.8203 66.1823 75.7747 66.1366 75.7747H62.3083C62.1716 75.7747 62.0803 75.6835 62.0803 75.5467V69.2079C62.0803 69.1622 62.0348 69.1167 61.9892 69.1167H60.4396C60.394 69.1167 60.3485 69.1622 60.3485 69.2079Z" fill="#A4A536"/>
<path d="M72.6998 76.3674C72.8821 76.0026 72.9732 75.5466 72.9732 75.045C72.9732 74.5433 72.8821 74.0874 72.6998 73.7225C72.5174 73.3577 72.2896 73.0384 71.925 72.8105C71.5603 72.5824 71.1501 72.4456 70.6489 72.4456H68.4611C68.4156 72.4456 68.37 72.4912 68.37 72.5368V77.5987C68.37 77.6443 68.4156 77.69 68.4611 77.69H70.6489C71.1501 77.69 71.5603 77.5532 71.925 77.3251C72.2896 77.0971 72.5174 76.7778 72.6998 76.3674ZM71.6516 76.2763C71.3781 76.5955 71.0134 76.7778 70.5121 76.7778H69.5094C69.3727 76.7778 69.236 76.641 69.236 76.5042V73.5857C69.236 73.4488 69.3727 73.312 69.5094 73.312H70.5121C70.9679 73.312 71.3781 73.4945 71.6516 73.8137C71.925 74.1329 72.0617 74.5433 72.0617 75.045C72.0617 75.5466 71.925 76.0026 71.6516 76.2763Z" fill="#A4A536"/>
<path d="M78.4429 73.1752C77.941 72.6736 77.303 72.4 76.5737 72.4C75.8446 72.4 75.2521 72.6279 74.7052 73.1752C74.1583 73.6767 73.9303 74.2696 73.9303 74.9993C73.9303 75.729 74.2038 76.3217 74.7052 76.8234C75.2065 77.325 75.8446 77.5986 76.5737 77.5986C77.303 77.5986 77.8955 77.3706 78.4429 76.8234C78.9443 76.3217 79.217 75.729 79.217 74.9993C79.217 74.2696 78.9443 73.6767 78.4429 73.1752ZM77.8043 76.2305C77.4853 76.5498 77.0751 76.7322 76.5737 76.7322C76.118 76.7322 75.6622 76.5498 75.3432 76.2305C75.0241 75.9113 74.8419 75.4553 74.8419 74.9993C74.8419 74.4977 75.0241 74.0873 75.3432 73.768C75.6622 73.4488 76.0724 73.2663 76.5737 73.2663C77.0751 73.2663 77.4853 73.4488 77.8043 73.768C78.1233 74.0873 78.3059 74.5432 78.3059 74.9993C78.3059 75.5009 78.1689 75.9113 77.8043 76.2305Z" fill="#A4A536"/>
<path d="M29.7667 84.9408C29.7212 84.9408 29.6756 84.9865 29.6756 84.9865C29.5389 85.3513 29.3565 85.6705 29.0831 85.9896C28.5818 86.4914 27.9437 86.765 27.26 86.765C26.5309 86.765 25.9384 86.4914 25.437 85.9896C24.9357 85.4881 24.6622 84.8497 24.6622 84.0744C24.6622 83.3447 24.9357 82.7063 25.437 82.1591C25.9384 81.6574 26.5764 81.3838 27.26 81.3838C27.9893 81.3838 28.6274 81.6574 29.0831 82.1591C29.2654 82.387 29.4478 82.6151 29.5845 82.8431C29.5845 82.8887 29.63 82.8887 29.6756 82.8887H31.4076C31.4531 82.8887 31.4987 82.8431 31.4987 82.7519C31.3163 82.0679 30.9518 81.4294 30.4049 80.8822C29.5389 80.0157 28.4906 79.5598 27.3056 79.5598C26.1206 79.5598 25.0724 80.0157 24.2064 80.8822C23.3404 81.7487 22.8848 82.7975 22.8848 84.0287C22.8848 85.2601 23.3404 86.3089 24.2064 87.1754C25.0724 88.0419 26.1206 88.4978 27.3056 88.4978C28.4906 88.4978 29.5389 88.0419 30.4049 87.1754C30.9973 86.5369 31.4076 85.8073 31.5898 84.9865C31.5898 84.9408 31.5443 84.8952 31.4987 84.8952H29.7667V84.9408Z" fill="#A4A536"/>
<path d="M29.7667 74.1785C29.7211 74.1785 29.6756 74.2242 29.6756 74.2242C29.5389 74.5889 29.3565 74.9082 29.0831 75.2274C28.5818 75.729 27.9437 76.0026 27.26 76.0026C26.5308 76.0026 25.9384 75.729 25.437 75.2274C24.9357 74.7257 24.6622 74.0874 24.6622 73.312C24.6622 72.5825 24.9357 71.944 25.437 71.3967C25.9384 70.8952 26.5764 70.6216 27.26 70.6216C27.9893 70.6216 28.6273 70.8952 29.0831 71.3967C29.2654 71.6247 29.4476 71.8528 29.5844 72.0808C29.5844 72.1264 29.63 72.1264 29.6756 72.1264H31.4074C31.4531 72.1264 31.4987 72.0808 31.4987 71.9896C31.3163 71.3056 30.9518 70.6671 30.4047 70.1198C29.5389 69.2534 28.4906 68.7974 27.3056 68.7974C26.1206 68.7974 25.0724 69.2534 24.2064 70.1198C23.3404 70.9863 22.8846 72.0351 22.8846 73.2665C22.8846 74.4978 23.3404 75.5466 24.2064 76.4131C25.0724 77.2795 26.1206 77.7356 27.3056 77.7356C28.4906 77.7356 29.5389 77.2795 30.4047 76.4131C30.9973 75.7747 31.4074 75.045 31.5898 74.2242C31.5898 74.1785 31.5442 74.1329 31.4987 74.1329H29.7667V74.1785Z" fill="#A4A536"/>
<path d="M36.2387 79.7421H32.775C32.7293 79.7421 32.6837 79.7876 32.6837 79.8332V88.4066C32.6837 88.4522 32.7293 88.4978 32.775 88.4978H34.3701C34.4157 88.4978 34.4613 88.4522 34.4613 88.4066V85.7617C34.4613 85.6249 34.5524 85.5336 34.6891 85.5336H36.2844C36.3755 85.5336 36.4211 85.5792 36.4666 85.6704L37.8795 88.4522C37.8795 88.4978 37.9251 88.4978 37.9706 88.4978H39.338C39.3834 88.4978 39.4291 88.4066 39.4291 88.361L37.9706 85.4424C37.9251 85.3968 37.9251 85.3056 37.9706 85.26C37.9706 85.2143 38.0162 85.1688 38.0618 85.1232C38.2896 84.9863 38.472 84.8495 38.6543 84.7127C39.2012 84.1655 39.4291 83.4815 39.4291 82.615C39.4291 81.7942 39.1556 81.1558 38.6543 80.5629C38.0618 80.0157 37.2869 79.7421 36.2387 79.7421ZM36.1476 84.0743H34.6891C34.5524 84.0743 34.4613 83.9831 34.4613 83.8463V81.3837C34.4613 81.2469 34.5524 81.1558 34.6891 81.1558H36.1476C36.6489 81.1558 37.0135 81.2926 37.2414 81.5662C37.4693 81.8398 37.606 82.2046 37.606 82.615C37.606 83.5726 37.1047 84.0743 36.1476 84.0743Z" fill="#A4A536"/>
<path d="M42.6649 88.361V79.8332C42.6649 79.7876 42.6193 79.7421 42.5737 79.7421H40.9786C40.9329 79.7421 40.8873 79.7876 40.8873 79.8332V88.4066C40.8873 88.4522 40.9329 88.4978 40.9786 88.4978H42.5737C42.6193 88.4522 42.6649 88.4066 42.6649 88.361Z" fill="#A4A536"/>
<path d="M47.3593 79.7876L44.1689 88.361C44.1689 88.4066 44.1689 88.4978 44.2601 88.4978H45.992C46.0376 88.4978 46.0831 88.4522 46.0831 88.4522L46.7213 86.628C46.7667 86.5369 46.858 86.4912 46.9491 86.4912H49.866C49.9571 86.4912 50.0483 86.5369 50.0938 86.628L50.7319 88.4522C50.7319 88.4978 50.7776 88.4978 50.8231 88.4978H52.555C52.6005 88.4978 52.6461 88.4522 52.6461 88.361L49.4558 79.7876C49.4558 79.7421 49.4102 79.7421 49.3647 79.7421H47.6327C47.4049 79.7421 47.3593 79.7421 47.3593 79.7876ZM49.228 84.8495C49.1823 84.8952 49.1367 84.9407 49.0456 84.9407H47.5416C47.4504 84.9407 47.4049 84.8952 47.3593 84.8495C47.3137 84.8039 47.3137 84.7127 47.3137 84.6216L48.0885 82.387C48.1341 82.2957 48.2253 82.2502 48.3164 82.2502C48.4076 82.2502 48.4987 82.2957 48.5443 82.387L49.3191 84.5759C49.2734 84.7127 49.2734 84.8039 49.228 84.8495Z" fill="#A4A536"/>
<path d="M61.0322 86.3089C61.3056 85.6704 61.4423 84.9407 61.4423 84.0743C61.4423 83.2535 61.3056 82.5238 61.0322 81.8853C60.7587 81.2469 60.3029 80.6997 59.756 80.3348C59.1635 79.9244 58.4798 79.7421 57.6595 79.7421H54.0134C53.9677 79.7421 53.9222 79.7876 53.9222 79.8332V88.4066C53.9222 88.4522 53.9677 88.4978 54.0134 88.4978H57.6595C58.4798 88.4978 59.1635 88.3153 59.756 87.9049C60.3485 87.4945 60.7587 86.9473 61.0322 86.3089ZM59.118 85.944C58.7077 86.4001 58.1608 86.6737 57.4771 86.6737H55.882C55.7453 86.6737 55.6541 86.5825 55.6541 86.4457V81.7942C55.6541 81.6574 55.7453 81.5662 55.882 81.5662H57.4771C58.1608 81.5662 58.7077 81.7942 59.118 82.2502C59.4825 82.7062 59.7104 83.3447 59.7104 84.1199C59.7104 84.8495 59.4825 85.4881 59.118 85.944Z" fill="#A4A536"/>
<path d="M69.9195 81.019C69.0992 80.1525 68.051 79.7421 66.8659 79.7421C65.681 79.7421 64.6783 80.1525 63.8579 81.019C62.992 81.8853 62.5818 82.8886 62.5818 84.1199C62.5818 85.3056 62.992 86.3544 63.8579 87.2209C64.6783 88.0874 65.7265 88.4978 66.8659 88.4978C68.051 88.4978 69.0536 88.0874 69.9195 87.2209C70.7399 86.3544 71.1957 85.3511 71.1957 84.1199C71.1501 82.8886 70.7399 81.8398 69.9195 81.019ZM68.6434 85.944C68.1421 86.4457 67.5496 86.7193 66.8203 86.7193C66.1367 86.7193 65.4987 86.4457 65.0429 85.944C64.5416 85.4424 64.3136 84.8039 64.3136 84.0743C64.3136 83.3447 64.5416 82.7062 65.0429 82.2046C65.5442 81.703 66.1367 81.4294 66.8203 81.4294C67.5496 81.4294 68.1421 81.703 68.6434 82.2046C69.1448 82.7062 69.3726 83.3447 69.3726 84.0743C69.3726 84.8495 69.1448 85.4424 68.6434 85.944Z" fill="#A4A536"/>
<path d="M76.0267 79.7421H72.5629C72.5173 79.7421 72.4718 79.7876 72.4718 79.8332V88.4066C72.4718 88.4522 72.5173 88.4978 72.5629 88.4978H74.1581C74.2036 88.4978 74.2493 88.4522 74.2493 88.4066V85.7617C74.2493 85.6249 74.3404 85.5336 74.4771 85.5336H76.0723C76.1634 85.5336 76.209 85.5792 76.2547 85.6704L77.6674 88.4522C77.6674 88.4978 77.713 88.4978 77.7586 88.4978H79.1264C79.1717 88.4978 79.2169 88.4066 79.2169 88.361L77.7586 85.4424C77.713 85.3968 77.713 85.3056 77.7586 85.26C77.7586 85.2143 77.8041 85.1688 77.8498 85.1232C78.0777 84.9863 78.2606 84.8495 78.4428 84.7127C78.9894 84.1655 79.2169 83.4815 79.2169 82.615C79.2169 81.7942 78.9442 81.1558 78.4428 80.5629C77.8041 80.0157 77.0294 79.7421 76.0267 79.7421ZM76.9383 84.0743H74.4771C74.3404 84.0743 74.2493 83.9831 74.2493 83.8463V81.3837C74.2493 81.2469 74.3404 81.1558 74.4771 81.1558H75.9356C76.4369 81.1558 76.8016 81.2926 77.0294 81.5662C77.5307 82.1134 77.5307 82.9798 77.0294 84.0287C76.9838 84.0743 76.9383 84.0743 76.9383 84.0743Z" fill="#A4A536"/>
<path d="M53.9733 11.0512C54.657 11.0512 55.2039 11.5984 55.2039 12.2825L55.2495 57.5661C55.2495 58.2502 54.7026 58.7974 54.019 58.7974C53.3353 58.7974 52.7883 58.2502 52.7883 57.5661L52.7428 12.2825C52.7428 11.5984 53.2897 11.0512 53.9733 11.0512Z" fill="#C8BA3C"/>
<path d="M57.5738 15.2469H57.7105C58.3485 15.2469 58.8499 15.7485 58.8499 16.387L58.8955 52.2308C58.8955 52.8692 58.3941 53.3709 57.7561 53.3709H57.6194C56.9812 53.3709 56.4799 52.8692 56.4799 52.2308L56.4343 16.3414C56.4343 15.7485 56.9357 15.2469 57.5738 15.2469Z" fill="#C8BA3C"/>
<path d="M61.3566 11.0512C62.0403 11.0512 62.5872 11.5984 62.5872 12.2825V35.8592C62.5872 36.5432 62.0403 37.0905 61.3566 37.0905C60.673 37.0905 60.1261 36.5432 60.1261 35.8592V12.2825C60.1261 11.644 60.673 11.0512 61.3566 11.0512Z" fill="#B19939"/>
<path d="M64.9117 26.2372H65.1851C65.7777 26.2372 66.2791 26.7389 66.2791 27.3316V35.9962C66.2791 36.5891 65.7777 37.0907 65.1851 37.0907H64.9117C64.3193 37.0907 63.8179 36.5891 63.8179 35.9962V27.3316C63.8179 26.7389 64.2737 26.2828 64.9117 26.2372Z" fill="#B19939"/>
<path d="M68.6945 21.2665H68.7402C69.4238 21.2665 69.9251 21.8138 69.9251 22.4522V31.8921C69.9251 32.5761 69.3782 33.0777 68.7402 33.0777H68.6945C68.0109 33.0777 67.5096 32.5304 67.5096 31.8921V22.4522C67.464 21.8138 68.0109 21.2665 68.6945 21.2665Z" fill="#B38D32"/>
<path d="M72.3862 26.2827H72.4317C73.1153 26.2827 73.6167 26.8299 73.6167 27.4683V35.6312C73.6167 36.3153 73.0698 36.8169 72.4317 36.8169H72.3862C71.7025 36.8169 71.2011 36.2697 71.2011 35.6312V27.4683C71.1556 26.8299 71.7025 26.2827 72.3862 26.2827Z" fill="#B38D32"/>
<path d="M76.0323 24.3674H76.1234C76.7615 24.3674 77.3084 24.9146 77.3084 25.553V31.9374C77.3084 32.5759 76.7615 33.1231 76.1234 33.1231H76.0323C75.3942 33.1231 74.8473 32.5759 74.8473 31.9374V25.553C74.8473 24.9146 75.3942 24.3674 76.0323 24.3674Z" fill="#926928"/>
<path d="M79.5415 29.2012H79.9973C80.5442 29.2012 81 29.6572 81 30.2045V31.0253C81 31.5725 80.5442 32.0286 79.9973 32.0286H79.5415C78.9946 32.0286 78.5389 31.5725 78.5389 31.0253V30.2045C78.5389 29.6572 78.9946 29.2012 79.5415 29.2012Z" fill="#926928"/>
<path d="M51.1931 13.1947C51.1931 11.9178 50.0537 10.9146 48.7776 11.0058C48.5497 11.0058 48.3218 11.0514 48.185 11.0514C47.4103 11.1882 46.681 11.2794 45.9518 11.4618C44.6758 11.8266 43.0349 12.4195 42.0323 13.6051C41.85 13.5139 41.6676 13.4227 41.4398 13.4227C40.984 13.4227 40.6195 13.6963 40.4371 14.0612C38.0671 13.7875 36.791 13.7419 34.8768 14.4716C33.3728 15.0644 32.9626 15.7941 33.0537 16.7061C33.0994 17.4814 35.3781 19.5791 36.0617 20.3088C36.1074 20.3543 36.1074 20.3999 36.153 20.3999C36.0617 20.5368 36.0617 20.7192 36.0617 20.9016C36.0617 21.2664 36.2441 21.5856 36.472 21.8136C36.153 22.8169 36.0162 23.0449 35.7428 24.0938C35.6061 24.0938 35.4693 24.0938 35.3781 24.0938C34.5122 24.0482 33.6463 23.9113 32.7803 23.9113C31.9143 23.9113 31.0484 23.957 30.1825 24.1394C29.2709 24.2762 28.405 24.4586 27.539 24.8235C26.6275 25.1882 25.716 25.6443 24.8044 26.1004C24.1208 26.4651 23.4372 26.8756 22.7991 27.286C21.7964 27.8789 20.8849 28.5172 20.2924 29.4749C19.8822 30.1589 19.8822 31.1167 20.4291 31.7094C20.7481 32.0287 21.1128 32.3023 21.4774 32.5303C23.3004 33.4424 30.5015 38.778 36.3353 33.8072C36.472 33.6704 37.4746 32.9407 37.7481 32.7127C37.2924 33.1231 36.8366 34.4457 36.8366 34.9473C36.8366 36.2242 37.1557 37.3643 37.7481 38.5044C38.0671 39.0971 38.4317 39.69 38.842 40.2372C39.2977 40.9212 39.7991 41.5597 39.8902 42.3349C39.9813 42.8822 39.9358 43.475 39.9358 44.0222C39.8902 45.1167 40.0725 46.1656 40.6649 47.1233C40.984 47.6249 41.1207 48.1721 41.0751 48.8106C41.0296 49.2665 40.984 49.7682 40.984 50.2242C40.984 51.3188 41.0751 52.3676 41.3487 53.4165C41.5765 54.3741 41.8956 55.5141 42.716 56.1526C43.3084 56.6542 43.9465 57.1103 44.6301 57.5207C45.3138 57.9311 46.043 58.2504 46.7723 58.4783C47.228 58.6151 48.0028 58.7519 48.8232 58.7519C50.0993 58.7519 51.1475 57.7943 51.1475 56.563L51.1931 13.1947Z" fill="#A4A536"/>
</svg>
