<svg width="100" height="100" viewBox="0 0 100 100" fill="none" xmlns="http://www.w3.org/2000/svg">
<g clip-path="url(#clip0_840_1801)">
<path d="M60.7397 14C60.7397 17.5476 60.7397 21.0953 60.7397 24.6541C60.7397 27.9394 60.7397 31.2247 60.7397 34.5096C60.7397 34.7378 60.728 34.8519 60.4315 34.8519C53.8485 34.8406 47.2656 34.8406 40.6827 34.8519C40.4773 34.8519 40.3745 34.829 40.3745 34.5783C40.3861 27.7341 40.3861 20.89 40.3861 14.0341C40.3861 14.0229 40.3861 14.0112 40.3861 14C47.1856 14 53.9627 14 60.7397 14V14Z" fill="#3FAE59"/>
<path d="M9 78.7344C9.09121 78.3696 9.15952 78.0044 9.2624 77.6509C9.94715 75.1414 12.0576 73.362 14.6362 73.0538C16.8608 72.7915 18.8005 73.3391 20.432 74.9132C20.5915 75.0727 20.5915 75.1756 20.4661 75.3351C19.9984 75.8714 19.519 76.4074 19.0629 76.955C18.9142 77.1374 18.823 77.1491 18.6405 76.9662C17.9216 76.2708 17.089 75.7232 16.0848 75.5633C14.1456 75.2555 12.5366 76.2479 11.9664 78.1298C11.5328 79.5556 11.7381 80.8903 12.6624 82.0768C13.8715 83.6168 15.8453 83.8904 17.6138 82.818C18.0358 82.5557 18.424 82.2479 18.7776 81.8944C18.8571 81.8144 18.9029 81.7115 19.04 81.8598C19.4619 82.3162 19.9071 82.7497 20.3403 83.1945C20.6598 83.5256 20.6714 83.5256 20.3403 83.8674C19.3819 84.8373 18.264 85.5557 16.9179 85.8297C14.6133 86.2857 12.5482 85.818 10.8368 84.1415C9.81011 83.1262 9.2624 81.8598 9.0683 80.4456C9.05706 80.3773 9.07997 80.3086 9 80.2632C9 79.7497 9 79.2479 9 78.7344Z" fill="#384294"/>
<path d="M72.1258 36.9165C75.6054 36.9165 79.0853 36.9165 82.5648 36.9053C82.8501 36.9053 82.9526 36.9623 82.9526 37.2817C82.9413 40.43 82.9413 43.5783 82.9526 46.7265C82.9526 47.0118 82.8843 47.0913 82.5877 47.0913C76.8603 47.103 71.1329 47.1259 65.3942 47.1484C64.2763 47.1484 63.1584 47.1829 62.04 47.1713C61.7206 47.1713 61.641 47.2625 61.641 47.5706C61.6523 54.1978 61.6523 60.8254 61.6523 67.453C61.6523 68.0119 61.7093 67.9319 61.1845 67.9319C58.1153 67.9319 55.0464 67.9319 51.9888 67.9319C51.4753 67.9319 51.4753 67.9319 51.4753 67.4301C51.4753 61.236 51.4753 55.0536 51.4753 48.8595C51.4753 47.7759 51.4528 46.6924 51.6123 45.62C52.2171 41.5136 54.7386 38.4107 58.9254 37.3042C60.2149 36.9623 61.5269 36.8936 62.8614 36.9053C65.9419 36.9394 69.0337 36.9165 72.1258 36.9165V36.9165Z" fill="#3FAE59"/>
<path d="M29.3878 36.9053C32.5936 36.9053 35.7995 36.8937 39.0054 36.9053C41.4016 36.9166 43.6603 37.4413 45.6571 38.8443C47.7334 40.3043 48.9312 42.3461 49.479 44.7989C49.7414 45.9849 49.8213 47.183 49.7755 48.4032C49.7526 48.8937 49.7643 49.396 49.7643 49.8861C49.7643 55.7608 49.7643 61.6467 49.7755 67.5214C49.7755 67.8408 49.7184 67.9437 49.3648 67.9437C46.2389 67.932 43.1126 67.932 39.9867 67.9437C39.656 67.9437 39.5648 67.875 39.5648 67.5327C39.576 60.8826 39.5648 54.2325 39.576 47.582C39.576 47.2401 39.4848 47.1713 39.1537 47.1713C32.9814 47.1601 26.8208 47.1372 20.6486 47.1143C19.9638 47.1143 19.2907 47.0802 18.6064 47.1031C18.3211 47.1143 18.264 47.0002 18.264 46.7495C18.2753 43.6012 18.2753 40.4525 18.264 37.3043C18.264 36.9849 18.3553 36.9278 18.6518 36.9278C22.2342 36.9278 25.8166 36.9166 29.3878 36.9053C29.3878 36.9166 29.3878 36.9166 29.3878 36.9053V36.9053Z" fill="#3FAE59"/>
<path d="M54.2363 77.2173C54.2363 75.9968 54.248 74.7762 54.225 73.5556C54.225 73.2362 54.3163 73.1791 54.6128 73.1791C55.2859 73.202 55.9477 73.202 56.6208 73.1791C56.8832 73.1679 56.9403 73.2591 56.9403 73.5102C56.929 75.8714 56.929 78.2326 56.9403 80.5938C56.9519 81.5633 57.2143 82.4303 58.0698 83.0233C59.1082 83.7308 60.7397 83.6396 61.6064 82.818C62.1883 82.2708 62.3824 81.5633 62.3936 80.822C62.4165 78.4267 62.4165 76.0309 62.4053 73.6356C62.4053 73.2932 62.4736 73.1791 62.8389 73.202C63.4891 73.2362 64.1509 73.2137 64.8123 73.202C65.0181 73.202 65.1093 73.2362 65.1093 73.4761C65.0976 75.8597 65.1318 78.2439 65.0864 80.628C65.0635 82.0655 64.7098 83.4343 63.6486 84.5062C62.8501 85.3162 61.8576 85.7385 60.7509 85.9097C59.7242 86.0691 58.7088 86.0233 57.7046 85.7268C55.7995 85.1567 54.7386 83.8562 54.3621 81.9397C54.1338 80.7421 54.248 79.5332 54.225 78.3238C54.2363 77.9474 54.2363 77.5826 54.2363 77.2173V77.2173Z" fill="#384294"/>
<path d="M32.9814 77.5598C32.9589 78.5975 33.0272 79.8527 32.936 81.1074C32.719 83.8792 31.0992 85.6357 28.361 85.9322C27.0261 86.0805 25.737 85.9439 24.5504 85.2934C23.1243 84.5064 22.4512 83.2292 22.2117 81.6663C22.1205 81.0387 22.1317 80.3999 22.1317 79.7727C22.1317 77.6968 22.1317 75.6204 22.1205 73.5445C22.1205 73.2709 22.1771 73.1568 22.4741 73.168C23.1355 73.1909 23.7861 73.1909 24.4475 73.168C24.7328 73.1568 24.8128 73.2363 24.8128 73.5332C24.8016 75.7004 24.8016 77.8675 24.8128 80.0351C24.8128 80.4686 24.8357 80.9021 24.9152 81.3468C25.1781 82.8639 26.5013 83.6281 27.9045 83.4686C29.5131 83.2858 30.2891 82.3505 30.3003 80.6168C30.3232 78.2669 30.312 75.9169 30.3003 73.5674C30.3003 73.248 30.392 73.1909 30.6885 73.1909C31.3616 73.2138 32.0234 73.2138 32.6965 73.1909C32.9472 73.1792 33.0043 73.2709 33.0043 73.4987C32.9814 74.788 32.9814 76.0652 32.9814 77.5598V77.5598Z" fill="#384294"/>
<path d="M47.4822 73.2021C49.0912 73.2021 50.711 73.2021 52.3195 73.2021C52.5707 73.2021 52.6619 73.248 52.6507 73.5216C52.6278 74.1604 52.639 74.8104 52.6507 75.4609C52.6507 75.6775 52.5819 75.7345 52.3766 75.7345C51.3387 75.7233 50.3003 75.7345 49.2619 75.7345C48.8059 75.7345 48.8059 75.7345 48.8059 76.2138C48.8059 79.2934 48.8059 82.3621 48.8171 85.4421C48.8171 85.7611 48.7371 85.8527 48.4181 85.841C47.7675 85.8181 47.1057 85.8181 46.4443 85.841C46.1477 85.8527 46.0906 85.7498 46.0906 85.4646C46.1019 82.3621 46.0906 79.2709 46.1019 76.168C46.1019 75.8257 46.0219 75.7116 45.6683 75.7233C44.6528 75.7462 43.6374 75.7233 42.6219 75.7345C42.4054 75.7345 42.3254 75.6775 42.3254 75.4492C42.3371 74.7992 42.3483 74.1604 42.3254 73.5103C42.3141 73.2592 42.4054 73.2138 42.6336 73.2138C44.2651 73.2021 45.8736 73.2021 47.4822 73.2021V73.2021Z" fill="#384294"/>
<path d="M35.423 79.4874C35.423 77.5139 35.4346 75.5521 35.4117 73.5786C35.4117 73.2363 35.5142 73.1568 35.8336 73.168C36.4726 73.1909 37.1232 73.1909 37.7733 73.168C38.0699 73.1568 38.127 73.248 38.127 73.5332C38.1157 76.6586 38.1269 79.7727 38.1157 82.8981C38.1157 83.2062 38.184 83.3087 38.5035 83.2974C40.3861 83.2858 42.2571 83.2974 44.1397 83.2858C44.4021 83.2858 44.4933 83.3428 44.4816 83.6168C44.4592 84.2557 44.4704 84.9057 44.4816 85.5558C44.4816 85.7498 44.4475 85.841 44.2192 85.841C41.3786 85.8298 38.5264 85.8298 35.6854 85.841C35.3888 85.841 35.4117 85.6815 35.4117 85.4875C35.423 83.5027 35.423 81.4951 35.423 79.4874V79.4874Z" fill="#384294"/>
<path d="M91.0416 83.5256C89.5814 80.1833 88.1211 76.841 86.672 73.4874C86.5579 73.2138 86.4096 73.1109 86.1131 73.1222C85.5883 73.1451 85.0518 73.1451 84.527 73.1222C84.2763 73.1109 84.1734 73.2138 84.0709 73.4303C83.0213 75.8486 81.9488 78.2668 80.8875 80.6851C80.2032 82.248 79.5185 83.8221 78.8341 85.385C78.663 85.784 78.663 85.784 79.0853 85.784C79.7696 85.784 80.4427 85.7727 81.1275 85.784C81.3211 85.784 81.424 85.7269 81.504 85.5333C81.8347 84.7345 82.1883 83.9591 82.519 83.1604C82.6106 82.9551 82.7019 82.8639 82.9413 82.8639C84.5045 82.8751 86.0789 82.8751 87.6417 82.8639C87.8816 82.8639 87.984 82.9551 88.064 83.1604C88.3835 83.9475 88.7258 84.7233 89.0453 85.5104C89.1249 85.7157 89.2277 85.784 89.4443 85.784C90.3003 85.7727 91.1445 85.784 92 85.784C92 85.7611 92 85.7386 92 85.7157C91.6918 84.9857 91.3611 84.2556 91.0416 83.5256ZM83.911 80.4227C83.7969 80.4227 83.7286 80.3886 83.7856 80.2633C84.2875 79.0881 84.8011 77.9133 85.3371 76.6698C85.8961 77.9591 86.4209 79.168 86.9803 80.4227C85.9077 80.4227 84.9035 80.4227 83.911 80.4227V80.4227Z" fill="#384294"/>
<path d="M74.8981 81.0503C75.0347 81.0044 75.1264 80.9591 75.2176 80.9245C77.8987 79.9892 78.184 76.6244 76.8491 74.9244C75.959 73.7838 74.7498 73.3274 73.392 73.282C71.4069 73.2137 69.4331 73.2708 67.448 73.2591C67.1968 73.2591 67.1398 73.3391 67.1398 73.5785C67.1515 74.6962 67.1398 75.8144 67.1398 76.9321C67.1398 79.7726 67.1515 82.6015 67.1285 85.442C67.1285 85.7839 67.2314 85.8639 67.5505 85.8526C68.1781 85.8297 68.8171 85.8297 69.456 85.8526C69.7526 85.8639 69.8667 85.7956 69.8667 85.4645C69.8438 84.2785 69.8667 83.092 69.8554 81.9056C69.8554 81.6662 69.9237 81.5862 70.1632 81.5974C70.6997 81.6091 71.247 81.6091 71.7835 81.5974C72 81.5862 72.1142 81.6774 72.2283 81.8373C73.0726 83.0579 73.9397 84.2668 74.784 85.4874C74.9323 85.7044 75.0918 85.7839 75.3542 85.7839C76.1985 85.7727 77.0315 85.7839 77.8757 85.7727C77.967 85.7727 78.0811 85.818 78.1723 85.7156C77.0998 84.1644 76.016 82.6356 74.8981 81.0503V81.0503ZM74.784 77.9245C74.6586 78.5179 74.0309 79.0538 73.3008 79.145C72.217 79.2821 71.1329 79.1792 70.0491 79.2138C69.8554 79.2138 69.8554 79.0997 69.8554 78.9626C69.8554 78.4608 69.8554 77.9474 69.8554 77.4456C69.8554 76.955 69.8667 76.4532 69.8554 75.9626C69.8554 75.7802 69.8896 75.7003 70.0949 75.7003C71.0646 75.7115 72.0342 75.689 73.0042 75.7232C74.3046 75.7461 75.0576 76.7039 74.784 77.9245Z" fill="#384294"/>
</g>
<defs>
<clipPath id="clip0_840_1801">
<rect width="83" height="72" fill="white" transform="translate(9 14)"/>
</clipPath>
</defs>
</svg>
