<?xml version="1.0" encoding="UTF-8"?>
<svg xmlns="http://www.w3.org/2000/svg" width="256.00006" height="256.25" viewBox="0 0 400.0 130.0">
  <g>
    <path d="M72.63,0L74.5,0Q85.83,0.26 95.24,2.21Q109.71,5.23 122.61,14.22Q123.07,14.54 123.18,13.98L124.98,4.36Q125.08,3.81 125.65,3.81L161.56,3.81A0.63,0.63 0,0 1,162.18 4.57L151.79,55.47Q151.5,56.91 152.43,55.77L194.8,4.28Q195.19,3.81 195.79,3.81L231.52,3.81Q232.03,3.81 232.26,4.26L251.87,42.43A0.35,0.35 0,0 0,252.47 42.48L280.68,4.27Q281.02,3.81 281.58,3.81L323.24,3.81A0.37,0.37 0,0 1,323.53 4.41Q293.35,41.85 264.26,77.87Q263.12,79.28 262.79,81.07Q258.86,102 254.32,125.43Q254.16,126.27 253.3,126.27L173.74,126.27A0.74,0.74 0,0 1,173.09 125.88L147.84,78.38Q147.47,77.7 147.33,78.46L138.82,125.55Q138.69,126.27 137.96,126.27L101.94,126.27A0.42,0.42 0,0 1,101.53 125.78L106.5,99.85Q106.52,99.77 106.44,99.76Q106.29,99.73 106.19,99.8Q105.99,99.94 105.89,100.15Q97.51,119.25 79.24,126.13Q71.82,128.93 61.37,130L43.76,130Q36.8,129.16 31.51,127.99C19.87,125.44 8.18,119.94 0,110.86Q0.01,110.89 0,110.92L20.09,86.25A0.48,0.48 0,0 1,20.78 86.2Q31.31,95.89 45.59,98.43C52.8,99.71 59.9,100.37 66.78,97.92C71.21,96.34 74.88,92.06 72.76,87.27C71.65,84.77 68.91,82.99 66.39,82.03C64.54,81.34 62.7,80.55 60.78,80.07Q53.54,78.28 45.77,76.18Q36.17,73.57 28.98,68.18C18.45,60.27 15.41,48.79 18.32,36.21C22.63,17.55 37.51,5.72 55.77,1.96Q64.08,0.25 72.63,0ZM106.85,41.11A0.6,0.59 34.9,0 1,106.09 41.24C93.17,33.51 79.82,29.03 64.76,30.3C62.75,30.47 60.53,31.25 58.77,32.2Q54.79,34.36 54.55,39.3C54.34,43.38 61.68,45.57 64.76,46.2Q74.94,48.26 84.24,51.01C97.23,54.86 108.86,62.66 110.65,76.95A0.16,0.16 0,0 0,110.96 76.96L121.15,24.2Q121.33,23.29 120.74,24.01L106.85,41.11ZM217.09,125.46A0.3,0.3 0,0 0,217.65 125.37L227.71,73.76A0.3,0.3 0,0 0,227.68 73.55L209.16,40A0.3,0.3 0,0 0,208.67 39.94L184.55,67.69A0.3,0.3 0,0 0,184.51 68.03L217.09,125.46Z" fill="#E81C24" />
    <path d="M338.21,83.25L309.31,83.24Q308.73,83.24 309.02,82.74Q309.09,82.61 309.19,82.52A0.3,0.29 -14.4,0 0,309.3 82.34L313.33,60.77Q313.43,60.23 313.98,60.23L342.74,60.22Q343.24,60.22 343.33,59.74L348.2,33.94Q348.32,33.31 348.96,33.31L374.27,33.31Q374.95,33.31 374.83,33.98L370.05,59.72Q369.95,60.23 370.47,60.23L399.15,60.23Q399.83,60.22 399.71,60.9L395.59,82.66Q395.47,83.25 394.87,83.25L366.18,83.25Q365.6,83.25 365.49,83.82L360.82,109.82Q360.65,110.79 359.66,110.79L334.47,110.76Q333.94,110.75 334.03,110.23L338.82,83.98Q338.95,83.25 338.21,83.25Z" fill="#E81C24" />
  </g>
</svg>
