<svg width="100" height="100" viewBox="0 0 100 100" fill="none" xmlns="http://www.w3.org/2000/svg">
<path d="M8.59473 36.8093V39.1654L12.965 39.2016C12.965 39.2016 12.9998 46.6848 13.0064 52.1753H16.5513L16.5772 39.1783L21.1933 39.199C21.214 39.2249 21.2243 40.9596 21.2269 45.7053L21.2347 52.1753C22.412 52.1816 23.5893 52.1848 24.7666 52.1883C24.769 49.7848 24.7744 47.3813 24.7795 44.9778L30.3013 44.9985C30.3532 47.5768 30.3361 49.1561 30.3427 52.1753L37.3315 52.1831L44.3203 52.1883L46.1575 47.9811L52.2769 48.0121L54.1347 52.1883H57.7055C57.7055 52.1883 53.2936 41.92 51.0375 36.8223L47.4072 36.8352L41.7535 49.7287L41.7173 49.7934L37.8309 49.8012C34.9717 49.8038 33.9367 49.7986 33.9108 49.7779C33.848 48.0397 33.8805 47.1345 33.8875 44.9519L40.615 44.926V42.6217L33.9082 42.5803C33.8503 41.3515 33.8805 40.7094 33.8875 39.1783L42.685 39.1524L42.6824 39.0799C42.679 38.2758 42.6761 37.6637 42.6721 36.8093H30.3297C30.3273 38.7382 30.322 40.667 30.3168 42.5959L24.8028 42.5803C24.7375 40.504 24.7666 39.4172 24.7666 36.8093H8.59473ZM54.3935 36.8093V39.1654L58.6603 39.2016C58.7119 43.8716 58.6951 46.6848 58.7017 52.1753H60.4612H62.2207C62.2293 47.843 62.2379 43.5107 62.2465 39.1783H66.4383C66.4469 43.5107 66.4555 47.843 66.4642 52.1753H82.2479L82.2738 45.9357C84.3688 48.0381 86.5425 50.0619 88.6132 52.1883H92.6367L86.4293 45.6716C86.4397 45.6432 86.6053 45.5862 86.6777 45.5862C86.7088 45.5862 86.7424 45.5758 86.7502 45.5603C86.7579 45.5448 86.7993 45.5344 86.8407 45.5344C86.8821 45.5344 86.9235 45.5215 86.9313 45.5085C86.939 45.493 86.9753 45.4826 87.0089 45.4826C87.0425 45.4826 87.0762 45.4723 87.0839 45.4593C87.0917 45.449 87.146 45.4309 87.203 45.4205C87.2625 45.4127 87.3298 45.3946 87.353 45.3817C87.3763 45.3687 87.4255 45.348 87.4617 45.3325C87.4979 45.3195 87.5678 45.2885 87.617 45.2678C87.6661 45.247 87.7722 45.203 87.8498 45.1694C87.9275 45.1357 88.0336 45.0865 88.0827 45.0606C88.3311 44.9208 88.4113 44.8768 88.4631 44.8509C88.4967 44.8354 88.5226 44.8147 88.5226 44.8017C88.5226 44.7914 88.5329 44.7836 88.5485 44.7836C88.5692 44.7836 88.8745 44.5791 88.9547 44.5117C88.9728 44.4988 89.0013 44.4729 89.0194 44.46C89.0893 44.403 89.4412 44.1001 89.467 44.0742C89.4826 44.0587 89.5679 43.9577 89.6611 43.8515C89.7542 43.7454 89.8345 43.6522 89.8422 43.6444C89.8707 43.6185 90.0492 43.3596 90.0492 43.3441C90.0492 43.3363 90.0725 43.2975 90.0984 43.2586C90.1734 43.1551 90.2821 42.9428 90.2821 42.9039C90.2821 42.8832 90.295 42.8677 90.308 42.8677C90.3235 42.8677 90.3338 42.8444 90.3338 42.8185C90.3338 42.79 90.3442 42.7616 90.3571 42.7538C90.3701 42.746 90.3856 42.7124 90.3934 42.6813C90.4011 42.6476 90.427 42.557 90.4503 42.4793C90.5771 42.0573 90.6029 41.8709 90.6029 41.3272C90.6029 41.0554 90.59 40.7654 90.5719 40.68C90.5098 40.3537 90.4943 40.2864 90.4296 40.0974C90.2536 39.5693 89.9612 39.111 89.5033 38.6501C88.7969 37.9407 87.9715 37.5058 86.745 37.2003C86.6906 37.1847 86.5949 37.1614 86.5302 37.1459C86.4655 37.1304 86.3465 37.1071 86.2663 37.0915C86.1835 37.0786 86.0489 37.0553 85.9687 37.0423C85.7514 37.0009 85.5263 36.9673 85.3917 36.9517C84.913 36.8974 84.7345 36.8792 84.3697 36.8559C73.5709 36.8061 66.4509 36.8178 54.3935 36.8093ZM82.5201 39.0673C82.9433 39.066 83.8108 39.0883 84.1368 39.1136C84.6569 39.1524 85.2779 39.2456 85.5599 39.3259C86.6363 39.6288 87.2263 40.1026 87.4203 40.8224C87.4876 41.0761 87.5212 41.3298 87.5031 41.4722C87.4643 41.8062 87.4565 41.8476 87.4358 41.8968C87.4255 41.9253 87.4074 41.9848 87.3996 42.0314C87.366 42.2308 87.159 42.5777 86.9442 42.7926C86.7967 42.9428 86.5561 43.1266 86.5095 43.1266C86.494 43.1266 86.4785 43.137 86.4733 43.1473C86.4655 43.1654 86.1317 43.3337 85.9868 43.3907C85.9506 43.4062 85.9015 43.4269 85.8782 43.4399C85.8549 43.4528 85.7876 43.471 85.7281 43.4787C85.6712 43.4891 85.6168 43.5072 85.6091 43.5176C85.6013 43.5305 85.5625 43.5409 85.5211 43.5409C85.4797 43.5409 85.4383 43.5512 85.4305 43.5667C85.4228 43.5797 85.3762 43.5926 85.3296 43.5926C85.2856 43.5926 85.2365 43.603 85.2235 43.6159C85.1951 43.6418 85.1563 43.647 84.6802 43.7066C83.9996 43.7946 82.3592 43.836 82.2919 43.7687L82.2815 39.0773C82.2874 39.0709 82.3791 39.0678 82.5201 39.0673ZM70.0142 39.1835L78.6616 39.2016C78.6772 49.7934 78.6838 45.2979 78.6772 49.7934L70.0323 49.7779C69.9695 48.0397 70.002 47.1345 70.009 44.9519L76.7365 44.926L76.721 42.6709L70.0271 42.6036L70.0142 39.1835ZM49.2319 41.0659C49.2362 41.0665 49.2403 41.0691 49.2443 41.0735L51.2367 45.6095H47.239L49.2274 41.066L49.2319 41.0659ZM69.9896 55.2587V60.6496L71.1193 60.6396C71.7522 60.6321 72.307 60.6166 72.3851 60.6016C72.7457 60.5339 72.9072 60.484 73.1291 60.3688C73.4141 60.2235 73.4818 60.1835 73.4894 60.1635C73.4944 60.1535 73.5095 60.146 73.5246 60.146C73.5372 60.146 73.5623 60.1311 73.5799 60.1136C73.5976 60.0985 73.6586 60.0507 73.7115 60.0081C73.8679 59.8904 74.2008 59.5296 74.2008 59.4795C74.2008 59.4695 74.2185 59.4422 74.2386 59.4197C74.2891 59.3645 74.4276 59.0941 74.4276 59.0515C74.4276 59.0339 74.4403 59.0184 74.4529 59.0184C74.4681 59.0184 74.4777 58.996 74.4777 58.971C74.4777 58.9434 74.4905 58.9136 74.5031 58.9061C74.5183 58.8985 74.5285 58.8582 74.5285 58.8206C74.5285 58.783 74.5387 58.7433 74.5488 58.7307C74.637 58.633 74.6774 57.626 74.6093 57.3404C74.4832 56.8319 74.2737 56.4437 73.9383 56.093C73.6155 55.7548 73.096 55.4587 72.6497 55.356C72.5942 55.3435 72.4936 55.3211 72.423 55.3061C72.3473 55.2886 71.8401 55.2761 71.1441 55.2686L69.9896 55.2587ZM29.2527 55.2624V56.176C29.3938 56.2394 29.5285 56.3129 29.6547 56.3994C29.8597 56.5399 30.0412 56.711 30.1967 56.9029V56.1173H31.256C32.3843 56.1173 33.1212 56.8885 33.1212 57.942C33.1212 58.9954 32.3843 59.751 31.256 59.751H30.4247C30.2274 60.0949 29.9518 60.3869 29.6221 60.6059H31.256C32.9446 60.6059 34.1115 59.4379 34.1115 57.9263C34.1115 56.4145 32.9446 55.2624 31.256 55.2624H29.2527ZM64.2311 55.2711V60.649L64.7223 60.6645L64.7353 58.1941L67.9909 58.2096L68.026 60.662H68.5303V55.2761H68.026L68.013 57.7185L64.7581 57.7036L64.7223 55.2761L64.2311 55.2711ZM70.7594 55.7167C70.8724 55.7164 71.0323 55.7186 71.2554 55.7223C71.6614 55.7274 72.067 55.7448 72.1577 55.7573C72.3973 55.7949 72.5313 55.8269 72.6952 55.8871C73.3105 56.1175 73.7998 56.6162 74.0041 57.225C74.0949 57.493 74.107 57.5955 74.107 57.9788C74.1044 58.3645 74.0868 58.5578 74.0464 58.5828C74.0338 58.5903 74.0243 58.6177 74.0243 58.6453C74.0243 58.6703 74.0141 58.7132 74.0015 58.7382C73.9914 58.7608 73.9358 58.8732 73.8829 58.986C73.8299 59.1012 73.777 59.1938 73.7669 59.1938C73.7543 59.1938 73.7467 59.2037 73.7467 59.2187C73.7467 59.3214 73.1364 59.8702 73.0229 59.8702C73.0053 59.8702 72.9903 59.8776 72.9903 59.8901C72.9903 59.9002 72.9524 59.9232 72.9095 59.9407C72.8641 59.9607 72.801 59.9856 72.7707 59.9981C72.738 60.0106 72.6877 60.0305 72.6574 60.0455C72.4204 60.1457 71.7772 60.2034 71.0359 60.1909L70.5062 60.1834V55.7423C70.5112 55.7285 70.5497 55.7208 70.6612 55.718C70.6891 55.7172 70.7217 55.7168 70.7594 55.7167ZM28.3178 56.4094C27.1204 56.4094 26.1497 57.3392 26.1497 58.4861C26.1497 59.6331 27.1204 60.5628 28.3178 60.5628C29.5153 60.5628 30.4859 59.6331 30.4859 58.4861C30.4859 57.3392 29.5153 56.4094 28.3178 56.4094ZM41.8206 56.5785C40.6319 56.5785 39.7586 57.5194 39.7586 58.6459C39.7586 59.7725 40.632 60.6895 41.8134 60.6895C42.5878 60.6895 43.047 60.3832 43.4395 59.9513L42.8897 59.4134C42.6037 59.7053 42.288 59.907 41.8583 59.907C41.1583 59.907 40.67 59.3398 40.67 58.6309C40.67 57.9369 41.1508 57.3697 41.8134 57.3697C42.272 57.3697 42.5662 57.5714 42.844 57.8615L43.4095 57.258C43.04 56.8539 42.5741 56.5785 41.8206 56.5785ZM45.7809 56.5791C45.4743 56.5791 45.1911 56.6348 44.9334 56.7445C44.6751 56.8532 44.452 57.0015 44.2637 57.1888C44.0752 57.3755 43.9271 57.5926 43.8193 57.8409C43.7113 58.0891 43.6577 58.3554 43.6577 58.6402V58.6546C43.6577 58.9343 43.71 59.1963 43.8154 59.4459C43.9206 59.6939 44.0686 59.9105 44.2565 60.0955C44.4435 60.2789 44.6686 60.4251 44.9256 60.5323C45.1846 60.6383 45.4643 60.692 45.766 60.692C46.0714 60.692 46.3552 60.6371 46.6175 60.5273C46.8765 60.4184 47.1013 60.271 47.2905 60.0842C47.4781 59.8982 47.6269 59.6799 47.7341 59.4309C47.8419 59.1818 47.895 58.9178 47.895 58.6402V58.624C47.895 58.3413 47.8428 58.0761 47.7387 57.8296C47.6327 57.5827 47.4853 57.3669 47.297 57.1807C47.1091 56.9933 46.8856 56.8483 46.6279 56.7401C46.3696 56.635 46.0858 56.5791 45.7809 56.5791ZM54.0438 56.5791C53.7571 56.5791 53.4958 56.635 53.26 56.7401C53.0242 56.8483 52.8205 56.9933 52.647 57.1807C52.4742 57.3669 52.3395 57.585 52.2444 57.834C52.1506 58.0823 52.0997 58.349 52.0997 58.6315V58.6471C52.0997 58.9511 52.1528 59.2292 52.2593 59.4795C52.3638 59.7312 52.5084 59.9458 52.6919 60.1248C52.8755 60.3043 53.0923 60.4432 53.3395 60.5423C53.5887 60.6416 53.8555 60.692 54.1409 60.692C54.5073 60.692 54.8229 60.6251 55.0855 60.4905C55.3494 60.3566 55.5767 60.1774 55.7676 59.9538L55.2321 59.4839C55.072 59.6375 54.9096 59.755 54.7441 59.8334C54.5787 59.913 54.3822 59.9538 54.1565 59.9538C53.8604 59.9538 53.6078 59.8665 53.3995 59.6961C53.1918 59.5241 53.0627 59.2773 53.0118 58.9535H55.9331C55.9384 58.9084 55.9415 58.8646 55.9442 58.8218C55.9468 58.7811 55.9475 58.7397 55.9475 58.6995C55.9475 58.4168 55.9073 58.1462 55.8283 57.8902C55.7472 57.6326 55.6287 57.4073 55.4706 57.2144C55.3112 57.0203 55.1129 56.8667 54.8752 56.7513C54.6367 56.6364 54.3586 56.5791 54.0438 56.5791ZM37.7989 56.5959C37.6032 56.5959 37.4193 56.6232 37.2458 56.6777C37.0718 56.7322 36.922 56.8116 36.793 56.9161C36.6656 57.0199 36.566 57.1459 36.4927 57.293C36.4202 57.4404 36.3839 57.6074 36.3839 57.796V57.8115C36.3839 58.0014 36.4215 58.1592 36.4966 58.2889C36.5719 58.4176 36.6688 58.5265 36.7865 58.6134C36.9048 58.7006 37.0366 58.7711 37.1852 58.8256C37.3336 58.8819 37.4802 58.9288 37.6263 58.9685C37.7414 59.0035 37.8526 59.0372 37.9612 59.0702C38.0685 59.1016 38.1634 59.1398 38.2472 59.1813C38.3295 59.2236 38.3948 59.2716 38.4419 59.326C38.4911 59.3813 38.5136 59.446 38.5136 59.5195V59.5357C38.5136 59.6638 38.4593 59.7674 38.352 59.8452C38.2434 59.9217 38.0922 59.9606 37.8973 59.9606C37.6901 59.9606 37.4766 59.9193 37.2536 59.8371C37.0299 59.7553 36.81 59.6339 36.5937 59.4752L36.1878 60.088C36.439 60.2817 36.7109 60.4279 37.0047 60.5273C37.2978 60.6272 37.5881 60.677 37.8738 60.677C38.08 60.677 38.2725 60.6509 38.4537 60.5991C38.6342 60.5459 38.7912 60.4702 38.9247 60.3669C39.0576 60.2652 39.1614 60.1383 39.2367 59.9831C39.3118 59.8296 39.3495 59.6471 39.3495 59.4377V59.424C39.3495 59.2458 39.3118 59.0917 39.2367 58.9685C39.1614 58.844 39.0646 58.7384 38.9468 58.6502C38.8285 58.5641 38.6974 58.4905 38.5514 58.4306C38.4049 58.3704 38.2608 58.3191 38.1156 58.2746C37.9991 58.2351 37.8886 58.1958 37.78 58.1628C37.6714 58.1278 37.5765 58.089 37.494 58.0462C37.4108 58.0039 37.3457 57.9564 37.2947 57.9045C37.2436 57.8526 37.2191 57.7908 37.2191 57.721V57.7067C37.2191 57.5926 37.2675 57.4973 37.3657 57.4234C37.463 57.3487 37.6001 57.3104 37.7755 57.3104C37.9421 57.3104 38.1226 57.3448 38.3175 57.4122C38.5138 57.4799 38.7077 57.5707 38.8986 57.6849L39.2602 57.0421C39.0488 56.9033 38.8161 56.7949 38.5592 56.7145C38.3032 56.6349 38.0493 56.5959 37.7989 56.5959ZM59.356 56.6621L60.833 60.5747L60.8206 60.6009C60.8206 60.6009 60.523 61.3991 60.2544 61.5937C60.0468 61.6988 59.5623 61.6909 59.3788 61.678V62.4149C59.699 62.4149 60.453 62.4349 60.6948 62.2826C61.001 62.0937 61.0683 62.0107 61.2766 61.5912C61.503 61.1346 63.2447 56.6621 63.2447 56.6621H62.2968L61.2786 59.5507L60.3261 56.6621H59.356ZM34.6561 56.6627V60.6016H35.5682V56.6627H34.6561ZM47.9335 56.6627L49.5667 60.6327H50.387L52.0137 56.6627H51.058L49.9811 59.5582L48.912 56.6627H47.9335ZM56.6289 56.6627V60.6016H57.5397V59.1027C57.5397 58.8389 57.5651 58.6067 57.6367 58.4168C57.9107 57.6995 58.6768 57.4954 59.072 57.4378L58.7599 56.6833C58.4411 56.737 57.882 56.8901 57.5397 57.313V56.6627H56.6289ZM54.0353 57.3192C54.1874 57.3192 54.3213 57.3451 54.4392 57.3972C54.5558 57.4503 54.6577 57.5236 54.7441 57.6175C54.8285 57.7124 54.8972 57.8216 54.9461 57.9501C54.9977 58.0759 55.0291 58.1171 55.0445 58.2621H53.0047C53.0455 57.9529 53.1573 57.7984 53.3395 57.6056C53.523 57.415 53.754 57.3192 54.0353 57.3192ZM45.766 57.3716C45.9458 57.3716 46.1112 57.404 46.2598 57.4715C46.4068 57.5389 46.5348 57.6304 46.6429 57.7454C46.7507 57.8596 46.8342 57.993 46.8943 58.1479C46.9553 58.301 46.9855 58.4665 46.9855 58.6403V58.6546C46.9855 58.824 46.9572 58.9841 46.9022 59.1364C46.8459 59.2876 46.7663 59.4208 46.6611 59.5357C46.5564 59.6498 46.4299 59.7398 46.2813 59.8078C46.1335 59.8747 45.9662 59.9077 45.7809 59.9077C45.6051 59.9077 45.4429 59.8747 45.2943 59.8078C45.1473 59.7398 45.0185 59.6494 44.9112 59.5314C44.8034 59.4151 44.7187 59.2783 44.6585 59.1245C44.5978 58.9709 44.5679 58.8094 44.5679 58.6402V58.624C44.5679 58.4518 44.5969 58.287 44.6519 58.136C44.7069 57.9835 44.7863 57.8526 44.8923 57.7398C44.9975 57.629 45.1241 57.5389 45.2728 57.4714C45.4206 57.404 45.5847 57.3716 45.766 57.3716Z" fill="#00AAD4"/>
</svg>
