<svg width="100" height="100" viewBox="0 0 100 100" fill="none" xmlns="http://www.w3.org/2000/svg">
<path d="M66.8382 32.2654L66.8506 54.9195L67.0957 54.9377C67.2324 54.9482 67.5438 54.9696 67.7868 54.9853C68.0297 55.001 68.3888 55.0244 68.5837 55.0375C68.7785 55.0506 69.12 55.074 69.3427 55.0871C69.5653 55.1027 70.0438 55.1346 70.4056 55.1581C70.7675 55.1817 71.1218 55.2025 71.1901 55.2051L71.317 55.2078C71.317 55.2078 71.3627 32.7231 71.3294 32.2655H66.8382V32.2654ZM86.5367 32.2654L86.5217 42.9003C86.5116 42.9082 86.4481 42.8374 86.3772 42.7406C86.109 42.3689 85.6003 41.8036 85.3574 41.6073C85.3144 41.5733 85.1678 41.4499 85.0312 41.3374C84.7427 41.0966 84.2722 40.7797 84.0192 40.654C83.7889 40.5415 83.4095 40.3848 83.2981 40.3534C83.2096 40.3299 83.1058 40.3008 82.9261 40.2458C82.6933 40.1778 82.4298 40.1306 81.9945 40.0757C81.6302 40.0312 80.4386 40.039 80.0843 40.0887C79.9806 40.1044 79.8388 40.1232 79.7679 40.1337C79.6996 40.1415 79.6315 40.1597 79.6188 40.1728C79.6037 40.1859 79.5505 40.1963 79.4999 40.1963C79.4467 40.1963 79.3963 40.2067 79.3887 40.2224C79.3811 40.2354 79.3402 40.2484 79.2972 40.2484C79.2567 40.2484 79.2035 40.2588 79.1782 40.2719C79.115 40.3059 78.8724 40.3795 78.8167 40.3795C78.7914 40.3795 78.7635 40.3899 78.7559 40.4056C78.7483 40.4187 78.7177 40.4316 78.6899 40.4316C78.6646 40.4316 78.6217 40.442 78.5964 40.4551C78.5736 40.4682 78.5259 40.4896 78.4905 40.5053C78.4551 40.5184 78.3739 40.5548 78.3081 40.5862C78.2423 40.6176 78.179 40.6409 78.1688 40.6409C78.1461 40.6409 77.4222 41.0125 77.402 41.0335C77.3894 41.0466 77.3568 41.0677 77.1771 41.1697C77.1265 41.1985 77.0679 41.2355 77.0477 41.2539C77.0274 41.2722 76.9797 41.3007 76.9418 41.3217C76.9038 41.34 76.8506 41.377 76.8228 41.4032C76.795 41.432 76.7214 41.4839 76.6607 41.5258C76.5999 41.565 76.5011 41.6384 76.4404 41.6881C76.3822 41.7379 76.2861 41.819 76.2279 41.8687C75.6687 42.3373 75.1124 42.9445 74.7151 43.5204C74.6721 43.5858 74.6264 43.641 74.6138 43.6462C74.6037 43.6515 74.5935 43.6644 74.5935 43.6775C74.5935 43.6906 74.5328 43.7925 74.4569 43.9051C74.3835 44.0176 74.2902 44.1669 74.2497 44.2402C74.2117 44.3109 74.1532 44.418 74.1228 44.4756C74.0343 44.63 73.6701 45.3997 73.6195 45.5358C73.5942 45.6013 73.5661 45.6798 73.5534 45.7112C73.5408 45.7453 73.5203 45.7978 73.5077 45.8293C73.4976 45.8633 73.475 45.9204 73.4573 45.9597C73.4295 46.0356 73.3965 46.1171 73.356 46.2218C73.3434 46.2558 73.3159 46.3577 73.2906 46.452C73.2679 46.5462 73.2373 46.6429 73.2246 46.6665C73.212 46.6927 73.2017 46.7426 73.2017 46.7767C73.2017 46.8133 73.1915 46.8471 73.1788 46.8549C73.1662 46.8628 73.1511 46.9076 73.1435 46.9547C73.1208 47.0986 73.0983 47.1951 73.0755 47.2501C73.0629 47.2788 73.0472 47.3444 73.0396 47.3942C73.0345 47.4439 73.0094 47.5906 72.9866 47.7215C72.7741 48.9229 72.746 50.4728 72.9206 51.6742C72.9585 51.9359 73.0248 52.3206 73.0526 52.4462C73.0653 52.5117 73.0877 52.611 73.1004 52.6686C73.1257 52.7916 73.1513 52.8887 73.2272 53.14C73.2576 53.2395 73.2952 53.3751 73.3154 53.4406C73.3332 53.506 73.3837 53.6527 73.4292 53.7679C73.4722 53.8831 73.5253 54.0272 73.5456 54.09C73.6164 54.2968 74.1631 55.4508 74.196 55.4561C74.2391 55.4665 74.4441 55.4879 74.7073 55.5115C75.0615 55.5429 75.3248 55.5687 75.7068 55.6132C76.2888 55.6839 76.7571 55.7363 77.2379 55.786C77.7161 55.8357 77.9054 55.8593 78.6291 55.9536C78.8315 55.9797 79.0722 56.0088 79.6162 56.069C79.8262 56.0926 80.0819 56.1237 80.1856 56.1394C80.2894 56.1525 80.4638 56.1759 80.5726 56.189C80.7852 56.2178 81.0912 56.2599 81.3493 56.2939C81.4404 56.307 81.6735 56.333 81.8684 56.3565C82.2606 56.401 82.5589 56.4405 82.8372 56.4772C83.6317 56.5871 83.7837 56.6081 83.9937 56.6343C84.105 56.6474 84.2317 56.663 84.2722 56.6708C84.3152 56.6813 84.4667 56.6995 84.6134 56.7152C84.7602 56.7308 84.9477 56.7542 85.0312 56.7647C85.1147 56.7778 85.279 56.8018 85.3979 56.8175C85.6181 56.8489 85.8131 56.8747 86.1066 56.9192C86.1977 56.9323 86.4356 56.9642 86.6381 56.9877C86.8405 57.0113 87.0785 57.0424 87.1696 57.0555C87.2607 57.0686 87.4202 57.0894 87.5239 57.1051C87.6276 57.1208 87.7865 57.1442 87.8776 57.1572C87.9687 57.1703 88.1282 57.1917 88.2319 57.2075C88.3356 57.2205 88.4575 57.2387 88.498 57.2466C88.541 57.2544 88.7333 57.2778 88.9281 57.3013C89.123 57.3223 89.3403 57.3541 89.4086 57.3672C89.4795 57.3803 89.586 57.3985 89.6492 57.4063C89.7125 57.4142 89.8366 57.4324 89.9277 57.4454C90.0188 57.4585 90.1654 57.4819 90.2565 57.495C90.3476 57.5081 90.512 57.5347 90.6233 57.5504C90.7346 57.5688 90.8661 57.5843 90.9142 57.5869L91.0031 57.5896L91.0155 32.2655H86.5367L86.5367 32.2654ZM43.712 40.0417C43.5534 40.0414 43.4477 40.0437 43.442 40.0496C43.4344 40.0574 43.3029 40.0782 43.1511 40.0913C42.7285 40.1305 42.6276 40.144 42.5719 40.1702C42.5441 40.1833 42.4759 40.1988 42.4202 40.2067C42.2557 40.2276 42.1439 40.251 42.0907 40.2745C42.0629 40.2876 42.0076 40.3038 41.9646 40.3143C41.9241 40.3221 41.8227 40.3455 41.7443 40.3612C41.6658 40.3796 41.5922 40.4003 41.5821 40.4108C41.572 40.4239 41.5367 40.4317 41.5063 40.4317C41.4734 40.4317 41.4407 40.442 41.4331 40.4577C41.4255 40.4708 41.3949 40.4838 41.367 40.4838C41.3417 40.4838 41.2989 40.4948 41.2736 40.5079C41.2052 40.5446 41.117 40.5808 40.9526 40.641C40.7805 40.7038 40.7169 40.733 40.3956 40.89C40.2716 40.9502 40.13 41.0158 40.087 41.0367C40.0415 41.0577 40.0033 41.081 40.0033 41.0915C40.0033 41.1046 39.9808 41.1124 39.953 41.1124C39.9252 41.1124 39.902 41.1228 39.902 41.1359C39.902 41.1489 39.8816 41.1645 39.8589 41.1724C39.8336 41.1828 39.7456 41.2302 39.6621 41.2826C39.5786 41.3323 39.49 41.3816 39.4673 41.3895C39.442 41.4 39.4215 41.4162 39.4215 41.4293C39.4215 41.4424 39.4038 41.4527 39.3836 41.4527C39.3633 41.4527 39.3457 41.4631 39.3457 41.4788C39.3457 41.4919 39.3328 41.5049 39.3202 41.5049C39.305 41.5049 39.1862 41.5834 39.0521 41.6803C38.918 41.7797 38.781 41.8765 38.7481 41.9C38.7153 41.9236 38.6572 41.971 38.6167 42.005C38.5788 42.0416 38.5255 42.0858 38.4952 42.1067C38.2067 42.3187 37.2809 43.2768 37.0961 43.5569C37.0759 43.5883 37.0302 43.6487 36.9948 43.6931C36.9594 43.7376 36.9089 43.8006 36.8811 43.8346C36.8558 43.8687 36.7693 43.9966 36.6934 44.1196C36.615 44.2426 36.5421 44.3478 36.532 44.353C36.5218 44.3583 36.5117 44.3738 36.5117 44.3895C36.5117 44.4026 36.4784 44.463 36.4404 44.5232C36.4 44.5834 36.3345 44.6983 36.294 44.7768C36.2535 44.8554 36.2153 44.9261 36.2077 44.934C36.1723 44.968 35.7272 45.936 35.7272 45.9805C35.7272 45.9962 35.717 46.028 35.7043 46.0542C35.6815 46.1013 35.6332 46.2162 35.5978 46.3131C35.5851 46.3471 35.5653 46.3997 35.5527 46.4311C35.54 46.4651 35.5119 46.5618 35.4866 46.6482C35.4639 46.7346 35.4358 46.8261 35.4206 46.8497C35.4079 46.8759 35.3984 46.9259 35.3984 46.9599C35.3984 46.9965 35.3881 47.0329 35.3729 47.0408C35.3602 47.0486 35.3474 47.0908 35.3474 47.1327C35.3474 47.1746 35.3377 47.2161 35.3225 47.224C35.3099 47.2318 35.297 47.2792 35.297 47.329C35.297 47.3787 35.2868 47.4228 35.2742 47.4307C35.2615 47.4385 35.2464 47.4833 35.2389 47.5304C35.2313 47.5776 35.2061 47.7347 35.1833 47.8786C35.0517 48.6927 35.0336 48.9204 35.0336 49.8941C35.0336 50.7239 35.0515 51.046 35.1173 51.491C35.2058 52.0616 35.2438 52.2682 35.2944 52.4462C35.3324 52.5849 35.3679 52.7106 35.3958 52.8127C35.4464 53.0064 35.5477 53.328 35.5958 53.4536C35.8033 53.9902 36.0306 54.4906 36.2077 54.789C36.2634 54.8832 36.309 54.967 36.309 54.9722C36.309 54.9801 36.3397 55.0346 36.3777 55.0922L36.4457 55.1998L36.6862 55.1841C36.8204 55.1737 37.1339 55.1549 37.3844 55.1392C37.888 55.1103 38.4623 55.0741 39.0038 55.0374C40.2765 54.9511 40.9597 54.909 41.4278 54.8907C41.8479 54.8724 41.8508 54.8727 41.8508 54.8125C41.8508 54.7758 41.8204 54.7311 41.7697 54.6945C41.0688 54.1945 40.6691 53.7179 40.2844 52.9222C40.0466 52.4327 39.9277 52.0821 39.7784 51.4251C39.7127 51.1398 39.6392 50.3286 39.6392 49.8941C39.6392 49.546 39.6722 49.0012 39.7 48.886C39.7127 48.8363 39.7325 48.7006 39.7477 48.5854C39.7604 48.4703 39.7855 48.3157 39.8007 48.2451C39.8159 48.1718 39.8362 48.0751 39.8438 48.0279C39.8514 47.9808 39.8665 47.936 39.8791 47.9282C39.8918 47.9203 39.902 47.8814 39.902 47.8395C39.902 47.7976 39.9148 47.7554 39.9275 47.7476C39.9427 47.7397 39.953 47.7033 39.953 47.6693C39.953 47.6353 39.9652 47.5983 39.9778 47.5904C39.993 47.5826 40.0033 47.5514 40.0033 47.52C40.0033 47.4912 40.0211 47.4256 40.0439 47.3733C40.0666 47.3183 40.0945 47.2528 40.1047 47.224C40.1755 47.0329 40.3957 46.5696 40.459 46.478C40.4868 46.4361 40.5093 46.3972 40.5093 46.3893C40.5093 46.3737 40.674 46.1066 40.7296 46.0333C41.0814 45.57 41.3798 45.2609 41.7214 45.0174C41.8125 44.9494 41.8936 44.889 41.9011 44.8812C41.9265 44.8524 42.3741 44.6148 42.5588 44.5336C42.6069 44.5127 42.7287 44.4679 42.8249 44.4365C42.9236 44.4024 43.0246 44.3687 43.0524 44.3556C43.0802 44.3451 43.1387 44.3289 43.1792 44.3185C43.2222 44.3106 43.3055 44.2924 43.3688 44.2767C44.1051 44.1144 44.8215 44.1746 45.6438 44.4626C45.8817 44.5463 46.2815 44.7585 46.5623 44.9522C47.3164 45.4705 47.8675 46.2006 48.2673 47.2109C48.409 47.5695 48.4322 47.6457 48.5334 48.054C48.546 48.109 48.5685 48.2031 48.5837 48.2633C48.7153 48.8025 48.7784 49.6843 48.7354 50.3753C48.7101 50.8098 48.6954 50.9485 48.6347 51.294C48.6195 51.3726 48.6018 51.4803 48.5942 51.5301C48.5841 51.5798 48.569 51.6454 48.5589 51.6742C48.5462 51.703 48.5181 51.8153 48.4928 51.9226C48.4675 52.0299 48.4369 52.1293 48.4268 52.145C48.4142 52.158 48.4039 52.1899 48.4039 52.216C48.4039 52.2422 48.3943 52.2838 48.3817 52.3099C48.3513 52.3701 48.2699 52.5611 48.2117 52.7077C48.1054 52.972 47.8221 53.4855 47.6652 53.6897C47.397 54.0404 47.253 54.1996 47.0481 54.3697C46.9797 54.4247 46.919 54.4799 46.9114 54.4878C46.9038 54.4982 46.8786 54.5112 46.8559 54.5217C46.8306 54.5295 46.8101 54.5639 46.8101 54.5953V54.6501L47.6652 54.6345C49.3884 54.6057 51.5901 54.5712 51.9367 54.5686L52.2911 54.5659L52.3846 54.3827C52.4352 54.2806 52.478 54.1839 52.478 54.1656C52.478 54.1472 52.5005 54.1057 52.5284 54.0691C52.5562 54.0324 52.5794 53.9824 52.5794 53.9563C52.5794 53.9327 52.5922 53.9119 52.6049 53.9119C52.6201 53.9119 52.6297 53.8937 52.6297 53.8728C52.6297 53.8519 52.64 53.8123 52.6526 53.7861C52.6653 53.7625 52.7055 53.6528 52.7435 53.5455C52.8169 53.3335 52.8499 53.2445 52.8853 53.1738C52.898 53.1476 52.9082 53.1028 52.9082 53.0767C52.9082 53.0479 52.9211 53.0167 52.9337 53.0088C52.9489 53.001 52.9586 52.9692 52.9586 52.9404C52.9586 52.9142 52.9688 52.8701 52.9815 52.8439C53.0169 52.7706 53.1536 52.1841 53.1789 51.9877C53.1865 51.9302 53.2016 51.873 53.2142 51.8573C53.2269 51.8442 53.2371 51.7787 53.2371 51.7106C53.2371 51.6426 53.2473 51.5796 53.26 51.5717C53.2701 51.5639 53.2877 51.4723 53.2953 51.3676C53.3054 51.263 53.3232 51.0403 53.3358 50.8754C53.3687 50.4854 53.3688 49.2734 53.3385 48.886C53.3006 48.4096 53.2498 48.0617 53.1385 47.5251C53.0499 47.0933 52.8195 46.3391 52.6651 45.9674C52.6145 45.8522 52.5565 45.7114 52.5337 45.6538C52.4654 45.4836 52.149 44.855 52.0402 44.6718C51.9845 44.5776 51.9266 44.4782 51.9114 44.4494C51.8557 44.3447 51.5574 43.8971 51.4309 43.7296C50.4997 42.4915 49.3611 41.5442 48.0504 40.9108C47.6379 40.7092 47.6273 40.7037 47.43 40.6278C47.1491 40.5179 46.81 40.403 46.6455 40.3611C46.562 40.3402 46.4482 40.311 46.3925 40.2979C46.3368 40.2822 46.2435 40.2614 46.1853 40.2457C46.1245 40.2326 46.0235 40.2092 45.9578 40.1935C45.8059 40.1595 45.5929 40.1252 45.3171 40.0886C45.1425 40.067 44.1881 40.0426 43.7121 40.0416L43.712 40.0417ZM65.0188 40.2576C64.7455 40.2504 64.4811 40.2484 64.4723 40.2589C64.4647 40.2668 64.31 40.2849 64.1304 40.298C63.6698 40.3373 63.356 40.3768 63.2877 40.4056C63.2548 40.4213 63.1968 40.4317 63.1563 40.4317C63.1158 40.4317 63.075 40.4421 63.0674 40.4578C63.0598 40.4709 63.0148 40.4838 62.9667 40.4838C62.9186 40.4838 62.873 40.4949 62.8654 40.5106C62.8578 40.5237 62.8272 40.5367 62.7993 40.5367C62.774 40.5367 62.7312 40.547 62.7059 40.5601C62.6831 40.5732 62.5945 40.6044 62.511 40.6279C62.4275 40.6541 62.3491 40.6833 62.3339 40.6964C62.3212 40.7095 62.2905 40.7199 62.2652 40.7199C62.2425 40.7199 62.1818 40.7432 62.1312 40.772C62.0806 40.8008 62.0253 40.8242 62.0051 40.8242C61.9848 40.8242 61.9671 40.8346 61.9671 40.8503C61.9671 40.8634 61.9521 40.877 61.9318 40.877C61.8812 40.877 61.5087 41.0786 61.2885 41.2252C61.1873 41.2933 61.1013 41.3478 61.0937 41.3478C61.0836 41.3478 61.0155 41.403 60.9447 41.4658C60.9295 41.4815 60.8533 41.5393 60.7799 41.5969C60.5876 41.7408 60.2816 42.0336 60.0817 42.2639C59.9046 42.4681 59.5378 42.9966 59.5378 43.0438C59.5378 43.0594 59.5277 43.0757 59.5175 43.0809C59.5049 43.0836 59.4591 43.1699 59.4136 43.2668C59.3655 43.3688 59.3203 43.437 59.3077 43.4239C59.2704 42.3923 59.2724 40.4975 59.2724 40.4975H54.7936L54.8112 54.553C54.8289 54.5583 55.8282 54.5765 57.0327 54.5921C58.2371 54.6078 59.2799 54.6241 59.3482 54.6267L59.4744 54.6319L59.4875 51.7916C59.5027 49.0013 59.5148 48.5615 59.5881 48.326C59.6033 48.2841 59.6137 48.2159 59.6137 48.1767C59.6137 48.1374 59.6265 48.0958 59.6392 48.088C59.6544 48.0801 59.6647 48.0463 59.6647 48.0176C59.6647 47.9626 59.6994 47.8315 59.7425 47.7215C59.7526 47.6927 59.7811 47.6142 59.8013 47.5461C59.8721 47.321 60.1681 46.7137 60.2465 46.6352C60.2541 46.6274 60.3224 46.5332 60.4034 46.4259C60.5653 46.2034 60.8738 45.8866 61.0813 45.7321C61.1572 45.6746 61.2259 45.6194 61.2284 45.6089C61.2335 45.5958 61.2533 45.588 61.2735 45.588C61.2938 45.588 61.3088 45.575 61.3088 45.562C61.3088 45.5463 61.3245 45.5359 61.3448 45.5359C61.365 45.5359 61.3848 45.5255 61.3899 45.515C61.3949 45.4967 61.8884 45.2401 62.0554 45.1668C62.1617 45.1223 62.3518 45.0645 62.3973 45.0645C62.4226 45.0645 62.4525 45.0515 62.4601 45.0384C62.4677 45.0227 62.5133 45.0123 62.5614 45.0123C62.6095 45.0123 62.6551 44.9993 62.6627 44.9862C62.6703 44.9705 62.7207 44.9602 62.7739 44.9602C62.8245 44.9602 62.8776 44.9498 62.8902 44.9367C62.9054 44.9236 62.9742 44.9054 63.0426 44.9002C63.1134 44.8923 63.3057 44.8709 63.4727 44.85C64.037 44.7898 64.8412 44.8267 65.532 44.9497C65.613 44.9628 65.6464 44.9576 65.6641 44.9315L65.6863 40.3065L65.6183 40.2876C65.574 40.2771 65.2921 40.2648 65.0188 40.2576L65.0188 40.2576ZM9.03162 40.4838C9.03162 40.4838 12.4893 52.4688 13.9661 57.838C13.9838 57.9035 14.0015 57.9716 14.0066 57.99C14.0167 58.0292 14.1935 58.0214 14.4466 57.9717C14.5225 57.956 14.6893 57.93 14.8133 57.9143C14.9398 57.8986 15.0618 57.8746 15.0846 57.8615C15.1099 57.8484 15.1856 57.838 15.2539 57.838C15.3248 57.838 15.3882 57.825 15.3958 57.812C15.4034 57.7963 15.4666 57.7859 15.5324 57.7859C15.5982 57.7859 15.661 57.7755 15.6736 57.7624C15.6888 57.7493 15.7576 57.7311 15.826 57.7233C15.8968 57.7181 16.0155 57.6992 16.0914 57.6835C16.1673 57.6704 16.3573 57.6393 16.5091 57.6157C16.6635 57.5921 16.8503 57.561 16.9262 57.5505C17.0021 57.5374 17.1288 57.5186 17.2047 57.5107C17.2806 57.5002 17.3665 57.4847 17.3943 57.4716C17.4221 57.4585 17.5086 57.443 17.5845 57.4325C17.6604 57.4246 17.7871 57.4064 17.863 57.3934C18.1894 57.3358 18.2957 57.3198 18.5462 57.291C18.693 57.2727 18.832 57.2467 18.8548 57.2336C18.8801 57.2205 18.9686 57.2101 19.0496 57.2101C19.1331 57.2101 19.2087 57.1972 19.2163 57.1841C19.2239 57.1684 19.2619 57.1573 19.2973 57.1573L22.3869 46.7846L25.234 56.3384C25.3048 56.3305 25.4689 56.3097 25.5929 56.294C25.7194 56.2783 25.9014 56.2543 25.9975 56.2412C26.0962 56.2281 26.2789 56.2047 26.4029 56.189C26.8912 56.1262 26.9999 56.1135 27.4149 56.0717C27.6527 56.0481 27.9309 56.0163 28.0346 56.0058C28.1384 55.9927 28.3332 55.9694 28.4648 55.9536C28.5964 55.9406 28.8043 55.9146 28.9283 55.9015C29.4824 55.836 29.5908 55.8253 30.0083 55.7835C31.5062 55.6421 31.37 55.5872 31.37 55.5872C31.37 55.5872 34.117 44.9909 35.7017 40.4839L31.1621 40.5008L28.083 52.8623L24.4645 40.5021L20.4107 40.4975L16.7621 52.9777C16.7621 52.9777 14.7461 44.2895 13.8092 40.5158L9.03162 40.4839V40.4838ZM81.701 44.1855C81.7213 44.1646 82.3032 44.1932 82.5005 44.2272C83.0673 44.3188 83.4393 44.439 83.8897 44.6745C84.3553 44.918 84.7077 45.185 85.0619 45.5646C85.4465 45.9755 85.79 46.5385 86.0406 47.164C86.1544 47.4467 86.2961 47.8917 86.3341 48.0749C86.3493 48.1535 86.3751 48.271 86.3877 48.3364C86.4155 48.4621 86.4429 48.643 86.491 48.978C86.5315 49.2607 86.5315 50.5876 86.491 50.8755C86.4733 50.9985 86.4535 51.1504 86.4459 51.2159C86.4383 51.2813 86.4232 51.3572 86.4106 51.386C86.3979 51.4148 86.3822 51.4804 86.3746 51.5301C86.3519 51.716 86.2532 52.0772 86.1798 52.2552C86.1672 52.2892 86.1447 52.3464 86.1295 52.3856C86.1143 52.4275 86.0911 52.4801 86.0785 52.5036C86.0658 52.5298 86.0563 52.561 86.0563 52.5767C86.0563 52.6264 85.823 53.1081 85.7091 53.2913C85.6484 53.3882 85.6006 53.4797 85.6006 53.4902C85.6006 53.5033 85.5905 53.5195 85.5803 53.5247C85.5702 53.5274 85.507 53.6085 85.4437 53.7028C85.2691 53.9566 84.6843 54.5661 84.6135 54.5661C84.6008 54.5661 84.5886 54.5764 84.5886 54.5869C84.5886 54.5974 84.5326 54.6422 84.4618 54.6841C84.3935 54.7286 84.3356 54.7708 84.3356 54.7812C84.3356 54.7943 84.3227 54.8021 84.3075 54.8021C84.2923 54.8021 84.2316 54.8359 84.1709 54.8804C84.1101 54.9222 84.0543 54.9586 84.0467 54.9586C84.0366 54.9586 83.9736 54.9878 83.9002 55.0245C83.8294 55.0611 83.7532 55.0897 83.7355 55.0897C83.7178 55.0897 83.7028 55.1 83.7028 55.1157C83.7028 55.1288 83.6748 55.1418 83.6394 55.1418C83.6039 55.1418 83.576 55.1528 83.576 55.1685C83.576 55.1816 83.5535 55.1946 83.5282 55.1946C83.5004 55.1946 83.4698 55.205 83.4622 55.2207C83.4546 55.2338 83.4247 55.2468 83.3968 55.2468C83.3715 55.2468 83.328 55.2571 83.3027 55.2702C83.2445 55.3043 82.9207 55.3778 82.8372 55.3778C82.7993 55.3778 82.7638 55.3882 82.7562 55.4013C82.7233 55.4563 81.8303 55.4901 81.514 55.4482C80.3779 55.2964 79.4116 54.7783 78.7258 53.9511C78.2299 53.3517 77.8045 52.4591 77.6021 51.5953C77.5059 51.1843 77.4425 50.5145 77.4425 49.8941C77.4425 49.2476 77.486 48.7685 77.5922 48.2581C77.615 48.1508 77.6402 48.0223 77.6478 47.9751C77.6554 47.928 77.6705 47.8839 77.6831 47.876C77.6958 47.8682 77.706 47.8338 77.706 47.7997C77.706 47.7657 77.7182 47.7293 77.7308 47.7215C77.746 47.7136 77.7564 47.6721 77.7564 47.6328C77.7564 47.5936 77.7665 47.5514 77.7766 47.5357C77.7867 47.5226 77.8173 47.4466 77.8426 47.3681C77.911 47.1587 78.2347 46.4548 78.2878 46.3998C78.2954 46.392 78.3179 46.3549 78.3382 46.3157C78.447 46.1115 78.7127 45.7768 78.9834 45.4967C79.3124 45.1564 79.3351 45.1354 79.5679 44.9679C79.7754 44.8187 80.446 44.4705 80.5674 44.4495C80.6206 44.439 80.6717 44.4209 80.6818 44.4078C80.6894 44.3947 80.727 44.3843 80.7675 44.3843C80.808 44.3843 80.8488 44.3713 80.8564 44.3583C80.864 44.3426 80.9041 44.3315 80.942 44.3315C80.98 44.3315 81.0203 44.3211 81.0355 44.308C81.0583 44.2845 81.1193 44.2743 81.4735 44.2272C81.5899 44.2141 81.6934 44.1933 81.701 44.1855L81.701 44.1855ZM72.038 59.4323V65.0653L73.1716 65.0549C73.8068 65.047 74.3634 65.0308 74.4419 65.0151C74.8037 64.9444 74.9658 64.8923 75.1884 64.7719C75.4744 64.6201 75.5424 64.5783 75.5499 64.5574C75.555 64.5469 75.5701 64.5391 75.5852 64.5391C75.5979 64.5391 75.6231 64.5235 75.6408 64.5052C75.6585 64.4895 75.7197 64.4395 75.7729 64.395C75.9298 64.272 76.2638 63.8951 76.2638 63.8427C76.2638 63.8322 76.2815 63.8037 76.3018 63.7801C76.3524 63.7226 76.4913 63.4399 76.4913 63.3954C76.4913 63.3771 76.5042 63.3609 76.5168 63.3609C76.532 63.3609 76.5417 63.3375 76.5417 63.3113C76.5417 63.2825 76.5545 63.2514 76.5672 63.2435C76.5824 63.2357 76.5927 63.1934 76.5927 63.1542C76.5927 63.1149 76.6028 63.0734 76.613 63.0603C76.7015 62.9582 76.7421 61.9059 76.6738 61.6075C76.5473 61.0762 76.337 60.6705 76.0004 60.3041C75.6765 59.9507 75.1552 59.6413 74.7073 59.534C74.6516 59.5209 74.5507 59.4976 74.4798 59.4818C74.4039 59.4635 73.8949 59.4506 73.1965 59.4427L72.0381 59.4323L72.038 59.4323ZM31.1602 59.4362V60.3908C31.3017 60.4571 31.4369 60.5339 31.5635 60.6242C31.7693 60.771 31.9514 60.9499 32.1074 61.1504V60.3295H33.1704C34.3026 60.3295 35.0421 61.1353 35.0421 62.2361C35.0421 63.3368 34.3026 64.1264 33.1704 64.1264H32.3362C32.1382 64.4858 31.8617 64.7908 31.5308 65.0197H33.1704C34.8648 65.0197 36.0358 63.7992 36.0358 62.2198C36.0358 60.6401 34.8648 59.4362 33.1704 59.4362H31.1602ZM66.2596 59.4453V65.0647L66.7525 65.081L66.7656 62.4995L70.0324 62.5158L70.0677 65.0783H70.5737V59.4505H70.0677L70.0546 62.0026L66.7885 61.987L66.7525 59.4505L66.2596 59.4453V59.4453ZM72.712 59.9122C72.824 59.9092 73.0097 59.9115 73.3083 59.9168C73.7157 59.922 74.1226 59.9402 74.2137 59.9533C74.4541 59.9925 74.5886 60.0261 74.753 60.0889C75.3704 60.3297 75.8614 60.8508 76.0664 61.4869C76.1575 61.767 76.1697 61.8741 76.1697 62.2746C76.167 62.6777 76.1494 62.8796 76.1089 62.9057C76.0962 62.9136 76.0867 62.9422 76.0867 62.971C76.0867 62.9971 76.0764 63.0419 76.0638 63.0681C76.0537 63.0917 75.9979 63.2092 75.9448 63.327C75.8917 63.4474 75.8385 63.5441 75.8284 63.5441C75.8158 63.5441 75.8081 63.5545 75.8081 63.5702C75.8081 63.6775 75.1957 64.2509 75.0818 64.2509C75.0641 64.2509 75.0491 64.2587 75.0491 64.2718C75.0491 64.2823 75.0111 64.3063 74.9681 64.3246C74.9225 64.3455 74.8592 64.3715 74.8288 64.3846C74.7959 64.3977 74.7454 64.4184 74.7151 64.4341C74.4772 64.5388 73.8318 64.5992 73.0879 64.5861L72.5564 64.5782V59.9376C72.5615 59.9233 72.6 59.9151 72.712 59.9122H72.712ZM30.222 60.6347C29.9363 60.6347 29.6534 60.6908 29.3894 60.7998C29.1255 60.9089 28.8856 61.0687 28.6836 61.2702C28.4816 61.4718 28.3213 61.711 28.212 61.9742C28.1027 62.2375 28.0464 62.5197 28.0464 62.8047C28.0464 63.0896 28.1027 63.3718 28.212 63.6351C28.3213 63.8984 28.4816 64.1376 28.6836 64.3391C28.8856 64.5406 29.1255 64.7004 29.3894 64.8095C29.6534 64.9186 29.9363 64.9747 30.222 64.9747C30.5077 64.9747 30.7907 64.9186 31.0546 64.8095C31.3186 64.7004 31.5584 64.5406 31.7605 64.3391C31.9625 64.1376 32.1227 63.8984 32.2321 63.6351C32.3414 63.3718 32.3977 63.0896 32.3977 62.8047C32.3977 62.5197 32.3414 62.2375 32.2321 61.9742C32.1227 61.711 31.9625 61.4718 31.7605 61.2702C31.5584 61.0687 31.3186 60.9089 31.0546 60.7998C30.7907 60.6908 30.5077 60.6347 30.222 60.6347V60.6347ZM43.7715 60.8114C42.5787 60.8114 41.7024 61.7946 41.7024 62.9716C41.7024 64.1489 42.5788 65.107 43.7643 65.107C44.5415 65.107 45.0022 64.787 45.3961 64.3357L44.8443 63.7736C44.5574 64.0786 44.2406 64.2894 43.8094 64.2894C43.107 64.2894 42.617 63.6967 42.617 62.956C42.617 62.2308 43.0995 61.6382 43.7643 61.6382C44.2245 61.6382 44.5197 61.8489 44.7985 62.152L45.366 61.5214C44.9952 61.0991 44.5277 60.8114 43.7715 60.8114ZM47.7456 60.812C47.4379 60.812 47.1537 60.8702 46.8951 60.9848C46.6359 61.0984 46.4121 61.2534 46.223 61.4491C46.034 61.6442 45.8853 61.8711 45.7772 62.1305C45.6688 62.3899 45.6151 62.6681 45.6151 62.9657V62.9807C45.6151 63.273 45.6675 63.5467 45.7733 63.8075C45.8789 64.0667 46.0274 64.293 46.2159 64.4863C46.4036 64.678 46.6294 64.8307 46.8872 64.9427C47.1472 65.0536 47.4278 65.1097 47.7306 65.1097C48.037 65.1097 48.3219 65.0522 48.585 64.9375C48.8449 64.8237 49.0705 64.6697 49.2603 64.4746C49.4486 64.2802 49.5979 64.0521 49.7055 63.7919C49.8138 63.5316 49.867 63.2558 49.867 62.9657V62.9488C49.867 62.6534 49.8146 62.3762 49.7101 62.1187C49.6038 61.8607 49.4559 61.6352 49.2669 61.4406C49.0783 61.2448 48.8541 61.0933 48.5955 60.9803C48.3363 60.8705 48.0515 60.812 47.7456 60.812V60.812ZM56.037 60.812C55.7493 60.812 55.4872 60.8705 55.2506 60.9803C55.014 61.0933 54.8095 61.2448 54.6354 61.4406C54.462 61.6352 54.3268 61.8631 54.2314 62.1233C54.1373 62.3827 54.0863 62.6614 54.0863 62.9566V62.9729C54.0863 63.2906 54.1396 63.5812 54.2464 63.8427C54.3513 64.1057 54.4963 64.3299 54.6805 64.5169C54.8647 64.7045 55.0823 64.8496 55.3303 64.9532C55.5804 65.057 55.8481 65.1097 56.1344 65.1097C56.5021 65.1097 56.8189 65.0397 57.0824 64.899C57.3472 64.7591 57.5753 64.5719 57.7668 64.3383L57.2295 63.8473C57.0688 64.0078 56.9058 64.1306 56.7398 64.2124C56.5738 64.2956 56.3767 64.3383 56.1501 64.3383C55.853 64.3383 55.5995 64.2471 55.3905 64.069C55.1821 63.8893 55.0526 63.6314 55.0015 63.2931H57.9329C57.9383 63.2459 57.9413 63.2002 57.944 63.1555C57.9467 63.1129 57.9473 63.0697 57.9473 63.0277C57.9473 62.7322 57.907 62.4495 57.8277 62.182C57.7464 61.9128 57.6274 61.6775 57.4688 61.4758C57.3088 61.273 57.1099 61.1126 56.8713 60.992C56.632 60.8719 56.353 60.812 56.0371 60.812L56.037 60.812ZM39.736 60.8296C39.5396 60.8296 39.355 60.8581 39.1809 60.9151C39.0064 60.972 38.856 61.0549 38.7266 61.1641C38.5987 61.2726 38.4987 61.4043 38.4252 61.558C38.3525 61.712 38.316 61.8865 38.316 62.0835V62.0998C38.316 62.2982 38.3538 62.4631 38.4291 62.5986C38.5047 62.7331 38.6019 62.8468 38.72 62.9377C38.8387 63.0288 38.971 63.1025 39.1201 63.1594C39.269 63.2182 39.4162 63.2672 39.5627 63.3087C39.6783 63.3453 39.7898 63.3806 39.8987 63.415C40.0064 63.4478 40.1017 63.4877 40.1857 63.531C40.2684 63.5753 40.3339 63.6254 40.3812 63.6823C40.4305 63.7401 40.4531 63.8077 40.4531 63.8845V63.9014C40.4531 64.0353 40.3986 64.1435 40.291 64.2248C40.182 64.3048 40.0303 64.3455 39.8347 64.3455C39.6267 64.3455 39.4125 64.3023 39.1888 64.2164C38.9643 64.1309 38.7436 64.004 38.5265 63.8382L38.1192 64.4785C38.3713 64.681 38.6442 64.8337 38.939 64.9375C39.2331 65.0419 39.5245 65.094 39.8111 65.094C40.018 65.094 40.2112 65.0667 40.393 65.0125C40.5741 64.9569 40.7317 64.8779 40.8656 64.7699C40.999 64.6637 41.1031 64.531 41.1788 64.3689C41.2541 64.2085 41.2919 64.0178 41.2919 63.799V63.7847C41.2919 63.5985 41.2541 63.4374 41.1788 63.3087C41.1031 63.1786 41.006 63.0683 40.8878 62.9762C40.7691 62.8861 40.6376 62.8093 40.491 62.7466C40.344 62.6838 40.1994 62.6302 40.0537 62.5836C39.9368 62.5424 39.826 62.5013 39.717 62.4669C39.608 62.4303 39.5127 62.3897 39.43 62.345C39.3465 62.3008 39.2812 62.2512 39.23 62.197C39.1787 62.1428 39.1541 62.0782 39.1541 62.0053V61.9903C39.1541 61.871 39.2027 61.7715 39.3012 61.6942C39.3989 61.6162 39.5364 61.5762 39.7124 61.5762C39.8797 61.5762 40.0607 61.6121 40.2563 61.6825C40.4533 61.7533 40.6478 61.8482 40.8395 61.9674L41.2023 61.2958C40.9902 61.1508 40.7567 61.0376 40.4989 60.9535C40.242 60.8703 39.9872 60.8296 39.736 60.8296V60.8296ZM61.3677 60.8987L62.8497 64.9871L62.8373 65.0145C62.8373 65.0145 62.5387 65.8485 62.2692 66.0519C62.0608 66.1616 61.5747 66.1534 61.3905 66.1399V66.91C61.7118 66.91 62.4685 66.9308 62.7111 66.7717C63.0183 66.5744 63.0858 66.4876 63.2949 66.0493C63.5221 65.5722 65.2698 60.8987 65.2698 60.8987H64.3187L63.2969 63.9171L62.3411 60.8987H61.3677V60.8987ZM36.5823 60.8994V65.0151H37.4975V60.8994H36.5823ZM49.9056 60.8994L51.5445 65.0477H52.3676L54 60.8994H53.0409L51.9603 63.9249L50.8875 60.8994H49.9056ZM58.6311 60.8994V65.0151H59.545V63.4489C59.545 63.1733 59.5705 62.9307 59.6424 62.7323C59.9173 61.9828 60.686 61.7694 61.0826 61.7093L60.7695 60.9209C60.4495 60.9771 59.8885 61.137 59.545 61.5788V60.8994H58.6311V60.8994ZM56.0285 61.5854C56.1811 61.5854 56.3156 61.6124 56.4339 61.6669C56.5508 61.7224 56.6531 61.7989 56.7398 61.897C56.8245 61.9963 56.8934 62.1104 56.9425 62.2446C56.9942 62.376 57.0257 62.4191 57.0412 62.5706H54.9943C55.0353 62.2475 55.1475 62.0861 55.3303 61.8847C55.5145 61.6854 55.7462 61.5854 56.0285 61.5854V61.5854ZM47.7306 61.6401C47.911 61.6401 48.077 61.674 48.2261 61.7445C48.3737 61.8149 48.5021 61.9106 48.6105 62.0307C48.7187 62.15 48.8025 62.2895 48.8629 62.4513C48.924 62.6112 48.9544 62.7841 48.9544 62.9657V62.9807C48.9544 63.1578 48.9259 63.325 48.8707 63.4841C48.8142 63.6422 48.7343 63.7813 48.6288 63.9014C48.5238 64.0206 48.3968 64.1147 48.2477 64.1857C48.0993 64.2557 47.9315 64.29 47.7456 64.29C47.5692 64.29 47.4064 64.2557 47.2573 64.1857C47.1097 64.1147 46.9805 64.0202 46.8729 63.8969C46.7646 63.7754 46.6796 63.6325 46.6192 63.4717C46.5583 63.3113 46.5283 63.1425 46.5283 62.9657V62.9488C46.5283 62.7688 46.5575 62.5967 46.6127 62.4389C46.6678 62.2795 46.7475 62.1427 46.8539 62.0248C46.9594 61.9091 47.0865 61.8149 47.2357 61.7445C47.384 61.6739 47.5486 61.6401 47.7306 61.6401V61.6401Z" fill="black"/>
</svg>
