<svg width="100" height="100" viewBox="0 0 100 100" fill="none" xmlns="http://www.w3.org/2000/svg">
<path fill-rule="evenodd" clip-rule="evenodd" d="M40.6368 9.24802C34.9574 9.24802 30.216 13.368 29.3894 18.6986C27.295 17.5567 24.888 16.9027 22.3314 16.9027C14.3187 16.9027 7.76288 23.3053 7.76288 31.1308C7.76288 38.9563 14.3187 45.3589 22.3314 45.3589C24.8359 45.3589 27.197 44.7312 29.2611 43.6322V61.5386C29.2611 67.6491 34.3802 72.6486 40.6368 72.6486C46.8475 72.6486 51.9364 67.7218 52.0108 61.6726L60.0254 69.4878C64.3533 73.7079 71.428 73.701 75.7474 69.4726C80.0668 65.2441 80.0601 58.3316 75.7322 54.1114L65.9682 44.5908L75.5532 35.2446C79.8267 31.0775 79.8334 24.2518 75.5683 20.0765C71.3033 15.9012 64.3171 15.8947 60.0437 20.0618L52.0126 27.893V20.358C52.0126 14.2475 46.8935 9.24802 40.6368 9.24802V9.24802ZM79.1343 76.4896C78.2059 76.5173 77.8927 77.2568 77.8036 78.0311L77.3195 82.2179C77.2674 82.6689 77.1862 83.1751 77.16 83.6219C77.1145 84.4025 77.6505 85.1279 78.5309 85.0877C79.4209 85.0471 79.7629 84.489 79.8714 83.5467L80.355 79.3599C80.4059 78.92 80.4948 78.3916 80.5109 77.9589C80.5406 77.1653 80.0472 76.4623 79.1343 76.4896V76.4896ZM88.1372 78.7061C87.5855 78.6884 87.0181 79.0103 86.8559 79.7552C86.766 80.168 86.8072 81.8324 86.8051 82.3693C86.6826 82.3285 86.3805 82.0544 85.906 81.8713C84.8519 81.4646 83.3665 81.621 82.4847 82.2288C81.3883 82.9845 80.7907 84.2438 80.8507 86.1003C80.9324 88.6291 82.5281 90.4983 84.952 90.2436C85.5434 90.1815 86.0289 89.9771 86.484 89.6773C86.6333 89.5789 86.7502 89.4639 86.8786 89.3798C86.9629 89.5459 86.9885 89.6478 87.1035 89.7987C87.6268 90.4852 88.8652 90.4443 89.2599 89.5351C89.414 89.1802 89.3904 88.7682 89.3904 88.3546V80.4481C89.3905 80.0303 89.3918 79.6746 89.1989 79.3251C88.9861 78.9394 88.5663 78.72 88.1372 78.7061ZM70.3955 78.717C70.0256 78.7333 69.6678 78.8954 69.4438 79.1893C69.1761 79.5406 69.1142 79.9904 69.1142 80.5225V87.1402C69.1142 87.6907 69.1035 88.2518 69.1156 88.8009C69.1573 90.7028 71.309 90.6427 71.7218 89.322C71.8499 88.9121 71.8056 88.2065 71.8056 87.7353C71.8055 87.2175 71.7676 87.4166 72.0282 87.1398C72.1061 87.0571 72.3944 86.7884 72.4896 86.7396L73.9664 89.1158C74.1903 89.465 74.5147 89.9807 74.8589 90.151C75.3924 90.4149 76.0515 90.2087 76.3424 89.9139C76.6561 89.5959 76.8475 88.9982 76.5918 88.4607C76.4438 88.1497 75.3218 86.4805 75.0883 86.1111C74.9643 85.9152 74.3786 85.0569 74.3365 84.9272L75.1235 84.2378C75.3602 84.0345 75.6511 83.7479 75.844 83.4793C76.3941 82.7133 76.0079 81.8601 75.2205 81.6699C74.2515 81.4359 73.8091 82.1944 73.2864 82.6676C73.1306 82.8087 71.8851 84.1257 71.8087 84.1639C71.7706 83.3659 71.8051 81.7582 71.8051 80.8696C71.8051 80.3641 71.832 79.8055 71.623 79.406C71.3667 78.916 70.8712 78.696 70.3956 78.717H70.3955ZM9.26596 79.4125C8.97069 79.4125 8.74385 79.5128 8.58278 79.713C8.42417 79.9132 8.34362 80.2086 8.34362 80.5995V83.414C7.9776 83.0208 7.59932 82.7302 7.21375 82.5419C6.82819 82.3537 6.35498 82.2584 5.79129 82.2584C4.82005 82.2584 4.03435 82.5921 3.43892 83.257C2.84348 83.9219 2.54553 84.8512 2.54553 86.0429C2.54553 86.6053 2.62114 87.1297 2.76999 87.6135C2.92128 88.0973 3.14094 88.5191 3.43135 88.8766C3.72173 89.2365 4.06812 89.5108 4.46591 89.7038C4.86367 89.8969 5.29582 89.9944 5.76189 89.9944C6.11574 89.9944 6.44039 89.9466 6.73811 89.8513C7.0358 89.7559 7.31402 89.6155 7.56781 89.432C7.82406 89.2485 8.08251 89.0101 8.34362 88.7169V88.9053C8.34362 89.2532 8.4318 89.5225 8.60505 89.7108C8.77832 89.8991 8.99999 89.9944 9.26596 89.9944C9.53682 89.9944 9.75893 89.9037 9.93221 89.7225C10.103 89.5414 10.1887 89.2675 10.1887 88.9053V80.502C10.1887 80.1445 10.1082 79.8726 9.94958 79.6891C9.7885 79.5056 9.56124 79.4125 9.26596 79.4125V79.4125ZM12.4672 79.4986C12.2061 79.4986 11.9768 79.5865 11.7791 79.7604C11.5814 79.9344 11.4838 80.1564 11.4838 80.4233C11.4838 80.7212 11.5792 80.9524 11.772 81.1144C11.9648 81.2765 12.1963 81.3576 12.4672 81.3576C12.7307 81.3576 12.9556 81.2741 13.1459 81.1097C13.3363 80.9452 13.4314 80.7165 13.4314 80.4233C13.4314 80.123 13.3335 79.894 13.1383 79.7343C12.9431 79.577 12.721 79.4986 12.4672 79.4986V79.4986ZM94.251 81.6107C93.5119 81.6114 92.6925 81.8075 91.9512 82.1318C90.9116 82.5866 90.2838 83.2521 90.0161 83.9838C89.7172 84.8012 89.8908 85.9338 90.7189 86.5274C92.1095 87.5241 94.3305 86.7609 95.4098 86.9593C95.9524 87.059 96.1188 87.941 94.6242 88.2694C94.0702 88.3911 93.6914 88.2331 93.347 87.9893C92.9775 87.7277 92.7046 87.4115 92.1908 87.4691C90.6917 87.637 90.686 89.6829 92.7154 90.2488C94.4031 90.7194 97.1338 89.7362 97.9742 88.312C98.4382 87.5257 98.4609 86.456 97.9234 85.6227C97.154 84.4295 95.4391 84.5341 94.1722 84.6636C93.7478 84.707 93.1145 84.7871 92.7328 84.7337C92.0239 84.6344 92.2987 84.1194 92.7871 83.8764C94.1227 83.2118 94.3774 84.3649 95.4014 84.2939C96.9103 84.1893 97.1846 82.1347 94.9574 81.6777C94.7347 81.632 94.4974 81.6105 94.251 81.6107V81.6107ZM25.6337 82.2296C24.8186 82.2296 24.1184 82.394 23.5303 82.7229C22.9446 83.0494 22.4957 83.5141 22.1857 84.1147C21.8758 84.7153 21.7194 85.4069 21.7194 86.1886C21.7194 87.3445 22.0587 88.2641 22.7371 88.9505C23.4131 89.6369 24.3551 89.98 25.5606 89.98C26.1292 89.98 26.639 89.9062 27.0904 89.756C27.5443 89.6083 27.9204 89.4107 28.2181 89.1675C28.5158 88.9245 28.7377 88.667 28.8817 88.3977C29.0281 88.1284 29.1017 87.8733 29.1017 87.6374C29.1017 87.4372 29.0209 87.2488 28.8647 87.0724C28.7086 86.896 28.5111 86.8058 28.272 86.8058C28.0719 86.8058 27.9009 86.8678 27.7643 86.9893C27.6252 87.1085 27.4957 87.275 27.3786 87.4895C27.1638 87.8518 26.9173 88.1235 26.6366 88.2998C26.3584 88.4762 26.0241 88.5643 25.6337 88.5643C25.3433 88.5643 25.075 88.5095 24.8334 88.3999C24.5893 88.2902 24.382 88.1309 24.2112 87.9188C24.038 87.7091 23.9087 87.4514 23.8184 87.1511C23.7281 86.8508 23.6817 86.5222 23.6817 86.1646C23.6817 85.402 23.8574 84.8012 24.2112 84.3626C24.5626 83.9217 25.0288 83.7024 25.6047 83.7024C26.0049 83.7024 26.3341 83.7909 26.5952 83.9673C26.8539 84.1436 27.1029 84.4105 27.3421 84.7632C27.4763 84.9444 27.5959 85.0754 27.7033 85.1564C27.8107 85.2375 27.9448 85.2778 28.1059 85.2778C28.3548 85.2778 28.5648 85.1993 28.7405 85.042C28.9138 84.8823 29.0015 84.6893 29.0015 84.4605C29.0015 84.2365 28.9234 83.9957 28.7672 83.7359C28.6135 83.4785 28.3889 83.2357 28.0961 83.0069C27.8032 82.7781 27.4447 82.5921 27.025 82.4467C26.6028 82.3013 26.1388 82.2296 25.6337 82.2296V82.2296ZM48.6261 82.2296C48.0404 82.2296 47.5062 82.3228 47.0255 82.5063C46.5447 82.6898 46.1396 82.9543 45.8101 83.2975C45.4831 83.643 45.2318 84.0552 45.061 84.5366C44.8902 85.018 44.8049 85.5426 44.8049 86.1051C44.8049 87.3015 45.1511 88.2474 45.8466 88.9457C46.5421 89.644 47.5161 89.9944 48.7704 89.9944C49.317 89.9944 49.8023 89.9253 50.2245 89.7847C50.6466 89.6465 50.9955 89.4701 51.2737 89.258C51.5544 89.0483 51.7621 88.8266 51.9012 88.5978C52.0379 88.3666 52.1083 88.1665 52.1083 87.9949C52.1083 87.7995 52.0451 87.647 51.9231 87.5421C51.7986 87.4349 51.6351 87.3799 51.4349 87.3799C51.2495 87.3799 51.1079 87.423 51.0078 87.5065C50.7638 87.7305 50.5661 87.9069 50.4124 88.038C50.2611 88.1691 50.0953 88.2902 49.9123 88.4046C49.7317 88.519 49.5463 88.6027 49.3511 88.6552C49.1583 88.71 48.9459 88.7361 48.7116 88.7361C48.3651 88.7361 48.0456 88.6526 47.7576 88.4834C47.4697 88.3165 47.2375 88.0687 47.0642 87.7374C46.891 87.4061 46.801 87.0251 46.7961 86.5913H50.615C51.1251 86.5913 51.5204 86.5197 51.801 86.3791C52.0817 86.2361 52.2232 85.9238 52.2232 85.4448C52.2232 84.9276 52.0866 84.4201 51.8157 83.922C51.5424 83.4216 51.135 83.0162 50.5883 82.7016C50.0441 82.387 49.3899 82.2296 48.6261 82.2296V82.2296ZM12.448 82.244C12.1625 82.244 11.9305 82.3395 11.7524 82.5302C11.5742 82.7209 11.4838 83.0042 11.4838 83.3831V88.8361C11.4838 89.2079 11.5742 89.4941 11.7524 89.6943C11.9305 89.8944 12.1625 89.9944 12.448 89.9944C12.7336 89.9944 12.9676 89.8966 13.153 89.7012C13.3385 89.5058 13.4314 89.2174 13.4314 88.8361V83.3261C13.4314 82.9877 13.3385 82.7209 13.153 82.5302C12.9676 82.3395 12.7336 82.244 12.448 82.244V82.244ZM17.379 82.244C16.7348 82.244 16.1855 82.3463 15.7316 82.5489C15.2753 82.7515 14.9313 83.021 14.6971 83.3618C14.4652 83.7026 14.3479 84.0624 14.3479 84.4461C14.3479 84.8728 14.4751 85.2352 14.7265 85.5283C14.9803 85.8215 15.3168 86.0598 15.7365 86.2386C16.1587 86.4173 16.7052 86.5889 17.3763 86.7509C17.9718 86.8916 18.3992 87.039 18.6603 87.1915C18.919 87.3465 19.0482 87.5897 19.0482 87.9257C19.0482 88.145 18.9237 88.3402 18.6723 88.5094C18.4234 88.6787 18.1039 88.7648 17.7135 88.7648C17.2327 88.7648 16.852 88.6813 16.5738 88.5121C16.2956 88.3452 16.0564 88.0902 15.8563 87.7518C15.7563 87.573 15.6513 87.4372 15.5415 87.3394C15.4317 87.2417 15.2753 87.1915 15.0703 87.1915C14.836 87.1915 14.6435 87.2654 14.4922 87.4155C14.3385 87.5633 14.2629 87.7421 14.2629 87.9518C14.2629 88.2688 14.3824 88.5835 14.6191 88.8957C14.8583 89.2103 15.2265 89.4725 15.7267 89.6799C16.227 89.8896 16.8274 89.9944 17.5278 89.9944C18.2623 89.9944 18.8845 89.8991 19.3969 89.706C19.9094 89.5129 20.2973 89.2294 20.5584 88.8552C20.8195 88.4811 20.9517 88.0308 20.9517 87.5065C20.9517 87.1561 20.8514 86.8461 20.6537 86.5744C20.456 86.3003 20.1657 86.0643 19.7826 85.8641C19.3995 85.6639 18.9043 85.4899 18.2991 85.3469C17.7891 85.2254 17.3888 85.1228 17.0984 85.0394C16.808 84.956 16.5787 84.8489 16.4055 84.7202C16.2346 84.5939 16.1489 84.4293 16.1489 84.2291C16.1489 84.0098 16.2663 83.8266 16.4981 83.6789C16.7324 83.5335 17.0249 83.4597 17.3763 83.4597C17.7204 83.4597 17.9912 83.5143 18.1913 83.6263C18.3914 83.7383 18.5651 83.8884 18.7115 84.0743C18.8945 84.2983 19.0552 84.465 19.1943 84.5771C19.3358 84.6891 19.5068 84.7441 19.7069 84.7441C19.9826 84.7441 20.1976 84.6751 20.3464 84.5344C20.4977 84.3962 20.5731 84.215 20.5731 83.9981C20.5731 83.7956 20.5026 83.5928 20.3611 83.3831C20.222 83.1734 20.017 82.983 19.7461 82.809C19.4777 82.6374 19.1409 82.4992 18.7382 82.3967C18.338 82.2942 17.8841 82.244 17.379 82.244V82.244ZM33.1745 82.244C32.5912 82.244 32.0595 82.3371 31.5787 82.5206C31.098 82.7041 30.6879 82.966 30.3487 83.3044C30.0095 83.6452 29.7505 84.0554 29.5675 84.5344C29.3869 85.0135 29.2967 85.5426 29.2967 86.1194C29.2967 86.6914 29.3871 87.2131 29.5653 87.6874C29.7434 88.1593 30.0068 88.5692 30.3509 88.9148C30.6974 89.2628 31.1078 89.5296 31.5787 89.7156C32.0497 89.9015 32.5815 89.9944 33.1745 89.9944C33.7699 89.9944 34.3068 89.9017 34.7826 89.7182C35.2585 89.5347 35.6711 89.2721 36.0127 88.9266C36.3568 88.5834 36.6175 88.1712 36.8005 87.6922C36.9811 87.2131 37.0718 86.6912 37.0718 86.1216C37.0718 85.5496 36.9813 85.0253 36.8032 84.551C36.6251 84.0743 36.3639 83.6646 36.0198 83.3214C35.6757 82.9758 35.2634 82.7087 34.7826 82.5228C34.3019 82.3369 33.765 82.244 33.1745 82.244V82.244ZM38.1032 82.244C37.9348 82.244 37.7809 82.2848 37.6369 82.3658C37.4954 82.4468 37.383 82.5515 37.3025 82.6802C37.2219 82.8089 37.1804 82.9376 37.1804 83.0687C37.1804 83.1521 37.195 83.252 37.2267 83.3688C37.2585 83.4856 37.2953 83.5978 37.3416 83.7098C37.3856 83.8218 37.4295 83.934 37.4735 84.046L39.3306 88.536C39.5161 88.9674 39.6502 89.2579 39.7283 89.4033C39.8064 89.551 39.9282 89.6871 40.0917 89.8086C40.2576 89.9326 40.4773 89.9944 40.7531 89.9944C40.9678 89.9944 41.1487 89.9538 41.3 89.8752C41.4489 89.7965 41.5756 89.6872 41.6781 89.5442C41.7806 89.4012 41.8735 89.2316 41.9564 89.0314C42.0418 88.8312 42.1076 88.6647 42.1613 88.536L44.0327 83.9955C44.0839 83.8716 44.1306 83.7596 44.1721 83.6619C44.2136 83.5642 44.2477 83.4595 44.2794 83.3475C44.3111 83.2354 44.3257 83.1377 44.3257 83.0543C44.3257 82.8398 44.238 82.6514 44.0647 82.4893C43.8915 82.3249 43.6817 82.244 43.4328 82.244C43.1717 82.244 42.9765 82.3205 42.8471 82.4706C42.7178 82.6231 42.5881 82.8804 42.4539 83.2426L40.7531 87.7635L39.1743 83.431C39.0254 83.0044 38.8913 82.6994 38.7717 82.5158C38.6497 82.3347 38.4253 82.244 38.1032 82.244V82.244ZM54.2995 82.244C53.6674 82.244 53.35 82.6728 53.35 83.5284V88.8361C53.35 89.2174 53.4402 89.5058 53.6208 89.7012C53.8013 89.8966 54.0331 89.9944 54.3137 89.9944C54.5993 89.9944 54.8337 89.8969 55.0192 89.7038C55.2046 89.5108 55.2975 89.2222 55.2975 88.8361V87.2442C55.2975 86.6722 55.317 86.1881 55.3536 85.7901C55.3927 85.3921 55.4607 85.049 55.5607 84.7606C55.6608 84.4722 55.8023 84.2555 55.9829 84.1078C56.1659 83.9624 56.3979 83.8885 56.6835 83.8885C56.8933 83.8885 57.135 83.9315 57.4107 84.0173C57.684 84.1031 57.857 84.146 57.9278 84.146C58.1181 84.146 58.2965 84.0719 58.46 83.9194C58.6259 83.7669 58.7063 83.5762 58.7063 83.3427C58.7063 83.0114 58.5138 82.7443 58.1282 82.5441C57.7426 82.3439 57.3446 82.244 56.9346 82.244C56.5247 82.244 56.1978 82.3439 55.9513 82.5441C55.7048 82.7443 55.4656 83.0423 55.2338 83.4331C55.2192 83.0423 55.1413 82.7443 54.9973 82.5441C54.8558 82.3439 54.6216 82.244 54.2995 82.244V82.244ZM59.6918 82.244C59.5308 82.244 59.3749 82.2871 59.226 82.3706C59.0747 82.454 58.9573 82.5659 58.8719 82.7042C58.7865 82.8448 58.7428 82.9971 58.7428 83.1591C58.7428 83.3116 58.8157 83.5595 58.9646 83.9003L61.3659 89.8086L61.1856 90.2353C61.0538 90.5475 60.934 90.7831 60.8315 90.9452C60.729 91.1048 60.6144 91.2192 60.485 91.2836C60.3581 91.3479 60.1827 91.3814 59.9582 91.3814C59.8679 91.3814 59.7602 91.367 59.6357 91.3384C59.5357 91.3122 59.4334 91.2979 59.3284 91.2979C59.0624 91.2979 58.8596 91.3575 58.7254 91.4767C58.5887 91.5935 58.5206 91.7628 58.5206 91.9821C58.5206 92.3014 58.6648 92.523 58.9503 92.6445C59.2358 92.7661 59.6651 92.8259 60.2361 92.8259C60.8218 92.8259 61.2877 92.7376 61.6318 92.5636C61.9783 92.3897 62.2565 92.1394 62.4664 91.8129C62.6738 91.4864 62.8886 91.0385 63.1082 90.4641L65.6534 83.9551C65.7144 83.7883 65.7658 83.6218 65.8097 83.4597C65.8536 83.2976 65.8828 83.1712 65.9023 83.083C65.9023 82.9376 65.866 82.7994 65.7928 82.6707C65.7171 82.5396 65.6121 82.437 65.4779 82.3584C65.3413 82.2821 65.1999 82.244 65.0535 82.244C64.8485 82.244 64.6897 82.2797 64.5774 82.3488C64.4651 82.4179 64.3604 82.554 64.2603 82.7542C64.1603 82.9544 64.0481 83.2307 63.9236 83.5858L62.3591 87.9497L60.7073 83.257C60.5975 82.9305 60.4727 82.6802 60.3287 82.5063C60.1872 82.3323 59.9749 82.244 59.6918 82.244V82.244ZM48.5628 83.5597C49.0729 83.5597 49.4828 83.7216 49.7951 84.0434C50.1075 84.3675 50.2881 84.8537 50.3345 85.5044H46.7961C46.862 84.8633 47.052 84.3792 47.3644 84.0503C47.6768 83.7238 48.0748 83.5597 48.5628 83.5597ZM33.1745 83.6598C33.765 83.6598 34.2335 83.8764 34.5849 84.3078C34.9339 84.7416 35.1095 85.3446 35.1095 86.1216C35.1095 86.889 34.9339 87.492 34.5849 87.9257C34.2335 88.3619 33.765 88.5786 33.1745 88.5786C32.784 88.5786 32.4425 88.4811 32.1546 88.2833C31.8666 88.0855 31.6467 87.7995 31.4906 87.4277C31.3368 87.0559 31.259 86.6197 31.259 86.1216C31.259 85.6211 31.3368 85.1802 31.4955 84.8037C31.6517 84.4271 31.8762 84.1412 32.1666 83.9481C32.457 83.7551 32.7914 83.6598 33.1745 83.6598V83.6598ZM6.35021 83.6741C6.6943 83.6741 7.00911 83.7694 7.29704 83.9625C7.58501 84.1555 7.81407 84.4341 7.98244 84.8011C8.15083 85.1657 8.23629 85.602 8.23629 86.1072C8.23629 86.6482 8.15083 87.0964 7.98244 87.4586C7.81407 87.8185 7.58723 88.0854 7.30416 88.2594C7.02107 88.4333 6.70897 88.5216 6.36491 88.5216C6.02814 88.5216 5.71561 88.4285 5.4301 88.245C5.14216 88.0615 4.91755 87.79 4.75405 87.4277C4.59056 87.0631 4.50777 86.6244 4.50777 86.1072C4.50777 85.6211 4.58562 85.192 4.73936 84.8202C4.89553 84.4508 5.11296 84.1673 5.39358 83.9695C5.67423 83.7717 5.99392 83.6741 6.35021 83.6741ZM85.1279 83.7681C86.1066 83.7617 86.656 84.7846 86.6889 85.7267C86.7839 88.4452 84.7184 88.4659 83.9914 87.533C83.2874 86.6296 83.2781 84.0202 84.9266 83.7837C84.9956 83.7738 85.0627 83.7685 85.1279 83.7681V83.7681ZM78.0494 86.0685C77.3391 86.0574 76.7383 86.5859 76.7298 87.3773C76.7223 88.0731 77.2905 88.6711 78.0891 88.6482C79.852 88.5976 79.9024 86.0976 78.0494 86.0685Z" fill="#084164"/>
<path fill-rule="evenodd" clip-rule="evenodd" d="M40.4009 12.2416C35.6781 12.2416 31.814 16.0151 31.814 20.6275V20.8828C34.7864 23.4924 36.6643 27.2708 36.6643 31.4578C36.6643 34.1688 35.8768 36.7087 34.5151 38.871L36.117 44.6759C36.3149 45.6419 35.8735 45.8537 35.098 45.6711L31.814 44.6298V61.923C31.814 66.5354 35.6781 70.3093 40.4009 70.3093C45.1236 70.3093 50.9235 66.1301 48.9878 61.923L44.1343 51.3741L61.8523 67.9179C65.1472 70.9943 70.3473 71.0546 73.5706 67.9066H73.571C76.7904 64.7549 76.7852 59.6029 73.5594 56.4574L61.8238 45.0143L73.8627 33.275C77.0885 30.1295 77.0937 24.9774 73.8743 21.8258C70.6549 18.6741 65.3814 18.669 62.1556 21.8145L48.9878 34.6546V20.6275C48.9878 16.0151 45.1236 12.2416 40.4009 12.2416L40.4009 12.2416Z" fill="#00D400"/>
<path d="M19.5341 26.3181L22.0976 36.2953L19.6918 36.9134L18.6408 32.8228L13.9183 34.0362L14.9693 38.1268L12.5635 38.7449L10 28.7678L12.4058 28.1497L13.4165 32.0835L18.1391 30.8701L17.1283 26.9363L19.5341 26.3181Z" fill="#FFFF00"/>
<path d="M21.9937 25.6862L26.7162 24.4728C27.8448 24.1828 28.8935 24.1362 29.8623 24.333C30.8385 24.5178 31.6607 24.9244 32.3288 25.553C33.0068 26.179 33.4739 26.9908 33.7303 27.9886C33.9866 28.9863 33.9687 29.9228 33.6764 30.7981C33.3941 31.6708 32.871 32.4282 32.1072 33.0701C31.3508 33.7 30.4083 34.16 29.2796 34.45L24.5571 35.6633L21.9937 25.6862ZM28.6738 32.5848C29.7133 32.3177 30.4692 31.8298 30.9414 31.1209C31.4211 30.4001 31.5389 29.5645 31.2948 28.6143C31.0506 27.6641 30.5459 26.9936 29.7806 26.6027C29.0227 26.1998 28.124 26.1319 27.0844 26.399L24.8865 26.9637L26.4759 33.1495L28.6738 32.5848Z" fill="#FFFF00"/>
</svg>
