<svg width="100" height="100" viewBox="0 0 100 100" fill="none" xmlns="http://www.w3.org/2000/svg">
<path d="M2.91992 36.4872C3.02839 36.379 3.0819 36.2723 3.0819 36.1646C3.0819 36.03 3.01393 35.9228 2.87943 35.842C2.82495 35.8137 2.71697 35.7887 2.55451 35.7613C2.39253 35.7329 2.22284 35.7012 2.04785 35.6608C1.87189 35.6204 1.70992 35.5723 1.56096 35.519C1.41199 35.4656 1.33776 35.3978 1.33776 35.3171C1.33776 35.1277 1.64869 34.9666 2.27057 34.8334C2.81146 34.6993 3.36536 34.6032 3.93372 34.5498C4.50161 34.4965 5.05503 34.4691 5.5964 34.4691C8.27287 34.4691 10.7806 34.6993 13.1192 35.1555C15.4577 35.6118 17.8305 36.2992 20.237 37.2121C21.3727 37.6429 22.5558 38.1534 23.7855 38.7447C25.0158 39.336 26.219 39.9966 27.3948 40.721C28.5711 41.4469 29.6933 42.2406 30.7611 43.1011C31.8294 43.9621 32.7617 44.8827 33.5596 45.8644C34.3574 46.8466 34.9928 47.8821 35.4657 48.9714C35.9386 50.0608 36.1758 51.1977 36.1758 52.3808C36.1758 53.5913 35.9391 54.6191 35.4657 55.4671C34.9923 56.3151 34.3709 57.0343 33.6001 57.6246C32.8292 58.2164 31.9576 58.6875 30.9839 59.037C30.0105 59.387 29.017 59.663 28.0027 59.8644C26.9889 60.0663 25.9954 60.1942 25.022 60.248C24.0483 60.3014 23.1969 60.3283 22.4671 60.3283C21.9532 60.3283 21.338 60.2812 20.6217 60.1874C19.9053 60.0927 19.2227 59.8437 18.5733 59.4404L18.5329 50.7266C18.6953 50.6732 18.8443 50.6328 18.9788 50.6054C19.1142 50.578 19.3167 50.565 19.5876 50.565C20.399 50.565 21.2503 50.6328 22.1426 50.7669C23.0354 50.9011 23.88 51.0693 24.6774 51.2712C25.4752 51.4731 26.1718 51.6948 26.7662 51.9366C27.3611 52.1794 27.7665 52.4207 27.9829 52.6639C27.8475 52.9336 27.5973 53.2149 27.2324 53.5119C26.8669 53.8066 26.5362 54.1287 26.2383 54.4801C26.4543 54.6417 26.7455 54.7705 27.1109 54.8643C27.4758 54.957 27.78 55.0051 28.0234 55.0051C28.3749 55.0051 28.7128 54.9046 29.0377 54.7022C29.3622 54.5003 29.6591 54.2576 29.93 53.9759C30.2005 53.6932 30.4165 53.3908 30.5789 53.0668C30.7414 52.7437 30.8224 52.4611 30.8224 52.2197C30.8224 51.5481 30.6059 50.9549 30.1735 50.4453C29.7411 49.9343 29.1727 49.5036 28.4703 49.1531C27.767 48.8036 26.9826 48.5147 26.1178 48.2854C25.2525 48.057 24.3944 47.8825 23.5421 47.7614C22.6903 47.6402 21.8857 47.5527 21.1288 47.4984C20.372 47.4455 19.7636 47.4177 19.3042 47.4177H18.7363C18.6823 46.9614 18.6413 46.524 18.6143 46.1057L18.5333 44.8755C18.5063 44.4184 18.4658 43.9862 18.4114 43.5833C18.3579 43.179 18.2696 42.8108 18.1477 42.4738C18.0262 42.1373 17.857 41.8075 17.641 41.4844C17.4246 41.1614 17.1271 40.8527 16.7482 40.5561C16.5052 40.771 16.3018 41.1542 16.1398 41.707C15.9779 42.2579 15.8424 42.843 15.7339 43.4603C15.6259 44.079 15.5382 44.6443 15.4702 45.1548C15.4027 45.6659 15.369 45.975 15.369 46.0831L15.288 47.7359C13.2874 48.0864 11.6382 48.4767 10.34 48.9075C9.04226 49.3382 7.91951 49.9021 6.97368 50.6006C6.08137 51.2193 5.63593 51.838 5.63593 52.4558C5.63593 53.075 5.8519 53.6937 6.2848 54.3119C6.71722 54.9306 7.16314 55.482 7.62304 55.9651C8.16392 56.5838 9.02924 57.3372 10.2185 58.2246C11.4088 59.1125 12.936 60.0947 14.8016 61.1691C14.9366 61.7873 15.0725 62.3733 15.207 62.9238C15.3425 63.4747 15.5589 63.9381 15.8564 64.316L16.7892 64.3968C17.0601 64.3968 17.3031 64.3838 17.5195 64.3554C17.7355 64.329 17.9659 64.2881 18.2094 64.2343L18.5136 63.2055C18.5815 62.9767 18.6418 62.7546 18.6963 62.5402C19.6151 62.6743 20.5952 62.8094 21.6369 62.9435C22.6772 63.0781 23.6713 63.1454 24.6176 63.1454C26.4557 63.1454 28.2881 62.9233 30.1127 62.4791C31.9379 62.0349 33.5803 61.3633 35.041 60.4624C36.5007 59.5615 37.6837 58.4313 38.5895 57.0732C39.4954 55.7152 39.948 54.1206 39.948 52.2933C39.948 50.9213 39.6366 49.5766 39.0147 48.258C38.3933 46.9408 37.5685 45.6832 36.5407 44.4861C35.5129 43.2891 34.3507 42.1661 33.0529 41.1167C31.7557 40.0672 30.4309 39.1202 29.0787 38.2717C27.7265 37.4246 26.4017 36.6848 25.104 36.0536C23.8063 35.4224 22.6575 34.9185 21.6567 34.5412C19.6561 33.8417 17.5677 33.2437 15.3907 32.7466C13.2141 32.2495 11.2063 32 9.36814 32C8.90872 32 8.35434 32.0072 7.70547 32.0197C7.0566 32.0332 6.38796 32.0808 5.69812 32.161C5.00827 32.2418 4.31938 32.3697 3.62954 32.5447C2.93969 32.7187 2.33179 32.949 1.8044 33.2316C1.27701 33.5134 0.845076 33.8691 0.507142 34.3008C0.169208 34.7315 0 35.2551 0 35.8738C0 36.1425 0.209702 36.318 0.628625 36.3978C1.04755 36.4785 1.4872 36.5189 1.94662 36.5189C2.16307 36.5189 2.35879 36.5117 2.53475 36.4992C2.7107 36.492 2.83893 36.4872 2.91992 36.4872ZM15.128 50.6881L14.763 58.5145C13.8167 58.3001 12.8907 57.977 11.9848 57.5453C11.079 57.1151 10.3014 56.6319 9.65257 56.093C9.35513 55.8786 9.03792 55.6373 8.6995 55.3671C8.36109 55.0979 8.03665 54.8219 7.72572 54.5393C7.41478 54.2566 7.15784 53.9682 6.95537 53.6715C6.75193 53.3759 6.65069 53.0942 6.65069 52.824C6.65069 52.474 6.90764 52.1856 7.42153 51.9558C7.93542 51.7275 8.58429 51.5328 9.36814 51.3707C10.1525 51.2092 11.0173 51.0809 11.9641 50.9876C12.9104 50.8939 13.8162 50.7924 14.6816 50.6847H15.128V50.6881Z" fill="black"/>
<path d="M49.8547 36.4069C49.7202 35.9502 49.3345 35.5738 48.6996 35.2767C48.0642 34.981 47.3002 34.8334 46.4078 34.8334C45.4341 34.8334 44.4815 35.0353 43.5482 35.4382C42.6154 35.842 41.777 36.3463 41.0337 36.9506C40.2903 37.5549 39.6887 38.2221 39.2293 38.9457C38.7694 39.6735 38.5394 40.373 38.5394 41.0441C38.5394 41.5012 38.6407 41.918 38.8436 42.2959C39.0466 42.6738 39.2963 43.0627 39.5942 43.4655C39.5672 43.5742 39.5402 43.6886 39.5127 43.8097C39.4857 43.9309 39.4722 44.0443 39.4722 44.1525C39.5262 44.6097 39.6549 45.0005 39.8579 45.3226C40.0609 45.6457 40.2696 45.8336 40.4865 45.8879C40.784 45.8336 41.0072 45.7134 41.1561 45.5245C41.3051 45.3356 41.4873 45.1077 41.7033 44.839C42.0817 44.9731 42.5011 45.0673 42.9605 45.1207C43.4204 45.175 43.8528 45.2015 44.2583 45.2015C44.9341 45.2015 45.732 45.0005 46.6513 44.5967C47.5706 44.1929 48.4489 43.6756 49.2873 43.0439C50.1256 42.4122 50.8352 41.6983 51.4166 40.9051C51.998 40.1134 52.2891 39.3259 52.2891 38.5457C52.2891 38.1702 52.2009 37.8476 52.0254 37.5775C51.8495 37.3083 51.6398 37.0799 51.3963 36.8915C51.1534 36.703 50.9032 36.5679 50.6458 36.4872C50.3893 36.4069 50.1796 36.367 50.0171 36.367C49.9631 36.367 49.9289 36.3737 49.9159 36.3867C49.9019 36.3997 49.8817 36.4069 49.8547 36.4069ZM42.7981 47.5008C42.6636 47.5008 42.5821 47.5955 42.5551 47.784C42.2847 49.8276 42.1087 51.4077 42.0277 52.524C41.9467 53.6388 41.8923 54.3465 41.8653 54.6412C41.8383 55.1791 41.8175 55.6026 41.8045 55.9127C41.791 56.2228 41.777 56.5108 41.764 56.7804C41.7505 57.0492 41.7438 57.3448 41.7438 57.6688V58.8793C41.7438 58.9875 41.764 59.149 41.8045 59.3634C41.845 59.5778 41.899 59.8009 41.9665 60.0293C42.0345 60.259 42.1155 60.4739 42.2104 60.6758C42.3044 60.8778 42.4196 60.9912 42.5551 61.0186C42.7171 61.072 42.9065 61.1273 43.123 61.1801C43.339 61.2335 43.5284 61.2609 43.6909 61.2609C44.2043 61.2609 44.5427 61.1071 44.7052 60.797C44.8671 60.4869 44.9481 60.1711 44.9481 59.8475C44.9481 58.2351 44.8946 56.5877 44.7861 54.907C44.6777 53.2254 44.5967 51.5654 44.5427 49.9242C44.4887 49.1449 44.3672 48.5522 44.1778 48.1498C43.9883 47.7474 43.5279 47.5282 42.7981 47.5008ZM42.96 42.4992C43.3655 41.9339 43.8181 41.3825 44.3185 40.845C44.8189 40.3071 45.3391 39.8225 45.88 39.3927C46.4204 38.962 46.9748 38.6197 47.5426 38.363C48.1105 38.1082 48.6919 37.9799 49.2863 37.9799C49.8272 37.9799 50.1386 38.0731 50.2196 38.2625C50.3006 38.4514 50.3411 38.6933 50.3411 38.9884C50.3411 39.6071 50.1179 40.1518 49.672 40.6229C49.2256 41.0936 48.6779 41.4897 48.0295 41.8132C47.3807 42.1358 46.7048 42.3843 46.0015 42.5593C45.2986 42.7338 44.6902 42.8213 44.1768 42.8213H43.284C43.2305 42.8213 43.1625 42.7814 43.0815 42.7002C43.001 42.6194 42.96 42.5526 42.96 42.4992ZM40.527 41.0469C40.608 40.2667 40.9459 39.5475 41.5413 38.8894C42.1362 38.2308 42.947 37.7938 43.9748 37.5775C44.0288 37.6304 44.0558 37.6977 44.0558 37.7794V37.8188C43.8124 38.0337 43.5356 38.2899 43.2242 38.5861C42.9128 38.8827 42.6091 39.1841 42.3117 39.4947L41.4796 40.3629C41.2231 40.6325 41.0274 40.8595 40.8919 41.0493C40.838 41.1017 40.77 41.1301 40.689 41.1301C40.635 41.1272 40.581 41.1003 40.527 41.0469Z" fill="black"/>
<path d="M48.9344 51.052C49.1503 50.9174 49.4208 50.8097 49.7457 50.729C50.0701 50.6482 50.5705 50.554 51.2464 50.4463C51.5703 50.3929 52.0437 50.3381 52.6651 50.2852C53.2875 50.2314 53.9426 50.1776 54.6325 50.1232C55.3223 50.0699 55.991 50.0228 56.6398 49.9824C57.2892 49.942 57.7891 49.8939 58.1405 49.8415C58.3025 49.8132 58.5257 49.7805 58.8097 49.7401C59.0936 49.6997 59.3168 49.6516 59.4793 49.5992C59.6952 49.5185 59.8914 49.4041 60.0674 49.2565C60.2429 49.107 60.3441 48.9123 60.3716 48.6695C60.3716 48.4556 60.3311 48.307 60.2496 48.2263C60.1686 48.1455 60.0601 48.0921 59.9252 48.0647C59.2493 47.9032 58.4717 47.7489 57.5934 47.5999C56.7146 47.4513 55.761 47.3782 54.7337 47.3782C54.6802 47.3782 54.443 47.3912 54.0236 47.4186C53.6047 47.4465 53.0908 47.5071 52.4829 47.5999C51.8741 47.6946 51.2319 47.8296 50.5565 48.0046C49.8807 48.1782 49.2521 48.4152 48.6707 48.7099C48.0893 49.0065 47.6092 49.3819 47.2307 49.8415C46.8523 50.2987 46.6628 50.8347 46.6628 51.4539C46.6628 51.8846 46.7173 52.2418 46.8253 52.5245C46.9338 52.8062 47.1705 53.0355 47.5354 53.21C47.9003 53.3855 48.434 53.5134 49.1373 53.5932C49.8402 53.6739 50.773 53.7283 51.9358 53.7547C52.3682 53.7547 52.9226 53.8023 53.5984 53.8965C54.2743 53.9903 54.9367 54.1186 55.586 54.2797C56.2349 54.4407 56.7888 54.6498 57.2487 54.9051C57.7081 55.1604 57.9381 55.4628 57.9381 55.8132C57.9381 56.1896 57.6406 56.5117 57.0457 56.7824C56.4509 57.0521 55.7817 57.2732 55.0379 57.4482C54.2945 57.6232 53.5782 57.7515 52.8883 57.8323C52.199 57.9131 51.7593 57.9534 51.5703 57.9534C51.1919 57.9534 50.8135 57.9458 50.4351 57.9328C50.0566 57.9198 49.7052 57.8847 49.3803 57.8323C49.0563 57.778 48.7926 57.6775 48.5892 57.529C48.3867 57.3804 48.285 57.1862 48.285 56.9434C48.285 56.4867 48.4205 56.2045 48.6909 56.0959C48.9614 55.9877 49.2453 55.9344 49.5427 55.9344C49.9482 55.9344 50.3473 55.9877 50.7388 56.0959C51.1307 56.2045 51.5164 56.3185 51.8948 56.4396C52.2732 56.5603 52.6314 56.668 52.9693 56.7617C53.3073 56.8554 53.6254 56.9035 53.9229 56.9035C54.4363 56.9035 54.9102 56.8098 55.3421 56.6213C55.775 56.4319 56.0724 56.2574 56.2349 56.0949C56.2884 56.0425 56.3159 55.9618 56.3159 55.8536C56.3159 55.8002 56.2884 55.7454 56.2349 55.6921C55.397 55.2613 54.511 54.9455 53.5782 54.7436C52.6454 54.5417 51.7868 54.4407 51.0025 54.4407C50.597 54.4407 50.1781 54.4816 49.7457 54.5623C49.3133 54.6431 48.9141 54.7772 48.5492 54.9652C48.1843 55.1551 47.8873 55.4094 47.6569 55.7324C47.4269 56.056 47.3122 56.4593 47.3122 56.9434C47.3122 57.3468 47.4877 57.7765 47.8396 58.2356C48.191 58.6928 48.6639 59.1087 49.2588 59.4865C49.8537 59.862 50.543 60.1725 51.3274 60.4143C52.1112 60.6566 52.9361 60.7778 53.8014 60.7778C54.1258 60.7778 54.6257 60.7451 55.3016 60.6773C55.9775 60.6095 56.6601 60.422 57.3499 60.1115C58.0393 59.8019 58.6477 59.3447 59.1751 58.7399C59.702 58.1342 59.9657 57.2809 59.9657 56.1776C59.9657 55.2368 59.7357 54.5042 59.2763 53.9797C58.8164 53.4552 58.249 53.0653 57.5726 52.8086C56.8973 52.5543 56.1539 52.3923 55.3421 52.325L53.1115 52.1438C52.3007 52.0894 51.5974 52.0087 51.0025 51.9005C50.4081 51.7923 49.7182 51.5904 48.9344 51.2948C48.8804 51.2948 48.8529 51.2683 48.8529 51.214C48.8529 51.1597 48.8799 51.1044 48.9344 51.052Z" fill="black"/>
<path d="M68.7249 46.3322L68.8464 46.8167C69.0903 47.7575 69.3193 48.5652 69.5367 49.2363C69.7532 49.9083 69.9422 50.5482 70.1046 51.153C70.2676 51.7573 70.3958 52.3894 70.4898 53.048C70.5843 53.7071 70.632 54.4941 70.632 55.4084C70.632 55.7579 70.6253 56.0195 70.6123 56.1954C70.5992 56.3699 70.5235 56.4574 70.3891 56.4574C70.417 56.4574 70.3211 56.3502 70.1046 56.1348C69.5642 55.4623 69.0161 54.6825 68.4627 53.7946C67.9093 52.9072 67.3742 52.0669 66.8612 51.2736C66.3478 50.4804 65.8672 49.8079 65.4218 49.257C64.9754 48.706 64.6042 48.4296 64.3067 48.4296C64.0093 48.4296 63.7388 48.6185 63.4954 48.994C63.2519 49.3704 63.0225 49.8545 62.8055 50.4463C62.5896 51.0371 62.4001 51.6904 62.2377 52.4029C62.0757 53.1149 61.9402 53.8283 61.8322 54.5398C61.7238 55.2527 61.6428 55.9118 61.5888 56.517C61.5348 57.1218 61.5073 57.5996 61.5073 57.9491C61.5073 58.1905 61.5276 58.4928 61.5685 58.8563C61.609 59.2207 61.69 59.5692 61.812 59.9067C61.9335 60.2422 62.0959 60.5321 62.2984 60.7749C62.5014 61.0172 62.7651 61.1383 63.0895 61.1383C63.3059 61.1383 63.4882 61.0643 63.6371 60.9167C63.7861 60.7672 63.9008 60.5922 63.9823 60.3903C64.0633 60.1894 64.1308 59.9807 64.1848 59.7653C64.2388 59.5505 64.2792 59.3745 64.3067 59.2404C64.3607 58.9183 64.408 58.4534 64.4484 57.8487C64.4889 57.2424 64.5227 56.6175 64.5502 55.9719C64.5772 55.3267 64.6042 54.7484 64.6312 54.2379C64.6582 53.7268 64.6852 53.4052 64.7121 53.2701C64.7936 52.9745 64.8881 52.8255 64.9961 52.8255C65.0776 52.8255 65.2193 53.0149 65.4222 53.3913C65.6252 53.7672 65.8614 54.2316 66.1319 54.7835C66.4028 55.3344 66.7002 55.9329 67.0247 56.5776C67.3491 57.2232 67.6938 57.8217 68.0592 58.3727C68.4246 58.9236 68.8103 59.387 69.2147 59.7649C69.6201 60.1408 70.0116 60.3297 70.39 60.3297C70.8774 60.3297 71.3156 60.161 71.7075 59.825C72.0994 59.4894 72.4306 59.0582 72.7016 58.5342C72.973 58.0092 73.1745 57.4319 73.3109 56.7997C73.4454 56.1685 73.5139 55.5421 73.5139 54.9234C73.5139 53.5254 73.3384 52.2342 72.9865 51.0511C72.635 49.8675 72.2214 48.8517 71.7495 48.0051C71.2775 47.1571 70.7906 46.498 70.2907 46.0283C69.7898 45.5577 69.4047 45.3217 69.1347 45.3217C68.9452 45.3217 68.8305 45.4231 68.79 45.624C68.7495 45.8259 68.7288 46.0081 68.7288 46.1692V46.3312H68.7259V46.3322H68.7249Z" fill="black"/>
<path d="M84.4733 58.6356C84.4733 58.3659 84.3639 58.0982 84.1484 57.8289C83.9319 57.5593 83.702 57.4242 83.4581 57.4242C83.2426 57.4242 83.0194 57.4328 82.7889 57.4448C82.5585 57.4578 82.3368 57.4785 82.1189 57.5049C80.8216 57.6395 79.7996 57.7809 79.0562 57.9294C78.3129 58.078 77.8867 58.152 77.7792 58.152C77.9952 57.6948 78.1851 57.2376 78.3471 56.78C78.5101 56.3223 78.6446 55.8786 78.7535 55.4479C78.8065 55.3392 78.8875 55.2873 78.9969 55.2873C80.0242 55.2873 80.9508 55.2734 81.7756 55.246C82.6004 55.2186 83.2021 55.1931 83.5795 55.1662C83.77 55.1378 83.891 55.0104 83.9459 54.782C83.9989 54.5532 84.0269 54.358 84.0269 54.1965C84.0269 54.0071 84.0129 53.7999 83.9864 53.5711C83.9585 53.3422 83.8914 53.1605 83.783 53.0259L83.2146 52.9452H80.2122C80.0782 52.9452 79.9823 52.8976 79.9288 52.8033C79.8753 52.7101 79.8478 52.6221 79.8478 52.5413C79.8478 52.0303 79.9081 51.6409 80.0305 51.3707C80.152 51.1015 80.2528 50.9275 80.3347 50.8467C80.4692 50.8189 80.6717 50.8064 80.9436 50.8064C81.2145 50.8064 81.456 50.7992 81.6739 50.7857C81.8899 50.7727 82.1058 50.766 82.3237 50.766C82.5392 50.766 82.7957 50.7588 83.0946 50.7458C83.3915 50.7323 83.7569 50.7126 84.1894 50.6847C84.3798 50.6847 84.6015 50.6516 84.8595 50.5833C85.1159 50.5165 85.3521 50.4424 85.5695 50.3626C85.7855 50.2819 85.9759 50.1934 86.1379 50.0997C86.2999 50.0064 86.3818 49.905 86.3818 49.7973C86.3818 49.4468 86.2117 49.0849 85.8742 48.7065C85.5363 48.3301 85.2726 48.0349 85.0826 47.8186C84.6507 47.6849 84.3108 47.6042 84.0684 47.5763C83.8244 47.5494 83.6089 47.5359 83.419 47.5359C82.5807 47.5359 81.8233 47.5763 81.148 47.6571C80.4726 47.7378 79.8565 47.8263 79.3026 47.9205L77.7619 48.182C77.2894 48.2633 76.8353 48.3162 76.4039 48.344C76.0524 48.3705 75.7897 48.4248 75.6123 48.5056C75.4363 48.5863 75.3486 48.7344 75.3486 48.9488C75.3486 49.1637 75.4224 49.3593 75.5718 49.5343C75.7213 49.7093 75.9097 49.8699 76.1397 50.0189C76.3701 50.167 76.6198 50.3016 76.8908 50.4227L77.6626 50.766L76.6883 52.9841C76.4979 53.012 76.3166 53.0576 76.1407 53.1249C75.9652 53.1932 75.7955 53.2533 75.6325 53.3071C75.5795 53.4687 75.5318 53.6028 75.4913 53.7105C75.4508 53.8182 75.4301 53.9528 75.4301 54.1148C75.4301 54.3297 75.4706 54.5047 75.5516 54.6393C75.6325 54.7734 75.7015 54.9489 75.755 55.1637C75.539 55.7825 75.3154 56.3954 75.0849 56.9992C74.8545 57.603 74.7402 58.1352 74.7402 58.5919C74.7402 59.4538 74.9972 60.2331 75.5111 60.9326C76.0245 61.6316 76.8493 61.9815 77.9856 61.9815C78.6609 61.9815 79.3103 61.8811 79.9317 61.6792C80.554 61.4772 81.1422 61.2282 81.6961 60.9326C82.25 60.6369 82.7441 60.3345 83.176 60.024C83.608 59.7144 83.9604 59.4529 84.2308 59.2365C84.3914 59.1346 84.4733 58.9327 84.4733 58.6356Z" fill="black"/>
<path d="M87.4231 72.6755C87.6945 71.5996 87.924 70.6386 88.1134 69.7911C88.3029 68.9426 88.4986 68.1167 88.7016 67.3095C88.9045 66.5029 89.134 65.6616 89.3914 64.7886C89.6484 63.9141 89.9805 62.8993 90.3859 61.7417C90.5484 61.7152 90.7036 61.6945 90.8526 61.6816C91.002 61.6691 91.1437 61.6609 91.2797 61.6609C91.9541 61.6609 92.7939 61.4599 93.7937 61.0561C94.7945 60.6533 95.7533 60.0874 96.6736 59.362C97.5934 58.6356 98.3773 57.7746 99.0261 56.7805C99.676 55.7863 99.9999 54.696 99.9999 53.5129C99.9999 53.1091 99.9594 52.6245 99.8784 52.0606C99.7974 51.4953 99.6629 50.9511 99.4725 50.428C99.2831 49.9031 99.0131 49.4531 98.6612 49.0757C98.3098 48.7003 97.8769 48.5109 97.3635 48.5109C96.851 48.5109 96.2344 48.7801 95.5181 49.318C94.8027 49.855 94.0646 50.5093 93.3083 51.2741C92.5514 52.0409 91.8206 52.8471 91.1182 53.6946C90.4148 54.5417 89.8209 55.2873 89.3331 55.9339C89.2521 56.0411 89.1991 56.0945 89.1711 56.0945H89.0901C89.0371 56.0411 89.0019 55.9661 88.9884 55.8724C88.9754 55.7791 88.9686 55.6902 88.9686 55.6104C88.9686 54.8835 89.1513 54.1446 89.5158 53.3922C89.8817 52.6389 90.2268 52.0058 90.5503 51.4957L91.8881 49.4795C92.159 49.0757 92.294 48.6714 92.294 48.2686C92.294 47.8922 92.2602 47.6225 92.1927 47.4609C92.1243 47.2999 91.9425 47.1917 91.6451 47.1384C91.4291 47.1658 91.0565 47.4609 90.5301 48.0263C90.0036 48.5916 89.4618 49.3108 88.9084 50.1843C88.3549 51.0583 87.8599 52.0342 87.4274 53.1096C86.9955 54.185 86.7786 55.2469 86.7786 56.2964C86.7786 56.7809 86.8465 57.2713 86.982 57.7689C87.1165 58.2659 87.2934 58.7568 87.5094 59.2414C86.9415 60.5869 86.4691 61.857 86.0906 63.0545C85.7122 64.2521 85.4157 65.313 85.1969 66.2423C84.9819 67.1701 84.8252 67.9427 84.7307 68.5614C84.6367 69.1796 84.5885 69.5829 84.5885 69.7728C84.5885 70.6329 84.8397 71.3655 85.3391 71.9707C85.839 72.5755 86.4946 72.9192 87.306 73L87.4231 72.6755ZM92.4121 58.1929C92.4931 58.0313 92.6353 57.7419 92.8377 57.3247C93.0407 56.9083 93.2697 56.4641 93.5281 55.9935C93.7841 55.5229 94.028 55.0854 94.2584 54.6816C94.4889 54.2778 94.6571 53.9951 94.7656 53.834C94.928 53.6446 95.131 53.4033 95.3749 53.1067C95.6188 52.812 95.8748 52.5293 96.1453 52.2596C96.4167 51.9899 96.6866 51.7544 96.9575 51.553C97.2285 51.351 97.444 51.2501 97.6069 51.2501C97.8778 51.2501 98.0326 51.3842 98.0731 51.6539C98.1136 51.9236 98.1348 52.1649 98.1348 52.3808C98.1348 54.021 97.5529 55.3383 96.3906 56.3353C95.143 57.4122 93.8178 58.0313 92.4121 58.1929Z" fill="black"/>
<path d="M29.166 69.2531C29.166 69.4776 29.0908 69.7195 28.9404 69.9805C28.79 70.2411 28.5557 70.4944 28.2375 70.7425C27.9189 70.9905 27.513 71.1924 27.0203 71.3458C26.5276 71.4991 25.9544 71.5761 25.3022 71.5761C24.8066 71.5761 24.3573 71.5419 23.9548 71.4737C23.5527 71.4044 23.1835 71.2972 22.8484 71.1496C22.5134 71.0011 22.1966 70.7751 21.8992 70.4699C21.6736 70.3233 21.4726 70.117 21.2971 69.8473C21.1216 69.5772 20.99 69.2935 20.9042 68.9931C20.8174 68.6916 20.774 68.3715 20.774 68.0306C20.774 67.4797 20.883 66.9874 21.1004 66.5533C21.3183 66.1197 21.6321 65.7462 22.0414 65.4347C22.4512 65.1231 22.9333 64.8842 23.4867 64.7222C24.0401 64.5573 24.6287 64.4761 25.252 64.4761C26.0132 64.4761 26.6915 64.5871 27.2869 64.8102C27.8817 65.0328 28.3402 65.3106 28.6608 65.6419C28.9814 65.9731 29.1419 66.2899 29.1419 66.5875C29.1419 66.7687 29.0546 66.9273 28.8816 67.0653C28.708 67.2033 28.4959 67.2716 28.2462 67.2716C27.9733 67.2716 27.7694 67.2249 27.6344 67.1321C27.5004 67.0384 27.3568 66.886 27.203 66.674C26.9716 66.3562 26.7031 66.1202 26.3965 65.9649C26.0904 65.8111 25.7134 65.7342 25.2641 65.7342C24.5477 65.7342 23.975 65.9351 23.5465 66.3365C23.1184 66.7394 22.9043 67.3187 22.9043 68.0763C22.9043 68.5883 22.9998 69.0109 23.1907 69.3421C23.3816 69.6733 23.6482 69.9185 23.9909 70.0781C24.3337 70.2377 24.7372 70.3185 25.2019 70.3185C25.7018 70.3185 26.1246 70.2271 26.4702 70.0454C26.8159 69.8637 27.082 69.5848 27.269 69.2094C27.3428 69.045 27.4464 68.8988 27.5805 68.771C27.7135 68.6431 27.9319 68.5801 28.2332 68.5801C28.4887 68.5801 28.708 68.6474 28.8912 68.7767C29.0744 68.9061 29.166 69.0652 29.166 69.2531Z" fill="black"/>
<path d="M32.7998 65.3823V67.2124H36.5286V65.3823C36.5286 65.0895 36.6236 64.864 36.815 64.7102C37.0054 64.5549 37.2575 64.4775 37.5719 64.4775C37.8876 64.4775 38.1436 64.5544 38.3398 64.7087C38.5355 64.8621 38.6339 65.088 38.6339 65.3832V70.6554C38.6339 70.9573 38.5341 71.1862 38.3355 71.3429C38.1368 71.4991 37.8828 71.5765 37.5719 71.5765C37.2527 71.5765 36.9992 71.4986 36.8111 71.341C36.6227 71.1838 36.5286 70.9549 36.5286 70.6545V68.4993H32.7998V70.6545C32.7998 70.9559 32.7005 71.1852 32.5019 71.3424C32.3033 71.4991 32.0487 71.5765 31.7383 71.5765C31.4191 71.5765 31.1656 71.4986 30.9776 71.3414C30.7896 71.1842 30.6951 70.9549 30.6951 70.6554V65.3832C30.6951 65.0895 30.7871 64.864 30.9727 64.7102C31.1583 64.5549 31.4134 64.4775 31.7383 64.4775C32.0536 64.4775 32.31 64.5544 32.5057 64.7083C32.7015 64.8611 32.7998 65.0852 32.7998 65.3823Z" fill="black"/>
<path d="M46.0121 70.68L45.5883 69.8608H42.0605L41.656 70.6598C41.481 71.0059 41.3253 71.2453 41.1894 71.3775C41.0539 71.5092 40.8269 71.5761 40.5097 71.5761C40.2411 71.5761 40.0049 71.5054 39.8015 71.3626C39.5981 71.2213 39.4968 71.0559 39.4968 70.8694C39.4968 70.7675 39.5176 70.6684 39.559 70.5708C39.6005 70.4733 39.6713 70.3334 39.7721 70.1502L42.1048 65.8048L42.3459 65.3529C42.4404 65.1755 42.5435 65.0246 42.6568 64.902C42.7691 64.7785 42.922 64.6765 43.1148 64.5967C43.3071 64.5165 43.5424 64.4766 43.8191 64.4766C44.0987 64.4766 44.334 64.5165 44.5263 64.5963C44.7186 64.6761 44.8715 64.7765 44.9852 64.8977C45.0995 65.0193 45.1901 65.1405 45.2571 65.2602C45.3246 65.3794 45.4119 65.5443 45.5199 65.7515L47.9249 70.1108C48.1182 70.4516 48.2151 70.7016 48.2151 70.8607C48.2151 71.0429 48.1144 71.2073 47.9133 71.3549C47.7123 71.5025 47.4689 71.5765 47.1835 71.5765C47.0152 71.5765 46.8711 71.5539 46.7506 71.5088C46.6301 71.4645 46.5298 71.4054 46.4507 71.3323C46.3707 71.2588 46.2878 71.1448 46.201 70.9934C46.1147 70.8415 46.0521 70.7372 46.0121 70.68ZM42.5869 68.6594H45.0508L43.807 66.0861L42.5869 68.6594Z" fill="black"/>
<path d="M51.8712 65.3472L55.1594 69.2219V65.3371C55.1594 65.0602 55.2467 64.8462 55.4202 64.6982C55.5938 64.5501 55.8314 64.4761 56.1313 64.4761C56.4388 64.4761 56.6808 64.5501 56.8573 64.6982C57.0337 64.8472 57.1219 65.0602 57.1219 65.3371V70.6002C57.1219 71.2511 56.7469 71.5761 55.9953 71.5761C55.8107 71.5761 55.6458 71.5573 55.5003 71.5189C55.3547 71.4804 55.2178 71.4189 55.0886 71.3347C54.9603 71.2501 54.8504 71.1621 54.7598 71.0689C54.6692 70.9756 54.5679 70.8708 54.4556 70.7506L51.2223 66.8759V70.7035C51.2223 70.9833 51.1293 71.1982 50.9437 71.3496C50.7571 71.5001 50.519 71.5761 50.2288 71.5761C49.926 71.5761 49.685 71.5001 49.5047 71.3482C49.3244 71.1977 49.2347 70.9819 49.2347 70.704V65.5424C49.2347 65.3121 49.2675 65.139 49.334 65.0222C49.4276 64.852 49.577 64.7184 49.7819 64.6213C49.9863 64.5237 50.208 64.4746 50.4457 64.4746C50.6308 64.4746 50.7904 64.4972 50.9244 64.5424C51.0584 64.5881 51.1751 64.6467 51.2734 64.7208C51.3713 64.7934 51.4672 64.8852 51.5627 64.9919C51.6567 65.1015 51.7598 65.2198 51.8712 65.3472Z" fill="black"/>
<path d="M61.4162 65.3472L64.704 69.2219V65.3371C64.704 65.0602 64.7912 64.8462 64.9653 64.6982C65.1388 64.5501 65.376 64.4761 65.6759 64.4761C65.9839 64.4761 66.2259 64.5501 66.4018 64.6982C66.5783 64.8472 66.6665 65.0602 66.6665 65.3371V70.6002C66.6665 71.2511 66.2915 71.5761 65.5404 71.5761C65.3558 71.5761 65.1904 71.5573 65.0453 71.5189C64.8992 71.4804 64.7623 71.4189 64.6336 71.3347C64.5049 71.2501 64.3955 71.1621 64.3048 71.0689C64.2142 70.9771 64.113 70.8708 64.0006 70.7506L60.7674 66.8759V70.7035C60.7674 70.9833 60.6743 71.1982 60.4882 71.3496C60.3022 71.5001 60.064 71.5761 59.7733 71.5761C59.4706 71.5761 59.2296 71.5001 59.0493 71.3482C58.8694 71.1977 58.7793 70.9819 58.7793 70.704V65.5424C58.7793 65.3121 58.8121 65.139 58.8786 65.0222C58.9721 64.852 59.1216 64.7184 59.3265 64.6213C59.5313 64.5237 59.7526 64.4746 59.9907 64.4746C60.1754 64.4746 60.335 64.4972 60.4695 64.5424C60.6035 64.5881 60.7201 64.6467 60.818 64.7208C60.9159 64.7934 61.0123 64.8852 61.1072 64.9919C61.2017 65.1006 61.3044 65.2198 61.4162 65.3472Z" fill="black"/>
<path d="M74.4361 65.8096H70.4021V67.2778H74.1068C74.424 67.2778 74.6651 67.3326 74.8299 67.4422C74.9953 67.5523 75.0777 67.6941 75.0777 67.8686C75.0777 68.0489 74.9963 68.1965 74.8328 68.309C74.6709 68.422 74.4279 68.4792 74.1068 68.4792H70.4021V70.2045H74.5793C74.9051 70.2045 75.1544 70.2632 75.3279 70.379C75.5005 70.4934 75.5868 70.6468 75.5868 70.8324C75.5868 71.0208 75.5 71.1703 75.327 71.2871C75.1539 71.4035 74.9042 71.4616 74.5793 71.4616H69.558C69.1193 71.4616 68.8002 71.3866 68.5987 71.2371C68.3981 71.0881 68.2974 70.8535 68.2974 70.5357V65.5053C68.2974 65.2981 68.3417 65.1275 68.4295 64.9895C68.5186 64.8506 68.658 64.7496 68.8484 64.6857C69.0388 64.6217 69.276 64.5891 69.558 64.5891H74.4361C74.7668 64.5891 75.0151 64.6453 75.1843 64.7583C75.3535 64.8703 75.4374 65.0155 75.4374 65.1929C75.4374 65.3784 75.352 65.527 75.1833 65.6409C75.0146 65.7534 74.7658 65.8096 74.4361 65.8096Z" fill="black"/>
<path d="M78.5028 65.3832V70.1661H82.1203C82.4539 70.1661 82.7132 70.2281 82.8988 70.3511C83.0844 70.4752 83.177 70.629 83.177 70.8141C83.177 71.0069 83.0854 71.1645 82.8998 71.2838C82.7147 71.4039 82.4548 71.4636 82.1203 71.4636H77.6592C77.2205 71.4636 76.9004 71.3886 76.6998 71.2391C76.4983 71.0891 76.3986 70.8545 76.3986 70.5377V65.3832C76.3986 65.0904 76.4935 64.865 76.6849 64.7107C76.8758 64.5549 77.1279 64.4775 77.4418 64.4775C77.757 64.4775 78.014 64.5544 78.2102 64.7087C78.4049 64.8621 78.5028 65.0861 78.5028 65.3832Z" fill="black"/>
</svg>
