<svg width="100" height="100" viewBox="0 0 100 100" fill="none" xmlns="http://www.w3.org/2000/svg">
<g clip-path="url(#clip0_836_149)">
<path d="M70.6353 84.9234C70.5223 84.9227 70.4318 84.8294 70.4318 84.7143V82.7906C70.4318 82.0696 71.2815 81.7546 71.6435 81.6546C72.2886 81.486 73.0794 81.486 73.7184 81.6526C74.3868 81.8404 74.8552 82.395 74.9114 83.0669C74.9609 83.7039 74.6375 84.2488 74.0432 84.5265C73.2878 84.8864 72.2273 84.9314 71.3883 84.9314C71.1827 84.9314 70.9872 84.9293 70.8072 84.9261C70.749 84.9234 70.6911 84.9234 70.6353 84.9234V84.9234ZM75.2296 87.7297C75.0306 87.6059 74.7782 87.6645 74.6028 87.8196C74.2849 88.0924 73.8619 88.2673 73.3311 88.3388C72.8496 88.4255 72.4402 88.4272 71.9544 88.3377C71.3526 88.2342 70.8589 87.9749 70.6003 87.6265C70.4803 87.453 70.4318 87.2812 70.4318 87.0199V86.5921C70.4318 86.4805 70.5236 86.39 70.6384 86.3933C70.7296 86.3958 70.827 86.3993 70.9314 86.4043C71.2638 86.4157 71.6178 86.4286 71.9863 86.4286C72.8271 86.4286 73.9039 86.3687 74.782 85.8965C75.9251 85.2955 76.5595 84.1408 76.4344 82.8828C76.3071 81.5791 75.4262 80.5302 74.1327 80.146C73.2011 79.8891 72.1656 79.8891 71.233 80.146C69.7093 80.5644 68.8342 81.5295 68.8342 82.7906V86.9457C68.8342 87.5795 68.9843 88.0906 69.3109 88.5565C69.8299 89.2523 70.7504 89.7464 71.8321 89.9143C72.098 89.9586 72.3573 89.9809 72.6229 89.9809C72.9172 89.9809 73.2282 89.9545 73.5721 89.898C74.6541 89.7287 75.4449 89.3283 75.9792 88.6841C76.1248 88.5098 76.0655 88.2492 75.8717 88.1308L75.2296 87.7297" fill="#0071FF"/>
<path d="M65.1726 80.1636C64.6487 80.0329 64.1582 79.9646 63.7192 79.9646C63.2575 79.9646 62.7679 80.0329 62.2593 80.1643C60.7703 80.5772 59.88 81.5716 59.88 82.8278V87.1125C59.88 88.4007 60.7717 89.4108 62.2656 89.8157C62.7322 89.9341 63.2211 89.9951 63.7192 89.9951C64.2171 89.9951 64.7066 89.9341 65.1892 89.8129L65.3258 89.7579L65.3428 89.7488C66.5687 89.378 67.3574 88.5784 67.5263 87.5652C67.564 87.3405 67.3737 87.1498 67.1491 87.1498H66.3898C66.1606 87.1498 65.9915 87.3411 65.8881 87.5473C65.6642 88.0048 65.081 88.2178 64.811 88.2965L64.7465 88.3056C64.1297 88.4729 63.2873 88.4707 62.6774 88.3083C62.2209 88.1763 61.4599 87.8473 61.4599 87.1125V82.8456C61.4599 82.0807 62.3061 81.7718 62.6698 81.6748C63.03 81.579 63.3726 81.5334 63.7192 81.5334C64.0566 81.5334 64.4216 81.5839 64.7465 81.6737C65.0426 81.7539 65.651 81.969 65.8847 82.4278C65.9915 82.6337 66.1603 82.8278 66.3898 82.8278H67.1491C67.373 82.8278 67.564 82.6442 67.5287 82.4222C67.3616 81.3525 66.5247 80.54 65.1726 80.1636" fill="#0071FF"/>
<path d="M54.7291 79.9282H54.6718C53.8691 79.9282 53.1523 80.1065 52.5731 80.4453C52.5115 80.4842 52.4296 80.4431 52.4296 80.3709C52.4296 80.1889 52.2819 80.041 52.1005 80.041H51.2432C51.0164 80.041 50.8329 80.226 50.8329 80.4543V89.4712C50.8329 89.6972 51.0164 89.8817 51.2432 89.8817H52.0179C52.2454 89.8817 52.4296 89.6972 52.4296 89.4712V83.0143C52.4296 81.9519 53.5647 81.4777 54.6898 81.4777C55.8039 81.4777 56.9334 81.9547 56.9334 82.8658V89.4712C56.9334 89.6972 57.1165 89.8817 57.3436 89.8817H58.1202C58.3466 89.8817 58.531 89.6972 58.531 89.4712V82.8828C58.531 80.8422 56.6214 79.9282 54.7291 79.9282" fill="#0071FF"/>
<path d="M43.7739 84.9234C43.6608 84.9227 43.5707 84.8294 43.5707 84.7143V82.7906C43.5707 82.0696 44.4198 81.7546 44.7821 81.6546C45.4281 81.486 46.2176 81.4864 46.8568 81.6526C47.5258 81.8404 47.9931 82.395 48.0502 83.0669C48.1021 83.7039 47.7784 84.2473 47.1812 84.5265C46.4251 84.8864 45.3665 84.9314 44.5271 84.9314C44.3206 84.9314 44.126 84.9293 43.9459 84.9261C43.8879 84.9234 43.829 84.9234 43.7739 84.9234ZM44.0711 86.4043C44.4029 86.4157 44.7564 86.4286 45.1237 86.4286C45.9657 86.4286 47.0444 86.3687 47.9193 85.8965C49.0643 85.2955 49.6963 84.1408 49.5748 82.8828C49.4462 81.5791 48.5642 80.5302 47.2715 80.146C46.3395 79.8891 45.3038 79.8891 44.3714 80.146C42.8482 80.5644 41.9734 81.5295 41.9734 82.7906V86.9457C41.9734 87.5789 42.1226 88.0906 42.4501 88.5565C42.9688 89.2523 43.8879 89.7464 44.969 89.9143C45.2365 89.9586 45.4965 89.9809 45.7619 89.9809C46.0572 89.9809 46.3666 89.9545 46.7099 89.898C47.7913 89.7287 48.5835 89.3283 49.1191 88.6841C49.2627 88.5098 49.2034 88.2492 49.0108 88.1293L48.3682 87.7297C48.1712 87.6059 47.9179 87.6645 47.7401 87.8196C47.425 88.0924 47.0004 88.2673 46.4698 88.3388C45.9894 88.4272 45.5805 88.4272 45.0943 88.3377C44.4923 88.2342 43.9987 87.9749 43.7394 87.6258C43.6168 87.453 43.5707 87.2812 43.5707 87.0199V86.5921C43.5707 86.4805 43.6635 86.39 43.7766 86.3933C43.8673 86.3958 43.9655 86.3993 44.0711 86.4043" fill="#0071FF"/>
<path d="M39.2201 80.0403C38.9932 80.0403 38.8093 80.226 38.8093 80.4529V89.4687C38.8093 89.6965 38.9932 89.8817 39.2201 89.8817H39.9961C40.2225 89.8817 40.406 89.6965 40.406 89.4687V80.4529C40.406 80.226 40.2225 80.0403 39.9961 80.0403H39.2201Z" fill="#0071FF"/>
<path d="M34.902 80.1636C34.3793 80.0329 33.8904 79.9646 33.4503 79.9646C32.9888 79.9646 32.4996 80.0329 31.9904 80.1643C30.5014 80.5772 29.611 81.5723 29.611 82.8278V87.1125C29.611 88.3999 30.503 89.4108 31.9974 89.8157C32.4637 89.9341 32.9515 89.9951 33.451 89.9951C33.9486 89.9951 34.4378 89.9341 34.9197 89.8129L35.0564 89.7579L35.074 89.7488C36.299 89.378 37.0878 88.5784 37.2567 87.5652C37.2937 87.3405 37.1061 87.1498 36.8792 87.1498H36.1229C35.8927 87.1498 35.7227 87.3411 35.6208 87.5495C35.395 88.0052 34.8127 88.2178 34.5438 88.2965L34.4775 88.3056C33.8627 88.4707 33.0176 88.4707 32.4091 88.3083C31.9545 88.1763 31.188 87.8473 31.188 87.1125V82.8456C31.188 82.0807 32.0371 81.7718 32.4021 81.6748C32.7603 81.579 33.1036 81.5334 33.4503 81.5334C33.7882 81.5334 34.1525 81.5839 34.4775 81.6737C34.7727 81.7539 35.3821 81.969 35.6171 82.4278C35.7221 82.6337 35.892 82.8278 36.1229 82.8278H36.8792C37.1027 82.8278 37.2937 82.6442 37.258 82.4222C37.0912 81.3525 36.2552 80.54 34.902 80.1636" fill="#0071FF"/>
<path d="M24.9508 84.1979C23.3507 83.9951 22.5984 83.7983 22.6113 82.8828C22.6113 82.1289 23.3866 81.7881 23.8491 81.6526C24.2222 81.5463 24.6292 81.4913 25.0249 81.4913C25.5054 81.4913 26.3118 81.5777 26.8416 82.0943C27.0075 82.2561 27.2564 82.3372 27.4571 82.2181L28.0676 81.8596C28.2704 81.7397 28.3476 81.4748 28.2155 81.2791C27.3972 80.0654 25.7214 79.9233 24.9934 79.9233C24.452 79.9233 23.9107 79.9954 23.4266 80.1282C21.9257 80.5713 21.0526 81.5748 21.0329 82.8815C21.0129 85.2982 22.9695 85.5508 24.6989 85.7773L24.7384 85.7822C26.3389 85.9843 27.0898 86.1809 27.079 87.0962C27.079 87.853 26.2136 88.1687 25.8408 88.2686C25.4833 88.368 25.0645 88.4234 24.6626 88.4234C24.061 88.4234 23.0463 88.2979 22.4921 87.5297C22.3601 87.346 22.122 87.2474 21.9213 87.3547L21.2435 87.716C21.0359 87.8272 20.9337 88.0781 21.0465 88.2858C21.7239 89.5415 23.3358 90.0001 24.7019 90.0001C25.2521 90.0001 25.7891 89.93 26.2576 89.7959C27.7622 89.3753 28.6371 88.3928 28.6563 87.0989C28.6777 84.6878 26.6114 84.4171 24.9508 84.1979Z" fill="#0071FF"/>
<path d="M79.3487 84.7414H79.1809L78.8824 84.0065L78.891 84.9055H78.7132V83.7112H78.941L79.263 84.5251L79.5858 83.7112H79.8132V84.9055H79.6357L79.644 84.0065L79.3487 84.7414ZM78.2621 83.8745V84.9055H78.0864V83.8745H77.7775V83.7112H78.5731V83.8745H78.2621Z" fill="#0071FF"/>
<path d="M70.2505 75.1555L69.3297 77.802L68.4706 75.1555H67.5931L68.9272 78.7399L68.9175 78.765C68.9175 78.765 68.6488 79.4967 68.4051 79.6734C68.2179 79.7703 67.7786 79.762 67.6143 79.7511V80.4256C67.9027 80.425 68.584 80.4431 68.8045 80.3044C69.0787 80.1301 69.1401 80.0539 69.3297 79.6709C69.5346 79.2535 71.1082 75.1555 71.1082 75.1555H70.2505ZM65.9505 75.7521V75.1555H65.1271V78.7657H65.9505V77.3918C65.9505 77.1501 65.9727 76.9386 66.0393 76.7636C66.2861 76.1054 66.9785 75.9196 67.3359 75.866L67.054 75.1765C66.767 75.2256 66.2608 75.365 65.9505 75.7521ZM51.7788 78.1281C51.146 78.1281 50.7042 77.6095 50.7042 76.9594C50.7042 76.3246 51.1396 75.8039 51.7369 75.8039C52.1533 75.8039 52.4181 75.9884 52.6699 76.2553L53.1805 75.7019C52.8467 75.3322 52.4248 75.08 51.745 75.08C50.67 75.08 49.8829 75.9402 49.8829 76.9723C49.8829 78.0062 50.67 78.8458 51.7369 78.8458C52.437 78.8458 52.8537 78.5644 53.2065 78.1702L52.7106 77.6768C52.4526 77.9437 52.1671 78.1281 51.7788 78.1281V78.1281ZM63.695 76.6221C63.6828 76.4894 63.653 76.4503 63.6069 76.3353C63.5618 76.2189 63.5005 76.1184 63.4238 76.0313C63.3462 75.9448 63.254 75.8776 63.1496 75.8284C63.0411 75.7814 62.9204 75.757 62.7839 75.757C62.5297 75.757 62.3207 75.8455 62.1546 76.0204C61.9892 76.1959 61.8884 76.3382 61.8516 76.6221H63.695ZM64.4032 76.281C64.476 76.5144 64.5128 76.7636 64.5128 77.0228C64.5128 77.0594 64.5114 77.0964 64.51 77.1358C64.5069 77.1733 64.5041 77.2142 64.4993 77.2549H61.8599C61.9046 77.551 62.0215 77.7782 62.2087 77.9347C62.3976 78.0933 62.6258 78.171 62.8938 78.171C63.0969 78.171 63.2744 78.1347 63.4238 78.0612C63.574 77.989 63.7213 77.8818 63.8669 77.7406L64.3488 78.171C64.1769 78.3765 63.972 78.541 63.7327 78.6636C63.4949 78.7859 63.2106 78.8487 62.8799 78.8487C62.6209 78.8487 62.3796 78.8009 62.1546 78.7127C61.9303 78.62 61.7362 78.4922 61.5694 78.3288C61.4054 78.1654 61.2737 77.9675 61.1787 77.7368C61.084 77.5075 61.0358 77.2528 61.0358 76.9745V76.9609C61.0358 76.7016 61.0799 76.4566 61.1652 76.2294C61.2518 76.0005 61.3728 75.8026 61.5292 75.6306C61.6848 75.4597 61.8703 75.3257 62.0832 75.2256C62.2968 75.1281 62.5328 75.08 62.7918 75.08C63.0768 75.08 63.3268 75.1329 63.5431 75.2386C63.7574 75.3434 63.9376 75.4849 64.0805 75.6626C64.2223 75.8392 64.3315 76.0462 64.4032 76.281V76.281ZM59.1197 77.8097L58.1531 75.1555H57.2684L58.7453 78.7936H59.4865L60.9561 75.1555H60.0918L59.1197 77.8097ZM56.4124 76.9678C56.4124 76.8079 56.384 76.6573 56.3302 76.5159C56.2758 76.3762 56.1995 76.2524 56.1024 76.1461C56.004 76.042 55.8903 75.9591 55.7558 75.8971C55.6215 75.8361 55.4733 75.8048 55.3101 75.8048C55.1462 75.8048 54.9979 75.8361 54.8645 75.8971C54.7307 75.9591 54.6163 76.0416 54.5212 76.1434C54.4246 76.2462 54.3533 76.3667 54.3032 76.5057C54.2531 76.6451 54.228 76.795 54.228 76.9549V76.9678C54.228 77.1229 54.2544 77.2713 54.3095 77.4121C54.3634 77.5548 54.4393 77.6768 54.5368 77.7849C54.6356 77.8919 54.7508 77.9754 54.8848 78.0382C55.0189 78.0996 55.1641 78.1295 55.3239 78.1295C55.4915 78.1295 55.6425 78.0996 55.7759 78.0382C55.91 77.9754 56.0244 77.8932 56.1194 77.7884C56.2148 77.6835 56.2876 77.5613 56.3372 77.4228C56.3867 77.2841 56.4124 77.1364 56.4124 76.9814V76.9678ZM57.0919 76.2245C57.1876 76.4503 57.2344 76.6949 57.2344 76.9549V76.9678C57.2344 77.2236 57.1862 77.465 57.0895 77.6926C56.992 77.9198 56.8579 78.119 56.6877 78.2901C56.5174 78.463 56.3139 78.597 56.0792 78.6988C55.8424 78.7985 55.5863 78.8487 55.3101 78.8487C55.0372 78.8487 54.7839 78.7991 54.5517 78.7009C54.3183 78.6037 54.1159 78.4688 53.9457 78.3008C53.7753 78.1315 53.643 77.934 53.5468 77.7069C53.4527 77.4782 53.4053 77.2365 53.4053 76.9814V76.9678C53.4053 76.7079 53.4527 76.464 53.5509 76.2368C53.6477 76.0089 53.7818 75.8089 53.9531 75.6384C54.1224 75.4657 54.3249 75.3315 54.5571 75.2308C54.7921 75.1309 55.046 75.08 55.3239 75.08C55.6005 75.08 55.8546 75.1281 56.0886 75.2256C56.3222 75.3257 56.5244 75.4597 56.6942 75.6306C56.8655 75.8026 56.9976 76.0005 57.0919 76.2245V76.2245ZM49.1492 76.9772C49.0419 76.8984 48.9227 76.8309 48.7909 76.7758C48.6593 76.7215 48.5293 76.6744 48.3973 76.6323C48.2923 76.596 48.1914 76.5615 48.0939 76.5294C47.9964 76.4974 47.9104 76.4622 47.8352 76.4246C47.7608 76.3859 47.6991 76.3431 47.6547 76.294C47.6098 76.2462 47.5877 76.1897 47.5877 76.126V76.113C47.5877 76.0089 47.6308 75.9218 47.7197 75.8535C47.8088 75.7849 47.9323 75.751 48.0912 75.751C48.2395 75.751 48.4034 75.7814 48.581 75.8427C48.7577 75.9047 48.9322 75.9877 49.1042 76.0918L49.4312 75.504C49.241 75.3765 49.0304 75.2765 48.7981 75.2029C48.5675 75.1309 48.337 75.0943 48.1108 75.0943C47.9344 75.0943 47.7675 75.1186 47.6111 75.1698C47.454 75.22 47.3182 75.2922 47.2028 75.3887C47.0877 75.4849 46.9956 75.5984 46.9313 75.7326C46.8649 75.8691 46.8317 76.0211 46.8317 76.1946V76.2089C46.8317 76.3817 46.8649 76.5274 46.934 76.6466C47.002 76.7643 47.0891 76.8629 47.1967 76.9437C47.3023 77.0243 47.4231 77.0887 47.5563 77.1385C47.6897 77.1883 47.8224 77.2323 47.9544 77.2698C48.059 77.3013 48.1596 77.3312 48.2584 77.3612C48.3546 77.3904 48.4413 77.425 48.5165 77.4639C48.5909 77.5026 48.6505 77.5476 48.6932 77.5964C48.7358 77.6475 48.7577 77.7069 48.7577 77.7748V77.7884C48.7577 77.9075 48.7087 78.0015 48.6112 78.0716C48.5144 78.1431 48.3763 78.1782 48.1998 78.1782C48.0133 78.1782 47.8203 78.1403 47.6179 78.0654C47.4168 77.9904 47.2173 77.8789 47.0213 77.7333L46.655 78.2939C46.8825 78.4723 47.1286 78.6066 47.3938 78.6988C47.6588 78.7887 47.9213 78.8344 48.1795 78.8344C48.3641 78.8344 48.5391 78.8114 48.702 78.7629C48.8661 78.7152 49.008 78.6452 49.1272 78.5507C49.2484 78.4574 49.3428 78.3403 49.4109 78.1981C49.4786 78.0574 49.5125 77.8912 49.5125 77.6998V77.6848C49.5125 77.5224 49.4786 77.3821 49.4109 77.2698C49.3428 77.1541 49.2552 77.058 49.1492 76.9772V76.9772ZM45.2709 78.7657H46.095V75.1555H45.2709V78.7657ZM44.7936 76.3402C44.7936 77.6926 43.7612 78.7379 42.2645 78.7379H40.8175C41.1089 78.541 41.3527 78.2803 41.5278 77.9727H42.2645C43.2649 77.9727 43.917 77.2957 43.917 76.3525C43.917 75.4092 43.2649 74.72 42.2645 74.72H41.3253V75.4229C41.1879 75.2507 41.0274 75.097 40.8459 74.9716C40.7342 74.8953 40.6143 74.8274 40.4897 74.7709V73.9541H42.2645C43.7612 73.9541 44.7936 74.986 44.7936 76.3402" fill="#0071FF"/>
<path d="M39.5666 78.8333C40.6476 78.8333 41.5239 77.9526 41.5239 76.8662C41.5239 75.7798 40.6476 74.8991 39.5666 74.8991C38.4856 74.8991 37.6094 75.7798 37.6094 76.8662C37.6094 77.9526 38.4856 78.8333 39.5666 78.8333Z" fill="#0071FF"/>
<path d="M79.9954 33.8953C79.9824 42.4122 59.1239 60.8328 44.7435 61.0961C37.5113 61.8262 28.1345 51.2121 26.4485 48.223C22.822 42.8117 20.8604 36.7073 21.2505 32.7595C21.0347 25.2365 32.5295 10.9248 47.7625 10.038C54.0895 9.71681 58.5026 11.3989 66.5104 16.462C75.2915 22.0142 80.1711 27.8345 79.9954 33.8953V33.8953Z" fill="#0071FF"/>
<path d="M68.4853 45.0915C68.7702 45.3806 69.1545 45.5194 69.5379 45.5138C69.9153 45.5083 70.2927 45.3626 70.5748 45.0809C70.8431 44.8126 71.007 44.2052 71.007 43.4832C71.007 42.2648 71.007 40.853 71.007 40.1685C71.007 37.4458 71.007 36.103 71.007 33.7314C71.007 33.3762 70.8417 33.0339 70.5748 32.7651C70.2913 32.4811 69.9162 32.3387 69.5402 32.3363C69.1591 32.3354 68.778 32.4765 68.4913 32.7633C68.2234 33.0334 68.0573 33.3794 68.0573 33.7416C68.0573 36.159 68.0573 37.6789 68.0573 40.4034C68.0573 41.0871 68.0573 42.4003 68.0573 43.5489C68.0573 44.2408 68.2193 44.8223 68.4853 45.0915" fill="white"/>
<path d="M63.1561 45.5888C60.1052 45.5888 57.5169 43.114 56.9297 40.2106C56.8331 39.7272 56.7853 39.2512 56.7849 38.7863C56.7849 35.6182 58.9539 32.9886 62.191 32.3289C62.5815 32.2572 63.1009 32.1934 63.6367 32.1934C64.7622 32.1934 65.9592 32.4751 66.1782 33.5584C66.2029 33.6787 66.2147 33.7962 66.2134 33.91C66.2128 34.5525 65.8311 35.0673 65.1546 35.2047C65.0133 35.2338 64.8647 35.2441 64.7101 35.2441C64.515 35.2441 64.3099 35.2274 64.097 35.2107C63.8841 35.1946 63.6637 35.178 63.437 35.178C63.2139 35.178 62.9854 35.1941 62.753 35.2418C60.8548 35.6281 59.7652 37.1341 59.7657 38.8197C59.7658 39.0824 59.793 39.3494 59.8465 39.6167C60.2378 41.5553 61.8275 42.5919 63.7823 42.6988C64.6689 42.7445 65.1718 43.2469 65.2427 44.0911C65.2427 44.118 65.2427 44.1447 65.2427 44.1711C65.2428 44.8566 64.7037 45.4103 64.0951 45.5097C63.7773 45.563 63.4631 45.5888 63.1531 45.5888" fill="white"/>
<path d="M50.9315 45.6678C49.3081 45.6678 46.7009 45.2969 46.2578 43.6904C46.2056 43.516 46.1834 43.3541 46.1834 43.2051C46.1832 42.3563 46.9375 41.9229 47.5435 41.9229C47.6452 41.9229 47.7436 41.936 47.8327 41.9599C48.5954 42.1579 49.3086 42.8749 50.8576 42.8749C52.4068 42.8749 52.8739 42.2569 52.8739 41.7124C52.8739 40.9464 52.0864 40.5264 50.7834 40.2544C48.4717 39.7845 46.0372 39.0929 46.0372 36.102C46.0372 33.6056 47.9303 32.2461 50.1441 32.2461L50.1819 32.2466C50.251 32.2479 50.3173 32.2531 50.3824 32.2605C50.7611 32.2919 51.5206 32.3904 52.1277 32.7017C52.602 32.9446 52.8571 33.4289 52.8574 33.9317C52.8574 34.101 52.8287 34.2726 52.7687 34.4377C52.5751 34.9771 52.1281 35.3097 51.6067 35.3097C51.4747 35.3097 51.338 35.2884 51.1992 35.2435C50.9475 35.162 50.6668 35.0644 50.3029 35.0644C50.1586 35.0644 50.0008 35.0796 49.8267 35.1177C49.346 35.2348 48.9395 35.4891 48.9395 36.003C48.9395 36.72 49.21 36.9175 51.079 37.3375C54.0304 38.0055 55.8253 39.0185 55.8253 41.6139C55.8253 44.0609 53.9076 45.6678 50.9321 45.6678" fill="white"/>
</g>
<defs>
<clipPath id="clip0_836_149">
<rect width="59" height="80" fill="white" transform="translate(21 10)"/>
</clipPath>
</defs>
</svg>
