<svg width="100" height="100" viewBox="0 0 100 100" fill="none" xmlns="http://www.w3.org/2000/svg">
<path d="M24.9678 57.814C24.5939 57.2884 24.3571 56.5368 24.3571 55.499V49.8587H19.2572V56.2085C19.2572 56.7753 19.3049 57.3111 19.3923 57.817L24.9678 57.8142" fill="#B9051A"/>
<path d="M31.2042 48.641H36.3048V44.4025H31.2042V48.641Z" fill="#B9051A"/>
<path d="M36.3048 57.8157V49.8587H31.2042V55.2637C31.2042 56.3323 30.8532 57.2014 30.1989 57.817L36.3048 57.8156" fill="#B9051A"/>
<path d="M19.2572 48.641H24.3571V44.4025H19.2572V48.641Z" fill="#B9051A"/>
<path d="M19.6964 59.0359C20.7353 62.1252 23.4704 63.7624 26.2934 63.7624C28.4185 63.7624 29.9766 63.1489 31.2044 61.6857V63.291H36.3046V59.0359H19.6964Z" fill="#B9051A"/>
<path d="M49.7424 48.641V44.1203C47.5706 43.8364 45.4931 44.3561 43.9347 46.2921V44.4025H38.7396V48.641H49.7424Z" fill="#B9051A"/>
<path d="M38.7397 63.291H43.9812V59.0359H38.7397V63.291Z" fill="#B9051A"/>
<path d="M45.3641 49.8581C44.3972 50.6134 43.9814 51.5405 43.9814 52.8088V57.817H38.7396V49.8587L45.3641 49.8583" fill="#B9051A"/>
<path d="M69.6146 48.641C68.2655 45.5207 65.5516 43.6955 62.0948 43.6955C60.3008 43.6955 58.5062 44.3097 57.1836 45.6778V38.2531H52.1782V48.641H69.6146Z" fill="#B9051A"/>
<path d="M69.994 57.8164C70.3539 56.6048 70.5484 55.1926 70.5484 53.5635C70.5484 52.2117 70.3756 50.9716 70.0514 49.8587H64.2461C65.0113 50.665 65.4441 51.8814 65.4441 53.47C65.4441 55.5643 64.947 56.9549 64.1589 57.817L69.994 57.8166" fill="#B9051A"/>
<path d="M52.1782 59.0359V63.291H57.1836V61.7328C58.3635 63.1489 60.064 63.7624 61.6702 63.7624C65.1765 63.7624 68.091 62.3293 69.5465 59.0359H52.1782Z" fill="#B9051A"/>
<path d="M58.3823 57.8164C57.6025 56.9818 57.1162 55.6817 57.1162 53.8467C57.1162 51.9268 57.5847 50.6565 58.3271 49.8587H52.1782V57.8132L58.3823 57.8165" fill="#B9051A"/>
<path d="M90.1275 49.8562C90.4964 50.96 90.6976 52.1742 90.6976 53.4701C90.6976 55.1107 90.4637 56.5592 90.0459 57.8164H84.3512C85.1164 56.9549 85.5972 55.5643 85.5972 53.4701C85.5972 51.8812 85.1789 50.6642 84.4361 49.8574L90.1275 49.8565" fill="#B9051A"/>
<path d="M89.6316 48.641C88.118 45.5285 85.131 43.5529 81.5835 43.5529C78.0661 43.5529 75.0434 45.5079 73.505 48.641H89.6316Z" fill="#B9051A"/>
<path d="M73.5903 59.0359C75.2422 62.3914 78.4121 63.9999 81.5835 63.9999C84.9251 63.9999 87.9763 62.3503 89.5589 59.0359H73.5903Z" fill="#B9051A"/>
<path d="M78.7464 57.8139C77.9923 56.9791 77.5216 55.6797 77.5216 53.8469C77.5225 51.9268 77.9767 50.6565 78.6952 49.8587H73.0038C72.6279 50.9722 72.4219 52.2004 72.4219 53.5163C72.4219 55.1444 72.6619 56.5743 73.0845 57.8132L78.7464 57.8137" fill="#B9051A"/>
<path d="M16.8225 44.4025H12.0533V38.2531L7.00012 39.859V48.641H16.8225V44.4025Z" fill="#B9051A"/>
<path d="M12.312 57.815C12.1587 57.6546 12.0531 57.5099 12.0531 57.0535V49.8587H7.00012V57.8164L12.312 57.815" fill="#B9051A"/>
<path d="M16.4977 59.0359H7V59.0413C7 62.0147 8.7946 63.8112 11.8642 63.8112C13.9424 63.8112 15.9249 63.4328 17.5313 62.9125L16.4977 59.036" fill="#B9051A"/>
<path d="M91.7043 43.5943V43.8054H91.3475V44.787H91.0965V43.8054H90.738V43.5943H91.7043Z" fill="#B9051A"/>
<path d="M92.6413 43.5943H92.9999V44.787H92.7676V43.9803C92.7676 43.9571 92.7679 43.9246 92.7684 43.8826C92.7689 43.8409 92.7693 43.8087 92.7693 43.786L92.5432 44.787H92.301L92.0765 43.786C92.0765 43.8087 92.0768 43.8409 92.0773 43.8826C92.0778 43.9246 92.0781 43.9571 92.0781 43.9803V44.787H91.8459V43.5943H92.2086L92.4259 44.5321L92.6413 43.5943" fill="#B9051A"/>
<path d="M48.7299 38.2723L47.7498 41.0748L46.8354 38.2723H45.9014L47.3214 42.0681L47.311 42.0946C47.311 42.0946 47.025 42.8695 46.7656 43.0566C46.5664 43.1592 46.0988 43.1504 45.9239 43.1389V43.8532C46.2309 43.8525 46.956 43.8717 47.1907 43.7248C47.4826 43.5403 47.5479 43.4596 47.7498 43.054C47.9679 42.6119 49.6428 38.2723 49.6428 38.2723H48.7299ZM44.153 38.904V38.2723H43.2766V42.0953H44.153V40.6404C44.153 40.3844 44.1766 40.1605 44.2475 39.9752C44.5102 39.2782 45.2471 39.0814 45.6276 39.0246L45.3276 38.2944C45.022 38.3465 44.4833 38.4941 44.153 38.904ZM29.0688 41.4202C28.3952 41.4202 27.925 40.871 27.925 40.1825C27.925 39.5103 28.3884 38.9589 29.0241 38.9589C29.4673 38.9589 29.7492 39.1542 30.0172 39.4369L30.5607 38.8508C30.2054 38.4593 29.7564 38.1923 29.0328 38.1923C27.8885 38.1923 27.0507 39.1032 27.0507 40.1962C27.0507 41.291 27.8885 42.1802 29.0241 42.1802C29.7693 42.1802 30.2129 41.8822 30.5884 41.4647L30.0605 40.9422C29.7859 41.2249 29.482 41.4202 29.0688 41.4202V41.4202ZM41.7522 39.8253C41.7393 39.6848 41.7075 39.6434 41.6585 39.5216C41.6105 39.3984 41.5452 39.2919 41.4636 39.1996C41.381 39.1081 41.2828 39.0369 41.1717 38.9849C41.0562 38.935 40.9278 38.9092 40.7824 38.9092C40.5119 38.9092 40.2894 39.0029 40.1127 39.1881C39.9366 39.374 39.8293 39.5246 39.7901 39.8253H41.7522ZM42.5061 39.4641C42.5836 39.7113 42.6227 39.9752 42.6227 40.2497C42.6227 40.2884 42.6212 40.3276 42.6198 40.3693C42.6164 40.4091 42.6135 40.4523 42.6083 40.4954H39.799C39.8466 40.8091 39.971 41.0496 40.1702 41.2154C40.3713 41.3833 40.6142 41.4656 40.8994 41.4656C41.1157 41.4656 41.3046 41.4271 41.4636 41.3493C41.6234 41.2729 41.7802 41.1593 41.9352 41.0098L42.4482 41.4656C42.2651 41.6832 42.047 41.8574 41.7924 41.9872C41.5393 42.1168 41.2367 42.1833 40.8846 42.1833C40.609 42.1833 40.3522 42.1327 40.1127 42.0393C39.8739 41.9411 39.6673 41.8057 39.4898 41.6326C39.3152 41.4597 39.175 41.2501 39.0739 41.0058C38.9732 40.7629 38.9219 40.4932 38.9219 40.1985V40.1841C38.9219 39.9095 38.9687 39.6501 39.0595 39.4095C39.1518 39.1671 39.2805 38.9575 39.447 38.7753C39.6127 38.5944 39.8101 38.4524 40.0367 38.3465C40.264 38.2431 40.5153 38.1923 40.7909 38.1923C41.0942 38.1923 41.3603 38.2483 41.5906 38.3602C41.8186 38.4711 42.0105 38.6211 42.1625 38.8092C42.3135 38.9963 42.4297 39.2155 42.5061 39.4641V39.4641ZM36.8823 41.0829L35.8535 38.2723H34.9118L36.4838 42.1249H37.2727L38.837 38.2723H37.917L36.8823 41.0829ZM34.0007 40.1914C34.0007 40.0221 33.9704 39.8626 33.9132 39.7129C33.8553 39.5649 33.7741 39.4338 33.6708 39.3213C33.566 39.211 33.4449 39.1232 33.3018 39.0575C33.1589 38.9929 33.0011 38.9598 32.8274 38.9598C32.653 38.9598 32.4951 38.9929 32.3531 39.0575C32.2107 39.1232 32.0889 39.2106 31.9877 39.3184C31.8849 39.4272 31.809 39.5549 31.7557 39.7021C31.7023 39.8497 31.6757 40.0084 31.6757 40.1777V40.1914C31.6757 40.3556 31.7038 40.5128 31.7624 40.6619C31.8198 40.8131 31.9005 40.9422 32.0043 41.0567C32.1095 41.17 32.2321 41.2585 32.3748 41.3249C32.5175 41.3899 32.672 41.4216 32.8421 41.4216C33.0205 41.4216 33.1812 41.3899 33.3232 41.3249C33.466 41.2585 33.5878 41.1714 33.6889 41.0604C33.7903 40.9493 33.8678 40.8199 33.9206 40.6733C33.9734 40.5264 34.0007 40.37 34.0007 40.2058V40.1914ZM34.724 39.4043C34.8258 39.6434 34.8756 39.9024 34.8756 40.1777V40.1914C34.8756 40.4622 34.8243 40.718 34.7214 40.9589C34.6177 41.1995 34.4749 41.4105 34.2937 41.5917C34.1125 41.7748 33.8959 41.9167 33.6461 42.0245C33.394 42.1301 33.1214 42.1833 32.8274 42.1833C32.5369 42.1833 32.2674 42.1308 32.0202 42.0267C31.7718 41.9238 31.5563 41.781 31.3751 41.6031C31.1938 41.4238 31.053 41.2147 30.9506 40.9741C30.8504 40.7319 30.8 40.4759 30.8 40.2058V40.1914C30.8 39.9161 30.8504 39.6579 30.9549 39.4173C31.058 39.176 31.2007 38.9641 31.383 38.7836C31.5632 38.6007 31.7787 38.4586 32.0259 38.352C32.276 38.2462 32.5463 38.1923 32.8421 38.1923C33.1366 38.1923 33.4069 38.2431 33.656 38.3465C33.9047 38.4524 34.1199 38.5944 34.3007 38.7753C34.483 38.9575 34.6236 39.1671 34.724 39.4043V39.4043ZM26.2698 40.2014C26.1556 40.1179 26.0287 40.0464 25.8885 39.9881C25.7484 39.9305 25.61 39.8807 25.4694 39.8361C25.3577 39.7977 25.2504 39.7612 25.1465 39.7271C25.0428 39.6933 24.9512 39.656 24.8712 39.6162C24.792 39.5752 24.7264 39.5298 24.6791 39.4778C24.6312 39.4272 24.6077 39.3674 24.6077 39.2999V39.2862C24.6077 39.176 24.6536 39.0837 24.7483 39.0114C24.8431 38.9387 24.9746 38.9029 25.1437 38.9029C25.3015 38.9029 25.4759 38.935 25.6651 39C25.8531 39.0656 26.0388 39.1535 26.2219 39.2638L26.57 38.6412C26.3675 38.5062 26.1433 38.4004 25.8961 38.3224C25.6506 38.2462 25.4053 38.2074 25.1646 38.2074C24.9767 38.2074 24.7992 38.2332 24.6327 38.2874C24.4655 38.3406 24.3209 38.417 24.1981 38.5192C24.0756 38.6211 23.9775 38.7413 23.9091 38.8834C23.8384 39.028 23.8031 39.1888 23.8031 39.3726V39.3877C23.8031 39.5708 23.8384 39.725 23.9119 39.8513C23.9843 39.976 24.077 40.0803 24.1916 40.1659C24.304 40.2513 24.4326 40.3194 24.5743 40.3722C24.7163 40.4249 24.8575 40.4715 24.9981 40.5112C25.1094 40.5446 25.2165 40.5763 25.3217 40.608C25.424 40.639 25.5163 40.6756 25.5963 40.7168C25.6756 40.7577 25.739 40.8054 25.7844 40.8571C25.8298 40.9112 25.8531 40.9741 25.8531 41.046V41.0604C25.8531 41.1865 25.801 41.2861 25.6972 41.3604C25.5941 41.436 25.4471 41.4732 25.2593 41.4732C25.0608 41.4732 24.8554 41.433 24.6399 41.3537C24.4258 41.2743 24.2135 41.1563 24.0049 41.002L23.615 41.5957C23.8572 41.7847 24.1191 41.9268 24.4013 42.0245C24.6834 42.1197 24.9628 42.1681 25.2377 42.1681C25.4341 42.1681 25.6204 42.1438 25.7938 42.0924C25.9685 42.0419 26.1195 41.9678 26.2464 41.8677C26.3754 41.7688 26.4758 41.6449 26.5484 41.4943C26.6204 41.3452 26.6565 41.1692 26.6565 40.9666V40.9508C26.6565 40.7788 26.6204 40.6302 26.5484 40.5112C26.4758 40.3887 26.3826 40.287 26.2698 40.2014V40.2014ZM22.1418 42.0953H23.019V38.2723H22.1418V42.0953ZM21.6337 39.5268C21.6337 40.9589 20.5349 42.0659 18.9418 42.0659H17.4016C17.7118 41.8574 17.9712 41.5813 18.1576 41.2556H18.9418C20.0066 41.2556 20.7007 40.5387 20.7007 39.5398C20.7007 38.5409 20.0066 37.811 18.9418 37.811H17.9421V38.5553C17.7958 38.373 17.625 38.2103 17.4319 38.0775C17.3129 37.9967 17.1854 37.9247 17.0527 37.8649V36.9999H18.9418C20.5349 36.9999 21.6337 38.0927 21.6337 39.5268" fill="black"/>
<path d="M16.0702 42.167C17.2208 42.167 18.1535 41.2343 18.1535 40.0838C18.1535 38.9333 17.2208 38.0007 16.0702 38.0007C14.9197 38.0007 13.9869 38.9333 13.9869 40.0838C13.9869 41.2343 14.9197 42.167 16.0702 42.167Z" fill="black"/>
</svg>
