<svg width="100" height="100" viewBox="0 0 100 100" fill="none" xmlns="http://www.w3.org/2000/svg">
<path fill-rule="evenodd" clip-rule="evenodd" d="M40.5623 61.6152V78.5323H59.6403V61.6152H40.5623V61.6152ZM38.0362 6.30853L40.4293 58.7562H59.7728L62.1664 6.30853H38.0362V6.30853ZM57.6789 16.4461H50.5332V27.1484H57.4471L57.1811 33.5299H50.5332V48.7192H56.8145L56.6488 55.1007H43.5534L42.3238 10.0647H57.8788L57.6789 16.4461ZM35.7096 86.4093H34.3803V85.2129H35.5766V84.6483H34.3803V83.6842H35.7096V83.0853H33.6489V86.9749H35.7096V86.4093ZM37.2721 85.6123L37.8372 86.9749H38.6018V83.0853H37.8705V83.8499C37.8705 84.2161 37.8705 84.5813 37.9037 84.9465C37.937 85.3127 37.937 85.7111 37.9702 86.044C37.8341 85.5209 37.6563 85.0095 37.4383 84.5148L36.8731 83.0853H36.1422V86.9749H36.8731V86.2435C36.8731 85.9443 36.8399 85.5454 36.8067 85.1792C36.8067 84.7808 36.7734 84.3818 36.7402 84.0494C36.9392 84.6815 37.0721 85.1469 37.2721 85.6123V85.6123ZM41.2604 83.0853H38.8673V83.6842H39.698V86.9749H40.4293V83.6842H41.2604V83.0853ZM41.5596 86.9749H43.5866V86.4093H42.2905V85.2129H43.4869V84.6483H42.2905V83.6842H43.5866V83.0853H41.5596V86.9749ZM48.0404 86.9749V83.6842H48.8715V83.0853H46.4451V83.6842H47.3095V86.9749H48.0404ZM52.6936 83.0853H51.9955V86.9749H52.6936V83.0853ZM53.8235 84.0494C53.9902 84.6815 54.1564 85.1469 54.3221 85.6123L54.8877 86.9749H55.6514V83.0853H54.9201V83.8499C54.9201 84.2161 54.9533 84.5813 54.9533 84.9465C54.9866 85.3127 55.0203 85.7111 55.0535 86.044H55.0203C54.8545 85.4119 54.6874 84.9798 54.5216 84.5148L53.9569 83.0853H53.1923V86.9749H53.9237V86.2435C53.9237 85.9443 53.8904 85.5454 53.8904 85.1792C53.8567 84.7808 53.8235 84.3823 53.8235 84.0494V84.0494ZM57.8788 84.9142C57.836 85.2121 57.8026 85.5113 57.7786 85.8113C57.7454 85.5121 57.7117 85.2125 57.6461 84.9142L57.2467 83.0853H56.0832V86.9749H56.8145V85.7781C56.8145 84.9798 56.8145 84.2161 56.7485 83.4515H56.7808L57.5454 86.9749H57.9776L58.7422 83.4515H58.7755C58.7085 84.2161 58.7085 84.9802 58.7085 85.7781V86.9749H59.4399V83.0853H58.2763L57.8788 84.9142V84.9142ZM61.8335 86.4093H60.5374V85.2129H61.7342V84.6483H60.5374V83.6842H61.8335V83.0853H59.806V86.9749H61.8335V86.4093ZM64.692 83.0853H63.9606V83.8499C63.9606 84.2161 63.9939 84.5813 63.9939 84.9465C64.0271 85.3127 64.0608 85.7111 64.0941 86.044H64.0608C63.8951 85.4119 63.7279 84.9798 63.5622 84.5148L62.9965 83.0853H62.2329V86.9749H62.9642V86.2435C62.9642 85.9443 62.931 85.5454 62.931 85.1792C62.8977 84.7808 62.864 84.3818 62.864 84.0494C63.0298 84.6815 63.1969 85.1469 63.3627 85.6123L63.9274 86.9749H64.692V83.0853V83.0853ZM64.9247 83.6842H65.7563V86.9749H66.4867V83.6842H67.3515V83.0853H64.9247V83.6842V83.6842ZM33.6822 89.2683H34.5133V92.5913H35.2442V89.2683H36.0753V88.7026H33.6822V89.2683ZM37.3718 92.5913H39.3988V92.0266H38.1027V90.8303H39.2995V90.2647H38.1027V89.2683H39.3988V88.7026H37.3718V92.5913ZM41.7259 88.7026H40.9945V92.5913H43.0884V92.0266H41.7259V88.7026V88.7026ZM44.3512 92.5913H46.3786V92.0266H45.0826V90.8303H46.2789V90.2647H45.0826V89.2683H46.3786V88.7026H44.3512V92.5913ZM49.3037 91.1955C49.2704 91.4282 49.2372 91.6277 49.2372 91.8599C49.2039 91.9601 49.2039 92.0603 49.2039 92.1928H49.1707V91.8599C49.1374 91.6272 49.1042 91.4277 49.071 91.1955L48.6055 88.7031H47.8414L48.7057 92.5917H49.6694L50.5 88.7031H49.7358L49.3037 91.1955ZM52.0957 92.5913H52.7938V88.7026H52.0957V92.5913ZM55.3532 90.1321C55.1205 89.9664 54.9538 89.8662 54.9538 89.5665C54.9538 89.3015 55.1205 89.2013 55.3532 89.2013C55.7516 89.2013 55.7853 89.5333 55.7853 89.8994H56.4835C56.4502 89.501 56.4835 88.6034 55.3536 88.6034C54.589 88.6034 54.1901 88.9686 54.1901 89.633C54.1901 89.8325 54.2561 90.0652 54.3896 90.231C54.6878 90.6303 55.1542 90.8298 55.5194 91.129C55.7189 91.2615 55.8186 91.4273 55.8186 91.6267C55.8186 91.9259 55.6851 92.0922 55.3855 92.0922C55.0203 92.0922 54.8877 91.8262 54.9201 91.461V91.2283H54.1896V91.4942C54.1896 92.1924 54.4879 92.691 55.3855 92.691C56.0836 92.691 56.5823 92.2925 56.5823 91.5612C56.5823 91.2283 56.483 90.9956 56.2503 90.7629C56.0508 90.5639 55.5859 90.2647 55.3532 90.1321V90.1321ZM58.1115 92.5913H58.842V88.7026H58.1115V92.5913ZM65.988 89.4673C65.988 89.7992 66.0213 90.1986 66.055 90.5639C66.055 90.9291 66.0882 91.2952 66.1219 91.6604H66.0887C65.9526 91.1415 65.7861 90.6311 65.59 90.1317L65.0254 88.7022H64.2607V92.5908H64.9921V91.8594C64.9921 91.5612 64.9921 91.1613 64.9589 90.7629C64.9256 90.3644 64.8919 89.9992 64.8919 89.6663C65.0586 90.2642 65.2248 90.7629 65.4238 91.195L65.9885 92.5908H66.7199V88.7022H65.9885V89.4673H65.988ZM46.2789 85.6779C46.2789 85.3127 46.1792 85.0467 45.747 84.9798C46.2124 84.9137 46.3454 84.4488 46.3454 84.0489C46.3454 83.3176 45.8467 83.0849 45.2151 83.0849H43.8526V86.9744H44.5835V85.3122H44.7164C44.9159 85.3122 45.1154 85.3122 45.3144 85.3782C45.5803 85.4452 45.5803 85.7776 45.5803 86.0103C45.5803 86.243 45.5471 86.7417 45.6468 86.9744H46.4447V86.9075C46.2789 86.8082 46.2789 85.845 46.2789 85.6779V85.6779ZM45.1491 84.7475H44.5839V83.6842H45.1158C45.3818 83.6842 45.5812 83.7511 45.5812 84.1828C45.5812 84.5813 45.3813 84.7143 45.1491 84.7475V84.7475ZM50.8657 83.0853H49.9021L48.9712 86.9749H49.7358L49.9353 86.0108H50.7664L50.9659 86.9749H51.7633L50.8657 83.0853ZM50.035 85.4457L50.2677 84.3158C50.301 84.1501 50.301 83.9838 50.3342 83.7839C50.3342 83.7179 50.3675 83.6181 50.3675 83.5189C50.3675 83.6181 50.4007 83.7183 50.4007 83.7839C50.434 83.9843 50.434 84.1501 50.4672 84.3158L50.6667 85.4457H50.035V85.4457ZM61.634 88.6034C60.5042 88.6034 60.4049 89.3338 60.3716 90.3311V90.8968C60.3716 91.9264 60.4709 92.6915 61.634 92.6915C62.8308 92.6915 62.931 91.9269 62.931 90.8968V90.3311C62.8977 89.3338 62.7975 88.6034 61.634 88.6034ZM62.1664 90.1986V91.195C62.1664 91.5612 62.1664 92.0922 61.6345 92.0922C61.169 92.0922 61.1367 91.5612 61.1367 91.2615V90.1649C61.1367 89.8657 61.0698 89.2008 61.6345 89.2008C62.1996 89.2013 62.1664 89.8994 62.1664 90.1986Z" fill="#87338A"/>
</svg>
