<svg width="100" height="100" viewBox="0 0 100 100" fill="none" xmlns="http://www.w3.org/2000/svg">
<path d="M70.2331 25H35.9228L34.2803 33.1213H68.4993L70.2331 25Z" fill="#0453A7"/>
<path d="M66.0354 45.6227H31.7252L30.0826 53.744H64.3017L66.0354 45.6227Z" fill="#0453A7"/>
<path d="M59.8304 35.4026H33.9152L32.2727 43.4327H58.1541L59.8304 35.4026Z" fill="#0453A7"/>
<path d="M16.4904 62.5717L17.5881 62.7277C17.241 63.7062 16.7356 64.4458 16.0717 64.9466C15.4078 65.4474 14.6628 65.6978 13.8368 65.6978C12.8296 65.6978 12.0299 65.3839 11.4377 64.7559C10.8493 64.128 10.5551 63.2285 10.5551 62.0574C10.5551 60.5319 11.0039 59.2703 11.9017 58.2726C12.7014 57.3827 13.6953 56.9377 14.8835 56.9377C15.7624 56.9377 16.4734 57.1785 17.0166 57.66C17.5636 58.1416 17.8804 58.7888 17.9672 59.6016L16.9317 59.6998C16.8223 59.0873 16.596 58.6308 16.2528 58.3303C15.9133 58.026 15.4738 57.8738 14.9344 57.8738C13.9197 57.8738 13.0993 58.3342 12.4731 59.2549C11.93 60.0485 11.6584 60.9903 11.6584 62.0805C11.6584 62.9511 11.8677 63.6157 12.2864 64.0741C12.7051 64.5325 13.2502 64.7617 13.9216 64.7617C14.495 64.7617 15.0136 64.571 15.4776 64.1896C15.9416 63.8083 16.2792 63.269 16.4904 62.5717Z" fill="#0453A7"/>
<path d="M17.6447 65.5534L22.3465 57.0822H23.6536L25.0228 65.5534H23.9478L23.5461 63.1149H20.1908L18.8611 65.5534H17.6447ZM20.6661 62.2423H23.4103L23.0877 60.1159C22.9633 59.2722 22.8859 58.5692 22.8558 58.0068C22.6672 58.4921 22.3918 59.0681 22.0297 59.7345L20.6661 62.2423Z" fill="#0453A7"/>
<path d="M26.1714 65.5534L27.9084 57.0822H28.9835L30.381 60.2603C30.8073 61.2311 31.1449 62.0478 31.3938 62.7104C31.5372 63.0956 31.7031 63.6157 31.8917 64.2705C31.9936 63.5579 32.1218 62.8221 32.2765 62.0632L33.295 57.0822H34.3757L32.6443 65.5534H31.5466L29.4871 60.659C29.1212 59.7961 28.8364 59.0353 28.6327 58.3766C28.5761 58.9274 28.4667 59.6035 28.3045 60.4048L27.2521 65.5534H26.1714Z" fill="#0453A7"/>
<path d="M33.7476 65.5534L38.4495 57.0822H39.7565L41.1258 65.5534H40.0507L39.649 63.1149H36.2938L34.9641 65.5534H33.7476ZM36.769 62.2423H39.5132L39.1907 60.1159C39.0662 59.2722 38.9889 58.5692 38.9587 58.0068C38.7701 58.4921 38.4948 59.0681 38.1326 59.7345L36.769 62.2423Z" fill="#0453A7"/>
<path d="M42.1725 65.5534L43.9039 57.0822H45.0129L43.4795 64.5941H47.7854L47.5873 65.5534H42.1725Z" fill="#0453A7"/>
<path d="M8 75.9179L9.79434 67.3403H16.1684L15.8693 68.7738H11.2662L10.8557 70.7222H15.3064L15.0073 72.1557H10.5566L10.0172 74.4844H15.019L14.7141 75.9179H8Z" fill="#0453A7"/>
<path d="M20.9533 75.9179H19.2762L18.9654 68.7504L17.5991 75.9179H16.0042L17.7985 67.3403H20.32L20.5838 73.3493L23.5158 67.3403H26.0665L24.2663 75.9179H22.6538L24.3484 68.8031L20.9533 75.9179Z" fill="#0453A7"/>
<path d="M27.7788 75.9179H26.0079L27.8081 67.3403H31.303C31.9245 67.3403 32.4151 67.4144 32.7748 67.5627C33.1384 67.707 33.4257 67.9488 33.6368 68.2882C33.8479 68.6237 33.9534 69.0254 33.9534 69.4935C33.9534 69.9265 33.8694 70.3477 33.7013 70.7573C33.5332 71.1669 33.326 71.4945 33.0797 71.7403C32.8373 71.986 32.5754 72.1733 32.294 72.302C32.0125 72.4268 31.6333 72.5224 31.1564 72.5887C30.8788 72.6277 30.3589 72.6472 29.5966 72.6472H28.4649L27.7788 75.9179ZM28.7581 71.2254H29.3034C30.2377 71.2254 30.8612 71.1669 31.174 71.0499C31.4867 70.9328 31.733 70.7456 31.9128 70.4882C32.0926 70.2307 32.1825 69.9479 32.1825 69.6398C32.1825 69.433 32.1356 69.2634 32.0418 69.1307C31.9519 68.9981 31.8229 68.9025 31.6548 68.844C31.4906 68.7816 31.1212 68.7504 30.5465 68.7504H29.2799L28.7581 71.2254Z" fill="#0453A7"/>
<path d="M35.8299 75.9179H34.059L35.8592 67.3403H39.6766C40.3333 67.3403 40.8435 67.4086 41.207 67.5451C41.5745 67.6777 41.8696 67.9235 42.0925 68.2823C42.3192 68.6412 42.4326 69.0761 42.4326 69.5871C42.4326 70.3165 42.2137 70.9192 41.7758 71.3951C41.338 71.8671 40.6754 72.1596 39.788 72.2727C40.0147 72.4756 40.2278 72.7428 40.4271 73.0743C40.822 73.7452 41.2618 74.6931 41.7465 75.9179H39.8466C39.6941 75.4342 39.3951 74.6794 38.9494 73.6536C38.7071 73.0997 38.4491 72.7272 38.1754 72.536C38.0073 72.4229 37.7141 72.3663 37.2958 72.3663H36.5746L35.8299 75.9179ZM36.8443 71.0791H37.7825C38.7325 71.0791 39.3619 71.0226 39.6707 70.9094C39.9834 70.7963 40.2278 70.6188 40.4037 70.377C40.5796 70.1352 40.6675 69.8816 40.6675 69.6164C40.6675 69.3043 40.5405 69.0703 40.2864 68.9143C40.13 68.8206 39.7919 68.7738 39.2719 68.7738H37.3251L36.8443 71.0791Z" fill="#0453A7"/>
<path d="M42.7023 75.9179L44.4966 67.3403H50.8707L50.5716 68.7738H45.9685L45.558 70.7222H50.0087L49.7096 72.1557H45.2589L44.7195 74.4844H49.7213L49.4164 75.9179H42.7023Z" fill="#0453A7"/>
<path d="M50.7123 75.9179L52.5067 67.3403H58.8807L58.5816 68.7738H53.9785L53.568 70.7222H58.0187L57.7196 72.1557H53.269L52.7295 74.4844H57.7314L57.4265 75.9179H50.7123Z" fill="#0453A7"/>
<path d="M65.5948 75.9179H63.9471L61.625 70.1547L60.417 75.9179H58.7693L60.5636 67.3403H62.2172L64.5452 73.0802L65.7473 67.3403H67.3891L65.5948 75.9179Z" fill="#0453A7"/>
<path d="M67.4302 75.9179L69.2304 67.3403H71.5466C72.1916 67.3403 72.6041 67.3501 72.7839 67.3696C73.1396 67.4047 73.4563 67.4769 73.7338 67.5861C74.0153 67.6953 74.2694 67.8494 74.4961 68.0483C74.7268 68.2433 74.9242 68.4793 75.0884 68.7563C75.2565 69.0332 75.3855 69.3531 75.4754 69.7158C75.5653 70.0747 75.6103 70.4687 75.6103 70.8977C75.6103 71.8222 75.4324 72.6433 75.0767 73.361C74.7248 74.0748 74.2811 74.6424 73.7456 75.0637C73.3351 75.3913 72.8054 75.6332 72.1565 75.7892C71.789 75.875 71.2241 75.9179 70.4618 75.9179H67.4302ZM69.4884 74.5371H70.3856C71.0345 74.5371 71.5036 74.4981 71.7929 74.42C72.0861 74.3381 72.3539 74.188 72.5962 73.9695C72.9442 73.6536 73.2374 73.2323 73.4758 72.7057C73.7143 72.1791 73.8335 71.5589 73.8335 70.8451C73.8335 70.2366 73.7338 69.7802 73.5345 69.4759C73.339 69.1678 73.0966 68.963 72.8073 68.8616C72.6041 68.7914 72.2425 68.7563 71.7225 68.7563H70.6964L69.4884 74.5371Z" fill="#0453A7"/>
<path d="M76.0794 75.9179L77.8737 67.3403H84.2477L83.9487 68.7738H79.3455L78.9351 70.7222H83.3857L83.0867 72.1557H78.636L78.0965 74.4844H83.0984L82.7935 75.9179H76.0794Z" fill="#0453A7"/>
<path d="M85.8955 75.9179H84.1246L85.9248 67.3403H89.7422C90.3989 67.3403 90.9091 67.4086 91.2726 67.5451C91.6401 67.6777 91.9352 67.9235 92.1581 68.2823C92.3848 68.6412 92.4982 69.0761 92.4982 69.5871C92.4982 70.3165 92.2793 70.9192 91.8414 71.3951C91.4036 71.8671 90.741 72.1596 89.8536 72.2727C90.0803 72.4756 90.2934 72.7428 90.4927 73.0743C90.8876 73.7452 91.3274 74.6931 91.8121 75.9179H89.9122C89.7598 75.4342 89.4607 74.6794 89.015 73.6536C88.7727 73.0997 88.5147 72.7272 88.241 72.536C88.0729 72.4229 87.7797 72.3663 87.3614 72.3663H86.6402L85.8955 75.9179ZM86.9099 71.0791H87.8481C88.7981 71.0791 89.4275 71.0226 89.7363 70.9094C90.049 70.7963 90.2934 70.6188 90.4693 70.377C90.6452 70.1352 90.7332 69.8816 90.7332 69.6164C90.7332 69.3043 90.6061 69.0703 90.352 68.9143C90.1956 68.8206 89.8575 68.7738 89.3376 68.7738H87.3908L86.9099 71.0791Z" fill="#0453A7"/>
</svg>
