<svg width="100" height="100" viewBox="0 0 100 100" fill="none" xmlns="http://www.w3.org/2000/svg">
<g clip-path="url(#clip0_839_1416)">
<path d="M37.8586 41.0457C35.1431 41.0421 33.3447 42.4694 33.0917 44.6035C33.0327 45.0967 32.9719 45.5897 32.9094 46.0825H68.2414C68.2414 46.0825 68.3078 45.5626 68.3594 45.1453C68.6251 42.9954 67.709 41.0459 64.3769 41.0459V41.0462C64.3769 41.0462 39.2902 41.0472 37.8586 41.0457ZM16.2959 41.0463L15.6758 46.0825H31.6989L32.3167 41.0464H16.2957H16.2959V41.0463ZM70.0819 41.0463L69.4631 46.0825H86.8335C86.8335 46.0825 86.8545 45.9004 86.9315 45.3076C87.3542 42.0019 85.2153 41.0463 83.1502 41.0463H70.0819ZM69.2238 48.0001L67.8703 58.9914L73.8632 58.9893L75.2178 48.0022L69.2238 47.9998V48.0001V48.0001ZM80.6087 48.0001L79.253 58.9914L85.2459 58.9893L86.6005 48.0022L80.6087 47.9998V48.0001V48.0001ZM15.4421 48.0017L14.0862 58.9919H30.1082L30.6986 54.2242L20.6659 54.2231L20.9197 52.1672H30.9484L31.4618 48.0019H15.4429L15.4421 48.0017V48.0017ZM32.6743 48.0017C32.2347 50.8701 33.6747 52.1668 35.7155 52.1668C36.8255 52.1668 43.822 52.1636 43.822 52.1636L43.569 54.2227L31.909 54.2238L31.3218 58.9915C31.3218 58.9915 44.0159 58.9957 44.5303 58.9915C44.9552 58.9611 47.9247 58.8801 48.9356 56.4584C49.2635 55.6722 49.5534 52.8531 49.6345 52.2614C50.1015 48.8243 47.7149 48.0048 45.8354 48.0048C44.7992 48.0048 34.7204 48.0017 32.6743 48.0017V48.0017ZM51.3265 48.0017L49.9729 58.9919H55.9626L56.8059 52.1672H64.3294C66.463 52.1672 67.6099 51.0233 67.8229 49.4873C67.8909 48.993 67.9524 48.4978 68.0074 48.0019H51.3265V48.0017V48.0017Z" fill="#E52534"/>
</g>
<defs>
<clipPath id="clip0_839_1416">
<rect width="73" height="18" fill="white" transform="translate(14 41)"/>
</clipPath>
</defs>
</svg>
