<svg width="100" height="100" viewBox="0 0 100 100" fill="none" xmlns="http://www.w3.org/2000/svg">
<g clip-path="url(#clip0_840_2923)">
<path d="M81.4569 44.8144C81.2694 44.8144 81.0692 44.8903 80.9192 45.0551C80.7191 45.2577 80.6942 45.5235 80.6942 45.8021V54.5C80.6942 55.3102 80.9192 55.538 81.7072 55.538C83.42 55.538 85.1328 55.538 86.8587 55.5509C87.3336 55.5637 87.6336 55.361 87.7962 54.9177C88.0841 54.1454 88.4089 53.386 88.6967 52.6009C88.7839 52.3731 88.8964 52.2844 89.1467 52.2844C90.147 52.2972 91.1473 52.2972 92.1477 52.2844C92.3853 52.2715 92.4978 52.3603 92.585 52.5881C92.8728 53.3604 93.1977 54.1331 93.4981 54.9053C93.7231 55.4621 94.1108 55.6776 94.5608 55.4877C94.9859 55.3102 95.1111 54.8674 94.8983 54.3229C94.4731 53.2341 94.048 52.1576 93.6106 51.0688C92.8728 49.2077 92.1477 47.3594 91.4098 45.4984C91.1848 44.916 90.7095 44.7005 90.2722 44.954C90.0219 45.093 89.9342 45.3465 89.8344 45.5995C88.7717 48.2836 87.7086 50.9549 86.6586 53.639C86.5461 53.9304 86.4209 54.0187 86.1209 54.0187C84.9453 54.0064 83.7702 54.0064 82.595 54.0187C82.2823 54.0187 82.2195 53.9428 82.2195 53.6266C82.2322 51.0564 82.2322 48.4863 82.2322 45.9161C82.2195 45.7385 82.2195 45.5615 82.182 45.3845C82.0695 45.0043 81.7695 44.8021 81.4569 44.8144V44.8144ZM90.6472 47.6884C91.047 48.6761 91.3972 49.6002 91.7727 50.512C91.8477 50.7019 91.7848 50.7399 91.61 50.7399C90.972 50.727 90.3097 50.7399 89.6717 50.7399C89.5095 50.7399 89.472 50.6891 89.5344 50.5244C89.8967 49.6131 90.2595 48.6761 90.6472 47.6884V47.6884Z" fill="#11110F"/>
<path d="M75.0177 44.8524C72.1419 44.8652 69.8535 47.2455 69.8661 50.2206C69.8788 53.1961 72.1668 55.5257 75.0679 55.5257C77.9558 55.5129 80.2316 53.1454 80.219 50.1698C80.2068 47.2199 77.8935 44.84 75.0177 44.8524ZM75.0177 46.3969C77.0558 46.3969 78.6936 48.1065 78.6815 50.2078C78.6688 52.2972 77.031 53.9935 75.0177 53.9935C73.0044 53.9935 71.3793 52.3095 71.3666 50.2206C71.3793 48.0809 72.9796 46.4097 75.0177 46.3969Z" fill="#11110F"/>
<path d="M65.3273 55.5257C62.6765 55.614 59.9882 53.1454 60.1884 49.7901C60.351 46.9669 62.8893 44.6497 65.7149 44.8652C67.3406 44.9919 68.616 45.7385 69.5535 47.068C69.8789 47.5242 69.8414 47.9798 69.4785 48.2456C69.1035 48.5242 68.6535 48.4103 68.3156 47.9542C67.2281 46.4856 65.4149 45.9792 63.8521 46.7263C62.2392 47.4857 61.3889 49.3093 61.8014 51.1196C62.2017 52.8288 63.7645 54.0695 65.5148 53.9936C66.7279 53.9428 67.6654 53.3732 68.3657 52.3731C68.5907 52.0565 68.8659 51.9298 69.2409 52.0314C69.5789 52.1197 69.741 52.3731 69.7912 52.7149C69.8287 52.9678 69.6914 53.1705 69.5535 53.3604C68.5907 54.7278 67.0406 55.5257 65.3273 55.5257V55.5257Z" fill="#11110F"/>
<path d="M46.9597 50.1954C46.9597 48.7649 46.9597 47.3338 46.9597 45.9161C46.9597 45.1941 47.1969 44.9539 47.8972 44.9539C49.3728 44.9539 50.8606 44.9539 52.3484 44.9539C52.9489 44.9539 53.2864 45.2321 53.2991 45.7006C53.3112 46.1947 52.9489 46.4856 52.3362 46.4856C51.1606 46.4856 49.9855 46.4984 48.8098 46.4733C48.5225 46.4733 48.4348 46.5492 48.4475 46.8402C48.4601 47.6001 48.4601 48.3595 48.4475 49.119C48.4348 49.4104 48.5225 49.4612 48.785 49.4612C49.7726 49.4484 50.7481 49.4484 51.7358 49.4612C52.2861 49.4612 52.6109 49.7649 52.6109 50.2458C52.5987 50.6891 52.2987 50.9805 51.7986 50.9928C50.8231 51.0057 49.8603 51.0185 48.8848 50.9805C48.5098 50.9677 48.4226 51.0944 48.4348 51.449C48.4601 52.1453 48.4601 52.8539 48.4348 53.5507C48.4226 53.9048 48.4976 54.0315 48.8726 54.0187C50.0605 53.9935 51.2483 54.0064 52.4487 54.0064C52.8237 54.0064 53.1111 54.1454 53.2362 54.5251C53.3487 54.8545 53.2489 55.1332 53.0112 55.361C52.8612 55.5001 52.6737 55.5257 52.4862 55.5257C50.923 55.5257 49.3475 55.538 47.772 55.5257C47.2095 55.5257 46.9597 55.2471 46.947 54.6519C46.9597 53.1705 46.9597 51.6768 46.9597 50.1954Z" fill="#11110F"/>
<path d="M42.0206 53.4491C42.8207 51.1955 43.6213 48.9291 44.4215 46.6755C44.5715 46.245 44.7215 45.8145 44.8842 45.3844C45.0463 44.9539 45.2967 44.7764 45.584 44.916C45.9342 45.0802 45.9342 45.3844 45.8095 45.7134C44.6967 48.8028 43.596 51.9046 42.5085 54.9936C42.4082 55.2599 42.3084 55.5001 41.9831 55.5001C41.6582 55.5001 41.5457 55.2471 41.4581 54.9936C40.4203 52.0817 39.3824 49.1697 38.3573 46.2578C38.257 45.992 38.1698 45.8524 37.8445 45.8781C37.3317 45.916 36.8193 45.9032 36.3065 45.8781C36.0065 45.8653 35.9563 45.9792 35.9563 46.2578C35.969 49.0307 35.969 51.7907 35.969 54.5631C35.969 54.6775 35.969 54.8038 35.969 54.9177C35.969 55.2599 35.8312 55.5257 35.4815 55.5129C35.1187 55.5129 34.9935 55.2599 34.9935 54.9053C35.0062 52.9806 34.9935 51.0688 34.9935 49.1446C34.9935 48.1825 34.9813 47.2076 35.0062 46.245C35.0188 45.954 34.9185 45.8653 34.6312 45.8781C33.9932 45.8909 33.3309 45.8909 32.6929 45.8909C32.2556 45.8909 31.9926 45.7006 32.0179 45.3844C32.0554 44.9539 32.3554 44.8903 32.7182 44.8903C34.581 44.9032 36.4438 44.9032 38.3198 44.878C38.7824 44.8652 39.0074 45.055 39.1448 45.4727C40.0326 48.0178 40.9453 50.55 41.8457 53.0822C41.8832 53.2085 41.8832 53.348 42.0206 53.4491Z" fill="#11110F"/>
<path d="M56.6873 55.5257C55.237 55.4621 54.149 54.8038 53.4867 53.4743C53.249 52.9807 53.3615 52.5758 53.774 52.3731C54.1743 52.1704 54.562 52.3351 54.7992 52.816C55.387 53.9556 56.6873 54.3861 57.6501 53.7657C58.1756 53.424 58.4381 52.9427 58.3879 52.2972C58.3378 51.6768 57.9501 51.3854 57.4378 51.2083C56.8251 51.0057 56.1998 50.8286 55.5998 50.6003C53.9493 50.0056 53.2242 48.8532 53.5242 47.3087C53.8115 45.8653 55.1995 44.7893 56.7623 44.84C58.1381 44.8904 59.2631 45.7006 59.7131 46.9921C59.9132 47.5365 59.7759 47.9418 59.3381 48.1065C58.8881 48.2708 58.5628 48.0937 58.3378 47.5113C58.0251 46.7135 57.3374 46.2578 56.5251 46.3209C55.7371 46.3845 55.1118 46.9161 54.9618 47.6124C54.8245 48.2584 55.0621 48.7772 55.6621 49.0307C56.1248 49.2333 56.6001 49.3596 57.0749 49.5243C57.3628 49.6254 57.6628 49.7142 57.9501 49.8157C59.2757 50.3473 59.8757 51.1955 59.8509 52.5502C59.8382 53.7785 59.0254 54.8797 57.8503 55.323C57.4753 55.4621 57.0876 55.5509 56.6873 55.5257Z" fill="#11110F"/>
<path d="M30.2671 47.8402C29.0042 41.8516 23.578 38.1166 17.6136 39.1803C15.3003 39.598 13.3124 40.7124 11.7121 42.4847C10.5866 43.6367 9.84878 45.0298 9.26096 46.5615C8.62346 45.7892 8.22315 44.9662 7.93581 44.0672C7.64799 43.1687 6.87315 42.7505 6.04768 42.9912C5.22268 43.2447 4.80971 44.0928 5.08487 44.9918C5.69753 46.954 6.77284 48.6124 8.36096 49.8916C8.46081 49.9675 8.56112 50.1194 8.76081 50.0938C8.74862 48.929 8.89862 47.777 9.28628 46.5994C9.88628 47.2578 10.5116 47.7898 11.2367 48.1947C11.5241 48.3594 11.7242 48.3722 11.7871 47.9669C11.8246 47.7898 11.8742 47.6 11.9244 47.4225C11.9371 47.4097 11.9492 47.3845 11.9619 47.3717C11.9867 47.3214 12.0121 47.2706 12.0369 47.2075C13.4624 43.4725 16.5257 41.459 20.4519 41.7505C21.9275 41.8516 23.2152 42.434 24.178 43.6116C25.7661 45.5614 25.4535 48.2583 23.4027 49.9927C21.3271 51.727 18.9013 52.4869 16.2257 52.4741C15.9257 52.4741 15.6257 52.4741 15.313 52.4741C16.1507 54.4111 18.5764 55.6267 20.7017 55.171C22.4525 54.7913 23.7153 53.7908 24.4405 52.0944C24.8033 51.2462 25.6536 50.9168 26.4411 51.2585C27.1911 51.6008 27.5291 52.4361 27.2164 53.2464C25.9161 56.6776 22.0649 58.8552 18.5014 58.1969C15.1377 57.5637 13.0372 55.5128 11.9619 52.2971C11.8246 51.8917 11.6492 51.6767 11.2494 51.5248C10.3991 51.2334 9.61112 50.7521 8.82362 50.2205C8.77346 50.8157 8.83581 51.3473 8.93612 51.8666C10.0489 57.9691 15.5005 61.8431 21.5272 60.843C27.4414 59.8809 31.5299 53.8164 30.2671 47.8402V47.8402Z" fill="#F08F07"/>
<path d="M16.2257 49.4991C16.5632 49.4863 16.9007 49.4863 17.226 49.4232C18.7766 49.2585 20.2016 48.7392 21.4147 47.7392C21.8901 47.3466 22.3026 46.8782 22.1526 46.1819C21.9899 45.4476 21.4522 45.1058 20.8147 44.9032C20.2143 44.7005 19.6016 44.7133 18.9763 44.7892C16.8383 45.0299 14.9254 46.891 14.6254 49.0307C14.5879 49.3216 14.7004 49.4104 14.938 49.4232C15.3754 49.4355 15.8005 49.4735 16.2257 49.4991Z" fill="#F08F07"/>
</g>
<defs>
<clipPath id="clip0_840_2923">
<rect width="90" height="22" fill="white" transform="translate(5 39)"/>
</clipPath>
</defs>
</svg>
