<svg width="100" height="100" viewBox="0 0 100 100" fill="none" xmlns="http://www.w3.org/2000/svg">
<path d="M4.11596 41.6574C4.00113 42.4087 3.70586 45.3044 3.68945 45.7426C3.68945 45.993 4.14877 46.0087 11.7603 45.9774L19.8312 45.9304L20.0281 44.6C20.4546 41.767 20.5202 41.1409 20.4382 41.0783C20.4054 41.0313 16.7308 41 12.2853 41H4.21439L4.11596 41.6574Z" fill="#E52534"/>
<path d="M24.3425 41.141C23.2271 41.4697 22.0788 42.4244 21.5866 43.4262C21.275 44.0679 20.9141 45.3201 20.9141 45.7584C20.9141 45.9775 22.8005 46.0088 39.6313 46.0088H58.3649L58.2665 44.9444C58.1188 43.4575 57.8892 42.7844 57.2494 42.1114C56.1503 40.9531 56.8557 41.0001 39.8773 41.0158C31.5768 41.0158 24.5722 41.0784 24.3425 41.141Z" fill="#E52534"/>
<path d="M59.7264 41.501C59.5624 42.5653 59.1359 45.6488 59.1359 45.821C59.1359 45.9618 61.3996 46.0088 68.2238 46.0088C77.2461 46.0088 77.3281 46.0088 77.4266 45.6957C77.5906 45.1792 77.5578 43.8018 77.3609 43.1131C77.1313 42.2836 76.4423 41.5636 75.5729 41.2505C74.9659 41.0314 73.8833 41.0001 67.338 41.0001H59.8084L59.7264 41.501Z" fill="#E52534"/>
<path d="M83.4304 42.6748C83.3156 43.52 83.1844 44.3965 83.1352 44.6313L83.0531 45.0696L87.7776 45.1009L92.502 45.1478L92.748 45.5704C92.9613 45.9304 92.9777 46.1026 92.7973 46.7444C92.6824 47.1513 92.502 47.5583 92.42 47.6522C92.3379 47.7304 90.9928 47.84 89.4344 47.887L86.6129 47.9652L86.416 49.5304C86.3176 50.3913 86.2192 51.2835 86.2192 51.5183L86.2028 51.9565L88.9423 51.9878L91.6982 52.0348L91.895 52.4574C92.0591 52.7704 92.0755 53.0522 91.9278 53.6783C91.5997 55.1339 91.7474 55.087 86.7933 55.087H82.479L82.3642 55.9791C82.315 56.48 82.2165 57.3565 82.1673 57.9357L82.0525 59H87.0394C92.9777 58.9843 93.6503 58.8904 95.1923 57.7791C95.9797 57.2 96.6194 55.76 96.9311 53.8348C97.2264 51.8783 97.128 51.2991 96.2913 50.407L95.7172 49.8122L96.3242 49.4365C97.128 48.9357 97.4889 48.3252 97.7677 46.8696C98.2599 44.4435 97.9646 42.7531 96.9311 41.9861C95.9633 41.2818 94.8314 41.1722 88.9751 41.1565H83.6273L83.4304 42.6748Z" fill="#E52534"/>
<path d="M3.21391 49.2487C3.04987 50.407 2.68898 53.2557 2.3773 55.9478C2.29528 56.6365 2.18045 57.607 2.11483 58.0922L2 59H10.1201H18.2402L18.5026 57.0591C18.6667 55.9948 18.7815 54.9461 18.7815 54.7113V54.3044H13.7618H8.72573L8.84056 53.7096C8.88977 53.3965 8.93898 52.8957 8.93898 52.6139V52.113H14.1063H19.2736V51.44C19.2736 50.8296 19.5033 49.2017 19.6837 48.3878L19.7658 48.0435H11.5801H3.39436L3.21391 49.2487Z" fill="#E52534"/>
<path d="M20.586 48.8887C20.586 50.3756 21.0781 51.2365 22.2592 51.8156C22.817 52.0817 23.2763 52.113 27.7054 52.113C30.3629 52.113 32.5611 52.16 32.6103 52.2226C32.6431 52.3009 32.5939 52.7861 32.5119 53.3183L32.3642 54.3043H26.2455H20.1103L20.0283 54.8052C19.9791 55.0869 19.8642 55.9165 19.7658 56.6522C19.6674 57.3878 19.5525 58.2174 19.4869 58.4835L19.4049 59H27.0329C35.5959 59 35.4154 59.0156 36.7934 57.8261C37.7284 57.0278 38.0565 56.2296 38.3846 53.96C38.9423 49.953 38.7783 49.0922 37.3183 48.3878C36.5965 48.0435 36.5637 48.0435 28.5913 48.0435H20.586V48.8887Z" fill="#E52534"/>
<path d="M40.2055 48.3878C40.1235 48.7635 39.9594 50.0313 39.5329 53.6783C39.3853 54.9304 39.172 56.6365 39.0572 57.4661L38.8604 59H41.8623C43.634 59 44.8643 58.9374 44.8643 58.8591C44.8643 58.6087 45.5041 53.3339 45.6189 52.6922L45.7173 52.113H50.4909C55.8551 52.113 56.216 52.0504 57.0526 51.0017C57.3971 50.5635 57.9877 48.7948 57.9877 48.1844C57.9877 48.1061 54.5428 48.0435 49.1294 48.0435H40.2711L40.2055 48.3878Z" fill="#E52534"/>
<path d="M58.7422 49.0922C58.5782 50.6261 58.1681 53.9444 57.9056 55.9948C57.7744 56.9809 57.6595 58.0452 57.6595 58.3896V59H60.5795H63.4994L63.9588 55.4313C64.4837 51.3304 64.861 48.3252 64.8774 48.1531C64.8774 48.0904 63.5159 48.0435 61.859 48.0435H58.8406L58.7422 49.0922Z" fill="#E52534"/>
<path d="M71.0453 48.7791C70.9633 49.4835 70.8485 50.4383 70.2087 55.713C70.0775 56.8713 69.9298 58.0922 69.8806 58.4052L69.7986 59H72.8334H75.8681V58.4678C75.8681 58.1704 75.983 57.1374 76.1142 56.1513C76.2454 55.1809 76.5079 53.1774 76.6884 51.7217C76.8688 50.2504 77.0657 48.8261 77.1149 48.5444L77.1969 48.0435H74.1621H71.1437L71.0453 48.7791Z" fill="#E52534"/>
</svg>
