<svg width="100" height="100" viewBox="0 0 100 100" fill="none" xmlns="http://www.w3.org/2000/svg">
<g clip-path="url(#clip0_839_1418)">
<path d="M82.4032 41.2318H95.2467C95.2467 41.2318 98.0256 41.0969 97.8304 43.3585L97.1616 49.9241C97.1616 49.9241 96.9248 51.8881 95.0272 51.8881H87.3792L87.1738 53.9805H96.761L96.2909 58.5313H80.3549L81.3334 50.3385C81.3334 50.3385 81.4518 47.9735 83.5933 47.9735H91.1773L91.3409 45.9021H81.8433L82.4032 41.2318ZM18.9698 52.4023L19.5269 47.9068H3.29008L2.1272 58.9724H18.1848L18.7837 53.8826H9.14531L9.38211 52.4023H18.9757H18.9698ZM20.2946 47.9087C20.2075 48.3651 20.1518 49.333 20.4652 50.5159C20.9596 52.2968 22.8645 52.1964 22.8645 52.1964L31.6197 52.0927L31.3064 53.8876L19.6776 53.9325L19.1624 58.974H33.9144C35.0561 58.974 36.5678 58.0683 37.2955 55.9416C37.4174 55.5059 37.9257 50.848 37.9153 50.5365C37.8596 49.3334 37.1876 48.3647 36.2455 47.9084L20.2946 47.9087ZM56.8001 47.9087L55.6302 58.9744H61.8318L63.1861 47.9087H56.8001ZM68.5569 47.9087L67.387 58.9744H73.6161L74.9569 47.9087H68.5569ZM75.2769 46.1036L75.2909 43.0782C75.0989 41.8534 74.2029 41.1485 72.7949 41.0239H57.6013L57.0581 46.1036H75.3045H75.2769ZM37.7352 58.9744H43.9925L44.6856 52.0527H53.2488C55.2302 51.7588 56.0865 49.539 56.132 47.9068L38.9141 47.9077L37.7352 58.9744ZM56.3208 42.6765C55.7704 41.7186 55.1112 41.1485 53.8952 41.0239H24.0456C22.8936 41.1275 22.26 41.539 21.428 42.583C20.756 43.3928 20.5576 45.3568 20.5 46.1036H56.4289C56.523 45.3568 56.7144 43.3686 56.3208 42.6765ZM20.3688 41.0239H4.036L3.4998 46.1036H19.7628L20.3688 41.0239Z" fill="#E52534"/>
</g>
<defs>
<clipPath id="clip0_839_1418">
<rect width="96" height="18" fill="white" transform="translate(2 41)"/>
</clipPath>
</defs>
</svg>
