<svg width="100" height="100" viewBox="0 0 100 100" fill="none" xmlns="http://www.w3.org/2000/svg">
<g clip-path="url(#clip0_839_1439)">
<path d="M64.5346 35.418C64.5346 35.418 41.3611 35.418 40.039 35.418C37.5294 35.418 35.8688 36.7376 35.6353 38.7146C35.5488 39.4411 35.4734 40.0861 35.4734 40.0861H68.1032C68.1032 40.0861 68.1648 39.6042 68.2117 39.2211C68.459 37.2294 67.6113 35.4242 64.5346 35.4242" fill="#EE3330"/>
<path d="M67.8881 41.8601C67.8881 41.8601 67.8152 42.5186 67.7164 43.2366C67.52 44.6599 66.461 45.7189 64.4902 45.7189H57.5412L56.7616 52.0414H51.2285L52.4789 41.8601H67.8881Z" fill="#EE3330"/>
<path d="M34.9211 35.4167L34.3502 40.0824H19.5491L20.1224 35.4167H34.9211Z" fill="#EE3330"/>
<path d="M19.3327 41.8601H34.1289L33.6558 45.7189H24.3912L24.1577 47.6241H33.4248L32.8798 52.0414H18.0798L19.3327 41.8601Z" fill="#EE3330"/>
<path d="M69.8033 35.418H81.8737C83.7814 35.418 85.7572 36.3028 85.3668 39.3657C85.2964 39.9144 85.2766 40.0836 85.2766 40.0836H69.2312L69.8033 35.418Z" fill="#EE3330"/>
<path d="M69.0113 41.8589L74.5467 41.8614L73.2963 52.0391L67.7609 52.0416L69.0113 41.8589Z" fill="#EE3330"/>
<path d="M79.5275 41.8589L85.0617 41.8614L83.8101 52.0391L78.2759 52.0416L79.5275 41.8589Z" fill="#EE3330"/>
<path d="M47.4067 41.8641H35.2498C34.8444 44.5218 36.1739 45.7228 38.0581 45.7228H45.5471L45.3137 47.623H34.5429L34.0006 52.0403C34.0006 52.0403 45.7252 52.0403 46.2021 52.0403C46.5937 52.012 49.3367 51.9378 50.2696 49.6928C50.5735 48.9637 50.8417 46.3566 50.9158 45.8043C51.3471 42.6201 49.1427 41.8616 47.4067 41.8616" fill="#EE3330"/>
<path d="M22.9037 56.7195L22.7468 57.9909H19.04C18.9288 57.9909 18.8757 58.0578 18.8621 58.1689L18.6459 59.9309H21.5618L21.405 61.2024H18.484L18.2542 63.0755C18.2406 63.1868 18.2752 63.2645 18.3876 63.2645H22.1006L21.945 64.5249H17.4745C16.8567 64.5249 16.6096 64.1899 16.6776 63.6599L17.4189 57.5943C17.4844 57.0593 17.8044 56.7295 18.4284 56.7295L22.9037 56.7195Z" fill="#231F20"/>
<path d="M34.2554 61.7818L32.2352 64.5249H30.5746L33.54 60.6118L31.5631 56.7195H33.2929L34.6088 59.3959L36.5771 56.7195H38.2488L35.3131 60.5659L37.3358 64.5199H35.5973L34.2554 61.7818Z" fill="#231F20"/>
<path d="M48.0112 64.5248L48.8143 57.9762H46.5396L46.6952 56.7158H52.7718L52.6162 57.9762H50.3304L49.5273 64.5248H48.0112Z" fill="#231F20"/>
<path d="M60.9269 64.5249L61.8856 56.7195H65.821C67.0702 56.7195 67.4927 57.5449 67.3408 58.783L67.2617 59.4293C67.1469 60.3657 66.7156 61.1591 65.8038 61.4061L66.77 64.5286H65.1575L64.2381 61.4841H62.8223L62.4515 64.5286L60.9269 64.5249ZM65.1477 60.2101C65.5183 60.2101 65.7035 60.0422 65.7531 59.6405L65.884 58.5705C65.9348 58.1578 65.7877 57.9909 65.4194 57.9909H63.251L62.9779 60.2151L65.1477 60.2101Z" fill="#231F20"/>
<path d="M80.3516 62.9076H77.5306L76.8523 64.5251H75.3833L78.4598 57.4451C78.6637 56.9657 78.8677 56.6753 79.3248 56.6753H80.1712C80.6396 56.6753 80.7729 56.9545 80.8581 57.4451L82.1789 64.5251H80.6321L80.3516 62.9076ZM78.0496 61.682H80.1341L79.5287 58.169L78.0496 61.682Z" fill="#231F20"/>
</g>
<defs>
<clipPath id="clip0_839_1439">
<rect width="100" height="100" fill="white"/>
</clipPath>
</defs>
</svg>
