<svg width="100" height="100" viewBox="0 0 100 100" fill="none" xmlns="http://www.w3.org/2000/svg">
<path fill-rule="evenodd" clip-rule="evenodd" d="M46.1557 27.4262C42.3053 28.4365 38.9168 31.1638 37.2134 34.6238C36.0368 37.0134 35.5814 39.161 35.7307 41.6149C36.22 49.6483 43.1484 55.5254 51.0936 54.647C56.9496 53.9998 61.7905 49.6429 63.0992 43.8421C63.4105 42.4616 63.3979 39.1146 63.0764 37.7614C62.6976 36.1677 61.2818 33.3532 60.2162 32.0755C56.7619 27.9333 51.2142 26.0988 46.1557 27.4262ZM52.7482 35.2159C53.2271 35.4653 53.9966 36.0605 54.4583 36.5383L55.298 37.4073L54.0517 38.2057C52.8113 39.0005 52.8035 39.0023 52.3416 38.5815C51.5862 37.8937 50.9867 37.6685 49.9117 37.6685C45.8277 37.6685 45.575 43.6893 49.6396 44.1479C50.6331 44.2602 51.584 43.9264 52.2926 43.217C52.6106 42.8983 52.7408 42.9269 53.8369 43.555C54.4954 43.9321 55.0339 44.3705 55.0339 44.5292C55.0339 44.9526 53.573 46.1652 52.4328 46.6882C51.0504 47.3222 48.7656 47.2962 47.3837 46.6313C45.2338 45.5964 43.9314 43.6964 43.7631 41.3494C43.5472 38.3347 44.987 36.1193 47.9591 34.893C48.955 34.4821 51.6942 34.6667 52.7482 35.2159ZM11.8229 61.4053C10.0046 61.8862 8.47119 63.1476 7.5508 64.9196C6.79064 66.3835 6.82155 68.9702 7.6172 70.4788C8.3027 71.7784 9.29056 72.7538 10.6256 73.4492C11.4141 73.8599 11.945 73.9593 13.3467 73.9593C15.2167 73.9593 16.1534 73.6195 17.5675 72.4278C18.8414 71.3544 18.8279 71.1494 17.4271 70.2911C16.196 69.5368 16.1699 69.5314 15.7383 69.9371C14.3927 71.2018 12.4444 71.2608 11.1886 70.0746C9.34564 68.3338 9.90575 65.4808 12.2679 64.5773C13.1058 64.2569 13.3846 64.2405 14.1424 64.4679C14.632 64.6148 15.2759 64.9787 15.5732 65.2765L16.1138 65.8178L17.4153 64.9612L18.7169 64.1047L18.0305 63.3218C16.6941 61.7977 13.7621 60.8923 11.8229 61.4053ZM47.0517 61.6037C45.5915 62.1263 44.4711 62.9963 43.7098 64.1987C41.6254 67.4901 42.8027 71.568 46.3869 73.4714C47.779 74.2107 50.3922 74.1684 51.8774 73.3827C52.4761 73.0659 53.3087 72.4492 53.7278 72.0121L54.4897 71.2172L53.9553 70.8135L53.4211 70.4097L52.3992 71.3297C50.3549 73.1704 47.8894 73.2314 45.8599 71.4915C44.7001 70.4974 44.1604 69.2953 44.1543 67.6922C44.1489 66.2595 44.4695 65.3458 45.3412 64.3105C47.1497 62.1624 50.233 62.0092 52.3992 63.9597L53.4637 64.9181L53.9766 64.4982L54.4897 64.0783L53.6422 63.2043C51.9941 61.5047 49.2149 60.8295 47.0517 61.6037ZM18.9962 61.7072C18.938 61.859 18.9165 64.6303 18.9485 67.866L19.0066 73.749L20.5848 73.8131L22.1631 73.8772V67.6543V61.4315H20.6325C19.5992 61.4315 19.0676 61.5211 18.9962 61.7072ZM23.4692 67.6334V73.858H24.993H26.5168V70.9973C26.5168 68.7308 26.5734 68.1843 26.7889 68.367C26.9387 68.4939 27.8937 69.7775 28.9114 71.2196L30.7617 73.8418L32.0134 73.8499L33.2652 73.858V67.6447V61.4315H31.6384H30.0118L29.9513 64.4533L29.891 67.4753L27.8171 64.5078L25.7432 61.5405L24.6062 61.4746L23.4692 61.4086V67.6334ZM34.3536 67.6447V73.858H38.272H42.1903V72.3319V70.8058H39.9046H37.6189V69.9338V69.0618H39.6869H41.755V67.5357V66.0097H39.6869H37.6189V65.2466V64.4836H39.9046H42.1903V62.9575V61.4315H38.272H34.3536V67.6447ZM58.7636 61.9083C58.6599 62.1856 57.6668 64.8651 56.5569 67.8627C55.4469 70.8604 54.4899 73.4429 54.4305 73.6014C54.3512 73.812 54.5141 73.8708 55.0317 73.8194C55.6922 73.7538 55.7793 73.6465 56.2854 72.2713L56.8294 70.7936L59.6585 70.8542L62.4875 70.9149L63.0302 72.3864C63.5351 73.7546 63.6189 73.858 64.2251 73.858C65.0404 73.858 65.1638 74.3297 62.4856 67.2087L60.354 61.5405L59.653 61.4722C59.0868 61.4169 58.9157 61.5008 58.7636 61.9083ZM65.7006 67.6447V73.858H66.3537H67.0067V69.1708C67.0067 66.5928 67.0801 64.4869 67.17 64.491C67.2599 64.4951 68.7537 66.58 70.4897 69.1237C73.4183 73.415 73.6934 73.749 74.2993 73.749H74.9523V67.6447V61.5405H74.2993H73.6462L73.5374 66.3007L73.4285 71.0611L70.0544 66.2488C67.3664 62.4149 66.5807 61.436 66.1904 61.4341L65.7006 61.4315V67.6447ZM80.098 61.9083C79.9951 62.1856 78.9665 64.9397 77.8125 68.0282C76.6586 71.1169 75.7142 73.6923 75.7142 73.7509C75.7142 73.9923 77.0413 73.8368 77.1286 73.5855C77.1806 73.4357 77.4305 72.7461 77.6839 72.0533L78.1447 70.7934L80.9827 70.8542L83.8209 70.9149L84.3636 72.3864C84.8621 73.7376 84.9579 73.858 85.535 73.858C85.8805 73.858 86.1615 73.7843 86.1595 73.6945C86.1576 73.6046 85.1473 70.8331 83.9145 67.5357L81.6734 61.5405L80.9795 61.4722C80.4202 61.4171 80.2491 61.5017 80.098 61.9083ZM87.034 67.6447V73.858H90.517H94V73.3195V72.781L91.2245 72.72L88.449 72.6589L88.3908 67.0452L88.3327 61.4315H87.6834H87.034V67.6447ZM60.7639 66.2822C61.3055 67.7511 61.8158 69.1243 61.8976 69.3343C62.0337 69.6831 61.8482 69.7158 59.7375 69.7158C58.1455 69.7158 57.4285 69.6382 57.4285 69.4657C57.4285 69.0592 59.4835 63.6159 59.6378 63.6137C59.7157 63.6124 60.2225 64.8132 60.7639 66.2822ZM82.0833 66.2822C82.6291 67.7511 83.1441 69.1243 83.2277 69.3343C83.3668 69.6833 83.1827 69.7158 81.0709 69.7158C79.3701 69.7158 78.7612 69.6441 78.7595 69.4433C78.7558 69.0374 80.8001 63.6116 80.9566 63.6116C81.0306 63.6116 81.5378 64.8132 82.0833 66.2822Z" fill="black"/>
</svg>
