<svg width="100" height="100" viewBox="0 0 100 100" fill="none" xmlns="http://www.w3.org/2000/svg">
<path d="M93 49.5C93 72.9715 73.972 92 50.5 92C27.028 92 8 72.9715 8 49.5C8 26.028 27.028 7 50.5 7C73.972 7 93 26.028 93 49.5Z" fill="#C51F40"/>
<path d="M73.376 69.6579L72.1458 67.572L71.6168 68.1678V69.6579H70.3671V62.8145H71.6168V66.6977L73.2783 64.6499H74.7888L72.9997 66.6686L74.9229 69.6579H73.376ZM67.4887 66.0142C67.2951 65.8229 67.1337 65.7161 66.8247 65.7161C66.4421 65.7161 66.019 66.0056 66.019 66.64V69.6579H64.7693V64.6499H65.9894V65.1312C66.2298 64.8417 66.7111 64.5918 67.2492 64.5918C67.74 64.5918 68.0849 64.7168 68.4312 65.063L67.4887 66.0142ZM61.1033 65.9387C60.9588 65.7951 60.767 65.7161 60.5175 65.7161C60.2671 65.7161 60.0844 65.7951 59.9399 65.9387C59.6795 66.1982 59.6504 66.6295 59.6504 67.1503C59.6504 67.6679 59.6795 68.111 59.9399 68.3709C60.0844 68.5145 60.2671 68.5918 60.5175 68.5918C60.767 68.5918 60.9588 68.5145 61.1033 68.3709C61.3632 68.111 61.3918 67.6679 61.3918 67.1503C61.3918 66.6295 61.3632 66.1982 61.1033 65.9387ZM62.0735 69.1012C61.7654 69.4271 61.256 69.7165 60.5175 69.7165C59.7754 69.7165 59.2769 69.4271 58.9697 69.1012C58.517 68.6281 58.4007 68.0619 58.4007 67.1503C58.4007 66.246 58.517 65.6788 58.9697 65.2076C59.2769 64.8808 59.7754 64.5918 60.5175 64.5918C61.256 64.5918 61.7654 64.8808 62.0735 65.2076C62.5261 65.6788 62.6407 66.246 62.6407 67.1503C62.6407 68.0619 62.5261 68.6281 62.0735 69.1012V69.1012ZM55.1033 69.6579H54.0735L53.0274 66.515L51.979 69.6579H50.9492L49.4086 64.6499H50.7365L51.545 67.7461L52.5647 64.6499H53.4782L54.5052 67.7461L55.3118 64.6499H56.6306L55.1033 69.6579ZM46.7415 69.6579C45.724 69.6579 45.2918 68.9372 45.2918 68.2264V65.7465H44.7638V64.7949H45.2918V63.3134H46.5406V64.7949H47.425V65.7465H46.5406V68.1483C46.5406 68.4373 46.6765 68.5991 46.9737 68.5991H47.425V69.6579H46.7415ZM41.5481 66.1492C41.4141 65.851 41.1364 65.6311 40.7119 65.6311C40.2893 65.6311 40.0107 65.851 39.8758 66.1492C39.7994 66.3323 39.7703 66.4673 39.7603 66.6881H41.6645C41.6545 66.4673 41.6254 66.3323 41.5481 66.1492V66.1492ZM39.7603 67.5448C39.7603 68.1873 40.1552 68.6577 40.8583 68.6577C41.405 68.6577 41.674 68.5059 41.9917 68.1873L42.7497 68.9276C42.2402 69.4371 41.7513 69.7165 40.8478 69.7165C39.6644 69.7165 38.5302 69.1776 38.5302 67.1503C38.5302 65.5166 39.4159 64.5918 40.7119 64.5918C42.1053 64.5918 42.8946 65.6116 42.8946 66.9862V67.5448H39.7603ZM35.0564 69.6579V66.6295C35.0564 65.9478 34.6251 65.7161 34.2307 65.7161C33.8376 65.7161 33.394 65.9478 33.394 66.6295V69.6579H32.1448V64.6499H33.3654V65.1117C33.694 64.7654 34.1543 64.5918 34.6151 64.5918C35.115 64.5918 35.5195 64.7558 35.7985 65.0344C36.2011 65.4393 36.3061 65.9088 36.3061 66.4564V69.6579H35.0564Z" fill="white"/>
<path d="M14.872 72.6819C13.9863 71.3231 13.1764 69.9153 12.4475 68.4547C13.0069 68.202 14.3957 67.4663 15.2214 65.2163C15.3314 64.9164 15.5754 64.1502 15.6591 63.6985C15.7427 63.2472 19.0956 45.0045 19.0956 45.0045H16.2803L17.6632 40.3319H19.8699C19.8699 40.3319 20.303 37.7407 20.6838 36.0097C20.9301 34.889 21.4673 33.5498 21.63 33.179C22.6734 30.7972 25.7341 26.8209 31.71 26.7654C33.5164 26.7486 34.7411 27.1903 34.7411 27.1903L33.201 32.1351C33.201 32.1351 32.6003 31.7029 31.3224 31.7029C30.6052 31.7029 29.3892 31.8688 28.338 32.6954C27.2392 33.5593 26.657 34.8591 26.2789 36.5741C26.0595 37.5712 25.6904 40.3315 25.6904 40.3315H29.0597L27.6709 45.004H24.9165C24.9165 45.004 22.6757 57.4494 22.3716 59.1427C22.2644 59.7416 22.0108 61.0273 21.7159 62.5733C21.5823 63.2727 21.4396 64.023 21.2342 64.7769C20.8079 66.3397 20.1762 67.9262 19.2396 69.1618C17.6432 71.2672 15.8917 72.2338 14.872 72.6819ZM53.4619 45.3726C54.0863 43.4803 55.5092 42.0533 57.4469 42.0533C58.7453 42.0533 60.3022 42.7218 60.1841 45.3481C60.0664 47.9738 59.1947 51.7966 58.3522 53.1018C57.5101 54.4069 56.4058 55.2149 54.9343 55.2149C53.4624 55.2149 52.558 54.5255 52.2908 53.1736C51.9377 51.389 52.8234 47.3063 53.4619 45.3726V45.3726ZM49.4524 57.4599C50.5262 58.2829 51.8864 58.9591 54.4008 58.9591C57.2829 58.9591 59.6292 57.7457 61.1411 56.3683C62.4072 55.2145 62.9871 54.2011 63.5165 53.0691C64.4067 51.1613 65.3347 46.6387 65.0739 43.9879C64.689 40.0783 61.5783 38.3101 58.1277 38.3101C56.0754 38.3101 54.2272 38.8182 52.7198 39.7852C49.4828 41.862 48.7757 44.2247 48.2631 46.0384C47.75 47.852 47.1079 51.2045 47.2965 53.194C47.4996 55.339 48.3781 56.6364 49.4524 57.4599V57.4599ZM34.6021 45.3726C35.2265 43.4803 36.6493 42.0533 38.5871 42.0533C39.8854 42.0533 41.4424 42.7218 41.3242 45.3481C41.2065 47.9738 40.3349 51.7966 39.4923 53.1018C38.6503 54.4069 37.546 55.2149 36.0745 55.2149C34.6025 55.2149 33.6986 54.5255 33.431 53.1736C33.0783 51.389 33.9636 47.3063 34.6021 45.3726V45.3726ZM29.4032 46.0384C28.8902 47.852 28.2485 51.2045 28.4366 53.194C28.6398 55.339 29.5187 56.6364 30.5925 57.4599C31.6668 58.2829 33.0265 58.9591 35.541 58.9591C38.423 58.9591 40.7693 57.7457 42.2813 56.3683C43.5478 55.2145 44.1277 54.2011 44.6566 53.0691C45.5469 51.1613 46.4749 46.6387 46.214 43.9879C45.8296 40.0783 42.7184 38.3101 39.2678 38.3101C37.2156 38.3101 35.3674 38.8182 33.86 39.7852C30.623 41.862 29.9163 44.2247 29.4032 46.0384V46.0384ZM78.894 45.3276C78.8603 46.1942 78.7785 46.8023 78.6181 47.7689C78.2482 49.9911 77.9705 50.8405 77.9169 51.0122C77.9169 51.0122 77.4088 53.1509 76.1968 54.2247C75.6256 54.7305 74.8394 55.2922 73.5924 55.2922C72.5813 55.2922 71.8678 55.0018 71.3452 54.2865C71.0898 53.937 70.774 53.0495 70.8285 51.9025C70.8498 51.4521 70.9294 50.4074 71.277 48.6141C71.6242 46.8209 72.0587 45.0736 72.7262 44.0465C73.3938 43.0199 74.1423 42.5173 74.7422 42.2528C74.9567 42.1583 75.5006 42.0006 76.1291 42.0006C77.3488 42.0006 79.0035 42.5278 78.894 45.3276ZM83.3443 30.2642C82.7963 30.8559 82.2814 31.5852 81.7192 32.8986C81.1571 34.2119 80.5045 37.0013 80.4445 37.2621C80.385 37.5221 79.9478 39.3162 79.8147 40.4519C78.6127 38.3946 75.9305 38.3274 75.5579 38.3056C74.0305 38.2165 72.5731 38.6 71.5361 39.1417C69.766 40.0661 68.6517 41.6375 67.8987 43.6107C67.1225 45.6448 66.6185 48.3383 66.2095 50.6023C65.9087 52.2688 65.8701 53.8452 66.1332 55.1618C66.6999 58.0002 69.3106 58.975 71.4438 59.0486C73.5765 59.1222 74.764 58.5206 75.5256 58.0179C76.2873 57.5158 77.3393 56.6932 77.9941 55.4681C78.4141 56.8455 79.0185 57.6044 80.3727 58.352C80.869 58.6255 81.1389 58.7573 81.7301 58.8905C82.809 59.1341 83.547 59.0663 83.547 59.0663L84.8917 54.7573C84.3677 54.7237 83.8406 54.3415 83.5379 53.9157C82.9349 53.0672 83.1825 51.3054 83.3425 50.3797C83.5475 49.1963 83.9319 47.0054 84.0492 46.3419C84.1664 45.6789 85.1248 40.0079 85.228 39.4276C85.3307 38.8477 85.6897 37.0767 86.0837 36.032C86.5654 34.7527 87.0639 34.1069 87.6193 33.5884C88.3664 32.8899 89.1239 32.6718 89.5111 32.6055C88.8313 31.0381 88.0601 29.5198 87.2039 28.0574C85.402 28.4155 84.2591 29.2762 83.3443 30.2642" fill="white"/>
</svg>
