<svg width="100" height="100" viewBox="0 0 100 100" fill="none" xmlns="http://www.w3.org/2000/svg">
<path d="M77.685 35.0263H80.759C82.6115 35.0263 83.7983 35.9799 83.7983 37.6402C83.7983 39.444 82.6115 40.6217 80.759 40.6217H77.685V35.0263ZM82.9878 44.2582C86.1776 43.8561 88.8059 41.133 88.8059 37.6746C88.8059 33.1879 85.7319 30.7234 80.7648 30.7234H72.7584V53.3121H77.6908V44.2582L83.8099 53.3063H89.518L82.9878 44.2582Z" fill="#241C32"/>
<path d="M33.1261 53.3063H38.1337V35.1699H43.1355V30.7234H28.1243V35.1699H33.1261V53.3063Z" fill="#241C32"/>
<path d="M18.8559 39.0362C17.3738 38.3755 16.8181 37.6402 16.8181 36.6808C16.8181 35.5778 17.7443 34.6586 19.2264 34.6931C20.5231 34.7276 21.5246 35.4284 22.2309 37.0829L26.4917 35.2044C25.305 32.1883 22.8967 30.4247 19.0064 30.4247C14.8903 30.4247 11.851 33.1133 11.851 36.7153C11.851 39.1798 13.0725 41.1273 15.9671 42.5635L19.1569 44.1433C20.9342 45.028 21.7909 45.6887 21.7909 46.9755C21.7909 48.3715 20.6447 49.3654 19.1569 49.3654C17.5649 49.3654 16.1176 48.4807 15.4518 46.4987L11 47.7913C12.0363 51.5082 15.1161 53.6797 19.1164 53.6797C23.4524 53.6797 26.787 50.9222 26.787 46.9468C26.787 43.8963 25.1197 41.8684 21.9299 40.4379L18.8559 39.0362Z" fill="#241C32"/>
<path d="M23.7766 65.0947C23.3772 64.6236 22.7983 64.3536 22.0515 64.3536C20.5347 64.3536 19.4174 65.5773 19.4174 67.2605C19.4174 68.9437 20.5347 70.1674 21.9878 70.1674C22.7983 70.1674 23.4524 69.8112 23.8635 69.1965L25.5365 70.4316C24.7781 71.5059 23.493 72 22.2483 72C19.4058 72 17.3391 70.1501 17.3391 67.2547C17.3391 64.3594 19.4058 62.5095 22.2483 62.5095C23.2614 62.5095 24.5466 62.8542 25.3223 63.8366L23.7766 65.0947Z" fill="#241C32"/>
<path d="M27.4065 62.7451H29.4095V66.1116H33.3056V62.7451H35.3087V71.776H33.3056V67.8752H29.4095V71.776H27.4065V62.7451Z" fill="#241C32"/>
<path d="M40.9298 62.7451H42.5855L46.5452 71.776H44.2817L43.5001 69.8629H39.963L39.2046 71.776H36.9932L40.9298 62.7451ZM41.6997 65.3762L40.594 68.1855H42.817L41.6997 65.3762Z" fill="#241C32"/>
<path d="M48.23 62.7451H50.9567L54.8238 69.0185H54.847V62.7451H56.85V71.776H54.2275L50.2562 65.3475H50.233V71.776H48.23V62.7451Z" fill="#241C32"/>
<path d="M59.4783 62.7451H62.1992L66.0663 69.0185H66.0895V62.7451H68.1041V71.776H65.4816L61.5045 65.3475H61.4813V71.776H59.4783V62.7451Z" fill="#241C32"/>
<path d="M70.8018 62.7451H76.9846V64.5835H72.8048V66.2667H76.753V68.105H72.8048V69.9434H77.2161V71.7817H70.8018V62.7451Z" fill="#241C32"/>
<path d="M79.6708 62.7451H81.6738V69.9376H85.3904V71.776H79.6708V62.7451Z" fill="#241C32"/>
<path d="M71.4211 37.8954H59.8729L56.2965 27L52.721 37.8954H41.1729L50.4418 44.646C50.4418 44.646 54.9707 41.6855 60.4575 40.5698C52.3645 46.4955 47.9644 52.3796 47.9644 52.3796V52.3792V52.3796L46.9495 55.5468L56.2965 48.8183L65.6436 55.5468L62.0821 44.646L71.4211 37.8954Z" fill="url(#paint0_linear_837_417)"/>
<defs>
<linearGradient id="paint0_linear_837_417" x1="45.7383" y1="54.3158" x2="66.7622" y2="33.1492" gradientUnits="userSpaceOnUse">
<stop offset="0.28" stop-color="#FA1660"/>
<stop offset="0.78" stop-color="#FF7D17"/>
</linearGradient>
</defs>
</svg>
