<svg width="100" height="100" viewBox="0 0 100 100" fill="none" xmlns="http://www.w3.org/2000/svg">
<g clip-path="url(#clip0_839_1441)">
<path d="M67.9048 38.1651C67.9048 38.2051 68.1748 38.4707 68.5042 38.7564C69.1819 39.3506 70.2539 40.456 70.7453 41.0845C72.5679 43.404 73.7775 46.012 74.1475 48.4201C74.2447 49.0628 74.2582 51.2623 74.1691 51.9393C73.8909 53.996 73.0755 56.0442 71.7605 58.0009C71.018 59.1035 69.7949 60.5146 68.7742 61.4573C68.5177 61.6887 68.3098 61.9086 68.3098 61.9457C68.3098 62 69.695 62.0086 76.5586 62.0086C85.01 62.0028 87.5616 61.9714 88.4715 61.8429C89.3923 61.7172 90.4048 61.3858 91.3741 60.8946C93.6774 59.7234 95.5539 57.7666 96.6394 55.4157C97.1929 54.2103 97.498 53.1962 97.6789 51.9393C97.7815 51.2337 97.795 48.9742 97.7059 48.2487C97.4791 46.469 96.9796 44.9779 96.1749 43.6782C95.1975 42.1042 93.5694 40.4217 92.1842 39.5619C91.3417 39.0363 89.9053 38.4622 89.1007 38.3279C88.2636 38.1851 86.8056 38.1622 77.4146 38.128C68.9983 38.0994 67.9048 38.1051 67.9048 38.1651L67.9048 38.1651ZM88.9063 42.6498C89.1007 42.7355 89.4463 43.1326 90.1996 44.1181C90.6316 44.6894 90.6451 44.7351 90.5857 45.2207C90.4696 46.1348 89.8432 49.8826 89.7811 50.0454C89.7541 50.1026 89.2843 50.5539 88.7308 51.0538L87.729 51.9621H84.9884H82.2478L81.94 52.2821C81.5943 52.6477 81.5593 52.7534 81.4053 53.6904C81.2919 54.3874 81.2919 54.5959 81.3918 54.6816C81.4512 54.733 81.9994 54.753 84.3701 54.773L87.2835 54.7959L87.5832 55.1386C88.2906 55.9299 88.3257 56.0042 88.2231 56.624C88.1826 56.8754 88.1367 57.1582 88.1205 57.2467L88.0827 57.4153L87.2997 57.4524C86.8677 57.4724 84.4889 57.481 82.0129 57.4753C78.4487 57.4667 77.4902 57.4467 77.4146 57.401C77.2823 57.3239 77.2823 57.2011 77.4038 56.3527C77.5253 55.5043 77.9978 52.6163 78.2273 51.3451L78.2921 50.9881L78.6864 50.5882C78.9078 50.3682 79.3668 49.934 79.7043 49.6255L80.3199 49.0599H83.0605H85.8011L86.117 48.7343C86.3412 48.5058 86.4465 48.3601 86.4816 48.2173C86.5815 47.8688 86.7597 46.5205 86.7597 46.1605C86.7597 45.8206 86.7572 45.8035 86.5815 45.5835L86.3951 45.355L83.4385 45.335C80.6979 45.3207 80.4684 45.3179 80.3577 45.235C80.2443 45.1608 79.4883 44.2752 79.4127 44.1267C79.3722 44.0496 79.4883 43.0612 79.5693 42.8127C79.5963 42.727 79.6422 42.627 79.6638 42.5927C79.7043 42.5413 80.5413 42.5327 84.2135 42.547C88.4662 42.5613 88.7281 42.5642 88.9063 42.6499L88.9063 42.6498Z" fill="#003380"/>
<path d="M36.0787 29.4353C35.9465 29.4458 35.4228 29.4773 34.915 29.5087C30.4454 29.7813 25.8118 30.6514 21.8024 31.967C14.778 34.2733 9.351 37.8218 6.19848 42.1827C4.70685 44.2479 3.77061 46.5175 3.46911 48.8133C3.36332 49.631 3.36332 51.3711 3.46911 52.1888C3.72301 54.123 4.38948 55.947 5.4844 57.7344C7.72185 61.3772 11.8952 64.7947 16.9308 67.1167C24.5424 70.6233 34.0211 72.1538 43.5368 71.4095C55.8031 70.4556 66.2181 65.8378 71.3383 59.0919C71.9624 58.269 72.4649 57.4513 72.9463 56.4764C73.5969 55.1608 73.9724 54.0443 74.221 52.671C74.3797 51.7643 74.422 49.7463 74.3004 48.7976C73.7979 44.987 71.6821 41.4961 67.9636 38.3355C62.6212 33.8015 54.4913 30.7038 45.3617 29.7184C43.1296 29.4825 42.3943 29.4458 39.3053 29.4301C37.6602 29.4249 36.2109 29.4249 36.0787 29.4353ZM38.0252 30.4103C38.1151 30.4994 38.1098 31.338 38.0252 31.3695C37.9882 31.3799 37.4698 31.4166 36.8721 31.4481C30.0064 31.815 23.8124 33.9902 19.1524 37.6698C18.3219 38.325 16.5447 40.0599 15.9681 40.778C13.5244 43.8338 12.329 47.0312 12.329 50.5273C12.329 54.3693 13.7994 57.8707 16.7615 61.0994C19.3904 63.9613 23.2253 66.3357 27.5679 67.7981C30.5247 68.794 33.9153 69.4125 37.089 69.5331C37.7026 69.5593 37.9988 69.5907 38.0358 69.6379C38.0675 69.6746 38.0887 69.8895 38.0781 70.1411L38.0622 70.5761L37.1366 70.5656C36.6288 70.5552 35.8195 70.529 35.3382 70.4975C25.5103 69.8738 16.7986 66.8966 10.8479 62.1111C10.0651 61.4821 8.46237 59.8886 7.86466 59.1496C5.96045 56.7804 4.81793 54.1754 4.54816 51.5808C4.46353 50.7789 4.51643 49.3636 4.65395 48.5617C4.89198 47.1936 5.22522 46.1925 5.90227 44.8402C7.78003 41.0611 11.4086 37.7903 16.587 35.1958C21.1624 32.9 26.4836 31.3957 32.429 30.7195C33.9788 30.5413 35.4651 30.4417 37.7502 30.3578C37.8665 30.3526 37.9882 30.3736 38.0252 30.4103ZM41.5533 30.426C45.5045 30.5832 50.0958 31.3118 53.7878 32.3706C57.903 33.5499 61.6427 35.2167 64.6947 37.2295C68.482 39.7349 71.0738 42.6964 72.3909 46.0353C74.1205 50.4172 73.2689 54.9668 69.9524 59.0972C69.3547 59.8362 67.6462 61.5345 66.8634 62.1635C60.5795 67.2111 51.3388 70.1935 40.7599 70.5814C39.94 70.6128 39.7972 70.6023 39.739 70.5342C39.6914 70.4818 39.6755 70.3141 39.6861 70.0153L39.702 69.5802L40.5218 69.5435C46.6841 69.2762 52.3703 67.5308 56.9086 64.5222C60.114 62.3941 62.4097 59.8991 63.8748 56.9534C65.0174 54.6471 65.504 52.4614 65.4194 49.9769C65.2871 46.0458 63.7109 42.6283 60.5689 39.4467C57.7391 36.5795 54.3168 34.5301 49.9635 33.0992C47.0755 32.1504 44.2139 31.6263 40.9186 31.4428C40.3103 31.4114 39.776 31.359 39.7443 31.3275C39.6702 31.2751 39.6438 30.447 39.7126 30.3788C39.7337 30.3578 39.9929 30.3526 40.2838 30.3683C40.5747 30.3841 41.146 30.4103 41.5533 30.426ZM41.9764 32.3077C45.3458 32.6379 48.2762 33.3036 50.995 34.3571C54.3485 35.657 57.8237 37.7746 59.0244 39.2475C61.447 42.2352 62.8434 45.6055 63.1608 49.2431C63.2454 50.1866 63.1978 51.7852 63.0603 52.7392C62.7799 54.6471 62.2668 56.2772 61.3888 58.0489C60.8228 59.1968 60.278 60.0826 59.5005 61.1047C58.834 61.9905 58.4002 62.4203 57.5751 63.0388C51.2277 67.7929 41.9606 69.7899 33.0901 68.317C28.6787 67.5832 24.6852 66.0632 21.2946 63.825C19.9247 62.9182 19.237 62.3522 18.6975 61.6917C16.4442 58.9294 15.0742 55.7845 14.6246 52.3304C14.5135 51.5074 14.4977 49.6519 14.5929 48.8238C15.0002 45.2438 16.4177 41.9783 18.798 39.1269C19.4327 38.3669 21.0566 37.1823 22.855 36.1602C26.8644 33.8854 31.625 32.5488 36.8986 32.2133C37.6497 32.1662 41.2201 32.2291 41.9764 32.3077Z" fill="#8BA0B2"/>
<path d="M22.617 33.5131C18.0733 35.0175 14.4923 36.9149 11.5091 39.3994C10.6998 40.0703 9.30867 41.475 8.71096 42.2193C7.30925 43.97 6.40475 45.7364 5.92341 47.6705C5.79117 48.1999 5.61133 49.2954 5.61133 49.5627C5.61133 49.6256 5.99217 49.6361 8.45177 49.6256L11.2975 49.6099L11.3557 49.0333C11.6889 45.9251 12.9743 43.0265 15.217 40.3271C17.1424 38.0051 19.8876 35.8928 23.0666 34.2941C23.4897 34.0792 23.8547 33.88 23.8759 33.8434C23.9393 33.7542 23.7912 33.2091 23.696 33.1934C23.6537 33.1882 23.1724 33.3297 22.617 33.5131Z" fill="#003380"/>
<path d="M5.61133 51.172C5.61133 52.5663 6.15085 54.5423 6.96543 56.12C9.12882 60.3238 13.8788 64.0977 20.1151 66.5664C21.2417 67.0172 23.4633 67.772 23.6431 67.772C23.7225 67.772 23.7648 67.7196 23.8071 67.5518C23.9446 67.0644 23.9922 67.1168 22.9079 66.5664C18.798 64.4646 15.7407 61.8019 13.7148 58.5469C12.403 56.445 11.5302 53.9605 11.3557 51.8377C11.3345 51.6228 11.3081 51.3083 11.2922 51.1406L11.2605 50.8418H8.4359H5.61133V51.172Z" fill="#003380"/>
<path d="M53.9095 33.4084C53.7931 33.8749 53.772 33.8487 54.6077 34.2681C57.702 35.8143 60.3838 37.8166 62.2298 39.9604C63.3089 41.2131 64.0124 42.2457 64.7317 43.6452C65.6838 45.4849 66.1863 47.1098 66.4032 49.0597L66.4667 49.61L69.3177 49.6257L72.1634 49.6362L72.1317 49.285C71.8355 46.3812 70.529 43.7133 68.154 41.1869C65.3506 38.1992 61.4205 35.7567 56.6018 34.0007C55.5651 33.6233 54.1898 33.1778 54.0576 33.1778C53.9994 33.1778 53.9518 33.2512 53.9095 33.4084Z" fill="#003380"/>
<path d="M66.4932 50.889C66.4932 51.1616 66.3556 52.409 66.2763 52.886C65.3295 58.4473 61.045 63.5263 54.6077 66.7184C53.9095 67.0644 53.8513 67.1011 53.8513 67.2373C53.8513 67.4889 53.9571 67.772 54.047 67.772C54.1793 67.772 55.2583 67.4313 56.2845 67.0644C62.4732 64.8472 67.2178 61.5555 69.8731 57.6296C71.095 55.8213 71.7879 54.0758 72.0735 52.0736C72.1159 51.7853 72.1529 51.3922 72.1529 51.193V50.8418H69.323C67.5828 50.8418 66.4932 50.8628 66.4932 50.889Z" fill="#003380"/>
<path d="M19.9035 56.361L19.4697 56.7909V57.8654V58.9451L19.8294 59.2963L20.1891 59.6475H21.8077C23.2094 59.6475 23.4421 59.658 23.5109 59.7314C23.6167 59.8309 23.6325 60.5333 23.532 60.6329C23.4844 60.6801 23.0031 60.6958 21.6966 60.6958L19.9193 60.701L19.6972 60.9107L19.4697 61.1204V61.5869V62.0586H21.9981H24.5212L24.9602 61.6235L25.3939 61.1937V60.1192V59.0395L25.0078 58.6621L24.627 58.2847H23.0084C21.8235 58.2847 21.3792 58.269 21.3316 58.2218C21.247 58.1379 21.247 57.4356 21.3316 57.3517C21.3792 57.3045 21.85 57.2888 23.1195 57.2888H24.8438L25.0131 57.1158C25.1824 56.9481 25.1824 56.9376 25.1824 56.4344V55.926H22.7598H20.3425L19.9035 56.361Z" fill="#003380"/>
<path d="M26.3461 58.9923V62.0586H27.2188H28.0916L28.1022 61.0994L28.118 60.1454L29.7578 60.1297L31.3975 60.1192L31.8577 59.6632L32.3232 59.202V58.0226V56.8433L31.863 56.3873L31.3975 55.926H28.8744H26.3461V58.9923ZM30.3925 57.4198C30.5142 57.5352 30.5248 57.5823 30.5248 58.0803C30.5248 58.5625 30.5142 58.6306 30.4084 58.7407C30.2973 58.8613 30.2709 58.8613 29.2553 58.8613C28.52 58.8613 28.2027 58.8455 28.1551 58.7984C28.0863 58.7302 28.0599 57.3884 28.1286 57.3255C28.1445 57.3045 28.6364 57.2888 29.213 57.2888C30.2603 57.2888 30.2656 57.2888 30.3925 57.4198Z" fill="#003380"/>
<path d="M33.5715 56.4187L33.1166 56.9114V59.029V61.1413L33.5821 61.6026L34.0422 62.0586H36.158H38.2738L38.734 61.6026L39.1995 61.1413V58.9923V56.8433L38.734 56.382L38.2738 55.926H36.1527H34.0264L33.5715 56.4187ZM37.2741 57.5194L37.4539 57.6976V58.9451V60.1926L37.2847 60.3656L37.1154 60.5385H36.195H35.2747L35.0948 60.3603L34.915 60.1821V58.9346V57.6872L35.0843 57.5142L35.2535 57.3412H36.1739H37.0943L37.2741 57.5194Z" fill="#003380"/>
<path d="M40.2045 58.9923V62.0586H41.1037H42.0029L42.0135 60.9684L42.0293 59.8834L42.8016 59.8676C43.3781 59.8571 43.5897 59.8729 43.6268 59.92C43.6585 59.9567 43.8489 60.4494 44.0499 61.0103L44.4202 62.0324L45.4093 62.0481C46.372 62.0586 46.3931 62.0586 46.3931 61.9538C46.3931 61.8909 46.1816 61.3405 45.9171 60.7325C45.6579 60.1192 45.441 59.5951 45.441 59.5636C45.441 59.5374 45.6103 59.3487 45.8113 59.1495L46.1816 58.7879V57.7867V56.7909L45.7425 56.3558L45.3088 55.926H42.754H40.2045V58.9923ZM44.2509 57.4198C44.3673 57.5299 44.3831 57.5928 44.3831 57.8968C44.3831 58.1903 44.362 58.2742 44.2668 58.3738C44.1557 58.4891 44.1293 58.4944 43.1401 58.4944C42.426 58.4944 42.1087 58.4734 42.0664 58.4315C41.9976 58.3633 41.9764 57.3884 42.0399 57.3255C42.0558 57.3045 42.5371 57.2888 43.0978 57.2888C44.1187 57.2888 44.124 57.2888 44.2509 57.4198Z" fill="#003380"/>
<path d="M46.6576 56.686V57.446H47.5727C48.2127 57.446 48.5089 57.467 48.5512 57.5089C48.5988 57.5561 48.6147 58.1379 48.6147 59.8152V62.0586H49.4875H50.3602L50.3708 59.7628L50.3867 57.4723L51.3546 57.4565L52.3173 57.446V56.686V55.926H49.4875H46.6576V56.686Z" fill="#003380"/>
<path d="M53.2007 56.3348L52.7935 56.7384V57.8392V58.9451L53.1531 59.2963L53.5128 59.6475H55.1314C56.5331 59.6475 56.7658 59.658 56.8346 59.7314C56.9404 59.8309 56.9563 60.5333 56.8558 60.6329C56.8082 60.6801 56.3215 60.6958 54.9886 60.6958H53.1849L52.9892 60.895L52.7935 61.0942V61.5764V62.0586H55.3218H57.8449L58.2575 61.6498L58.6648 61.2462V60.1192V58.9871L58.3051 58.6359L57.9454 58.2847H56.3321C55.1473 58.2847 54.703 58.269 54.6553 58.2218C54.6183 58.1851 54.5919 58.0069 54.5919 57.7867C54.5919 57.5666 54.6183 57.3884 54.6553 57.3517C54.703 57.3045 55.1737 57.2888 56.4432 57.2888H58.1676L58.3368 57.1158C58.5061 56.9481 58.5061 56.9376 58.5061 56.4344V55.926H56.0571H53.6133L53.2007 56.3348Z" fill="#003380"/>
<path d="M58.3992 54.8559C56.6424 54.8559 54.8539 54.8559 53.1181 54.8559C53.0696 54.8559 52.9809 54.6456 52.9556 54.6019C52.2292 53.3088 51.5028 52.0095 50.7806 50.7184C50.0078 52.0927 49.2561 53.49 48.4854 54.8664C46.756 54.8705 45.0414 54.858 43.3268 54.8622C43.521 54.504 43.728 54.1542 43.9349 53.8023C45.3771 51.3452 46.7982 48.8548 48.2425 46.3956C46.7074 43.7511 45.1491 41.1274 43.6055 38.4891C43.6015 38.4891 43.5907 38.4725 43.6015 38.4745C45.371 38.4745 47.1384 38.4745 48.9079 38.4745C49.5603 39.6448 50.1959 40.8296 50.8378 42.0082C51.5051 40.84 52.1491 39.649 52.81 38.4745C54.5204 38.4745 56.2287 38.4745 57.939 38.4745C57.9431 38.4954 57.9285 38.5183 57.9179 38.5349C56.4208 41.1295 54.8878 43.7323 53.3928 46.331C55.0546 49.1754 56.7481 52.0178 58.3994 54.8559L58.3992 54.8559Z" fill="#003380"/>
<path d="M45.5777 44.8319C45.7128 45.3733 45.791 45.9688 45.791 46.5956C45.791 48.5509 45.2166 50.0002 44.4184 51.1787C44.2833 51.3786 44.146 51.5702 43.9982 51.7534C43.5654 52.2948 43.0417 52.7883 42.4568 53.1986C42.064 53.4734 41.6544 53.7233 41.2004 53.9336C40.2967 54.3521 39.205 54.6791 37.9465 54.6791C35.9785 54.6791 34.5257 54.0877 33.3496 53.2756C32.1734 52.4614 31.257 51.3849 30.6341 50.0272C30.216 49.1173 29.9415 48.0678 29.9098 46.7893C29.8951 46.1562 29.9753 45.5316 30.0914 44.9902C30.3871 43.6242 30.9677 42.5539 31.7026 41.6314C32.4374 40.7111 33.3686 39.9906 34.4941 39.4471C34.9354 39.2347 35.4295 39.0536 35.9679 38.9224C36.5064 38.7912 37.1018 38.7016 37.7459 38.7016C37.7499 38.7016 37.7522 38.7016 37.7564 38.7016C38.3857 38.6725 39.0529 38.7724 39.5766 38.887C40.1214 39.0057 40.6261 39.1868 41.0758 39.3867C42.4695 40.0072 43.5084 40.9359 44.3445 42.0958C44.8957 42.8558 45.3095 43.7679 45.5777 44.8319H45.5777ZM39.243 50.2584C39.2936 50.0585 39.2789 49.8023 39.2789 49.5379C39.2789 47.5201 39.2789 45.5441 39.2789 43.5201C39.2789 43.2619 39.2493 43.062 39.1733 42.8746C39.1036 42.7038 38.9959 42.5476 38.8692 42.4206C38.6222 42.1728 38.2505 41.95 37.7839 41.9854C37.5579 42.0021 37.37 42.0729 37.2053 42.1749C36.8991 42.3665 36.6669 42.6601 36.5718 43.0495C36.5233 43.2473 36.5254 43.4992 36.5254 43.7595C36.5254 45.7502 36.5254 47.7679 36.5254 49.7773C36.5254 49.9065 36.5191 50.0314 36.5359 50.1418C36.5803 50.4583 36.7239 50.7123 36.9118 50.9018C37.1546 51.1454 37.5305 51.3495 38.0162 51.2974C38.6433 51.2308 39.1036 50.8206 39.243 50.2584H39.243Z" fill="#003380"/>
<path d="M30.1252 42.9433C28.2544 42.9433 26.3857 42.9433 24.5148 42.9433C24.4916 43.6305 24.5108 44.3905 24.5042 45.0818C26.0203 45.0943 27.5597 45.0841 29.0863 45.086C29.0863 46.5811 29.0863 48.0741 29.0863 49.5692C27.5491 49.5733 25.9992 49.5627 24.4704 49.5733C24.4725 51.3516 24.481 53.0966 24.481 54.8749C24.481 54.8813 24.479 54.8832 24.477 54.8853C22.9186 54.8853 21.3582 54.8853 19.7998 54.8853C19.7914 54.8875 19.7914 54.8811 19.7851 54.8811C19.7745 49.4213 19.7745 43.9261 19.7829 38.4643C19.7829 38.458 19.7829 38.4497 19.787 38.4497C23.1275 38.4497 26.468 38.4497 29.8064 38.4497C29.8127 38.4497 29.8148 38.4497 29.8169 38.4539C29.9225 39.949 30.0239 41.4461 30.1252 42.9433L30.1252 42.9433Z" fill="#003380"/>
</g>
<defs>
<clipPath id="clip0_839_1441">
<rect width="95" height="43" fill="white" transform="translate(3 29)"/>
</clipPath>
</defs>
</svg>
