<svg width="100" height="100" viewBox="0 0 100 100" fill="none" xmlns="http://www.w3.org/2000/svg">
<path d="M51.92 41H25.616C22.928 41 21.2 42.5319 20.816 44.6383L20.624 45.9787H55.76L55.952 45.0213C56.144 42.9149 55.376 41 51.92 41ZM55.568 47.8936L55.376 49.4255C55.184 50.9574 54.032 52.1064 51.92 52.1064H44.432L43.664 58.8085H37.712L39.056 47.8936H55.568ZM20.048 41L19.472 45.9787H3.536L4.112 41H20.048ZM3.344 47.8936H19.28L18.704 52.1064H8.72L8.528 54.2128H18.512L17.936 58.8085H2L3.344 47.8936ZM57.68 41H70.544C72.656 41 74.768 41.9574 74.384 45.2128V45.9787H57.104L57.68 41ZM56.72 47.8936H62.672L61.328 58.8085H55.376L56.72 47.8936ZM68.048 47.8936H74L72.656 58.8085H66.704L68.048 47.8936ZM33.488 47.8936H20.432C20.048 50.766 21.392 52.1064 23.504 52.1064H31.568L31.376 54.0213H19.664L19.088 58.8085H32.336C32.72 58.8085 35.6 58.8085 36.56 56.3191C36.944 55.5532 37.328 52.6809 37.328 52.1064C37.712 48.6596 35.408 47.8936 33.488 47.8936ZM92.048 41L91.28 48.0851H85.904L86.096 46.1702L86.864 41H80.72L80.336 45.2128L79.952 48.0851C79.568 50.766 80.912 52.1064 83.024 52.1064H90.704L89.936 59H95.888L98 41H92.048Z" fill="#E52534"/>
</svg>
