<svg width="100" height="100" viewBox="0 0 100 100" fill="none" xmlns="http://www.w3.org/2000/svg">
<path d="M44.2294 44.5773C44.1337 44.1397 43.8329 43.9209 43.4363 43.7979C42.5748 43.5381 41.563 43.8662 41.0023 44.5636C40.51 45.1653 40.2913 45.89 40.2229 46.6421C40.1682 47.1891 40.1819 47.7497 40.1545 48.3103C40.1545 48.365 40.1545 48.4197 40.1545 48.4744C39.7306 48.4744 39.3204 48.4744 38.8965 48.4744C38.8965 48.6112 38.8965 48.7206 38.8965 48.8573C39.3204 48.8573 39.7306 48.8573 40.1408 48.8573C40.1408 50.758 40.1408 52.6451 40.1408 54.5594C39.7169 54.5594 39.3067 54.5594 38.8965 54.5594C38.8965 54.6962 38.8965 54.8056 38.8965 54.9287C40.1819 54.9287 41.4536 54.9287 42.7389 54.9287C42.7389 54.8056 42.7389 54.6825 42.7389 54.5458C42.3014 54.5458 41.8638 54.5458 41.4399 54.5458C41.4399 52.6314 41.4399 50.7443 41.4399 48.8436C41.8775 48.8436 42.315 48.8436 42.7389 48.8436C42.7389 48.7069 42.7389 48.5975 42.7389 48.4744C42.3014 48.4744 41.8638 48.4744 41.4399 48.4744C41.4262 48.4471 41.4262 48.4334 41.4262 48.4197C41.4399 47.5446 41.4399 46.6831 41.4809 45.808C41.5083 45.3704 41.6313 44.9465 41.8638 44.5773C42.1099 44.1944 42.4518 44.003 42.9167 44.0713C43.0945 44.0987 43.1492 44.1671 43.0534 44.3175C42.9304 44.5363 42.9577 44.7414 43.0534 44.9465C43.1902 45.2473 43.532 45.3841 43.8465 45.2747C44.1611 45.1926 44.2978 44.9191 44.2294 44.5773Z" fill="black"/>
<path d="M63.7562 54.3133C63.7562 52.7955 63.7562 51.3323 63.7562 49.8555C63.7562 49.0351 63.4417 48.5565 62.7853 48.3104C61.623 47.8728 60.5018 48.2557 59.8591 49.3086C59.777 49.4316 59.7087 49.5547 59.6266 49.6778C59.5993 49.6641 59.5719 49.6641 59.5446 49.6504C59.5446 47.5993 59.5446 45.5482 59.5446 43.497C58.8745 43.5381 58.2318 43.5517 57.6028 43.6064C57.5071 43.6201 57.4251 43.7705 57.343 43.8662C57.3704 43.8936 57.3977 43.9346 57.4251 43.9619C57.6985 43.9756 57.972 43.9893 58.2592 44.003C58.2592 47.4626 58.2592 50.8811 58.2592 54.327C57.9584 54.3407 57.6849 54.3543 57.3977 54.368C57.3704 54.409 57.3567 54.4501 57.3293 54.4911C57.4251 54.5731 57.5208 54.7099 57.6302 54.7235C58.478 54.7372 59.3121 54.7372 60.1599 54.7235C60.2693 54.7235 60.365 54.5595 60.4607 54.4774C60.4334 54.4364 60.406 54.3954 60.3787 54.3543C60.1326 54.3543 59.8727 54.3543 59.5719 54.3543C59.5719 53.2878 59.5719 52.2759 59.5719 51.264C59.5719 50.5803 59.7907 49.9649 60.2146 49.4453C60.4334 49.1718 60.7205 48.9257 61.0214 48.7889C61.7735 48.4471 62.3614 48.7479 62.4298 49.5547C62.5119 50.4162 62.4845 51.2913 62.4845 52.1665C62.4982 52.8912 62.4845 53.6159 62.4845 54.3817C62.17 54.3817 61.9102 54.3817 61.6504 54.3817C61.623 54.4227 61.6094 54.4774 61.582 54.5184C61.6914 54.6005 61.7871 54.7372 61.8965 54.7372C62.717 54.7509 63.5511 54.7509 64.3716 54.7509C64.6724 54.7509 64.6314 54.5868 64.563 54.3407C64.2895 54.3133 64.0297 54.3133 63.7562 54.3133V54.3133Z" fill="black"/>
<path d="M83.5155 54.327C83.5155 53.11 83.5155 51.934 83.5155 50.758C83.5155 50.3205 83.5018 49.8692 83.4608 49.4316C83.4061 48.8847 83.0779 48.5291 82.572 48.324C81.437 47.8728 80.2747 48.242 79.632 49.2812C79.55 49.4043 79.4816 49.541 79.3996 49.6641C79.3722 49.6641 79.3449 49.6504 79.3038 49.6504C79.3038 49.1718 79.3038 48.6795 79.3038 48.2009C78.5518 48.2556 77.8544 48.3103 77.1023 48.365C77.2254 48.953 77.7313 48.5428 77.9911 48.7889C77.9911 50.6213 77.9911 52.4673 77.9911 54.3407C77.6903 54.3407 77.4305 54.3407 77.157 54.3407C77.1296 54.3817 77.1023 54.4364 77.0886 54.4774C77.198 54.5595 77.3074 54.6962 77.4168 54.6962C78.2373 54.7099 79.0714 54.7099 79.8918 54.7099C80.179 54.7099 80.2337 54.5868 80.0969 54.3133C79.8508 54.3133 79.591 54.3133 79.3449 54.3133C79.3449 53.11 79.2765 51.9477 79.3722 50.7854C79.4406 49.9786 79.8508 49.2539 80.5892 48.8163C81.4233 48.3377 82.1481 48.6796 82.1891 49.6094C82.2438 51.1409 82.2164 52.6861 82.2164 54.2313C82.2164 54.2586 82.1891 54.2723 82.1344 54.327C81.9156 54.327 81.6832 54.327 81.437 54.327C81.4097 54.368 81.3823 54.409 81.3413 54.4501C81.437 54.5321 81.5464 54.6962 81.6421 54.6962C82.4489 54.7235 83.2694 54.7099 84.0761 54.7099C84.3633 54.7099 84.418 54.5868 84.2949 54.3133C84.0625 54.327 83.8163 54.327 83.5155 54.327V54.327Z" fill="black"/>
<path d="M50.2188 53.8894C50.0547 54.0398 49.8769 54.1629 49.6991 54.2997C49.6171 54.1082 49.4804 53.9168 49.4667 53.7253C49.4393 52.3853 49.453 51.0452 49.453 49.7051C49.453 49.1992 49.3299 48.7479 48.8513 48.4608C47.9625 47.9548 45.9661 48.1052 45.173 48.7616C44.8311 49.0488 44.5713 49.418 44.6807 49.8692C44.7354 50.088 44.9405 50.3478 45.1456 50.4435C45.4055 50.5666 45.72 50.4846 45.884 50.1974C46.0618 49.9102 46.0481 49.6231 45.8294 49.3633C45.7336 49.2539 45.5969 49.1718 45.4328 49.0488C45.5832 48.912 45.6653 48.8026 45.7747 48.7479C46.3216 48.5018 46.8823 48.4198 47.4839 48.5565C47.8805 48.6522 48.1129 48.912 48.1403 49.3086C48.1813 49.8555 48.154 50.4025 48.154 50.9495C47.6617 50.9905 47.2104 51.0042 46.7592 51.0862C46.3216 51.1683 45.8704 51.305 45.4601 51.4828C44.8585 51.7289 44.4072 52.1528 44.2021 52.7955C43.8876 53.8074 44.3662 54.6278 45.4055 54.8329C46.4584 55.0381 47.3745 54.7509 48.1403 53.9988C48.6189 54.8466 49.0018 55.0517 49.6308 54.8329C50.2324 54.6278 50.588 54.1356 50.4512 53.5066C50.3692 53.657 50.3145 53.7937 50.2188 53.8894V53.8894ZM48.0993 53.2741C48.0309 53.8211 47.4292 54.2313 46.7729 54.2723C46.0345 54.3133 45.6106 54.0672 45.4191 53.4929C45.214 52.8639 45.4191 52.2348 45.9524 51.8793C46.4447 51.5511 47.3062 51.346 48.195 51.3871C48.1676 52.0297 48.1813 52.6588 48.0993 53.2741V53.2741Z" fill="black"/>
<path d="M72.3163 48.2693C70.9352 48.6385 70.0053 49.9649 70.019 51.5511C70.019 51.6879 70.0053 51.8383 70.019 51.975C70.1831 53.2057 70.7711 54.1492 71.9197 54.6689C73.0273 55.1611 74.0803 54.997 75.0101 54.2313C76.0493 53.3698 76.3502 52.2212 76.1861 50.9221C75.9263 49.0488 74.1076 47.7907 72.3163 48.2693V48.2693ZM74.5452 53.4518C74.3674 54.2176 73.8478 54.5868 73.0957 54.5868C72.3573 54.5868 71.824 54.1903 71.6462 53.4382C71.3591 52.1938 71.3591 50.9221 71.6326 49.6641C71.8103 48.8847 72.3163 48.5018 73.0547 48.5018C73.8341 48.4881 74.3537 48.8436 74.5315 49.6367C74.6682 50.2521 74.6956 50.8948 74.7776 51.5375C74.7093 52.1938 74.6819 52.8365 74.5452 53.4518V53.4518Z" fill="black"/>
<path d="M54.7176 50.8948C54.0065 50.717 53.2818 50.5392 52.5844 50.3068C52.0375 50.129 51.9007 49.7598 52.1742 49.2675C52.3383 48.9941 52.6118 48.7206 52.8989 48.6112C53.8561 48.2283 54.786 48.7479 55.1825 49.8145C55.2782 50.047 55.3466 50.2521 55.6474 50.088C55.6474 49.5 55.6474 48.9257 55.6474 48.3514C55.6201 48.324 55.5791 48.2967 55.5517 48.283C55.3876 48.4197 55.2235 48.5565 55.0595 48.7069C54.8817 48.5975 54.7039 48.4744 54.5125 48.3787C53.61 47.9411 52.4477 48.1736 51.8597 48.8983C50.9709 49.9923 51.3811 51.3734 52.7075 51.7836C52.9126 51.852 53.1177 51.8793 53.3228 51.9477C53.9245 52.1391 54.5535 52.3032 55.1278 52.563C55.6748 52.8091 55.7568 53.2331 55.4834 53.78C55.1962 54.3407 54.4304 54.6962 53.7741 54.5868C52.8032 54.4227 52.2289 53.7937 51.9007 52.9049C51.8187 52.6861 51.764 52.481 51.4358 52.6177C51.4358 53.3014 51.4358 53.9988 51.4358 54.6962C51.9144 54.8739 51.9007 54.368 52.1469 54.2039C52.8579 54.8329 53.6784 55.0927 54.6219 54.8603C55.6474 54.6141 56.2901 53.8074 56.3038 52.7681C56.3175 51.6742 55.9073 51.1956 54.7176 50.8948Z" fill="black"/>
<path d="M88.6707 53.739C88.5886 53.8484 88.5066 53.9715 88.4109 54.0672C88.1784 54.3133 87.8776 54.409 87.5494 54.2996C87.2075 54.1766 87.2212 53.8757 87.2212 53.5886C87.2212 52.0844 87.2212 50.5939 87.2212 49.0898C87.2212 48.9667 87.2349 48.8436 87.2486 48.6932C87.6451 48.6932 88.0006 48.7069 88.3562 48.6795C88.4519 48.6795 88.5339 48.5701 88.616 48.5018C88.5339 48.4334 88.4519 48.324 88.3562 48.324C87.987 48.2967 87.6178 48.3103 87.1939 48.3103C87.1939 47.5993 87.1939 46.9429 87.1939 46.2592C86.7563 46.2866 86.3734 46.3139 85.9632 46.3413C85.9632 46.9976 85.9632 47.613 85.9632 48.324C85.6077 48.324 85.3205 48.324 84.965 48.324C85.1291 48.9667 85.6623 48.5018 85.9358 48.7753C85.9358 48.8846 85.9358 49.0487 85.9358 49.1992C85.9358 50.7033 85.9358 52.1938 85.9358 53.698C85.9358 54.1492 86.0315 54.5458 86.4828 54.7782C87.1939 55.1201 88.3972 54.8056 88.8211 54.1355C88.8758 54.0535 88.8348 53.8894 88.8348 53.78C88.7801 53.7663 88.7254 53.7527 88.6707 53.739V53.739Z" fill="black"/>
<path d="M95.8086 48.3377C95.1522 48.324 94.5095 48.324 93.7711 48.324C93.9352 48.9667 94.4685 48.5291 94.7557 48.7753C94.236 50.2247 93.7164 51.7152 93.1968 53.192C93.1695 53.192 93.1284 53.192 93.1011 53.1784C92.5951 51.7015 92.1029 50.2111 91.5969 48.7206C92.4174 48.6522 92.4174 48.6522 92.39 48.324C91.5149 48.324 90.6261 48.3103 89.7509 48.3377C89.6689 48.3377 89.5731 48.5018 89.4911 48.5838C89.5048 48.6249 89.5048 48.6796 89.5184 48.7206C90.2842 48.4881 90.4073 48.9941 90.5714 49.5C91.1457 51.1956 91.7473 52.8912 92.3216 54.5731C92.39 54.7646 92.431 54.9287 92.7045 54.9287C92.9917 54.9287 93.0601 54.7782 93.1284 54.5595C93.7438 52.8092 94.3864 51.0589 95.0018 49.2949C95.1385 48.912 95.2343 48.5565 95.7675 48.6795C95.8359 48.6932 95.918 48.5702 96 48.5155C95.9453 48.4608 95.8769 48.3377 95.8086 48.3377V48.3377Z" fill="black"/>
<path d="M67.8996 54.3133C67.8996 52.2485 67.8996 50.2247 67.8996 48.1873C67.4757 48.2283 67.1065 48.283 66.7509 48.2967C66.3681 48.3104 65.9852 48.2967 65.575 48.2967C65.5886 48.4471 65.575 48.6249 65.6023 48.6249C65.9168 48.6659 66.245 48.6932 66.6142 48.7206C66.6142 50.5939 66.6142 52.44 66.6142 54.327C66.2587 54.327 65.9168 54.327 65.5886 54.327C65.5613 54.368 65.5476 54.409 65.5203 54.4637C65.616 54.5458 65.7117 54.6962 65.8211 54.6962C66.7509 54.7099 67.6808 54.7099 68.597 54.7099C68.8841 54.7099 68.9388 54.5731 68.8021 54.3133C68.5149 54.3133 68.2414 54.3133 67.8996 54.3133V54.3133Z" fill="black"/>
<path d="M67.2568 45.6986C67.7354 45.6986 68.1046 45.343 68.0909 44.8644C68.0909 44.4679 67.6944 44.085 67.2841 44.0713C66.8739 44.0577 66.5047 44.4269 66.491 44.8644C66.4774 45.3567 66.7919 45.6986 67.2568 45.6986V45.6986Z" fill="black"/>
<path d="M28.2307 38.1367C28.135 38.041 28.0256 38 27.8888 38C22.7747 38 17.6605 38 12.5327 38C12.396 38 12.2866 38.041 12.1908 38.1504C9.49703 40.8442 6.81688 43.5244 4.12307 46.2182C4.08205 46.2592 4.04102 46.2866 4 46.3139C9.42866 51.7426 14.83 57.1439 20.2039 62.5178C21.1064 61.6153 22.0089 60.7128 22.9114 59.8103C22.9661 59.7967 23.0208 59.7556 23.0755 59.7009C23.9643 58.8121 35.4233 47.3532 36.2984 46.4643C36.3395 46.4233 36.3805 46.3823 36.4352 46.3139C36.3668 46.2592 36.2984 46.2182 36.2438 46.1635C33.5773 43.4834 30.8971 40.8169 28.2307 38.1367V38.1367ZM26.1522 54.3817C26.0975 54.409 26.0428 54.4364 26.0018 54.4911C24.1147 56.3781 22.2414 58.2515 20.3543 60.1385C20.3133 60.1795 20.2723 60.2479 20.2586 60.2753C15.582 55.5987 10.9465 50.9631 6.29727 46.3139C6.29727 46.3139 6.31094 46.3002 6.32461 46.2866C8.51248 44.085 10.7004 41.8971 12.9019 39.7093C12.9566 39.6546 13.066 39.6136 13.148 39.6136C17.852 39.6136 22.5422 39.6136 27.2461 39.6136C27.3419 39.6136 27.4512 39.6546 27.5196 39.7229C29.6938 41.8835 31.868 44.0577 34.0422 46.2319C34.0696 46.2592 34.1106 46.3002 34.1653 46.3686C33.632 46.9156 29.6528 50.8811 26.1522 54.3817V54.3817Z" fill="black"/>
<path d="M23.7866 41.063C22.6243 40.7212 21.2432 41.1587 20.4774 42.1023C19.8074 42.9227 19.5202 43.8936 19.4108 44.9191C19.3425 45.6712 19.3425 46.437 19.3151 47.1891C19.3151 47.2574 19.3151 47.3258 19.3151 47.4215C18.7408 47.4215 18.1801 47.4215 17.6195 47.4215C17.6195 47.5993 17.6195 47.7634 17.6195 47.9411C18.1938 47.9411 18.7545 47.9411 19.3151 47.9411C19.3151 50.5256 19.3151 53.0963 19.3151 55.6807C18.7408 55.6807 18.1938 55.6807 17.6195 55.6807C17.6195 55.8585 17.6195 56.0226 17.6195 56.1867C19.3698 56.1867 21.1064 56.1867 22.8294 56.1867C22.8294 56.0089 22.8294 55.8585 22.8294 55.6671C22.2277 55.6671 21.6397 55.6671 21.0517 55.6671C21.0517 53.069 21.0517 50.5119 21.0517 47.9138C21.6534 47.9138 22.2414 47.9138 22.8157 47.9138C22.8157 47.736 22.8157 47.5719 22.8157 47.4078C22.214 47.4078 21.6397 47.4078 21.0517 47.4078C21.0381 47.3805 21.0381 47.3531 21.0381 47.3395C21.0654 46.1635 21.0517 44.9738 21.1201 43.7979C21.1475 43.2099 21.3115 42.6356 21.6397 42.1296C21.9679 41.5963 22.4328 41.3365 23.0755 41.4459C23.3216 41.4869 23.39 41.569 23.2533 41.7878C23.0755 42.0749 23.1302 42.3621 23.2533 42.6356C23.431 43.0458 23.896 43.2235 24.3335 43.0731C24.7574 42.9227 24.9489 42.5535 24.8532 42.1023C24.7438 41.5143 24.3335 41.2134 23.7866 41.063V41.063Z" fill="black"/>
<path d="M25.7283 46.8335C25.2907 46.8335 24.9352 47.1891 24.9215 47.6266C24.9215 48.0779 25.2634 48.4334 25.7146 48.4334C26.1659 48.4334 26.5214 48.0779 26.5214 47.6403C26.5351 47.2027 26.1795 46.8335 25.7283 46.8335Z" fill="black"/>
</svg>
