<svg width="100" height="100" viewBox="0 0 100 100" fill="none" xmlns="http://www.w3.org/2000/svg">
<g clip-path="url(#clip0_841_209)">
<path d="M49.0628 49.8419H53.9795L53.7207 51.0947H49.0628V54.9454H47.5651V45.0545H54.1293L54.3886 46.3073H49.0628V49.8419Z" fill="#46B854"/>
<path d="M62.7627 47.5294V55.0926H61.3267L61.4637 53.8796C60.8891 54.7594 59.9588 55.2546 58.701 55.2546C57.0332 55.2546 55.9392 54.2514 55.9392 52.6003V47.5294H57.4148V52.3021C57.4148 53.4294 57.9894 54.0066 59.0422 54.0066C60.3691 54.0066 61.2715 52.9892 61.2715 51.3802V47.5273L62.7627 47.5294Z" fill="#46B854"/>
<path d="M69.2166 53.5049C69.6917 53.4973 70.1589 53.3825 70.5816 53.1691L70.3496 54.851C69.7079 55.1303 69.1458 55.2546 68.5482 55.2546C66.8284 55.2546 65.8578 54.1515 65.8578 52.2266V49.2392H64.331L64.0032 47.6648H65.8597V45.9019L67.8246 45.3636V47.6676H70.8267L70.5131 49.2419H67.8224V51.9201C67.8266 53.0072 68.277 53.5049 69.2166 53.5049Z" fill="#46B854"/>
<path d="M78.8913 47.5273V55.0626H77.2013L77.2923 53.8847C76.7461 54.7612 75.8764 55.2546 74.7193 55.2546C73.0813 55.2546 72.0677 54.2273 72.0677 52.5689V47.5273H73.9391V52.1722C73.9391 53.1176 74.4071 53.6245 75.2384 53.6245C76.25 53.6245 77.0066 52.8027 77.0066 51.3092V47.5273H78.8913Z" fill="#46B854"/>
<path d="M86.025 49.9295H85.5632C84.2301 49.9295 83.5699 50.5999 83.5699 51.9126V54.9455H81.0623V47.7243H83.1741L83.055 49.405C83.3851 48.2468 84.256 47.5145 85.6292 47.5275L86.025 49.9295Z" fill="#46B854"/>
<path d="M93.7788 50.4733V55.0555H91.7779L91.9334 53.9497C91.4662 54.7618 90.6605 55.2546 89.5557 55.2546C87.9052 55.2546 86.6451 54.1626 86.6451 52.6041C86.6451 51.1527 87.632 50.5652 89.9588 50.5652H91.3747C91.2965 49.8741 90.712 49.5285 89.5542 49.5285C88.7792 49.5366 88.0093 49.6579 87.2675 49.8886L87.7218 47.8235C88.5574 47.6196 89.4141 47.5202 90.273 47.5277C92.6766 47.5277 93.7788 48.5146 93.7788 50.4733ZM91.3753 52.085H90.1146C89.4519 52.085 89.1141 52.2585 89.1141 52.6981C89.1141 53.1908 89.5557 53.5502 90.1664 53.5502C90.8959 53.5502 91.3773 53.0305 91.3773 52.085H91.3753Z" fill="#46B854"/>
<path d="M24.3028 67C14.8967 67 7.24402 59.3732 7.24402 49.999C7.24402 40.6247 14.8967 33 24.3028 33C33.7089 33 41.3616 40.624 41.3616 49.999C41.3616 59.3739 33.7089 67 24.3028 67ZM24.3028 37.0501C17.1388 37.0501 11.3099 42.8586 11.3099 49.999C11.3099 57.1394 17.1388 62.9478 24.3028 62.9478C31.4668 62.9478 37.2959 57.1387 37.2959 49.999C37.2959 42.8593 31.4668 37.0501 24.3028 37.0501Z" fill="#46B854"/>
<path d="M33.6077 59.2728C41.4737 59.2728 41.3616 50.0001 41.3616 50.0001H37.3167C37.3167 50.0001 37.0577 55.772 33.6077 59.2728Z" fill="#22942C"/>
<path d="M33.7626 57.4182C32.2597 57.4182 30.7905 56.9831 29.5409 56.168C28.2912 55.3528 27.3173 54.1943 26.7421 52.8388C26.167 51.4833 26.0165 49.9918 26.3097 48.5528C26.6029 47.1138 27.3266 45.792 28.3894 44.7545C29.4521 43.7171 30.8061 43.0106 32.2802 42.7243C33.7542 42.4381 35.2821 42.585 36.6707 43.1465C38.059 43.7079 39.246 44.6587 40.081 45.8787C40.9158 47.0986 41.3616 48.5328 41.3616 50C41.3593 51.9667 40.5581 53.8523 39.1334 55.2431C37.7087 56.6338 35.7774 57.416 33.7626 57.4182ZM33.7626 46.5622C33.0661 46.5622 32.3853 46.7639 31.8062 47.1416C31.2271 47.5193 30.7757 48.0562 30.5092 48.6844C30.2426 49.3126 30.1729 50.0038 30.3088 50.6707C30.4447 51.3375 30.78 51.9501 31.2725 52.4308C31.765 52.9116 32.3925 53.239 33.0756 53.3717C33.7587 53.5043 34.4668 53.4362 35.1102 53.1761C35.7538 52.9159 36.3037 52.4752 36.6906 51.9099C37.0776 51.3446 37.2843 50.6799 37.2843 50C37.2831 49.0885 36.9118 48.2148 36.2516 47.5703C35.5915 46.9258 34.6963 46.5633 33.7626 46.5622Z" fill="#46B854"/>
<path d="M37.3295 50C37.3295 45.359 34.7779 42.659 34.7779 42.659C33.4382 42.4702 32.0703 42.6292 30.8162 43.1196C30.8162 43.1196 36.9954 46.0687 37.3295 50Z" fill="#22942C"/>
</g>
<defs>
<clipPath id="clip0_841_209">
<rect width="87" height="34" fill="white" transform="translate(7 33)"/>
</clipPath>
</defs>
</svg>
