<svg width="100" height="100" viewBox="0 0 100 100" fill="none" xmlns="http://www.w3.org/2000/svg">
<path d="M25.2798 35.8176C26.7704 35.8176 27.9302 36.2744 28.7592 37.1878C29.5962 38.0938 30.0147 39.3526 30.0147 40.9642V48.2384H27.2766V41.2872C27.2606 39.1261 26.3439 38.4025 24.5265 38.4025C23.6018 38.4025 22.9237 38.6845 22.3503 39.2578C21.8242 39.8891 21.5554 40.6734 21.5492 41.4655V48.2384H18.811V41.2872C18.811 40.2252 18.5798 39.7645 18.1175 39.215C17.6552 38.6654 16.9696 38.3906 16.0609 38.3906C15.1283 38.3906 14.3949 38.7174 13.8608 39.3709C13.3347 40.017 13.0836 40.925 13.0836 41.5323V48.2384H10.3455V35.9847H13.0238L13.0836 37.8565C13.6363 36.7394 14.9927 35.8176 16.8262 35.8176C17.9023 35.8176 18.7565 35.9901 19.4979 36.4802C20.2472 36.9629 20.8211 37.5702 21.0629 38.1737C21.3145 37.5285 21.9916 37.0727 22.709 36.5751C23.4264 36.0701 24.2833 35.8176 25.2798 35.8176V35.8176Z" fill="#6EC694"/>
<path d="M41.4486 47.6552C40.4991 48.1562 39.4375 48.4066 38.2637 48.4066C37.0899 48.4066 36.0283 48.1562 35.0788 47.6552C34.1368 47.1469 33.3854 46.4067 32.8247 45.4348C32.264 44.4629 31.9836 43.3415 31.9836 42.0705C31.9836 41.1135 32.1444 40.2351 32.4659 39.4351C32.7948 38.6352 33.2434 37.9698 33.8116 37.439C34.3798 36.9007 35.0452 36.482 35.8077 36.183C36.5703 35.8839 37.389 35.7344 38.2637 35.7344C39.4375 35.7344 40.4991 35.9886 41.4486 36.497C42.398 36.9979 43.1531 37.7343 43.7139 38.7062C44.2746 39.6781 44.5549 40.7995 44.5549 42.0705C44.5549 43.3415 44.2746 44.4629 43.7139 45.4348C43.1531 46.4067 42.398 47.1469 41.4486 47.6552V47.6552ZM38.2637 45.9843C39.3702 45.9843 40.271 45.6255 40.9663 44.9077C41.6616 44.19 42.013 43.2443 42.0205 42.0705C42.028 40.9192 41.6766 39.9809 40.9663 39.2557C40.2561 38.523 39.3552 38.1567 38.2637 38.1567C37.1722 38.1567 36.275 38.523 35.5722 39.2557C34.8695 39.9809 34.5181 40.9192 34.5181 42.0705C34.5181 43.2368 34.8695 44.1825 35.5722 44.9077C36.275 45.6255 37.1722 45.9843 38.2637 45.9843V45.9843Z" fill="#6EC694"/>
<path d="M56.1285 32H59.2805V48.2384H56.2917L56.2369 46.7169C55.8407 47.171 55.838 47.1685 55.1046 47.6665C54.3739 48.1599 53.4825 48.4066 52.4303 48.4066C50.6912 48.4066 49.2554 47.8197 48.1228 46.6459C46.9976 45.4722 46.4349 43.947 46.4349 42.0705C46.4349 40.194 46.9976 38.6688 48.1228 37.495C49.2554 36.3213 50.6912 35.7344 52.4303 35.7344C53.4898 35.7344 54.3885 35.9811 55.1265 36.4745C55.5251 36.7679 55.7007 36.9731 56.1285 37.6295L56.1285 32ZM52.6276 45.9329C53.7017 45.9329 54.5712 45.5741 55.2361 44.8564C55.9084 44.1386 56.2481 43.248 56.2554 42.0817C56.2631 40.9154 55.9303 40.1494 55.2581 39.4243C54.5931 38.6991 53.7163 38.3365 52.6276 38.3365C51.5388 38.3365 50.8418 38.6878 50.1768 39.3906C49.5119 40.0859 49.1794 40.8593 49.1794 42.0705C49.1794 43.2742 49.5119 44.176 50.1768 44.8788C50.8491 45.5815 51.5461 45.9329 52.6276 45.9329V45.9329Z" fill="#6EC694"/>
<path d="M10 51.723H12.7532L15.947 61.0709L19.1518 51.723H21.916L17.4007 64.0588H14.5153L10 51.723Z" fill="#6EC694"/>
<path d="M25.7499 51.723V64.0588H23.1818V51.723H25.7499Z" fill="#6EC694"/>
<path d="M37.4047 51.723H40.118V64.0588H37.4047L37.3514 62.3365C36.8102 62.9933 36.8138 63.0046 36.0954 63.4981C35.3841 63.984 34.5162 64.227 33.4919 64.227C32.3822 64.227 31.3828 63.9653 30.4936 63.442C29.6116 62.9187 28.918 62.1748 28.413 61.2103C27.9079 60.2384 27.6554 59.1319 27.6554 57.8909C27.6554 56.0144 28.2031 54.4892 29.2986 53.3154C30.4012 52.1417 31.7989 51.5548 33.4919 51.5548C34.5233 51.5548 35.3983 51.8015 36.1167 52.2949C36.8423 52.7884 37.1146 53.0412 37.3834 53.4453L37.4047 51.723ZM31.5598 60.7618C32.0466 61.258 33.0928 61.6249 33.684 61.6249C34.7439 61.6249 35.5975 61.4421 36.2448 60.7169C36.8992 59.9917 37.2229 59.0422 37.2157 57.8685C37.2086 56.7096 36.8779 55.7714 36.2234 55.0537C35.5761 54.3359 34.7296 54.1569 33.684 54.1569C33.0806 54.1569 32.3298 54.3541 31.5598 55.0312C30.9124 55.734 30.3576 56.7129 30.3576 57.9166C30.3576 59.1352 30.8945 60.0836 31.5598 60.7618V60.7618Z" fill="#6EC694"/>
<path d="M51.8285 51.7137H54.3464V61.9354C54.3464 62.6839 54.0736 63.3689 53.8546 63.9903C53.6357 64.6117 53.3866 65.1413 52.9982 65.5792C52.6098 66.024 52.2527 66.3983 51.7089 66.702C51.1722 67.0127 50.5826 67.2386 49.94 67.3799C49.2974 67.5282 48.6124 67.6023 47.8851 67.6023C46.8329 67.6023 45.9113 67.4823 45.1204 67.2422C44.3366 67.0021 43.7046 66.649 42.9702 66.1829L44.0839 64.3504C45.2632 65.2119 46.3244 65.5701 47.8851 65.5701C49.0926 65.5701 49.8833 65.2514 50.5543 64.641C51.1687 64.0821 51.4989 63.4677 51.6121 62.5179L51.7755 61.1467C51.4365 61.9659 51.0557 62.1472 50.3425 62.6133C49.6363 63.0723 48.7748 63.3018 47.758 63.3018C46.0914 63.3018 44.7109 62.7545 43.6163 61.66C42.5218 60.5654 41.9745 59.1566 41.9745 57.4336C41.9745 55.7105 42.5218 54.3017 43.6163 53.2072C44.7109 52.1056 46.0914 51.5548 47.758 51.5548C48.7748 51.5548 49.6363 51.7878 50.3425 52.2539C51.0557 52.7199 51.4365 52.9013 51.7755 53.7204L51.8285 51.7137ZM45.8161 60.0499C46.494 60.6996 47.0765 61.0244 48.1287 61.0244C49.1809 61.0244 50.0388 60.6854 50.7026 60.0075C51.3735 59.3296 51.7125 58.461 51.7195 57.4018C51.7126 56.3637 51.37 55.5093 50.6921 54.8384C50.0141 54.1676 49.1597 53.9048 48.1287 53.9048C47.0836 53.9048 46.5046 54.164 45.8266 54.8278C45.1487 55.4846 44.8098 56.3531 44.8098 57.4336C44.8098 58.5211 45.1452 59.3932 45.8161 60.0499V60.0499Z" fill="#6EC694"/>
<path d="M68.4331 57.8909C68.4331 58.1825 68.4144 58.4965 68.377 58.8329H58.964C59.1359 59.7824 59.6016 60.5519 60.2521 61.1051C60.9025 61.6509 61.593 61.9056 62.5051 61.9056C64.0377 61.9056 65.3285 61.6804 66.3773 60.7395L67.3831 62.7087C66.9645 63.0524 66.8786 63.1099 66.036 63.5531C64.9657 64.1161 63.8348 64.227 62.5414 64.227C61.6741 64.227 60.8555 64.0737 60.0854 63.7672C59.3154 63.4607 58.6463 63.0345 58.0781 62.4888C57.5173 61.943 57.0725 61.2739 56.7436 60.4814C56.4146 59.6814 56.2501 58.8179 56.2501 57.8909C56.2501 56.6573 56.5305 55.5546 57.0912 54.5827C57.6519 53.6107 58.407 52.8631 59.3565 52.3398C60.3135 51.8164 61.3751 51.5548 62.5414 51.5548C63.7077 51.5548 64.366 51.8164 65.3155 52.3398C66.4266 53.0429 67.0313 53.6107 67.592 54.5827C68.1527 55.5546 68.4331 56.6573 68.4331 57.8909H68.4331ZM62.5413 53.8761C61.6517 53.8761 60.8854 54.1416 60.2424 54.6724C59.5994 55.1957 59.1808 55.9172 58.9864 56.8367H65.8351C65.6632 55.9022 65.2594 55.177 64.624 54.6612C63.9885 54.1378 63.4759 53.8761 62.5413 53.8761V53.8761Z" fill="#6EC694"/>
<path d="M70.2128 47.6552C69.2634 48.1562 68.2017 48.4066 67.028 48.4066C65.8542 48.4066 64.7926 48.1562 63.8431 47.6552C62.9011 47.1469 62.1497 46.4067 61.589 45.4348C61.0283 44.4629 60.7479 43.3415 60.7479 42.0705C60.7479 41.1135 60.9087 40.2351 61.2301 39.4351C61.5591 38.6352 62.0077 37.9698 62.5759 37.439C63.1441 36.9007 63.8094 36.482 64.572 36.183C65.3346 35.8839 66.1532 35.7344 67.028 35.7344C68.2017 35.7344 69.2634 35.9886 70.2128 36.497C71.1623 36.9979 71.9174 37.7343 72.4781 38.7062C73.0389 39.6781 73.3192 40.7995 73.3192 42.0705C73.3192 43.3415 73.0389 44.4629 72.4781 45.4348C71.9174 46.4067 71.1623 47.1469 70.2128 47.6552ZM67.028 45.9843C68.1344 45.9843 69.0353 45.6255 69.7306 44.9077C70.4259 44.19 70.7773 43.2443 70.7848 42.0705C70.7923 40.9192 70.4409 39.9809 69.7306 39.2557C69.0204 38.523 68.1195 38.1567 67.028 38.1567C65.9364 38.1567 65.0393 38.523 64.3365 39.2557C63.6337 39.9809 63.2824 40.9192 63.2824 42.0705C63.2824 43.2368 63.6337 44.1825 64.3365 44.9077C65.0393 45.6255 65.9364 45.9843 67.028 45.9843V45.9843Z" fill="#6EC694"/>
<path d="M24.4702 48.4297C24.151 48.4297 23.8799 48.3182 23.657 48.0953C23.4341 47.8664 23.3226 47.5953 23.3226 47.282C23.3226 46.9688 23.4341 46.7007 23.657 46.4778C23.8799 46.2489 24.151 46.1344 24.4702 46.1344C24.7835 46.1344 25.0516 46.2489 25.2745 46.4778C25.4974 46.7007 25.6088 46.9688 25.6088 47.282C25.6088 47.5953 25.4974 47.8664 25.2745 48.0953C25.0516 48.3182 24.7835 48.4297 24.4702 48.4297V48.4297Z" fill="#6EC694"/>
<path d="M85.265 51.638C86.7556 51.638 87.9155 52.0947 88.7445 53.0082C89.5815 53.9142 90 55.173 90 56.7846V64.0588H87.2618V57.1076C87.2459 54.9465 86.3292 54.2229 84.5117 54.2229C83.587 54.2229 82.9089 54.5049 82.3355 55.0782C81.8094 55.7095 81.5406 56.4938 81.5344 57.2858V64.0588H78.7962V57.1076C78.7962 56.0456 78.5651 55.5849 78.1027 55.0353C77.6404 54.4858 76.9549 54.211 76.0461 54.211C75.1135 54.211 74.3801 54.5378 73.846 55.1913C73.3199 55.8374 73.0688 56.7454 73.0688 57.3527V64.0588H70.3307V51.8051H73.0091L73.0689 53.6769C73.6215 52.5598 74.978 51.638 76.8114 51.638C77.8875 51.638 78.7418 51.8105 79.4831 52.3006C80.2324 52.7833 80.8064 53.3905 81.0482 53.9941C81.2997 53.3489 81.9768 52.8931 82.6943 52.3955C83.4117 51.8905 84.2686 51.638 85.265 51.638H85.265Z" fill="#6EC694"/>
</svg>
