<svg width="100" height="100" viewBox="0 0 100 100" fill="none" xmlns="http://www.w3.org/2000/svg">
<g clip-path="url(#clip0_839_1323)">
<path d="M23.2385 54.4506C21.0018 54.7028 18.5801 54.7659 16.2405 54.7659C13.9009 54.7659 11.4793 54.7028 9.2217 54.4506C8.58571 54.3875 8.25702 54.2194 8.17497 53.5257C8.05215 52.2013 8.05215 50.8556 8.05215 49.4896C8.05215 48.1444 8.05215 46.7987 8.17497 45.4743C8.25702 44.7806 8.58571 44.6125 9.2217 44.5494C11.4793 44.2972 13.9009 44.2341 16.2405 44.2341C18.5801 44.2341 21.0018 44.2972 23.2385 44.5494C23.8954 44.6125 24.2235 44.7806 24.3056 45.4743C24.4085 46.7987 24.4085 48.1444 24.4085 49.4896C24.4085 50.8556 24.4085 52.2013 24.3056 53.5257C24.2235 54.2194 23.8954 54.3875 23.2385 54.4506ZM16.2405 39C10.5966 39 5.99945 43.7084 5.99945 49.4896C5.99945 55.2916 10.5966 60.0005 16.2405 60.0005C21.8844 60.0005 26.5015 55.2916 26.5015 49.4896C26.5015 43.7084 21.8844 39 16.2405 39" fill="#E32E2E"/>
<path d="M12.0948 49.4896C12.0948 47.1772 13.9009 45.2432 16.2405 45.2432C18.5801 45.2432 20.3862 47.1772 20.3862 49.4896C20.3862 51.823 18.5801 53.757 16.2405 53.757C13.9009 53.757 12.0948 51.823 12.0948 49.4896" fill="#E32E2E"/>
<path d="M41.7368 48.0185V56.4822C41.7368 56.9864 41.4417 57.2887 40.9499 57.2887H38.5232C38.0314 57.2887 37.7363 56.9864 37.7363 56.4822V48.6903C37.7363 46.4734 36.9164 45.3313 35.1455 45.3313C33.3099 45.3313 32.2932 46.6409 32.2932 48.8245V56.4822C32.2932 56.9864 31.9981 57.2887 31.5059 57.2887H29.0796C28.5878 57.2887 28.2928 56.9864 28.2928 56.4822V42.5099C28.2928 42.0061 28.5878 41.7039 29.0796 41.7039H31.2765C31.7688 41.7039 32.0634 42.0061 32.0634 42.5099V43.3832C32.9817 42.275 34.4575 41.4351 36.2936 41.4351C39.7039 41.4351 41.7368 43.8869 41.7368 48.0185" fill="#E32E2E"/>
<path d="M47.4005 47.615H54.2211C53.7946 45.8689 52.4828 44.8949 50.9749 44.8949C49.1383 44.8949 47.8271 46.0365 47.4005 47.615M58.484 49.8653V49.8993C58.484 50.403 58.1884 50.7052 57.6966 50.7052H47.3679C47.7613 52.6873 49.2698 53.997 51.27 53.997C52.5486 53.997 53.4669 53.6274 54.0896 52.7875C54.3521 52.4184 54.6145 52.2503 55.0406 52.2503H57.5331C58.0901 52.2503 58.3199 52.6199 58.1558 53.1236C57.2375 55.9785 54.6145 57.557 51.1059 57.557C46.7446 57.557 43.3344 54.165 43.3344 49.4963C43.3344 44.9283 46.7446 41.4351 50.8766 41.4351C55.6312 41.4351 58.484 45.1632 58.484 49.8653" fill="#E32E2E"/>
<path d="M79.7428 41.7039C80.3003 41.7039 80.5627 42.0734 80.3987 42.6106L76.0706 56.6168C75.9391 57.0532 75.6114 57.2886 75.1522 57.2886H72.7912C72.3321 57.2886 72.037 57.0532 71.906 56.6168L69.4141 47.3467L66.9873 56.6168C66.8558 57.0532 66.5613 57.2886 66.1021 57.2886H63.7411C63.2819 57.2886 62.9543 57.0532 62.8228 56.6168L58.4289 42.6106C58.2648 42.0734 58.5273 41.7039 59.0848 41.7039H62.0359C62.4951 41.7039 62.7902 41.9388 62.8885 42.4091L64.9545 51.3097L67.3481 42.4091C67.4791 41.9727 67.7415 41.7039 68.2007 41.7039H70.8236C71.2828 41.7039 71.5452 41.9388 71.6762 42.4091L74.0703 51.377L76.1032 42.4091C76.2015 41.9388 76.4966 41.7039 76.9552 41.7039H79.7428Z" fill="#E32E2E"/>
<path d="M81.2446 53.1236C81.0805 52.586 81.3756 52.2503 81.9331 52.2503H84.4908C84.8843 52.2503 85.1141 52.4184 85.3434 52.788C85.7368 53.4259 86.2943 53.9296 87.8685 53.9296C89.1471 53.9296 90.0328 53.5606 90.0328 52.8214C90.0328 51.5451 88.2619 51.377 86.2943 51.0075C83.9007 50.5377 81.2115 49.7651 81.2115 46.1712C81.2115 43.3497 83.6057 41.4351 87.4094 41.4351C90.8523 41.4351 92.9509 43.1817 93.7051 45.835C93.8692 46.4061 93.5741 46.7422 93.0166 46.7422H90.4262C90.0328 46.7422 89.8687 46.6075 89.6063 46.1712C89.1797 45.4993 88.557 45.0624 87.0159 45.0624C85.77 45.0624 85.1141 45.6001 85.1141 46.2046C85.1141 47.4135 87.1795 47.4474 89.3112 47.8838C91.6065 48.3541 94.0001 49.2275 94.0001 52.5192C94.0001 55.5755 91.3114 57.557 87.6713 57.557C83.7698 57.557 81.9662 55.4413 81.2446 53.1236" fill="#E32E2E"/>
</g>
<defs>
<clipPath id="clip0_839_1323">
<rect width="88" height="21" fill="white" transform="translate(6 39)"/>
</clipPath>
</defs>
</svg>
