<svg width="100" height="100" viewBox="0 0 100 100" fill="none" xmlns="http://www.w3.org/2000/svg">
<path d="M26.2097 38.6071C21.3745 38.6071 13 39.7992 13 48.2573C13 56.7142 22.5905 57.9123 26.2097 57.9851C29.1911 58.0436 31.5598 57.7976 34.0502 56.9913C34.0502 56.9913 34.1088 58.7018 34.0132 60.0982C33.8484 62.4333 33.4148 63.9013 32.378 65.1806C30.3785 67.6436 26.2874 67.6269 23.8064 67.6544C22.6454 67.6544 20.5574 67.4644 20.5574 67.4644L20.5646 69.2979C30.2219 70.1843 39.0264 69.6085 40.3654 61.4013C40.5589 60.2128 40.5804 58.9574 40.5852 56.8073C40.59 55.2617 40.5852 38.6071 40.5852 38.6071H26.2097ZM34.0502 54.692C34.0502 54.8532 31.033 56.1265 27.2764 55.7311C22.9093 55.2713 20.0163 52.3543 20.0163 48.2525C20.0163 43.9177 22.8329 41.2135 26.2921 40.6867C27.6204 40.4872 29.5829 40.394 31.1154 40.4514C32.6813 40.5135 34.0502 40.6831 34.0502 40.6831V54.692Z" fill="#F35BA5"/>
<path d="M63.6986 47.8889C63.6986 42.5222 61.2703 40.4891 54.9443 40.4891C53.2099 40.4891 50.2751 40.7101 50.2453 40.7101V57.514H43.6517V38.6066H56.4947C61.3299 38.6066 70.2933 38.2125 70.2933 48.854V57.514H63.6986V47.8889Z" fill="#F35BA5"/>
<path d="M81.4587 55.3828C78.91 53.8455 79.1486 50.8068 79.1523 47.7764C79.1548 47.2198 79.1523 45.4376 79.1523 41.4015H86.6535V39.3625H79.1523C79.1548 36.8601 79.1499 33.5693 79.1523 31H72.7476V48.4907C72.7476 55.0854 76.312 58.2615 84.6672 58.2615C85.4522 58.2615 86.1219 58.234 87 58.1815V56.127C85.5108 56.1569 82.8887 56.2452 81.4587 55.3828Z" fill="#F35BA5"/>
</svg>
