<svg width="100" height="100" viewBox="0 0 100 100" fill="none" xmlns="http://www.w3.org/2000/svg">
<g clip-path="url(#clip0_208_418)">
<path d="M81.9405 35.056L68.4092 58.3785L77.4131 63.5536C78.5951 64.2325 79.8999 64.6731 81.2531 64.8502C82.6062 65.0272 83.9811 64.9374 85.2993 64.5856C86.6175 64.2339 87.8532 63.6273 88.9358 62.8003C90.0184 61.9733 90.9267 60.9423 91.6088 59.766C92.2909 58.5896 92.7336 57.2912 92.9114 55.9446C93.0892 54.5981 92.9987 53.2299 92.6452 51.9181C92.2916 50.6064 91.6819 49.3768 90.8507 48.2996C90.0196 47.2223 88.9834 46.3186 87.8013 45.6399L86.017 44.6099L89.1537 39.2011L81.9405 35.056ZM81.8261 51.8196L83.6167 52.8559C83.8479 52.9875 84.0508 53.1633 84.2135 53.3731C84.3763 53.5829 84.4958 53.8227 84.5651 54.0786C84.6344 54.3346 84.6522 54.6016 84.6175 54.8644C84.5828 55.1272 84.4962 55.3806 84.3627 55.61C84.2293 55.8394 84.0515 56.0403 83.8398 56.2011C83.6281 56.3619 83.3865 56.4795 83.1289 56.5471C82.8714 56.6148 82.6029 56.631 82.339 56.5951C82.0751 56.5591 81.821 56.4716 81.5912 56.3375L79.8068 55.3076L81.8261 51.8196Z" fill="#0A50DD"/>
<path d="M15.3999 36.8806C12.6709 38.147 10.4039 40.2249 8.91176 42.8277C7.41963 45.4305 6.77585 48.4299 7.06923 51.4122C7.36261 54.3945 8.5787 57.2127 10.5497 59.4781C12.5208 61.7435 15.1496 63.3445 18.0737 64.0602C20.9978 64.7759 24.073 64.571 26.8752 63.4739C29.6773 62.3768 32.0683 60.4414 33.7183 57.9348C35.3684 55.4282 36.1961 52.4738 36.0875 49.4792C35.9788 46.4846 34.9391 43.5974 33.1116 41.2157L20.2343 47.1911L22.8676 52.8107L27.6986 50.5687C27.5801 51.8464 27.0628 53.0551 26.2192 54.0255C25.3755 54.9959 24.2479 55.6792 22.9943 55.9797C21.7408 56.2801 20.4242 56.1827 19.2291 55.7011C18.034 55.2194 17.0203 54.3777 16.3301 53.2938C15.64 52.21 15.3079 50.9384 15.3806 49.6573C15.4533 48.3762 15.927 47.1499 16.7353 46.1502C17.5436 45.1505 18.6461 44.4277 19.8881 44.0829C21.13 43.7381 22.4493 43.7888 23.6609 44.2277L26.5218 36.3985C24.727 35.7446 22.8199 35.4508 20.9105 35.534C19.0011 35.6173 17.1271 36.076 15.3967 36.8837" fill="#0A50DD"/>
<path d="M33.9027 63.5603L42.1052 65L47.1638 36.4364L38.9646 35L33.9027 63.5603Z" fill="#0A50DD"/>
<path d="M47.7912 46.5982C46.7454 47.4712 45.8827 48.5407 45.2524 49.7455C44.622 50.9503 44.2363 52.2669 44.1172 53.6201C43.9982 54.9732 44.1482 56.3365 44.5586 57.632C44.9691 58.9274 45.6319 60.1298 46.5093 61.1703C47.3868 62.2109 48.4616 63.0692 49.6723 63.6964C50.8831 64.3236 52.2062 64.7072 53.566 64.8255C54.9259 64.9438 56.2958 64.7944 57.5976 64.3858C58.8993 63.9772 60.1075 63.3175 61.153 62.4442C63.2643 60.6809 64.5852 58.1552 64.8252 55.4227C65.0653 52.6902 64.2048 49.9748 62.433 47.8736C60.6613 45.7725 58.1234 44.4577 55.3775 44.2185C52.6317 43.9793 49.9028 44.8353 47.7912 46.5982V46.5982ZM52.9247 55.8153C52.7527 55.6134 52.6224 55.3797 52.5414 55.1277C52.4603 54.8756 52.4301 54.6101 52.4524 54.3463C52.4748 54.0826 52.5492 53.8259 52.6715 53.5909C52.7938 53.3558 52.9615 53.1471 53.165 52.9768C53.3685 52.8064 53.6038 52.6777 53.8575 52.598C54.1111 52.5184 54.378 52.4894 54.6429 52.5126C54.9079 52.5359 55.1656 52.611 55.4013 52.7336C55.637 52.8562 55.846 53.0239 56.0164 53.2271C56.3588 53.6354 56.5247 54.162 56.4778 54.6918C56.4308 55.2215 56.1748 55.7111 55.7659 56.0535C55.3569 56.3958 54.8284 56.5629 54.2958 56.5183C53.7633 56.4736 53.2703 56.2209 52.9247 55.8153" fill="#0A50DD"/>
<path d="M63.3931 36.9476C62.5905 37.5966 61.9256 38.3981 61.4373 39.3053C60.949 40.2126 60.6469 41.2074 60.5488 42.232C60.4506 43.2565 60.5582 44.2902 60.8655 45.273C61.1727 46.2557 61.6734 47.1678 62.3383 47.9561C63.0032 48.7444 63.8191 49.3931 64.7384 49.8646C65.6577 50.336 66.6622 50.6207 67.6931 50.7021C68.7241 50.7835 69.7611 50.6599 70.7436 50.3386C71.7262 50.0172 72.6346 49.5046 73.4161 48.8305C74.9622 47.4967 75.9194 45.6116 76.0812 43.5818C76.243 41.552 75.5964 39.5403 74.2809 37.9807C72.9654 36.4211 71.0865 35.4387 69.0496 35.2454C67.0127 35.0521 64.9811 35.6635 63.3931 36.9476V36.9476ZM67.0082 44.0554C66.7305 43.6839 66.6059 43.2209 66.66 42.761C66.7141 42.3012 66.9427 41.8793 67.2991 41.5817C67.6555 41.2841 68.1127 41.1333 68.5772 41.1601C69.0416 41.1869 69.4782 41.3894 69.7976 41.726C70.105 42.0945 70.2533 42.569 70.2101 43.046C70.167 43.5229 69.9358 43.9635 69.5672 44.2713C69.1985 44.5791 68.7224 44.7292 68.2429 44.6888C67.7634 44.6483 67.3195 44.4206 67.0082 44.0554" fill="#0A50DD"/>
</g>
<defs>
<clipPath id="clip0_208_418">
<rect width="86" height="30" fill="white" transform="translate(7 35)"/>
</clipPath>
</defs>
</svg>
