<svg width="100" height="100" viewBox="0 0 100 100" fill="none" xmlns="http://www.w3.org/2000/svg">
<g clip-path="url(#clip0_840_1735)">
<path fill-rule="evenodd" clip-rule="evenodd" d="M49.7628 12C28.9714 12 12.0966 28.8513 12.0966 49.4789C12.0966 70.1464 28.9714 87 49.7628 87C70.5959 87 87.4686 70.1464 87.4686 49.4789C87.4686 28.8513 70.5959 12 49.7628 12ZM49.7633 68.2195C41.3252 68.2195 32.2418 68.0596 24.0871 67.1772C21.705 66.9358 20.4532 66.3739 20.1713 63.8051C19.7274 59.1509 19.6871 54.376 19.6871 49.4789C19.6871 44.6241 19.7274 39.8484 20.1713 35.1934C20.4532 32.6269 21.705 32.0643 24.0871 31.8236C31.2223 31.0519 39.0695 30.7998 46.5726 30.7768C47.6447 30.7737 48.7091 30.7752 49.7633 30.7806C58.241 30.7383 67.3245 30.9413 75.4775 31.8236C77.8618 32.0643 79.1105 32.6269 79.3956 35.1934C79.8372 39.8484 79.8799 44.6241 79.8799 49.4789C79.8799 54.376 79.8365 59.1509 79.3956 63.8051C79.1105 66.3739 77.8618 66.9358 75.4775 67.1772C67.3245 68.0596 58.241 68.2195 49.7633 68.2195ZM34.4618 49.4785C34.4618 41.1324 41.2857 34.3106 49.7633 34.3106C58.2813 34.3106 65.1036 41.1324 65.1036 49.4785C65.1036 57.8661 58.2813 64.6479 49.7633 64.6479C41.2857 64.6479 34.4618 57.8661 34.4618 49.4785Z" fill="#00AEEF"/>
</g>
<defs>
<clipPath id="clip0_840_1735">
<rect width="76" height="75" fill="white" transform="translate(12 12)"/>
</clipPath>
</defs>
</svg>
