<svg width="100" height="100" viewBox="0 0 100 100" fill="none" xmlns="http://www.w3.org/2000/svg">
<path fill-rule="evenodd" clip-rule="evenodd" d="M70.1004 52.3208H73.2503V37.1102H70.1004V52.3208ZM47.9282 49.0435V37.11H44.7775V48.2281C44.7775 48.9899 44.2809 49.4444 43.4481 49.4444H42.5278C41.6955 49.4444 41.1986 48.9899 41.1986 48.2281V37.11H38.0487V49.0435C38.0487 50.7381 39.5168 52.4534 42.3243 52.4534H43.8564C46.5294 52.4534 47.9282 50.7376 47.9282 49.0435ZM22.765 40.1179H26.2579V52.3208H29.4086V40.1179H32.8971V37.1102H22.765V40.1179ZM85.8506 41.2242C85.8506 40.4622 85.3535 40.0082 84.5212 40.0082H83.6008C82.7681 40.0082 82.2714 40.4627 82.2714 41.2242V48.2289C82.2714 48.9907 82.7681 49.4457 83.6008 49.4457H84.5212C85.3535 49.4457 85.8506 48.9907 85.8506 48.2289V41.2242ZM89 40.4091V49.0435C89 50.7376 87.6012 52.4534 84.9282 52.4534H83.3968C80.5899 52.4534 79.1213 50.7381 79.1213 49.0435V40.4091C79.1213 38.7147 80.5899 37 83.3968 37H84.9282C87.6012 37 89 38.7147 89 40.4091ZM13.8404 43.5179C13.6756 43.4392 13.5156 43.363 13.3642 43.2884L13.1022 43.1617C12.0544 42.6555 11.1495 42.2182 11.1495 41.4728V41.2796C11.1495 40.5175 11.6466 40.0636 12.4788 40.0636H13.2916C14.1233 40.0636 14.6205 40.5175 14.6205 41.2796V42.0547H17.7709V40.4648C17.7709 38.7706 16.3724 37.0559 13.6991 37.0559H11.8677C9.32855 37.0559 8 38.7706 8 40.4648V41.874C8 44.3635 10.615 45.5808 12.5245 46.4695L12.7353 46.5677C12.86 46.6262 12.9898 46.6819 13.1189 46.7383C13.8447 47.0537 14.5959 47.3789 14.5959 48.1173V48.2843C14.5959 49.5005 13.6303 49.5005 13.2663 49.5005H12.4816C11.6494 49.5005 11.1522 49.0461 11.1522 48.2843V47.8878H8.00238V49.0988C8.00238 50.793 9.47071 52.5082 12.2779 52.5082H13.7915C16.4645 52.5082 17.8633 50.793 17.8633 49.0988V47.4247C17.8633 45.4362 15.5454 44.3307 13.8404 43.5179ZM60.8436 41.3566C60.8436 40.5948 60.3468 40.14 59.5145 40.14H57.186V49.3126H59.5145C60.3468 49.3126 60.8436 48.8581 60.8436 48.0963V41.3566ZM63.9933 48.9114C63.9933 50.6055 62.5945 52.3208 59.9215 52.3208H54.0361V37.1321H59.9215C62.5945 37.1321 63.9933 38.847 63.9933 40.5412V48.9114ZM82.6364 58.4422H81.7143V62.9626H84.2392V62.0143H82.6364V58.4422ZM74.7417 61.1865L74.3025 59.736H74.2393L73.7991 61.1865H74.7417ZM74.7293 58.4362L76.1142 62.9626H75.2839L75.0156 62.0752L73.5262 62.0778L73.2561 62.9626H72.436L73.8214 58.4362H74.7293ZM65.5834 60.243C65.1809 60.0763 64.8329 59.9349 64.8329 59.7505V59.6356C64.8329 59.4271 64.9711 59.3005 65.2095 59.3005H65.6457C65.8884 59.3005 66.0332 59.4305 66.0332 59.6481V60.0129H66.9493V59.4383C66.9493 58.9279 66.5357 58.4105 65.7469 58.4105H65.0541C64.3056 58.4105 63.9153 58.9211 63.9153 59.4266V59.8322C63.9153 60.627 64.7564 60.9621 65.3703 61.2057C65.7434 61.3547 66.0679 61.4832 66.0679 61.6537V61.7629C66.0679 62.0757 65.7819 62.1108 65.6606 62.1108H65.2138C65.0184 62.1108 64.8091 62.0185 64.8091 61.7559V61.5822H63.892V61.9595C63.892 62.4764 64.3277 62.9995 65.1609 62.9995V63H65.7682C66.5658 63 66.9839 62.4808 66.9839 61.9662V61.4959C66.9839 60.8191 66.2074 60.5009 65.5834 60.243ZM57.2991 59.6793C57.2991 59.4653 57.1538 59.3374 56.9078 59.3374H56.1132V60.5565H56.9179V60.557C57.104 60.557 57.2991 60.4668 57.2991 60.2159V59.6793ZM57.593 61.3376L58.3283 62.9631H57.3632V62.9626L56.743 61.4452H56.1135V62.9626H55.1914V58.4422H57.0134C57.8026 58.4422 58.2159 58.9619 58.2159 59.476V60.4257C58.2159 60.8064 57.9846 61.147 57.593 61.3376ZM47.6482 61.1218H49.1199V60.232H47.6482V59.3314H49.3282V58.4422H46.7248V62.9626H49.3859V62.0718H47.6482V61.1218ZM39.2863 61.6243L38.3735 58.4482H37.4463L38.8316 62.9626H39.7409L41.1247 58.4482H40.2036L39.2863 61.6243ZM30.9169 62.9626H31.9446V58.4422H30.9169V62.9626ZM24.2607 61.0422L22.9172 58.4422H22.0041V62.9626H22.9278V60.4702L24.2795 62.9626H25.1771V58.4422H24.2607V61.0422ZM15.2766 58.4422H16.1949V61.9595C16.1949 62.4764 15.7849 62.9995 15.0025 62.9995H14.3479C13.531 62.9995 13.1022 62.4764 13.1022 61.9595V58.4422H14.0256V61.7556C14.0256 62.0177 14.22 62.1105 14.401 62.1105H14.8956C15.0804 62.1105 15.2766 62.0177 15.2766 61.7556V58.4422Z" fill="black"/>
</svg>
