<svg width="100" height="100" viewBox="0 0 100 100" fill="none" xmlns="http://www.w3.org/2000/svg">
<path fill-rule="evenodd" clip-rule="evenodd" d="M79.6599 37C75.1108 37 71.1402 39.4958 69 43.2066C70.1629 45.154 70.7758 47.3869 70.7722 49.6628C70.7722 51.9577 70.1586 54.1058 69.0909 55.9573C71.2527 59.5783 75.1768 62 79.6599 62C86.475 62 92 56.406 92 49.5021C92 42.5982 86.475 37 79.6599 37Z" fill="#4F86BE"/>
<path fill-rule="evenodd" clip-rule="evenodd" d="M73.0005 46.5804C73.0196 46.2567 73.0457 45.9563 73.0864 45.6306C73.7632 41.6799 76.5964 39.5306 80.9619 40.0868C81.3425 40.1551 81.7254 40.223 82.0857 40.3381C85.8663 41.4955 87.2156 45.8389 84.7623 49.0525C84.4023 49.538 84.0224 49.9545 83.6378 50.2752L82.311 51.3164L80.174 53.0046H85.9116V57H73.0196V54.0891L77.9484 49.7911C78.148 49.5825 78.3736 49.3973 78.5771 49.1676C79.8357 47.8963 80.3315 47.2484 80.5341 46.7648C80.8494 46.0006 80.8494 45.6527 80.5341 45.1463C80.3318 44.7756 79.9032 44.5454 79.3655 44.5225C78.5084 44.5225 77.97 45.1463 77.97 46.3009C77.97 46.3939 77.9929 46.4866 77.9929 46.5789H73V46.5804H73.0005Z" fill="white"/>
<path fill-rule="evenodd" clip-rule="evenodd" d="M58.3784 37C53.2981 37 48.8795 39.969 46.8902 44.2796C46.9244 43.3744 46.7656 42.5612 46.5128 41.7503C45.5973 39.0622 42.7251 37.4045 39.9175 37.2812H29V61.8439H38.4982C39.9168 61.8439 41.3366 61.8439 42.5679 61.3416C45.1248 60.3749 46.7969 57.9044 46.9544 54.8119C48.9758 59.062 53.3282 62 58.3784 62C65.3503 62 71 56.4044 71 49.4996C71 42.5919 65.3503 37 58.3784 37ZM58.3784 55.6566C54.9387 55.6566 52.1627 52.9052 52.1627 49.4991C52.1627 46.0909 54.9387 43.3113 58.3784 43.3113C61.8173 43.3113 64.5954 46.0916 64.5954 49.4991C64.5954 52.9052 61.8173 55.6566 58.3784 55.6566ZM43.1666 49.5301C44.2732 49.7477 45.282 50.5617 45.8501 51.5621C45.6615 50.3102 45.6929 49.0612 45.8501 47.8419C45.2178 48.7158 44.2093 49.3422 43.1666 49.5301ZM40.1082 55.434C39.7595 55.9358 39.2873 56.2175 38.6862 56.2175H35.3732V52.2794H38.8748C39.4427 52.3407 39.9823 52.7181 40.2641 53.2495C40.6108 53.9032 40.5157 54.8421 40.1082 55.434ZM38.7176 42.9342H35.3737V46.842H38.1816C38.8754 46.8746 39.5388 46.7811 39.9486 46.2183C40.4856 45.5615 40.4856 44.498 40.1087 43.7805C39.8554 43.3118 39.2883 42.9675 38.7176 42.9342Z" fill="black"/>
<path fill-rule="evenodd" clip-rule="evenodd" d="M57.9992 45C55.25 45 53 46.9927 53 49.5014C53 51.9748 55.2506 54 57.9992 54C60.785 54 63 51.9748 63 49.5014C63 46.9927 60.785 45 57.9992 45Z" fill="black"/>
<path fill-rule="evenodd" clip-rule="evenodd" d="M20.1963 46.3818H15.8043V37H9V62H15.8043V52.5538H20.1963V62H27V37H20.1963V46.3818Z" fill="black"/>
</svg>
