<svg width="100" height="100" viewBox="0 0 100 100" fill="none" xmlns="http://www.w3.org/2000/svg">
<g clip-path="url(#clip0_837_390)">
<path fill-rule="evenodd" clip-rule="evenodd" d="M33.0597 66.8021H24.082V53.878H18.2542V66.8021H9V33.4922H18.2542V45.8832H24.082V33.4922H33.0597V66.8021Z" fill="black"/>
<path fill-rule="evenodd" clip-rule="evenodd" d="M74.1896 56.5677C77.8325 56.5677 80.7859 53.5895 80.7859 49.9147C80.7859 46.2409 77.8325 43.2622 74.1896 43.2622C70.5462 43.2622 67.5931 46.2409 67.5931 49.9147C67.5931 53.5895 70.5462 56.5677 74.1896 56.5677ZM65.7986 49.9147C65.7986 45.2412 69.5551 41.4521 74.1896 41.4521C78.8239 41.4521 82.5811 45.2412 82.5811 49.9147C82.5811 54.589 78.8239 58.3779 74.1896 58.3779C69.5551 58.3779 65.7986 54.589 65.7986 49.9147ZM54.1144 49.9147C55.1527 49.7821 56.8835 48.5848 57.4932 47.8206C57.2789 48.7682 57.2625 51.5108 57.513 52.4584C56.8171 51.3778 55.1694 50.0478 54.1144 49.9147ZM48.0819 40.9554C49.4005 40.9554 50.439 42.2682 50.439 43.7645C50.439 45.2607 49.4005 46.5744 48.0819 46.5744H43.5495V40.9554H48.0819ZM48.0653 53.4389C49.3838 53.4389 50.4224 54.7524 50.4224 56.2481C50.4224 57.7445 49.3838 59.0575 48.0653 59.0575H43.533V53.4389H48.0653ZM74.1841 66.9662C83.4194 66.9626 90.935 59.2237 90.9329 49.9081C90.9311 40.3961 83.4194 33.007 74.1841 33C64.9594 32.9933 60.2461 39.8416 59.0815 42.6058C59.0924 38.4562 55.0371 33.5583 50.2935 33.553H35.0104V66.8007L49.2595 66.8035C55.0043 66.8035 59.0922 61.7831 59.0992 57.4781C60.4105 60.1875 64.9594 66.9695 74.1841 66.9663V66.9662Z" fill="black"/>
</g>
<defs>
<clipPath id="clip0_837_390">
<rect width="82" height="34" fill="white" transform="translate(9 33)"/>
</clipPath>
</defs>
</svg>
