<svg width="100" height="100" viewBox="0 0 100 100" fill="none" xmlns="http://www.w3.org/2000/svg">
<g clip-path="url(#clip0_837_393)">
<path fill-rule="evenodd" clip-rule="evenodd" d="M33.0597 66.8021H24.082V53.878H18.2542V66.8021H9V33.4922H18.2542V45.8832H24.082V33.4922H33.0597V66.8021Z" fill="black"/>
<path fill-rule="evenodd" clip-rule="evenodd" d="M74.1897 56.5677C77.8326 56.5677 80.7859 53.5895 80.7859 49.9147C80.7859 46.2409 77.8326 43.2622 74.1897 43.2622C70.5462 43.2622 67.5932 46.2409 67.5932 49.9147C67.5932 53.5895 70.5462 56.5677 74.1897 56.5677ZM65.7986 49.9147C65.7986 45.2412 69.5552 41.4521 74.1897 41.4521C78.824 41.4521 82.5812 45.2412 82.5812 49.9147C82.5812 54.589 78.824 58.3779 74.1897 58.3779C69.5552 58.3779 65.7986 54.589 65.7986 49.9147ZM54.1145 49.9147C55.1527 49.7821 56.8835 48.5848 57.4933 47.8206C57.279 48.7682 57.2626 51.5108 57.5131 52.4584C56.8172 51.3778 55.1695 50.0478 54.1145 49.9147ZM48.082 40.9554C49.4006 40.9554 50.4391 42.2682 50.4391 43.7645C50.4391 45.2607 49.4006 46.5744 48.082 46.5744H43.5496V40.9554H48.082ZM48.0654 53.4389C49.3839 53.4389 50.4225 54.7524 50.4225 56.2481C50.4225 57.7445 49.3839 59.0575 48.0654 59.0575H43.533V53.4389H48.0654ZM74.1841 66.9662C83.4195 66.9626 90.9351 59.2237 90.933 49.9081C90.9312 40.3961 83.4195 33.007 74.1841 33C64.9595 32.9933 60.2461 39.8416 59.0816 42.6058C59.0924 38.4562 55.0372 33.5583 50.2936 33.553H35.0105V66.8007L49.2595 66.8035C55.0044 66.8035 59.0923 61.7831 59.0992 57.4781C60.4106 60.1875 64.9595 66.9695 74.1841 66.9663V66.9662Z" fill="black"/>
</g>
<defs>
<clipPath id="clip0_837_393">
<rect width="82" height="34" fill="white" transform="translate(9 33)"/>
</clipPath>
</defs>
</svg>
