<svg width="100" height="100" viewBox="0 0 100 100" fill="none" xmlns="http://www.w3.org/2000/svg">
<path d="M69.2029 66.5179L70.3754 70.2742L71.6311 66.5179H72.8C72.8 66.5179 70.6534 72.3335 70.3754 72.9276C70.1177 73.4703 70.0339 73.5768 69.6576 73.8256C69.4347 73.9746 68.856 73.9974 68.414 74L68.0358 73.9998V73.0385C68.2629 73.0548 68.8572 73.0661 69.1154 72.9282C69.4166 72.7015 69.747 71.8206 69.8046 71.6623L69.8134 71.6379L69.8266 71.6059L68.0064 66.5179H69.2029ZM61.4611 66.4114C61.8511 66.4114 62.1926 66.4841 62.4844 66.6351C62.7785 66.783 63.023 66.9835 63.2177 67.2361C63.4124 67.488 63.5598 67.7807 63.6592 68.1134C63.7569 68.4475 63.8066 68.799 63.8066 69.1675C63.8066 69.2183 63.8048 69.2722 63.803 69.3261C63.7994 69.3837 63.7934 69.4382 63.7886 69.4965H60.1885C60.2508 69.9176 60.4102 70.2385 60.6672 70.4641C60.9255 70.6853 61.234 70.7969 61.5995 70.7969C61.8804 70.7969 62.1183 70.7449 62.3238 70.6427C62.5257 70.5393 62.727 70.3858 62.9253 70.1865L63.5861 70.7969C63.3507 71.087 63.0685 71.3227 62.7462 71.495C62.4209 71.6698 62.032 71.7588 61.5815 71.7588C61.2286 71.7588 60.8985 71.693 60.5905 71.5652C60.2862 71.4348 60.0196 71.2518 59.7937 71.0187C59.5696 70.7881 59.3899 70.5073 59.2617 70.1815C59.1311 69.8562 59.0682 69.4928 59.0682 69.0998V69.081C59.0682 68.7119 59.1263 68.3641 59.2431 68.0407C59.3618 67.7168 59.5259 67.4354 59.7416 67.1929C59.9537 66.9491 60.2047 66.7592 60.4953 66.6207C60.7853 66.4828 61.1094 66.4114 61.4611 66.4114ZM51.2772 66.4114C51.6559 66.4114 52.004 66.4828 52.3227 66.6207C52.6396 66.7592 52.9158 66.9491 53.1471 67.1929C53.3813 67.4354 53.5617 67.7168 53.6887 68.0357C53.8211 68.3572 53.8852 68.7006 53.8852 69.0691V69.0892C53.8852 69.4526 53.8187 69.7948 53.6845 70.1169C53.5527 70.4409 53.3688 70.7248 53.1387 70.9673C52.9056 71.2086 52.6276 71.4016 52.3083 71.5457C51.9878 71.6861 51.6361 71.7588 51.2593 71.7588C50.8884 71.7588 50.5427 71.6874 50.2252 71.5483C49.9058 71.411 49.6308 71.2218 49.399 70.9811C49.1683 70.7417 48.9868 70.4628 48.8562 70.1382C48.7268 69.8136 48.6621 69.4715 48.6621 69.1086V69.0892C48.6621 68.7201 48.728 68.3735 48.8604 68.0508C48.9946 67.7293 49.1779 67.446 49.4104 67.2016C49.641 66.9579 49.9166 66.7673 50.236 66.6238C50.5535 66.4828 50.901 66.4114 51.2772 66.4114ZM46.3998 66.4114C47.2329 66.4114 47.783 66.7028 48.2162 67.1398L48.3565 67.2906L47.6592 68.079C47.3153 67.6986 46.9546 67.4379 46.3902 67.4379C45.5718 67.4379 44.9805 68.1755 44.9805 69.0773C44.9805 69.9997 45.582 70.7355 46.4453 70.7355C46.9082 70.7355 47.2642 70.5359 47.582 70.2328L47.7161 70.0969L48.3937 70.795C47.9126 71.3571 47.344 71.7544 46.3902 71.7544C44.9326 71.7544 43.8589 70.5619 43.8589 69.0986C43.8589 67.6315 44.9326 66.4114 46.3998 66.4114ZM41.4409 66.4296C41.7512 66.4296 42.064 66.4828 42.3797 66.5862C42.6174 66.6624 42.8369 66.7632 43.0415 66.8845L43.2412 67.0124L42.7955 67.8484C42.5612 67.6986 42.3234 67.5789 42.0819 67.4924C41.8393 67.4059 41.6176 67.3633 41.4163 67.3633C41.1964 67.3633 41.0293 67.4103 40.9089 67.5056C40.8186 67.5798 40.7629 67.6685 40.7408 67.7707L40.7297 67.8772V67.896C40.7297 67.9869 40.7603 68.0671 40.8202 68.1316C40.8807 68.2024 40.964 68.2638 41.067 68.3171C41.1677 68.3716 41.2845 68.423 41.4187 68.4675C41.5505 68.5145 41.6877 68.5634 41.8315 68.6142C42.0119 68.6718 42.191 68.7376 42.3695 68.8172C42.5511 68.8949 42.711 68.9914 42.856 69.1042C43.0016 69.2164 43.1202 69.353 43.2137 69.5159C43.2842 69.6367 43.3282 69.7776 43.3457 69.9394L43.3545 70.1082V70.1288C43.3545 70.3977 43.3077 70.6346 43.2137 70.8357C43.1202 71.0375 42.992 71.2036 42.8314 71.3352C42.6637 71.4662 42.4732 71.5677 42.2497 71.6379C42.0268 71.7037 41.786 71.7375 41.5356 71.7375C41.1815 71.7375 40.8244 71.673 40.4643 71.5457C40.1925 71.448 39.9355 71.3164 39.6938 71.1501L39.4572 70.9723L39.9581 70.1758C40.2247 70.3826 40.4925 70.5393 40.7693 70.6458C41.0437 70.7543 41.3085 70.8088 41.5625 70.8088C41.804 70.8088 41.9909 70.7555 42.1233 70.6559C42.2244 70.5811 42.2864 70.4867 42.3111 70.373L42.3234 70.2529V70.2354C42.3234 70.1382 42.2952 70.053 42.2365 69.9816C42.1754 69.9107 42.0969 69.8475 41.9921 69.7929C41.8908 69.7384 41.7764 69.6902 41.6416 69.6475C41.5092 69.6043 41.369 69.5623 41.2282 69.5159C41.0479 69.4652 40.8687 69.4031 40.6866 69.3311C40.5027 69.2615 40.3397 69.1681 40.1941 69.0553C40.0479 68.9432 39.9311 68.8022 39.8376 68.6336C39.7671 68.5067 39.7239 68.359 39.7066 68.1889L39.6981 68.0113V67.9931C39.6981 67.7493 39.7424 67.5281 39.8329 67.3382C39.9197 67.1465 40.0455 66.9835 40.2037 66.8482C40.3619 66.7128 40.5458 66.6088 40.7603 66.5373C40.9742 66.4672 41.2012 66.4296 41.4409 66.4296ZM55.1368 66.5179L56.453 70.2843L57.7795 66.5179H58.9597L56.9545 71.6799H55.9444L53.9289 66.5179H55.1368ZM29.79 66.2317C31.2213 66.2317 32.38 67.4462 32.38 68.9414C32.38 70.4367 31.2213 71.6486 29.79 71.6486C28.3605 71.6486 27.2 70.4367 27.2 68.9414C27.2 67.4462 28.3605 66.2317 29.79 66.2317ZM38.6909 66.5179V71.6423H37.5694V66.5179H38.6909ZM65.7681 66.5179V67.3646C66.1388 66.8842 66.7108 66.6721 67.1125 66.5791L67.2731 66.5461L67.6566 67.5262C67.1695 67.6021 66.2271 67.8653 65.8886 68.799C65.8216 68.9847 65.7873 69.2003 65.7744 69.4416L65.7681 69.6914V71.6423H64.6466V66.5179H65.7681ZM33.469 64.8127C35.5108 64.8127 36.9193 66.2767 36.9193 68.1974C36.9193 70.1169 35.5108 71.6003 33.469 71.6003H31.4967C31.8963 71.3239 32.2276 70.9523 32.4655 70.5161H33.469C34.832 70.5161 35.7241 69.5554 35.7241 68.2162C35.7241 66.8783 34.832 65.9 33.469 65.9H32.1917V66.8964C32.0036 66.6545 31.7831 66.4352 31.538 66.2585C31.3853 66.1463 31.2217 66.0523 31.0516 65.9746V64.8127H33.469ZM51.2593 67.441C51.0358 67.441 50.8345 67.4811 50.6517 67.5689C50.469 67.6579 50.3127 67.775 50.1838 67.9211C50.0544 68.0671 49.9538 68.2375 49.8861 68.433C49.8178 68.633 49.7842 68.8435 49.7842 69.0691V69.0892C49.7842 69.3104 49.822 69.521 49.8963 69.7202C49.9688 69.9227 50.0742 70.0969 50.2066 70.2492C50.3396 70.4021 50.4972 70.5211 50.6775 70.6076C50.862 70.6947 51.0621 70.7398 51.2772 70.7398C51.5055 70.7398 51.7116 70.6947 51.8955 70.6076C52.0771 70.5211 52.2334 70.4021 52.3634 70.2529C52.494 70.1063 52.5911 69.9308 52.6594 69.734C52.7271 69.536 52.7619 69.3286 52.7619 69.1086V69.0892C52.7619 68.8629 52.7229 68.6493 52.6504 68.4493C52.5767 68.2482 52.4713 68.0733 52.3419 67.9267C52.2065 67.775 52.0489 67.6579 51.868 67.5689C51.6858 67.4811 51.4821 67.441 51.2593 67.441ZM61.4503 67.3727C61.1046 67.3727 60.8206 67.4955 60.5905 67.7456C60.3665 67.9956 60.2287 68.1974 60.1795 68.5966H62.6935C62.6749 68.4092 62.6365 68.3572 62.5742 68.1911C62.5107 68.0276 62.4268 67.8803 62.3238 67.7594C62.2178 67.6378 62.0907 67.5419 61.9487 67.4736C61.8014 67.4059 61.6348 67.3727 61.4503 67.3727ZM17.6294 25V37.7356L17.6537 37.7001C17.9058 37.3409 20.1342 34.3777 25.0253 34.3777C31.2969 34.4154 33.1291 38.8576 33.2043 43.628L33.2067 43.9395V51.9285C33.2067 52.5034 33.296 53.7345 34.7025 53.7345C35.6453 53.7345 36.32 52.9367 36.7096 52.3001L36.801 52.1448L36.9113 52.3262C36.6692 51.5874 36.5094 50.8101 36.4592 50.0012C36.3985 49.0047 36.3887 46.7876 37.9312 44.4297C39.3524 42.2532 41.1991 41.3099 42.5448 40.6607C42.0076 39.695 41.1802 38.2251 41.0477 36.1025C40.7819 31.8587 44.0036 28.6562 47.8421 28.4125C51.509 28.1828 54.9966 30.6143 55.2541 34.7285C55.4522 37.8896 53.6104 40.3085 49.6561 42.1677C51.7846 45.0326 52.1167 45.4913 54.232 48.1399C54.232 48.1399 55.7135 46.3151 55.8232 42.8031L55.8296 42.3904H60.7139C60.3288 45.9346 59.7721 49.121 57.4893 51.7611C57.4893 51.7611 59.0405 53.5622 62.7933 53.3726L63.2039 53.3445V25.0665H68.8221V37.7776C68.8221 37.7776 71.0065 34.426 76.2019 34.426C82.4599 34.4637 84.2892 38.8972 84.3642 43.6573L84.3666 43.9682V51.9418C84.3666 52.516 84.4559 53.7422 85.8575 53.7422C86.5754 53.7422 87.2233 53.5342 87.7713 53.2401L88 53.1092V57.8824C86.9758 58.3607 85.7717 58.6877 84.3666 58.6877C79.6682 58.6877 78.5966 55.5323 78.5407 53.4309L78.5384 53.2534V45.3597C78.5349 43.3898 78.336 41.8141 77.7047 40.6768C77.1271 39.6153 76.1199 38.9919 74.7198 38.9135L74.4138 38.9051H74.3748C72.7255 38.9016 71.3448 39.4296 70.4211 40.6166C69.5577 41.7173 69.096 43.3328 69.0383 45.5276L69.0321 46.0068V58.0883H60.6183C56.7729 58.0883 54.7385 56.2367 54.0129 55.7185C52.9895 56.6505 51.1469 58.3768 47.1787 58.6268C43.8822 58.8347 41.1598 57.8181 39.279 56.0631L39.0161 55.8074C37.9298 57.1001 36.0141 58.6877 33.2067 58.6877C28.4931 58.6877 27.4226 55.5221 27.3681 53.4165L27.3659 53.2436V45.3331C27.3617 43.3603 27.1622 41.7819 26.5294 40.6411C25.9512 39.5777 24.9421 38.9541 23.539 38.8757L23.2323 38.8672H23.1939C21.5419 38.863 20.1584 39.3932 19.2319 40.5802C18.3665 41.6841 17.9041 43.3029 17.8463 45.5015L17.8401 45.9815V58.0883H12V25H17.6294ZM45.1778 44.6678C42.4667 46.317 41.5611 47.7666 41.6686 49.4977C41.7962 51.5335 43.6011 54.0707 47.0531 53.8536C49.123 53.7226 50.3628 52.7751 51.0235 52.2555C48.3012 48.906 47.6901 48.1188 45.1778 44.6678ZM48.3048 32.7377L48.1561 32.7411C47.2073 32.8013 45.8671 33.5373 45.9801 35.3567C46.0457 36.3959 46.5996 37.6221 47.1836 38.6277C49.3198 37.4933 50.6607 36.7566 50.5442 34.8966C50.4524 33.4325 49.3188 32.8244 48.4619 32.7462L48.3048 32.7377Z" fill="#F24B0E"/>
</svg>
