<svg width="100" height="100" viewBox="0 0 100 100" fill="none" xmlns="http://www.w3.org/2000/svg">
<path fill-rule="evenodd" clip-rule="evenodd" d="M49.7153 51.7112C66.1601 51.7112 80.8211 53.3955 90.5295 55.971C82.3076 51.6123 67.151 48.5409 49.7153 48.5409C32.3794 48.5409 17.2224 51.6123 9 55.971C18.7084 53.3955 33.3699 51.7112 49.7153 51.7112Z" fill="#FED323"/>
<path fill-rule="evenodd" clip-rule="evenodd" d="M86.1709 68.3533L86.6664 69.8393L87.1619 68.3533H87.7563V70.4333H87.3602V68.7498L86.8647 70.4333H86.5671L85.9731 68.7498V70.4333H85.577V68.3533H86.1709ZM83.5955 68.7503V68.3537H85.2793V68.7503H84.586V70.4337H84.1899V68.7503H83.5955Z" fill="#EB5338"/>
<path fill-rule="evenodd" clip-rule="evenodd" d="M21.6804 67.8582C22.0766 69.7408 22.4727 70.9292 22.4727 70.9292H19.4017C19.4017 70.9292 18.3123 68.3537 18.3123 62.9055C18.3123 58.0513 19.9961 55.4758 19.9961 55.4758H29.4073V57.952H22.1759C22.1759 57.952 21.5815 59.5378 21.3832 60.924C21.2839 61.7163 21.3832 62.0135 21.3832 62.0135H26.5346V64.1933L21.3832 64.2922C21.3832 64.2917 21.4826 66.2733 21.6804 67.8582Z" fill="#0065AD"/>
<path fill-rule="evenodd" clip-rule="evenodd" d="M36.8371 66.2733C36.8371 67.8583 37.4315 68.8488 38.7192 69.8398L36.3416 71.1275C35.8465 70.8303 35.2521 70.137 35.0538 69.8398C35.0538 69.8398 33.865 71.2273 31.8839 71.2273C29.7046 71.2273 27.6241 69.7413 27.6241 67.6608C27.6241 65.2828 29.9029 63.8961 32.5773 63.8961C33.0728 63.8961 33.9644 63.8961 33.9644 63.8961C33.9644 62.9056 33.271 62.2118 32.0822 62.2118C31.5867 62.2118 30.6956 62.4101 30.1011 62.8066L29.0117 60.7258C29.0117 60.7258 30.2005 59.8346 32.0827 59.8346C35.2525 59.8346 36.8379 61.6178 36.8379 63.995V66.2733H36.8371ZM33.9644 65.9761C33.9644 65.9761 32.6766 65.9761 32.5773 65.9761C30.794 65.9761 30.4968 66.9666 30.4968 67.6604C30.4968 68.3533 31.2895 68.7499 31.9829 68.7499C33.1717 68.7499 34.0633 67.7593 34.0633 67.7593C34.0633 67.7593 33.9644 66.8673 33.9644 65.9761Z" fill="#00A0DD"/>
<path fill-rule="evenodd" clip-rule="evenodd" d="M49.121 61.4192C49.121 61.4192 50.8048 59.7349 52.4891 59.7349C54.4707 59.7349 56.2539 61.0235 56.2539 63.0041V70.9293H53.3812V64.2923C53.3812 63.5 53.3812 62.6089 52.1919 62.6089C51.0031 62.6089 49.9137 64.3921 49.9137 64.3921V70.9297H47.041V64.2927C47.041 63.5005 47.041 62.6093 45.9511 62.6093C44.6633 62.6093 43.6724 64.3925 43.6724 64.3925V70.9302H40.7997V64.7882C40.7997 63.2033 40.2053 62.2127 38.8186 61.2218L41.2952 59.934C41.9885 60.4295 42.7812 61.519 42.7812 61.519C42.7812 61.519 44.5644 59.7357 46.1494 59.7357C48.1304 59.7349 49.022 61.3207 49.121 61.4192Z" fill="#A1C83F"/>
<path fill-rule="evenodd" clip-rule="evenodd" d="M62.8908 56.7637C62.8908 57.6548 62.0986 58.4471 61.1076 58.4471C60.216 58.4471 59.4237 57.6548 59.4237 56.7637C59.4237 55.8716 60.216 55.1787 61.1076 55.1787C62.0986 55.1787 62.8908 55.8716 62.8908 56.7637ZM59.7209 60.1314H62.594V70.9288H59.7209V60.1314Z" fill="#FED323"/>
<path fill-rule="evenodd" clip-rule="evenodd" d="M66.2594 54.7821H69.231V70.9292H66.2594V54.7821Z" fill="#F19128"/>
<path fill-rule="evenodd" clip-rule="evenodd" d="M73.788 75.5855C74.8775 73.9012 76.1652 71.8208 76.1652 71.8208L71.311 60.6264L74.1842 59.9326L77.7506 68.65C77.7506 68.65 78.4444 66.9666 79.0384 64.8862C79.93 61.9141 80.1283 59.9326 80.1283 59.9326L83.0009 60.6264C83.0009 60.6264 81.6138 67.3623 79.3356 71.9193C77.2556 76.1791 74.0852 79.8445 74.0852 79.8445L71.708 78.3593C71.7076 78.3593 72.5003 77.5662 73.788 75.5855Z" fill="#EB5338"/>
<path fill-rule="evenodd" clip-rule="evenodd" d="M39.0164 44.6777H32.6766V35.663H28.6151V44.6777H22.077V21.2987H28.6151V30.0161H32.6766V21.2987H39.0164V44.6777ZM68.0422 44.7766C74.5803 44.7766 79.9295 39.328 79.9295 32.7899C79.9295 26.1529 74.5803 21.0015 68.0422 21.0015C61.5037 20.9021 58.136 25.7568 57.3433 27.6385C57.3433 24.7658 54.4702 21.2987 51.1024 21.2987H40.3041V44.6777H50.4087C54.4702 44.6777 57.3433 41.1112 57.3433 38.1396C58.3338 40.0217 61.5037 44.7766 68.0422 44.7766ZM49.6164 35.2665C50.508 35.2665 51.2014 36.1581 51.2014 37.248C51.2014 38.3374 50.508 39.229 49.6164 39.229H46.3472V35.2665H49.6164ZM49.6164 26.549C50.508 26.549 51.2014 27.4406 51.2014 28.5301C51.2014 29.5206 50.508 30.5116 49.6164 30.5116H46.3472V26.549H49.6164ZM53.8766 32.7899C54.57 32.691 55.7583 31.8983 56.2538 31.3039C56.0556 31.9972 56.0556 33.9787 56.2538 34.5727C55.7583 33.8798 54.5695 32.8893 53.8766 32.7899ZM62.0986 32.7899C62.0986 29.5211 64.7734 26.8462 68.0427 26.8462C71.3115 26.8462 73.9863 29.5211 73.9863 32.7899C73.9863 36.0591 71.3115 38.734 68.0427 38.734C64.773 38.734 62.0986 36.0591 62.0986 32.7899ZM68.0422 37.4462C70.6177 37.4462 72.6981 35.3658 72.6981 32.7899C72.6981 30.2144 70.6181 28.134 68.0422 28.134C65.4663 28.134 63.3859 30.2144 63.3859 32.7899C63.3863 35.3658 65.4663 37.4462 68.0422 37.4462Z" fill="#040607"/>
</svg>
