<svg width="100" height="100" viewBox="0 0 100 100" fill="none" xmlns="http://www.w3.org/2000/svg">
<g clip-path="url(#clip0_837_401)">
<path d="M48.8968 55.407C64.6606 55.407 78.7535 57.0063 88.1178 59.5188C80.2213 55.2432 65.6132 52.3706 48.8968 52.3706C32.1805 52.3706 17.5724 55.2432 9.67584 59.5188C19.0418 57.0063 33.1346 55.407 48.8968 55.407Z" fill="#B73722"/>
<path d="M23.5606 66.6005C23.5606 64.8876 23.5606 64.5729 23.5395 64.2112C23.5167 63.8284 23.4078 63.6371 23.1656 63.5803C23.0453 63.5478 22.9023 63.5365 22.7706 63.5365C22.6601 63.5365 22.5951 63.5138 22.5951 63.4229C22.5951 63.3548 22.6829 63.3337 22.8584 63.3337C23.2762 63.3337 23.967 63.3662 24.2856 63.3662C24.5603 63.3662 25.2088 63.3337 25.6266 63.3337C25.768 63.3337 25.8558 63.3548 25.8558 63.4229C25.8558 63.5138 25.7908 63.5365 25.6802 63.5365C25.5713 63.5365 25.4836 63.5478 25.3519 63.5689C25.0544 63.6257 24.9667 63.8171 24.9455 64.2112C24.9228 64.5729 24.9228 64.8876 24.9228 66.6005V68.5842C24.9228 69.6774 24.9228 70.5679 24.9666 71.0529C24.9992 71.3562 25.0772 71.5589 25.4055 71.6043C25.5599 71.627 25.8021 71.6498 25.9663 71.6498C26.0866 71.6498 26.1419 71.6822 26.1419 71.739C26.1419 71.8184 26.0541 71.8525 25.9338 71.8525C25.2088 71.8525 24.5164 71.8184 24.2206 71.8184C23.967 71.8184 23.2762 71.8525 22.8357 71.8525C22.6942 71.8525 22.6162 71.8184 22.6162 71.739C22.6162 71.6822 22.6601 71.6498 22.7918 71.6498C22.9576 71.6498 23.0892 71.627 23.1884 71.6043C23.4078 71.5589 23.4728 71.3675 23.507 71.0415C23.5606 70.5679 23.5606 69.6774 23.5606 68.5842V66.6005" fill="#B73722"/>
<path d="M35.1925 71.0966C35.1925 71.4015 35.1827 71.4242 35.0494 71.5021C34.3359 71.8865 33.2598 72.0097 32.4032 72.0097C29.713 72.0097 27.3301 70.7024 27.3301 67.593C27.3301 65.7894 28.242 64.5274 29.24 63.9078C30.2949 63.2542 31.2718 63.1747 32.1951 63.1747C32.9526 63.1747 33.9197 63.3109 34.1392 63.3547C34.37 63.4001 34.7536 63.4683 35.0072 63.4796C35.1388 63.491 35.16 63.5364 35.16 63.6142C35.16 63.7391 35.0836 64.0538 35.0836 65.4633C35.0836 65.6434 35.0494 65.7001 34.9633 65.7001C34.8853 65.7001 34.8641 65.6434 34.8528 65.5525C34.8202 65.293 34.765 64.9329 34.4789 64.6183C34.1506 64.2566 33.2712 63.7391 32.0309 63.7391C31.4263 63.7391 30.6249 63.7846 29.8561 64.4382C29.24 64.967 28.845 65.8121 28.845 67.1973C28.845 69.6205 30.3502 71.4355 32.6665 71.4355C32.9526 71.4355 33.3378 71.4355 33.6011 71.3107C33.7653 71.2328 33.8092 71.0852 33.8092 70.8938V69.8346C33.8092 69.2718 33.8092 68.8436 33.7978 68.5046C33.7881 68.1218 33.6889 67.9417 33.3264 67.8623C33.2387 67.8396 33.0517 67.8298 32.8973 67.8298C32.7982 67.8298 32.7331 67.8071 32.7331 67.739C32.7331 67.6482 32.8095 67.6255 32.964 67.6255C33.5345 67.6255 34.227 67.6595 34.5553 67.6595C34.8966 67.6595 35.4786 67.6255 35.841 67.6255C35.9841 67.6255 36.0605 67.6482 36.0605 67.739C36.0605 67.8071 35.9955 67.8298 35.9174 67.8298C35.8297 67.8298 35.7533 67.8396 35.6216 67.8623C35.3241 67.919 35.2152 68.1104 35.2039 68.5046C35.1925 68.8436 35.1925 69.2945 35.1925 69.8573V71.0966" fill="#B73722"/>
<path d="M38.8775 70.3196C38.9002 71.1987 39.0416 71.4907 39.2627 71.5702C39.448 71.6383 39.6577 71.6497 39.8332 71.6497C39.9535 71.6497 40.0202 71.6724 40.0202 71.7389C40.0202 71.8297 39.921 71.8524 39.7666 71.8524C39.053 71.8524 38.6141 71.8183 38.4061 71.8183C38.3069 71.8183 37.79 71.8524 37.2195 71.8524C37.0765 71.8524 36.9773 71.8411 36.9773 71.7389C36.9773 71.6724 37.0439 71.6497 37.1528 71.6497C37.2959 71.6497 37.4942 71.6383 37.647 71.5929C37.9331 71.5021 37.977 71.176 37.9883 70.1963L38.0875 63.525C38.0875 63.2996 38.12 63.1406 38.2289 63.1406C38.3508 63.1406 38.45 63.2882 38.6353 63.491C38.7686 63.637 40.4363 65.4747 42.0406 67.108C42.7867 67.8736 44.2692 69.4973 44.4561 69.6773H44.5114L44.4008 64.6183C44.3911 63.9305 44.2919 63.7164 44.0286 63.6029C43.8628 63.5364 43.5995 63.5364 43.4467 63.5364C43.315 63.5364 43.2711 63.5023 43.2711 63.4342C43.2711 63.345 43.3914 63.3336 43.5556 63.3336C44.1277 63.3336 44.6544 63.3661 44.8852 63.3661C45.0055 63.3661 45.4232 63.3336 45.9613 63.3336C46.1043 63.3336 46.2132 63.345 46.2132 63.4342C46.2132 63.5023 46.1482 63.5364 46.0165 63.5364C45.906 63.5364 45.8182 63.5364 45.6866 63.5688C45.3794 63.6597 45.2916 63.8965 45.2802 64.5274L45.1599 71.6383C45.1599 71.8865 45.116 71.987 45.0169 71.987C44.8966 71.987 44.7633 71.8638 44.643 71.7389C43.9506 71.0625 42.5462 69.5865 41.4035 68.4267C40.2071 67.2086 38.988 65.8007 38.7897 65.5866H38.7572L38.8775 70.3196" fill="#B73722"/>
<path d="M49.1049 68.9118C49.0512 68.9118 49.0285 68.9329 49.0074 69.001L48.4141 70.6117C48.3035 70.8939 48.2483 71.1648 48.2483 71.2994C48.2483 71.5022 48.3474 71.6498 48.6888 71.6498H48.8529C48.9846 71.6498 49.0171 71.6725 49.0171 71.739C49.0171 71.8298 48.9521 71.8525 48.8302 71.8525C48.4791 71.8525 48.0077 71.8184 47.6663 71.8184C47.5461 71.8184 46.9414 71.8525 46.3708 71.8525C46.2278 71.8525 46.1628 71.8298 46.1628 71.739C46.1628 71.6725 46.2067 71.6498 46.2944 71.6498C46.3936 71.6498 46.5464 71.6384 46.6342 71.6271C47.1397 71.5589 47.3477 71.1761 47.5672 70.6117L50.324 63.5365C50.4556 63.2088 50.5223 63.0856 50.6312 63.0856C50.7304 63.0856 50.797 63.1861 50.9059 63.4457C51.1692 64.0653 52.9264 68.6636 53.6302 70.3765C54.0479 71.3902 54.3665 71.5476 54.5957 71.6043C54.7615 71.6384 54.9257 71.6498 55.0574 71.6498C55.1451 71.6498 55.2004 71.6611 55.2004 71.739C55.2004 71.8298 55.1012 71.8525 54.6949 71.8525C54.2999 71.8525 53.4985 71.8525 52.6191 71.8298C52.4225 71.8184 52.2908 71.8185 52.2908 71.739C52.2908 71.6725 52.3347 71.6498 52.4436 71.6384C52.52 71.6157 52.598 71.5135 52.5427 71.3789L51.665 68.9897C51.6422 68.9329 51.6097 68.9118 51.5545 68.9118H49.1049V68.9118ZM51.3464 68.3474C51.4 68.3474 51.4114 68.3133 51.4001 68.2792L50.4118 65.4959C50.402 65.4521 50.3906 65.3953 50.3565 65.3953C50.324 65.3953 50.3029 65.4521 50.2915 65.4959L49.2804 68.2679C49.2707 68.3133 49.2804 68.3474 49.3243 68.3474H51.3464" fill="#B73722"/>
<path d="M57.8174 63.9646L56.1822 64.0084C55.545 64.0311 55.2817 64.0879 55.1159 64.336C55.007 64.5047 54.9517 64.6394 54.929 64.7302C54.9078 64.821 54.8753 64.8648 54.8087 64.8648C54.7323 64.8648 54.7095 64.8097 54.7095 64.6848C54.7095 64.5047 54.9192 63.4796 54.9403 63.3888C54.9745 63.2428 55.007 63.1747 55.072 63.1747C55.1598 63.1747 55.2703 63.2882 55.545 63.3109C55.8636 63.345 56.2797 63.3661 56.6438 63.3661H60.992C61.3431 63.3661 61.5853 63.3336 61.7494 63.3109C61.9152 63.2769 62.0014 63.2542 62.0469 63.2542C62.1233 63.2542 62.1347 63.3223 62.1347 63.491C62.1347 63.7278 62.1005 64.5047 62.1005 64.7983C62.0908 64.9102 62.068 64.9784 62.0014 64.9784C61.9152 64.9784 61.8925 64.9216 61.8811 64.7529L61.8697 64.6296C61.8486 64.336 61.5528 64.0197 60.5742 63.997L59.191 63.9646V68.5841C59.191 69.6205 59.191 70.511 59.2462 70.996C59.2787 71.3107 59.3437 71.5588 59.6737 71.6042C59.8281 71.6269 60.0703 71.6497 60.2345 71.6497C60.3548 71.6497 60.4101 71.6821 60.4101 71.7389C60.4101 71.8183 60.3223 71.8524 60.2004 71.8524C59.477 71.8524 58.7846 71.8183 58.4774 71.8183C58.2238 71.8183 57.533 71.8524 57.0941 71.8524C56.9511 71.8524 56.873 71.8183 56.873 71.7389C56.873 71.6821 56.9169 71.6497 57.0486 71.6497C57.2144 71.6497 57.346 71.6269 57.4452 71.6042C57.6646 71.5588 57.7296 71.3107 57.7638 70.9846C57.8174 70.511 57.8174 69.6205 57.8174 68.5841V63.9646" fill="#B73722"/>
<path d="M63.687 66.6005C63.687 64.8876 63.687 64.5729 63.6642 64.2112C63.6431 63.8284 63.5553 63.6484 63.1928 63.5689C63.1051 63.5478 62.9181 63.5365 62.7637 63.5365C62.6434 63.5365 62.5768 63.5138 62.5768 63.4343C62.5768 63.3548 62.6548 63.3337 62.819 63.3337C63.4009 63.3337 64.0933 63.3662 64.4217 63.3662C64.6866 63.3662 65.3775 63.3337 65.7725 63.3337C65.9383 63.3337 66.0147 63.3548 66.0147 63.4343C66.0147 63.5138 65.9496 63.5365 65.8391 63.5365C65.7188 63.5365 65.6522 63.5478 65.5205 63.5689C65.2247 63.6257 65.1369 63.8171 65.1141 64.2112C65.0914 64.5729 65.0914 64.8876 65.0914 66.6005V68.1787C65.0914 69.812 65.41 70.4998 65.9496 70.9507C66.4438 71.3675 66.9477 71.4129 67.3215 71.4129C67.8043 71.4129 68.3976 71.254 68.8365 70.8047C69.4412 70.1851 69.4737 69.1697 69.4737 68.01V66.6005C69.4737 64.8876 69.4736 64.5729 69.4525 64.2112C69.4298 63.8284 69.342 63.6484 68.9795 63.5689C68.8917 63.5478 68.7048 63.5365 68.5845 63.5365C68.4642 63.5365 68.3976 63.5138 68.3976 63.4343C68.3976 63.3548 68.474 63.3337 68.6284 63.3337C69.1892 63.3337 69.88 63.3662 69.8914 63.3662C70.0231 63.3662 70.7155 63.3337 71.143 63.3337C71.2974 63.3337 71.3738 63.3548 71.3738 63.4343C71.3738 63.5138 71.3088 63.5365 71.1771 63.5365C71.0552 63.5365 70.9902 63.5478 70.8586 63.5689C70.5611 63.6257 70.4733 63.8171 70.4522 64.2112C70.4294 64.5729 70.4294 64.8876 70.4294 66.6005V67.8072C70.4294 69.0578 70.3091 70.3878 69.3859 71.1988C68.6073 71.8866 67.8157 72.0098 67.1021 72.0098C66.5202 72.0098 65.4652 71.9758 64.6639 71.2329C64.1031 70.7139 63.687 69.8802 63.687 68.2468V66.6005" fill="#B73722"/>
<path d="M73.5195 66.6005C73.5195 64.8876 73.5195 64.5729 73.4967 64.2112C73.4756 63.8284 73.3878 63.6484 73.0253 63.5689C72.9376 63.5478 72.7506 63.5365 72.5962 63.5365C72.4759 63.5365 72.4093 63.5138 72.4093 63.4343C72.4093 63.3548 72.4873 63.3337 72.6515 63.3337C73.2334 63.3337 73.9259 63.3662 74.1551 63.3662C74.5289 63.3662 75.3644 63.3337 75.7041 63.3337C76.3966 63.3337 77.1313 63.4002 77.7246 63.8171C78.0318 64.0312 78.4723 64.607 78.4723 65.3612C78.4723 66.1949 78.131 66.9622 77.0224 67.8851C77.9993 69.147 78.7568 70.151 79.4053 70.8485C80.0198 71.5022 80.47 71.5816 80.6358 71.6157C80.7561 71.6384 80.8552 71.6498 80.943 71.6498C81.0308 71.6498 81.0747 71.6822 81.0747 71.739C81.0747 71.8298 80.9983 71.8525 80.8666 71.8525H79.8231C79.207 71.8525 78.9323 71.7957 78.6479 71.6384C78.1748 71.3789 77.7571 70.8485 77.1427 69.9823C76.7038 69.3611 76.1983 68.5955 76.0552 68.4268C76 68.3587 75.9349 68.3474 75.8585 68.3474L74.9028 68.3246C74.8475 68.3246 74.815 68.3474 74.815 68.4155V68.5728C74.815 69.6206 74.815 70.5111 74.8703 70.9847C74.9028 71.3108 74.9678 71.5589 75.2978 71.6043C75.4619 71.627 75.7041 71.6498 75.8358 71.6498C75.9236 71.6498 75.9675 71.6822 75.9675 71.739C75.9675 71.8184 75.8911 71.8525 75.748 71.8525C75.1108 71.8525 74.2981 71.8184 74.1339 71.8184C73.9259 71.8184 73.2334 71.8525 72.7945 71.8525C72.6515 71.8525 72.5751 71.8184 72.5751 71.739C72.5751 71.6822 72.619 71.6498 72.7506 71.6498C72.9148 71.6498 73.0465 71.627 73.1456 71.6043C73.3651 71.5589 73.4203 71.3108 73.4642 70.9847C73.5195 70.5111 73.5195 69.6206 73.5195 68.5842V66.6005V66.6005ZM74.815 67.4909C74.815 67.6142 74.8361 67.6596 74.9141 67.6937C75.145 67.7732 75.4733 67.8072 75.748 67.8072C76.1869 67.8072 76.3299 67.7618 76.5282 67.6142C76.8582 67.3677 77.1752 66.8486 77.1752 65.9241C77.1752 64.3248 76.143 63.8625 75.4961 63.8625C75.2214 63.8625 75.0231 63.8739 74.9141 63.9079C74.8361 63.9306 74.815 63.976 74.815 64.0653V67.4909" fill="#B73722"/>
<path d="M81.8142 66.6004C81.8142 64.8875 81.8142 64.5728 81.7915 64.2111C81.7703 63.8283 81.6826 63.6483 81.3201 63.5688C81.2323 63.5477 81.0454 63.5364 80.891 63.5364C80.7707 63.5364 80.704 63.5137 80.704 63.4342C80.704 63.3547 80.7821 63.3336 80.9462 63.3336C81.5282 63.3336 82.2206 63.3661 82.5278 63.3661C82.8789 63.3661 85.0652 63.3661 85.2732 63.3547C85.4813 63.3336 85.6568 63.3109 85.7446 63.2882C85.7999 63.2769 85.8665 63.2428 85.9218 63.2428C85.9754 63.2428 85.9868 63.2882 85.9868 63.345C85.9868 63.4228 85.9316 63.5591 85.899 64.0765C85.8877 64.1884 85.8665 64.6848 85.8438 64.821C85.8324 64.8762 85.8113 64.9443 85.7349 64.9443C85.6569 64.9443 85.6357 64.8875 85.6357 64.787C85.6357 64.7075 85.6243 64.5161 85.5691 64.3815C85.4927 64.1787 85.3838 64.0425 84.8344 63.976C84.6474 63.9532 83.4933 63.9305 83.2739 63.9305C83.2203 63.9305 83.1975 63.9646 83.1975 64.0424V66.8939C83.1975 66.9734 83.2089 67.0172 83.2739 67.0172C83.5161 67.0172 84.7791 67.0172 85.031 66.9945C85.2944 66.9734 85.4602 66.9394 85.5593 66.8258C85.6357 66.7366 85.6796 66.6798 85.7349 66.6798C85.7788 66.6798 85.8113 66.7025 85.8113 66.769C85.8113 66.8372 85.756 67.0172 85.7235 67.593C85.7007 67.8185 85.6796 68.2678 85.6796 68.3473C85.6796 68.4381 85.6796 68.5614 85.5805 68.5614C85.5041 68.5614 85.4813 68.5159 85.4813 68.4608C85.4716 68.3473 85.4716 68.2013 85.4374 68.0537C85.3838 67.8298 85.2293 67.6595 84.823 67.6141C84.6149 67.593 83.5275 67.5817 83.2625 67.5817C83.2089 67.5817 83.1975 67.6255 83.1975 67.6936V68.5841C83.1975 68.9669 83.1861 70.0033 83.1975 70.331C83.2203 71.1079 83.3958 71.2766 84.5158 71.2766C84.8002 71.2766 85.2619 71.2766 85.5479 71.142C85.8324 71.0073 85.9657 70.7705 86.0421 70.3083C86.0632 70.185 86.086 70.1396 86.1624 70.1396C86.2501 70.1396 86.2501 70.2288 86.2501 70.3423C86.2501 70.6018 86.1624 71.3674 86.1071 71.5929C86.0307 71.8865 85.9316 71.8865 85.5154 71.8865C83.8558 71.8865 83.1211 71.8183 82.4726 71.8183C82.2206 71.8183 81.5282 71.8524 81.0893 71.8524C80.9462 71.8524 80.8698 71.8183 80.8698 71.7389C80.8698 71.6821 80.9137 71.6497 81.0454 71.6497C81.2096 71.6497 81.3412 71.6269 81.4404 71.6042C81.6598 71.5588 81.7151 71.3107 81.759 70.9846C81.8142 70.511 81.8142 69.6205 81.8142 68.5841V66.6004" fill="#B73722"/>
<path d="M15.035 69.1097L15.0578 69.3059L14.944 69.4243C11.472 69.4243 9.69049 70.2532 9.69049 71.8314C9.69049 72.837 10.8316 73.5864 12.7513 73.5864C15.812 73.5864 17.982 71.8898 17.982 70.1542C17.982 69.3659 17.5236 68.5371 16.5874 67.7293L14.6238 66.0327C13.5038 65.066 12.9561 64.1204 12.9561 63.2721C12.9561 61.4976 15.3553 59.8204 18.7346 59.8204C20.677 59.8204 21.7726 60.4919 21.7726 61.4587C21.7726 62.5227 20.243 63.4294 17.8438 63.4294C17.5236 63.4294 17.2733 63.4099 17.0441 63.3905L16.9303 63.311V63.1537L17.0214 63.0547C19.1459 63.0547 20.2886 62.4238 20.2886 61.4781C20.2886 60.7677 19.5343 60.2941 18.2323 60.2941C16.0623 60.2941 14.4174 61.5171 14.4174 62.839C14.4174 63.6662 14.9668 64.3766 15.9713 65.2639L18.0048 67.0384C18.9866 67.8867 19.4661 68.8128 19.4661 69.7211C19.4661 70.5889 18.8955 71.5946 17.8666 72.3634C16.4508 73.4274 14.5555 74 12.4538 74C9.62222 74 8 73.0138 8 71.653C8 69.9385 10.3521 68.9523 14.8985 69.0302L15.035 69.1097" fill="#B73722"/>
<path d="M90.4341 69.9271L90.9315 71.3334L91.4289 69.9271H91.9995V71.8914H91.637V70.3067L91.1006 71.8914H90.7706L90.2261 70.3067V71.8914H89.8636V69.9271H90.4341ZM87.8513 70.2596V69.9271H89.5304V70.2596H88.8867V71.8914H88.4966V70.2596H87.8513Z" fill="#B73722"/>
<path d="M38.1736 48.7665H32.0781V40.079H28.1217V48.7665H21.8637L21.8425 26.3747H28.1217V34.7037H32.0781V26.3747H38.1736V48.7665ZM66.1025 48.8719C72.3882 48.8687 77.5035 43.6588 77.5019 37.3849C77.5003 30.9796 72.3882 26.0049 66.1025 26C59.8249 25.9951 56.6162 30.6065 55.8246 32.4686C55.8311 29.6738 53.0711 26.3763 49.8429 26.3714H39.4415V48.7584L49.1391 48.7616C53.0499 48.7616 55.8311 45.3813 55.836 42.4828C56.7284 44.3076 59.8249 48.8735 66.1025 48.8719V48.8719ZM48.3263 39.7627C49.2236 39.7627 49.9307 40.6467 49.9307 41.654C49.9307 42.6612 49.2236 43.5469 48.3263 43.5469H45.2428V39.7627H48.3263V39.7627ZM48.3377 31.3575C49.235 31.3575 49.942 32.2415 49.942 33.2488C49.942 34.256 49.235 35.14 48.3377 35.14H45.2542V31.3575H48.3377V31.3575ZM52.4436 37.3897C53.1507 37.3005 54.3276 36.4944 54.7437 35.9786C54.5974 36.6177 54.586 38.4651 54.7567 39.1026C54.2837 38.3743 53.1621 37.4789 52.4436 37.3897V37.3897ZM60.3954 37.3897C60.3954 34.243 62.9523 31.6916 66.1057 31.6916C69.2608 31.6916 71.8176 34.243 71.8176 37.3897C71.8176 40.5364 69.2608 43.0878 66.1057 43.0878C62.9523 43.0878 60.3954 40.5364 60.3954 37.3897ZM66.1057 41.8697C68.5862 41.8697 70.5953 39.8633 70.5953 37.3897C70.5953 34.9162 68.5862 32.9097 66.1057 32.9097C63.6269 32.9097 61.6162 34.9162 61.6162 37.3897C61.6162 39.8633 63.6269 41.8697 66.1057 41.8697Z" fill="black"/>
</g>
<defs>
<clipPath id="clip0_837_401">
<rect width="84" height="48" fill="white" transform="translate(8 26)"/>
</clipPath>
</defs>
</svg>
