<svg width="100" height="100" viewBox="0 0 100 100" fill="none" xmlns="http://www.w3.org/2000/svg">
<path d="M18.1474 63.171V62.4393L18.5104 62.4367C18.519 62.4367 18.5377 62.438 18.5621 62.438C19.2954 62.438 20.0057 62.1819 20.6213 61.8545C21.4162 61.4309 21.8424 60.6901 21.9787 59.9066C22.0103 59.7255 22.0318 59.5405 22.0246 59.3568C22.0246 59.3568 22.0247 58.7446 22.0232 58.7446V25.6891C22.006 25.2868 21.8496 23.9449 20.5868 23.3114C19.6369 22.7866 18.7974 22.7454 18.5635 22.7454C18.5391 22.7454 18.5219 22.7454 18.5119 22.7466L18.1201 22.7404V22.0125H36.5547V22.7416L36.3035 22.7466C36.2934 22.7466 36.2777 22.7454 36.2532 22.7454C36.0193 22.7454 35.1813 22.7866 34.2243 23.3139C32.9629 23.9474 32.818 25.2943 32.8022 25.6917L32.795 26.2539L32.7935 26.4114V26.76L32.8108 36.6277H49.1224L49.1396 26.7612C49.1396 26.7612 49.1396 26.2552 49.1382 26.2552V25.6979C49.1224 25.2943 48.9718 23.9486 47.7017 23.3114C46.7518 22.7866 45.9138 22.7454 45.6785 22.7454C45.6541 22.7454 45.6369 22.7454 45.6283 22.7466L45.3772 22.7416L45.3786 22H63.816L63.8146 22.7404L63.4185 22.7466C63.4098 22.7466 63.3926 22.7454 63.3668 22.7454C63.1329 22.7454 62.2949 22.7866 61.3378 23.3139C60.0808 23.9449 59.9258 25.2868 59.9085 25.6829V58.7446H59.9057V59.3618C59.9028 59.428 59.8525 61.1236 61.3436 61.872C62.2935 62.3967 63.1315 62.438 63.3654 62.438C63.3912 62.438 63.4084 62.438 63.4171 62.4367L63.8146 62.4406V63.1722H57.35H45.3743L45.3815 62.4255H45.6298C45.6369 62.4255 45.6513 62.4267 45.6728 62.4267C45.9067 62.4267 46.739 62.4018 47.7047 61.8695C48.8742 61.2835 49.0895 60.0865 49.1282 59.5993V59.5879L49.1339 45.5459H32.7434L32.7103 59.3755L32.7261 59.7654C32.7635 60.2527 33.0475 61.3684 34.2243 61.9583C35.1742 62.483 35.9692 62.4367 36.2031 62.4367C36.2289 62.4367 36.2461 62.4367 36.2547 62.4355L36.4772 62.438V63.1696H18.1474V63.171ZM26.8585 59.4106H27.7027V41.4294H54.1874V59.4192H55.033V25.1331H54.1874V40.7278H27.7027V25.1344H26.8585V59.4106Z" fill="url(#paint0_linear_836_154)" fill-opacity="0.3"/>
<path d="M18.1474 63.171V62.4393L18.5104 62.4367C18.519 62.4367 18.5377 62.438 18.5621 62.438C19.2954 62.438 20.0057 62.1819 20.6213 61.8545C21.4162 61.4309 21.8424 60.6901 21.9787 59.9066C22.0103 59.7255 22.0318 59.5405 22.0246 59.3568C22.0246 59.3568 22.0247 58.7446 22.0232 58.7446V25.6891C22.006 25.2868 21.8496 23.9449 20.5868 23.3114C19.6369 22.7866 18.7974 22.7454 18.5635 22.7454C18.5391 22.7454 18.5219 22.7454 18.5119 22.7466L18.1201 22.7404V22.0125H36.5547V22.7416L36.3035 22.7466C36.2934 22.7466 36.2777 22.7454 36.2532 22.7454C36.0193 22.7454 35.1813 22.7866 34.2243 23.3139C32.9629 23.9474 32.818 25.2943 32.8022 25.6917L32.795 26.2539L32.7935 26.4114V26.76L32.8108 36.6277H49.1224L49.1396 26.7612C49.1396 26.7612 49.1396 26.2552 49.1382 26.2552V25.6979C49.1224 25.2943 48.9718 23.9486 47.7017 23.3114C46.7518 22.7866 45.9138 22.7454 45.6785 22.7454C45.6541 22.7454 45.6369 22.7454 45.6283 22.7466L45.3772 22.7416L45.3786 22H63.816L63.8146 22.7404L63.4185 22.7466C63.4098 22.7466 63.3926 22.7454 63.3668 22.7454C63.1329 22.7454 62.2949 22.7866 61.3378 23.3139C60.0808 23.9449 59.9258 25.2868 59.9085 25.6829V58.7446H59.9057V59.3618C59.9028 59.428 59.8525 61.1236 61.3436 61.872C62.2935 62.3967 63.1315 62.438 63.3654 62.438C63.3912 62.438 63.4084 62.438 63.4171 62.4367L63.8146 62.4406V63.1722H57.35H45.3743L45.3815 62.4255H45.6298C45.6369 62.4255 45.6513 62.4267 45.6728 62.4267C45.9067 62.4267 46.739 62.4018 47.7047 61.8695C48.8742 61.2835 49.0895 60.0865 49.1282 59.5993V59.5879L49.1339 45.5459H32.7434L32.7103 59.3755L32.7261 59.7654C32.7635 60.2527 33.0475 61.3684 34.2243 61.9583C35.1742 62.483 35.9692 62.4367 36.2031 62.4367C36.2289 62.4367 36.2461 62.4367 36.2547 62.4355L36.4772 62.438V63.1696H18.1474V63.171ZM26.8585 59.4106H27.7027V41.4294H54.1874V59.4192H55.033V25.1331H54.1874V40.7278H27.7027V25.1344H26.8585V59.4106Z" fill="url(#paint1_linear_836_154)" fill-opacity="0.6"/>
<path d="M68.9269 65.9276H13V66.8048H68.9269V65.9276Z" fill="#EE2D2B"/>
<path d="M18.3607 62.9866V62.6229L18.7238 62.6205C18.7324 62.6205 18.751 62.6217 18.7754 62.6217C19.0093 62.6217 19.8488 62.5805 20.8044 62.0532C22.2896 61.3085 22.2379 59.613 22.2365 59.5405V58.9283H22.2351V25.5049C22.2178 25.1025 22.0614 23.7606 20.7987 23.1271C19.8488 22.6024 19.0093 22.5611 18.7754 22.5611C18.751 22.5611 18.7338 22.5611 18.7238 22.5624L18.332 22.5561V22.1963H36.3434V22.5574L36.0922 22.5624C36.0822 22.5624 36.0664 22.5611 36.0421 22.5611C35.8081 22.5611 34.9702 22.6024 34.013 23.1296C32.7518 23.7631 32.6053 25.1088 32.5895 25.5074L32.5838 26.0696L32.5824 26.2271V26.5757L32.5996 36.8113H49.3339L49.3511 26.5769V26.0709H49.3497V25.5136C49.3339 25.11 49.1832 23.7644 47.9133 23.1271C46.9634 22.6024 46.1254 22.5611 45.8901 22.5611C45.8657 22.5611 45.8485 22.5611 45.8398 22.5624L45.5887 22.5574L45.5872 22.1863H63.6014L63.6029 22.5561L63.2068 22.5624C63.1983 22.5624 63.181 22.5611 63.1552 22.5611C62.9213 22.5611 62.0834 22.6024 61.1262 23.1296C59.8693 23.7606 59.7143 25.1025 59.697 25.4986V58.9283H59.6942V59.5456C59.6913 59.6117 59.641 61.3073 61.1319 62.0557C62.0818 62.5805 62.9199 62.6217 63.1538 62.6217C63.1796 62.6217 63.1968 62.6217 63.2054 62.6205L63.6029 62.6242V62.9878H57.1384H45.5858V62.6255H45.8341C45.8412 62.6255 45.8556 62.6268 45.8771 62.6268C46.111 62.6268 46.9504 62.5855 47.9147 62.0532C49.0842 61.4672 49.2994 60.2702 49.3382 59.7829V59.7716L49.3439 45.3615H32.5337L32.5394 59.7767V59.7816C32.5767 60.269 32.792 61.466 33.9685 62.0557C34.9185 62.5805 35.7564 62.6217 35.9903 62.6217C36.0163 62.6217 36.0334 62.6217 36.0421 62.6205L36.2918 62.6229V62.9866H18.3607ZM26.6489 59.5942H27.916V41.613H53.9774V59.603H55.2459V24.9489H53.9774V40.5435H27.916V24.9501H26.6489V59.5942Z" fill="url(#paint2_linear_836_154)"/>
<path d="M18.3607 62.9876V62.624L18.7238 62.6215C18.7324 62.6215 18.7511 62.6228 18.7754 62.6228C19.0093 62.6228 19.8488 62.5815 20.8045 62.0543C22.2897 61.3096 22.2381 59.614 22.2366 59.5415V58.9292H22.2352V25.5057C22.218 25.1034 22.0616 23.7614 20.7988 23.1279C19.8488 22.6031 19.0093 22.5619 18.7754 22.5619C18.7511 22.5619 18.7338 22.5619 18.7238 22.5632L18.332 22.5569V22.1971H36.344V22.5582L36.0929 22.5632C36.0829 22.5632 36.0671 22.5619 36.0427 22.5619C35.8088 22.5619 34.9708 22.6031 34.0136 23.1304C32.7523 23.7639 32.6073 25.1109 32.5915 25.5082L32.5844 26.0705L32.5829 26.2279V26.5765L32.6002 36.8122H49.3351L49.3523 26.5777V26.0717H49.3509V25.5144C49.3351 25.1109 49.1843 23.7652 47.9144 23.1279C46.9644 22.6031 46.1264 22.5619 45.8911 22.5619C45.8667 22.5619 45.8495 22.5619 45.8408 22.5632L45.5898 22.5582L45.5912 22.1846H63.606L63.6046 22.5569L63.2085 22.5632C63.2 22.5632 63.1827 22.5619 63.1569 22.5619C62.923 22.5619 62.085 22.6031 61.1278 23.1304C59.8708 23.7614 59.7158 25.1034 59.6986 25.4994V58.9292H59.6957V59.5465C59.6929 59.6128 59.6426 61.3082 61.1335 62.0567C62.0836 62.5815 62.9216 62.6228 63.1555 62.6228C63.1813 62.6228 63.1985 62.6228 63.2071 62.6215L63.6046 62.6252V62.9889H57.14H45.5868L45.594 62.6103H45.8422C45.8495 62.6103 45.8637 62.6115 45.8854 62.6115C46.1192 62.6115 46.9515 62.5865 47.9172 62.0543C49.0867 61.4683 49.302 60.2713 49.3408 59.7839V59.7727L49.3466 45.3624H32.5342L32.5399 59.7776V59.7827C32.5772 60.2699 32.7925 61.467 33.9691 62.0567C34.9191 62.5815 35.7571 62.6228 35.991 62.6228C36.0169 62.6228 36.034 62.6228 36.0427 62.6215L36.2925 62.624V62.9876H18.3607ZM26.6492 59.5953H27.9163V41.614H53.9787V59.604H55.2472V24.9497H53.9787V40.5444H27.9163V24.9509H26.6492V59.5953Z" fill="url(#paint3_linear_836_154)"/>
<path d="M18.3593 62.9876V62.624L18.7224 62.6215C18.731 62.6215 18.7496 62.6228 18.774 62.6228C19.5073 62.6228 20.2177 62.3666 20.8333 62.0392C21.6283 61.6157 22.0545 60.8747 22.1908 60.0913C22.2224 59.9101 22.2439 59.7252 22.2367 59.5415C22.2367 59.5415 22.2367 58.9292 22.2353 58.9292V25.5057C22.2181 25.1034 22.0617 23.7614 20.7989 23.1279C19.8489 22.6031 19.0094 22.5619 18.7755 22.5619C18.7511 22.5619 18.7338 22.5619 18.7238 22.5632L18.332 22.5569V22.1971H36.3445V22.5582L36.0933 22.5632C36.0834 22.5632 36.0675 22.5619 36.0432 22.5619C35.8092 22.5619 34.9711 22.6031 34.014 23.1304C32.7526 23.7639 32.6077 25.1109 32.5919 25.5082L32.5847 26.0705L32.5833 26.2279V26.5765L32.6006 36.8122H49.3358L49.3531 26.5777C49.3531 26.5777 49.3531 26.0717 49.3516 26.0717V25.5144C49.3358 25.1109 49.1851 23.7652 47.9151 23.1279C46.9651 22.6031 46.127 22.5619 45.8918 22.5619C45.8673 22.5619 45.85 22.5619 45.8415 22.5632L45.5903 22.5582L45.5917 22.1846H63.6071L63.6057 22.5569L63.2096 22.5632C63.2011 22.5632 63.1838 22.5619 63.158 22.5619C62.9241 22.5619 62.086 22.6031 61.1288 23.1304C59.8717 23.7614 59.7168 25.1034 59.6996 25.4994V58.9292H59.6967V59.5465C59.6938 59.6128 59.6436 61.3082 61.1346 62.0567C62.0845 62.5815 62.9227 62.6228 63.1565 62.6228C63.1824 62.6228 63.1996 62.6228 63.2082 62.6215L63.6057 62.6252V62.9889H57.1409H45.5875L45.5947 62.6103H45.8429C45.85 62.6103 45.8644 62.6115 45.8859 62.6115C46.1199 62.6115 46.9522 62.5865 47.918 62.0543C49.0875 61.4683 49.3028 60.2713 49.3415 59.7839V59.7727L49.3472 45.3624H32.533L32.5001 59.5603L32.5158 59.9501C32.5531 60.4374 32.8373 61.5532 34.014 62.1429C34.964 62.6677 35.759 62.6215 35.9929 62.6215C36.0187 62.6215 36.0359 62.6215 36.0446 62.6203L36.267 62.6228V62.9864H18.3593V62.9876ZM26.6481 59.5953H27.9152V41.614H53.978V59.604H55.2467V24.9497H53.978V40.5444H27.9152V24.9509H26.6481V59.5953Z" fill="url(#paint4_linear_836_154)"/>
<path d="M18.3593 62.9876V62.624L18.7223 62.6215C18.731 62.6215 18.7496 62.6228 18.774 62.6228C19.5073 62.6228 20.2176 62.3666 20.8332 62.0392C21.6281 61.6157 22.0543 60.8747 22.1906 60.0913C22.2222 59.9101 22.2437 59.7252 22.2366 59.5415C22.2366 59.5415 22.2366 58.9292 22.2351 58.9292V25.5057C22.2179 25.1034 22.0615 23.7614 20.7987 23.1279C19.8488 22.6031 19.0093 22.5619 18.7754 22.5619C18.751 22.5619 18.7338 22.5619 18.7238 22.5632L18.332 22.5569V22.1971H36.3437V22.5582L36.0925 22.5632C36.0825 22.5632 36.0667 22.5619 36.0423 22.5619C35.8084 22.5619 34.9703 22.6031 34.0133 23.1304C32.7519 23.7639 32.607 25.1109 32.5912 25.5082L32.5841 26.0705L32.5826 26.2279V26.5765L32.5999 36.8122H49.3344L49.3515 26.5777C49.3515 26.5777 49.3515 26.0717 49.35 26.0717V25.5144C49.3344 25.1109 49.1836 23.7652 47.9137 23.1279C46.9638 22.6031 46.1257 22.5619 45.8903 22.5619C45.866 22.5619 45.8488 22.5619 45.8402 22.5632L45.589 22.5582L45.5905 22.1846H63.605L63.6035 22.5569L63.2075 22.5632C63.1989 22.5632 63.1817 22.5619 63.1558 22.5619C62.922 22.5619 62.0839 22.6031 61.1268 23.1304C59.8697 23.7614 59.7147 25.1034 59.6976 25.4994V58.9292H59.6947V59.5465C59.6918 59.6128 59.6417 61.3082 61.1325 62.0567C62.0825 62.5815 62.9204 62.6228 63.1544 62.6228C63.1803 62.6228 63.1975 62.6228 63.2061 62.6215L63.6035 62.6252V62.9889H57.139H45.5862L45.5933 62.6103H45.8416C45.8488 62.6103 45.8631 62.6115 45.8846 62.6115C46.1186 62.6115 46.9508 62.5865 47.9166 62.0543C49.0861 61.4683 49.3013 60.2713 49.3401 59.7839V59.7727L49.3458 45.3624H32.5324L32.4993 59.5603L32.5151 59.9501C32.5525 60.4374 32.8367 61.5532 34.0133 62.1429C34.9632 62.6677 35.7581 62.6215 35.9921 62.6215C36.0179 62.6215 36.0351 62.6215 36.0438 62.6203L36.2662 62.6228V62.9864H18.3593V62.9876ZM26.6477 59.5953H27.9147V41.614H53.9764V59.604H55.2449V24.9497H53.9764V40.5444H27.9147V24.9509H26.6477V59.5953Z" fill="url(#paint5_linear_836_154)"/>
<path d="M29.4032 77.9809C28.06 77.8684 26.9976 77.263 26.4049 76.2724C26.3273 76.1427 26.271 76.0111 26.271 76.0111L27.9852 75.259L28.1642 75.4756C28.3637 75.7168 28.7424 76.1136 29.0724 76.2498C29.8686 76.5783 30.9619 76.2856 31.077 75.7131C31.1799 75.2013 30.8683 74.9255 29.822 74.6027C28.2478 74.117 27.9257 73.9753 27.4147 73.5433C26.773 73.0009 26.5433 72.3049 26.7387 71.4946C27.2998 69.1666 31.4251 68.9134 32.8818 71.1175L33.0202 71.3268L32.209 71.7242L31.3688 72.0979C31.3688 72.0979 31.2447 71.8799 31.1786 71.7744C30.5644 70.7939 28.7417 70.9361 28.7417 71.9069C28.7417 72.3434 28.9854 72.503 30.3243 72.9437C31.3564 73.2834 31.5667 73.3647 31.9348 73.5664C32.778 74.0282 33.1706 74.6313 33.1694 75.4629C33.167 77.0527 31.5142 78.1577 29.4032 77.9809ZM46.0965 77.9791C42.4094 77.671 40.4024 74.1383 42.4232 71.5135C44.5487 68.7526 49.4535 69.0379 51.1202 72.0195C51.733 73.1157 51.7339 74.4858 51.1226 75.5795C50.2148 77.2034 48.2187 78.1564 46.0965 77.9791H46.0965ZM47.5035 76.2112C50.635 75.3191 49.916 71.3008 46.622 71.2847C43.5184 71.2695 42.5481 74.9099 45.3433 76.0822C46.021 76.3664 46.7962 76.4127 47.5035 76.2112ZM13.0051 77.8666C13.0051 77.8666 13 76.0012 13 73.7767V69.7322H14.0137H15.0274L15.0389 71.3095L15.0504 72.8869L16.9795 72.8966L18.9087 72.9063V71.3192V69.7322H19.9228H20.937V73.8016V77.871H19.9228H18.9087V76.2096V74.5483H16.9685H15.0283V76.2096V77.871H14.0436L13.0051 77.8666ZM22.789 73.8016V69.7322H23.8032H24.8173V73.8016V77.871H23.8032H22.789V73.8016ZM36.5465 74.6043V71.3375H35.2898H34.0331V70.5348V69.7322H37.5827H41.1323V70.5343V71.3364L39.8646 71.3463L38.5969 71.3562L38.5856 74.6136L38.5841 77.8849L37.5604 77.8807L36.5465 77.8765V74.6043ZM52.9937 69.705L54.7062 69.705C57.4714 69.7051 58.0488 69.8284 58.867 70.5173C60.2952 71.72 59.7527 73.8972 57.8894 74.5944L57.6636 74.6789L58.9664 76.2524C59.683 77.1177 60.2531 77.8689 60.2531 77.8689L59.103 77.871H57.9367L56.755 76.3781L55.5732 74.8852L55.2756 74.8848L54.978 74.8843V76.3776V77.8658H53.9858L52.9947 77.867L53.0037 73.9412L52.9937 69.705ZM56.7086 73.3911C57.8923 73.0815 57.9086 71.653 56.7318 71.3571C56.5668 71.3157 56.2977 71.3002 55.7416 71.3002H54.978V72.3829V73.4656H55.7009C56.2986 73.4656 56.4731 73.4527 56.7086 73.3911V73.3911ZM63.4411 77.8666C63.4411 77.8666 63.4441 77.0297 63.4441 76.0623V74.3033L61.9196 72.2511C61.0811 71.1223 60.3169 70.0938 60.2213 69.9655L60.0475 69.7322L61.2056 69.7327L62.3638 69.7332L63.4207 71.2232C64.002 72.0427 64.5102 72.6961 64.5102 72.6961C64.5102 72.6961 65.0133 72.016 65.5883 71.2056L66.6337 69.7322H67.7718H68.9098L68.4989 70.2828C68.273 70.5857 67.4996 71.6267 66.7803 72.5961L65.4724 74.3587V76.1149V77.871H64.4877L63.4411 77.8666ZM66.6189 77.4043L66.6212 76.9381L66.4425 76.9376L66.2661 76.9366V76.7136H66.7732H67.2803L67.281 76.9403L67.0929 76.9403L66.8912 76.94L66.8931 77.4136L66.8907 77.871H66.7498H66.6189V77.4043ZM67.5008 77.2901V76.7091L67.6611 76.7089L67.7287 76.7097L68.0172 77.1445L68.2615 77.5331L68.4991 77.1228L68.7192 76.7094C68.7192 76.7094 68.7894 76.7088 68.8466 76.7089L69 76.7091V77.2901V77.871H68.8693H68.7386L68.7376 77.5172L68.741 77.1332L68.5293 77.502L68.3265 77.863L68.1821 77.8627L67.9735 77.5088L67.7653 77.1448L67.7677 77.507L67.7703 77.871H67.633H67.5008V77.2901L67.5008 77.2901Z" fill="black"/>
<path d="M71 70.0016H71.5681V73.5931H76.4946V70.0016H77.0626V77.7367H76.4946V74.1123H71.5681V77.7367H71V70.0016Z" fill="#9B9B9C"/>
<path d="M81.9119 77.2162C82.4077 77.2234 82.9003 77.135 83.3628 76.956C83.7732 76.7964 84.1469 76.5552 84.4614 76.247C84.7626 75.9465 84.9999 75.5883 85.1591 75.1938C85.3262 74.7798 85.4103 74.337 85.4067 73.8906V73.8633C85.409 73.4192 85.3249 72.9789 85.1591 72.5669C85 72.169 84.7628 71.807 84.4614 71.5023C84.1475 71.1903 83.7738 70.9449 83.3628 70.7808C82.9012 70.5981 82.4082 70.5078 81.9119 70.515H79.9235V77.2116L81.9119 77.2162ZM79.3521 70.0003H81.9119C82.4767 69.9939 83.0378 70.0933 83.5661 70.2934C84.0476 70.4762 84.4881 70.7522 84.8625 71.1058C85.2239 71.4507 85.5101 71.8665 85.7033 72.3272C85.9038 72.8083 86.0047 73.3251 85.9998 73.8462V73.869C86.0044 74.392 85.9036 74.9106 85.7033 75.3937C85.5113 75.8567 85.225 76.2746 84.8625 76.6208C84.4875 76.975 84.0472 77.2528 83.5661 77.4388C83.0386 77.6424 82.4772 77.7438 81.9119 77.7377H79.3521V70.0003Z" fill="#9B9B9C"/>
<defs>
<linearGradient id="paint0_linear_836_154" x1="22.5815" y1="53.422" x2="56.81" y2="28.4789" gradientUnits="userSpaceOnUse">
<stop stop-color="#DD972C"/>
<stop offset="0.264617" stop-color="#F8CB45"/>
<stop offset="0.654677" stop-color="#F2AC2F"/>
<stop offset="1" stop-color="#FDDB50"/>
</linearGradient>
<linearGradient id="paint1_linear_836_154" x1="22.2644" y1="41.1752" x2="58.721" y2="55.5689" gradientUnits="userSpaceOnUse">
<stop stop-color="#DD972C"/>
<stop offset="0.264617" stop-color="#B55727"/>
<stop offset="0.485254" stop-color="#F2AC2F"/>
<stop offset="0.825857" stop-color="#E5B544"/>
<stop offset="1" stop-color="#FDDB50"/>
</linearGradient>
<linearGradient id="paint2_linear_836_154" x1="18.3325" y1="42.5856" x2="63.6043" y2="42.5856" gradientUnits="userSpaceOnUse">
<stop offset="0.2066" stop-color="#EE9322"/>
<stop offset="0.4014" stop-color="#F2AC2F"/>
<stop offset="0.6663" stop-color="#F8CB45"/>
<stop offset="0.8749" stop-color="#FCDE54"/>
<stop offset="1" stop-color="#FEE55A"/>
</linearGradient>
<linearGradient id="paint3_linear_836_154" x1="52.7254" y1="59.5269" x2="43.1039" y2="41.2174" gradientUnits="userSpaceOnUse">
<stop offset="0.4326" stop-color="#B55727"/>
<stop offset="0.4596" stop-color="#BD6829" stop-opacity="0.9612"/>
<stop offset="0.514" stop-color="#CB8331" stop-opacity="0.8833"/>
<stop offset="0.5722" stop-color="#D89D3A" stop-opacity="0.7999"/>
<stop offset="0.6339" stop-color="#E4B442" stop-opacity="0.7114"/>
<stop offset="0.7005" stop-color="#EEC749" stop-opacity="0.6161"/>
<stop offset="0.7741" stop-color="#F6D54E" stop-opacity="0.5105"/>
<stop offset="0.8605" stop-color="#FCDE52" stop-opacity="0.3867"/>
<stop offset="0.9908" stop-color="#FEE153" stop-opacity="0.2"/>
</linearGradient>
<linearGradient id="paint4_linear_836_154" x1="40.9685" y1="57.1885" x2="40.9685" y2="42.4256" gradientUnits="userSpaceOnUse">
<stop stop-color="#B55727" stop-opacity="0.7"/>
<stop offset="0.144" stop-color="#BF6C2A" stop-opacity="0.6419"/>
<stop offset="0.5534" stop-color="#DCA43C" stop-opacity="0.4766"/>
<stop offset="0.8458" stop-color="#F2CE4C" stop-opacity="0.3585"/>
<stop offset="0.9908" stop-color="#FEE153" stop-opacity="0.3"/>
</linearGradient>
<linearGradient id="paint5_linear_836_154" x1="21.4165" y1="62.1362" x2="29.9522" y2="22.4586" gradientUnits="userSpaceOnUse">
<stop stop-color="#B55727" stop-opacity="0.7"/>
<stop offset="0.418092" stop-color="#BF6C2A" stop-opacity="0.6419"/>
<stop offset="0.8458" stop-color="#F2CE4C" stop-opacity="0.3585"/>
<stop offset="0.9908" stop-color="#FEE153" stop-opacity="0.3"/>
</linearGradient>
</defs>
</svg>
