<svg width="100" height="100" viewBox="0 0 100 100" fill="none" xmlns="http://www.w3.org/2000/svg">
<path d="M27.1474 63.171V62.4393L27.5104 62.4367C27.519 62.4367 27.5377 62.438 27.5621 62.438C28.2954 62.438 29.0057 62.1819 29.6213 61.8545C30.4162 61.4309 30.8424 60.6901 30.9787 59.9066C31.0103 59.7255 31.0318 59.5405 31.0246 59.3568C31.0246 59.3568 31.0247 58.7446 31.0232 58.7446V25.6891C31.006 25.2868 30.8496 23.9449 29.5868 23.3114C28.6369 22.7866 27.7974 22.7454 27.5635 22.7454C27.5391 22.7454 27.5219 22.7454 27.5119 22.7466L27.1201 22.7404V22.0125H45.5547V22.7416L45.3035 22.7466C45.2934 22.7466 45.2777 22.7454 45.2532 22.7454C45.0193 22.7454 44.1813 22.7866 43.2243 23.3139C41.9629 23.9474 41.818 25.2943 41.8022 25.6917L41.795 26.2539L41.7935 26.4114V26.76L41.8108 36.6277H58.1224L58.1396 26.7612C58.1396 26.7612 58.1396 26.2552 58.1382 26.2552V25.6979C58.1224 25.2943 57.9718 23.9486 56.7017 23.3114C55.7518 22.7866 54.9138 22.7454 54.6785 22.7454C54.6541 22.7454 54.6369 22.7454 54.6283 22.7466L54.3772 22.7416L54.3786 22H72.816L72.8146 22.7404L72.4185 22.7466C72.4098 22.7466 72.3926 22.7454 72.3668 22.7454C72.1329 22.7454 71.2949 22.7866 70.3378 23.3139C69.0808 23.9449 68.9258 25.2868 68.9085 25.6829V58.7446H68.9057V59.3618C68.9028 59.428 68.8525 61.1236 70.3436 61.872C71.2935 62.3967 72.1315 62.438 72.3654 62.438C72.3912 62.438 72.4084 62.438 72.4171 62.4367L72.8146 62.4406V63.1722H66.35H54.3743L54.3815 62.4255H54.6298C54.6369 62.4255 54.6513 62.4267 54.6728 62.4267C54.9067 62.4267 55.739 62.4018 56.7047 61.8695C57.8742 61.2835 58.0895 60.0865 58.1282 59.5993V59.5879L58.1339 45.5459H41.7434L41.7103 59.3755L41.7261 59.7654C41.7635 60.2527 42.0475 61.3684 43.2243 61.9583C44.1742 62.483 44.9692 62.4367 45.2031 62.4367C45.2289 62.4367 45.2461 62.4367 45.2547 62.4355L45.4772 62.438V63.1696H27.1474V63.171ZM35.8585 59.4106H36.7027V41.4294H63.1874V59.4192H64.033V25.1331H63.1874V40.7278H36.7027V25.1344H35.8585V59.4106Z" fill="url(#paint0_linear_836_153)" fill-opacity="0.3"/>
<path d="M27.1474 63.171V62.4393L27.5104 62.4367C27.519 62.4367 27.5377 62.438 27.5621 62.438C28.2954 62.438 29.0057 62.1819 29.6213 61.8545C30.4162 61.4309 30.8424 60.6901 30.9787 59.9066C31.0103 59.7255 31.0318 59.5405 31.0246 59.3568C31.0246 59.3568 31.0247 58.7446 31.0232 58.7446V25.6891C31.006 25.2868 30.8496 23.9449 29.5868 23.3114C28.6369 22.7866 27.7974 22.7454 27.5635 22.7454C27.5391 22.7454 27.5219 22.7454 27.5119 22.7466L27.1201 22.7404V22.0125H45.5547V22.7416L45.3035 22.7466C45.2934 22.7466 45.2777 22.7454 45.2532 22.7454C45.0193 22.7454 44.1813 22.7866 43.2243 23.3139C41.9629 23.9474 41.818 25.2943 41.8022 25.6917L41.795 26.2539L41.7935 26.4114V26.76L41.8108 36.6277H58.1224L58.1396 26.7612C58.1396 26.7612 58.1396 26.2552 58.1382 26.2552V25.6979C58.1224 25.2943 57.9718 23.9486 56.7017 23.3114C55.7518 22.7866 54.9138 22.7454 54.6785 22.7454C54.6541 22.7454 54.6369 22.7454 54.6283 22.7466L54.3772 22.7416L54.3786 22H72.816L72.8146 22.7404L72.4185 22.7466C72.4098 22.7466 72.3926 22.7454 72.3668 22.7454C72.1329 22.7454 71.2949 22.7866 70.3378 23.3139C69.0808 23.9449 68.9258 25.2868 68.9085 25.6829V58.7446H68.9057V59.3618C68.9028 59.428 68.8525 61.1236 70.3436 61.872C71.2935 62.3967 72.1315 62.438 72.3654 62.438C72.3912 62.438 72.4084 62.438 72.4171 62.4367L72.8146 62.4406V63.1722H66.35H54.3743L54.3815 62.4255H54.6298C54.6369 62.4255 54.6513 62.4267 54.6728 62.4267C54.9067 62.4267 55.739 62.4018 56.7047 61.8695C57.8742 61.2835 58.0895 60.0865 58.1282 59.5993V59.5879L58.1339 45.5459H41.7434L41.7103 59.3755L41.7261 59.7654C41.7635 60.2527 42.0475 61.3684 43.2243 61.9583C44.1742 62.483 44.9692 62.4367 45.2031 62.4367C45.2289 62.4367 45.2461 62.4367 45.2547 62.4355L45.4772 62.438V63.1696H27.1474V63.171ZM35.8585 59.4106H36.7027V41.4294H63.1874V59.4192H64.033V25.1331H63.1874V40.7278H36.7027V25.1344H35.8585V59.4106Z" fill="url(#paint1_linear_836_153)" fill-opacity="0.6"/>
<path d="M77.9269 65.9276H22V66.8048H77.9269V65.9276Z" fill="#EE2D2B"/>
<path d="M27.3607 62.9866V62.6229L27.7238 62.6205C27.7324 62.6205 27.751 62.6217 27.7754 62.6217C28.0093 62.6217 28.8488 62.5805 29.8044 62.0532C31.2896 61.3085 31.2379 59.613 31.2365 59.5405V58.9283H31.2351V25.5049C31.2178 25.1025 31.0614 23.7606 29.7987 23.1271C28.8488 22.6024 28.0093 22.5611 27.7754 22.5611C27.751 22.5611 27.7338 22.5611 27.7238 22.5624L27.332 22.5561V22.1963H45.3434V22.5574L45.0922 22.5624C45.0822 22.5624 45.0664 22.5611 45.0421 22.5611C44.8081 22.5611 43.9702 22.6024 43.013 23.1296C41.7518 23.7631 41.6053 25.1088 41.5895 25.5074L41.5838 26.0696L41.5824 26.2271V26.5757L41.5996 36.8113H58.3339L58.3511 26.5769V26.0709H58.3497V25.5136C58.3339 25.11 58.1832 23.7644 56.9133 23.1271C55.9634 22.6024 55.1254 22.5611 54.8901 22.5611C54.8657 22.5611 54.8485 22.5611 54.8398 22.5624L54.5887 22.5574L54.5872 22.1863H72.6014L72.6029 22.5561L72.2068 22.5624C72.1983 22.5624 72.181 22.5611 72.1552 22.5611C71.9213 22.5611 71.0834 22.6024 70.1262 23.1296C68.8693 23.7606 68.7143 25.1025 68.697 25.4986V58.9283H68.6942V59.5456C68.6913 59.6117 68.641 61.3073 70.1319 62.0557C71.0818 62.5805 71.9199 62.6217 72.1538 62.6217C72.1796 62.6217 72.1968 62.6217 72.2054 62.6205L72.6029 62.6242V62.9878H66.1384H54.5858V62.6255H54.8341C54.8412 62.6255 54.8556 62.6268 54.8771 62.6268C55.111 62.6268 55.9504 62.5855 56.9147 62.0532C58.0842 61.4672 58.2994 60.2702 58.3382 59.7829V59.7716L58.3439 45.3615H41.5337L41.5394 59.7767V59.7816C41.5767 60.269 41.792 61.466 42.9685 62.0557C43.9185 62.5805 44.7564 62.6217 44.9903 62.6217C45.0163 62.6217 45.0334 62.6217 45.0421 62.6205L45.2918 62.6229V62.9866H27.3607ZM35.6489 59.5942H36.916V41.613H62.9774V59.603H64.2459V24.9489H62.9774V40.5435H36.916V24.9501H35.6489V59.5942Z" fill="url(#paint2_linear_836_153)"/>
<path d="M27.3607 62.9876V62.624L27.7238 62.6215C27.7324 62.6215 27.7511 62.6228 27.7754 62.6228C28.0093 62.6228 28.8488 62.5815 29.8045 62.0543C31.2897 61.3096 31.2381 59.614 31.2366 59.5415V58.9292H31.2352V25.5057C31.218 25.1034 31.0616 23.7614 29.7988 23.1279C28.8488 22.6031 28.0093 22.5619 27.7754 22.5619C27.7511 22.5619 27.7338 22.5619 27.7238 22.5632L27.332 22.5569V22.1971H45.344V22.5582L45.0929 22.5632C45.0829 22.5632 45.0671 22.5619 45.0427 22.5619C44.8088 22.5619 43.9708 22.6031 43.0136 23.1304C41.7523 23.7639 41.6073 25.1109 41.5915 25.5082L41.5844 26.0705L41.5829 26.2279V26.5765L41.6002 36.8122H58.3351L58.3523 26.5777V26.0717H58.3509V25.5144C58.3351 25.1109 58.1843 23.7652 56.9144 23.1279C55.9644 22.6031 55.1264 22.5619 54.8911 22.5619C54.8667 22.5619 54.8495 22.5619 54.8408 22.5632L54.5898 22.5582L54.5912 22.1846H72.606L72.6046 22.5569L72.2085 22.5632C72.2 22.5632 72.1827 22.5619 72.1569 22.5619C71.923 22.5619 71.085 22.6031 70.1278 23.1304C68.8708 23.7614 68.7158 25.1034 68.6986 25.4994V58.9292H68.6957V59.5465C68.6929 59.6128 68.6426 61.3082 70.1335 62.0567C71.0836 62.5815 71.9216 62.6228 72.1555 62.6228C72.1813 62.6228 72.1985 62.6228 72.2071 62.6215L72.6046 62.6252V62.9889H66.14H54.5868L54.594 62.6103H54.8422C54.8495 62.6103 54.8637 62.6115 54.8854 62.6115C55.1192 62.6115 55.9515 62.5865 56.9172 62.0543C58.0867 61.4683 58.302 60.2713 58.3408 59.7839V59.7727L58.3466 45.3624H41.5342L41.5399 59.7776V59.7827C41.5772 60.2699 41.7925 61.467 42.9691 62.0567C43.9191 62.5815 44.7571 62.6228 44.991 62.6228C45.0169 62.6228 45.034 62.6228 45.0427 62.6215L45.2925 62.624V62.9876H27.3607ZM35.6492 59.5953H36.9163V41.614H62.9787V59.604H64.2472V24.9497H62.9787V40.5444H36.9163V24.9509H35.6492V59.5953Z" fill="url(#paint3_linear_836_153)"/>
<path d="M27.3593 62.9876V62.624L27.7224 62.6215C27.731 62.6215 27.7496 62.6228 27.774 62.6228C28.5073 62.6228 29.2177 62.3666 29.8333 62.0392C30.6283 61.6157 31.0545 60.8747 31.1908 60.0913C31.2224 59.9101 31.2439 59.7252 31.2367 59.5415C31.2367 59.5415 31.2367 58.9292 31.2353 58.9292V25.5057C31.2181 25.1034 31.0617 23.7614 29.7989 23.1279C28.8489 22.6031 28.0094 22.5619 27.7755 22.5619C27.7511 22.5619 27.7338 22.5619 27.7238 22.5632L27.332 22.5569V22.1971H45.3445V22.5582L45.0933 22.5632C45.0834 22.5632 45.0675 22.5619 45.0432 22.5619C44.8092 22.5619 43.9711 22.6031 43.014 23.1304C41.7526 23.7639 41.6077 25.1109 41.5919 25.5082L41.5847 26.0705L41.5833 26.2279V26.5765L41.6006 36.8122H58.3358L58.3531 26.5777C58.3531 26.5777 58.3531 26.0717 58.3516 26.0717V25.5144C58.3358 25.1109 58.1851 23.7652 56.9151 23.1279C55.9651 22.6031 55.127 22.5619 54.8918 22.5619C54.8673 22.5619 54.85 22.5619 54.8415 22.5632L54.5903 22.5582L54.5917 22.1846H72.6071L72.6057 22.5569L72.2096 22.5632C72.2011 22.5632 72.1838 22.5619 72.158 22.5619C71.9241 22.5619 71.086 22.6031 70.1288 23.1304C68.8717 23.7614 68.7168 25.1034 68.6996 25.4994V58.9292H68.6967V59.5465C68.6938 59.6128 68.6436 61.3082 70.1346 62.0567C71.0845 62.5815 71.9227 62.6228 72.1565 62.6228C72.1824 62.6228 72.1996 62.6228 72.2082 62.6215L72.6057 62.6252V62.9889H66.1409H54.5875L54.5947 62.6103H54.8429C54.85 62.6103 54.8644 62.6115 54.8859 62.6115C55.1199 62.6115 55.9522 62.5865 56.918 62.0543C58.0875 61.4683 58.3028 60.2713 58.3415 59.7839V59.7727L58.3472 45.3624H41.533L41.5001 59.5603L41.5158 59.9501C41.5531 60.4374 41.8373 61.5532 43.014 62.1429C43.964 62.6677 44.759 62.6215 44.9929 62.6215C45.0187 62.6215 45.0359 62.6215 45.0446 62.6203L45.267 62.6228V62.9864H27.3593V62.9876ZM35.6481 59.5953H36.9152V41.614H62.978V59.604H64.2467V24.9497H62.978V40.5444H36.9152V24.9509H35.6481V59.5953Z" fill="url(#paint4_linear_836_153)"/>
<path d="M27.3593 62.9876V62.624L27.7223 62.6215C27.731 62.6215 27.7496 62.6228 27.774 62.6228C28.5073 62.6228 29.2176 62.3666 29.8332 62.0392C30.6281 61.6157 31.0543 60.8747 31.1906 60.0913C31.2222 59.9101 31.2437 59.7252 31.2366 59.5415C31.2366 59.5415 31.2366 58.9292 31.2351 58.9292V25.5057C31.2179 25.1034 31.0615 23.7614 29.7987 23.1279C28.8488 22.6031 28.0093 22.5619 27.7754 22.5619C27.751 22.5619 27.7338 22.5619 27.7238 22.5632L27.332 22.5569V22.1971H45.3437V22.5582L45.0925 22.5632C45.0825 22.5632 45.0667 22.5619 45.0423 22.5619C44.8084 22.5619 43.9703 22.6031 43.0133 23.1304C41.7519 23.7639 41.607 25.1109 41.5912 25.5082L41.5841 26.0705L41.5826 26.2279V26.5765L41.5999 36.8122H58.3344L58.3515 26.5777C58.3515 26.5777 58.3515 26.0717 58.35 26.0717V25.5144C58.3344 25.1109 58.1836 23.7652 56.9137 23.1279C55.9638 22.6031 55.1257 22.5619 54.8903 22.5619C54.866 22.5619 54.8488 22.5619 54.8402 22.5632L54.589 22.5582L54.5905 22.1846H72.605L72.6035 22.5569L72.2075 22.5632C72.1989 22.5632 72.1817 22.5619 72.1558 22.5619C71.922 22.5619 71.0839 22.6031 70.1268 23.1304C68.8697 23.7614 68.7147 25.1034 68.6976 25.4994V58.9292H68.6947V59.5465C68.6918 59.6128 68.6417 61.3082 70.1325 62.0567C71.0825 62.5815 71.9204 62.6228 72.1544 62.6228C72.1803 62.6228 72.1975 62.6228 72.2061 62.6215L72.6035 62.6252V62.9889H66.139H54.5862L54.5933 62.6103H54.8416C54.8488 62.6103 54.8631 62.6115 54.8846 62.6115C55.1186 62.6115 55.9508 62.5865 56.9166 62.0543C58.0861 61.4683 58.3013 60.2713 58.3401 59.7839V59.7727L58.3458 45.3624H41.5324L41.4993 59.5603L41.5151 59.9501C41.5525 60.4374 41.8367 61.5532 43.0133 62.1429C43.9632 62.6677 44.7581 62.6215 44.9921 62.6215C45.0179 62.6215 45.0351 62.6215 45.0438 62.6203L45.2662 62.6228V62.9864H27.3593V62.9876ZM35.6477 59.5953H36.9147V41.614H62.9764V59.604H64.2449V24.9497H62.9764V40.5444H36.9147V24.9509H35.6477V59.5953Z" fill="url(#paint5_linear_836_153)"/>
<path d="M38.4032 77.9809C37.06 77.8684 35.9976 77.263 35.4049 76.2724C35.3273 76.1427 35.271 76.0111 35.271 76.0111L36.9852 75.259L37.1642 75.4756C37.3637 75.7168 37.7424 76.1136 38.0724 76.2498C38.8686 76.5783 39.9619 76.2856 40.077 75.7131C40.1799 75.2013 39.8683 74.9255 38.822 74.6027C37.2478 74.117 36.9257 73.9753 36.4147 73.5433C35.773 73.0009 35.5433 72.3049 35.7387 71.4946C36.2998 69.1666 40.4251 68.9134 41.8818 71.1175L42.0202 71.3268L41.209 71.7242L40.3688 72.0979C40.3688 72.0979 40.2447 71.8799 40.1786 71.7744C39.5644 70.7939 37.7417 70.9361 37.7417 71.9069C37.7417 72.3434 37.9854 72.503 39.3243 72.9437C40.3564 73.2834 40.5667 73.3647 40.9348 73.5664C41.778 74.0282 42.1706 74.6313 42.1694 75.4629C42.167 77.0527 40.5142 78.1577 38.4032 77.9809ZM55.0965 77.9791C51.4094 77.671 49.4024 74.1383 51.4232 71.5135C53.5487 68.7526 58.4535 69.0379 60.1202 72.0195C60.733 73.1157 60.7339 74.4858 60.1226 75.5795C59.2148 77.2034 57.2187 78.1564 55.0965 77.9791H55.0965ZM56.5035 76.2112C59.635 75.3191 58.916 71.3008 55.622 71.2847C52.5184 71.2695 51.5481 74.9099 54.3433 76.0822C55.021 76.3664 55.7962 76.4127 56.5035 76.2112ZM22.0051 77.8666C22.0051 77.8666 22 76.0012 22 73.7767V69.7322H23.0137H24.0274L24.0389 71.3095L24.0504 72.8869L25.9795 72.8966L27.9087 72.9063V71.3192V69.7322H28.9228H29.937V73.8016V77.871H28.9228H27.9087V76.2096V74.5483H25.9685H24.0283V76.2096V77.871H23.0436L22.0051 77.8666ZM31.789 73.8016V69.7322H32.8032H33.8173V73.8016V77.871H32.8032H31.789V73.8016ZM45.5465 74.6043V71.3375H44.2898H43.0331V70.5348V69.7322H46.5827H50.1323V70.5343V71.3364L48.8646 71.3463L47.5969 71.3562L47.5856 74.6136L47.5841 77.8849L46.5604 77.8807L45.5465 77.8765V74.6043ZM61.9937 69.705L63.7062 69.705C66.4714 69.7051 67.0488 69.8284 67.867 70.5173C69.2952 71.72 68.7527 73.8972 66.8894 74.5944L66.6636 74.6789L67.9664 76.2524C68.683 77.1177 69.2531 77.8689 69.2531 77.8689L68.103 77.871H66.9367L65.755 76.3781L64.5732 74.8852L64.2756 74.8848L63.978 74.8843V76.3776V77.8658H62.9858L61.9947 77.867L62.0037 73.9412L61.9937 69.705ZM65.7086 73.3911C66.8923 73.0815 66.9086 71.653 65.7318 71.3571C65.5668 71.3157 65.2977 71.3002 64.7416 71.3002H63.978V72.3829V73.4656H64.7009C65.2986 73.4656 65.4731 73.4527 65.7086 73.3911V73.3911ZM72.4411 77.8666C72.4411 77.8666 72.4441 77.0297 72.4441 76.0623V74.3033L70.9196 72.2511C70.0811 71.1223 69.3169 70.0938 69.2213 69.9655L69.0475 69.7322L70.2056 69.7327L71.3638 69.7332L72.4207 71.2232C73.002 72.0427 73.5102 72.6961 73.5102 72.6961C73.5102 72.6961 74.0133 72.016 74.5883 71.2056L75.6337 69.7322H76.7718H77.9098L77.4989 70.2828C77.273 70.5857 76.4996 71.6267 75.7803 72.5961L74.4724 74.3587V76.1149V77.871H73.4877L72.4411 77.8666ZM75.6189 77.4043L75.6212 76.9381L75.4425 76.9376L75.2661 76.9366V76.7136H75.7732H76.2803L76.281 76.9403L76.0929 76.9403L75.8912 76.94L75.8931 77.4136L75.8907 77.871H75.7498H75.6189V77.4043ZM76.5008 77.2901V76.7091L76.6611 76.7089L76.7287 76.7097L77.0172 77.1445L77.2615 77.5331L77.4991 77.1228L77.7192 76.7094C77.7192 76.7094 77.7894 76.7088 77.8466 76.7089L78 76.7091V77.2901V77.871H77.8693H77.7386L77.7376 77.5172L77.741 77.1332L77.5293 77.502L77.3265 77.863L77.1821 77.8627L76.9735 77.5088L76.7653 77.1448L76.7677 77.507L76.7703 77.871H76.633H76.5008V77.2901L76.5008 77.2901Z" fill="black"/>
<defs>
<linearGradient id="paint0_linear_836_153" x1="31.5815" y1="53.422" x2="65.81" y2="28.4789" gradientUnits="userSpaceOnUse">
<stop stop-color="#DD972C"/>
<stop offset="0.264617" stop-color="#F8CB45"/>
<stop offset="0.654677" stop-color="#F2AC2F"/>
<stop offset="1" stop-color="#FDDB50"/>
</linearGradient>
<linearGradient id="paint1_linear_836_153" x1="31.2644" y1="41.1752" x2="67.721" y2="55.5689" gradientUnits="userSpaceOnUse">
<stop stop-color="#DD972C"/>
<stop offset="0.264617" stop-color="#B55727"/>
<stop offset="0.485254" stop-color="#F2AC2F"/>
<stop offset="0.825857" stop-color="#E5B544"/>
<stop offset="1" stop-color="#FDDB50"/>
</linearGradient>
<linearGradient id="paint2_linear_836_153" x1="27.3325" y1="42.5856" x2="72.6043" y2="42.5856" gradientUnits="userSpaceOnUse">
<stop offset="0.2066" stop-color="#EE9322"/>
<stop offset="0.4014" stop-color="#F2AC2F"/>
<stop offset="0.6663" stop-color="#F8CB45"/>
<stop offset="0.8749" stop-color="#FCDE54"/>
<stop offset="1" stop-color="#FEE55A"/>
</linearGradient>
<linearGradient id="paint3_linear_836_153" x1="61.7254" y1="59.5269" x2="52.1039" y2="41.2174" gradientUnits="userSpaceOnUse">
<stop offset="0.4326" stop-color="#B55727"/>
<stop offset="0.4596" stop-color="#BD6829" stop-opacity="0.9612"/>
<stop offset="0.514" stop-color="#CB8331" stop-opacity="0.8833"/>
<stop offset="0.5722" stop-color="#D89D3A" stop-opacity="0.7999"/>
<stop offset="0.6339" stop-color="#E4B442" stop-opacity="0.7114"/>
<stop offset="0.7005" stop-color="#EEC749" stop-opacity="0.6161"/>
<stop offset="0.7741" stop-color="#F6D54E" stop-opacity="0.5105"/>
<stop offset="0.8605" stop-color="#FCDE52" stop-opacity="0.3867"/>
<stop offset="0.9908" stop-color="#FEE153" stop-opacity="0.2"/>
</linearGradient>
<linearGradient id="paint4_linear_836_153" x1="49.9685" y1="57.1885" x2="49.9685" y2="42.4256" gradientUnits="userSpaceOnUse">
<stop stop-color="#B55727" stop-opacity="0.7"/>
<stop offset="0.144" stop-color="#BF6C2A" stop-opacity="0.6419"/>
<stop offset="0.5534" stop-color="#DCA43C" stop-opacity="0.4766"/>
<stop offset="0.8458" stop-color="#F2CE4C" stop-opacity="0.3585"/>
<stop offset="0.9908" stop-color="#FEE153" stop-opacity="0.3"/>
</linearGradient>
<linearGradient id="paint5_linear_836_153" x1="30.4165" y1="62.1362" x2="38.9522" y2="22.4586" gradientUnits="userSpaceOnUse">
<stop stop-color="#B55727" stop-opacity="0.7"/>
<stop offset="0.418092" stop-color="#BF6C2A" stop-opacity="0.6419"/>
<stop offset="0.8458" stop-color="#F2CE4C" stop-opacity="0.3585"/>
<stop offset="0.9908" stop-color="#FEE153" stop-opacity="0.3"/>
</linearGradient>
</defs>
</svg>
