<svg width="100" height="100" viewBox="0 0 100 100" fill="none" xmlns="http://www.w3.org/2000/svg">
<g clip-path="url(#clip0_837_397)">
<path d="M49.4991 53.9068C66.9824 53.9068 82.6124 55.6902 93 58.4891C84.2403 53.7243 68.0406 50.5261 49.4991 50.5261C30.9594 50.5261 14.7597 53.7243 6 58.4891C16.3876 55.6902 32.0176 53.9068 49.4991 53.9068Z" fill="#4AB0CD"/>
<path d="M63.97 70.523C65.1274 71.6541 66.3875 72.2341 68.1741 72.2341C69.6974 72.2341 70.8007 71.6541 70.8007 70.523C70.8007 69.5744 70.0904 69.2853 69.171 69.2058L66.8076 68.9962C64.601 68.8119 62.9731 67.4946 62.9731 65.2053C62.9731 62.4932 65.1274 61.0983 67.9379 61.0983C70.2743 61.0983 71.8517 61.8084 73.1642 62.9142L71.5092 64.862C70.4582 64.1248 69.3819 63.6243 67.9379 63.6243C66.2289 63.6243 65.652 64.3091 65.652 65.2306C65.652 65.8106 66.0721 66.3888 67.4115 66.4954L69.6181 66.6526C72.3763 66.8369 73.4796 68.5228 73.4796 70.6549C73.4796 73.2604 71.0621 74.7619 67.9632 74.7619C65.8089 74.7619 63.8132 73.9723 62.106 72.366L63.97 70.523" fill="#4AB0CD"/>
<path d="M46.3803 72.0769C45.7241 72.0769 45.3815 71.7607 45.3815 71.1554V55.8583H41.8373V58.1512H42.7026V71.365C42.7026 73.7609 44.1737 74.6029 46.1171 74.6029H47.2997V72.0769H46.3803" fill="#4AB0CD"/>
<path d="M38.7689 62.8347C38.0064 61.8355 36.8238 61.0983 35.1959 61.0983C33.8294 61.0983 32.5963 61.7289 31.7544 62.6504V61.2555H30.4131V61.232H27.9397V63.5249H29.0754V80.0001H31.7544V73.1827C32.7531 74.1295 33.8294 74.7619 35.1959 74.7619C36.8238 74.7619 38.0064 74.0247 38.7689 73.0237C39.5027 72.0769 39.7136 71.2078 39.7136 67.9427C39.7136 64.6524 39.5027 63.7833 38.7689 62.8347ZM34.381 72.0769C31.886 72.0769 31.7544 69.8653 31.7544 67.9427C31.7544 65.9949 31.886 63.7833 34.381 63.7833C36.9031 63.7833 37.0347 65.863 37.0347 67.9427C37.0347 69.9954 36.9031 72.0769 34.381 72.0769Z" fill="#4AB0CD"/>
<path d="M57.4331 61.2554V69.2057C57.4331 71.0234 56.3045 72.0768 54.8064 72.0768C53.2831 72.0768 52.1546 71.0234 52.1546 69.2057V61.2554L48.4517 61.2951V63.5013H49.4756V70.1272C49.4756 73.1555 51.8391 74.7618 53.9411 74.7618C55.3329 74.7618 56.5407 74.2342 57.3808 73.1826H57.4331V74.6028H60.1138V61.2554H57.4331" fill="#4AB0CD"/>
<path d="M76.9031 72.3787L77.4547 73.9452L78.0063 72.3787H78.6391V74.5686H78.2389V72.8015L77.6422 74.5686H77.278L76.6723 72.8015V74.5686H76.2703V72.3787H76.9031V72.3787ZM74.0385 72.7491V72.3787H75.9025V72.7491H75.1868V74.5686H74.7541V72.7491H74.0385Z" fill="#4AB0CD"/>
<path d="M39.3242 46.3648H32.5638V36.6854H28.1759V46.3648H21.2352L21.21 21.4208H28.1759V30.6991H32.5638V21.4208H39.3242V46.3648V46.3648ZM70.2995 46.4823C77.2708 46.4787 82.9441 40.6732 82.9423 33.6859C82.9406 26.5505 77.2708 21.007 70.2995 21.0016C63.3371 20.998 59.7785 26.1349 58.9005 28.2093C58.9077 25.096 55.8466 21.4208 52.2663 21.4172H40.7304V46.3558L51.4857 46.3594C55.8232 46.3594 58.9077 42.5939 58.9131 39.365C59.9029 41.3977 63.3371 46.4841 70.2995 46.4823V46.4823ZM50.5843 36.3348C51.5795 36.3348 52.3637 37.3196 52.3637 38.4417C52.3637 39.5637 51.5795 40.5485 50.5843 40.5485H47.1645V36.3348H50.5843V36.3348ZM50.597 26.9697C51.5921 26.9697 52.3763 27.9545 52.3763 29.0766C52.3763 30.2005 51.5921 31.1852 50.597 31.1852H47.1753V26.9697H50.597ZM55.1508 33.6913C55.935 33.592 57.2402 32.6939 57.7017 32.1194C57.5394 32.8313 57.5268 34.8875 57.7161 35.5994C57.1915 34.7881 55.9476 33.7907 55.1507 33.6913H55.1508ZM63.9699 33.6913C63.9699 30.1842 66.8057 27.3419 70.3031 27.3419C73.8022 27.3419 76.638 30.1842 76.638 33.6913C76.638 37.1967 73.8022 40.0389 70.3031 40.0389C66.8057 40.0389 63.9699 37.1967 63.9699 33.6913ZM70.3031 38.682C73.0541 38.682 75.2823 36.4468 75.2823 33.6913C75.2823 30.934 73.0541 28.7007 70.3031 28.7007C67.5538 28.7007 65.3238 30.934 65.3238 33.6913C65.3238 36.4468 67.5538 38.682 70.3031 38.682Z" fill="black"/>
</g>
<defs>
<clipPath id="clip0_837_397">
<rect width="87" height="59" fill="white" transform="translate(6 21)"/>
</clipPath>
</defs>
</svg>
