<svg width="100" height="100" viewBox="0 0 100 100" fill="none" xmlns="http://www.w3.org/2000/svg">
<path d="M46.5098 28.0001H23.7466C21.1934 28.0001 22.1469 30.0859 22.1469 30.0859L33.1481 58.0681C34.2153 60.9125 34.2958 63.1762 33.3745 64.8252C32.4866 66.4742 31.1937 67.4432 29.6109 67.8315C28.0281 68.2038 26.4437 67.8967 24.7961 67.0725C23.2122 66.1666 22.3078 64.5987 22.0009 62.4162C21.4836 60.6225 22.1627 58.6658 23.9717 56.5485C25.782 54.4466 26.8316 52.1023 27.0422 49.4675C27.2037 48.1091 26.8316 46.8326 25.9278 45.7018C25.0225 44.6506 23.8923 43.8258 22.5342 43.3727C21.1767 42.904 19.6744 42.7586 18.172 42.9858C16.5881 43.2117 15.2317 43.9705 14.0205 45.1835C12.2908 46.9936 11.0959 49.4675 10.4011 52.7006C9.73781 55.9497 9.88484 59.1993 10.9344 62.4162C11.6134 64.4533 13.1314 66.3931 15.5386 68.2845C17.8809 70.0787 20.4183 71 23.212 71C23.212 71 44.3606 70.9841 46.252 71C47.8348 71 47.8191 68.9633 47.8191 68.9633V29.4228C47.8191 28.4034 46.5098 28.0001 46.5098 28.0001M89.0653 36.5838C88.388 34.5473 86.8683 32.591 84.4611 30.7169C82.1188 28.9056 79.5813 28.0001 76.7864 28.0001H53.7319C52.1491 27.9837 52.1655 30.0367 52.1655 30.0367V69.5608C52.1655 70.5793 53.4741 70.9995 53.4741 70.9995H76.2531C78.8063 70.9995 77.8534 68.8982 77.8534 68.8982L66.8358 40.9484C65.7845 38.087 65.7039 35.8237 66.6094 34.1753C67.5131 32.5265 68.8059 31.5405 70.3888 31.1687C71.972 30.7805 73.5559 31.088 75.2036 31.9129C76.7864 32.8171 77.6917 34.4013 77.9986 36.5838C78.5161 38.3776 77.837 40.3495 76.0284 42.4514C74.2194 44.5535 73.1681 46.8965 72.9417 49.532C72.7964 50.8909 73.1681 52.1675 74.0734 53.3153C74.9772 54.3665 76.1091 55.1901 77.4655 55.6432C78.8219 56.0954 80.3253 56.2408 81.8275 56.0149C83.4103 55.7884 84.768 55.0289 85.9803 53.8325C87.7089 52.0221 88.9042 49.532 89.5986 46.2987C90.2619 43.0657 90.1159 39.8166 89.0653 36.5838" fill="#C00028"/>
</svg>
