<svg width="100" height="100" viewBox="0 0 100 100" fill="none" xmlns="http://www.w3.org/2000/svg">
<g clip-path="url(#clip0_840_2924)">
<path d="M9.88996 71.5409V77.9086H12.7333V71.5409H15.6233V69.4612H7V71.5409H9.88996Z" fill="#1497D4"/>
<path d="M22.5503 77.9086L25.9666 69.4612H23.0766L21.0408 75.5352L18.9697 69.4612H16.0094L19.4727 77.9086H22.5503Z" fill="#1497D4"/>
<path d="M34.9881 74.6658C34.9881 75.1831 34.9178 75.5469 34.766 75.7588C34.6137 75.9701 34.3799 76.0875 34.0636 76.0875C33.8648 76.0875 33.7129 76.0524 33.5956 75.9818C33.4321 75.8761 33.3264 75.7232 33.2565 75.5469C33.1862 75.3711 33.1512 75.0891 33.1512 74.7131L30.4364 75.0535C30.4834 75.7115 30.6469 76.2521 30.9278 76.6983C31.2086 77.1449 31.5947 77.4858 32.1098 77.7089C32.6245 77.9437 33.3385 78.0498 34.2625 78.0498C35.14 78.0498 35.854 77.8735 36.4156 77.5209C36.9773 77.1683 37.3518 76.7455 37.539 76.2404C37.7262 75.7349 37.8199 75.0068 37.8199 74.0434V69.4495H34.9765V74.6658H34.9881Z" fill="#1497D4"/>
<path d="M45.7058 74.6191C45.7058 75.0891 45.5656 75.4529 45.2848 75.6999C45.0039 75.9468 44.6295 76.0875 44.1381 76.0875C43.6467 76.0875 43.2602 75.9585 42.9798 75.6999C42.6989 75.4412 42.5583 75.0774 42.5583 74.6191V69.4612H39.7266V74.5017C39.7266 74.9128 39.8202 75.3945 39.9841 75.9346C40.0894 76.2639 40.2999 76.5926 40.5928 76.9102C40.8853 77.2272 41.2127 77.4742 41.5639 77.6383C41.9146 77.8146 42.3594 77.9203 42.8862 77.9792C43.4125 78.0377 43.9038 78.0615 44.3486 78.0615C45.1208 78.0615 45.7878 77.9675 46.3378 77.7795C46.7356 77.65 47.11 77.4152 47.4728 77.0743C47.8352 76.7455 48.1044 76.3579 48.2683 75.9112C48.4323 75.4651 48.5259 74.9951 48.5259 74.5017V69.4612H45.6942V74.6191H45.7058Z" fill="#1497D4"/>
<path d="M56.716 72.9743C56.1781 72.7274 55.2885 72.4688 54.0482 72.2223C53.5452 72.1283 53.2294 72.0226 53.1004 71.9048C52.9602 71.7991 52.8899 71.6817 52.8899 71.5409C52.8899 71.3529 52.9719 71.2 53.1358 71.0709C53.2998 70.9414 53.5569 70.8829 53.8847 70.8829C54.2825 70.8829 54.5983 70.9652 54.8325 71.1415C55.0547 71.3174 55.2065 71.5877 55.2769 71.9754L57.9563 71.8346C57.8394 70.9535 57.4766 70.3189 56.8567 69.9195C56.2363 69.5202 55.3472 69.3205 54.1772 69.3205C53.2178 69.3205 52.4689 69.4262 51.9188 69.6492C51.3688 69.8723 50.9594 70.1777 50.6902 70.5658C50.421 70.9535 50.2808 71.3646 50.2808 71.7991C50.2808 72.4571 50.55 73.0094 51.088 73.4322C51.6147 73.8554 52.5038 74.1959 53.7557 74.4545C54.5163 74.6074 54.996 74.7716 55.2065 74.9479C55.4175 75.1242 55.5228 75.3122 55.5228 75.5352C55.5228 75.7705 55.4175 75.9702 55.1949 76.1465C54.9727 76.3228 54.6686 76.4046 54.2592 76.4046C53.7208 76.4046 53.2998 76.2288 53.0068 75.8879C52.8317 75.6765 52.7027 75.3711 52.6445 74.9596L49.9413 75.1125C50.0233 75.9702 50.3628 76.6749 50.9594 77.2272C51.556 77.7795 52.6445 78.0615 54.2005 78.0615C55.0896 78.0615 55.8269 77.9437 56.4119 77.7089C56.9969 77.4742 57.4533 77.1215 57.7807 76.6632C58.1086 76.2049 58.2725 75.7115 58.2725 75.1592C58.2725 74.7014 58.1552 74.2782 57.9097 73.9022C57.6405 73.5379 57.2544 73.2208 56.716 72.9743V72.9743Z" fill="#1497D4"/>
<path d="M61.9347 71.5409V77.9086H64.7664V71.5409H67.668V69.4612H59.0331V71.5409H61.9347Z" fill="#1497D4"/>
<path d="M69.0607 69.4612H71.9036V77.9203H69.0607V69.4612Z" fill="#1497D4"/>
<path d="M79.4505 75.6764C79.1697 75.9584 78.7603 76.0992 78.2219 76.0992C77.6607 76.0992 77.2275 75.9229 76.9234 75.5824C76.6193 75.2298 76.4553 74.5957 76.4553 73.6557C76.4553 72.9037 76.5839 72.3397 76.8414 71.9871C77.1805 71.5054 77.6723 71.2706 78.3155 71.2706C78.5964 71.2706 78.8539 71.3291 79.0877 71.4352C79.322 71.5409 79.5092 71.6934 79.6731 71.8931C79.7668 72.0109 79.8604 72.1989 79.954 72.4571L82.4578 71.9403C82.13 71.0475 81.6386 70.3895 80.9833 69.9546C80.3164 69.5201 79.4156 69.3083 78.2573 69.3083C76.7827 69.3083 75.6361 69.6843 74.8289 70.4363C74.0213 71.1883 73.6119 72.2574 73.6119 73.6557C73.6119 74.7014 73.8462 75.5707 74.3022 76.2404C74.7586 76.9101 75.3086 77.3801 75.9407 77.65C76.2914 77.8029 76.7008 77.9086 77.1688 77.9675L76.2094 79.2012L77.9648 80L78.69 78.0498C78.7016 78.0498 78.7254 78.0498 78.737 78.0498C79.4039 78.026 79.9656 77.9203 80.4337 77.7323C80.9717 77.5092 81.4164 77.1921 81.7672 76.7572C82.13 76.3227 82.3875 75.7938 82.5515 75.1475L80.0593 74.4544C79.9303 74.9834 79.7314 75.3944 79.4505 75.6764Z" fill="#1497D4"/>
<path d="M89.4315 69.3322H87.1381L83.5575 77.9203H86.0497L86.623 76.3578L89.8642 76.3929L90.5195 77.932H93L89.4315 69.3322ZM87.3137 74.5368L88.2611 72.0226L89.2089 74.5368H87.3137Z" fill="#1497D4"/>
<path d="M50 19C37.3983 19 27.1719 29.2568 27.1719 41.922C27.1719 48.3252 29.781 54.1055 33.9932 58.2645L40.4522 51.8734L40.5807 51.7794C37.9949 49.3003 36.3922 45.8106 36.3922 41.9337C36.3922 34.4614 42.4414 28.3168 49.883 28.2583C57.4882 28.1877 63.6663 34.3908 63.596 42.0277C63.5378 49.4411 57.512 55.4917 50.1285 55.5623C46.981 55.5974 44.0677 54.54 41.7511 52.7661L41.6575 52.8952L35.2689 59.4041C39.2468 62.776 44.3835 64.8206 50 64.8206C62.6016 64.8206 72.828 54.5638 72.828 41.8986C72.828 29.2334 62.6016 19 50 19Z" fill="#054A85"/>
<path d="M58.179 29.7502H67.2587L67.4222 44.2014C67.4222 44.2014 68.4636 54.5755 58.5064 61.2135C58.5064 61.2135 48.2335 68.2981 36.7081 59.4158L42.6869 53.2712C42.6869 53.2712 58.4478 61.93 58.1087 40.1477L58.179 29.7502Z" fill="white"/>
<path d="M56.7278 29.7502H65.8075V44.5068C65.8075 44.5068 67.0245 54.5638 57.0556 61.2018C57.0556 61.2018 46.7822 68.2864 35.2573 59.4041L41.7396 52.7428C41.7396 52.7428 56.997 61.9183 56.6579 40.136L56.7278 29.7502Z" fill="#9ED4EE"/>
</g>
<defs>
<clipPath id="clip0_840_2924">
<rect width="86" height="61" fill="white" transform="translate(7 19)"/>
</clipPath>
</defs>
</svg>
