<svg width="100" height="100" viewBox="0 0 100 100" fill="none" xmlns="http://www.w3.org/2000/svg">
<mask id="mask0_840_2252" style="mask-type:alpha" maskUnits="userSpaceOnUse" x="13" y="34" width="74" height="43">
<path d="M13 77V34.6403H86.5206V77H13Z" fill="white"/>
</mask>
<g mask="url(#mask0_840_2252)">
<path fill-rule="evenodd" clip-rule="evenodd" d="M36.2753 34.6403V68.6293L72.8471 77C82.1756 73.6508 86.5204 65.7273 86.5204 56.6694C86.5204 44.6594 78.8825 34.6403 62.1149 34.6403H36.2753ZM53.3398 46.6976H60.4494C66.3841 46.6976 68.5189 51.6591 68.6224 56.6694C68.5189 61.6796 66.3841 66.6415 60.4494 66.6415H53.3398V46.6976ZM12.9998 34.6403V63.3022L30.0643 67.2079V34.6403H12.9998Z" fill="black"/>
</g>
<path fill-rule="evenodd" clip-rule="evenodd" d="M66.1762 24.3206L65.1595 27.2291L64.2102 24.3206H63.2409L64.715 28.2608L64.7041 28.2853C64.7041 28.2853 64.4076 29.0913 64.1387 29.2843C63.9298 29.3911 63.4481 29.3823 63.2643 29.37V30.1144C63.5843 30.1127 64.3375 30.1328 64.5782 29.9793C64.8824 29.7866 64.9505 29.7039 65.1595 29.2836C65.3845 28.8237 67.1234 24.3206 67.1234 24.3206H66.1762ZM61.4277 24.9758V24.3206H60.5193V28.2887H61.4277V26.7784C61.4277 26.5113 61.4526 26.2784 61.5251 26.0868C61.7994 25.3642 62.5625 25.16 62.9573 25.1011L62.6462 24.3424C62.327 24.3972 61.7708 24.5511 61.4277 24.9758ZM45.7761 27.5865C45.077 27.5865 44.5896 27.0164 44.5896 26.3023C44.5896 25.6038 45.0689 25.0327 45.7319 25.0327C46.1887 25.0327 46.4811 25.2349 46.7598 25.5289L47.3245 24.919C46.9555 24.5163 46.4889 24.2379 45.7394 24.2379C44.5515 24.2379 43.6812 25.1828 43.6812 26.3189C43.6812 27.452 44.5515 28.3755 45.7319 28.3755C46.5045 28.3755 46.9651 28.0678 47.3544 27.6328L46.8058 27.0919C46.5202 27.3846 46.205 27.5865 45.7761 27.5865ZM58.9369 25.9302C58.9223 25.7846 58.8913 25.7444 58.8402 25.6164C58.7892 25.4898 58.7214 25.3751 58.6377 25.2822C58.5519 25.1879 58.4488 25.113 58.3341 25.0606C58.2146 25.0082 58.0798 24.9827 57.9301 24.9827C57.6503 24.9827 57.4199 25.0773 57.2344 25.2709C57.0526 25.465 56.9406 25.6205 56.9008 25.9302L58.9369 25.9302ZM59.7194 25.5558C59.7987 25.8149 59.8392 26.0868 59.8392 26.3717C59.8392 26.4115 59.8378 26.4531 59.8359 26.4953C59.8331 26.5398 59.8284 26.5821 59.8243 26.6266H56.9084C56.9591 26.9527 57.0884 27.2008 57.2957 27.3765C57.5047 27.548 57.7552 27.6338 58.051 27.6338C58.2784 27.6338 58.4714 27.5936 58.6378 27.5143C58.8015 27.434 58.9642 27.3155 59.1249 27.161L59.6603 27.6338C59.4697 27.8588 59.2409 28.0409 58.9799 28.1746C58.7168 28.3098 58.4009 28.3789 58.0364 28.3789C57.7508 28.3789 57.4833 28.3275 57.2344 28.2288C56.9876 28.128 56.7711 27.9864 56.5883 27.8057C56.4069 27.627 56.2616 27.4095 56.1574 27.1569C56.0516 26.9054 56.0005 26.6239 56.0005 26.32V26.305C56.0005 26.0194 56.0475 25.7502 56.1425 25.4997C56.2384 25.2485 56.3712 25.0306 56.5461 24.8434C56.718 24.6545 56.9216 24.5068 57.1564 24.3999C57.3916 24.2934 57.6537 24.2379 57.9393 24.2379C58.2555 24.2379 58.5315 24.2944 58.7677 24.4115C59.006 24.5259 59.2041 24.6811 59.3617 24.8768C59.5196 25.0715 59.6391 25.2985 59.7194 25.5558V25.5558ZM53.8827 27.2366L52.8164 24.3206H51.8381L53.4709 28.3176H54.2885L55.9127 24.3206H54.9569L53.8827 27.2366ZM50.8929 26.3115C50.8929 26.1365 50.8613 25.9707 50.8024 25.8159C50.7428 25.6603 50.657 25.5252 50.5522 25.4115C50.443 25.2938 50.3153 25.2036 50.1686 25.1345C50.0212 25.0664 49.8565 25.0351 49.6754 25.0351C49.4947 25.0351 49.3316 25.0664 49.1836 25.1345C49.0355 25.2036 48.9092 25.2938 48.8044 25.4071C48.6999 25.5198 48.6182 25.6518 48.5634 25.8033C48.508 25.9582 48.4811 26.1215 48.4811 26.2958V26.3115C48.4811 26.483 48.5114 26.6457 48.5713 26.8006C48.6301 26.9568 48.7152 27.0919 48.8235 27.21C48.9304 27.3281 49.058 27.4204 49.205 27.4878C49.3538 27.5545 49.5161 27.5899 49.6901 27.5899C49.8749 27.5899 50.042 27.5545 50.1907 27.4878C50.3381 27.4204 50.4647 27.3281 50.5699 27.2128C50.6754 27.0991 50.7541 26.9636 50.8099 26.8104C50.865 26.658 50.8929 26.4973 50.8929 26.3268L50.8929 26.3115ZM51.6434 25.4956C51.751 25.7444 51.8027 26.0109 51.8027 26.2958V26.3115C51.8027 26.5926 51.7483 26.8574 51.64 27.1076C51.5332 27.3584 51.3844 27.578 51.1979 27.7655C51.0093 27.9527 50.7843 28.1025 50.5257 28.2138C50.266 28.3227 49.9811 28.3789 49.6754 28.3789C49.3756 28.3789 49.0951 28.3237 48.8385 28.2162C48.5798 28.109 48.3568 27.9629 48.1689 27.7764C47.9817 27.5916 47.835 27.3751 47.7292 27.1243C47.6244 26.8727 47.5719 26.6076 47.5719 26.3268V26.3115C47.5719 26.0255 47.6254 25.7573 47.7323 25.5072C47.8412 25.258 47.9899 25.0395 48.1781 24.8499C48.365 24.6613 48.5879 24.5136 48.8466 24.4027C49.1039 24.2934 49.3854 24.2379 49.6901 24.2379C49.9967 24.2379 50.2792 24.2934 50.5372 24.3999C50.7939 24.5068 51.0175 24.6545 51.2047 24.8434C51.3943 25.0306 51.5403 25.2485 51.6434 25.4956V25.4956ZM42.869 26.323C42.752 26.2356 42.6219 26.161 42.4752 26.1008C42.3306 26.0395 42.1852 25.9881 42.0392 25.9435C41.9232 25.904 41.8115 25.8666 41.705 25.8302C41.5961 25.7958 41.5018 25.756 41.4201 25.7138C41.3367 25.6726 41.269 25.6253 41.2206 25.5701C41.1716 25.5198 41.1468 25.4578 41.1468 25.3874V25.3731C41.1468 25.258 41.1944 25.162 41.2921 25.0854C41.3898 25.0116 41.5253 24.9748 41.7036 24.9748C41.8663 24.9748 42.0457 25.0082 42.2424 25.0746C42.4378 25.1419 42.6298 25.2349 42.82 25.3506L43.1812 24.7032C42.9701 24.5643 42.74 24.4524 42.4834 24.3737C42.2278 24.2934 41.9742 24.2519 41.7227 24.2519C41.5287 24.2519 41.3452 24.2812 41.1716 24.3356C40.9977 24.3904 40.8486 24.4711 40.721 24.5759C40.5927 24.6811 40.4912 24.807 40.4204 24.9554C40.3472 25.1031 40.3115 25.2737 40.3115 25.4626V25.4765C40.3115 25.6678 40.3483 25.8281 40.4242 25.9585C40.5001 26.0892 40.5947 26.1985 40.7131 26.2853C40.8313 26.3724 40.9633 26.4449 41.1117 26.499C41.2598 26.5545 41.4048 26.6028 41.5505 26.6423C41.6648 26.678 41.7782 26.7104 41.8857 26.7437C41.9946 26.7774 42.0876 26.8138 42.1699 26.8564C42.2547 26.8986 42.3176 26.948 42.367 27.0024C42.415 27.0579 42.4378 27.1243 42.4378 27.1988V27.2128C42.4378 27.3431 42.3847 27.4476 42.2754 27.5245C42.1686 27.6015 42.0171 27.6426 41.8214 27.6426C41.6155 27.6426 41.4014 27.6008 41.1794 27.5167C40.9548 27.434 40.7377 27.3132 40.5215 27.1532L40.1165 27.7699C40.3663 27.9653 40.6383 28.113 40.9317 28.2138C41.2237 28.3122 41.5127 28.3622 41.7993 28.3622C42.0025 28.3622 42.1975 28.3363 42.3782 28.2853C42.559 28.2305 42.7138 28.1518 42.8493 28.0508C42.9797 27.9483 43.0831 27.82 43.159 27.6641C43.2353 27.5085 43.2727 27.3247 43.2727 27.1161V27.1008C43.2727 26.9194 43.2353 26.7665 43.159 26.6423C43.0831 26.516 42.9872 26.4098 42.869 26.323V26.323ZM38.5872 28.2887H39.4956V24.3206H38.5872V28.2887ZM38.0606 25.6205C38.0606 27.1076 36.9197 28.2563 35.2659 28.2563H33.6685C33.9919 28.0422 34.2604 27.7543 34.4531 27.4163H35.2659C36.37 27.4163 37.0926 26.6726 37.0926 25.6355C37.0926 24.5994 36.37 23.8417 35.2659 23.8417H34.2311V24.6134C34.079 24.4262 33.9003 24.2566 33.7019 24.1195C33.578 24.033 33.4452 23.9598 33.3074 23.8996V23H35.2659C36.9197 23 38.0606 24.1338 38.0606 25.6205Z" fill="black"/>
<path fill-rule="evenodd" clip-rule="evenodd" d="M34.3838 26.1973C34.3838 25.0397 33.4451 24.0986 32.2854 24.0986C31.1278 24.0986 30.1877 25.0397 30.1877 26.1973C30.1877 27.3549 31.1278 28.2937 32.2854 28.2937C33.4451 28.2937 34.3838 27.3549 34.3838 26.1973Z" fill="black"/>
</svg>
