<svg width="100" height="100" viewBox="0 0 100 100" fill="none" xmlns="http://www.w3.org/2000/svg">
<g clip-path="url(#clip0_837_402)">
<path d="M33.7729 55.335H24.8984V42.6385H19.1434V55.335H10.0538L10 22.5403H19.1434V34.7505H24.8984V22.5403H33.7729V55.335ZM74.3805 55.4971C83.5239 55.4971 90.9462 47.8792 90.9462 38.6945C90.9462 29.2937 83.5239 22 74.3805 22C65.237 22 60.5578 28.7534 59.4283 31.4548C59.4283 27.4028 55.4482 22.5403 50.7151 22.5403H35.6016V55.335H49.6932C55.3944 55.335 59.4283 50.3644 59.4283 46.1503C60.7729 48.7976 65.237 55.4971 74.3805 55.4971ZM48.51 42.1523C49.8008 42.1523 50.8227 43.4489 50.8227 44.9077C50.8227 46.3664 49.8008 47.6631 48.51 47.6631H44.0458V42.1523H48.51ZM48.5637 29.834C49.8546 29.834 50.8765 31.1306 50.8765 32.5894C50.8765 34.0481 49.8546 35.3448 48.5637 35.3448H44.0996V29.834H48.5637ZM54.5339 38.6945C55.5558 38.5864 57.2769 37.3978 57.8685 36.6415C57.6534 37.5599 57.6534 40.2613 57.8685 41.2338C57.2231 40.0992 55.5558 38.8026 54.5339 38.6945ZM66.0976 38.6945C66.0976 34.1022 69.8088 30.3743 74.3805 30.3743C78.9522 30.3743 82.7171 34.1022 82.7171 38.6945C82.7171 43.2868 79.006 47.0147 74.4343 47.0147C69.8088 47.0147 66.0976 43.2868 66.0976 38.6945ZM74.3805 45.2318C77.9841 45.2318 80.8884 42.3143 80.8884 38.6945C80.8884 35.0747 77.9841 32.1572 74.3805 32.1572C70.7769 32.1572 67.8725 35.0747 67.8725 38.6945C67.8725 42.3143 70.7769 45.2318 74.3805 45.2318Z" fill="black"/>
<path d="M47.2191 67.9774C47.8108 67.329 48.1335 66.5186 48.1335 65.4921C48.1335 64.4656 47.757 63.6552 47.004 63.0609C46.251 62.4665 45.1753 62.1964 43.7231 62.1964H39.9044L37.6454 75.055H39.8506L40.8188 69.5442H42.5399L44.9602 75.0009H47.4881L44.8526 69.274C45.8207 69.0579 46.6275 68.6257 47.2191 67.9774ZM41.1415 67.7072L41.7869 64.0333H43.4004C44.1534 64.0333 44.745 64.1414 45.1753 64.4115C45.6056 64.6276 45.8207 65.1139 45.8207 65.7082C45.8207 66.4106 45.5518 66.8968 45.014 67.221C44.4761 67.5451 43.7231 67.7072 42.755 67.7072C42.8088 67.7072 41.1415 67.7072 41.1415 67.7072Z" fill="black"/>
<path d="M38.7211 62.1425H30.3845H28.6096H26.7271L23.4462 66.1945L21.8327 62.1425H18.4442L21.2948 68.1935L19.3586 70.4087L13.496 77H17.4223L22.6932 70.4627L22.747 70.4087L24.6295 75.001H28.0717L24.9522 68.3016L28.0717 64.7358H31.7291L29.9004 75.001H32.9124L34.7411 64.7358H38.2371L38.7211 62.1425Z" fill="black"/>
<path d="M56.7391 69.112L57.008 67.5992H51.1454L51.8447 63.7093H57.9761L58.245 62.1425H50.3387L48.0797 75.001H56.4701L56.7391 73.4342H50.1235L50.8765 69.112H56.7391Z" fill="black"/>
<path d="M82.1255 63.277L82.2868 62.1425H74.5956L72.3366 75.001H80.5119L80.7271 73.8664H73.8426L74.7032 68.8959H80.8346L81.0498 67.7613H74.9183L75.6713 63.277H82.1255Z" fill="black"/>
<path d="M70.7231 62.1425L64.4841 72.7859L62.0638 62.1425H60.1275L57.8685 75.001H59.1056L61.0418 63.8713H61.0956L63.7849 75.001H64.4841L71.0458 63.8713H71.0996L69.1096 75.001H70.4004L72.6594 62.1425H70.7231Z" fill="black"/>
<path d="M17.8526 62.1425H17.745H17.6375H17.4223H17.3685H17.261L20.0578 68.1935L11.9901 77H12.0438H12.1514H12.5817H12.6355H12.743L20.757 68.1935L17.8526 62.1425Z" fill="black"/>
</g>
<defs>
<clipPath id="clip0_837_402">
<rect width="81" height="55" fill="white" transform="translate(10 22)"/>
</clipPath>
</defs>
</svg>
