<svg width="100" height="100" viewBox="0 0 100 100" fill="none" xmlns="http://www.w3.org/2000/svg">
<path d="M65.6151 36.7228C65.6151 40.3546 63.755 42.7978 60.9291 44.9109C60.9291 44.9109 58.811 46.5617 57.656 47.3541L66.7647 58.3954C67.0225 58.0404 69.9554 54.5021 69.9554 54.5021H92.513V44.644H69.9554V37.617L93.9973 37.6011L94 27.0028L60.0017 27.0054C63.5546 28.8461 65.615 32.3926 65.615 36.7233L65.6151 36.7228ZM73.939 61.7222C72.3861 63.5161 72.3285 63.7335 71.7661 64.3773L78.8692 72.9974L93.9615 72.9947L93.9642 61.7279L73.939 61.7222ZM27.5508 53.4213L32.0886 39.8049L36.5167 53.4213H27.5508ZM47.4718 27.0027L24.2447 27L6 72.9947L21.4354 73L24.4176 64.4652L38.8625 64.4785C38.344 62.9019 38.0723 61.1328 38.0723 59.1711C38.0723 53.1648 42.3139 49.2689 46.2893 46.5615C44.4319 44.3825 41.7323 41.0809 41.7323 36.5906C41.7323 32.282 43.7981 28.8152 47.4718 27.002V27.0027ZM54.841 40.7507C56.3171 39.6941 57.4694 38.4395 57.4694 36.7887C57.4694 34.6096 56.0592 32.9588 53.6833 32.9588C51.1784 32.9588 49.8971 34.6096 49.8971 36.7887C49.8971 38.5056 51.3045 40.1564 52.9095 42.0713C53.5543 41.6751 54.841 40.7507 54.841 40.7507V40.7507ZM46.6131 59.3637C46.6131 63.2624 50.2044 66.7869 54.0536 66.7869C56.7506 66.7869 58.7424 65.9312 60.8604 64.0163L51.236 52.1661C48.4704 54.1471 46.6131 55.996 46.6131 59.3637" fill="black"/>
</svg>
