<svg width="100" height="100" viewBox="0 0 100 100" fill="none" xmlns="http://www.w3.org/2000/svg">
<path fill-rule="evenodd" clip-rule="evenodd" d="M41.0424 26.1586C39.0631 25.0016 37.7439 24.7373 36.3307 24.7373C35.5454 24.7373 34.6656 24.935 34.5399 25.7283C34.4454 26.4223 35.0738 26.5883 36.3936 26.8859C38.8122 27.4149 41.2621 28.1094 41.5758 30.7215L42.896 23.8769L41.0424 26.1586ZM59.2633 26.3568L62.875 21.463H68.2468L60.6454 30.8869L59.5147 36.7722H54.9282L56.2157 30.1924L53.8598 25.9265L50.7816 29.4651L54.9282 36.7722H49.3995L46.1628 30.6887L45.0628 36.7722H40.414L41.0735 33.2675C39.8172 36.2764 37.4614 37.269 34.2574 37.269C31.5557 37.269 29.0741 36.4086 27.7233 34.8541L30.2676 31.7135C31.3666 32.8378 33.0639 33.4329 34.8542 33.4329C36.11 33.4329 36.8646 32.9371 36.8952 32.2754C36.9269 31.1512 35.0738 30.9857 33.3776 30.49C31.4611 29.9281 29.4195 28.5724 29.9534 25.7283C30.3616 23.546 32.2147 21 36.9269 21C39.5658 21 41.5134 21.6279 43.1152 22.8187L43.366 21.463H48.0164L46.665 28.1094L52.1319 21.463H56.7501L59.2633 26.3568Z" fill="#E30601"/>
<path d="M69.7015 22.8729H70.0737C70.2278 22.8729 70.3251 22.7988 70.3637 22.6516C70.4019 22.5076 70.3498 22.4362 70.2069 22.4362H69.8164L69.7015 22.8729ZM69.2234 23.5749L69.5903 22.1864H70.2977C70.6103 22.1864 70.7284 22.3299 70.6527 22.6177C70.5974 22.8267 70.4932 22.9518 70.3396 22.9943C70.4631 23.026 70.505 23.1167 70.4658 23.2666L70.3841 23.5749H70.092L70.1596 23.3182C70.194 23.1876 70.1435 23.1221 70.0076 23.1221H69.6354L69.5162 23.5749H69.2234ZM70.2756 21.8228C69.9856 21.8228 69.7111 21.927 69.4501 22.1354C69.1896 22.3444 69.0198 22.5963 68.942 22.8922C68.8641 23.1882 68.9006 23.4406 69.0505 23.6496C69.2009 23.859 69.4216 23.9633 69.7117 23.9633C70.0012 23.9633 70.2756 23.859 70.5356 23.6496C70.7951 23.4406 70.9642 23.1882 71.0421 22.8922C71.12 22.5973 71.084 22.346 70.9347 22.1365C70.7859 21.927 70.5657 21.8228 70.2756 21.8228ZM70.3229 21.652C70.6629 21.652 70.9213 21.7729 71.0996 22.0151C71.2774 22.2573 71.3214 22.5495 71.2312 22.8922C71.141 23.2344 70.9428 23.5271 70.6366 23.7704C70.331 24.0132 70.0076 24.1351 69.6682 24.1351C69.3244 24.1351 69.0639 24.0132 68.8845 23.771C68.7062 23.5287 68.6627 23.236 68.7529 22.8922C68.8431 22.5495 69.0419 22.2573 69.3486 22.0151C69.6547 21.7729 69.9797 21.652 70.3229 21.652" fill="#E30601"/>
<path d="M37.9684 40.6343H37.3837L37.1552 41.9437H36.4354L37.057 38.3668L38.241 38.3693C38.6374 38.3693 38.942 38.4626 39.1549 38.6493C39.3695 38.836 39.4645 39.0956 39.4399 39.4281C39.4055 39.9194 39.1435 40.2609 38.6538 40.4525L39.1574 41.9044V41.9437H38.3909L37.9684 40.6343ZM37.4869 40.0373L38.0224 40.0422C38.2124 40.039 38.3688 39.9882 38.4916 39.8899C38.6161 39.79 38.6906 39.6549 38.7152 39.4846C38.7381 39.3257 38.7127 39.2013 38.639 39.1112C38.5653 39.0211 38.4482 38.9728 38.2877 38.9662L37.6736 38.9638L37.4869 40.0373Z" fill="#E30601"/>
<path d="M41.9358 40.3935H40.565L40.398 41.3516H42.0095L41.9063 41.9437H39.575L40.1965 38.3668H42.523L42.4173 38.9638H40.8131L40.6633 39.8162H42.039L41.9358 40.3935Z" fill="#E30601"/>
<path d="M42.3461 41.9437L42.9676 38.3668L43.9945 38.3693C44.2352 38.3742 44.4514 38.4291 44.643 38.5339C44.8363 38.6371 44.9927 38.7861 45.1123 38.981C45.2318 39.1759 45.3039 39.3953 45.3284 39.6394C45.3415 39.7818 45.3399 39.9276 45.3235 40.0766L45.3063 40.2068C45.2343 40.7309 45.0279 41.1518 44.6873 41.4695C44.3482 41.7856 43.9363 41.9437 43.4516 41.9437H42.3461ZM43.5842 38.9638L43.1691 41.3516L43.4688 41.3541C43.7996 41.3541 44.0649 41.2329 44.2647 40.9905C44.4662 40.7481 44.5816 40.3821 44.6111 39.8924L44.616 39.8138C44.6209 39.5435 44.5693 39.3364 44.4612 39.1922C44.3532 39.0481 44.1918 38.9728 43.9773 38.9662L43.5842 38.9638Z" fill="#E30601"/>
<path d="M47.9054 40.3935H46.5346L46.3676 41.3516H47.9791L47.876 41.9437H45.5446L46.1661 38.3668H48.4926L48.3869 38.9638H46.7828L46.6329 39.8162H48.0086L47.9054 40.3935Z" fill="#E30601"/>
<path d="M35.2896 44.8103C35.2208 45.1804 35.0529 45.4736 34.786 45.6898C34.5207 45.906 34.2021 46.0091 33.8303 45.9993C33.6093 45.9944 33.416 45.9404 33.2506 45.8372C33.0852 45.7324 32.9566 45.5825 32.8649 45.3876C32.7732 45.1911 32.7224 44.9741 32.7126 44.7366C32.706 44.6023 32.7118 44.4713 32.7298 44.3436L32.7715 44.0488C32.8485 43.5116 33.0369 43.0882 33.3366 42.7787C33.6379 42.4675 34.004 42.316 34.4347 42.3242C34.7704 42.3307 35.0366 42.4397 35.2331 42.6509C35.4296 42.8606 35.5336 43.1521 35.5451 43.5255H35.0857C35.0644 43.0243 34.8679 42.7541 34.4961 42.7148L34.415 42.7099C34.1055 42.7017 33.8467 42.8172 33.6387 43.0563C33.4324 43.2937 33.2989 43.6188 33.2383 44.0316L33.1843 44.4025L33.1695 44.6187C33.1597 44.92 33.2129 45.16 33.3292 45.3385C33.4471 45.5154 33.6215 45.6071 33.8525 45.6136C34.1014 45.6218 34.3069 45.562 34.4691 45.4343C34.6328 45.3066 34.7573 45.101 34.8425 44.8177L35.2896 44.8103Z" fill="#E30601"/>
<path d="M37.304 44.5032H36.4786L36.228 45.9502H35.7637L36.3852 42.3733L37.4613 42.3758C37.8363 42.3774 38.1221 42.4724 38.3186 42.6608C38.5151 42.8491 38.5979 43.1054 38.5667 43.4297C38.5487 43.6541 38.4668 43.8514 38.3211 44.0217C38.177 44.1921 37.9845 44.3206 37.7438 44.4074L38.299 45.9183L38.2965 45.9502H37.8052L37.304 44.5032ZM36.5449 44.1175L37.223 44.12C37.4588 44.12 37.6578 44.0578 37.8199 43.9333C37.9821 43.8072 38.077 43.6393 38.1049 43.4297C38.1295 43.225 38.0885 43.0645 37.9821 42.9482C37.8756 42.8319 37.7135 42.7705 37.4956 42.7639L36.7808 42.7615L36.5449 44.1175Z" fill="#E30601"/>
<path d="M41.0504 44.2969H39.5469L39.3258 45.5645H41.075L41.0062 45.9502H38.7977L39.4192 42.3733H41.6031L41.5344 42.7615H39.8123L39.6133 43.9112H41.1167L41.0504 44.2969Z" fill="#E30601"/>
<path d="M41.5982 45.9502L42.2198 42.3733L43.1484 42.3758C43.4399 42.3758 43.6905 42.4487 43.9001 42.5944C44.1114 42.7402 44.2629 42.9416 44.3546 43.1988C44.4463 43.4542 44.4733 43.7409 44.4356 44.0586L44.4111 44.2379C44.339 44.7587 44.1367 45.1747 43.8043 45.4859C43.4718 45.7954 43.0542 45.9502 42.5514 45.9502H41.5982ZM42.6128 42.7615L42.1264 45.5645L42.5809 45.567C42.9281 45.567 43.2221 45.4589 43.4628 45.2427C43.7052 45.0265 43.8624 44.7301 43.9345 44.3534C43.9918 44.052 44.0115 43.7957 43.9934 43.5845C43.9689 43.3306 43.8845 43.1324 43.7404 42.9899C43.5963 42.8458 43.403 42.7705 43.1606 42.7639L42.6128 42.7615Z" fill="#E30601"/>
<path d="M47.079 44.2969H45.5755L45.3544 45.5645H47.1035L47.0348 45.9502H44.8262L45.4478 42.3733H47.6317L47.5629 42.7615H45.8408L45.6418 43.9112H47.1453L47.079 44.2969Z" fill="#E30601"/>
<path d="M50.2972 45.9502H49.8501L48.5726 43.1742L48.0911 45.9502H47.6268L48.2483 42.3733H48.6954L49.9753 45.1616L50.4593 42.3733H50.9187L50.2972 45.9502Z" fill="#E30601"/>
<path d="M53.8568 44.8103C53.788 45.1804 53.6202 45.4736 53.3532 45.6898C53.0879 45.906 52.7694 46.0091 52.3976 45.9993C52.1765 45.9944 51.9832 45.9404 51.8178 45.8372C51.6524 45.7324 51.5238 45.5825 51.4321 45.3876C51.3404 45.1911 51.2896 44.9741 51.2798 44.7366C51.2733 44.6023 51.279 44.4713 51.297 44.3436L51.3388 44.0488C51.4157 43.5116 51.6041 43.0882 51.9038 42.7787C52.2051 42.4675 52.5712 42.316 53.0019 42.3242C53.3377 42.3307 53.6038 42.4397 53.8003 42.6509C53.9969 42.8606 54.1008 43.1521 54.1123 43.5255H53.6529C53.6316 43.0243 53.4351 42.7541 53.0633 42.7148L52.9823 42.7099C52.6727 42.7017 52.414 42.8172 52.206 43.0563C51.9996 43.2937 51.8661 43.6188 51.8055 44.0316L51.7515 44.4025L51.7367 44.6187C51.7269 44.92 51.7801 45.16 51.8964 45.3385C52.0143 45.5154 52.1888 45.6071 52.4197 45.6136C52.6686 45.6218 52.8742 45.562 53.0363 45.4343C53.2001 45.3066 53.3246 45.101 53.4097 44.8177L53.8568 44.8103Z" fill="#E30601"/>
<path d="M54.8272 45.9502H54.3678L54.9893 42.3733H55.4487L54.8272 45.9502Z" fill="#E30601"/>
<path d="M57.8169 45.0167H56.3675L55.8786 45.9502H55.3848L57.328 42.3733H57.7334L58.4409 45.9502H57.9864L57.8169 45.0167ZM56.5714 44.6285H57.7481L57.4509 42.9605L56.5714 44.6285Z" fill="#E30601"/>
<path d="M58.9371 45.9502L59.5587 42.3733L60.4873 42.3758C60.7788 42.3758 61.0294 42.4487 61.239 42.5944C61.4503 42.7402 61.6018 42.9416 61.6935 43.1988C61.7852 43.4542 61.8122 43.7409 61.7746 44.0586L61.75 44.2379C61.6779 44.7587 61.4757 45.1747 61.1432 45.4859C60.8107 45.7954 60.3931 45.9502 59.8903 45.9502H58.9371ZM59.9517 42.7615L59.4653 45.5645L59.9198 45.567C60.267 45.567 60.561 45.4589 60.8017 45.2427C61.0441 45.0265 61.2013 44.7301 61.2734 44.3534C61.3307 44.052 61.3504 43.7957 61.3324 43.5845C61.3078 43.3306 61.2234 43.1324 61.0793 42.9899C60.9352 42.8458 60.7419 42.7705 60.4996 42.7639L59.9517 42.7615Z" fill="#E30601"/>
<path d="M64.1992 45.0167H62.7498L62.261 45.9502H61.7672L63.7104 42.3733H64.1157L64.8232 45.9502H64.3688L64.1992 45.0167ZM62.9537 44.6285H64.1305L63.8332 42.9605L62.9537 44.6285Z" fill="#E30601"/>
<path d="M35.3695 66.1199C34.6561 66.1199 34.0095 65.9666 33.4295 65.6599C32.8561 65.3466 32.4028 64.9166 32.0695 64.3699C31.7428 63.8166 31.5795 63.1933 31.5795 62.4999C31.5795 61.8066 31.7428 61.1866 32.0695 60.6399C32.4028 60.0866 32.8561 59.6566 33.4295 59.3499C34.0095 59.0366 34.6595 58.8799 35.3795 58.8799C35.9861 58.8799 36.5328 58.9866 37.0195 59.1999C37.5128 59.4133 37.9261 59.7199 38.2595 60.1199L37.2195 61.0799C36.7461 60.5333 36.1595 60.2599 35.4595 60.2599C35.0261 60.2599 34.6395 60.3566 34.2995 60.5499C33.9595 60.7366 33.6928 60.9999 33.4995 61.3399C33.3128 61.6799 33.2195 62.0666 33.2195 62.4999C33.2195 62.9333 33.3128 63.3199 33.4995 63.6599C33.6928 63.9999 33.9595 64.2666 34.2995 64.4599C34.6395 64.6466 35.0261 64.7399 35.4595 64.7399C36.1595 64.7399 36.7461 64.4633 37.2195 63.9099L38.2595 64.8699C37.9261 65.2766 37.5128 65.5866 37.0195 65.7999C36.5261 66.0133 35.9761 66.1199 35.3695 66.1199ZM43.8267 64.4999H40.5767L39.9567 65.9999H38.2967L41.4167 58.9999H43.0167L46.1467 65.9999H44.4467L43.8267 64.4999ZM43.3167 63.2699L42.2067 60.5899L41.0967 63.2699H43.3167ZM53.293 58.9999V65.9999H51.963L48.473 61.7499V65.9999H46.873V58.9999H48.213L51.693 63.2499V58.9999H53.293ZM59.5591 64.4999H56.3091L55.6891 65.9999H54.0291L57.1491 58.9999H58.7491L61.8791 65.9999H60.1791L59.5591 64.4999ZM59.0491 63.2699L57.9391 60.5899L56.8291 63.2699H59.0491ZM62.6054 58.9999H64.2254V64.6799H67.7354V65.9999H62.6054V58.9999ZM25.3496 76.6999V77.9999H19.9296V70.9999H25.2196V72.2999H21.5396V73.8199H24.7896V75.0799H21.5396V76.6999H25.3496ZM26.6386 70.9999H29.8186C30.5786 70.9999 31.2486 71.1466 31.8286 71.4399C32.4153 71.7266 32.8686 72.1333 33.1886 72.6599C33.5153 73.1866 33.6786 73.7999 33.6786 74.4999C33.6786 75.1999 33.5153 75.8133 33.1886 76.3399C32.8686 76.8666 32.4153 77.2766 31.8286 77.5699C31.2486 77.8566 30.5786 77.9999 29.8186 77.9999H26.6386V70.9999ZM29.7386 76.6699C30.4386 76.6699 30.9953 76.4766 31.4086 76.0899C31.8286 75.6966 32.0386 75.1666 32.0386 74.4999C32.0386 73.8333 31.8286 73.3066 31.4086 72.9199C30.9953 72.5266 30.4386 72.3299 29.7386 72.3299H28.2586V76.6699H29.7386ZM38.0103 78.1199C37.0103 78.1199 36.2303 77.8433 35.6703 77.2899C35.117 76.7366 34.8403 75.9466 34.8403 74.9199V70.9999H36.4603V74.8599C36.4603 76.1133 36.9803 76.7399 38.0203 76.7399C38.527 76.7399 38.9136 76.5899 39.1803 76.2899C39.447 75.9833 39.5803 75.5066 39.5803 74.8599V70.9999H41.1803V74.9199C41.1803 75.9466 40.9003 76.7366 40.3403 77.2899C39.787 77.8433 39.0103 78.1199 38.0103 78.1199ZM46.1312 78.1199C45.4178 78.1199 44.7712 77.9666 44.1912 77.6599C43.6178 77.3466 43.1645 76.9166 42.8312 76.3699C42.5045 75.8166 42.3412 75.1933 42.3412 74.4999C42.3412 73.8066 42.5045 73.1866 42.8312 72.6399C43.1645 72.0866 43.6178 71.6566 44.1912 71.3499C44.7712 71.0366 45.4212 70.8799 46.1412 70.8799C46.7478 70.8799 47.2945 70.9866 47.7812 71.1999C48.2745 71.4133 48.6878 71.7199 49.0212 72.1199L47.9812 73.0799C47.5078 72.5333 46.9212 72.2599 46.2212 72.2599C45.7878 72.2599 45.4012 72.3566 45.0612 72.5499C44.7212 72.7366 44.4545 72.9999 44.2612 73.3399C44.0745 73.6799 43.9812 74.0666 43.9812 74.4999C43.9812 74.9333 44.0745 75.3199 44.2612 75.6599C44.4545 75.9999 44.7212 76.2666 45.0612 76.4599C45.4012 76.6466 45.7878 76.7399 46.2212 76.7399C46.9212 76.7399 47.5078 76.4633 47.9812 75.9099L49.0212 76.8699C48.6878 77.2766 48.2745 77.5866 47.7812 77.7999C47.2878 78.0133 46.7378 78.1199 46.1312 78.1199ZM54.5884 76.4999H51.3384L50.7184 77.9999H49.0584L52.1784 70.9999H53.7784L56.9084 77.9999H55.2084L54.5884 76.4999ZM54.0784 75.2699L52.9684 72.5899L51.8584 75.2699H54.0784ZM60.887 78.1199C60.1737 78.1199 59.527 77.9666 58.947 77.6599C58.3737 77.3466 57.9204 76.9166 57.587 76.3699C57.2604 75.8166 57.097 75.1933 57.097 74.4999C57.097 73.8066 57.2604 73.1866 57.587 72.6399C57.9204 72.0866 58.3737 71.6566 58.947 71.3499C59.527 71.0366 60.177 70.8799 60.897 70.8799C61.5037 70.8799 62.0504 70.9866 62.537 71.1999C63.0304 71.4133 63.4437 71.7199 63.777 72.1199L62.737 73.0799C62.2637 72.5333 61.677 72.2599 60.977 72.2599C60.5437 72.2599 60.157 72.3566 59.817 72.5499C59.477 72.7366 59.2104 72.9999 59.017 73.3399C58.8304 73.6799 58.737 74.0666 58.737 74.4999C58.737 74.9333 58.8304 75.3199 59.017 75.6599C59.2104 75.9999 59.477 76.2666 59.817 76.4599C60.157 76.6466 60.5437 76.7399 60.977 76.7399C61.677 76.7399 62.2637 76.4633 62.737 75.9099L63.777 76.8699C63.4437 77.2766 63.0304 77.5866 62.537 77.7999C62.0437 78.0133 61.4937 78.1199 60.887 78.1199ZM60.347 80.3199C60.1737 80.3199 60.0037 80.2999 59.837 80.2599C59.6704 80.2266 59.5304 80.1766 59.417 80.1099L59.657 79.4399C59.8704 79.5399 60.087 79.5899 60.307 79.5899C60.6537 79.5899 60.827 79.4833 60.827 79.2699C60.827 79.0766 60.6637 78.9799 60.337 78.9799H59.997L60.257 77.9199H61.087L60.947 78.4999C61.2404 78.5333 61.457 78.6233 61.597 78.7699C61.7437 78.9233 61.817 79.1099 61.817 79.3299C61.817 79.6366 61.6837 79.8766 61.417 80.0499C61.1504 80.2299 60.7937 80.3199 60.347 80.3199ZM69.3443 76.4999H66.0943L65.4743 77.9999H63.8143L66.9343 70.9999H68.5343L71.6643 77.9999H69.9643L69.3443 76.4999ZM68.8343 75.2699L67.7243 72.5899L66.6143 75.2699H68.8343ZM68.4843 70.4599C68.3043 70.4599 68.1443 70.4266 68.0043 70.3599C67.871 70.2866 67.721 70.1899 67.5543 70.0699C67.4476 69.9899 67.3576 69.9299 67.2843 69.8899C67.2176 69.8499 67.151 69.8299 67.0843 69.8299C66.9443 69.8299 66.831 69.8799 66.7443 69.9799C66.6576 70.0733 66.611 70.2099 66.6043 70.3899H65.8143C65.8276 69.9433 65.9376 69.5899 66.1443 69.3299C66.3576 69.0633 66.6376 68.9299 66.9843 68.9299C67.1576 68.9299 67.311 68.9666 67.4443 69.0399C67.5843 69.1066 67.741 69.2033 67.9143 69.3299C68.021 69.4099 68.1076 69.4699 68.1743 69.5099C68.2476 69.5499 68.3176 69.5699 68.3843 69.5699C68.5176 69.5699 68.6276 69.5233 68.7143 69.4299C68.8076 69.3299 68.8576 69.1966 68.8643 69.0299H69.6543C69.641 69.4633 69.5276 69.8099 69.3143 70.0699C69.1076 70.3299 68.831 70.4599 68.4843 70.4599ZM75.6829 78.1199C74.9562 78.1199 74.2996 77.9633 73.7129 77.6499C73.1329 77.3366 72.6762 76.9066 72.3429 76.3599C72.0162 75.8066 71.8529 75.1866 71.8529 74.4999C71.8529 73.8133 72.0162 73.1966 72.3429 72.6499C72.6762 72.0966 73.1329 71.6633 73.7129 71.3499C74.2996 71.0366 74.9562 70.8799 75.6829 70.8799C76.4096 70.8799 77.0629 71.0366 77.6429 71.3499C78.2229 71.6633 78.6796 72.0966 79.0129 72.6499C79.3462 73.1966 79.5129 73.8133 79.5129 74.4999C79.5129 75.1866 79.3462 75.8066 79.0129 76.3599C78.6796 76.9066 78.2229 77.3366 77.6429 77.6499C77.0629 77.9633 76.4096 78.1199 75.6829 78.1199ZM75.6829 76.7399C76.0962 76.7399 76.4696 76.6466 76.8029 76.4599C77.1362 76.2666 77.3962 75.9999 77.5829 75.6599C77.7762 75.3199 77.8729 74.9333 77.8729 74.4999C77.8729 74.0666 77.7762 73.6799 77.5829 73.3399C77.3962 72.9999 77.1362 72.7366 76.8029 72.5499C76.4696 72.3566 76.0962 72.2599 75.6829 72.2599C75.2696 72.2599 74.8962 72.3566 74.5629 72.5499C74.2296 72.7366 73.9662 72.9999 73.7729 73.3399C73.5862 73.6799 73.4929 74.0666 73.4929 74.4999C73.4929 74.9333 73.5862 75.3199 73.7729 75.6599C73.9662 75.9999 74.2296 76.2666 74.5629 76.4599C74.8962 76.6466 75.2696 76.7399 75.6829 76.7399Z" fill="black"/>
</svg>
