<svg width="100" height="100" viewBox="0 0 100 100" fill="none" xmlns="http://www.w3.org/2000/svg">
<g clip-path="url(#clip0_423_2)">
<path d="M5 30H95V71H5V30Z" fill="#FFAB00"/>
<path d="M25.3496 39.1302C18.1296 39.1302 15.766 43.6807 15.766 46.1976H20.7473C20.917 44.8675 22.3081 43.3388 25.5185 43.3388C28.7869 43.3388 30.066 45.3903 30.066 47.985H27.637C19.5217 47.985 14.9442 50.231 14.9442 55.2165C14.9442 58.7766 18.4546 61.9465 23.0165 61.9465C25.8889 61.9465 29.1374 60.5809 30.2029 59.7123L30.276 61.372H34.9513V49.1158C34.9513 42.9443 32.4843 39.1302 25.3496 39.1302ZM28.3675 51.8698H30.1299V53.0963C30.1299 55.6552 27.6188 57.7015 24.0301 57.7015C21.839 57.7015 20.0031 56.9014 20.0031 55.3625C20.0031 53.2447 21.6755 51.8698 28.3675 51.8698Z" fill="white"/>
<path d="M38.0195 61.3701V39.7036H45.763L50.0015 55.4432L54.091 39.7036H61.9806V61.3701H56.9843V44.8633L52.3377 61.3701H47.5946L42.9871 44.8966V61.3701H38.0195Z" fill="white"/>
<path d="M80.3374 53.2019H85.3467C84.6042 57.3187 80.8718 61.9563 75.002 61.9563C67.6067 61.9563 64.3573 55.5605 64.3573 50.5964C64.3573 43.8685 68.6104 39.1453 74.9629 39.1453C80.543 39.1453 84.4607 43.1919 85.2815 47.8737H80.3635C79.7899 46.0722 78.0266 43.6397 74.9629 43.6397C71.511 43.6397 69.1579 47.0734 69.1579 50.4922C69.1579 54.5983 71.9589 57.4358 74.9498 57.4358C77.6838 57.4358 79.684 55.3188 80.3374 53.2019V53.2019Z" fill="white"/>
</g>
<defs>
<clipPath id="clip0_423_2">
<rect width="90" height="41" fill="white" transform="translate(5 30)"/>
</clipPath>
</defs>
</svg>
