<svg width="100" height="100" viewBox="0 0 100 100" fill="none" xmlns="http://www.w3.org/2000/svg">
<g clip-path="url(#clip0_837_399)">
<path d="M49.7563 59.8453C44.8478 59.8453 40.8743 63.8341 40.8743 68.7401V68.7615C40.8956 73.6675 44.8691 77.6349 49.7563 77.6349C54.6647 77.6349 58.6382 73.6675 58.6382 68.7615V68.7401C58.6382 63.8128 54.6647 59.8453 49.7563 59.8453ZM49.7563 74.0727C46.824 74.0727 44.4229 71.6837 44.4229 68.7615H55.0897C55.0685 71.6837 52.6886 74.0727 49.7563 74.0727Z" fill="black"/>
<path d="M38.6857 61.4664C37.5171 60.3572 36.0934 59.7812 34.3723 59.7812H29.995C29.9738 59.7812 29.9525 59.7812 29.9313 59.7812C29.91 59.7812 29.8888 59.7812 29.8675 59.7812C28.7626 59.8026 27.8489 60.6771 27.7639 61.765C27.7639 61.829 27.7639 61.893 27.7639 61.957C27.7639 62.0209 27.7639 62.0849 27.7639 62.1489V76.8029C27.7639 78.0188 28.7414 78.9786 29.9313 78.9786C31.1212 78.9786 32.0986 77.9974 32.0986 76.8029C32.0986 76.7816 32.0986 76.7389 32.0986 76.7176V71.6836H34.351C36.0722 71.6836 37.4958 71.129 38.6645 69.9985C39.8332 68.8893 40.4069 67.4602 40.4069 65.7111C40.4281 64.0047 39.8544 62.5755 38.6857 61.4664ZM35.6047 67.0549C35.2647 67.3962 34.861 67.5669 34.3723 67.5669H32.1199V63.9407H34.3723C34.861 63.9407 35.2647 64.1113 35.6047 64.4313C35.9447 64.7726 36.0934 65.1992 36.0934 65.7324C36.0934 66.287 35.9234 66.7136 35.6047 67.0549Z" fill="black"/>
<path d="M70.2188 61.4664C69.0501 60.3572 67.6264 59.7812 65.9053 59.7812H61.528C61.5068 59.7812 61.4856 59.7812 61.4643 59.7812C61.4431 59.7812 61.4218 59.7812 61.4006 59.7812C60.2956 59.8026 59.3819 60.6771 59.2969 61.765C59.2969 61.829 59.2969 61.893 59.2969 61.957C59.2969 62.0209 59.2969 62.0849 59.2969 62.1489V76.8029C59.2969 78.0188 60.2744 78.9786 61.4643 78.9786C62.6542 78.9786 63.6317 77.9974 63.6317 76.8029C63.6317 76.7816 63.6317 76.7389 63.6317 76.7176V71.6836H65.884C67.6052 71.6836 69.0288 71.129 70.1975 69.9985C71.3662 68.8893 71.9399 67.4602 71.9399 65.7111C71.9612 64.0047 71.3874 62.5755 70.2188 61.4664ZM67.1377 67.0549C66.7977 67.3962 66.394 67.5669 65.9053 67.5669H63.6529V63.9407H65.9053C66.394 63.9407 66.7977 64.1113 67.1377 64.4313C67.4777 64.7726 67.6264 65.1992 67.6264 65.7324C67.6264 66.287 67.4777 66.7136 67.1377 67.0549Z" fill="black"/>
<path d="M33.7773 53.3395H24.8953V40.6052H19.1369V53.3182H10.0425L10 20.5546H19.1369V32.7556H24.8953V20.5546H33.756V53.3395H33.7773ZM74.4048 53.4888C83.5417 53.4888 91 45.8525 91 36.6804C91 27.295 83.563 20.0214 74.4048 20.0214C65.2678 20.0214 60.5931 26.7618 59.4457 29.4921C59.4457 25.3966 55.4297 20.576 50.7337 20.576H35.6047V53.3395H49.7138C55.4084 53.3395 59.4457 48.3908 59.4669 44.1461C60.7631 46.8124 65.2678 53.4888 74.4048 53.4888ZM48.5451 40.1573C49.8625 40.1573 50.8825 41.4585 50.8825 42.9303C50.8825 44.4021 49.8625 45.7032 48.5451 45.7032H44.0616V40.1573H48.5451ZM48.5664 27.8496C49.8625 27.8496 50.9037 29.1508 50.9037 30.6226C50.9037 32.0944 49.8838 33.3955 48.5664 33.3955H44.0829V27.8496H48.5664ZM54.5373 36.6804C55.5572 36.5525 57.2783 35.3793 57.8733 34.6114C57.6608 35.5499 57.6396 38.2589 57.8945 39.1761C57.2146 38.1096 55.5784 36.8084 54.5373 36.6804ZM66.0965 36.6804C66.0965 32.0731 69.8151 28.3402 74.4048 28.3402C78.9945 28.3402 82.713 32.0731 82.713 36.6804C82.713 41.2878 78.9945 45.0206 74.4048 45.0206C69.8363 45.0206 66.0965 41.2878 66.0965 36.6804ZM74.4048 43.2289C78.0171 43.2289 80.9494 40.2853 80.9494 36.6804C80.9494 33.0543 78.0171 30.132 74.4048 30.132C70.7925 30.132 67.8814 33.0756 67.8814 36.6804C67.8814 40.3066 70.8137 43.2289 74.4048 43.2289Z" fill="black"/>
</g>
<defs>
<clipPath id="clip0_837_399">
<rect width="81" height="59" fill="white" transform="translate(10 20)"/>
</clipPath>
</defs>
</svg>
