<svg width="100" height="100" viewBox="0 0 100 100" fill="none" xmlns="http://www.w3.org/2000/svg">
<g clip-path="url(#clip0_840_1770)">
<path d="M73.2755 90.3457H67.9489C67.3808 90.3457 66.9205 89.8841 66.9205 89.3146V60.5338C66.9205 59.9644 67.3808 59.5028 67.9489 59.5028H73.2755C73.8435 59.5028 74.3042 59.9644 74.3042 60.5338V89.3146C74.3042 89.8841 73.8435 90.3457 73.2755 90.3457Z" fill="#00A6C7"/>
<path d="M41.9758 60.6432C41.9758 60.0134 42.4853 59.5026 43.1134 59.5026H55.3366H55.2045C56.5816 59.5026 57.8417 59.7229 58.9845 60.1635C60.127 60.6044 61.1084 61.1925 61.929 61.9261C62.7784 62.6905 63.4234 63.5717 63.8631 64.5699C64.3023 65.5986 64.5221 66.6562 64.5221 67.7426C64.5221 68.5356 64.4193 69.2405 64.2144 69.8575C64.0091 70.4456 63.7157 71.0328 63.3354 71.62C62.9839 72.1489 62.5883 72.5893 62.1491 72.9422C61.7093 73.2942 61.2544 73.5589 60.7862 73.7352V73.7792C61.5183 74.0146 62.2216 74.367 62.8959 74.8365C63.5697 75.3068 64.1412 75.8798 64.61 76.555C65.1078 77.2314 65.5035 77.9506 65.7967 78.7145C66.089 79.4786 66.2364 80.2715 66.2364 81.0936C66.2364 82.357 66.0164 83.5614 65.5766 84.7067C65.1374 85.8526 64.4628 86.8371 63.5552 87.6589C62.6173 88.5116 61.4745 89.1722 60.127 89.6417C58.8086 90.1121 57.1825 90.3467 55.2487 90.3467H43.1134C42.4853 90.3467 41.9758 89.8361 41.9758 89.2063V60.6432ZM49.3154 83.4046C49.3154 83.8564 49.6806 84.2221 50.1308 84.2221H54.4574H54.5015C55.761 84.2221 56.7279 83.8992 57.4022 83.2528C58.1055 82.577 58.4571 81.74 58.4571 80.741C58.4571 79.6549 58.0902 78.8022 57.3584 78.1855C56.6257 77.5686 55.6585 77.26 54.4574 77.26H50.1308C49.6806 77.26 49.3154 77.626 49.3154 78.0774V83.4046ZM49.3596 70.8026C49.3596 71.254 49.7244 71.62 50.1749 71.62H53.7984L53.8507 71.6194C54.846 71.6194 55.6289 71.2677 56.3035 70.7387C56.9476 70.2101 57.2704 69.52 57.2704 68.6679C57.2704 67.8163 56.9476 67.1257 56.3035 66.597C55.6289 66.0681 54.7938 65.8035 53.7984 65.8035H50.1749C49.7244 65.8035 49.3596 66.1695 49.3596 66.6209V70.8026Z" fill="#00A6C7"/>
<path d="M25.2495 59.4988H28.311C30.2736 59.4988 32.017 59.7638 33.5409 60.293C35.1229 60.8522 36.4266 61.5729 37.4524 62.4551C38.5363 63.3972 39.3566 64.5 39.9136 65.7645C40.4994 67.0884 40.7926 68.5301 40.7926 70.0886C40.7926 72.1779 40.3093 73.9716 39.3424 75.4716C38.5279 76.7223 37.4591 77.7371 36.1357 78.5155C35.6431 78.8055 35.4721 79.4367 35.7673 79.9277L41.095 88.7967C41.5032 89.4757 41.0161 90.3418 40.226 90.3418H34.3467C33.9842 90.3418 33.6489 90.1474 33.4678 89.8321L28.2962 80.8349C28.1148 80.5196 27.7798 80.3252 27.417 80.3252H25.2385C24.678 80.3252 24.2237 80.7816 24.2237 81.3443V89.3227C24.2237 89.8854 23.7691 90.3418 23.2086 90.3418H17.8548C17.2942 90.3418 16.84 89.8854 16.84 89.3227V67.6567L25.2495 59.4988ZM24.3116 67.3571V72.6616C24.3116 73.2174 24.7552 73.6705 25.3087 73.6802L29.3656 73.7507C29.981 73.7507 30.5523 73.6338 31.0797 73.3981C31.5479 73.1923 31.9435 72.898 32.2663 72.5156C32.5885 72.1624 32.808 71.7655 32.9255 71.324C33.0718 70.8245 33.1456 70.3976 33.1456 70.0446C33.1456 69.5743 33.0861 69.1476 32.9697 68.765C32.8228 68.3238 32.6028 67.9266 32.3105 67.5736C31.9877 67.1916 31.592 66.8972 31.1235 66.6909C30.5964 66.456 30.0248 66.3383 29.4094 66.3383H25.3264C24.7659 66.3383 24.3116 66.7944 24.3116 67.3571" fill="#00A6C7"/>
<path d="M23.8483 59.5025L16.8399 66.1785L16.8364 60.7221C16.8364 60.0504 17.2164 59.5025 17.954 59.5025H23.8483Z" fill="#FFD900"/>
<path d="M71.5145 95H19.0763C13.5205 95 9 90.4619 9 84.8838V29.6398C9 24.0619 13.5205 19.5236 19.0763 19.5236H45.2063C45.6873 19.5236 46.0771 19.9152 46.0771 20.3978C46.0771 20.8807 45.6873 21.2721 45.2063 21.2721H19.0763C14.4807 21.2721 10.7416 25.026 10.7416 29.6398V84.8838C10.7416 89.4976 14.4807 93.2515 19.0763 93.2515H71.5145C76.1101 93.2515 79.8488 89.4976 79.8488 84.8838V51.4946C79.8488 51.012 80.2387 50.6204 80.7197 50.6204C81.2007 50.6204 81.5905 51.012 81.5905 51.4946V84.8838C81.5905 90.4619 77.0706 95 71.5145 95Z" fill="#00A6C7"/>
<path d="M57.2524 22.6711C61.2802 13.6743 67.3836 10.7216 76.98 10.1492C82.0288 9.84757 80.7687 4.62699 75.9728 5.19993C65.8178 6.41226 60.0474 13.0104 57.2524 22.6711Z" fill="#4CBDCC"/>
<path d="M56.2425 29.001C54.3212 20.3151 57.1487 14.8756 63.7789 9.26481C67.2677 6.31326 63.5511 3.22095 60.392 6.23224C53.7017 12.6066 53.0739 20.5027 56.2425 29.001Z" fill="#3BAB36"/>
<path d="M59.7351 33.8799C53.3081 29.1066 52.0277 23.7243 53.2361 15.9654C53.8724 11.8834 49.5203 11.9851 49.143 15.9127C48.3436 24.2264 52.5688 29.976 59.7351 33.8799Z" fill="#8CBF24"/>
<path d="M64.1216 34.7723C56.9361 35.3814 52.8755 32.5003 49.0918 26.5217C47.101 23.3767 44.2134 26.0482 46.2871 28.9336C50.6781 35.0442 56.9507 36.4118 64.1216 34.7723Z" fill="#FFE32E"/>
<path d="M60.3234 19.555C69.4876 13.6437 76.9364 14.6081 86.197 19.9047C91.0687 22.691 93.0443 17.0756 88.2429 14.6946C78.0786 9.65327 68.7422 12.2775 60.3234 19.555Z" fill="#00A6C7"/>
<path d="M78.9539 33.8235C74.926 42.8204 68.8227 45.7731 59.2259 46.3455C54.1775 46.6471 55.4376 51.8677 60.2335 51.2947C70.3885 50.0824 76.1588 43.4843 78.9539 33.8235Z" fill="#4CBDCC"/>
<path d="M79.9637 27.4937C81.8851 36.1796 79.0575 41.6191 72.4273 47.2299C68.9385 50.1814 72.6552 53.2737 75.8142 50.2624C82.5045 43.8881 83.1324 35.992 79.9637 27.4937Z" fill="#3BAB36"/>
<path d="M76.4713 22.615C82.8982 27.3883 84.1786 32.7706 82.9702 40.5295C82.3339 44.6115 86.686 44.5095 87.0634 40.582C87.8628 32.2685 83.6376 26.519 76.4713 22.615Z" fill="#8CBF24"/>
<path d="M72.0847 21.7224C79.2699 21.1133 83.3308 23.9943 87.1146 29.9729C89.1053 33.118 91.9929 30.4465 89.9189 27.5611C85.5282 21.4505 79.2557 20.0828 72.0847 21.7224Z" fill="#FFE32E"/>
<path d="M75.8829 36.9396C66.7187 42.8508 59.2699 41.8865 50.0093 36.5899C45.1376 33.8036 43.162 39.419 47.9634 41.8C58.1277 46.841 67.4641 44.217 75.8829 36.9396Z" fill="#00A6C7"/>
</g>
<defs>
<clipPath id="clip0_840_1770">
<rect width="82" height="90" fill="white" transform="translate(9 5)"/>
</clipPath>
</defs>
</svg>
