<svg width="100" height="100" viewBox="0 0 100 100" fill="none" xmlns="http://www.w3.org/2000/svg">
<path fill-rule="evenodd" clip-rule="evenodd" d="M41.5424 26.1586C39.5631 25.0016 38.2439 24.7373 36.8307 24.7373C36.0454 24.7373 35.1656 24.935 35.0399 25.7283C34.9454 26.4223 35.5738 26.5883 36.8936 26.8859C39.3122 27.4149 41.7621 28.1094 42.0758 30.7215L43.396 23.8769L41.5424 26.1586ZM59.7633 26.3568L63.375 21.463H68.7468L61.1454 30.8869L60.0147 36.7722H55.4282L56.7157 30.1924L54.3598 25.9265L51.2816 29.4651L55.4282 36.7722H49.8995L46.6628 30.6887L45.5628 36.7722H40.914L41.5735 33.2675C40.3172 36.2764 37.9614 37.269 34.7574 37.269C32.0557 37.269 29.5741 36.4086 28.2233 34.8541L30.7676 31.7135C31.8666 32.8378 33.5639 33.4329 35.3542 33.4329C36.61 33.4329 37.3646 32.9371 37.3952 32.2754C37.4269 31.1512 35.5738 30.9857 33.8776 30.49C31.9611 29.9281 29.9195 28.5724 30.4534 25.7283C30.8616 23.546 32.7147 21 37.4269 21C40.0658 21 42.0134 21.6279 43.6152 22.8187L43.866 21.463H48.5164L47.165 28.1094L52.6319 21.463H57.2501L59.7633 26.3568Z" fill="#E30601"/>
<path d="M70.2015 22.8729H70.5737C70.7278 22.8729 70.8251 22.7988 70.8637 22.6516C70.9019 22.5076 70.8498 22.4362 70.7069 22.4362H70.3164L70.2015 22.8729ZM69.7234 23.5749L70.0903 22.1864H70.7977C71.1103 22.1864 71.2284 22.3299 71.1527 22.6177C71.0974 22.8267 70.9932 22.9518 70.8396 22.9943C70.9631 23.026 71.005 23.1167 70.9658 23.2666L70.8841 23.5749H70.592L70.6596 23.3182C70.694 23.1876 70.6435 23.1221 70.5076 23.1221H70.1354L70.0162 23.5749H69.7234ZM70.7756 21.8228C70.4856 21.8228 70.2111 21.927 69.9501 22.1354C69.6896 22.3444 69.5198 22.5963 69.442 22.8922C69.3641 23.1882 69.4006 23.4406 69.5505 23.6496C69.7009 23.859 69.9216 23.9633 70.2117 23.9633C70.5012 23.9633 70.7756 23.859 71.0356 23.6496C71.2951 23.4406 71.4642 23.1882 71.5421 22.8922C71.62 22.5973 71.584 22.346 71.4347 22.1365C71.2859 21.927 71.0657 21.8228 70.7756 21.8228ZM70.8229 21.652C71.1629 21.652 71.4213 21.7729 71.5996 22.0151C71.7774 22.2573 71.8214 22.5495 71.7312 22.8922C71.641 23.2344 71.4428 23.5271 71.1366 23.7704C70.831 24.0132 70.5076 24.1351 70.1682 24.1351C69.8244 24.1351 69.5639 24.0132 69.3845 23.771C69.2062 23.5287 69.1627 23.236 69.2529 22.8922C69.3431 22.5495 69.5419 22.2573 69.8486 22.0151C70.1547 21.7729 70.4797 21.652 70.8229 21.652" fill="#E30601"/>
<path d="M38.4684 40.6343H37.8837L37.6552 41.9437H36.9354L37.557 38.3668L38.741 38.3693C39.1374 38.3693 39.442 38.4626 39.6549 38.6493C39.8695 38.836 39.9645 39.0956 39.9399 39.4281C39.9055 39.9194 39.6435 40.2609 39.1538 40.4525L39.6574 41.9044V41.9437H38.8909L38.4684 40.6343ZM37.9869 40.0373L38.5224 40.0422C38.7124 40.039 38.8688 39.9882 38.9916 39.8899C39.1161 39.79 39.1906 39.6549 39.2152 39.4846C39.2381 39.3257 39.2127 39.2013 39.139 39.1112C39.0653 39.0211 38.9482 38.9728 38.7877 38.9662L38.1736 38.9638L37.9869 40.0373Z" fill="#E30601"/>
<path d="M42.4358 40.3935H41.065L40.898 41.3516H42.5095L42.4063 41.9437H40.075L40.6965 38.3668H43.023L42.9173 38.9638H41.3131L41.1633 39.8162H42.539L42.4358 40.3935Z" fill="#E30601"/>
<path d="M42.8461 41.9437L43.4676 38.3668L44.4945 38.3693C44.7352 38.3742 44.9514 38.4291 45.143 38.5339C45.3363 38.6371 45.4927 38.7861 45.6123 38.981C45.7318 39.1759 45.8039 39.3953 45.8284 39.6394C45.8415 39.7818 45.8399 39.9276 45.8235 40.0766L45.8063 40.2068C45.7343 40.7309 45.5279 41.1518 45.1873 41.4695C44.8482 41.7856 44.4363 41.9437 43.9516 41.9437H42.8461ZM44.0842 38.9638L43.6691 41.3516L43.9688 41.3541C44.2996 41.3541 44.5649 41.2329 44.7647 40.9905C44.9662 40.7481 45.0816 40.3821 45.1111 39.8924L45.116 39.8138C45.1209 39.5435 45.0693 39.3364 44.9612 39.1922C44.8532 39.0481 44.6918 38.9728 44.4773 38.9662L44.0842 38.9638Z" fill="#E30601"/>
<path d="M48.4054 40.3935H47.0346L46.8676 41.3516H48.4791L48.376 41.9437H46.0446L46.6661 38.3668H48.9926L48.8869 38.9638H47.2828L47.1329 39.8162H48.5086L48.4054 40.3935Z" fill="#E30601"/>
<path d="M35.7897 44.8103C35.7209 45.1804 35.553 45.4736 35.286 45.6898C35.0207 45.9059 34.7022 46.0091 34.3304 45.9993C34.1093 45.9944 33.9161 45.9403 33.7506 45.8372C33.5852 45.7323 33.4567 45.5825 33.365 45.3876C33.2732 45.1911 33.2225 44.9741 33.2126 44.7366C33.2061 44.6023 33.2118 44.4713 33.2298 44.3435L33.2716 44.0487C33.3486 43.5115 33.5369 43.0882 33.8366 42.7786C34.138 42.4675 34.504 42.316 34.9347 42.3242C35.2705 42.3307 35.5366 42.4396 35.7331 42.6509C35.9297 42.8605 36.0337 43.1521 36.0451 43.5255H35.5858C35.5645 43.0243 35.3679 42.7541 34.9962 42.7148L34.9151 42.7099C34.6056 42.7017 34.3468 42.8171 34.1388 43.0562C33.9324 43.2937 33.799 43.6188 33.7384 44.0315L33.6843 44.4025L33.6696 44.6187C33.6597 44.92 33.713 45.1599 33.8293 45.3385C33.9472 45.5153 34.1216 45.607 34.3525 45.6136C34.6015 45.6218 34.807 45.562 34.9691 45.4343C35.1329 45.3065 35.2574 45.101 35.3425 44.8176L35.7897 44.8103Z" fill="#E30601"/>
<path d="M37.8041 44.5032H36.9787L36.7281 45.9502H36.2638L36.8853 42.3733L37.9613 42.3758C38.3364 42.3774 38.6221 42.4724 38.8187 42.6607C39.0152 42.8491 39.0979 43.1054 39.0668 43.4297C39.0488 43.654 38.9669 43.8514 38.8211 44.0217C38.677 44.192 38.4846 44.3206 38.2438 44.4074L38.799 45.9182L38.7966 45.9502H38.3052L37.8041 44.5032ZM37.045 44.1175L37.723 44.12C37.9589 44.12 38.1578 44.0577 38.32 43.9333C38.4821 43.8072 38.5771 43.6393 38.605 43.4297C38.6295 43.2249 38.5886 43.0644 38.4821 42.9482C38.3757 42.8319 38.2135 42.7705 37.9957 42.7639L37.2808 42.7614L37.045 44.1175Z" fill="#E30601"/>
<path d="M41.5505 44.2968H40.047L39.8259 45.5645H41.575L41.5062 45.9502H39.2977L39.9193 42.3733H42.1032L42.0344 42.7614H40.3123L40.1133 43.9112H41.6168L41.5505 44.2968Z" fill="#E30601"/>
<path d="M42.0983 45.9502L42.7198 42.3733L43.6484 42.3758C43.9399 42.3758 44.1905 42.4486 44.4001 42.5944C44.6114 42.7402 44.7629 42.9416 44.8546 43.1987C44.9463 43.4542 44.9734 43.7408 44.9357 44.0586L44.9111 44.2379C44.8391 44.7587 44.6368 45.1747 44.3043 45.4859C43.9719 45.7954 43.5542 45.9502 43.0515 45.9502H42.0983ZM43.1129 42.7614L42.6265 45.5645L43.0809 45.5669C43.4281 45.5669 43.7221 45.4588 43.9629 45.2426C44.2053 45.0265 44.3625 44.73 44.4345 44.3533C44.4919 44.052 44.5115 43.7957 44.4935 43.5844C44.4689 43.3306 44.3846 43.1324 44.2405 42.9899C44.0963 42.8458 43.9031 42.7705 43.6607 42.7639L43.1129 42.7614Z" fill="#E30601"/>
<path d="M47.579 44.2968H46.0756L45.8545 45.5645H47.6036L47.5348 45.9502H45.3263L45.9478 42.3733H48.1318L48.063 42.7614H46.3409L46.1419 43.9112H47.6454L47.579 44.2968Z" fill="#E30601"/>
<path d="M50.7972 45.9502H50.3501L49.0727 43.1742L48.5912 45.9502H48.1269L48.7484 42.3733H49.1955L50.4754 45.1616L50.9594 42.3733H51.4188L50.7972 45.9502Z" fill="#E30601"/>
<path d="M54.3569 44.8103C54.2881 45.1804 54.1202 45.4736 53.8533 45.6898C53.588 45.9059 53.2694 46.0091 52.8976 45.9993C52.6765 45.9944 52.4833 45.9403 52.3179 45.8372C52.1525 45.7323 52.0239 45.5825 51.9322 45.3876C51.8405 45.1911 51.7897 44.9741 51.7799 44.7366C51.7733 44.6023 51.7791 44.4713 51.7971 44.3435L51.8388 44.0487C51.9158 43.5115 52.1042 43.0882 52.4039 42.7786C52.7052 42.4675 53.0712 42.316 53.502 42.3242C53.8377 42.3307 54.1039 42.4396 54.3004 42.6509C54.4969 42.8605 54.6009 43.1521 54.6124 43.5255H54.153C54.1317 43.0243 53.9352 42.7541 53.5634 42.7148L53.4823 42.7099C53.1728 42.7017 52.914 42.8171 52.706 43.0562C52.4997 43.2937 52.3662 43.6188 52.3056 44.0315L52.2515 44.4025L52.2368 44.6187C52.227 44.92 52.2802 45.1599 52.3965 45.3385C52.5144 45.5153 52.6888 45.607 52.9198 45.6136C53.1687 45.6218 53.3742 45.562 53.5364 45.4343C53.7001 45.3065 53.8246 45.101 53.9098 44.8176L54.3569 44.8103Z" fill="#E30601"/>
<path d="M55.3273 45.9502H54.8679L55.4894 42.3733H55.9488L55.3273 45.9502Z" fill="#E30601"/>
<path d="M58.317 45.0166H56.8676L56.3787 45.9502H55.8849L57.8281 42.3733H58.2335L58.941 45.9502H58.4865L58.317 45.0166ZM57.0715 44.6285H58.2482L57.9509 42.9604L57.0715 44.6285Z" fill="#E30601"/>
<path d="M59.4372 45.9502L60.0587 42.3733L60.9873 42.3758C61.2789 42.3758 61.5294 42.4486 61.7391 42.5944C61.9503 42.7402 62.1018 42.9416 62.1935 43.1987C62.2853 43.4542 62.3123 43.7408 62.2746 44.0586L62.25 44.2379C62.178 44.7587 61.9757 45.1747 61.6433 45.4859C61.3108 45.7954 60.8932 45.9502 60.3904 45.9502H59.4372ZM60.4518 42.7614L59.9654 45.5645L60.4199 45.5669C60.7671 45.5669 61.061 45.4588 61.3018 45.2426C61.5442 45.0265 61.7014 44.73 61.7735 44.3533C61.8308 44.052 61.8504 43.7957 61.8324 43.5844C61.8079 43.3306 61.7235 43.1324 61.5794 42.9899C61.4353 42.8458 61.242 42.7705 60.9996 42.7639L60.4518 42.7614Z" fill="#E30601"/>
<path d="M64.6993 45.0166H63.2499L62.761 45.9502H62.2672L64.2104 42.3733H64.6158L65.3233 45.9502H64.8688L64.6993 45.0166ZM63.4538 44.6285H64.6305L64.3333 42.9604L63.4538 44.6285Z" fill="#E30601"/>
<path d="M21.4871 65.9999L21.4771 61.7999L19.4171 65.2599H18.6871L16.6371 61.8899V65.9999H15.1171V58.9999H16.4571L19.0771 63.3499L21.6571 58.9999H22.9871L23.0071 65.9999H21.4871ZM29.2779 64.4999H26.0279L25.4079 65.9999H23.7479L26.8679 58.9999H28.4679L31.5979 65.9999H29.8979L29.2779 64.4999ZM28.7679 63.2699L27.6579 60.5899L26.5479 63.2699H28.7679ZM36.7841 65.9999L35.4341 64.0499H35.3541H33.9441V65.9999H32.3241V58.9999H35.3541C35.9741 58.9999 36.5108 59.1033 36.9641 59.3099C37.4241 59.5166 37.7775 59.8099 38.0241 60.1899C38.2708 60.5699 38.3941 61.0199 38.3941 61.5399C38.3941 62.0599 38.2675 62.5099 38.0141 62.8899C37.7675 63.2633 37.4141 63.5499 36.9541 63.7499L38.5241 65.9999H36.7841ZM36.7541 61.5399C36.7541 61.1466 36.6275 60.8466 36.3741 60.6399C36.1208 60.4266 35.7508 60.3199 35.2641 60.3199H33.9441V62.7599H35.2641C35.7508 62.7599 36.1208 62.6533 36.3741 62.4399C36.6275 62.2266 36.7541 61.9266 36.7541 61.5399ZM42.2277 63.2499L41.2877 64.2299V65.9999H39.6777V58.9999H41.2877V62.2699L44.3877 58.9999H46.1877L43.2877 62.1199L46.3577 65.9999H44.4677L42.2277 63.2499ZM49.63 63.2499L48.69 64.2299V65.9999H47.08V58.9999H48.69V62.2699L51.79 58.9999H53.59L50.69 62.1199L53.76 65.9999H51.87L49.63 63.2499ZM59.9023 64.6999V65.9999H54.4823V58.9999H59.7723V60.2999H56.0923V61.8199H59.3423V63.0799H56.0923V64.6999H59.9023ZM62.6413 60.3199H60.4013V58.9999H66.5013V60.3199H64.2613V65.9999H62.6413V60.3199ZM76.625 58.9999V65.9999H75.005V63.1299H71.825V65.9999H70.205V58.9999H71.825V61.7599H75.005V58.9999H76.625ZM78.2812 58.9999H81.4612C82.2212 58.9999 82.8912 59.1466 83.4712 59.4399C84.0578 59.7266 84.5112 60.1333 84.8312 60.6599C85.1578 61.1866 85.3212 61.7999 85.3212 62.4999C85.3212 63.1999 85.1578 63.8133 84.8312 64.3399C84.5112 64.8666 84.0578 65.2766 83.4712 65.5699C82.8912 65.8566 82.2212 65.9999 81.4612 65.9999H78.2812V58.9999ZM81.3812 64.6699C82.0812 64.6699 82.6378 64.4766 83.0512 64.0899C83.4712 63.6966 83.6812 63.1666 83.6812 62.4999C83.6812 61.8333 83.4712 61.3066 83.0512 60.9199C82.6378 60.5266 82.0812 60.3299 81.3812 60.3299H79.9012V64.6699H81.3812Z" fill="black"/>
</svg>
