<svg width="100" height="100" viewBox="0 0 100 100" fill="none" xmlns="http://www.w3.org/2000/svg">
<g clip-path="url(#clip0_837_384)">
<path d="M65.978 51.2293H67.759L67.4968 48.8846L65.978 51.2293ZM81.4996 54.8034H77.9812L76.7901 52.0958L74.4736 54.8034H68.1032L67.9393 53.5091H64.5301L63.6833 54.8034H57.1654L58.4548 50.0218L55.286 53.455H55.2313L53.9201 50.0272L52.6307 54.8088H49.451L52.0571 45.1752H55.2696L56.4388 48.5813L59.4491 45.1698H63.0222L60.5691 54.1969L66.863 45.1752H70.0865L71.4414 53.9965L75.2221 49.7456L72.9329 45.1698H76.4514L77.5441 47.5091L79.5164 45.1644H83.2862L79.1176 49.8701L81.4996 54.8034ZM49.1396 52.1716L48.4294 54.8196H40.1358L42.7419 45.1752H51.0463L50.3252 47.8178H45.2442L44.9546 48.7979H49.7078L49.0686 51.1265H44.3154L44.0422 52.177H49.1396V52.1716ZM36.2295 54.825L33.9184 50.0326L32.6127 54.8304H29.4001L31.9953 45.186H35.0384L37.2511 49.7889L38.5023 45.186H41.7257L39.1196 54.825H36.2295ZM25.1332 54.825L27.7611 45.186H31.0392L28.3839 54.8304H25.1059L25.1332 54.825ZM24.1115 54.825H18.0416C16.8287 54.825 16.0092 53.9965 16.2114 53.1301L17.987 46.5236C18.1466 46.1196 18.429 45.7749 18.7951 45.5371C19.1613 45.2994 19.5929 45.1805 20.0303 45.1969H26.7449L26.0073 47.9044H22.1829C21.4672 47.9044 20.7679 48.0344 20.5439 48.8088L19.8828 51.2564C19.7025 51.9333 20.1669 52.1608 20.7133 52.1553H24.8382L24.1115 54.825ZM11.8406 41.0434L7 59.0001L86.5041 58.9568L91.3502 41.0001L11.8406 41.0434ZM92.8691 42.1265C92.9031 42.1324 92.938 42.1317 92.9718 42.1243C93.0055 42.1168 93.0375 42.1029 93.0657 42.0831C93.0779 42.071 93.0876 42.0567 93.0941 42.0409C93.1007 42.0251 93.104 42.0082 93.104 41.9911C93.104 41.9044 93.0439 41.8774 92.9401 41.8774H92.7762L92.6997 42.1481H92.8745L92.8691 42.1265ZM92.5194 42.7709H92.1315L92.4648 41.5416H92.9619C93.0243 41.5223 93.0903 41.5176 93.1548 41.5279C93.2193 41.5382 93.2805 41.5633 93.3335 41.6011C93.3865 41.639 93.4299 41.6885 93.4602 41.7459C93.4906 41.8032 93.507 41.8668 93.5083 41.9315C93.5077 42.0338 93.4716 42.1329 93.4059 42.2118C93.3402 42.2907 93.249 42.3448 93.1477 42.3647L93.3225 42.7817H92.9237L92.7762 42.4243H92.6123L92.5194 42.7709ZM93.5083 42.8954C93.6216 42.7862 93.7118 42.6558 93.7737 42.5117C93.8356 42.3676 93.868 42.2127 93.8689 42.0561C93.8744 41.9342 93.8541 41.8125 93.8093 41.699C93.7644 41.5854 93.696 41.4824 93.6084 41.3966C93.5209 41.3109 93.4162 41.2443 93.3011 41.2012C93.1859 41.1581 93.063 41.1394 92.9401 41.1463C92.7924 41.1454 92.646 41.1743 92.5098 41.231C92.3737 41.2878 92.2506 41.3714 92.1479 41.4766C92.034 41.5874 91.9439 41.7198 91.8829 41.8658C91.8218 42.0119 91.7912 42.1687 91.7928 42.3268C91.7872 42.4487 91.8075 42.5703 91.8524 42.6839C91.8972 42.7975 91.9657 42.9005 92.0532 42.9863C92.1407 43.072 92.2454 43.1386 92.3606 43.1817C92.4757 43.2248 92.5987 43.2435 92.7215 43.2366C93.0193 43.2347 93.3042 43.1159 93.5138 42.9062M94.0055 42.0398C94.0071 42.2132 93.9742 42.3853 93.9086 42.5461C93.843 42.7068 93.7459 42.8532 93.623 42.9766C93.5048 43.0982 93.3631 43.1949 93.2063 43.261C93.0496 43.327 92.881 43.3611 92.7106 43.3611C92.5726 43.3671 92.4349 43.3449 92.306 43.2958C92.1771 43.2467 92.0597 43.1718 91.9613 43.0758C91.8629 42.9797 91.7855 42.8646 91.7339 42.7376C91.6824 42.6106 91.6578 42.4745 91.6616 42.3377C91.66 42.1642 91.6929 41.9922 91.7585 41.8314C91.8241 41.6706 91.9212 41.5243 92.0441 41.4008C92.1603 41.277 92.3005 41.1776 92.4563 41.1088C92.6122 41.0399 92.7804 41.003 92.951 41.0001C93.089 40.9941 93.2267 41.0163 93.3557 41.0654C93.4846 41.1145 93.6019 41.1894 93.7003 41.2855C93.7988 41.3815 93.8762 41.4966 93.9277 41.6236C93.9793 41.7506 94.0039 41.8867 94 42.0236" fill="black"/>
</g>
<defs>
<clipPath id="clip0_837_384">
<rect width="87" height="18" fill="white" transform="translate(7 41)"/>
</clipPath>
</defs>
</svg>
