<svg width="100" height="100" viewBox="0 0 100 100" fill="none" xmlns="http://www.w3.org/2000/svg">
<path fill-rule="evenodd" clip-rule="evenodd" d="M89.7958 45.3675H87.0612L85.1836 48.4287L83.2652 45.3675H80.5714L83.5918 49.9389L80.3264 54.7553H83.0612L85.1836 51.4899L87.2652 54.7553H90L86.7346 49.9389L89.7958 45.3675ZM77.102 54.7145H79.3876V45.3675H77.102V54.7145ZM75.755 47.2451C75.8774 47.6125 75.9592 48.0205 75.9592 48.4287C75.9592 48.8369 75.8774 49.2451 75.755 49.6125C75.6326 49.9797 75.4284 50.3063 75.1428 50.5921C74.857 50.8777 74.5306 51.0819 74.1224 51.2451C73.7142 51.4083 73.2652 51.4899 72.7346 51.4899H70.3672V54.6737H68.0408V45.3675H72.7346C73.2652 45.3675 73.7142 45.4491 74.1224 45.6125C74.5306 45.7757 74.857 45.9797 75.1428 46.2655C75.4284 46.5513 75.6326 46.8777 75.755 47.2451ZM73.5918 48.4695C73.5918 48.1023 73.4694 47.8573 73.2244 47.6533C72.9796 47.4491 72.6938 47.3675 72.3672 47.3675H70.3264V49.5717H72.3672C72.7346 49.5717 73.0204 49.4899 73.2244 49.2859C73.4694 49.0819 73.5918 48.8369 73.5918 48.4695ZM67.102 54.7553L63.551 45.4083H60.5714L57.0612 54.7553H59.6734L60.1632 53.3675H64L64.4898 54.7553H67.102ZM62.0816 47.5307L63.3876 51.4083H60.7754L62.0816 47.5307ZM52.1632 51.4899H54.2856V52.3471L54.2448 52.3879C54.0408 52.5513 53.7958 52.6737 53.4694 52.7961C53.1428 52.8777 52.8162 52.9593 52.449 52.9593C52.0408 52.9593 51.6734 52.9185 51.3468 52.7553C51.0204 52.5921 50.7346 52.3879 50.4898 52.1431C50.2448 51.8981 50.0408 51.5717 49.9182 51.2451C49.7958 50.9185 49.7142 50.5513 49.7142 50.1431C49.7142 49.7349 49.7958 49.3675 49.9182 49.0409C50.0408 48.7145 50.2448 48.3879 50.4898 48.1431C50.7346 47.8981 51.0204 47.6941 51.3468 47.5307C51.6734 47.4083 52.0408 47.3267 52.449 47.3267C52.9386 47.3267 53.3468 47.4491 53.7142 47.6941C54.0408 47.9389 54.3264 48.2247 54.4898 48.5103L56.408 47.4899C56.2448 47.2451 56.0408 46.9593 55.8366 46.7145C55.5918 46.4287 55.306 46.1839 54.9796 45.9797C54.6938 45.7757 54.2856 45.6125 53.8774 45.4899C53.4694 45.3675 52.9796 45.2859 52.449 45.2859C51.755 45.2859 51.102 45.4083 50.4898 45.6125C49.8774 45.8573 49.3468 46.1839 48.8978 46.5921C48.408 47.0001 48.0816 47.4899 47.7958 48.1023C47.5102 48.6737 47.3876 49.3675 47.3876 50.1023C47.3876 50.8369 47.5102 51.5307 47.7958 52.1023C48.0816 52.6737 48.449 53.2043 48.8978 53.6125C49.3468 54.0615 49.8774 54.3879 50.4898 54.5921C51.102 54.7961 51.755 54.9185 52.449 54.9185C53.306 54.9185 54.1224 54.7553 54.857 54.4287C55.5102 54.1023 56.1224 53.6941 56.6122 53.1227V49.4491H52.1632V51.4899ZM39.3468 54.7553H46.1632V52.7553H41.6734V51.0001H46.0816V49.0001H41.6734V47.3675H46.1632V45.3675H39.3468V54.7553ZM34.1224 45.3675H37.3876V54.7553H35.102V48.2247L32.5714 54.7553H31.5918L29.0612 48.2247V54.7553H26.7346V45.3675H30.0408L32.0816 50.6737L34.1224 45.3675Z" fill="#4D2868"/>
<path fill-rule="evenodd" clip-rule="evenodd" d="M24.1226 50.0612L17.0613 43V50.0612H24.1226Z" fill="#AECD60"/>
<path fill-rule="evenodd" clip-rule="evenodd" d="M17.0612 43L10 50.0614H17.0612V43Z" fill="#DBE283"/>
<path fill-rule="evenodd" clip-rule="evenodd" d="M10 50.0613L17.0612 57.1225V50.0613H10Z" fill="#A2C62C"/>
<path fill-rule="evenodd" clip-rule="evenodd" d="M17.0613 50.0613V57.1225L24.1226 50.0613H17.0613Z" fill="#86BC25"/>
</svg>
