<svg width="100" height="100" viewBox="0 0 100 100" fill="none" xmlns="http://www.w3.org/2000/svg">
<path d="M44.2545 70.0133H56.7699V29H44.2545V70.0133Z" fill="#33BDF2"/>
<path d="M31.6096 44.6282C32.3371 43.172 32.7498 41.5326 32.7498 39.7982C32.7498 33.9019 28.0278 29.1116 22.1588 29H9V70.0133L24.422 70.001C31.9254 69.9002 38.0003 63.7668 38.0003 56.2414C38.0003 51.4627 35.5803 47.1364 31.6096 44.6282" fill="#33BDF2"/>
<path d="M77.8667 33.2855C72.1714 38.6083 71.6936 44.1951 71.6936 48.9734L71.6918 49.3909C71.6918 53.0157 71.34 54.0762 69.6044 55.6938L69.5532 55.7452C68.6995 56.5574 67.2633 57.0981 63.0264 57.0981V70.0133C68.3528 70.0133 73.9067 69.4193 78.4376 65.118C84.1299 59.7935 84.6053 54.2064 84.6053 49.4284L84.6102 49.0146C84.6102 45.3869 85.6887 43.627 86.7064 42.7062C87.7235 41.7877 90.5027 41.9238 91.7286 41.9238V29C86.5664 29.1268 81.5461 29.7954 77.8667 33.2855Z" fill="#33BDF2"/>
</svg>
