<svg width="100" height="100" viewBox="0 0 100 100" fill="none" xmlns="http://www.w3.org/2000/svg">
<g clip-path="url(#clip0_840_1769)">
<path d="M70.0566 63.8V66.5287H73.543V74.8799H76.9961V66.5287H80.4824V63.8H70.0898H70.0566ZM80.9639 63.8L85.1641 74.8799H88.8828L93 63.8H89.5137L87.0566 71.7379L84.5664 63.8H80.9639Z" fill="#533492"/>
<path d="M60.9589 17C57.9208 16.8347 55.4306 19.4806 55.0488 22.3415C54.7831 22.97 53.6542 22.5069 53.0566 22.6723C48.4081 22.9038 43.5937 22.3415 39.2773 24.326C32.4706 27.1373 27.4238 33.9837 27.1913 41.4089C27.0253 45.0471 27.6064 48.7348 29.5156 51.8934C31.6738 55.9285 35.1601 59.2029 39.4765 60.8566C44.1249 62.808 49.4706 62.841 54.1523 60.9723C60.0126 58.6902 64.6113 53.5306 66.2714 47.4946C66.9355 46.0889 66.6035 44.5179 66.7031 42.9799C66.8193 35.7532 66.9687 28.5264 66.6035 21.3162C66.0556 18.8191 63.499 17.0331 60.9589 17ZM53.0234 34.4137C53.6376 34.546 54.8496 34.116 55.0488 34.6452C55.0156 37.9857 55.1318 41.3427 54.7499 44.6667C53.6874 49.2475 48.0263 51.9431 43.7431 49.9917C38.7626 48.0568 37.2353 40.6978 41.1201 37.0265C42.7138 35.3728 44.9716 34.4137 47.2626 34.546C49.1884 34.4633 51.081 34.4633 53.0234 34.4302V34.4137Z" fill="#FEC018"/>
<path d="M60.9258 18.4553C59.3652 18.4553 57.8047 19.2326 57.0576 20.8036C56.7588 21.4155 56.6094 22.0273 56.5596 22.6227V23.0857L56.6592 23.7472V23.7968C57.2402 26.3435 60.0459 28.0634 62.7188 26.8893L63.1006 26.7239C63.1006 26.6908 63.1006 26.6908 63.1338 26.6908L63.4658 26.4758C64.2959 25.9136 64.8936 25.0371 65.1758 24.0614V24.0283C65.2422 23.7472 65.292 23.433 65.3086 23.1023C65.3418 22.6723 65.3418 22.2754 65.3086 21.9447V21.9116C65.209 21.5312 65.0762 21.1343 64.8936 20.754C64.7275 20.4232 64.5117 20.1256 64.2793 19.861C64.0303 19.6295 63.7813 19.3979 63.4492 19.1664L63.2334 19.0507L63.2002 19.0176C62.5361 18.6538 61.7393 18.4719 60.959 18.4884L60.9258 18.4553ZM64.3623 62.1465V62.4111H64.3291V63.3702L64.3623 65.4043V71.8042C64.3623 75.8558 64.4785 76.6 64.8936 77.7245L64.9268 77.7907C64.9268 77.8733 64.9766 77.956 65.0264 78.0552L65.1924 78.386L65.3584 78.7167C65.3916 78.7167 65.4082 78.7498 65.4082 78.7829V78.816C65.4912 78.9152 65.5742 79.0144 65.624 79.1136L65.8731 79.4444C65.8731 79.4774 65.8731 79.494 65.9063 79.5271C66.2383 79.957 66.6201 80.3539 67.0684 80.7508L67.1846 80.8666H67.2178C67.9316 81.5281 68.7451 82.0572 69.5088 82.3549C70.2725 82.6526 71.0859 82.8014 72.165 82.851C72.7295 82.9006 73.2607 82.9006 73.7422 82.851H73.9912C74.3565 82.851 74.6221 82.8014 74.8213 82.7187H74.8545C75.5518 82.5037 75.8008 82.1234 75.8174 81.4288V81.3296C75.8506 81.2469 75.8174 81.1642 75.8174 81.065V81.0319V80.9989V80.9658V80.8996C75.7842 80.8996 75.7842 80.8996 75.7842 80.8666V80.8335L75.6514 80.5027L75.6016 80.4366C75.6016 80.4366 75.6016 80.4035 75.5684 80.4035C75.5684 80.3704 75.5186 80.3208 75.4854 80.2878C75.0703 79.7917 74.2568 79.5601 73.0615 79.5436H72.8955C70.7373 79.3782 69.708 78.849 68.7119 77.3938L68.4463 76.9803V76.9473L68.3633 76.7819C68.3633 76.7819 68.3633 76.7488 68.3301 76.7488C68.2139 76.385 68.1641 75.922 68.0977 75.0124L68.0479 73.9871V73.9375L67.9814 70.6301L67.8652 64.7428L67.5332 64.3625C67.5 64.2467 67.4336 64.131 67.3672 64.0317L67.085 63.701L66.8359 63.4364C66.8027 63.4364 66.7861 63.3868 66.7529 63.3537C66.4209 62.9568 66.0889 62.7253 65.5908 62.5599C65.3916 62.4607 65.1758 62.3946 64.9766 62.3284L64.3125 62.163L64.3623 62.1465ZM29.3828 62.3119C27.6397 62.4772 26.1455 64.0152 26.1455 65.7847C26.1787 66.1485 26.0957 66.4462 25.6475 66.3304C23.5557 66.4296 21.4307 66.3304 19.3389 66.6281C16.8486 67.1903 14.6904 69.0425 13.5781 71.3246C12.748 73.3091 12.7148 75.6574 13.4121 77.708C14.2422 79.6428 15.8193 81.2635 17.6621 82.2722C19.5879 83.1983 21.8125 83.0991 23.8545 82.6691C26.2949 81.8423 28.2705 79.9074 29.2998 77.5757C29.4658 77.1622 29.7979 76.7819 29.6982 76.3023C29.6982 74.2021 29.8643 72.0853 29.8145 69.9851C29.8477 67.4549 29.7813 64.9247 29.6982 62.378L29.3662 62.3284L29.3828 62.3119ZM8 66.2808L8.0498 70.4151V73.2925C8.0498 77.9229 8.0498 79.4113 8.26563 80.2878V80.7839L8.38184 80.8996V80.9989L8.48145 81.1146C8.71387 81.8257 9.0957 82.1069 9.77637 82.5037C9.84277 82.5037 9.89258 82.5368 9.94238 82.5699L10.1084 82.6691H10.1416L10.5068 82.8345C10.54 82.8345 10.5732 82.8345 10.6064 82.8676C10.8721 82.9999 11.1045 83.066 11.2373 82.9833H11.6855V78.7994V78.7167V78.6341V78.601V76.2527V76.0873V75.955V75.922V72.0688V71.9034L11.6523 70.812C11.6523 69.704 11.5859 69.1252 11.4863 68.7614C11.4863 68.7283 11.4863 68.6952 11.4531 68.6621V68.5795L11.4033 68.4802C11.4033 68.4802 11.4033 68.4306 11.3701 68.4141L11.3369 68.3314L11.2373 68.133C10.7393 67.3061 10.0752 66.81 9.17871 66.5454C8.97949 66.4627 8.81348 66.4296 8.68066 66.4131L8.0166 66.2477L8 66.2808ZM46.0674 66.3139C43.9424 66.3966 41.834 66.3469 39.709 66.4131C38.4473 66.4958 37.1689 66.5454 35.9902 67.0746C32.5039 68.4637 30.3125 72.4492 30.9766 76.1369C31.2256 77.956 32.3047 79.5271 33.6328 80.7343C34.6289 81.6438 35.791 82.4376 37.1191 82.7849C38.9453 82.9502 40.7715 82.9999 42.5479 82.9006C43.3779 82.851 43.9424 82.0738 43.9424 81.2469C43.9756 80.387 43.2451 79.6924 42.3818 79.6263C41.0537 79.494 39.6924 79.5767 38.3643 79.3782C37.3184 79.3121 36.4219 78.6837 35.7578 77.8899C35.3594 77.493 34.5459 76.4842 35.6582 76.4677C37.1025 76.3023 38.5801 76.4677 39.9746 76.0873C42.083 75.5912 43.8594 74.1029 44.9551 72.2838C45.918 70.6301 45.9844 68.7283 46.0674 66.8927L46.1172 66.3139H46.0674ZM54.6006 66.4792C53.5049 66.5123 52.3428 66.5123 51.3799 67.1076C49.1055 68.1826 47.2627 70.1836 46.5654 72.6145C46.1504 74.2021 46.1836 75.922 46.7314 77.493C47.6777 80.0066 49.8857 82.0076 52.459 82.7518C54.9492 83.0825 57.4727 82.9172 59.9629 82.9668H63.1836L63.0674 75.492C63.0176 74.5824 63.0674 73.6729 62.9844 72.7634C62.7852 72.1019 62.5859 71.4073 62.1875 70.812C60.9922 68.8275 59.083 67.2069 56.8252 66.6115C56.1113 66.4958 55.3311 66.4958 54.6172 66.4462L54.6006 66.4792ZM41.1201 69.7867C41.6514 69.7867 42.1162 69.8859 41.7842 70.4978C41.2363 71.3246 40.4561 71.9861 39.5928 72.5318C38.2647 73.0279 36.8535 72.9618 35.4756 72.9287C34.3799 72.9618 35.6416 71.705 35.8906 71.3081C37.0527 70.1505 38.7129 69.8528 40.2568 69.7867H41.1201ZM26.1455 69.7867C26.1455 71.7381 26.1455 73.706 25.9795 75.6574C25.6973 77.5426 24.0205 79.0309 22.2109 79.4609C21.0488 79.6263 19.8037 79.5271 18.8076 78.7994C17.5459 78.0056 16.6992 76.6165 16.6494 75.0951C16.3672 72.7303 18.1436 70.1836 20.584 69.9686C22.4102 69.7701 24.3027 69.8032 26.1621 69.8032L26.1455 69.7867ZM54.8662 69.8859C57.1074 69.8859 59.1494 71.7381 59.3486 73.954C59.4316 75.8227 59.4814 77.6914 59.4648 79.5436C57.5723 79.5105 55.6797 79.5932 53.7871 79.4113C51.5791 79.1467 49.9688 76.9307 49.9688 74.7809C49.9688 72.2672 52.127 69.9355 54.667 69.8859H54.8994H54.8662Z" fill="#A71921"/>
</g>
<defs>
<clipPath id="clip0_840_1769">
<rect width="85" height="66" fill="white" transform="translate(8 17)"/>
</clipPath>
</defs>
</svg>
