<svg width="100" height="100" viewBox="0 0 100 100" fill="none" xmlns="http://www.w3.org/2000/svg">
<g clip-path="url(#clip0_840_2261)">
<path d="M40.5012 60.6698H44.1615V54.1293L40.5012 51.048V60.6698ZM49.8864 54.3303H52.9504L53.7799 53.6353V51.0526L49.8864 54.3303ZM49.59 16.4301L47.1406 19.0081L40.5127 12.0333L48.9248 15.7292L49.59 16.4301ZM85.3062 30.0557V12L89.7501 14.67V24.5618C88.6575 25.698 86.3747 28.4772 85.3062 30.0557ZM89.7501 33.6597V60.6698H85.3062V40.9069C86.2552 38.8527 88.546 35.2452 89.7501 33.6597ZM66.5657 60.6698C66.4221 59.4566 66.2475 57.7034 66.2475 56.1605C66.2475 55.2046 66.3773 51.357 66.3773 48.2551C66.3773 45.6414 65.8121 40.993 65.8121 38.4666C65.8109 36.949 65.9235 34.8902 65.7558 34.1641C66.9667 33.3817 68.0248 32.8785 71.3646 30.8576C72.4457 30.2028 74.5091 29.0964 74.5091 27.7637C74.5091 27.1732 74.354 26.7872 73.5118 26.0967C72.9259 25.628 72.2963 25.4924 71.584 25.4924C69.8837 25.4924 69.1128 27.1973 67.6859 28.0705C65.5122 29.3997 64.3576 30.058 63.9118 30.305C63.7326 30.2246 62.9939 29.7834 61.8014 29.7834C60.5583 29.7834 59.1107 30.3429 59.1107 31.9571C59.1095 32.7004 59.3462 33.5012 58.3559 34.0216C57.8021 34.3732 55.0954 35.9184 52.2151 37.6567C49.7853 39.1227 48.6536 39.0055 47.63 39.6213C46.6833 40.1934 46.4363 40.9046 46.4363 41.5215C46.4363 42.0707 46.781 42.76 46.9039 42.9151C47.5553 43.7492 48.1412 44.203 49.1695 44.203C50.9089 44.203 52.3564 42.6796 55.0437 40.769C56.721 39.5753 58.2582 38.3368 59.1578 38.3368C59.9632 38.3368 60.5215 38.9434 60.5215 41.4388C60.5215 49.7854 60.0149 51.1089 60.0149 56.9004C60.0149 57.9424 60.0528 59.8679 60.0895 60.6698H55.6629V46.997L47.1406 54.1764L38.6182 46.997V60.6698H11.0004V12H37.8875L47.1406 21.7402L56.3936 12H83.4221V32.8107C82.5673 34.1308 79.9547 38.6045 78.1958 43.1713C77.6214 44.6637 77.356 45.7425 76.5977 45.7425C75.7659 45.7425 75.6959 44.9222 75.6177 44.1835C75.4477 42.5854 75.0893 39.596 74.9238 38.4954C74.601 36.3665 74.1782 34.1136 71.8023 34.1136C70.0422 34.1136 68.1948 35.0775 68.1948 37.713C68.1948 39.2042 68.9508 41.7972 70.2421 45.206C70.7511 46.5513 73.459 53.6479 73.8485 54.675C74.5631 56.5603 75.5568 57.0738 77.1021 57.0738C79.0816 57.0738 79.7663 56.3466 80.5797 53.5709C81.2725 51.2042 82.4467 47.3475 83.4221 44.9314C83.4221 44.9291 83.4221 44.9314 83.4221 44.9314V60.6698H66.5657Z" fill="#51F639"/>
<path d="M79.2868 71.8709H78.2356L77.0993 78.894L77.0361 79.2502C77.0224 79.3214 76.9948 79.4271 76.9523 79.5673C77.0786 79.5385 77.1694 79.5247 77.2257 79.5247H78.046C78.7606 79.5247 79.3465 79.4547 79.8015 79.3134C80.2576 79.1743 80.6459 78.9434 80.9687 78.6206C81.3743 78.2139 81.6937 77.6808 81.9258 77.0225C82.1567 76.3642 82.2727 75.6347 82.2727 74.8362C82.2727 73.8677 82.0165 73.1324 81.5053 72.628C80.9929 72.1237 80.253 71.8709 79.2868 71.8709Z" fill="#51F639"/>
<path d="M85.7413 77.3058C85.5448 78.0285 85.2679 78.6937 84.9106 79.3037C84.5533 79.9138 84.1191 80.4538 83.6067 80.9225C83.0954 81.3924 82.5313 81.7738 81.9144 82.0691C81.41 82.3069 80.8769 82.4781 80.3163 82.5838C79.7556 82.6895 79.1249 82.7412 78.4241 82.7412H72.6625L74.8913 68.7168H79.8119C80.9056 68.7168 81.8443 68.8708 82.6301 69.1798C83.4136 69.4877 84.0593 69.9232 84.5637 70.4827C85.068 71.0445 85.4403 71.7131 85.6781 72.4909C85.917 73.2687 86.0354 74.128 86.0354 75.0667C86.0354 75.8376 85.9377 76.5843 85.7413 77.3058ZM70.1751 82.7412H66.3907L67.1479 77.8837C67.1754 77.716 67.1961 77.5977 67.2099 77.5264L67.3156 77.2116C67.1616 77.2392 67.0433 77.253 66.9583 77.253H62.3743L61.4919 82.7412H57.7064L59.9352 68.7168H63.7414L63.005 73.3434C62.9774 73.5111 62.9487 73.6294 62.9211 73.6995L62.8373 74.0155C62.9912 73.9879 63.1038 73.9741 63.1739 73.9741H67.7786L68.6196 68.7168H72.4051L70.1751 82.7412ZM54.4057 71.9337H50.1169L49.8435 73.4686L49.7803 73.827C49.7654 73.8971 49.7378 74.0086 49.6964 74.1625C49.8504 74.1349 49.9618 74.12 50.0331 74.12H54.0495L53.5027 77.253H49.2541L48.9818 78.8936L48.9186 79.2509C48.9037 79.321 48.8761 79.4267 48.8336 79.5668C48.9887 79.5381 49.1002 79.5243 49.1702 79.5243H53.1442L52.6399 82.7412H44.5449L46.7737 68.7168H54.9112L54.4057 71.9337ZM35.0712 82.7412L31.3282 68.7168H35.3654L36.605 74.6875C36.7038 75.1368 36.7808 75.5113 36.8371 75.8134C36.8934 76.1145 36.9451 76.4017 36.9945 76.6751C37.0439 76.9485 37.0864 77.2289 37.1208 77.5161C37.1565 77.8044 37.2013 78.1583 37.2576 78.5788L37.3633 78.5995C37.4885 78.2077 37.5999 77.8699 37.6987 77.5908C37.7964 77.3093 37.8952 77.0393 37.9928 76.7808C38.0916 76.5212 38.2008 76.2477 38.3191 75.9605C38.4375 75.6733 38.5891 75.3263 38.7718 74.9196L41.5049 68.7168H45.7937L38.3926 82.7412H35.0712ZM28.2033 82.7412H24.4189L26.6477 68.7168H30.4528L28.2033 82.7412ZM23.1505 82.7412H15.2037L17.4314 68.7168H21.2376L19.6189 78.8097C19.5901 78.9775 19.5695 79.0969 19.5557 79.167C19.5419 79.2371 19.5132 79.3428 19.4718 79.4818C19.6258 79.4542 19.7372 79.4404 19.8084 79.4404H23.6767L23.1505 82.7412ZM11 88.8819H89.7462V62.5543H11V88.8819Z" fill="#51F639"/>
</g>
<defs>
<clipPath id="clip0_840_2261">
<rect width="100" height="100" fill="white"/>
</clipPath>
</defs>
</svg>
