<svg width="100" height="100" viewBox="0 0 100 100" fill="none" xmlns="http://www.w3.org/2000/svg">
<path d="M20.8135 58.1607C20.3259 58.0438 19.3028 57.822 19.3028 57.822C17.327 57.4223 16.9678 57.0947 16.9678 56.5861V56.5322C16.9678 56.0768 17.4481 55.622 18.3824 55.622C19.7155 55.622 21.0971 56.0894 22.5448 56.8261L26.6043 53.1902C24.4839 51.5968 21.6452 50.8003 18.1708 50.8003C13.0185 50.8003 10 53.5592 10 57.1216V57.1755C10 60.3714 12.6272 61.7676 15.7521 62.6406C16.2401 62.7575 17.356 62.9778 17.356 62.9778C19.3317 63.3776 19.7845 63.7056 19.7845 64.2142V64.2681C19.7845 64.7228 19.3353 65.1775 18.4007 65.1775C17.0676 65.1775 15.7017 64.7103 14.2541 63.9737L10.2022 67.6096C12.3224 69.203 14.9165 69.9999 18.3908 69.9999C23.5431 69.9999 26.3076 67.2409 26.3076 63.6787V63.6248C26.3076 60.4281 23.9383 59.0334 20.8135 58.1607V58.1607ZM83.9775 60.0001L79.6898 53.6001L75.3789 60.0001V51.1631H69.4488V69.9911H75.8064L79.8063 63.5912L83.8062 69.9911H90.2039V51.1631H83.9775V60.0001ZM61.6291 60.4525V60.4C61.6291 58.2167 60.1369 56.244 57.7809 56.244C55.4511 56.244 53.9848 58.1905 53.9848 60.3469V60.4C53.9848 62.5829 55.4771 64.5556 57.833 64.5556C60.1628 64.5556 61.6291 62.6094 61.6291 60.4525ZM47.8068 60.4525V60.4C47.8068 55.0602 52.1794 50.8003 57.833 50.8003C63.4877 50.8003 67.8064 55.0079 67.8064 60.3469V60.4C67.8064 65.7393 63.4353 69.9999 57.7809 69.9999C52.1262 69.9999 47.8068 65.7917 47.8068 60.4525V60.4525ZM40.095 51.1631V57.6862H34.0167V51.1631H28.2084L28.207 69.9911H34.0167V63.468H40.095V69.9911H45.8768V51.1631H40.095ZM45.1355 30.1115V39.8837C45.1355 42.2522 44.1003 43.2 42.467 43.2C40.8339 43.2 39.7985 42.1686 39.7985 39.7442V30.1115H33.2754V40.088C33.2754 46.2493 36.9339 48.7995 42.4878 48.7995C48.029 48.7995 51.8069 46.3144 51.8069 40.0001V30.1115H45.1355ZM16.523 39.6L20.8854 46L25.2698 39.6V48.3463H31.0517V30.1115H25.007L21.0072 36.5114L17.0071 30.1115H10.4447V48.3463H16.523V39.6ZM71.0068 35.1999H65.8069V30L82.2059 30.0002V35.2001H77.0066V48.4001H71.0068V35.1999ZM84.208 30H90.2065V48.4001H84.2071L84.208 30ZM53.8083 30H59.8067V43.2H68.6065V48.4001H53.8068L53.8083 30Z" fill="#F05A61"/>
</svg>
