<svg width="100" height="100" viewBox="0 0 100 100" fill="none" xmlns="http://www.w3.org/2000/svg">
<path d="M15 27V73H41.7435V57.145L50.4932 65.8279L59.2565 57.145V73H62.8982C62.9337 71.7529 62.9578 70.1094 62.9379 69.4069C62.9104 68.6721 62.8692 66.9029 62.8692 65.9503C62.8692 60.6427 63.3362 59.336 63.3362 51.6875C63.3362 49.4011 62.8143 48.8431 62.0726 48.8431C61.2346 48.8431 59.1331 50.4219 57.581 51.5106C55.0948 53.2527 53.7487 54.6545 52.1417 54.6545C51.1802 54.6545 50.6444 54.2326 50.04 53.4705C49.9165 53.3343 49.6005 52.6949 49.6005 52.1912C49.6005 51.6196 49.8201 50.8303 50.6992 50.3131C51.647 49.7551 52.691 49.8639 54.9435 48.5165C57.6084 46.9243 60.7949 45.0735 61.3033 44.7469C62.2235 44.2705 62.0036 43.5357 62.0036 42.8552C62.0036 41.3853 63.3361 40.8681 64.4898 40.8681C65.5888 40.8681 66.2756 41.2764 66.4403 41.3445C66.8525 41.1131 67.9238 40.5143 69.9293 39.2894C72.4016 37.7788 72.3604 36.5811 73.8988 36.2545C75.6021 35.887 76.6871 37.5338 76.6871 38.6906C76.6871 40.419 74.4619 41.426 73.3357 42.0521C70.1901 43.8077 69.0914 44.5426 67.965 45.2639C68.02 45.9579 68.02 47.5775 68.02 48.9658C68.02 51.2793 68.7205 55.6072 68.7205 58.0024C68.7205 60.8468 68.5967 64.3851 68.5967 65.2562C68.5967 66.6715 68.748 68.2776 68.9266 69.4207C69.0155 70.3194 69.1322 71.7945 69.1967 73H86V50.8346C85.968 50.897 85.9357 50.9576 85.9038 51.0207C84.4478 53.906 82.5799 57.0904 81.1651 61.9626C80.7805 63.3916 80.6293 64.4667 80.6018 65.8822C80.547 68.291 77.0718 69.2573 75.1489 66.5082C73.5692 64.249 71.7423 56.1923 71.5363 55.2396C70.6572 51.3337 70.3278 49.9047 70.2178 48.4621C70.0667 46.6112 70.8221 45.5497 72.4842 45.1277C74.201 44.6786 75.6022 45.5361 75.7396 47.4006C76.0005 50.9117 76.2203 53.6473 76.5636 55.2396C76.6735 55.7705 76.9893 55.9609 77.3328 55.9609C77.786 55.9609 78.0471 55.6615 78.1981 55.3212C78.8445 53.9241 80.5167 48.005 86 41.1172V27H59.5587L50.4932 35.9686L41.4413 27H15Z" fill="black"/>
</svg>
