<svg width="100" height="100" viewBox="0 0 100 100" fill="none" xmlns="http://www.w3.org/2000/svg">
<g clip-path="url(#clip0_837_395)">
<path d="M32.643 55.8684H23.4722V42.5363H17.4521V55.8114H8.05626L8 21.5697H17.4521V34.332H23.4159V21.5697H32.5867V55.8684H32.643ZM74.7837 56.0393C84.292 56.0393 92 48.0629 92 38.4342C92 28.6346 84.292 21 74.7837 21C65.3315 21 60.493 28.0648 59.2552 30.9136C59.2552 26.6405 55.0918 21.5697 50.2532 21.5697H34.5559V55.8684H49.1842C55.0918 55.8684 59.2552 50.6837 59.3115 46.2397C60.6618 49.0314 65.3315 56.0393 74.7837 56.0393ZM47.9464 42.0805C49.2967 42.0805 50.3657 43.4479 50.3657 44.9862C50.3657 46.5246 49.2967 47.8919 47.9464 47.8919H43.2766V42.0805H47.9464ZM48.0027 29.2043C49.353 29.2043 50.422 30.5717 50.422 32.11C50.422 33.6483 49.353 35.0157 48.0027 35.0157H43.3329V29.2043H48.0027ZM54.1916 38.4342C55.2605 38.3202 57.061 37.0668 57.6798 36.2692C57.4548 37.2377 57.4548 40.0864 57.6798 41.055C56.9484 39.9725 55.2605 38.5481 54.1916 38.4342ZM66.1755 38.4342C66.1755 33.5914 70.0576 29.7171 74.7837 29.7171C79.566 29.7171 83.3918 33.6483 83.3918 38.4342C83.3918 43.277 79.5097 47.1513 74.7837 47.1513C70.0013 47.1513 66.1755 43.277 66.1755 38.4342ZM74.7837 45.2711C78.497 45.2711 81.5352 42.1945 81.5352 38.4342C81.5352 34.6739 78.497 31.5972 74.7837 31.5972C71.0703 31.5972 68.0321 34.6739 68.0321 38.4342C68.0321 42.2515 71.0703 45.2711 74.7837 45.2711Z" fill="black"/>
<path d="M40.4072 79C36.3563 79 34.2183 76.607 34.2183 72.163V67.662L29.2672 75.6954C29.2672 75.7524 29.211 75.7524 29.1547 75.7524H28.1983C28.142 75.7524 28.142 75.7524 28.0857 75.6954L23.1909 67.719V78.6581C23.1909 78.7151 23.1346 78.7721 23.0784 78.7721H20.8279C20.7716 78.7721 20.7153 78.7151 20.7153 78.6581V63.1611C20.7153 63.1041 20.7716 63.0471 20.8279 63.0471H23.0784C23.1346 63.0471 23.1346 63.0471 23.1909 63.1041L28.7046 72.0491L34.2183 63.1041C34.2183 63.0471 34.2746 63.0471 34.3309 63.0471H36.5814C36.6376 63.0471 36.6939 63.1041 36.6939 63.1611V72.163C36.6939 75.1827 37.8754 76.607 40.351 76.607C42.8265 76.607 44.008 75.1827 44.008 72.163V63.1611C44.008 63.1041 44.0643 63.0471 44.1206 63.0471H46.3711C46.4273 63.0471 46.4836 63.1041 46.4836 63.1611V72.163C46.5398 76.664 44.4581 79 40.4072 79Z" fill="black"/>
<path d="M74.3336 78.7721H72.0831C72.0268 78.7721 71.9706 78.7151 71.9706 78.6581V63.1611C71.9706 63.1041 72.0268 63.0471 72.0831 63.0471H74.3336C74.3899 63.0471 74.4461 63.1041 74.4461 63.1611V78.6581C74.5024 78.7151 74.4461 78.7721 74.3336 78.7721Z" fill="black"/>
<path d="M63.5311 63.0471H58.4112C58.3549 63.0471 58.2987 63.1041 58.2987 63.1611V74.442L50.2531 63.1041C50.2531 63.0471 50.1969 63.0471 50.1406 63.0471H47.8901C47.8339 63.0471 47.7776 63.1041 47.7776 63.1611V78.6581C47.7776 78.7151 47.8339 78.7721 47.8901 78.7721H50.1406C50.1969 78.7721 50.2531 78.7151 50.2531 78.6581V67.3772L58.2987 78.7151C58.2987 78.7151 58.2987 78.7151 58.355 78.7721H58.4112H63.5311C67.8633 78.7721 70.9578 75.4675 70.9578 70.9096C70.9578 66.3516 67.8633 63.0471 63.5311 63.0471ZM63.5311 76.2652H60.8305V65.3261H63.5311C66.513 65.3261 68.4822 67.5481 68.4822 70.7956C68.4822 74.1002 66.513 76.2652 63.5311 76.2652Z" fill="black"/>
</g>
<defs>
<clipPath id="clip0_837_395">
<rect width="84" height="58" fill="white" transform="translate(8 21)"/>
</clipPath>
</defs>
</svg>
