<svg width="100" height="100" viewBox="0 0 100 100" fill="none" xmlns="http://www.w3.org/2000/svg">
<g clip-path="url(#clip0_840_2921)">
<path d="M71.5605 31C73.1532 31 74.7074 31.2317 76.2488 31.6178C79.2673 32.3514 81.9903 33.6899 84.2766 35.8136C85.0088 36.4828 85.651 37.2293 86.2162 38.053C86.396 38.3104 86.4088 38.5164 86.2547 38.7995C85.3684 40.3954 84.3537 41.9013 83.339 43.4071C81.104 46.702 78.8049 49.9582 76.3901 53.1243C76.3002 53.2402 76.2616 53.4075 76.0818 53.4332C75.979 53.06 76.0946 52.6996 76.146 52.3392C76.4158 50.4602 76.4543 48.5811 76.4543 46.6891C76.4543 44.5912 76.2359 42.5191 75.8121 40.4727C75.2469 37.8085 74.3606 35.2601 72.8835 32.9434C72.5624 32.4415 72.2156 31.9653 71.8431 31.4891C71.7146 31.3604 71.5477 31.2317 71.5605 31V31Z" fill="#FFD004"/>
<path d="M71.5606 31C73.9625 33.8572 75.2598 37.2164 75.9791 40.8459C76.5442 43.6645 76.647 46.5218 76.5186 49.3919C76.4543 50.7433 76.313 52.0947 76.069 53.4332C75.7479 52.4679 75.4396 51.5155 75.1057 50.5631C74.6946 49.3533 74.2579 48.1563 73.757 46.9723C71.9844 42.8794 68.8504 40.3697 64.6373 39.147C64.496 39.1084 64.3548 39.0698 64.1749 39.0183C64.3419 38.7866 64.4832 38.5807 64.6373 38.3619C66.487 35.672 68.6962 33.3038 71.2137 31.2317C71.3165 31.1544 71.4064 31.0257 71.5606 31V31Z" fill="#138336"/>
<path d="M55.2094 55.9558C54.5929 55.6212 53.925 55.4153 53.2699 55.1707C52.9359 55.042 52.602 54.9262 52.3194 54.6945C51.9598 54.3985 51.9341 53.9223 52.2423 53.6134C52.435 53.4332 52.679 53.3689 52.9231 53.3431C53.7708 53.253 54.4901 53.5877 55.1709 54.051C55.3122 54.1411 55.4021 54.2312 55.5434 54.0253C55.903 53.5233 56.2755 53.0214 56.6609 52.5323C56.7893 52.365 56.7251 52.3006 56.5838 52.1977C55.5305 51.464 54.3874 51.0136 53.0387 51.0265C52.4222 51.0136 51.7799 51.1165 51.1634 51.374C50.0331 51.8373 49.3009 52.6481 49.1596 53.8966C49.0055 55.1965 49.6092 56.0974 50.6625 56.7667C51.2405 57.1399 51.8955 57.3587 52.5249 57.6161C52.9231 57.7706 53.3084 57.925 53.6552 58.1824C53.9121 58.3884 54.0406 58.6458 53.9763 58.9804C53.9121 59.3022 53.6938 59.4824 53.3983 59.5725C53.0259 59.6883 52.6534 59.7012 52.268 59.6497C51.4845 59.5338 50.8166 59.1863 50.2 58.723C50.0331 58.6072 49.956 58.6072 49.8404 58.7874C49.5964 59.1477 49.3395 59.4952 49.0826 59.8556C48.5688 60.5763 48.5559 60.5892 49.3266 61.0268C51.1762 62.0693 53.0901 62.3653 55.0681 61.4644C56.237 60.9238 56.8407 59.9586 56.8792 58.6715C56.9178 57.3973 56.2755 56.535 55.2094 55.9558V55.9558Z" fill="#138336"/>
<path d="M68.9917 61.503C68.8761 60.911 68.7862 60.3061 68.6963 59.7011C68.6706 59.5338 68.632 59.4051 68.4008 59.4437C68.0283 59.5081 67.8228 59.2893 67.7586 58.9547C67.7201 58.7616 67.7072 58.5557 67.7072 58.3626C67.7072 56.5479 67.7072 54.746 67.7072 52.9313C67.7072 51.0522 67.7072 49.186 67.7201 47.3069C67.7201 47.0237 67.6559 46.9465 67.3733 46.9594C66.5769 46.9851 65.7934 46.9851 64.997 46.9594C64.6759 46.9465 64.6117 47.0623 64.6117 47.3584C64.6245 51.0007 64.6117 54.6431 64.6245 58.2983C64.6245 58.6458 64.6374 58.9804 64.6759 59.3279C64.8044 60.3962 65.1383 61.3486 66.2558 61.7733C67.0907 62.0822 67.9384 62.0178 68.7862 61.8119C68.9403 61.7604 69.0302 61.7089 68.9917 61.503V61.503Z" fill="#138336"/>
<path d="M37.2655 51.1165C36.1609 50.872 35.1718 51.0908 34.3369 51.8759C33.9516 52.2234 33.669 52.6481 33.3222 53.0728C33.2708 52.5709 33.2066 52.0818 33.1552 51.5799C33.1296 51.3611 33.0782 51.2581 32.8213 51.271C32.1791 51.2967 31.524 51.2967 30.8818 51.271C30.6249 51.2581 30.5735 51.3482 30.5735 51.5927C30.5863 54.8747 30.5863 58.1438 30.5735 61.4258C30.5735 61.6703 30.6506 61.7347 30.8818 61.7347C31.691 61.7218 32.4873 61.7089 33.2965 61.7347C33.592 61.7475 33.669 61.6574 33.669 61.3614C33.6562 59.5596 33.669 57.7706 33.6562 55.9687C33.6562 55.7499 33.7076 55.5568 33.7975 55.3638C34.4269 54.0381 35.403 53.5491 36.8159 53.8579C37.0471 53.9094 37.0985 53.8837 37.1371 53.652C37.2527 52.9441 37.3683 52.2491 37.5352 51.5541C37.6252 51.2324 37.4967 51.168 37.2655 51.1165V51.1165Z" fill="#138336"/>
<path d="M61.9143 56.4835C61.9143 54.8619 61.9143 53.2402 61.9143 51.6056C61.9143 51.3611 61.8886 51.2581 61.606 51.271C60.7711 51.2967 59.949 51.2839 59.1141 51.271C58.8958 51.271 58.8187 51.3225 58.8187 51.5541C58.8316 54.849 58.8316 58.131 58.8187 61.4258C58.8187 61.6832 58.9086 61.7347 59.1398 61.7347C59.949 61.7218 60.7454 61.709 61.5546 61.7347C61.85 61.7476 61.9271 61.6575 61.9271 61.3614C61.9143 59.7398 61.9143 58.1052 61.9143 56.4835Z" fill="#138336"/>
<path d="M60.3858 46.5218C59.3454 46.5218 58.5876 47.1782 58.5876 48.1049C58.5747 49.0573 59.3454 49.7523 60.3858 49.7523C61.4134 49.7523 62.1584 49.083 62.1584 48.1306C62.1584 47.1911 61.4391 46.5218 60.3858 46.5218Z" fill="url(#paint0_linear_840_2921)"/>
<path d="M25.9367 54.5272C25.8211 54.5015 25.7055 54.4629 25.577 54.4243C25.6156 54.3728 25.6284 54.3599 25.6413 54.3599C25.744 54.3213 25.8339 54.2956 25.9367 54.2569C27.1441 53.7679 27.7992 52.8541 27.8762 51.567C27.9661 50.1384 27.3624 49.1216 26.1294 48.5682C25.2816 48.1821 24.3697 48.0276 23.4448 48.0405C21.7494 47.9761 20.0539 48.0276 18.3456 48.0019C18.0758 48.0019 18.14 48.1821 18.14 48.3237C18.14 52.6739 18.14 57.037 18.1272 61.3872C18.1272 61.6832 18.23 61.7347 18.4868 61.7218C19.6557 61.7089 20.8374 61.7218 22.0063 61.7089C22.5457 61.7089 23.0852 61.7604 23.6247 61.6703C23.7531 61.6703 23.8687 61.6575 23.9972 61.6575C25.1917 61.606 26.322 61.31 27.2597 60.5377C28.4414 59.5724 28.7368 58.2725 28.4671 56.831C28.1973 55.4668 27.1826 54.849 25.9367 54.5272V54.5272ZM21.4539 50.3958C22.1861 50.4215 22.9311 50.3314 23.6504 50.4859C24.3825 50.6275 24.7807 51.0136 24.8449 51.6571C24.9348 52.4165 24.588 53.0342 23.9201 53.3174C23.3549 53.5619 22.7641 53.5233 22.1732 53.5233C21.2356 53.5233 21.2356 53.5233 21.2356 52.5838C21.2356 52.3779 21.2356 52.1591 21.2356 51.9531C21.2356 51.5155 21.2356 51.0779 21.2356 50.6532C21.2356 50.4988 21.2484 50.3958 21.4539 50.3958ZM24.1256 59.1863C23.2265 59.418 22.3145 59.2764 21.4026 59.315C21.2227 59.315 21.2356 59.1992 21.2356 59.0705C21.2356 58.5557 21.2356 58.0409 21.2356 57.526C21.2356 57.0112 21.2356 56.4964 21.2356 55.9816C21.2356 55.8014 21.2741 55.7113 21.4668 55.7242C22.2888 55.7499 23.1237 55.6727 23.9586 55.8014C24.9348 55.9687 25.4614 56.4707 25.5128 57.3072C25.5642 58.2854 25.1018 58.9418 24.1256 59.1863V59.1863Z" fill="#138336"/>
<path d="M46.8861 55.7757C46.8861 55.2995 46.8604 54.8232 46.7833 54.3599C46.5136 52.6481 45.5759 51.5155 44.0217 51.1809C42.018 50.7433 40.1941 51.3225 38.46 52.3135C38.2674 52.4165 38.3573 52.5066 38.4215 52.6224C38.6656 53.0729 38.9096 53.5233 39.1536 53.9867C39.3977 54.45 39.3977 54.45 39.8473 54.2183C40.6436 53.7936 41.4785 53.459 42.4033 53.5233C43.174 53.5748 43.6878 54.0381 43.7777 54.7589C43.8034 54.952 43.7777 55.0292 43.5465 55.0549C43.0584 55.1064 42.5831 55.1836 42.0951 55.2737C41.0418 55.4796 40.0142 55.7499 39.128 56.4063C38.0619 57.1914 37.7664 58.2854 38.0105 59.5338C38.2417 60.7308 38.9481 61.5545 40.1555 61.8763C41.2858 62.1852 42.3134 61.8891 43.2768 61.2714C43.5593 61.0912 43.8291 60.8724 44.1245 60.6536C44.1887 60.9239 44.2658 61.1684 44.2915 61.4001C44.3172 61.6961 44.4585 61.7476 44.7282 61.7476C45.319 61.7218 45.9099 61.7218 46.5136 61.7476C46.809 61.7604 46.8861 61.6832 46.8861 61.3743C46.8861 59.4952 46.8861 57.629 46.8861 55.7757V55.7757ZM43.0841 59.2893C42.5318 59.6111 41.9666 59.6883 41.3758 59.4309C40.8234 59.1863 40.7207 58.3884 41.1446 57.8607C41.3629 57.6033 41.6455 57.436 41.9538 57.3072C42.4547 57.1013 42.9813 56.9984 43.5208 56.8954C43.7648 56.8568 43.8162 56.934 43.8034 57.1528C43.7905 57.3716 43.8034 57.6033 43.8034 57.8221C43.8034 57.8735 43.7905 57.925 43.8034 57.9765C43.9447 58.62 43.585 58.9933 43.0841 59.2893V59.2893Z" fill="#138336"/>
<path d="M14.7105 52.7125C14.3637 52.7125 14.0169 52.7382 13.6829 52.7125C13.4003 52.6867 13.2976 52.7897 13.2333 53.0471C12.8865 54.3728 12.5269 55.6984 12.1544 57.0241C12.0645 56.9597 12.0645 56.8568 12.0388 56.7667C11.7048 55.5054 11.3709 54.2441 11.0241 52.9828C10.9855 52.8412 10.9855 52.6996 10.7672 52.6996C10.2791 52.7125 9.80385 52.6996 9.27722 52.6996C9.35429 52.9442 9.41851 53.1372 9.48273 53.3431C10.0351 54.9648 10.5874 56.5865 11.1397 58.1953C11.1525 58.2082 11.1525 58.2339 11.1654 58.2597V58.3498H13.0535V58.2468C13.7214 56.4707 14.2352 54.6431 14.8518 52.8541C14.9288 52.7125 14.8261 52.7125 14.7105 52.7125Z" fill="#138336"/>
<path d="M7.479 54.0768H8.55795H9.16164L8.5451 52.6481H7.55607V51.168H5.87343V52.6224C5.87343 52.6353 5.86059 52.6353 5.84774 52.6481H5V54.0768H5.7193C5.77067 54.1411 5.79636 54.2569 5.79636 54.4243C5.79636 55.2866 5.70645 56.1618 5.86059 57.0241C6.00188 57.7963 6.50281 58.2983 7.23495 58.4012C7.64598 58.4656 8.04416 58.4527 8.45519 58.3626C8.96897 58.2597 8.96897 58.2597 8.85337 57.732C8.82768 57.5904 8.78915 57.4488 8.76346 57.3072C8.72492 57.1271 8.69924 57.0241 8.44234 57.0884C7.82581 57.2429 7.46616 56.9597 7.45331 56.3291C7.45331 55.5826 7.46616 54.8361 7.479 54.0768V54.0768Z" fill="#138336"/>
<path d="M85.6768 52.5323L87.5264 54.2698C87.5264 54.2698 88.4255 52.8283 89.8898 53.3946C91.3541 53.9609 89.8898 55.8657 89.8898 55.8657L85.908 60.0744L85.8309 61.5159L86.2419 61.9792H94L92.9725 59.0962L90.6348 59.2893L92.7284 56.0717C93.0881 55.5182 93.3064 54.9005 93.3578 54.2441C93.4477 52.8669 92.9982 50.8205 89.5687 50.6017C89.1448 50.576 88.7209 50.6275 88.3227 50.769C87.6291 51.0007 86.6144 51.4898 85.6768 52.5323V52.5323Z" fill="#138336"/>
</g>
<defs>
<linearGradient id="paint0_linear_840_2921" x1="60.7015" y1="44.025" x2="59.4762" y2="58.9434" gradientUnits="userSpaceOnUse">
<stop stop-color="#138336"/>
<stop offset="1" stop-color="#135728"/>
</linearGradient>
<clipPath id="clip0_840_2921">
<rect width="89" height="31" fill="white" transform="translate(5 31)"/>
</clipPath>
</defs>
</svg>
