<svg width="100" height="100" viewBox="0 0 100 100" fill="none" xmlns="http://www.w3.org/2000/svg">
<g clip-path="url(#clip0_839_1289)">
<path fill-rule="evenodd" clip-rule="evenodd" d="M74.571 63.6363C80.4266 63.6363 83.0495 62.1215 83.0495 58.9076C83.0495 56.6726 81.4241 55.4534 78.801 55.0655L72.5762 54.142C72.0589 54.068 71.8927 53.8278 71.8927 53.4584C71.8927 52.9042 72.4283 52.5163 73.98 52.5163C74.5525 52.5163 75.1437 52.5903 75.6056 52.7934C76.0858 52.9782 76.3998 53.3107 76.3998 53.8463H82.4585C82.2737 51.0572 79.8539 49.5238 73.98 49.5238C70.9375 49.5238 68.3712 49.9907 67.1379 51.4836L67.5347 50.1278H62.6006L60.9379 58.008H60.9016L59.022 50.1278H54.9554L53.0577 58.008H53.0214L51.3587 50.1278H47.3027H46.4245H33.5848V63.0324H47.3027V59.8876H38.6814V58.1526H46.6881V55.0078H38.6814V53.2728H47.3027V53.1424L50.1839 63.0324H55.1904L56.9616 55.8753H56.9977L58.7508 63.0324H63.7572L66.36 54.1413C66.4618 55.858 67.5327 57.2093 69.9531 57.5778L75.901 58.4642C76.6029 58.5751 76.8431 58.963 76.8431 59.3509C76.8431 59.979 76.3998 60.4224 74.7741 60.4224C73.9614 60.4224 73.3889 60.3301 73.0008 60.1453C72.6314 59.942 72.4652 59.6463 72.4468 59.2032H66.1664C66.185 63.0824 70.5627 63.6363 74.571 63.6363ZM32.5897 50.1278H27.7098V57.2851H27.6556L22.4864 50.1278H16.6666V63.0324H21.5466V55.803H21.5827L27.0048 63.0324H32.5897V50.1278ZM76.417 35.4167C80.9079 35.4167 83.2833 37.1613 83.2833 42.042C83.2833 46.6999 80.9264 48.6672 76.5283 48.6672H66.2289V35.4167H76.417ZM71.462 38.7572V45.3267H74.4683C76.8625 45.3267 77.8275 44.139 77.8275 42.042C77.8275 39.9449 76.8625 38.7572 74.4683 38.7572H71.462ZM32.2385 47.2947L31.6541 48.6672H37.2214L37.7781 47.1453H43.2341L43.7908 48.6672H48.6941H49.3581H53.7047V41.244H53.7418L59.3091 48.6672H65.0435V35.4167H60.0329V42.7655H59.9773L54.6698 35.4167H48.6941V47.1076L43.7166 35.4167H37.2958L33.1314 45.1972C33.1656 44.9303 33.1829 44.652 33.1829 44.3617C33.1829 43.378 32.6262 41.7822 30.9189 41.3367V41.2995C31.921 40.9099 32.4962 39.8892 32.4962 38.7201C32.4962 36.6045 31.29 35.4167 28.5806 35.4167H16.6666V48.6672H28.0054C30.105 48.6672 31.4475 48.1659 32.2385 47.2947ZM40.5248 39.4253H40.4877L38.9287 43.9163H42.0835L40.5248 39.4253ZM26.261 45.438H21.7885V43.3597H26.261C27.3002 43.3597 27.6156 43.8234 27.6156 44.3988C27.6156 44.9928 27.3002 45.438 26.261 45.438ZM25.7412 38.6459H21.7885V40.3532H25.7412C26.7991 40.3532 27.0404 40.0005 27.0404 39.4811C27.0404 38.9986 26.7991 38.6459 25.7412 38.6459Z" fill="#273078"/>
</g>
<defs>
<clipPath id="clip0_839_1289">
<rect width="100" height="100" fill="white"/>
</clipPath>
</defs>
</svg>
