<svg width="100" height="100" viewBox="0 0 100 100" fill="none" xmlns="http://www.w3.org/2000/svg">
<path d="M83.9711 47.3446C80.1427 47.3446 76.9423 50.4418 76.9423 54.2558C76.9423 58.1874 80.0739 61.4584 83.9711 61.4584C87.8684 61.4584 90.9999 58.1874 90.9999 54.2558C90.9999 50.439 87.8024 47.3446 83.9711 47.3446ZM83.9711 52.7592C84.8746 52.7592 85.5798 53.404 85.5798 54.3735C85.5872 54.5867 85.5507 54.7992 85.4725 54.9978C85.3942 55.1963 85.276 55.3766 85.1251 55.5275C84.9742 55.6784 84.7939 55.7966 84.5954 55.8748C84.3969 55.953 84.1843 55.9896 83.9711 55.9821C83.7578 55.9896 83.5453 55.953 83.3468 55.8748C83.1483 55.7966 82.9679 55.6784 82.8171 55.5275C82.6662 55.3766 82.5479 55.1963 82.4697 54.9978C82.3915 54.7992 82.355 54.5867 82.3624 54.3735C82.3624 53.4038 83.0705 52.7592 83.9711 52.7592Z" fill="#F2405E"/>
<path d="M13.7778 46.7897C11.2638 46.7897 10 48.3487 10 50.59C10 50.9738 10.0364 51.3919 10.1119 51.8287L11.9504 62.2319C12.7107 66.5423 16.5323 69.5802 20.7337 69.5802C25.8334 69.5802 29.601 65.3969 29.601 60.6905C29.601 60.1794 29.5573 59.6628 29.4666 59.1434C28.6715 54.6522 25.287 51.8736 21.6193 51.8736C21.1977 51.8736 20.7744 51.9026 20.3469 51.9798C19.4676 52.1414 18.6149 52.4243 17.8134 52.8206L17.41 50.5336C16.9934 48.1688 15.6661 46.7895 13.7778 46.7895L13.7778 46.7897ZM20.7394 59.0762C21.5942 59.0762 22.3201 59.6992 22.3201 60.7297C22.3201 61.6311 21.6252 62.3047 20.6722 62.3047C19.8175 62.3047 19.0915 61.6759 19.0915 60.6456C19.0915 59.7421 19.7857 59.0762 20.7394 59.0762V59.0762Z" fill="#00CC6A"/>
<path d="M75.0758 30.1368C70.2142 30.1368 66.1748 34.0758 66.1748 38.9201L66.1806 38.9258C66.1806 43.8792 70.1369 47.9333 75.076 47.9333C80.0092 47.9333 83.9713 43.8764 83.9713 38.9202C83.9713 34.076 79.9374 30.137 75.076 30.137L75.0758 30.1368ZM75.0758 37.4235C75.9793 37.4235 76.6845 38.0712 76.6845 39.0378C76.6915 39.2509 76.6547 39.4632 76.5763 39.6616C76.4979 39.8599 76.3797 40.0401 76.2289 40.1909C76.0781 40.3417 75.8979 40.4599 75.6996 40.5383C75.5012 40.6166 75.2889 40.6534 75.0758 40.6464C74.8622 40.6542 74.6492 40.618 74.4502 40.54C74.2512 40.462 74.0704 40.3438 73.919 40.193C73.7676 40.0421 73.6488 39.8617 73.5701 39.6629C73.4914 39.4642 73.4544 39.2514 73.4615 39.0378C73.4615 38.0703 74.1746 37.4235 75.0758 37.4235Z" fill="#0074FF"/>
<path d="M57.9296 36.5884C54.1012 36.5884 50.9064 39.6855 50.9064 43.4995C50.9064 47.4312 54.0323 50.7021 57.9296 50.7021C61.8268 50.7021 64.9529 47.4312 64.9529 43.4995C64.9529 39.6826 61.7609 36.5884 57.9296 36.5884V36.5884ZM57.9296 41.9973C58.8331 41.9973 59.5383 42.6443 59.5383 43.6116C59.5465 43.8254 59.5106 44.0385 59.4327 44.2377C59.3548 44.4369 59.2368 44.6179 59.0858 44.7694C58.9348 44.9209 58.7542 45.0396 58.5553 45.1181C58.3564 45.1967 58.1434 45.2334 57.9296 45.2259C57.716 45.233 57.5032 45.196 57.3045 45.1173C57.1057 45.0386 56.9253 44.9198 56.7744 44.7684C56.6235 44.617 56.5054 44.4362 56.4274 44.2372C56.3494 44.0382 56.3132 43.8252 56.321 43.6116C56.321 42.6441 57.0261 41.9973 57.9296 41.9973Z" fill="#0074FF"/>
<path d="M62.7641 52.8798L60.1439 67.7369C60.0738 68.134 60.0376 68.5362 60.0356 68.9394C60.0356 71.2439 61.3758 72.7649 63.8123 72.7649C65.7638 72.7649 67.0321 71.3759 67.4454 69.0226L68.183 64.8327C68.3399 63.9378 68.9434 63.4235 69.6925 63.4235C70.6394 63.4235 71.1475 64.0182 71.1475 64.89C71.1475 65.0333 71.1398 65.1881 71.1038 65.3465L70.3663 69.5365C70.2907 69.9668 70.2514 70.3803 70.2514 70.7705C70.2514 72.7736 71.2645 74.1454 73.2878 74.5013C73.5437 74.545 73.793 74.5667 74.034 74.5667C75.9224 74.5667 77.2483 73.1864 77.6644 70.8187L78.4475 66.3762C78.5573 65.7619 78.606 65.1622 78.606 64.5797C78.606 59.8473 75.1592 56.3921 70.777 56.3921C70.3757 56.3921 70.0026 56.4212 69.6607 56.4431L70.062 54.1587C70.1375 53.7371 70.1739 53.3354 70.1739 52.9563C70.1739 50.6488 68.8337 49.1307 66.3943 49.1307C64.4429 49.1307 63.1801 50.5197 62.7641 52.873" fill="#F2405E"/>
<path d="M40.0704 61.1048C40.0704 61.7357 40.1214 62.3904 40.2428 63.0648L40.961 67.1285C41.3797 69.4904 42.703 70.8736 44.5943 70.8736C47.1081 70.8736 48.3738 69.3125 48.3738 67.074C48.3738 66.6865 48.3447 66.2703 48.2618 65.84L47.521 61.65C47.3232 60.5279 47.9884 59.7072 49.0477 59.7072C49.7799 59.7072 50.2847 60.2379 50.4425 61.1363L51.1833 65.3262C51.5962 67.6795 52.8622 69.0656 54.8137 69.0656C57.2531 69.0656 58.5933 67.5331 58.5933 65.2402C58.5933 64.8614 58.5642 64.4592 58.4813 64.0406L57.7645 59.9797C56.8892 55.0063 53.2704 52.2914 49.1264 52.2914C44.0352 52.2914 40.0721 55.8615 40.0721 61.1018" fill="#F2405E"/>
<path d="M30.9874 55.0207C30.9874 57.1473 32.5973 58.76 34.7267 58.76C36.8505 58.76 38.4661 57.1473 38.4661 55.0207C38.4661 52.897 36.8534 51.2841 34.7267 51.2841C32.5973 51.2841 30.9874 52.8941 30.9874 55.0207Z" fill="#00CC6A"/>
<path d="M30.9874 64.626V69.9122C30.9874 72.6186 32.3391 74.2945 34.6608 74.2945C37.1116 74.2945 38.4002 72.6186 38.4002 69.9122V64.626C38.4002 61.9197 37.0456 60.2437 34.7267 60.2437C32.276 60.2437 30.9874 61.9197 30.9874 64.626Z" fill="#00CC6A"/>
<path d="M43.6209 31.2234L40.9893 46.1408C40.9185 46.5368 40.8818 46.9381 40.8795 47.3404C40.8795 49.6334 42.2139 51.1687 44.6561 51.1687C46.6076 51.1687 47.8733 49.7826 48.2865 47.4264L50.9181 32.5119C50.9905 32.1161 51.028 31.7147 51.03 31.3124C51.03 29.0164 49.6898 27.4839 47.2504 27.4839C45.2989 27.4839 44.0333 28.8701 43.62 31.2234" fill="#0074FF"/>
<path d="M27.0763 26.0002C25.7361 26.0002 24.3557 26.368 22.6223 27.1768C17.8727 29.3896 15.3703 33.7029 15.3703 38.2401C15.3703 40.0681 15.7781 41.9307 16.6043 43.7071C18.8026 48.4194 23.0872 50.922 27.6072 50.922C29.4899 50.916 31.3484 50.4967 33.0513 49.6935C37.6804 47.5355 40.2087 43.1791 40.2087 38.8227C40.2087 37.2414 39.8758 35.6544 39.187 34.1736C38.5327 32.776 37.4364 32.0096 36.1306 32.0096C35.5796 32.0096 34.9942 32.147 34.3886 32.4284L29.4812 34.7156C28.1037 35.3553 27.5298 36.2453 27.5298 37.2124C27.5298 37.6427 27.6396 38.0877 27.8511 38.5325C28.2814 39.4653 29.0793 40.0822 30.167 40.0822C30.6548 40.0822 31.1996 39.9585 31.7971 39.6809L33.1402 39.055C33.2971 40.7625 32.5666 42.097 30.4022 43.1044C29.6855 43.4402 28.91 43.6118 28.1408 43.6118C26.2984 43.6118 24.4962 42.6302 23.552 40.6099C23.1802 39.8316 22.9832 38.9814 22.9748 38.1189C22.9748 36.2104 24.0139 34.5604 25.7012 33.7769C27.1016 33.1197 28.1089 33.2956 29.2167 32.7758C30.3474 32.2509 31.1395 31.0797 31.1395 29.6878C31.1395 29.1331 31.01 28.5456 30.7316 27.9457C30.0774 26.5424 28.7687 26.0172 27.1243 26L27.0763 26.0002Z" fill="#0074FF"/>
</svg>
