<svg width="100" height="100" viewBox="0 0 100 100" fill="none" xmlns="http://www.w3.org/2000/svg">
<path d="M19.1207 44.7473C16.0633 44.7446 13.2552 45.9981 11.2574 48.0028C9.25218 50.0032 8 52.813 8 55.8655V66.0264H16.4424V56.0411C16.4477 54.8261 16.7388 53.782 17.2283 52.9785C17.7275 52.1852 18.37 51.7131 19.1207 51.7131C19.8756 51.7131 20.5158 52.1852 21.015 52.9785C21.507 53.7818 21.7956 54.8258 21.7981 56.0411V66.0262H30.2405V55.8655C30.2433 52.813 28.9883 50.0032 26.9857 48.003C24.9855 45.9981 22.1822 44.7446 19.1207 44.7473Z" fill="#E08C44"/>
<path d="M39.3305 42.0116C40.1788 41.1634 40.7033 39.9878 40.7033 38.6912C40.7033 37.3956 40.1788 36.2234 39.3305 35.3752C38.4799 34.5216 37.3051 34 36.0103 34C34.7156 34 33.5435 34.5216 32.6922 35.3752C31.8444 36.2234 31.3171 37.3956 31.3171 38.6912C31.3171 39.9878 31.8444 41.1634 32.6922 42.0116L33.7287 43.051C35.458 44.7803 35.5809 45.236 33.937 46.8838L32.9962 47.8244C32.2232 48.6003 31.7465 49.6646 31.7465 50.844V66.0262H40.2791V50.844C40.2791 49.6646 39.7998 48.6003 39.029 47.8244L38.0857 46.8838C36.4416 45.2394 36.5622 44.7803 38.2914 43.048" fill="#E08C44"/>
<path d="M54.4515 59.4137C53.9537 60.3333 53.3121 60.8753 52.559 60.8804C51.8083 60.8753 51.161 60.3333 50.6666 59.4137C50.1744 58.4862 49.8835 57.2865 49.8812 55.88C49.8835 54.4702 50.1744 53.2706 50.6666 52.341C51.161 51.4224 51.8083 50.8817 52.559 50.8771C53.3121 50.8817 53.9539 51.4224 54.4515 52.341C54.8174 53.0345 55.0708 53.8727 55.1769 54.8362H63.6296C63.3806 52.1854 62.1984 49.7845 60.4217 48.0129C58.4213 46.0073 55.6155 44.7547 52.5593 44.7575C49.5021 44.7547 46.6944 46.0073 44.6964 48.0129C42.6891 50.0131 41.4367 52.8229 41.4388 55.88C41.4367 58.9378 42.6894 61.7435 44.6964 63.7406C46.2323 65.2825 48.9125 66.9998 52.5593 66.9998C55.297 66.9998 57.8322 65.9951 59.7667 64.349C61.1779 63.1486 63.2703 60.745 63.6298 56.9194H55.1771C55.0708 57.8875 54.8174 58.7267 54.4515 59.4137Z" fill="#E08C44"/>
<path d="M86.12 64.5494C86.12 64.2686 86.0383 64.0023 85.8977 63.7818L81.2768 56.7887L84.4769 50.9766C85.6588 48.9691 84.9919 46.3806 82.9837 45.1976C80.9765 44.0145 78.3856 44.6797 77.2036 46.69L73.3821 53.5213V48.9663C73.3821 46.6331 71.489 44.7446 69.1577 44.7446C66.8287 44.7446 64.937 46.6333 64.937 48.9663V66.0262H73.3821V59.3442L77.8358 66.0262L84.6472 66.0211C85.4607 66.0211 86.12 65.3628 86.12 64.5494Z" fill="#E08C44"/>
<path d="M87.2493 64.4569H86.6855V64.1699H88.1457V64.4569H87.5844V66.0262H87.2496M88.5478 64.1383H88.603L89.5026 65.1455L90.3976 64.1383H90.451V66.0262H90.1157V64.856L89.5334 65.5499H89.472L88.8851 64.856V66.0262H88.5475V64.1383H88.5478Z" fill="#E08C44"/>
</svg>
