<svg width="100" height="100" viewBox="0 0 100 100" fill="none" xmlns="http://www.w3.org/2000/svg">
<g clip-path="url(#clip0_836_63)">
<path d="M70.8362 48.3043H73.8565V52.6145H78.0828V48.3043H81.1029V59.7635H78.0828V55.1126H73.8565V59.7635H70.8362" fill="#201C1D"/>
<path d="M83.6711 48.306H88.5037C91.6147 48.306 93.9998 50.5939 93.9998 53.9036C93.9998 57.2535 91.7489 59.7676 88.5324 59.7676H83.6711M86.7361 57.193H88.0638C89.8472 57.193 90.9505 55.7859 90.9505 53.8577C90.9505 52.1052 89.7705 50.8054 88.1542 50.8054H86.7359V57.193H86.7361Z" fill="#201C1D"/>
<path d="M93.9423 45.8328H70.8261V47.0912H93.9423V45.8328Z" fill="#201C1D"/>
<path d="M93.9636 61.0035H70.828V62.2622H93.9636V61.0035Z" fill="#201C1D"/>
<path d="M14.5041 46.1419C12.1661 46.1398 10.0187 47.0895 8.49093 48.6082C6.95755 50.1236 6 52.2523 6 54.5648V62.2624H12.4559V54.6978C12.46 53.7773 12.6826 52.9864 13.0569 52.3777C13.4386 51.7766 13.93 51.419 14.5041 51.419C15.0813 51.419 15.5709 51.7766 15.9526 52.3777C16.3289 52.9862 16.5496 53.7772 16.5515 54.6978V62.2623H23.0075V54.5648C23.0096 52.2523 22.0499 50.1236 20.5185 48.6084C18.9889 47.0895 16.8452 46.1398 14.5041 46.1419Z" fill="#E08C44"/>
<path d="M29.9586 44.0694C30.6073 43.4269 31.0084 42.5362 31.0084 41.554C31.0084 40.5724 30.6073 39.6844 29.9586 39.0418C29.3082 38.3951 28.4097 38 27.4196 38C26.4295 38 25.5332 38.3951 24.8822 39.0418C24.2339 39.6844 23.8307 40.5724 23.8307 41.554C23.8307 42.5362 24.2339 43.4269 24.8822 44.0694L25.6749 44.8568C26.9973 46.1669 27.0912 46.5121 25.8342 47.7604L25.1147 48.4731C24.5236 49.0609 24.1591 49.8671 24.1591 50.7606V62.2622H30.684V50.7606C30.684 49.8671 30.3174 49.0609 29.7281 48.4731L29.0067 47.7604C27.7494 46.5147 27.8417 46.1669 29.164 44.8546" fill="#E08C44"/>
<path d="M41.5217 57.2528C41.141 57.9494 40.6504 58.3601 40.0746 58.3639C39.5005 58.3601 39.0054 57.9494 38.6274 57.2528C38.251 56.5501 38.0285 55.6413 38.0268 54.5758C38.0285 53.5078 38.251 52.5989 38.6274 51.8947C39.0054 51.1988 39.5005 50.7892 40.0746 50.7857C40.6504 50.7892 41.1412 51.1988 41.5217 51.8947C41.8015 52.42 41.9953 53.0551 42.0764 53.785H48.5403C48.3499 51.7768 47.4458 49.958 46.0872 48.6159C44.5575 47.0964 42.4118 46.1475 40.0747 46.1496C37.7369 46.1475 35.5899 47.0964 34.0619 48.6159C32.527 50.1311 31.5692 52.2598 31.5708 54.5758C31.5692 56.8922 32.5272 59.0178 34.0619 60.5308C35.2365 61.6989 37.286 62.9998 40.0747 62.9998C42.1683 62.9998 44.107 62.2387 45.5863 60.9916C46.6655 60.0823 48.2656 58.2614 48.5404 55.3632H42.0766C41.9953 56.0966 41.8015 56.7323 41.5217 57.2528Z" fill="#E08C44"/>
<path d="M65.7388 61.1435C65.7388 60.9308 65.6764 60.729 65.5688 60.562L62.0352 55.2642L64.4823 50.861C65.3862 49.3402 64.8761 47.3792 63.3405 46.483C61.8055 45.5867 59.8242 46.0907 58.9204 47.6136L55.9981 52.7888V49.3381C55.9981 47.5705 54.5504 46.1398 52.7677 46.1398C50.9867 46.1398 49.5401 47.5707 49.5401 49.3381V62.2622H55.9981V57.2002L59.4038 62.2622L64.6125 62.2584C65.2346 62.2584 65.7388 61.7597 65.7388 61.1435Z" fill="#E08C44"/>
<path d="M66.6024 61.0734H66.1712V60.856H67.2879V61.0734H66.8587V62.2623H66.6026M67.5953 60.8321H67.6376L68.3255 61.5951L69.0099 60.8321H69.0508V62.2623H68.7943V61.3758L68.3491 61.9015H68.3021L67.8533 61.3758V62.2623H67.5952V60.8321H67.5953Z" fill="#E08C44"/>
</g>
<defs>
<clipPath id="clip0_836_63">
<rect width="88" height="25" fill="white" transform="translate(6 38)"/>
</clipPath>
</defs>
</svg>
