<svg width="100" height="100" viewBox="0 0 100 100" fill="none" xmlns="http://www.w3.org/2000/svg">
<g clip-path="url(#clip0_836_61)">
<path d="M91.512 47.7464H90.8965V47.434H92.4923V47.7464H91.8768V49.4198H91.512V47.7464ZM92.9254 47.4117H92.9938L93.9741 48.4827L94.9316 47.4117H95V49.4198H94.6352V48.1703L93.9969 48.9066H93.9285L93.2902 48.1703V49.4198H92.9254V47.4117ZM89.5743 58.5231C89.5743 56.9166 88.252 55.6225 86.6106 55.6225C84.9692 55.6225 83.647 56.9166 83.647 58.5231C83.647 60.1296 84.9692 61.4237 86.6106 61.4237C88.252 61.4237 89.5743 60.1296 89.5743 58.5231ZM81.4813 61.2675V53.369C81.4813 52.7889 81.8498 51.8392 82.53 51.584C83.2177 51.326 83.8563 51.6179 84.6045 51.8964C87.0936 52.8228 89.0251 51.606 89.3235 49.9999C89.6179 48.4154 88.5486 46.8751 86.9298 46.5861C84.9239 46.228 83.5277 46.8248 81.8916 48.0587C81.7081 48.1971 81.538 48.3522 81.3673 48.505C80.9798 47.3224 79.8399 46.4523 78.5177 46.4523C76.8535 46.4523 75.5312 47.7687 75.5312 49.3751V61.2452L81.4813 61.2675ZM73.981 42.6369C73.981 41.0304 72.6588 39.7363 71.0174 39.7363C69.376 39.7363 68.0538 41.0304 68.0538 42.6369C68.0538 44.2434 69.376 45.5375 71.0174 45.5375C72.6588 45.5375 73.981 44.2434 73.981 42.6369V42.6369ZM63.7451 60.8213C62.0588 59.7492 60.9451 57.99 62.0581 56.1357C63.088 54.42 66.7326 54.1051 67.2559 57.0951C67.4394 58.1436 68.0082 58.0099 68.0082 57.0505V49.9106C68.0082 47.791 69.3532 46.4746 71.0174 46.4746C72.6816 46.4746 74.0038 47.791 74.0038 49.3975V55.9349C74.0038 59.5049 72.2256 61.8253 67.86 61.8253C66.2756 61.8253 64.7261 61.4449 63.7451 60.8213V60.8213Z" fill="#09BCCA"/>
<path d="M25.9065 39C24.9967 39 24.1597 39.3667 23.541 39.9527C22.9223 40.5387 22.5586 41.3807 22.5586 42.2596C22.5586 43.1752 22.9407 43.9631 23.541 44.5672L24.2688 45.2996C25.4876 46.5262 25.56 46.819 24.4145 47.9728L23.7598 48.6323C23.2142 49.1819 22.8863 49.9139 22.8863 50.7196V61.2675H28.9273V50.7196C28.9273 49.9139 28.581 49.1634 28.0538 48.6323L27.3991 47.9728C26.235 46.8004 26.3254 46.5262 27.5442 45.2996L28.272 44.5672C28.8723 43.9631 29.255 43.1752 29.255 42.2596C29.255 41.344 28.8907 40.5387 28.272 39.9527C27.6533 39.3667 26.8527 39 25.9065 39V39ZM57.9009 46.3121C56.8352 46.2725 55.7576 46.785 55.2025 47.7533L52.4731 52.5143V49.3283C52.4731 47.7169 51.1268 46.3984 49.4891 46.3984C47.8151 46.3984 46.5052 47.7169 46.5052 49.3283V61.2675H52.5099V56.6166L55.6759 61.2675H60.5163C61.0649 61.2675 61.4987 60.8278 61.4987 60.2418C61.4987 60.0587 61.4634 59.8566 61.353 59.6925L58.0777 54.8219L60.3706 50.7568C61.1681 49.343 60.7306 47.5404 59.3151 46.7281C58.8677 46.4714 58.3853 46.33 57.9009 46.3121V46.3121ZM13.897 46.4714C11.7134 46.4714 9.72141 47.3596 8.32924 48.7424C6.91912 50.1431 6 52.0747 6 54.1989V61.2675H12.0048V54.3455C12.0048 53.5032 12.2098 52.7633 12.5507 52.2217C12.9015 51.6642 13.3511 51.3426 13.897 51.3426C14.4428 51.3426 14.8799 51.6723 15.2438 52.2217C15.6078 52.7711 15.7897 53.5032 15.7897 54.3455V61.2675H21.7945V54.1989C21.7945 52.0747 20.9028 50.115 19.4653 48.7053C18.064 47.3313 16.0805 46.4714 13.897 46.4714V46.4714ZM37.6615 46.4714C35.478 46.4714 33.4763 47.3507 32.057 48.7424C30.6376 50.1341 29.7464 52.1116 29.7646 54.236C29.7828 56.3601 30.6352 58.3403 32.057 59.7296C33.1463 60.794 35.0413 62 37.6615 62C39.5903 62 41.4037 61.2972 42.7928 60.1323C43.8056 59.2829 45.2674 57.6054 45.5585 54.9685H39.5174C39.4447 55.6277 39.2662 56.2153 39.0078 56.6896C38.6476 57.3507 38.2074 57.7153 37.6615 57.7153C37.1157 57.7153 36.6792 57.3488 36.3152 56.6896C35.9513 56.0303 35.7694 55.1882 35.7694 54.236C35.7694 53.2838 35.9812 52.4011 36.3152 51.7819C36.6727 51.1192 37.1157 50.7568 37.6615 50.7568C38.2074 50.7568 38.6476 51.1207 39.0078 51.7819C39.2662 52.2561 39.4447 52.8443 39.5174 53.5035H45.5222C45.3403 51.6723 44.5026 49.9886 43.2298 48.7424C41.8095 47.3517 39.8087 46.4714 37.6615 46.4714V46.4714Z" fill="#FF7F00"/>
</g>
<g clip-path="url(#clip1_836_61)">
<path d="M87.3404 67C87.5696 67 87.7901 67.045 87.9887 67.1282C88.1872 67.2113 88.3701 67.3387 88.5203 67.4871C88.6704 67.6356 88.7864 67.8036 88.8703 67.9999C88.9543 68.1963 89 68.4144 89 68.6409H50C50 68.4144 50.0457 68.1963 50.1297 67.9999C50.2136 67.8036 50.3296 67.6356 50.4797 67.4871C50.6299 67.3387 50.8128 67.2113 51.0113 67.1282C51.2099 67.0451 51.4304 67 51.6596 67H87.3404Z" fill="black"/>
<path d="M87.3404 90C87.5696 90 87.7901 89.955 87.9887 89.8718C88.1872 89.7887 88.3701 89.6613 88.5203 89.5128C88.6704 89.3643 88.7864 89.1963 88.8703 89C88.9543 88.8037 89 88.5856 89 88.359V88.1129C89 88.1129 87.3761 88.236 86.5625 88.236H52.4375C51.6239 88.236 50 88.1129 50 88.1129L50 88.359C50 88.5856 50.0457 88.8037 50.1297 89C50.2136 89.1963 50.3296 89.3643 50.4797 89.5128C50.6299 89.6613 50.8128 89.7887 51.0113 89.8718C51.2099 89.9548 51.4304 90 51.6596 90H87.3404Z" fill="black"/>
<path d="M55.0634 70.3593V86.4007H58.5571V79.8838H65.3382V86.4007H68.8267V70.3593H65.3382V76.5933H58.5571V70.3593H55.0634Z" fill="black"/>
<path d="M71.6607 70.3593V86.4007H78.1085C82.0993 86.4007 85.5965 82.796 85.5965 78.1743C85.5965 73.5526 81.9405 70.3593 78.1085 70.3593H71.6607ZM74.9886 73.6498H78.1085C80.0874 73.6498 82.1439 75.7069 82.1439 78.2155C82.1439 80.7241 79.9286 83.1101 78.1085 83.1101H74.9886V73.6498Z" fill="black"/>
</g>
<defs>
<clipPath id="clip0_836_61">
<rect width="89" height="23" fill="white" transform="translate(6 39)"/>
</clipPath>
<clipPath id="clip1_836_61">
<rect width="39" height="23" fill="white" transform="translate(50 67)"/>
</clipPath>
</defs>
</svg>
