<svg width="100" height="100" viewBox="0 0 100 100" fill="none" xmlns="http://www.w3.org/2000/svg">
<g clip-path="url(#clip0_840_1802)">
<path d="M9.01251 66.2795C9.76604 66.2795 10.5078 66.2918 11.2614 66.2795C11.4347 66.2795 11.5211 66.3292 11.595 66.4784C12.8309 68.9039 14.19 71.2798 15.2406 73.7928C15.2652 73.8424 15.2652 73.9173 15.3642 73.9294C15.327 73.5687 15.3024 73.208 15.2652 72.8599C15.1295 71.7028 15.0551 70.5462 15.0676 69.3769C15.0801 68.4191 15.0676 67.461 15.0676 66.5032C15.0676 66.3418 15.1048 66.2795 15.2778 66.2795C15.8955 66.2918 16.5258 66.2918 17.1435 66.2795C17.3168 66.2795 17.3536 66.3292 17.3536 66.5032C17.3536 69.9243 17.3536 73.3324 17.3536 76.7531C17.3536 76.9275 17.329 77.002 17.1315 76.9898C16.4519 76.9771 15.7718 76.9771 15.0801 76.9898C14.9315 76.9898 14.8576 76.9398 14.7832 76.8031C13.9181 75.1239 13.0285 73.4443 12.1635 71.7528C11.8052 71.0313 11.4961 70.285 11.1628 69.5509C11.1376 69.4888 11.1009 69.4139 11.0145 69.3643C11.0512 69.7625 11.0884 70.1606 11.1376 70.5583C11.2367 71.3921 11.3231 72.2379 11.3231 73.0713C11.3356 74.2901 11.3231 75.5095 11.3356 76.7161C11.3356 76.9027 11.3111 76.9771 11.1009 76.9771C10.3963 76.9524 9.70417 76.9645 9 76.9524C9.01251 73.4073 9.01251 69.8369 9.01251 66.2795Z" fill="#0E52A0"/>
<path d="M62.2493 72.8971C62.2493 71.6283 62.2493 70.3594 62.2493 69.0906C62.2493 68.9039 62.2865 68.8295 62.484 68.8421C62.9906 68.8542 63.4973 68.8542 64.0165 68.8421C64.1648 68.8421 64.2266 68.8791 64.2387 69.0409C64.2513 69.2525 64.3005 69.4639 64.3377 69.6876C64.3498 69.7498 64.3377 69.8494 64.3995 69.8743C64.4735 69.9117 64.5107 69.8246 64.5599 69.7746C64.9679 69.3769 65.4128 69.0035 65.9566 68.8169C66.9327 68.4814 68.3788 68.6054 69.0211 69.8743C69.1076 70.0483 69.1573 69.9491 69.2312 69.8743C69.6886 69.4265 70.1706 68.9788 70.8008 68.7921C72.1354 68.3939 73.6799 68.7672 74.063 70.745C74.1373 71.1305 74.1745 71.5165 74.1745 71.9142C74.1745 73.519 74.1745 75.1112 74.1745 76.7161C74.1745 76.9275 74.1373 77.0019 73.9147 76.9898C73.2844 76.9771 72.6545 76.9771 72.0243 76.9898C71.8016 76.9898 71.777 76.9149 71.777 76.7282C71.7891 75.2731 71.777 73.8049 71.777 72.3497C71.777 72.0139 71.7644 71.6905 71.678 71.3672C71.5423 70.8572 71.1095 70.6084 70.5783 70.7328C70.1334 70.8447 69.7997 71.1305 69.4785 71.429C69.392 71.5165 69.4167 71.6283 69.4167 71.7279C69.4167 73.3824 69.4167 75.049 69.4167 76.7034C69.4167 76.9275 69.3674 77.0019 69.1322 76.9898C68.5145 76.9771 67.8842 76.9771 67.2665 76.9898C67.0685 76.9898 67.0071 76.9397 67.0071 76.7282C67.0192 75.3353 67.0071 73.9294 67.0071 72.5364C67.0071 72.1632 67.0071 71.7897 66.9202 71.429C66.797 70.8821 66.3768 70.6205 65.833 70.7328C65.3636 70.832 65.0173 71.1305 64.6835 71.4542C64.5971 71.5286 64.6343 71.6405 64.6343 71.7279C64.6343 73.3824 64.6343 75.049 64.6343 76.7034C64.6343 76.9275 64.5849 77.0019 64.3497 76.9898C63.732 76.9645 63.1018 76.9771 62.484 76.9898C62.2865 76.9898 62.2246 76.9397 62.2246 76.7282C62.2493 75.4471 62.2493 74.1782 62.2493 72.8971H62.2493Z" fill="#0E52A0"/>
<path d="M77.8693 69.6629C78.2522 69.3522 78.6352 69.0659 79.068 68.8792C80.5879 68.2448 82.2189 68.8543 82.8618 70.397C83.6278 72.2007 83.5907 74.0043 82.5405 75.6961C81.9225 76.6788 80.9956 77.2136 79.7968 77.1639C79.2284 77.1392 78.7343 76.9028 78.2894 76.5543C78.2276 76.5046 78.1533 76.4425 78.0547 76.3676C78.0547 76.5421 78.0422 76.6913 78.0547 76.8406C78.1533 77.8231 78.0794 78.8184 78.104 79.8135C78.104 79.975 78.0422 80.0002 77.9064 80.0002C77.2389 80.0002 76.5595 79.9876 75.8919 80.0002C75.7316 80.0002 75.7065 79.938 75.7065 79.8009C75.7065 76.2062 75.7065 72.6236 75.7065 69.0284C75.7065 68.867 75.7562 68.817 75.9166 68.8296C76.4357 68.8422 76.955 68.8422 77.4737 68.8296C77.622 68.8296 77.6838 68.867 77.7084 69.0163C77.7582 69.2277 77.7703 69.4514 77.8693 69.6629V69.6629ZM80.9091 72.8225C80.897 72.3621 80.8719 71.9022 80.6991 71.4666C80.5387 71.0562 80.2668 70.7577 79.8219 70.6581C79.142 70.5214 78.6232 70.8321 78.1658 71.3051C78.104 71.3673 78.104 71.4418 78.104 71.5166C78.104 72.5118 78.104 73.5065 78.104 74.5143C78.104 74.6013 78.1165 74.6884 78.1905 74.7506C78.8207 75.3102 80.1185 75.5591 80.6372 74.3155C80.8473 73.8302 80.897 73.3325 80.9091 72.8225V72.8225Z" fill="#0E52A0"/>
<path d="M26.5847 72.7352C26.5847 74.1782 26.2143 75.2978 25.275 76.1686C23.3102 77.9971 19.7882 77.3378 18.9232 74.3523C18.4905 72.8598 18.6388 71.4167 19.5907 70.1479C20.505 68.9413 21.7656 68.4813 23.2236 68.6923C24.7929 68.9164 25.8313 69.862 26.35 71.3672C26.5234 71.8771 26.5973 72.3871 26.5847 72.7352V72.7352ZM24.138 73.1086C24.138 72.3994 24.0761 71.8894 23.8661 71.429C23.6313 70.919 23.2363 70.6083 22.6553 70.6083C22.0868 70.6083 21.6666 70.8942 21.4565 71.4041C21.0488 72.412 21.0488 73.4319 21.4565 74.4393C21.6666 74.9619 22.0993 75.2356 22.6553 75.2229C23.2363 75.2229 23.6193 74.9123 23.854 74.3897C24.0887 73.9172 24.138 73.4193 24.138 73.1086V73.1086Z" fill="#0E52A0"/>
<path d="M35.05 72.8972C35.0625 71.6158 35.433 70.4839 36.4095 69.6253C38.5965 67.7225 41.958 68.7298 42.7239 71.5414C43.1441 73.0713 42.9838 74.5517 41.9333 75.8201C40.9568 77.002 39.6469 77.4128 38.1641 77.1017C36.6317 76.7905 35.6555 75.7953 35.2108 74.2901C35.0871 73.8301 35.0378 73.3571 35.05 72.8972ZM40.4627 72.922C40.4752 72.3746 40.4133 71.8272 40.1536 71.3298C39.9067 70.8573 39.5233 70.5957 38.992 70.5957C38.4482 70.5957 38.0652 70.8573 37.8178 71.3421C37.6203 71.7154 37.5585 72.1258 37.5214 72.5488C37.4846 73.2453 37.5092 73.942 37.8676 74.5638C38.3743 75.4593 39.6102 75.4472 40.1168 74.5517C40.4008 74.0538 40.4627 73.4943 40.4627 72.922V72.922Z" fill="#0E52A0"/>
<path d="M84.1098 72.9094C84.1224 71.6157 84.5054 70.4712 85.5061 69.6005C87.7182 67.6723 91.2034 68.8294 91.8457 71.7027C92.1423 73.0338 92.0438 74.3153 91.2651 75.4719C90.3876 76.7904 89.1024 77.3504 87.5578 77.1511C85.8646 76.9397 84.7895 75.9323 84.2828 74.3027C84.147 73.8423 84.0978 73.3823 84.1098 72.9094ZM89.5101 72.9341C89.5101 72.2627 89.4361 71.815 89.2381 71.4167C88.9295 70.7697 88.3364 70.4712 87.6564 70.6579C87.113 70.8072 86.8532 71.2301 86.7049 71.7279C86.5195 72.3745 86.5073 73.0338 86.6064 73.6809C86.6556 74.0042 86.7547 74.3274 86.9275 74.6011C87.4463 75.4222 88.6083 75.4222 89.127 74.5885C89.4608 74.0911 89.5226 73.5189 89.5101 72.9341V72.9341Z" fill="#0E52A0"/>
<path d="M58.554 73.5812C57.8251 73.5812 57.0838 73.5812 56.3545 73.5812C56.1937 73.5812 56.1324 73.5938 56.1816 73.7928C56.4782 75.0242 57.504 75.4471 58.554 75.3353C58.9993 75.2853 59.4316 75.136 59.8146 74.8997C59.9382 74.8253 60.0001 74.8375 60.0744 74.9746C60.2845 75.3601 60.4946 75.7583 60.7043 76.1312C60.7661 76.2308 60.7661 76.2931 60.655 76.3553C59.1476 77.2635 57.5779 77.5119 55.9469 76.7408C54.8718 76.2308 54.2289 75.3227 53.957 74.1661C53.6484 72.8102 53.7841 71.5039 54.5752 70.3347C55.8107 68.4935 58.0845 68.2821 59.5059 69.1654C60.4448 69.7499 60.853 70.6828 61.0133 71.7402C61.0998 72.2876 61.0877 72.835 61.0133 73.3698C60.9887 73.5317 60.9394 73.5938 60.7661 73.5812C60.0373 73.5686 59.2958 73.5812 58.554 73.5812V73.5812ZM57.5904 72.076C58.0106 72.076 58.4183 72.0634 58.8385 72.076C59.0114 72.076 59.0606 72.0265 59.0239 71.8646C59.0114 71.7898 59.0114 71.7153 58.9993 71.6283C58.925 71.0561 58.6038 70.6705 58.0971 70.5461C57.1824 70.322 56.3792 70.8198 56.157 71.9142C56.132 72.0513 56.1816 72.076 56.3053 72.076C56.7375 72.0634 57.1577 72.076 57.5904 72.076H57.5904Z" fill="#0E52A0"/>
<path d="M49.2364 72.6609C49.2364 71.305 49.2364 69.9492 49.2364 68.5932C49.2364 68.3817 49.1872 68.3068 48.9645 68.3195C48.1613 68.3317 47.3581 68.3195 46.5549 68.3317C46.3327 68.3317 46.283 68.2699 46.2955 68.0584C46.3076 67.5485 46.3076 67.038 46.2955 66.5158C46.2955 66.3418 46.3201 66.2795 46.5178 66.2795C49.1253 66.2918 51.7329 66.2795 54.34 66.2795C54.5134 66.2795 54.5502 66.3418 54.5502 66.5032C54.538 67.038 54.538 67.5606 54.5502 68.0954C54.5627 68.3069 54.4763 68.3317 54.3033 68.3317C53.5122 68.3195 52.7215 68.3317 51.9183 68.3195C51.6958 68.3195 51.6339 68.3691 51.6339 68.6054C51.6464 71.2924 51.6339 73.9917 51.6464 76.6787C51.6464 76.9398 51.5722 77.0019 51.3373 76.9898C50.7196 76.9771 50.0893 76.9771 49.4711 76.9898C49.2861 76.9898 49.2364 76.9398 49.2364 76.7531C49.2364 75.3849 49.2364 74.0291 49.2364 72.6609H49.2364Z" fill="#0E52A0"/>
<path d="M30.8978 75.186C31.2189 73.8175 31.5652 72.4616 31.9482 71.1183C32.1458 70.4342 32.3312 69.7498 32.5167 69.0657C32.5539 68.9039 32.6158 68.842 32.7886 68.842C33.4064 68.8542 34.012 68.8542 34.6298 68.842C34.8398 68.842 34.877 68.879 34.8026 69.0906C33.9627 71.6657 33.1345 74.2405 32.3067 76.803C32.2573 76.9397 32.1956 76.9897 32.0473 76.9897C31.2561 76.977 30.453 76.977 29.6618 76.9897C29.5015 76.9897 29.4396 76.9397 29.3904 76.7904C28.5375 74.2156 27.6725 71.6404 26.8074 69.0657C26.733 68.842 26.8074 68.842 26.9804 68.842C27.6231 68.842 28.2781 68.8542 28.9205 68.842C29.106 68.842 29.1677 68.9039 29.2171 69.0783C29.7609 71.0809 30.3047 73.0834 30.8113 75.0985C30.8238 75.1238 30.8238 75.1608 30.8978 75.186V75.186Z" fill="#0E52A0"/>
<path d="M33.5448 60.5665C32.8691 60.2576 32.224 59.4953 31.9276 58.6553L25.1231 27.4404C25.0336 26.5155 25.47 25.6569 26.2294 25.2636L61.0217 24.9282C67.1833 24.9103 67.5106 24.9724 68.7941 26.4025C69.0625 26.7015 69.3868 27.1495 69.5148 27.3981C69.6428 27.6466 71.1211 31.8746 72.7999 36.7935C76.1209 46.5242 76.1807 46.7591 75.6237 47.887C75.1772 48.7912 74.5562 49.1107 71.4304 50.0442L59.012 53.7591L39.7941 59.5082C35.2027 60.922 34.5602 61.0308 33.5448 60.5665V60.5665Z" fill="#F5CF0D"/>
<path d="M33.5447 60.5664C32.5461 60.0195 32.1716 59.2662 31.9275 58.6552L32.1527 51.8044C32.3532 45.7001 32.1231 44.5863 31.9566 44.4472C31.8159 44.3297 31.0966 44.2959 29.4132 44.3278C26.798 44.3773 26.3875 44.277 25.983 43.4897C25.508 42.5652 25.9118 41.5283 27.1543 40.4819C27.5533 40.1459 28.9971 38.8341 30.3627 37.5667L32.8456 35.2625L33.6182 36.1214C36.4701 39.2919 39.0448 42.8945 40.4356 45.6605C41.2765 47.333 41.5429 48.1132 42.0144 50.2847C42.3678 51.9124 42.3911 52.2223 42.3925 55.319C42.3935 57.1339 42.3575 58.7043 42.3063 58.7557C41.3411 59.0589 35.9282 60.7293 35.1212 60.7977C34.415 60.8576 34.0051 60.7839 33.5447 60.5664ZM59.0113 53.2848C59.0124 52.5934 59.3929 50.3923 59.7732 48.8806C60.766 44.9336 62.5985 40.2538 65.3615 34.61L66.5312 32.2205L66.603 33.6249L66.6749 35.0293L67.6244 35.8925C71.6519 39.5538 73.8609 41.6884 73.9704 42.0248C74.2611 42.9172 73.6496 44.0445 72.7364 44.2998C72.4614 44.3767 71.2867 44.4399 70.1259 44.4403C68.6506 44.4408 67.9467 44.4925 67.7872 44.6118C67.5866 44.7618 67.5549 45.1694 67.5239 47.9901L67.4927 51.2219C64.6344 52.0413 61.6691 52.9864 59.0094 53.7588C59.0094 53.6411 59.0083 53.406 59.0114 53.2848H59.0113ZM47.413 44.5389C44.7364 41.8131 42.3005 39.6486 40.209 38.1378C38.176 36.6692 35.2218 34.9168 34.1429 34.5394C33.7646 34.4071 33.8276 34.3414 38.7549 29.7311C41.5025 27.1603 44.8187 24.0403 46.1243 22.7976C48.4449 20.5889 49.2158 20 49.7868 20C50.5335 20 50.6199 20.0743 58.6455 27.611C59.7044 28.6054 60.676 29.4196 60.8046 29.4202C61.0142 29.4213 61.0469 29.2053 61.0759 27.3392L61.1133 24.9277C61.9844 24.9411 65.2055 24.8549 66.6073 25.0995L66.607 26.3741V27.4107L65.6914 28.4328C64.136 30.1692 61.981 32.8352 57.8841 38.0919C52.1205 45.487 50.6132 47.3126 50.2769 47.3051C50.1938 47.3031 48.9051 46.0585 47.413 44.5389L47.413 44.5389ZM51.4878 43.0016C53.1072 42.5798 54.6295 41.3148 55.3815 39.7662C56.3958 37.6775 56.1756 35.1014 54.8296 33.3098C53.6615 31.755 52.1491 30.9329 50.2492 30.8201C48.3672 30.7083 46.7802 31.3453 45.5158 32.7201C43.6396 34.7599 43.2962 37.4561 44.5931 39.9637C45.8894 42.4701 48.7275 43.7206 51.4878 43.0016V43.0016Z" fill="#0E52A0"/>
</g>
<defs>
<clipPath id="clip0_840_1802">
<rect width="83" height="60" fill="white" transform="translate(9 20)"/>
</clipPath>
</defs>
</svg>
