<svg width="100" height="100" viewBox="0 0 100 100" fill="none" xmlns="http://www.w3.org/2000/svg">
<path d="M23.4121 77.9161C23.3204 77.768 24.8294 70.4138 24.9851 70.2498C25.0356 70.1966 25.7445 70.0542 26.5605 69.9333C30.982 69.2781 34.0621 67.7153 36.473 64.9038C39.3225 61.5809 41.4443 56.1046 43.1527 47.6636C43.5153 45.8719 43.5199 45.7958 43.2754 45.6172C43.0708 45.4678 42.2515 45.4488 39.0516 45.5194C36.8682 45.5676 35.0534 45.6318 35.0188 45.6621C34.9842 45.6924 35.0706 46.0116 35.2108 46.3715C36.2299 48.9879 36.4501 50.1931 36.3659 52.6951C36.2902 54.9473 36.0054 56.2004 35.1584 58.0086C33.3607 61.8464 30.1452 64.4728 25.9013 65.57C24.3115 65.981 21.3469 66.0187 19.7341 65.6485C17.1679 65.0593 14.871 63.779 12.9838 61.8858C11.038 59.9339 9.77604 57.6407 9.23563 55.075C8.95811 53.7575 8.91717 50.8812 9.15858 49.662C10.1835 44.4858 13.8258 40.4642 18.8533 38.9578C20.3567 38.5073 20.5701 38.4993 34.594 38.3736L44.9448 38.2807L45.1309 37.3784C45.8007 34.1324 46.443 31.4619 46.7872 30.4919C48.2449 26.3843 51.5051 23.3928 55.6471 22.362C57.4153 21.922 60.1511 21.9272 61.8306 22.3738C64.5765 23.104 66.9354 24.6544 68.4628 26.7331C69.0475 27.5288 69.1136 27.4287 67.2499 28.5678C66.5239 29.0115 65.1277 29.865 64.1472 30.4645L62.3646 31.5544L61.6766 30.9365C60.7562 30.1098 59.9147 29.8405 58.4527 29.9048C56.5907 29.9866 55.1993 30.8955 54.436 32.5286C54.0205 33.4176 53.1942 36.7504 53.1658 37.6524L53.1459 38.2807L60.5478 38.3166L67.9496 38.3526L68.0766 38.039C68.1465 37.8666 68.4647 36.4762 68.7838 34.9492C69.1028 33.4223 69.5209 31.6732 69.7129 31.0625C71.2974 26.0207 75.3473 22.6543 80.5235 22.0765C84.2022 21.6659 87.9042 22.9249 90.442 25.4497C91.4025 26.4053 92.1383 27.4214 91.978 27.5708C91.9431 27.6033 90.4578 28.519 88.6772 29.6056L85.4398 31.5813L84.9254 31.0653C83.9971 30.1344 83.4917 29.952 81.8403 29.952C80.5286 29.952 80.3105 29.9893 79.6809 30.3213C78.8762 30.7456 77.9621 31.6792 77.5379 32.5098C77.2019 33.1677 76.3135 36.7263 76.2531 37.6561L76.2126 38.2807L80.5803 38.387C82.9825 38.4454 84.9727 38.518 85.003 38.5483C85.0528 38.598 84.8295 39.7047 83.9058 43.9867L83.6032 45.3895L81.7309 45.4834C80.7011 45.535 78.8194 45.5376 77.5493 45.4891C75.715 45.419 75.19 45.4395 74.9974 45.5888C74.8192 45.7268 74.6274 46.4759 74.2741 48.4141C72.1228 60.213 69.5746 66.5074 65.1213 71.0222C61.2859 74.9106 57.3661 76.7779 51.1132 77.6951C49.3186 77.9584 48.7813 77.9669 48.6916 77.7335C48.6024 77.5012 50.1255 70.2757 50.3107 70.0528C50.3886 69.959 50.7145 69.8417 51.0349 69.7921C52.248 69.6041 54.2992 68.9847 55.3857 68.4782C57.7836 67.3604 59.7151 65.66 61.3091 63.2634C62.9446 60.8044 64.0725 57.9906 65.1646 53.6452C65.7288 51.4001 66.6941 46.5196 66.6941 45.9119V45.5684H59.1875H51.6809L51.5516 45.8807C51.4805 46.0525 51.1663 47.4736 50.8534 49.0387C50.074 52.9381 49.1792 56.4593 48.296 59.1037C44.8306 69.4792 39.0068 75.3032 30.1325 77.2681C27.8663 77.7698 23.5775 78.1834 23.4121 77.9161V77.9161ZM23.9744 58.7445C25.9325 58.3883 27.7673 56.9716 28.688 55.1048C29.5608 53.3353 29.583 51.1124 28.7456 49.3547C28.1409 48.0854 26.7986 46.7466 25.4937 46.1113C24.5385 45.6463 24.4884 45.6378 22.7074 45.6378H20.8938L19.8151 46.1704C15.6337 48.2348 14.725 53.6129 18.0026 56.8967C19.6306 58.5278 21.6797 59.1618 23.9744 58.7445ZM17.1204 35.9911C16.4036 35.5545 16.1149 34.9546 16.1178 33.9081C16.1208 32.8233 16.425 32.0771 17.1512 31.3725C17.7174 30.8232 18.668 30.4361 19.4392 30.4409C20.0728 30.4447 21.1166 30.9137 21.1166 31.1945C21.1166 31.4785 21.0311 31.4664 20.5329 31.112C20.0238 30.7499 18.8836 30.7086 18.2619 31.0297C16.371 32.0066 15.8995 34.7903 17.4528 35.8069C18.0654 36.2079 19.2934 36.1454 19.9484 35.6798C20.5024 35.286 20.6515 35.2764 20.5105 35.6436C20.2693 36.2714 17.968 36.5073 17.1204 35.9911V35.9911ZM21.4397 35.9341C21.567 35.6028 24.7444 30.7226 24.8923 30.6313C24.9689 30.584 25.094 30.6076 25.1702 30.6838C25.3223 30.8357 26.4355 35.9981 26.3373 36.0962C26.1937 36.2397 26.0033 35.9516 25.8562 35.368L25.6982 34.741H24.1714H22.6447L22.1455 35.4351C21.6784 36.0846 21.2714 36.3724 21.4397 35.9341V35.9341ZM25.5076 34.1303C25.5487 34.0234 25.4777 33.3675 25.3499 32.6727C25.1684 31.6861 25.0674 31.4096 24.8887 31.41C24.6452 31.4106 23.062 33.7584 23.062 34.1191C23.062 34.4105 25.3959 34.4212 25.5076 34.1303ZM27.747 36.025C27.6529 35.8496 28.6022 30.8168 28.7589 30.6602C29.0501 30.3693 29.3639 30.8122 30.3548 32.9126C31.4009 35.1299 31.5951 35.4399 31.8002 35.2199C31.8977 35.1153 32.65 31.2169 32.65 30.8162C32.65 30.7608 32.7449 30.7154 32.861 30.7154C33.0085 30.7154 33.0506 30.8096 33.0006 31.0278C32.9613 31.1995 32.8014 32.0897 32.6452 33.0058C32.1174 36.103 32.11 36.1291 31.7636 36.1291C31.4984 36.1291 31.293 35.793 30.3635 33.8387C29.3299 31.6656 29.0112 31.2364 28.8434 31.7912C28.7701 32.0336 28.0644 35.8877 28.0644 36.0458C28.0644 36.1653 27.8135 36.1488 27.747 36.025V36.025ZM33.3447 36.0547C33.3447 35.9742 34.5621 34.0461 35.8805 32.0386C36.7569 30.704 36.9879 30.4781 37.1959 30.7519C37.3058 30.8966 38.3508 35.6898 38.3481 36.0366C38.3481 36.1002 38.2709 36.1269 38.1776 36.0958C38.0844 36.0648 37.9408 35.7628 37.8586 35.4249L37.709 34.8104L36.1562 34.7712L34.6034 34.732L34.1478 35.4281C33.8972 35.8109 33.614 36.1253 33.5184 36.1266C33.4229 36.128 33.3447 36.0957 33.3447 36.0547V36.0547ZM37.5134 33.9172C37.5134 33.405 37.1207 31.5169 36.9862 31.3825C36.8218 31.2184 36.6238 31.4265 35.955 32.4666C35.1073 33.785 34.9842 34.0282 35.0835 34.1886C35.1297 34.2634 35.6954 34.3246 36.3405 34.3246H37.5134V33.9172V33.9172ZM39.7368 35.8168C39.737 35.4197 40.5628 30.8156 40.6493 30.7291C40.6849 30.6936 40.7672 30.7228 40.8323 30.7941C40.8982 30.8664 40.7758 31.8748 40.5553 33.0752C40.3379 34.2586 40.1586 35.3662 40.1568 35.5365C40.1533 35.8606 40.3264 35.9383 41.2652 36.0347C41.5327 36.0622 41.2982 36.0947 40.7441 36.1069C39.7854 36.1281 39.7367 36.114 39.7368 35.8168Z" fill="black"/>
</svg>
