<svg width="100" height="100" viewBox="0 0 100 100" fill="none" xmlns="http://www.w3.org/2000/svg">
<g clip-path="url(#clip0_837_409)">
<path d="M80.0868 70.3258H78.4292L78.0444 71.1952L77.4006 72.6665H76.6236L76.3942 73.1643H77.1934L76.2314 75.3117C75.5432 76.8201 74.4554 78.3137 73.8264 78.3137C73.6932 78.3137 73.6118 78.2542 73.6118 78.113C73.6118 77.9867 73.6488 77.8456 73.8116 77.4666C74.0114 77.0059 74.3296 76.3446 74.5664 75.8616C74.9068 75.1631 75.4618 74.0559 75.4618 73.5135C75.4618 72.9637 75.114 72.5402 74.4332 72.5402C73.6636 72.5402 72.9753 73.0083 72.339 73.6696L72.7533 72.6665H71.1845L69.9043 75.5718C69.3938 76.6047 68.3503 78.3137 67.7065 78.3137C67.5733 78.3137 67.5141 78.232 67.5141 78.0982C67.5141 78.0239 67.5511 77.8752 67.6103 77.7415C67.6695 77.6078 68.4317 75.8319 68.4317 75.8319L69.8155 72.6516H68.1357L66.789 75.7427C66.3671 76.7012 65.3163 78.3137 64.6429 78.3137C64.5023 78.3137 64.4135 78.2468 64.4135 78.0759C64.4135 77.905 64.5393 77.6003 64.6355 77.3774L65.3385 75.8319L66.7963 72.6516H65.1165L64.7909 73.3649C64.5467 73.8479 64.1249 74.4201 63.4663 74.4201C63.1481 74.4201 63.0001 74.2937 62.9261 74.1674C62.8299 73.0974 62.1565 72.5253 61.1501 72.5253C59.7589 72.5253 58.7747 73.35 58.1235 74.3458C57.6869 75.0071 57.3983 75.7279 57.1319 76.56C56.5399 77.5409 55.9109 78.3063 55.4224 78.3063C55.2967 78.3063 55.2227 78.2319 55.2227 78.0685C55.2227 77.8827 55.3854 77.526 55.4447 77.3923L56.5324 75.0665C56.8359 74.3458 57.0504 73.8702 57.0504 73.4021C57.0504 72.8968 56.7027 72.5402 56.1329 72.5402C55.3411 72.5402 54.4826 72.9934 53.8093 73.7513C53.8314 73.6473 53.8463 73.521 53.8463 73.3872C53.8463 72.8374 53.5724 72.5402 52.9953 72.5402C52.2701 72.5402 51.5301 72.9711 50.8493 73.7513L51.3006 72.659H49.7688L48.4812 75.5644C47.867 76.9316 46.8902 78.3062 46.3278 78.3062C46.1946 78.3062 46.1206 78.2394 46.1206 78.0759C46.1206 77.8084 46.4092 77.1619 46.5202 76.9019L48.2222 73.0231C48.348 72.7333 47.534 72.555 46.4906 72.555C45.425 72.555 44.3298 73.09 43.5232 73.7587C42.9608 74.2269 42.539 74.4646 42.3244 74.4646C42.2208 74.4646 42.169 74.4052 42.169 74.3384C42.169 74.1006 42.7388 73.4318 42.7388 72.9266C42.7388 72.6962 42.613 72.5402 42.2948 72.5402C41.6806 72.5402 40.9628 73.1271 40.43 73.7364L40.8814 72.6664H39.394L38.1138 75.5718C37.4996 76.939 36.4932 78.3731 35.9308 78.3731C35.7975 78.3731 35.7235 78.3062 35.7235 78.1353C35.7235 77.8752 35.9974 77.2363 36.1528 76.9019L37.8548 73.0231C37.9806 72.7333 37.1666 72.555 36.1232 72.555C34.5914 72.555 33.0965 73.5953 32.29 74.6579C31.4167 75.817 30.8247 77.0356 30.81 78.0387C30.7951 78.8412 31.2095 79.3465 32.0457 79.3465C32.9781 79.3465 33.7181 78.6034 34.1621 78.0536C34.1548 78.113 34.1104 78.3137 34.1104 78.388C34.1104 78.9453 34.3324 79.3465 35.0058 79.3465C35.5978 79.3465 36.397 78.8487 37.0408 78.0461L36.5228 79.2276H38.1508L39.7418 75.6089C40.2598 74.4275 40.8666 73.8182 41.0294 73.8182C41.0812 73.8182 41.1034 73.8405 41.1034 73.8851C41.1034 74.0114 40.8592 74.3384 40.8592 74.6504C40.8592 74.9699 41.0294 75.1854 41.466 75.1854C41.8138 75.1854 42.206 75.0145 42.5464 74.799C41.7324 75.9136 41.1774 77.0802 41.17 78.0387C41.1626 78.8412 41.577 79.3465 42.4058 79.3465C43.2864 79.3465 44.093 78.5217 44.537 77.9644C44.5222 78.0536 44.5074 78.2394 44.5074 78.3508C44.5074 78.8932 44.8108 79.3465 45.4398 79.3465C46.128 79.3465 46.6904 78.9155 47.386 78.0685L46.8754 79.2276H48.5182L50.0353 75.765C50.7013 74.2566 51.5966 73.469 52.0481 73.469C52.1813 73.469 52.2701 73.5433 52.2701 73.6919C52.2701 73.7885 52.2331 73.952 52.1369 74.1823L49.9094 79.2276L51.6114 79.2202L53.1654 75.6981C53.8314 74.1897 54.5714 73.4466 55.1264 73.4466C55.2893 73.4466 55.3633 73.5358 55.3633 73.7142C55.3633 73.8182 55.3337 73.9816 55.2004 74.2641L53.7131 77.4517C53.5873 77.7266 53.4689 78.113 53.4689 78.4177C53.4689 78.9006 53.7353 79.3317 54.4753 79.3317C55.4447 79.3317 56.1847 78.596 57.0134 77.4963L57.0209 77.7341C57.0801 78.6109 57.5759 79.3688 58.8635 79.3688C60.3879 79.3688 61.6237 78.3062 62.3711 76.6343C62.7041 75.8839 62.8669 75.2448 62.9113 74.7544C63.0519 74.8287 63.2295 74.8733 63.4515 74.8733C63.6587 74.8733 63.9103 74.8287 64.1693 74.695L63.9029 75.2746C63.5995 75.9136 63.2591 76.6269 63.0075 77.2214C62.8225 77.6598 62.7115 78.0685 62.7115 78.3434C62.7115 78.9453 63.0371 79.3688 63.7179 79.3688C64.3987 79.3688 65.3311 78.7298 65.9897 77.8307H66.012C65.975 78.009 65.9379 78.2616 65.9379 78.3954C65.9379 78.8858 66.086 79.3613 66.7815 79.3613C67.5881 79.3613 68.2097 78.7744 68.8165 78.0461L68.2985 79.2202H69.9783L71.3178 76.1662C72.08 74.4423 72.8421 73.4095 73.5526 73.4095C73.7006 73.4095 73.782 73.5135 73.782 73.6621C73.782 73.952 73.375 74.7396 72.9901 75.542C72.6423 76.2628 72.3833 76.8127 72.1983 77.2511C72.0355 77.6375 71.9098 78.0982 71.9098 78.4029C71.9098 78.9304 72.2058 79.3391 72.8496 79.3391C73.819 79.3391 74.8106 78.4029 75.3286 77.6821C75.2102 78.0165 75.1362 78.4177 75.1362 78.7372C75.1362 79.7106 75.7282 80.1936 76.5348 80.1936C77.1046 80.1936 77.6078 79.9929 78.0444 79.6883C78.6808 79.2425 79.1914 78.5811 79.628 77.9644L79.3394 77.6895C78.9398 78.2616 78.4958 78.8041 78.0444 79.1384C77.7632 79.3465 77.4746 79.4803 77.186 79.4803C76.8382 79.4803 76.6162 79.3019 76.6162 78.8487C76.6162 78.4029 76.8234 77.8009 77.1416 77.0059C77.1564 76.9687 77.6078 75.9507 78.0444 74.9699C78.4144 74.1377 78.7696 73.3352 78.8362 73.1717H79.924L80.146 72.6739H79.0582L80.0868 70.3258ZM32.8154 78.3211C32.5712 78.3211 32.4158 78.2394 32.4084 77.9273C32.4232 77.1025 33.0965 75.6461 33.955 74.487C34.547 73.6844 35.324 73.09 36.1602 73.09L35.102 75.4529C34.3102 77.2363 33.4444 78.3211 32.8154 78.3211ZM43.168 78.3211C42.9312 78.3211 42.7684 78.2394 42.761 77.9273C42.7758 77.1025 43.4492 75.6461 44.3002 74.487C44.8922 73.6844 45.6692 73.09 46.5054 73.09L45.4472 75.4529C44.6554 77.2585 43.834 78.3211 43.168 78.3211ZM59.8255 78.113C59.4481 78.6406 59.1299 78.7967 58.8487 78.7967C58.4639 78.7967 58.3529 78.4772 58.3973 78.009C58.4787 77.1842 59.1521 75.282 60.0993 73.9594C60.5285 73.3575 60.8245 73.1123 61.1501 73.1123C61.4683 73.1123 61.5793 73.3872 61.5719 73.729C61.5497 74.6207 60.7579 76.8053 59.8255 78.113Z" fill="#0067A5"/>
<path d="M28.5604 74.3358C29.1302 74.2689 30.0552 74.0832 30.4104 73.9569C32.5934 73.3476 35.0724 71.8764 35.0724 69.2682C35.0724 66.2663 31.9052 64.8247 28.1238 64.8247C24.0908 64.8247 20.3907 66.6155 19.0217 69.3945C18.6591 70.1301 18.4593 70.9327 18.4593 71.7872C18.4593 72.5599 18.6443 73.2584 19.0217 73.8157C19.6063 74.6777 20.6423 75.2275 22.1741 75.2275C24.0389 75.2275 25.5264 74.1946 25.5264 72.4113C25.5264 72.4113 25.5559 71.906 24.9714 71.906C24.4904 71.906 24.3719 72.233 24.3794 72.4113C24.4459 73.8157 23.6245 74.9377 22.1371 74.9377C20.4795 74.9377 19.7839 73.5259 19.7839 72.0101C19.7839 68.9116 22.1149 66.8533 24.5348 65.9764C25.7779 65.5232 26.7769 65.3597 28.0794 65.3597C30.8174 65.3597 33.0596 66.4149 33.0596 69.2459C33.0596 71.6088 31.0838 73.6225 28.701 73.7934L28.7972 73.4664C29.2856 71.7351 29.8702 69.8404 30.8396 68.4286C30.8988 68.3394 30.995 68.2057 31.106 68.0645L30.9728 67.901C30.8026 67.9975 30.4918 68.2279 30.366 68.3245C25.8149 71.8838 25.6818 81.8704 19.6211 81.8704C19.3991 81.8704 19.1993 81.8555 19.0069 81.8258C17.7415 81.6178 17.0829 80.7707 17.0829 79.5818C17.0829 79.3514 17.1643 79.0245 17.1643 78.8462C17.1643 78.5415 16.9571 78.222 16.5057 78.222C15.9655 78.222 15.7435 78.6455 15.7361 79.2697C15.7065 81.0456 17.0089 82.0784 19.0143 82.2642C19.2363 82.2865 19.4583 82.2939 19.6951 82.2939C24.4312 82.2568 27.3394 78.6827 28.5604 74.3358Z" fill="#0067A5"/>
<path d="M30.2623 86.9331H30.9727V82.8538H30.1365V85.3875L28.3383 82.8538H27.6279V86.9331H28.4715V84.4067L30.2623 86.9331Z" fill="#0067A5"/>
<path d="M37.0704 82.8538H34.4508V86.9331H37.0778V86.19H35.3018V85.2092H36.8336V84.481H35.3018V83.5968H37.0704V82.8538Z" fill="#0067A5"/>
<path d="M41.54 86.9331H42.3762V83.5968H43.7452V82.8538H40.171V83.5968H41.54V86.9331Z" fill="#0067A5"/>
<path d="M47.3343 82.8538H46.4166L47.8374 86.9331H48.5553L49.4211 84.3473L50.2869 86.9331H50.9973L52.4181 82.8538H51.5004L50.6346 85.5065L49.7614 82.8538H49.0733L48.2074 85.5065L47.3343 82.8538Z" fill="#0067A5"/>
<path d="M58.449 83.3739C58.0495 82.9875 57.5463 82.7943 56.932 82.7943C56.3105 82.7943 55.7999 82.9875 55.4077 83.3739C55.008 83.7529 54.8157 84.2656 54.8157 84.8972C54.8157 85.5288 55.008 86.0415 55.4077 86.4279C55.8072 86.8069 56.3105 87 56.932 87C57.5463 87 58.0569 86.8069 58.449 86.4279C58.8487 86.0415 59.0411 85.5362 59.0411 84.8972C59.0411 84.2581 58.8413 83.7529 58.449 83.3739ZM57.8349 85.8854C57.6055 86.1306 57.302 86.2496 56.932 86.2496C56.5547 86.2496 56.2512 86.1306 56.0145 85.8854C55.7777 85.6403 55.6667 85.3133 55.6667 84.8972C55.6667 84.4737 55.7777 84.1467 56.0145 83.9089C56.2512 83.6637 56.5547 83.5448 56.932 83.5448C57.3095 83.5448 57.6055 83.6637 57.8349 83.9089C58.0717 84.1467 58.1827 84.4737 58.1827 84.8972C58.1827 85.3133 58.0643 85.6403 57.8349 85.8854Z" fill="#0067A5"/>
<path d="M65.2054 84.1615C65.2054 83.7528 65.087 83.4333 64.8427 83.2029C64.606 82.9652 64.2877 82.8538 63.8882 82.8538H62.1417V86.9331H62.9854V85.4618H63.6662L64.4654 86.9331H65.4125L64.5467 85.3281C64.9612 85.1275 65.2054 84.7263 65.2054 84.1615ZM63.7845 84.7188H62.9854V83.5968H63.7845C64.1175 83.5968 64.347 83.7974 64.347 84.1615C64.347 84.5107 64.1175 84.7188 63.7845 84.7188Z" fill="#0067A5"/>
<path d="M69.4234 85.8037L69.9266 85.2018L71.0588 86.9331H72.0504L70.489 84.5256L71.8876 82.8538H70.8072L69.4234 84.5404V82.8538H68.5798V86.9331H69.4234V85.8037Z" fill="#0067A5"/>
<path d="M28.6639 60.7183L28.5603 60.5548L31.6165 55.4946L33.3629 52.7601L35.3461 50.6721L33.1853 55.0487L32.0087 55.9701L28.6639 60.7183Z" fill="#0067A5"/>
<path d="M38.0916 56.3713L38.8242 55.3236L39.505 55.1452L41.577 51.1848L41.8212 48.6138L42.9534 46.0725L42.8646 45.7382L41.1108 47.9599L40.6742 48.116L37.4921 52.9681L37.9436 53.4436L34.658 60.7999L36.8631 58.5038L38.0916 56.3713Z" fill="#0067A5"/>
<path d="M42.4207 57.1219L42.0877 56.5646L39.2682 61.6768L38.6096 64.545H39.1572L40.9554 62.3901L41.688 59.0315L42.4207 57.1219Z" fill="#0067A5"/>
<path d="M53.4763 34.8599L51.2193 32.6307V39.9721L49.3397 45.1215L51.8927 46.7562L47.5489 58.5114L48.3851 59.2321L46.1281 64.3592L48.9549 67.4429H53.2173L52.4846 65.5778L58.9301 67.9556H66.2414L64.7022 65.2805L63.9029 63.1777L63.5922 61.5876L67.3957 66.3283H72.08L70.7036 63.4675L68.5724 61.3275L63.2665 49.6467L60.9059 48.9259L60.2251 49.6987H59.8107L58.6267 46.5556L57.4427 44.4453L55.8073 41.7926L53.4763 34.8599Z" fill="#0067A5"/>
<path d="M49.8058 20.192C33.6516 20.192 20.5609 33.3812 20.5609 49.6467C20.5609 54.1199 21.5525 58.3553 23.3211 62.1523L34.4878 49.2529L35.4498 48.9408L39.7492 42.8478L41.6288 41.2205L44.4482 36.7844L46.1428 35.1572L48.8808 31.2933L50.6051 29.978L53.8093 32.2889L55.4003 35.2538L57.4353 41.3468L59.8107 45.5748L64.7909 47.804L69.305 57.0773L70.4001 60.7777L71.4658 61.5653L72.4056 62.665L74.1446 65.9939C77.2452 61.3201 79.0582 55.6952 79.0582 49.6467C79.0508 33.3812 65.9601 20.192 49.8058 20.192Z" fill="#0067A5"/>
<path d="M65.4895 18.0597L66.7218 16.8412L66.4326 18.535L68.0075 19.343L66.2324 19.6282L65.9476 21.3695L65.1602 19.8053L63.4073 20.0776L64.6887 18.8504L63.8968 17.2559L65.4895 18.0597Z" fill="#0067A5"/>
<path d="M60.453 14.1709L60.502 15.882L62.2059 16.3746L60.5153 16.9882L60.582 18.7597L59.4965 17.3684L57.8282 17.969L58.8471 16.5085L57.7704 15.1128L59.4788 15.5925L60.453 14.1709Z" fill="#0067A5"/>
<path d="M71.0462 21.2315L72.4965 20.2679L71.8915 21.8796L73.284 22.9555L71.4733 22.9123L70.855 24.5673L70.3922 22.8864L68.6216 22.8259L70.1119 21.8494L69.6537 20.147L71.0462 21.2315Z" fill="#0067A5"/>
<path d="M53.5977 13L53.9891 14.6809L55.751 14.8494L54.2116 15.7654L54.6165 17.4808L53.2862 16.3229L51.7646 17.226L52.4765 15.61L51.1552 14.4261L52.9258 14.5859L53.5977 13Z" fill="#0067A5"/>
<path d="M79.1078 29.4928L79.9931 31.0094L81.6882 30.6508L80.5092 31.9211L81.3946 33.4335L79.7395 32.7205L78.5472 34.0298L78.743 32.3058L77.1235 31.5928L78.8854 31.2428L79.1078 29.4928Z" fill="#0067A5"/>
<path d="M82.2306 35.4127L82.8001 37.072L84.5485 37.0287L83.1382 38.0571L83.7121 39.7078L82.2306 38.701L80.7891 39.7639L81.3319 38.1004L79.8682 37.1022L81.6744 37.0806L82.2306 35.4127Z" fill="#0067A5"/>
<path d="M75.8377 25.8028L77.4393 25.1287L76.5317 26.5935L77.684 27.9114L75.9267 27.5268L75.0014 29.0348L74.8723 27.3065L73.1372 26.909L74.7967 26.2349L74.6766 24.4763L75.8377 25.8028Z" fill="#0067A5"/>
<path d="M84.5217 41.6952L84.753 43.4192L86.4792 43.713L84.9043 44.4606L85.1401 46.1889L83.8767 44.9186L82.2617 45.692L83.1114 44.1667L81.8835 42.9094L83.6453 43.2291L84.5217 41.6952Z" fill="#0067A5"/>
<path d="M85.4741 48.3062L85.3806 50.0518L87 50.6567L85.3094 51.0931L85.2071 52.8258L84.215 51.3481L82.4755 51.8104L83.6144 50.4665L82.6446 49.0061L84.3173 49.6499L85.4741 48.3062Z" fill="#0067A5"/>
<path d="M82.1196 63.8442L81.3588 65.4084L81.0029 63.6757L79.2189 63.4684L80.7805 62.6344L80.4468 60.9276L81.7414 62.1375L83.3297 61.3165L82.5734 62.8936L83.8502 64.0603L82.1196 63.8442Z" fill="#0067A5"/>
<path d="M86.0964 57.3804L84.3392 57.4927L83.9165 59.178L83.2269 57.5403L81.425 57.6613L82.7998 56.5595L82.1325 54.9435L83.6495 55.8898L85.0465 54.7793L84.6105 56.4817L86.0964 57.3804Z" fill="#0067A5"/>
<path d="M31.9924 19.3431L33.7676 19.6283L34.0523 21.3696L34.8397 19.8054L36.5926 20.0777L35.3113 18.8505L36.1032 17.256L34.5104 18.0597L33.2781 16.8412L33.5673 18.535L31.9924 19.3431Z" fill="#0067A5"/>
<path d="M39.4843 16.9882L39.4175 18.7598L40.503 17.3684L42.1714 17.969L41.1526 16.5086L42.2292 15.1129L40.5209 15.5925L39.5466 14.1709L39.4976 15.882L37.7937 16.3746L39.4843 16.9882Z" fill="#0067A5"/>
<path d="M26.7162 22.9554L28.5269 22.9122L29.1453 24.5671L29.608 22.8863L31.3787 22.8258L29.8883 21.8493L30.3466 20.1469L28.954 21.2314L27.5037 20.2678L28.1087 21.8795L26.7162 22.9554Z" fill="#0067A5"/>
<path d="M45.7884 15.7653L45.3835 17.4808L46.7138 16.3228L48.2353 17.2259L47.5235 15.6099L48.8448 14.426L47.0741 14.5859L46.4024 13.0001L46.0108 14.681L44.249 14.8495L45.7884 15.7653Z" fill="#0067A5"/>
<path d="M19.491 31.9211L18.6057 33.4334L20.2607 32.7205L21.453 34.0297L21.2572 32.3057L22.8766 31.5928L21.1148 31.2427L20.8924 29.4928L20.0071 31.0094L18.312 30.6508L19.491 31.9211Z" fill="#0067A5"/>
<path d="M16.8618 38.0572L16.2878 39.7078L17.7693 38.7011L19.2108 39.764L18.668 38.1004L20.1317 37.1023L18.3254 37.0807L17.7693 35.4128L17.1998 37.0721L15.4514 37.0289L16.8618 38.0572Z" fill="#0067A5"/>
<path d="M22.3162 27.9116L24.0735 27.5271L24.9988 29.0351L25.1279 27.3068L26.8629 26.9092L25.2035 26.2351L25.3236 24.4766L24.1625 25.8031L22.5609 25.129L23.4684 26.5938L22.3162 27.9116Z" fill="#0067A5"/>
<path d="M15.0955 44.4608L14.8597 46.1892L16.1232 44.9189L17.7382 45.6923L16.8884 44.167L18.1163 42.9096L16.3545 43.2294L15.478 41.6954L15.2467 43.4194L13.5205 43.7133L15.0955 44.4608Z" fill="#0067A5"/>
<path d="M14.6906 51.0933L14.7929 52.826L15.785 51.3482L17.5246 51.8105L16.3856 50.4667L17.3555 49.0063L15.6827 49.6501L14.526 48.3063L14.6194 50.0519L13 50.6569L14.6906 51.0933Z" fill="#0067A5"/>
<path d="M20.7815 63.4682L19.2199 62.6343L19.5536 60.9275L18.2589 62.1373L16.6707 61.3164L17.4269 62.8935L16.1501 64.0601L17.8808 63.8441L18.6416 65.4083L18.9975 63.6756L20.7815 63.4682Z" fill="#0067A5"/>
<path d="M16.7727 57.5401L18.5746 57.6611L17.1998 56.5593L17.8672 54.9433L16.3501 55.8896L14.9531 54.7791L15.3891 56.4815L13.9032 57.3802L15.6605 57.4925L16.0831 59.1777L16.7727 57.5401Z" fill="#0067A5"/>
</g>
<path d="M75 83.0011H75.303V84.9165H77.9304V83.0011H78.2334V87.1265H77.9304V85.1935H75.303V87.1265H75V83.0011Z" fill="#0067A5"/>
<path d="M80.8197 86.8486C81.0842 86.8525 81.3469 86.8053 81.5935 86.7098C81.8124 86.6247 82.0117 86.4961 82.1795 86.3317C82.3401 86.1715 82.4667 85.9804 82.5515 85.77C82.6407 85.5492 82.6855 85.3131 82.6836 85.075V85.0604C82.6849 84.8236 82.64 84.5887 82.5515 84.369C82.4667 84.1568 82.3402 83.9637 82.1795 83.8012C82.012 83.6348 81.8127 83.504 81.5935 83.4164C81.3473 83.319 81.0844 83.2708 80.8197 83.2747H79.7593V86.8462L80.8197 86.8486ZM79.4545 83.0002H80.8197C81.121 82.9968 81.4202 83.0498 81.702 83.1565C81.9587 83.254 82.1937 83.4012 82.3934 83.5898C82.5861 83.7737 82.7388 83.9955 82.8418 84.2412C82.9487 84.4978 83.0025 84.7734 82.9999 85.0513V85.0635C83.0024 85.3424 82.9486 85.619 82.8418 85.8767C82.7394 86.1236 82.5867 86.3465 82.3934 86.5311C82.1934 86.72 81.9586 86.8682 81.702 86.9674C81.4206 87.076 81.1212 87.13 80.8197 87.1267H79.4545V83.0002Z" fill="#0067A5"/>
<defs>
<clipPath id="clip0_837_409">
<rect width="74" height="74" fill="white" transform="translate(13 13)"/>
</clipPath>
</defs>
</svg>
