<svg width="100" height="100" viewBox="0 0 100 100" fill="none" xmlns="http://www.w3.org/2000/svg">
<path d="M57.7351 82.9294L57.9767 79.4279L62.1627 78.5958L61.4244 82.4462L57.7351 82.9294Z" fill="#70388E"/>
<path d="M69.516 17.0868L65.9855 15.6158L66.3069 16.5319L66.6277 16.8996L67.3713 17.1819L67.81 17.7609L69.516 17.0868Z" fill="#4CA28F"/>
<path d="M63.0493 16.738L64.3609 18.409L64.0521 20.8193L61.3868 22.3689L61.3754 18.0496L63.0493 16.738Z" fill="#448E9F"/>
<path d="M10.5831 48.718L9.88 47.832L9.2207 49.4258L10.5831 48.718Z" fill="#EE9F94"/>
<path d="M44.1794 67.6374L40.3325 68.2601L37.1694 68.538L37.2074 63.5406L38.199 63.4322L38.5345 63.6201L39.7828 63.9691L43.2485 63.4322L44.3872 65.0752L44.1794 67.6374Z" fill="#DE7572"/>
<path d="M11.493 43.9722L12.7179 40.9678L12.2332 42.737L11.5603 43.93L11.493 43.9722Z" fill="#E77E8F"/>
<path d="M9.87244 47.8506L11.5311 43.8811L13.2493 47.6738L14.2808 48.0093L17.0194 47.7779L17.2409 47.9127L17.3268 48.5335L18.6356 50.6859L21.7986 51.5796L21.9297 52.6963L19.1044 53.9538L18.2946 54.0348L15.0235 53.7919L13.1809 52.6038L11.8183 53.1373L10.1127 49.243L10.2013 48.6712L9.87244 47.8506Z" fill="#E46D93"/>
<path d="M25.2307 43.8961L38.5236 42.868L37.4814 48.828L36.7366 50.5068L32.8083 52.9081L27.9648 52.3554L27.8864 50.0405L28.2328 45.6183L25.2307 43.8961Z" fill="#CC2488"/>
<path d="M80.1861 70.859L78.1772 71.332L77.3055 72.905L78.9976 78.8159L80.5177 75.206L80.1861 70.859Z" fill="#618090"/>
<path d="M17.8039 69.8169L18.7848 70.4984L19.8953 71.6247L21.1852 71.7583L22.9867 69.8787L23.683 68.9303L24.6248 67.9818L25.7734 68.9713L27.1961 72.0221L30.146 73.7401L31.2319 73.1817L33.4868 73.8528L34.2074 75.2348L35.1743 79.1697L34.234 80.7443L35.4571 84.1056L34.602 84.5878L20.984 78.8159L13.4868 60.7874L17.8039 69.8169Z" fill="#EFBB64"/>
<path d="M24.7579 67.8546L24.2049 63.8424L18.744 63.5683L18.544 63.4009L10.2758 53.0313L17.5741 70.6158L17.9053 70.8171L18.7643 70.6829L19.6502 71.9714L21.3145 72.4009L23.1667 69.9849L23.7035 68.9917L24.7579 67.8546Z" fill="#EEA46E"/>
<path d="M18.5349 63.4009L18.8085 62.6701L17.104 57.8912L16.1376 57.7704L14.7252 55.1137L14.9897 53.6641L13.1809 52.5833L11.8388 52.3686L9.00006 49.9731L13.4868 60.7874L18.5349 63.4009Z" fill="#EB9680"/>
<path d="M11.8388 52.3686L11.5453 48.9241L10.2013 48.6687L9.22488 49.4162L9.00006 49.9732L10.2758 53.0313L11.8388 52.3686Z" fill="#EA8A9C"/>
<path d="M14.9589 53.6641L19.1043 53.9538L19.7478 56.3116L21.7113 56.6101L22.2101 58.9493L22.3443 59.2983L24.6032 62.6244L24.5851 63.6395L23.5019 64.1747L18.58 63.7426L18.5041 63.4009L18.7778 62.6701L17.0732 57.9322L16.1068 57.8114L14.6841 55.1137L14.9589 53.6641Z" fill="#E77F81"/>
<path d="M12.1743 42.7011L13.1049 42.403L12.7207 40.9601L12.0535 42.6013L12.1743 42.7011Z" fill="#E0619B"/>
<path d="M12.7044 42.249L16.1588 42.7426L17.7174 47.8515L14.2808 48.1733L13.0707 47.8933L11.4965 43.9636L11.5311 43.8811L12.1743 42.6986L12.7044 42.249Z" fill="#E05992"/>
<path d="M12.7178 40.9678L14.7152 36.1888L18.3397 36.1898L22.9846 39.4908L20.1187 41.8096L21.7439 43.0312L24.8617 43.1375L28.4548 45.3963L28.938 49.3672L22.341 53.1184L22.0561 52.2736L21.5775 50.0993L17.6449 47.9384L17.1537 48.0203L16.9323 47.8928L15.267 43.1013L12.7044 42.2515L12.7178 40.9678Z" fill="#DB408F"/>
<path d="M22.2808 51.8388L21.51 52.435L21.5014 51.7753L18.2877 50.8598L17.1269 48.5437L17.1392 48.0058L17.7174 47.8515L21.6645 50.0124L22.2808 51.8388Z" fill="#DE4E8C"/>
<path d="M14.7126 36.1914L15.3163 34.9764L22.4522 34.8601L24.1895 34.5286L25.8051 35.3711L26.5522 35.5893L28.079 35.5882L29.4548 37.6275L27.7301 41.8291L23.3248 41.507L22.6567 39.4908L18.0933 36.4843L14.7126 36.1914Z" fill="#D31982"/>
<path d="M28.9628 37.5865L31.8031 37.0945L34.6655 40.4473L34.2183 41.4701L25.3947 43.732L21.744 43.1952L19.8113 41.7993L22.6567 39.4908L23.4888 41.343L27.7301 41.6651L28.9628 37.5865Z" fill="#BC2F90"/>
<path d="M22.0598 56.8962L23.5096 55.1973L22.7371 52.2012L22.2808 51.8388L21.5607 52.2248L18.4659 53.6097L18.2946 53.8923L19.5428 56.4961L22.0598 56.8962Z" fill="#E36883"/>
<path d="M23.1545 55.277L24.0575 55.6333L25.6494 54.9653L28.6159 52.1609L28.938 49.3672L22.7336 52.1975L23.1545 55.277Z" fill="#DC4787"/>
<path d="M21.9856 59.4768L22.2685 59.6446L27.0544 58.5222L24.7859 55.7457L23.1545 55.2625L21.4755 56.8048L21.8513 59.1133L21.9856 59.4768Z" fill="#E26579"/>
<path d="M32.9109 52.5904L35.346 55.776L27.1876 58.8014L24.0466 55.5282L25.1855 54.8784L28.6159 52.1609L32.9109 52.5904Z" fill="#DF5481"/>
<path d="M23.5337 28.576L25.2546 27.9498L28.1072 29.5096L27.8862 32.4358L14.7126 36.1914L16.4732 31.8542L17.3489 30.0429L19.6653 31.0665L19.1016 30.0956L20.5763 28.4195L22.348 29.3322L22.9087 29.2517L23.5337 28.576Z" fill="#9F479F"/>
<path d="M14.7152 36.194L16.4732 31.8542L27.5582 32.1959L27.8334 32.6989L28.3918 35.0085L27.9663 35.6599L26.5522 35.7533L25.6411 35.535L24.1605 34.8517L22.4148 35.0375L18.5421 35.2139L14.7152 36.194Z" fill="#AC3A97"/>
<path d="M23.5484 19.9483L21.0191 20.978L16.4731 31.8542L21.4823 24.6933L24.2198 23.3502L24.7956 21.228L23.5484 19.9483Z" fill="#7265AF"/>
<path d="M16.4728 31.8545L20.1132 23.1431L22.0562 25.2058L21.5302 25.6008L23.6096 28.74L23.0727 29.4916L22.3479 29.5721L20.5762 28.6595L19.3415 30.0956L19.9052 31.1425L16.4728 31.8545Z" fill="#9055A5"/>
<path d="M43.2108 47.7673L45.5007 49.3928L43.5145 52.0623L39.8714 52.4878L38.8968 51.7207L36.3032 52.404L40.0898 49.1263L43.2108 47.7673Z" fill="#C73C8C"/>
<path d="M35.3024 55.9255L39.6461 55.0782L40.1468 52.6762L39.0607 51.5413L36.6721 52.2195L41.1045 48.4786L32.9108 52.5904L35.3024 55.9255Z" fill="#D93783"/>
<path d="M24.9004 63.2138L29.1617 60.3626L26.8938 58.4848L22.1864 59.543L21.9855 59.4623L24.9004 63.2138Z" fill="#E46C76"/>
<path d="M28.1102 59.574L32.302 59.8886L36.0124 59.4339L41.8258 59.8216L45.051 56.5193L45.1659 54.7956L49.8202 53.4978L50.1999 50.7049L45.5827 48.7778L43.3505 51.8984L39.9149 52.4298L39.1746 54.5367L35.3025 55.7325L26.8938 58.4848L28.1102 59.574Z" fill="#DD4C7F"/>
<path d="M49.9155 50.2514L53.2148 52.1367L53.6179 54.2152L50.9936 55.4744L47.6814 57.226L44.7414 58.2426L44.2925 56.7243L45.0019 54.6316L49.6562 53.3337L49.9155 50.2514Z" fill="#DA597F"/>
<path d="M53.1823 54.2401L54.1979 54.6237L56.4062 53.658L55.3112 49.5571L54.3257 49.2137L53.2198 49.6465L49.7068 48.5249L49.8642 50.8869L52.6408 52.3622L53.1823 54.2401Z" fill="#C6528E"/>
<path d="M42.1321 43.4726L43.837 44.4974L48.1338 45.3567L49.1208 46.756L52.019 44.8552L54.2692 48.0118L50.3591 49.141L49.8642 50.8869L45.1727 49.3928L42.7854 47.7417L42.2226 46.3179L42.1321 43.4726Z" fill="#AF4597"/>
<path d="M34.602 84.5878L40.3666 86.9701L40.3867 86.5004L37.9075 83.9825L37.388 84.4543L34.9241 84.1978L34.602 84.5878Z" fill="#D0A098"/>
<path d="M40.3666 86.9702L46.1917 89.3726L46.7793 88.6839L46.6464 85.7228L46.8493 84.9166L46.5235 83.9772L43.6595 80.0271L42.857 80.7756L39.7441 80.4977L39.0296 81.547L37.874 84.7384L40.2228 86.5004L40.3666 86.9702Z" fill="#AD7597"/>
<path d="M46.1917 89.3726L49.9876 91L52.5011 88.3996L50.3859 87.2721L51.3791 84.7757L50.4396 81.635L47.5674 82.9503L46.288 84.1728L46.5014 84.8876L46.4824 85.7228L46.6153 88.6839L46.1917 89.3726Z" fill="#884E94"/>
<path d="M49.9876 91L54.4796 89.0841L54.6503 88.2586L53.7519 84.9825L51.3225 84.7757L50.3293 87.2721L50.732 88.3995L49.9876 91Z" fill="#814B97"/>
<path d="M54.4796 89.0841L64.1254 85.0869L63.8926 83.8437L65.0723 81.3666L62.9967 77.4295L61.4012 77.8173L61.9421 78.8164L61.2039 82.2256L57.9558 82.7087L57.6874 83.0309H55.2983L53.6953 84.9825L54.5937 88.2586L54.4796 89.0841Z" fill="#6E368F"/>
<path d="M64.1254 85.087L68.6785 83.2085L67.6823 79.1432L64.9756 81.3265L63.7959 83.8437L64.1254 85.087Z" fill="#643A91"/>
<path d="M68.4389 83.3075L68.7404 83.1827L73.384 81.2726L68.1369 80.0254L68.0135 80.1868L67.8267 80.3928L68.4389 83.3075Z" fill="#654191"/>
<path d="M71.1023 82.2054L75.6185 80.3321L74.0717 79.6017L69.371 76.9389L67.5323 78.7461L67.3578 79.4514L71.1023 82.2054Z" fill="#654593"/>
<path d="M73.3841 81.2726L78.9976 78.8159L76.6841 77.4296L75.868 76.6897L74.5126 76.2116L72.6907 79.9562L73.3841 81.2726Z" fill="#645795"/>
<path d="M75.6185 80.3321L78.9976 78.8159L79.5742 76.4372L76.5201 77.6226L75.6185 80.3321Z" fill="#656396"/>
<path d="M78.9976 78.8159L80.5177 75.206L77.9448 75.6575L77.5037 76.6114L78.9976 78.8159Z" fill="#627B93"/>
<path d="M80.5177 75.206L88.1983 56.3399L84.1669 62.5035L83.0276 63.3517L80.7966 63.4591L78.8491 68.559L80.2359 70.0118L79.5916 71.515L80.5177 75.206Z" fill="#64A586"/>
<path d="M85.2419 63.5907L90.9799 49.9731L86.7346 55.1061L83.6584 48.7271L82.7562 53.4494L83.6957 54.8184L83.2125 57.449L84.9573 58.7375L84.3308 62.8315L85.2419 63.5907Z" fill="#63AE82"/>
<path d="M88.1983 56.34L90.9799 49.9732L78.9976 21.0018L82.506 32.4237L81.1773 34.1415L81.1014 34.4831L83.7113 37.112L82.4274 40.1775L84.2713 42.7874L83.6639 44.3344L83.6829 44.8658L84.4824 48.4053L84.0208 50.1477L86.5706 55.1062L88.1983 56.34Z" fill="#63B27F"/>
<path d="M83.1927 31.1448L78.9976 21.0018L69.5161 17.0868L73.9075 21.0607L73.2005 21.8369L73.5516 23.8394L73.2812 24.2617L73.824 28.0622L74.0455 28.4074L73.6586 31.3169L75.8647 32.452L75.8909 34.388L75.1227 34.452L74.4782 37.2193L74.2811 40.5677L75.9344 39.7557L77.156 39.8574L78.0549 40.4079L79.187 40.5028L80.4207 40.2371L82.5235 40.8153L83.8753 37.112L81.2654 34.4831L81.3413 34.1414L82.67 32.4236L83.1927 31.1448Z" fill="#50AC7E"/>
<path d="M75.0206 19.3551L65.9855 15.6158L68.2158 17.4854L67.4976 18.5579L67.596 20.647L68.699 21.7965L72.3917 21.6382L72.7267 22.3877L74.0715 21.2247L75.0206 19.3551Z" fill="#4BA58A"/>
<path d="M65.9855 15.6158L57.5732 12.1373L63.0493 16.902L64.1969 18.573L63.8881 20.6553L61.7148 22.0409L60.4252 23.1574L68.2033 23.6571L68.4816 20.6079L68.2918 20.3136L68.1209 18.5579L68.2158 17.4855L67.8931 16.9065L67.5989 16.7547L67.4376 16.5174L65.9855 15.6158Z" fill="#44939B"/>
<path d="M64.0224 14.8082L57.0364 11.9159L58.5446 14.3866L58.2315 15.5934L58.6799 16.1455L58.517 17.0702L57.1277 18.4246L59.1696 22.5506L61.3067 22.8192L61.7148 22.0409L61.5394 18.0496L63.0493 16.902L64.0224 14.8082Z" fill="#448BA4"/>
<path d="M57.5732 12.1373L54.2314 10.7566L54.2396 14.8763L53.7662 17.0575L56.2292 18.2834L57.2302 18.6296L59.0295 17.0497L59.0899 16.043L58.949 15.5934L59.0161 14.325L57.5732 12.1373Z" fill="#407FAB"/>
<path d="M57.0364 11.9159L49.9876 9L52.1941 11.9809L52.2689 13.5354L54.8957 14.4458L57.0364 11.9159Z" fill="#417AAE"/>
<path d="M54.2314 10.7566L49.9876 9L23.5483 19.9483L26.9951 22.3302L29.0307 22.7174L31.8885 22.8366L32.9678 21.8633H33.1765L35.0031 26.0022L36.8211 27.014L42.043 28.8135L52.7306 21.2402L52.3904 18.5759L54.6272 16.996L54.8956 14.4458L52.9863 13.2894L52.891 12.1859L54.2314 10.7566Z" fill="#416AB0"/>
<path d="M57.1274 18.8742L55.7774 22.4782L51.4084 21.5477L51.755 18.0429L54.6272 16.996L57.1274 18.8742Z" fill="#3D77AD"/>
<path d="M28.4951 17.8952L21.0191 20.978L24.2934 21.2485L27.4051 21.6845L28.4951 17.8952Z" fill="#6668AF"/>
<path d="M23.82 23.1616L25.9269 25.5859L25.2424 28.1897L23.5337 28.8918L21.0238 25.5188L21.4822 24.6174L23.82 23.1616Z" fill="#875AA8"/>
<path d="M23.8201 23.2375L24.2934 21.2485L27.5487 21.2437L29.9788 22.8507L28.2401 25.4009L26.1073 25.878L23.8201 23.2375Z" fill="#765FAC"/>
<path d="M29.1421 25.1139L30.8895 28.6136L27.7032 30.0016L25.1665 28.1897L25.851 25.5859L29.1421 25.1139Z" fill="#8C53A4"/>
<path d="M32.7393 22.2216L31.5374 28.2599L30.0923 28.0555L28.2401 25.2369L29.5227 22.5534L32.7393 22.2216Z" fill="#5F5BB1"/>
<path d="M31.3734 28.0959L33.601 29.5886L36.3011 28.4139L37.3132 26.3375L36.2126 25.6127L33.1766 21.6993H32.9678L31.7245 22.3446L31.3734 28.0959Z" fill="#5E63AC"/>
<path d="M33.9649 29.5374L33.727 30.5255L27.8062 32.7278L27.5582 32.1959L27.7032 30.0016L30.0923 28.0555L31.3734 28.0959L33.9649 29.5374Z" fill="#8056A5"/>
<path d="M33.9064 30.3574L33.929 31.4746L34.1088 31.6544L30.7584 34.6589L28.0801 34.9102L27.7574 32.623L33.9064 30.3574Z" fill="#8950A2"/>
<path d="M34.1454 31.4962L35.3385 33.9873L34.1105 36.0043L31.6391 37.5865H28.9628L27.9662 35.6599L28.0801 34.9102L30.3484 34.2079L34.1454 31.4962Z" fill="#8C4CA1"/>
<path d="M33.803 35.8403L36.3292 38.6657L35.4302 40.5869L34.5864 41.1812L31.6391 37.5865L33.803 35.8403Z" fill="#AD3795"/>
<path d="M35.3422 33.3947L38.3773 34.6251L38.5475 37.659L39.754 39.3631L41.8199 38.2094L44.4936 41.9014L42.6292 44.8563L39.6319 43.4148L39.0866 41.9874L37.7952 42.1966L35.3215 40.3768L35.9668 38.6874L33.803 35.8403L35.3422 33.3947Z" fill="#A13F9A"/>
<path d="M38.1453 34.9006L39.6369 34.4652L42.351 36.0294L41.635 38.6318L39.917 39.974L37.2863 37.746L38.1453 34.9006Z" fill="#97489E"/>
<path d="M41.695 36.2754L44.4301 34.985L47.3312 39.1101L46.4004 41.5109L43.7556 41.4504L41.6349 38.6318L41.695 36.2754Z" fill="#8157A5"/>
<path d="M46.6547 39.0076L50.4411 37.8841L51.0757 34.7126L47.9715 33.3826L45.4819 33.9273L45.336 33.5413L37.7918 29.5738L37.034 27.8142L33.765 29.4246L33.7271 30.5255L33.765 31.4746L33.8789 31.5885L34.9798 34.018L38.1453 34.9005L39.1654 34.7932L41.7155 37.0749L44.6146 35.5179L46.6547 39.0076Z" fill="#6B60AA"/>
<path d="M24.416 63.1732L27.0077 64.7141L28.6781 64.9039L30.1586 64.2206L31.1076 64.5622L32.7588 67.3843L35.8909 68.6018L36.4603 68.374H37.3335L37.3714 63.6901L34.4605 63.7539L34.437 62.0981L34.7028 60.7436L32.1861 59.5697L27.9985 59.4623L24.5212 62.7935L24.416 63.1732Z" fill="#E77C72"/>
<path d="M32.1861 59.5697L35.9099 58.9214L41.6618 59.2476L44.2925 56.7243L44.9259 57.6686L47.3124 56.939L50.7886 54.8184L53.1106 53.9326L51.6208 59.3281L49.0354 58.3166L48.2788 58.6203L47.2823 60.1673L45.0436 60.9714L44.5605 63.3502L39.7828 64.1331L38.5346 63.7841L38.199 63.5962L37.3714 63.7046L34.2965 63.9324L34.2585 62.2621L34.5243 60.7436L32.1861 59.5697Z" fill="#DF5F78"/>
<path d="M43.0845 63.5962L47.8314 61.2584L50.5992 61.9984L51.67 63.9263L51.2957 64.4985L51.6753 66.5483L48.8421 68.1694L47.4937 67.3477L44.266 67.8142L43.9949 67.6374L44.2233 65.0752L43.0845 63.5962Z" fill="#D47473"/>
<path d="M32.74 67.0074L32.2002 69.5182L27.9568 68.232L25.6095 68.9918L24.2941 68.3475L23.262 64.3959L24.4263 63.1696L27.0077 64.5193L28.6781 64.7091L30.1586 64.0258L31.1077 64.3675L32.74 67.0074Z" fill="#E78170"/>
<path d="M31.1126 68.7128L30.9244 73.7967L30.146 73.9041L27.0321 72.1861L25.5684 68.9507L27.9157 67.8015L31.1126 68.7128Z" fill="#EB956F"/>
<path d="M30.9907 68.6777L32.74 66.9664L35.8909 68.5608L36.4349 71.7056L33.1793 74.4678L30.8834 73.7967L30.9907 68.6777Z" fill="#E48F7A"/>
<path d="M34.1664 75.5628L39.9149 75.2953L41.4395 73.7996L41.0978 72.8505L35.7944 70.4473L33.1383 74.4678L34.1664 75.5628Z" fill="#D49870"/>
<path d="M41.1341 73.0064L40.9639 71.5016L40.3325 68.2191L37.3335 68.333L36.4193 68.292L35.8499 68.5608L35.5842 70.7626L41.1341 73.0064Z" fill="#D47873"/>
<path d="M39.9149 75.1313L39.763 77.9785L39.2316 79.5349L39.7441 80.8256L39.1936 81.5469L37.8739 84.7383L37.5212 84.6951L34.9241 84.2388L33.6088 80.6418L34.3335 79.1117L34.0383 75.4244L39.9149 75.1313Z" fill="#CE9377"/>
<path d="M41.1935 73.6766L45.3055 71.0192L49.8522 71.3298L48.6204 72.2082L47.7473 73.7267L46.988 76.9535L45.837 78.1805L45.1917 78.3323L43.3315 80.7497L42.857 80.9396L39.7441 80.8257L39.0676 79.5349L39.599 77.9785L39.7509 75.1313L41.1935 73.6766Z" fill="#B27589"/>
<path d="M50.6059 72.0954L50.1883 69.1264L48.883 68.0054L47.4936 67.1427L44.2659 67.6092L44.0154 67.4324L40.1685 68.2601L40.7999 71.5016L40.8518 72.8915L41.3574 73.8406L45.3055 71.1832L50.6059 72.0954Z" fill="#C3697C"/>
<path d="M45.837 78.0164L46.7511 78.6618L47.6083 82.9913L46.3905 84.511L43.3315 80.7497L45.1916 78.1683L45.837 78.0164Z" fill="#985B90"/>
<path d="M46.5942 78.082L52.7083 79.8601L50.4797 81.7161L47.5273 83.0314L46.5942 78.082Z" fill="#90538F"/>
<path d="M46.8241 76.8969L49.0024 75.818L54.9493 77.3266L52.7083 79.86L54.0187 80.7285L46.6535 78.7184L45.7804 78.0164L46.8241 76.8969Z" fill="#92548B"/>
<path d="M48.6204 71.8966L49.9992 72.7739L53.1129 74.0122L52.8221 77.2193L48.9879 76.498L46.824 76.9535L47.5833 73.7267L48.6204 71.8966Z" fill="#945489"/>
<path d="M49.0608 69.4339L52.3764 68.8796L53.6238 73.6341L52.5594 74.2992L49.7122 73.1223L48.4154 72.2492L48.1876 71.6798L49.0608 69.4339Z" fill="#A65985"/>
<path d="M51.8229 69.1718L54.3406 68.5517L55.7732 70.6117L53.0499 73.3471L51.8229 69.1718Z" fill="#A15585"/>
<path d="M50.9723 65.9883L55.4036 67.8129L54.3406 68.7157L51.987 69.7407L49.1018 69.4749L48.8421 68.0054L50.9723 65.9883Z" fill="#B05E84"/>
<path d="M52.7655 77.1626L57.9685 76.1455L58.254 79.6486L58.0124 82.7087L57.6874 83.0875L55.3393 83.1695L53.7362 85.0645L51.3381 84.8567L50.3986 81.676L51.1897 79.9905L52.1388 79.5349L52.7655 77.1626Z" fill="#783D8E"/>
<path d="M55.7186 70.2672L57 71.1432L56.5824 74.2603L52.4783 74.2982L53.0098 73.3471L55.7186 70.2672Z" fill="#8A4B8A"/>
<path d="M56.96 71.1832L57.78 70.3025L60.4176 74.5209L60.8572 75.525L58.2145 76.2275L59.3665 76.252L52.7811 77.2192L52.4774 74.2582L56.4185 74.0963L56.96 71.1832Z" fill="#84438B"/>
<path d="M51.2757 62.2239L51.6207 59.3281L51.1328 58.8644L49.0354 58.1526L48.1148 58.4563L47.1183 60.0033L44.6951 60.6434L43.0845 63.5962L48.0774 61.7709L51.2757 62.2239Z" fill="#D56A7A"/>
<path d="M51.6823 58.8771L52.4495 58.8503L54.7375 61.7411L56.9119 62.6001L57.234 64.4313L51.4578 64.7454L51.342 63.9263L50.5992 61.9984L51.6823 58.8771Z" fill="#C76A7D"/>
<path d="M58.218 64.4313L56.659 66.2215L55.2601 68.4689L50.9723 65.9883L51.1317 64.3344L51.342 63.9263L53.9293 63.7841L58.218 64.4313Z" fill="#BE6A7F"/>
<path d="M57.4799 63.3858L57.6815 65.5621L58.6298 70.4979L57.985 70.9175L56.9387 71.3295L55.3635 70.6876L54.3406 68.7157L54.3785 67.9564L56.372 65.7705L57.4799 63.3858Z" fill="#994F89"/>
<path d="M52.265 59.3012L55.1885 58.4984L55.4584 55.7564L54.3722 54.2547L53.1105 53.9326L51.8237 54.4241L51.1328 58.8644L51.6207 59.3281L52.265 59.3012Z" fill="#CA6381"/>
<path d="M54.5735 57.9859L58.4936 59.8464L60.0803 63.6353L57.9778 63.2766L54.5735 61.9051L52.265 59.3012L54.5735 57.9859Z" fill="#C16781"/>
<path d="M56.8821 65.5826L61.1736 67.5383L62.1981 65.6446L59.4859 63.3278L56.7479 62.7641L57.07 64.2673L56.8821 65.5826Z" fill="#925090"/>
<path d="M61.7886 67.0873L61.0726 69.3168L60.2107 69.8L58.4658 70.4979L56.8821 65.5826L61.7886 67.0873Z" fill="#944C8C"/>
<path d="M51.8146 36.5926L53.0499 37.3018L55.0179 36.9237L59.2097 40.1778L59.9712 44.4319L57.2137 45.4061L55.8659 43.0463L54.1576 42.4457L53.6573 41.0722L51.6073 42.2491L51.2725 41.9074L51.0979 41.2461L50.7721 40.7116L49.5574 41.0153L46.572 41.9719L46.3594 40.7524L46.6547 39.0076L51.8146 36.5926Z" fill="#8167B0"/>
<path d="M46.9 41.7054L47.6554 42.3394L48.7723 44.2937L50.4578 44.0978L49.1208 47.2479L47.9698 45.5206L43.4834 44.6665L42.6292 44.8563L43.7556 41.4503L46.3594 40.7524L46.9 41.7054Z" fill="#A94B9C"/>
<path d="M46.9 41.7054L49.5573 40.8513L50.7721 40.5476L51.5693 41.0411L51.4365 41.7434L51.6073 42.0851L53.6573 40.9082L54.3216 42.4457L52.9489 43.5132L53.9162 44.5025L55.1868 45.2201L53.1631 46.5643L51.8161 45.7105L49.1208 47.2479L50.0888 44.3438L48.6083 44.4577L46.9379 42.2369L46.9 41.7054Z" fill="#9355A3"/>
<path d="M54.9404 44.8287L56.0751 44.9874L56.9524 48.3086L58.275 48.9099L59.0722 49.6586L58.3524 53.8846L55.9962 53.2481L55.1372 49.5571L54.3185 49.4095L53.285 49.7987L50.3591 49.141L53.6952 47.9503L51.8161 45.7105L53.0688 46.3179L54.9404 44.8287Z" fill="#A15D9F"/>
<path d="M56.5752 45.4658L56.96 44.5147L56.0299 42.8823L54.3216 42.4457L52.5184 43.4517L53.7522 44.6665L54.7012 45.0461L56.5752 45.4658Z" fill="#8F62A9"/>
<path d="M59.8072 44.2679L60.3707 44.2531L60.9772 46.2055L59.674 49.7148L56.5424 48.5956L56.0679 45.3498L56.96 44.5147L59.8072 44.2679Z" fill="#9867AC"/>
<path d="M41.3665 27.7065L51.4597 21.0762L56.4468 22.5633L56.5419 23.4414L56.395 26.153L52.7111 28.4308L52.3856 29.8003L54.3959 31.1049L55.6687 32.1357L55.8171 33.7985L54.9137 36.2379L54.5873 37.4157L53.0499 37.8143L50.3591 37.2896L49.6612 34.7127L47.8895 33.6389L45.2051 34.1221L45.1515 33.7463L37.5816 29.6661L36.0807 28.2858L37.3132 26.3375L41.3665 27.7065Z" fill="#506AB1"/>
<path d="M55.3251 33.8805L58.4405 35.1114L60.3454 34.4637L63.2518 37.4855L62.5404 40.2818L58.8201 40.8133L54.5873 37.4157L54.2782 36.1353L55.3251 33.8805Z" fill="#607BB4"/>
<path d="M62.1419 39.162L62.8594 40.2673L63.6529 44.8467L60.1678 44.4198L59.8072 44.2679L58.8202 40.8133L62.1419 39.162Z" fill="#7873B8"/>
<path d="M77.5515 73.233L75.9902 73.54L72.9094 73.1623L73.9793 68.7165L74.2571 65.539L78.9605 66.6846L80.2358 70.0118L79.5916 71.515L78.4642 71.9982L77.5515 73.233Z" fill="#627593"/>
<path d="M75.5651 67.3006L74.5152 64.3478L75.1595 59.3013L74.3542 54.8423L78.0049 51.46L78.327 50.0671L78.1123 49.6376L78.0049 47.4394L76.9099 47.0389L78.9713 44.43L78.0049 42.9804L78.2189 40.2439L79.187 40.3388L80.4207 40.0731L82.7554 40.1775L84.4353 42.7874L83.8279 44.3343L83.8468 44.8658L85.2942 48.4343L84.0208 50.1476L82.9202 53.4494L83.8597 54.8184L83.3765 57.4491L85.1213 58.7375L84.3309 62.8315L83.0276 63.5157L80.9606 63.6231L79.2695 67.5153L75.5651 67.3006Z" fill="#62A88B"/>
<path d="M74.2766 68.9112L69.5409 68.158L70.3006 66.0121L70.7778 64.9878L70.5196 62.7721L72.0994 61.5024L71.1867 58.821L69.9287 58.3608L69.4992 57.8239L69.5345 54.0907L71.8846 53.2854L72.851 50.9261L69.6789 47.5943L74.8345 44.9044L77.6321 46.8459L78.1689 47.2754L78.2763 49.6376L78.491 50.0671L78.1689 51.624L74.5182 55.0063L75.3235 59.3013L74.6793 64.3478L75.5651 67.3006L74.2766 68.9112Z" fill="#6C929C"/>
<path d="M69.9548 54.2547L67.1368 54.7315L64.6956 53.3098L65.5493 50.9947L68.1713 48.5703L70.1427 47.9712L73.0149 50.9261L72.0486 53.4494L69.9548 54.2547Z" fill="#77709D"/>
<path d="M75.1624 45.3963L75.9707 43.8394L76.9158 40.1204L75.7703 39.4277L72.747 42.1118L68.6115 42.093L65.7779 45.3153L64.9742 47.4842L67.9684 49.2081L70.8675 48.7249L75.1624 45.3963Z" fill="#66989D"/>
<path d="M75.7703 39.4277L75.2958 38.9152L72.0137 38.3161L68.523 37.4931L65.4816 37.8732L63.842 39.9439L63.261 44.533L65.9283 43.6247L68.9884 42.6583L73.2834 42.6046L75.7703 39.4277Z" fill="#6A7DB2"/>
<path d="M62.0849 43.5466L63.6198 44.2152L68.9885 42.6583L66.3578 45.5037L65.7136 47.3828L67.9684 49.2081L65.8209 51.1945L65.2889 53.5119L58.7443 49.6586L58.4595 49.2789L60.3007 45.6725L60.1678 44.4197L62.0849 43.5466Z" fill="#8363AD"/>
<path d="M62.6129 39.6585L64.1029 40.3498L63.6197 44.2152L62.0849 43.5466L62.6129 39.6585Z" fill="#7485B7"/>
<path d="M67.9485 54.8039L63.8981 59.6931L58.0951 59.4134L59.133 55.1988L58.004 53.208L58.7442 49.6586L65.3914 53.0199L67.9485 54.8039Z" fill="#79579D"/>
<path d="M63.8691 58.9973L64.6647 58.8752L64.1724 61.4697L65.0381 66.2204L61.7675 65.9316L59.4858 63.3278L58.0631 60.1334L55.7921 57.6711L58.4025 58.9214L63.8691 58.9973Z" fill="#894993"/>
<path d="M58.4026 58.9214L60.035 54.9733L58.004 53.208L55.9962 53.2481L54.3722 54.2547L54.7614 55.8385L54.5735 57.9859L58.0632 60.1334L56.6942 58.3886L58.4026 58.9214Z" fill="#B75D8B"/>
<path d="M64.2371 59.0999L66.9927 62.6845L68.4626 62.0343L70.1695 58.2275L69.74 57.6907L69.9548 54.2547L66.9483 54.0936L63.8691 58.9973L64.2371 59.0999Z" fill="#71649A"/>
<path d="M60.5095 34.8532L60.3345 32.2494L63.9071 32.3477L64.4504 32.5835L67.7848 34.4128L69.8141 35.9038L68.8274 37.8265L65.7136 38.1486L64.103 40.3498L62.5405 40.2819L62.1419 39.162L62.6164 37.5676L60.5095 34.8532Z" fill="#548AAA"/>
<path d="M69.3357 35.8023L69.7574 34.4922L72.0476 31.8611L75.5141 35.3942L75.087 37.3208L75.2958 38.9152L71.9412 38.9539L68.8274 37.8265L69.3357 35.8023Z" fill="#569E99"/>
<path d="M71.9172 32.8033L71.2786 32.4882L68.3555 28.1339V26.5896L67.2619 25.4596L67.2321 24.2079L68.4816 20.6078L72.3917 21.3102L73.3645 21.8369L73.7156 23.8394L73.4451 24.2617L73.988 28.0622L74.2095 28.2434L74.1949 31.1139L76.6909 31.9301L76.3113 34.6634L75.5141 35.3942L71.9172 32.8033Z" fill="#51A192"/>
<path d="M61.6373 25.9257L60.7957 32.6286L64.4504 32.5835L66.0011 29.2171L61.6373 25.9257Z" fill="#4D8AAB"/>
<path d="M63.1312 23.3317L62.0628 26.7938L61.2877 32.4236L57.2098 31.3956L56.6259 27.5599L55.739 27.383L56.0499 23.2774L55.1758 22.1738L55.973 18.0169L57.835 18.0966L59.4053 22.2841L63.1312 23.3317Z" fill="#3E7DA9"/>
<path d="M52.1576 28.0823L55.862 26.3375L57.0359 27.1089L57.6813 30.4116L61.2877 32.4236L60.5095 34.8532L58.4405 35.7264L55.3251 33.8805L55.2178 32.1357L53.8219 31.3304L51.6476 29.8003L52.1576 28.0823Z" fill="#4B76AD"/>
<path d="M61.3067 22.8192L67.58 23.2367L67.7983 25.3436L68.5196 26.4256V28.1339L71.9551 32.3857L71.9172 32.8033L70.3228 35.043L69.3357 35.8023L64.0969 32.8412L63.9071 32.3477L65.4988 29.3708L62.0628 26.7938L61.3067 22.8192Z" fill="#488FA0"/>
<path d="M68.2986 61.8703L69.7749 58.0738L71.3506 58.657L72.2633 61.5024L70.8675 62.8446L71.0822 65.0458L70.7064 66.0121L70.599 67.9985L68.3363 70.7402L65.6582 68.1594L65.1557 65.8699L66.6162 64.5916L67.8552 61.6698L68.2986 61.8703Z" fill="#6D6498"/>
<path d="M67.8552 62.1482L66.9062 64.8815L64.315 66.9135L64.3714 65.5826L63.6869 61.3682L64.2372 59.0999L67.8552 62.1482Z" fill="#75479A"/>
<path d="M61.9272 74.4994L63.4567 76.8146L61.983 78.8574L58.1974 79.6486L57.7162 76.4979L57.9685 76.1455L61.9272 74.4994Z" fill="#74398E"/>
<path d="M60.6534 74.9924L61.6795 73.625L63.4379 72.7898L63.7796 72.0305L63.3832 69.3185L61.8926 68.4558L60.2106 69.636L58.4658 70.3339L57.985 70.9175L60.6534 74.9924Z" fill="#7C3E8D"/>
<path d="M60.9085 69.1528L60.9891 67.0053L61.7675 65.9316L64.3713 65.5826L65.3876 66.0583L65.9191 67.9564L68.2348 70.0444L68.7118 71.2515L68.7553 72.3207L66.6624 74.5323L67.1559 76.848L69.0073 77.3726L68.1778 80.0664L67.8677 80.4338L65.0156 81.3666L62.707 78.038L62.546 78.0783L60.2627 75.2072L60.3766 74.5619L61.5154 73.461L63.1099 72.6258L63.4515 71.8665L62.7682 69.8925L60.9085 69.1528Z" fill="#69318F"/>
<path d="M68.7118 71.2515L71.0461 74.7137L71.5235 78.5164L68.6998 78.3771L66.5624 77.0315L66.0688 74.6758L68.7118 71.2515Z" fill="#644592"/>
<path d="M71.6006 73.2787L72.3378 73.3676L74.5271 77.0959L72.7197 79.9707L69.535 78.0449L71.6006 73.2787Z" fill="#655093"/>
<path d="M72.2968 74.3721L74.3086 73.1777L74.2766 68.9112L70.5991 67.9985L68.2349 70.0443L67.8552 71.1073L68.045 72.1323L71.0061 74.7137L72.2968 74.3721Z" fill="#655595"/>
<path d="M74.3035 72.2398L76.3973 73.2174L75.1867 77.1101L74.5271 77.0959L72.2968 74.3721L74.3035 72.2398Z" fill="#645F94"/>
<path d="M75.658 72.8695L77.5515 73.2185L78.6666 75.555L77.9487 77.2572L76.5201 77.6226L75.1722 77.1101L75.658 72.8695Z" fill="#656695"/>
<path d="M75.7703 39.4277L77.156 39.6934L78.2189 40.2439L78.1689 42.9804L79.1352 44.43L77.632 46.8459L75.1624 45.3963L75.8067 43.8394L75.7703 39.4277Z" fill="#64A097"/>
<path d="M34.2964 40.7754L35.3214 40.3768L37.8459 41.6675L39.2315 41.6105L40.0667 42.9582L42.6292 44.8563L42.4583 46.3179L43.0468 47.9313L32.9108 52.5904L36.1857 50.5503L37.2595 48.886L36.8836 46.148L25.3947 43.7321L33.9927 41.0601L34.2964 40.7754Z" fill="#C4278C"/>
<path d="M82.4837 78.9759C81.5456 78.77 80.7488 78.0331 80.131 76.8C80.0142 76.5669 79.9186 76.3659 79.9186 76.3534C79.9186 76.3326 79.3706 75.0999 76.6496 68.9997C75.698 66.8665 68.5279 50.7885 65.3628 43.691C64.4168 41.5696 63.6425 39.8168 63.6422 39.7959C63.641 39.7159 64.6447 37.5629 64.7744 37.3675C65.0128 37.0084 65.4304 36.6475 65.8281 36.4568C66.4649 36.1516 66.4954 36.1478 68.3093 36.1478C70.1257 36.1478 70.152 36.1511 70.7984 36.4602C71.1045 36.6067 71.2089 36.6827 71.4852 36.9604C71.6644 37.1405 71.8639 37.3819 71.9285 37.4968C72.0267 37.6715 78.4517 51.7697 83.3671 62.5965C86.3884 69.2511 89.4441 75.9695 89.6671 76.4479C90.036 77.239 90.1133 77.678 89.948 78.0439C89.6922 78.6101 89.0075 78.891 87.6328 78.9935C86.8458 79.0522 82.7679 79.0383 82.4837 78.9759ZM54.6099 65.8396C53.4313 65.7848 52.7223 65.5239 52.5155 65.0687C52.4355 64.8924 52.422 64.5391 52.4864 64.3066C52.5096 64.223 53.1358 62.8207 53.878 61.1905C57.3438 53.5775 58.6604 50.687 60.2998 47.0921C61.272 44.9602 62.2748 42.7595 62.5283 42.2015C62.7817 41.6435 63.0008 41.1989 63.0151 41.2134C63.0294 41.228 63.1944 41.5905 63.3819 42.019C63.5693 42.4474 64.5985 44.7816 65.669 47.2061C66.7395 49.6306 67.6238 51.6524 67.6341 51.699C67.6464 51.7547 67.4865 52.1591 67.1682 52.877C65.8598 55.8288 62.8897 62.6477 62.7006 63.1342C62.244 64.3087 61.493 65.2269 60.6722 65.6141C60.2 65.8369 60.1328 65.8421 57.536 65.8541C56.2297 65.8602 54.913 65.8538 54.6099 65.8396ZM31.2494 65.6158C30.8319 65.5763 30.2938 65.406 29.9755 65.2126C29.6632 65.023 29.3314 64.7047 29.136 64.4074C29.0408 64.2626 28.0522 62.1338 26.8215 59.4234C21.8713 48.5217 17.8182 39.5939 16.7205 37.1738C16.0758 35.7526 14.3824 32.0247 12.9573 28.8896C11.5322 25.7545 10.3232 23.0697 10.2707 22.9234C10.2005 22.7282 10.1743 22.5766 10.1721 22.3534C10.1695 22.0851 10.1823 22.0255 10.2811 21.8459C10.5239 21.4047 11.0346 21.1637 12.0363 21.0172C12.5851 20.937 17.1105 20.8951 17.5582 20.9661C18.3664 21.0942 19.09 21.6133 19.6607 22.4743C19.9757 22.9496 20.0083 23.019 21.5054 26.4005C22.1948 27.9576 23.502 30.8989 24.4102 32.9367C26.1267 36.7881 28.9574 43.1469 34.2276 54.9904C35.9281 58.812 37.3195 61.9597 37.3195 61.9853C37.3195 62.0447 36.3962 64.0628 36.2706 64.2779C35.9229 64.8734 35.3535 65.2982 34.5951 65.5281C34.2632 65.6287 34.2491 65.6296 32.9303 65.6393C32.1988 65.6446 31.4424 65.6341 31.2494 65.6158ZM42.0801 65.6149C41.1473 65.5247 40.4018 65.1021 39.9351 64.3989C39.8585 64.2836 38.1934 60.6759 36.2348 56.3817C31.3906 45.7611 31.3558 45.6838 31.2746 45.382C31.1806 45.0323 31.1799 44.5959 31.2731 44.394C31.4218 44.0718 31.8174 43.7989 32.3427 43.656C33.0384 43.4668 33.3953 43.447 36.1224 43.4454L38.6685 43.4438L38.9725 43.5474C39.4364 43.7054 39.728 43.8956 40.1532 44.3179C40.5082 44.6704 40.554 44.7336 40.7857 45.1919C41.4532 46.5117 43.3473 50.8116 46.9779 59.2498L48.1541 61.9834L47.6539 63.0753C47.3789 63.6758 47.0872 64.2691 47.0058 64.3936C46.8124 64.6897 46.3932 65.0822 46.0913 65.2499C45.7711 65.4278 45.3071 65.5732 44.9158 65.6182C44.5421 65.6611 42.5342 65.6588 42.0801 65.6149ZM48.6258 59.7789C48.4424 59.3639 47.394 56.998 46.2961 54.5212C45.1981 52.0445 44.3002 50.001 44.3007 49.9801C44.3014 49.9592 44.6051 49.2581 44.9759 48.4221C46.305 45.4255 49.0013 39.2365 49.2325 38.6516C49.7545 37.3313 50.6011 36.3725 51.5318 36.0477C51.774 35.9632 51.8268 35.9608 54.2299 35.9257C57.3425 35.8802 58.1076 35.9218 58.7785 36.1728C59.4637 36.4292 59.6643 36.9712 59.3528 37.7248C59.2793 37.9024 58.0303 40.6556 56.577 43.843C55.1238 47.0303 52.8282 52.0664 51.4756 55.0343C50.1231 58.0021 49.0036 60.4536 48.9878 60.482C48.9696 60.5148 48.8384 60.2601 48.6258 59.7789Z" fill="#4E2A86"/>
<path d="M45.4176 24.9004H49.3263C49.6191 24.9004 49.7497 25.0231 49.747 25.2804V26.6104C49.7365 26.8314 49.6712 27.0042 49.3941 26.9904H47.1141V31.7406C47.0815 32.0072 46.9515 32.1355 46.7205 32.1206H45.3905C45.0318 32.098 45.0125 31.8567 45.024 31.7135V25.3075C45.0125 24.9312 45.2701 24.8953 45.4176 24.9004V24.9004Z" fill="white"/>
<path d="M50.4255 24.9004H51.9456C52.0743 24.8971 52.1953 25.0262 52.2442 25.1651L53.8321 32.1206H51.9795C51.863 32.1052 51.645 32.0855 51.5859 31.822L50.1812 25.4704C50.1368 25.0371 50.3361 24.8999 50.4255 24.9004Z" fill="white"/>
<path d="M54.4224 24.9004H56.0239C56.0763 24.8993 56.1797 25.0033 56.2343 25.1651C56.255 25.2367 56.2702 25.3188 56.2343 25.4976L54.8228 31.8215C54.677 32.1137 54.4529 32.1149 54.2326 32.1206L53.4121 28.5202L54.1607 25.2141C54.2225 24.9974 54.3666 24.9004 54.4224 24.9004V24.9004Z" fill="white"/>
<path d="M42.779 24.9004H44.6023V26.9824H42.7214C42.4373 26.9677 42.3752 26.7856 42.3807 26.6513V25.2454C42.3768 25.1365 42.4872 24.9004 42.779 24.9004V24.9004Z" fill="white"/>
</svg>
