<svg width="100" height="100" viewBox="0 0 100 100" fill="none" xmlns="http://www.w3.org/2000/svg">
<g clip-path="url(#clip0_839_1444)">
<path fill-rule="evenodd" clip-rule="evenodd" d="M91.7893 48.0954H84.8643C84.6274 48.0954 84.5325 48.2384 84.5325 48.3811V49.4764H91.7893V51.1908H84.5325V52.4762C84.5325 52.6667 84.7221 52.7619 84.8643 52.7619H91.7893V54.5241H84.8643C83.4415 54.5241 82.6352 53.4763 82.6352 52.4762V48.5237C82.6352 47.6667 83.3467 46.4287 84.7221 46.4287H91.7893V48.0954ZM78.509 54.5241L75.9477 51.9523H72.7697C72.58 51.9523 72.4379 52.0953 72.4379 52.2858V53.905V54.5716H70.683V48.5241C70.683 47.381 71.6314 46.4287 72.7697 46.4287H78.6511C79.7897 46.4287 80.7381 47.381 80.7381 48.5241V49.8573C80.7381 51 79.7897 51.9523 78.6511 51.9523H78.4138L81.0226 54.5241H78.509ZM68.6908 48.0954H61.7661C61.5289 48.0954 61.434 48.2384 61.434 48.3811V49.4764H68.6908V51.1908H61.434V52.4762C61.434 52.6667 61.6236 52.7619 61.7661 52.7619H68.6908V54.5241H61.7661C60.343 54.5241 59.537 53.4763 59.537 52.4762V48.5237C59.537 47.6667 60.2482 46.4287 61.6236 46.4287H68.6908V48.0954ZM55.6949 54.571H57.5922V46.3804H55.6949V54.571ZM51.9007 54.5241V48.762L49.2918 53.5715H47.7267L44.976 48.762V54.5716H43.1259V46.4287H45.3554L48.3907 51.7622L51.5211 46.4287H53.7029V54.5241H51.9007ZM41.229 48.0954H34.304C34.0669 48.0954 33.9722 48.2384 33.9722 48.3811V49.4764H41.229V51.1908H33.9722V52.4762C33.9722 52.6667 34.1618 52.7619 34.304 52.7619H41.229V54.5241H34.304C32.8812 54.5241 32.0748 53.4763 32.0748 52.4762V48.5237C32.0748 47.6667 32.7863 46.4287 34.1618 46.4287H41.229V48.0954ZM27.9486 54.5241L25.3871 51.9523H22.2094C22.0196 51.9523 21.8776 52.0953 21.8776 52.2858V53.905V54.5716H20.0751V48.5241C20.0751 47.381 21.0236 46.4287 22.1621 46.4287H28.0432C29.1817 46.4287 30.1301 47.381 30.1301 48.5241V49.8573C30.1301 51 29.1817 51.9523 28.0432 51.9523H27.8535L30.4623 54.5241H27.9486ZM18.1305 49.8573C18.1305 51 17.1819 51.9523 16.0435 51.9523H10.2097C10.02 51.9523 9.87753 52.0953 9.87753 52.2858V54.5716H8.12263V53.8572V48.5241C8.12263 47.381 9.07114 46.4287 10.2097 46.4287H16.0435C17.1819 46.4287 18.1305 47.381 18.1305 48.5241V49.8573ZM95.4889 43H4.42307C3.66427 43 3 43.6188 3 44.4284V56.5716C3 57.3334 3.61669 58 4.42307 58H95.4889C96.2476 58 96.9116 57.3809 96.9116 56.5716V44.4284C96.9116 43.6188 96.2952 43 95.4889 43Z" fill="#338C2E"/>
<path fill-rule="evenodd" clip-rule="evenodd" d="M59.5371 48.5241V52.4765C59.5371 53.4763 60.3434 54.5241 61.7662 54.5241H68.6909V52.7619H61.7662C61.624 52.7619 61.4344 52.667 61.4344 52.4765V51.1905H68.6909V49.4764H61.4344V48.3811C61.4344 48.2384 61.5289 48.0954 61.7662 48.0954H68.6909V46.4287H61.624C60.2482 46.4287 59.5371 47.6667 59.5371 48.5241ZM55.6951 54.571H57.5925V46.3804H55.6951V54.571ZM78.604 50.1898C78.7936 50.1898 78.936 50.0468 78.936 49.8564V48.5232C78.936 48.3327 78.7936 48.1897 78.604 48.1897H72.7226C72.5328 48.1897 72.3908 48.3327 72.3908 48.5232V50.2373C72.4853 50.2373 72.6277 50.1898 72.7226 50.1898H78.604ZM78.4141 51.9526L81.0226 54.5241H78.509L75.9476 51.9526H72.7697C72.5803 51.9526 72.4378 52.0953 72.4378 52.2861V53.905V54.5716H70.683V48.5241C70.683 47.381 71.6314 46.4287 72.7697 46.4287H78.6513C79.7896 46.4287 80.7381 47.381 80.7381 48.5241V49.8573C80.7381 51 79.7896 51.9526 78.6513 51.9526H78.4141ZM84.8647 48.0954H91.7893V46.4287H84.7225C83.347 46.4287 82.6354 47.6667 82.6354 48.5241V52.4765C82.6354 53.4763 83.4415 54.5241 84.8647 54.5241H91.7893V52.7619H84.8647C84.7225 52.7619 84.5325 52.667 84.5325 52.4765V51.1905H91.7893V49.4764H84.5325V48.3811C84.5325 48.2384 84.6273 48.0954 84.8647 48.0954ZM48.3909 51.7622L45.3554 46.4287H43.1263V54.5716H44.976V48.762L47.7267 53.5718H49.2918L51.9007 48.762V54.5241H53.7028V46.4287H51.5213L48.3909 51.7622ZM28.0435 50.1898C28.2331 50.1898 28.3755 50.0468 28.3755 49.8564V48.5232C28.3755 48.3327 28.2331 48.1897 28.0435 48.1897H22.162C21.9723 48.1897 21.8299 48.3327 21.8299 48.5232V50.2373C21.9247 50.2373 22.0672 50.1898 22.162 50.1898H28.0435ZM27.8537 51.9526L30.4623 54.5241H27.9486L25.3873 51.9526H22.2094C22.0196 51.9526 21.8776 52.0953 21.8776 52.2861V53.905V54.5716H20.0751V48.5241C20.0751 47.381 21.0238 46.4287 22.162 46.4287H28.0435C29.1817 46.4287 30.1305 47.381 30.1305 48.5241V49.8573C30.1305 51 29.1817 51.9526 28.0435 51.9526H27.8537ZM16.4704 48.5232C16.4704 48.3327 16.3282 48.1897 16.1382 48.1897H10.2096C10.0199 48.1897 9.87747 48.3327 9.87747 48.5232V50.2373C9.97263 50.2373 10.1147 50.1898 10.2096 50.1898H16.1382C16.3282 50.1898 16.4704 50.0468 16.4704 49.8564V48.5232ZM18.1305 48.5241V49.8573C18.1305 51 17.1819 51.9526 16.0437 51.9526H10.2097C10.02 51.9526 9.87752 52.0953 9.87752 52.2861V54.5716H8.12262V53.8572V48.5241C8.12262 47.381 9.07145 46.4287 10.2097 46.4287H16.0437C17.1819 46.4287 18.1305 47.381 18.1305 48.5241ZM34.1619 46.4287H41.2291V48.0954H34.3044C34.0671 48.0954 33.9722 48.2384 33.9722 48.3811V49.4764H41.2291V51.1905H33.9722V52.4765C33.9722 52.667 34.1619 52.7619 34.3044 52.7619H41.2291V54.5241H34.3044C32.8815 54.5241 32.0749 53.4763 32.0749 52.4765V48.5241C32.0749 47.6667 32.7864 46.4287 34.1619 46.4287Z" fill="white"/>
<path fill-rule="evenodd" clip-rule="evenodd" d="M78.9358 49.8576V48.5244C78.9358 48.3336 78.7934 48.1909 78.6037 48.1909H72.7224C72.5326 48.1909 72.3904 48.3336 72.3904 48.5244V50.2385C72.4853 50.2385 72.6275 50.191 72.7224 50.191H78.6037C78.7934 50.191 78.9358 50.048 78.9358 49.8576Z" fill="#338C2E"/>
<path fill-rule="evenodd" clip-rule="evenodd" d="M28.3753 49.8576V48.5244C28.3753 48.3336 28.2329 48.1909 28.0431 48.1909H22.1617C21.9721 48.1909 21.8299 48.3336 21.8299 48.5244V50.2385C21.9248 50.2385 22.0669 50.191 22.1617 50.191H28.0431C28.2329 50.191 28.3753 50.048 28.3753 49.8576Z" fill="#338C2E"/>
<path fill-rule="evenodd" clip-rule="evenodd" d="M16.1382 48.1909H10.2096C10.0199 48.1909 9.87744 48.3339 9.87744 48.5244V50.2385C9.97229 50.2385 10.1147 50.191 10.2096 50.191H16.1382C16.3279 50.191 16.4703 50.048 16.4703 49.8576V48.5244C16.4703 48.3339 16.3279 48.1909 16.1382 48.1909Z" fill="#338C2E"/>
</g>
<defs>
<clipPath id="clip0_839_1444">
<rect width="94" height="15" fill="white" transform="translate(3 43)"/>
</clipPath>
</defs>
</svg>
