<svg width="100" height="100" viewBox="0 0 100 100" fill="none" xmlns="http://www.w3.org/2000/svg">
<path fill-rule="evenodd" clip-rule="evenodd" d="M41.0424 26.1586C39.0631 25.0016 37.7439 24.7373 36.3307 24.7373C35.5454 24.7373 34.6656 24.935 34.5399 25.7283C34.4454 26.4223 35.0738 26.5883 36.3936 26.8859C38.8122 27.4149 41.2621 28.1094 41.5758 30.7215L42.896 23.8769L41.0424 26.1586ZM59.2633 26.3568L62.875 21.463H68.2468L60.6454 30.8869L59.5147 36.7722H54.9282L56.2157 30.1924L53.8598 25.9265L50.7816 29.4651L54.9282 36.7722H49.3995L46.1628 30.6887L45.0628 36.7722H40.414L41.0735 33.2675C39.8172 36.2764 37.4614 37.269 34.2574 37.269C31.5557 37.269 29.0741 36.4086 27.7233 34.8541L30.2676 31.7135C31.3666 32.8378 33.0639 33.4329 34.8542 33.4329C36.11 33.4329 36.8646 32.9371 36.8952 32.2754C36.9269 31.1512 35.0738 30.9857 33.3776 30.49C31.4611 29.9281 29.4195 28.5724 29.9534 25.7283C30.3616 23.546 32.2147 21 36.9269 21C39.5658 21 41.5134 21.6279 43.1152 22.8187L43.366 21.463H48.0164L46.665 28.1094L52.1319 21.463H56.7501L59.2633 26.3568Z" fill="#E30601"/>
<path d="M69.7015 22.873H70.0737C70.2278 22.873 70.3251 22.7989 70.3637 22.6517C70.4019 22.5078 70.3498 22.4363 70.2069 22.4363H69.8164L69.7015 22.873ZM69.2234 23.575L69.5903 22.1866H70.2977C70.6103 22.1866 70.7284 22.33 70.6527 22.6179C70.5974 22.8268 70.4932 22.952 70.3396 22.9944C70.4631 23.0261 70.505 23.1169 70.4658 23.2667L70.3841 23.575H70.092L70.1596 23.3183C70.194 23.1878 70.1435 23.1222 70.0076 23.1222H69.6354L69.5162 23.575H69.2234ZM70.2756 21.8229C69.9856 21.8229 69.7111 21.9271 69.4501 22.1355C69.1896 22.3445 69.0198 22.5964 68.942 22.8923C68.8641 23.1883 68.9006 23.4407 69.0505 23.6497C69.2009 23.8592 69.4216 23.9634 69.7117 23.9634C70.0012 23.9634 70.2756 23.8592 70.5356 23.6497C70.7951 23.4407 70.9642 23.1883 71.0421 22.8923C71.12 22.5975 71.084 22.3461 70.9347 22.1366C70.7859 21.9271 70.5657 21.8229 70.2756 21.8229ZM70.3229 21.6521C70.6629 21.6521 70.9213 21.773 71.0996 22.0152C71.2774 22.2575 71.3214 22.5497 71.2312 22.8923C71.141 23.2345 70.9428 23.5272 70.6366 23.7705C70.331 24.0133 70.0076 24.1353 69.6682 24.1353C69.3244 24.1353 69.0639 24.0133 68.8845 23.7711C68.7062 23.5288 68.6627 23.2361 68.7529 22.8923C68.8431 22.5497 69.0419 22.2575 69.3486 22.0152C69.6547 21.773 69.9797 21.6521 70.3229 21.6521" fill="#E30601"/>
<path d="M37.9684 40.6342H37.3837L37.1552 41.9436H36.4354L37.057 38.3667L38.241 38.3692C38.6374 38.3692 38.942 38.4625 39.1549 38.6492C39.3695 38.8359 39.4645 39.0955 39.4399 39.428C39.4055 39.9193 39.1435 40.2608 38.6538 40.4524L39.1574 41.9043V41.9436H38.3909L37.9684 40.6342ZM37.4869 40.0372L38.0224 40.0421C38.2124 40.0388 38.3688 39.9881 38.4916 39.8898C38.6161 39.7899 38.6906 39.6548 38.7152 39.4845C38.7381 39.3256 38.7127 39.2011 38.639 39.1111C38.5653 39.021 38.4482 38.9727 38.2877 38.9661L37.6736 38.9637L37.4869 40.0372Z" fill="#E30601"/>
<path d="M41.9358 40.3934H40.565L40.398 41.3515H42.0095L41.9063 41.9436H39.575L40.1965 38.3667H42.523L42.4173 38.9637H40.8131L40.6633 39.8161H42.039L41.9358 40.3934Z" fill="#E30601"/>
<path d="M42.3461 41.9436L42.9676 38.3667L43.9945 38.3692C44.2352 38.3741 44.4514 38.4289 44.643 38.5338C44.8363 38.6369 44.9927 38.786 45.1123 38.9809C45.2318 39.1758 45.3039 39.3952 45.3284 39.6392C45.3415 39.7817 45.3399 39.9275 45.3235 40.0765L45.3063 40.2067C45.2343 40.7308 45.0279 41.1517 44.6873 41.4694C44.3482 41.7855 43.9363 41.9436 43.4516 41.9436H42.3461ZM43.5842 38.9637L43.1691 41.3515L43.4688 41.354C43.7996 41.354 44.0649 41.2328 44.2647 40.9904C44.4662 40.748 44.5816 40.382 44.6111 39.8923L44.616 39.8137C44.6209 39.5434 44.5693 39.3363 44.4612 39.1921C44.3532 39.048 44.1918 38.9727 43.9773 38.9661L43.5842 38.9637Z" fill="#E30601"/>
<path d="M47.9054 40.3934H46.5346L46.3676 41.3515H47.9791L47.876 41.9436H45.5446L46.1661 38.3667H48.4926L48.3869 38.9637H46.7828L46.6329 39.8161H48.0086L47.9054 40.3934Z" fill="#E30601"/>
<path d="M35.2897 44.8104C35.2209 45.1805 35.053 45.4737 34.786 45.6899C34.5207 45.9061 34.2022 46.0092 33.8304 45.9994C33.6093 45.9945 33.4161 45.9405 33.2506 45.8373C33.0852 45.7325 32.9567 45.5826 32.865 45.3877C32.7732 45.1912 32.7225 44.9742 32.7126 44.7367C32.7061 44.6024 32.7118 44.4714 32.7298 44.3436L32.7716 44.0488C32.8486 43.5117 33.0369 43.0883 33.3366 42.7788C33.638 42.4676 34.004 42.3161 34.4347 42.3243C34.7705 42.3308 35.0366 42.4398 35.2331 42.651C35.4297 42.8607 35.5337 43.1522 35.5451 43.5256H35.0858C35.0645 43.0244 34.8679 42.7542 34.4962 42.7149L34.4151 42.71C34.1056 42.7018 33.8468 42.8173 33.6388 43.0564C33.4324 43.2938 33.299 43.6189 33.2384 44.0316L33.1843 44.4026L33.1696 44.6188C33.1597 44.9201 33.213 45.1601 33.3293 45.3386C33.4472 45.5155 33.6216 45.6072 33.8525 45.6137C34.1015 45.6219 34.307 45.5621 34.4691 45.4344C34.6329 45.3066 34.7574 45.1011 34.8425 44.8178L35.2897 44.8104Z" fill="#E30601"/>
<path d="M37.3041 44.5033H36.4787L36.2281 45.9503H35.7638L36.3853 42.3734L37.4613 42.3759C37.8364 42.3775 38.1221 42.4725 38.3187 42.6608C38.5152 42.8492 38.5979 43.1055 38.5668 43.4298C38.5488 43.6541 38.4669 43.8515 38.3211 44.0218C38.177 44.1921 37.9846 44.3207 37.7438 44.4075L38.299 45.9183L38.2966 45.9503H37.8052L37.3041 44.5033ZM36.545 44.1176L37.223 44.1201C37.4589 44.1201 37.6578 44.0579 37.82 43.9334C37.9821 43.8073 38.0771 43.6394 38.105 43.4298C38.1295 43.2251 38.0886 43.0646 37.9821 42.9483C37.8757 42.832 37.7135 42.7706 37.4957 42.764L36.7808 42.7616L36.545 44.1176Z" fill="#E30601"/>
<path d="M41.0505 44.297H39.547L39.3259 45.5646H41.075L41.0062 45.9503H38.7977L39.4193 42.3734H41.6032L41.5344 42.7616H39.8123L39.6133 43.9113H41.1168L41.0505 44.297Z" fill="#E30601"/>
<path d="M41.5983 45.9503L42.2198 42.3734L43.1484 42.3759C43.4399 42.3759 43.6905 42.4488 43.9001 42.5945C44.1114 42.7403 44.2629 42.9417 44.3546 43.1989C44.4463 43.4543 44.4734 43.7409 44.4357 44.0587L44.4111 44.238C44.3391 44.7588 44.1368 45.1748 43.8043 45.486C43.4719 45.7955 43.0542 45.9503 42.5515 45.9503H41.5983ZM42.6129 42.7616L42.1265 45.5646L42.5809 45.567C42.9281 45.567 43.2221 45.459 43.4629 45.2428C43.7053 45.0266 43.8625 44.7302 43.9345 44.3535C43.9919 44.0521 44.0115 43.7958 43.9935 43.5845C43.9689 43.3307 43.8846 43.1325 43.7405 42.99C43.5963 42.8459 43.4031 42.7706 43.1607 42.764L42.6129 42.7616Z" fill="#E30601"/>
<path d="M47.079 44.297H45.5756L45.3545 45.5646H47.1036L47.0348 45.9503H44.8263L45.4478 42.3734H47.6318L47.563 42.7616H45.8409L45.6419 43.9113H47.1454L47.079 44.297Z" fill="#E30601"/>
<path d="M50.2972 45.9503H49.8501L48.5727 43.1743L48.0912 45.9503H47.6269L48.2484 42.3734H48.6955L49.9754 45.1617L50.4594 42.3734H50.9188L50.2972 45.9503Z" fill="#E30601"/>
<path d="M53.8569 44.8104C53.7881 45.1805 53.6202 45.4737 53.3533 45.6899C53.088 45.9061 52.7694 46.0092 52.3976 45.9994C52.1765 45.9945 51.9833 45.9405 51.8179 45.8373C51.6525 45.7325 51.5239 45.5826 51.4322 45.3877C51.3405 45.1912 51.2897 44.9742 51.2799 44.7367C51.2733 44.6024 51.2791 44.4714 51.2971 44.3436L51.3388 44.0488C51.4158 43.5117 51.6042 43.0883 51.9039 42.7788C52.2052 42.4676 52.5712 42.3161 53.002 42.3243C53.3377 42.3308 53.6039 42.4398 53.8004 42.651C53.9969 42.8607 54.1009 43.1522 54.1124 43.5256H53.653C53.6317 43.0244 53.4352 42.7542 53.0634 42.7149L52.9823 42.71C52.6728 42.7018 52.414 42.8173 52.206 43.0564C51.9997 43.2938 51.8662 43.6189 51.8056 44.0316L51.7515 44.4026L51.7368 44.6188C51.727 44.9201 51.7802 45.1601 51.8965 45.3386C52.0144 45.5155 52.1888 45.6072 52.4198 45.6137C52.6687 45.6219 52.8742 45.5621 53.0364 45.4344C53.2001 45.3066 53.3246 45.1011 53.4098 44.8178L53.8569 44.8104Z" fill="#E30601"/>
<path d="M54.8273 45.9503H54.3679L54.9894 42.3734H55.4488L54.8273 45.9503Z" fill="#E30601"/>
<path d="M57.817 45.0168H56.3676L55.8787 45.9503H55.3849L57.3281 42.3734H57.7335L58.441 45.9503H57.9865L57.817 45.0168ZM56.5715 44.6286H57.7482L57.4509 42.9606L56.5715 44.6286Z" fill="#E30601"/>
<path d="M58.9372 45.9503L59.5587 42.3734L60.4873 42.3759C60.7789 42.3759 61.0294 42.4488 61.2391 42.5945C61.4503 42.7403 61.6018 42.9417 61.6935 43.1989C61.7853 43.4543 61.8123 43.7409 61.7746 44.0587L61.75 44.238C61.678 44.7588 61.4757 45.1748 61.1433 45.486C60.8108 45.7955 60.3932 45.9503 59.8904 45.9503H58.9372ZM59.9518 42.7616L59.4654 45.5646L59.9199 45.567C60.2671 45.567 60.561 45.459 60.8018 45.2428C61.0442 45.0266 61.2014 44.7302 61.2735 44.3535C61.3308 44.0521 61.3504 43.7958 61.3324 43.5845C61.3079 43.3307 61.2235 43.1325 61.0794 42.99C60.9353 42.8459 60.742 42.7706 60.4996 42.764L59.9518 42.7616Z" fill="#E30601"/>
<path d="M64.1993 45.0168H62.7499L62.261 45.9503H61.7672L63.7104 42.3734H64.1158L64.8233 45.9503H64.3688L64.1993 45.0168ZM62.9538 44.6286H64.1305L63.8333 42.9606L62.9538 44.6286Z" fill="#E30601"/>
<path d="M40.2734 66L38.9234 64.05H38.8434H37.4334V66H35.8134V59H38.8434C39.4634 59 40.0001 59.1033 40.4534 59.31C40.9134 59.5167 41.2667 59.81 41.5134 60.19C41.7601 60.57 41.8834 61.02 41.8834 61.54C41.8834 62.06 41.7567 62.51 41.5034 62.89C41.2567 63.2633 40.9034 63.55 40.4434 63.75L42.0134 66H40.2734ZM40.2434 61.54C40.2434 61.1467 40.1167 60.8467 39.8634 60.64C39.6101 60.4267 39.2401 60.32 38.7534 60.32H37.4334V62.76H38.7534C39.2401 62.76 39.6101 62.6533 39.8634 62.44C40.1167 62.2267 40.2434 61.9267 40.2434 61.54ZM48.5869 64.7V66H43.1669V59H48.4569V60.3H44.7769V61.82H48.0269V63.08H44.7769V64.7H48.5869ZM49.8759 59H53.0559C53.8159 59 54.4859 59.1467 55.0659 59.44C55.6526 59.7267 56.1059 60.1333 56.4259 60.66C56.7526 61.1867 56.9159 61.8 56.9159 62.5C56.9159 63.2 56.7526 63.8133 56.4259 64.34C56.1059 64.8667 55.6526 65.2767 55.0659 65.57C54.4859 65.8567 53.8159 66 53.0559 66H49.8759V59ZM52.9759 64.67C53.6759 64.67 54.2326 64.4767 54.6459 64.09C55.0659 63.6967 55.2759 63.1667 55.2759 62.5C55.2759 61.8333 55.0659 61.3067 54.6459 60.92C54.2326 60.5267 53.6759 60.33 52.9759 60.33H51.4959V64.67H52.9759ZM63.5576 64.7V66H58.1376V59H63.4276V60.3H59.7476V61.82H62.9976V63.08H59.7476V64.7H63.5576ZM28.1214 74.36C28.5214 74.4867 28.8347 74.7 29.0614 75C29.288 75.2933 29.4014 75.6567 29.4014 76.09C29.4014 76.7033 29.1614 77.1767 28.6814 77.51C28.208 77.8367 27.5147 78 26.6014 78H22.9814V71H26.4014C27.2547 71 27.908 71.1633 28.3614 71.49C28.8214 71.8167 29.0514 72.26 29.0514 72.82C29.0514 73.16 28.968 73.4633 28.8014 73.73C28.6414 73.9967 28.4147 74.2067 28.1214 74.36ZM24.5914 72.22V73.87H26.2014C26.6014 73.87 26.9047 73.8 27.1114 73.66C27.318 73.52 27.4214 73.3133 27.4214 73.04C27.4214 72.7667 27.318 72.5633 27.1114 72.43C26.9047 72.29 26.6014 72.22 26.2014 72.22H24.5914ZM26.4814 76.78C26.908 76.78 27.228 76.71 27.4414 76.57C27.6614 76.43 27.7714 76.2133 27.7714 75.92C27.7714 75.34 27.3414 75.05 26.4814 75.05H24.5914V76.78H26.4814ZM35.0879 78L33.7379 76.05H33.6579H32.2479V78H30.6279V71H33.6579C34.2779 71 34.8145 71.1033 35.2679 71.31C35.7279 71.5167 36.0812 71.81 36.3279 72.19C36.5745 72.57 36.6979 73.02 36.6979 73.54C36.6979 74.06 36.5712 74.51 36.3179 74.89C36.0712 75.2633 35.7179 75.55 35.2579 75.75L36.8279 78H35.0879ZM35.0579 73.54C35.0579 73.1467 34.9312 72.8467 34.6779 72.64C34.4245 72.4267 34.0545 72.32 33.5679 72.32H32.2479V74.76H33.5679C34.0545 74.76 34.4245 74.6533 34.6779 74.44C34.9312 74.2267 35.0579 73.9267 35.0579 73.54ZM42.5914 76.5H39.3414L38.7214 78H37.0614L40.1814 71H41.7814L44.9114 78H43.2114L42.5914 76.5ZM42.0814 75.27L40.9714 72.59L39.8614 75.27H42.0814ZM47.9376 78.12C47.3843 78.12 46.8476 78.0467 46.3276 77.9C45.8143 77.7467 45.401 77.55 45.0876 77.31L45.6376 76.09C45.9376 76.31 46.2943 76.4867 46.7076 76.62C47.121 76.7533 47.5343 76.82 47.9476 76.82C48.4076 76.82 48.7476 76.7533 48.9676 76.62C49.1876 76.48 49.2976 76.2967 49.2976 76.07C49.2976 75.9033 49.231 75.7667 49.0976 75.66C48.971 75.5467 48.8043 75.4567 48.5976 75.39C48.3976 75.3233 48.1243 75.25 47.7776 75.17C47.2443 75.0433 46.8076 74.9167 46.4676 74.79C46.1276 74.6633 45.8343 74.46 45.5876 74.18C45.3476 73.9 45.2276 73.5267 45.2276 73.06C45.2276 72.6533 45.3376 72.2867 45.5576 71.96C45.7776 71.6267 46.1076 71.3633 46.5476 71.17C46.9943 70.9767 47.5376 70.88 48.1776 70.88C48.6243 70.88 49.061 70.9333 49.4876 71.04C49.9143 71.1467 50.2876 71.3 50.6076 71.5L50.1076 72.73C49.461 72.3633 48.8143 72.18 48.1676 72.18C47.7143 72.18 47.3776 72.2533 47.1576 72.4C46.9443 72.5467 46.8376 72.74 46.8376 72.98C46.8376 73.22 46.961 73.4 47.2076 73.52C47.461 73.6333 47.8443 73.7467 48.3576 73.86C48.891 73.9867 49.3276 74.1133 49.6676 74.24C50.0076 74.3667 50.2976 74.5667 50.5376 74.84C50.7843 75.1133 50.9076 75.4833 50.9076 75.95C50.9076 76.35 50.7943 76.7167 50.5676 77.05C50.3476 77.3767 50.0143 77.6367 49.5676 77.83C49.121 78.0233 48.5776 78.12 47.9376 78.12ZM52.0146 71H53.6346V78H52.0146V71ZM55.2958 71H56.9158V76.68H60.4258V78H55.2958V71ZM65.613 72.32H63.373V71H69.473V72.32H67.233V78H65.613V72.32ZM76.9477 71L73.9177 78H72.3177L69.2977 71H71.0477L73.1777 76L75.3377 71H76.9477Z" fill="black"/>
</svg>
