<svg width="100" height="100" viewBox="0 0 100 100" fill="none" xmlns="http://www.w3.org/2000/svg">
<g clip-path="url(#clip0_840_1773)">
<path fill-rule="evenodd" clip-rule="evenodd" d="M84.6473 52.1585C85.3368 52.7925 86.041 53.44 87.0115 53.5075C88.4143 53.6868 89.6985 52.58 89.9583 51.2378V40.7413C90.05 40.2213 89.7523 39.7348 89.319 39.4565C88.5653 38.9755 87.4265 39.4383 87.27 40.3428C87.2265 42.0153 87.2273 43.6883 87.2278 45.3615C87.2283 46.865 87.2288 48.3683 87.1975 49.871C87.1773 49.9303 87.1855 50.048 87.1935 50.1658C87.2095 50.396 87.2255 50.626 87.0288 50.4163C84.9018 48.5465 82.8078 46.6388 80.714 44.7313C79.3983 43.5328 78.0825 42.334 76.7585 41.1448C76.543 40.9695 76.3333 40.7708 76.1213 40.57C75.442 39.927 74.74 39.2625 73.7575 39.2738C73.6715 39.2638 73.5858 39.2593 73.5005 39.2593C72.2268 39.2593 71.1348 40.3265 70.8915 41.552V52.0163C70.7785 52.6765 71.29 53.3165 71.9158 53.4893C72.6778 53.661 73.3403 53.1895 73.601 52.4923C73.603 51.6168 73.6043 50.7413 73.6055 49.866V49.8643C73.6085 47.8073 73.6115 45.7505 73.6238 43.6935C73.667 43.561 73.648 43.3055 73.6288 43.0478C73.5963 42.6108 73.5633 42.1678 73.833 42.3093C75.7033 43.9563 77.532 45.65 79.3605 47.3438V47.344H79.3608C80.8908 48.7615 82.4208 50.1788 83.9755 51.5688C84.2035 51.7508 84.4245 51.954 84.6473 52.1585ZM89.9203 59.857C89.842 60.0523 89.5778 60.2758 89.323 60.3628C89.0213 60.466 88.5358 60.4855 88.2465 60.4068C87.7585 60.2743 87.4013 59.8965 87.4013 59.513V59.4165H87.7203H88.039L88.1013 59.5433C88.193 59.732 88.3955 59.8228 88.721 59.8228C89.041 59.8228 89.1875 59.7565 89.2783 59.5715C89.3365 59.4515 89.3383 59.4265 89.2948 59.3025C89.2323 59.124 89.1093 59.0548 88.7708 59.0075C88.0158 58.9025 87.7375 58.7838 87.555 58.488C87.4613 58.3358 87.452 58.2955 87.4523 58.0308C87.4528 57.6848 87.5295 57.4943 87.746 57.2983C87.926 57.1358 88.1143 57.055 88.4268 57.0065C88.504 56.9948 88.583 56.9888 88.662 56.988C89.0058 56.9855 89.3543 57.0875 89.5895 57.2668C89.715 57.3625 89.8583 57.6398 89.8913 57.8503L89.9135 57.9938H89.572C89.2985 57.9938 89.23 57.9845 89.23 57.946C89.23 57.8578 89.0665 57.7018 88.932 57.6613C88.8585 57.6398 88.737 57.6218 88.661 57.6218C88.19 57.6218 87.9343 58.0825 88.2865 58.297C88.346 58.3328 88.5025 58.3785 88.6343 58.3985C89.235 58.4895 89.3375 58.5128 89.5295 58.604C89.6695 58.67 89.7665 58.7448 89.8358 58.841C90.017 59.091 90.053 59.5248 89.9203 59.857ZM86.4528 57.0923C86.4528 57.1183 86.2018 57.8755 85.8943 58.7763C85.5868 59.6765 85.3355 60.4185 85.3355 60.4245C85.3355 60.4308 85.2403 60.431 85.124 60.4255L84.9123 60.4155L84.6165 59.586C84.4543 59.1295 84.3088 58.7275 84.2935 58.6928C84.273 58.6465 84.1848 58.8645 83.9583 59.5225L83.6508 60.4155L83.4348 60.4253L83.2185 60.435L82.6685 58.828C82.366 57.9445 82.1183 57.1818 82.1183 57.1335V57.0455H82.4723H82.8265L82.9935 57.562C83.0858 57.8465 83.226 58.3283 83.3058 58.6328L83.45 59.1868L83.7493 58.2775C83.9135 57.7765 84.064 57.3103 84.0833 57.2405C84.1175 57.119 84.1248 57.1135 84.2658 57.1135H84.4128L84.7418 58.0873C84.923 58.6228 85.082 59.0813 85.0963 59.1068C85.1115 59.1338 85.1798 58.921 85.2645 58.5818C85.343 58.268 85.4758 57.7938 85.5603 57.5288L85.7135 57.0455H86.0833C86.3743 57.0455 86.4528 57.0555 86.4528 57.0923ZM80.4075 59.755H81.0685V60.077V60.3985H80.0523H79.0363V58.722V57.0455H80.0355H81.0343V57.3673V57.6895H80.3908H79.7475V58.028V58.3665H80.3405H80.9328V58.6715V58.9763H80.3405H79.7475V59.3655V59.755H80.4075ZM77.5465 57.0455H77.208H76.87L76.861 57.9828L76.852 58.92L75.959 57.9828C75.134 57.1175 75.057 57.0455 74.9513 57.0455H74.8365V58.722V60.3985H75.1758H75.5143V59.4673C75.5143 58.955 75.5265 58.5358 75.5413 58.5358C75.5558 58.5358 75.9638 58.9535 76.4473 59.4645C77.2363 60.2983 77.337 60.393 77.4363 60.3958L77.5465 60.3985V58.722V57.0455ZM70.774 57.2053L70.5543 57.0965L69.7155 57.0855L68.8763 57.0743V58.7365V60.3985H69.5475C69.9165 60.3985 70.3088 60.382 70.4198 60.3618C70.8648 60.2793 71.2493 59.9963 71.461 59.593C71.617 59.2963 71.6603 59.1028 71.6583 58.7053C71.6565 58.3148 71.5763 58.0268 71.388 57.7358C71.2303 57.492 71.0665 57.35 70.774 57.2053ZM69.9005 59.7535C70.074 59.7528 70.2715 59.732 70.342 59.7065C70.7633 59.5563 71.0018 59.1578 70.9685 58.6585C70.9473 58.3405 70.8403 58.097 70.6453 57.9253C70.4548 57.7578 70.332 57.7238 69.9178 57.7238L69.5875 57.7233V58.739V59.755L69.9005 59.7535ZM66.9465 59.191C66.9465 59.1755 67.0003 59.1283 67.0648 59.086C67.3453 58.9045 67.5073 58.5255 67.481 58.1135C67.452 57.6708 67.2275 57.33 66.8473 57.1515C66.662 57.0645 66.642 57.0625 65.8198 57.0515L64.9818 57.0398V58.7193V60.3985H65.3205H65.659V59.8398V59.281H65.944H66.2288L66.5633 59.8315L66.8975 60.3818L67.2775 60.391C67.595 60.3993 67.6575 60.3923 67.6575 60.3508C67.6575 60.3228 67.4975 60.0575 67.3013 59.7598C67.106 59.4625 66.946 59.2065 66.9465 59.191ZM66.539 58.646C66.448 58.6915 66.3355 58.7053 66.0403 58.7053H65.659V58.1975V57.6895H66.0743C66.5495 57.6895 66.6755 57.7363 66.762 57.9428C66.8783 58.2218 66.7825 58.5238 66.539 58.646ZM60.8493 57.4813C61.1598 57.1708 61.5798 57.0123 62.0025 57.0075C62.4248 57.0033 62.85 57.1528 63.1713 57.4563C63.4955 57.7628 63.6593 58.1938 63.6605 58.7405C63.6618 59.4493 63.342 59.9975 62.7603 60.2853C62.5108 60.4083 62.4875 60.413 62.0908 60.4238C61.7293 60.4335 61.6523 60.4253 61.452 60.355C60.7755 60.1185 60.3778 59.5268 60.3763 58.7538C60.375 58.2175 60.5303 57.8005 60.8493 57.4813ZM62.6813 59.519C62.5825 59.6178 62.4625 59.697 62.3585 59.7328C61.8513 59.9053 61.3378 59.6775 61.1593 59.2C61.0695 58.96 61.0618 58.5538 61.143 58.3028C61.2723 57.9018 61.654 57.6653 62.0473 57.672C62.226 57.6748 62.4073 57.7275 62.5685 57.8385C62.69 57.9213 62.759 58.006 62.848 58.1798C62.9563 58.3908 62.9668 58.4355 62.9668 58.7018C62.9665 59.0895 62.8893 59.3108 62.6813 59.519ZM59.2848 59.1793H58.9548H58.624L58.543 59.3365C58.4343 59.5483 58.2688 59.6738 58.012 59.7393C57.8413 59.7828 57.7645 59.7865 57.6295 59.7578C57.277 59.682 57.0868 59.5288 56.933 59.1963C56.7555 58.8115 56.824 58.2888 57.092 57.9845C57.3248 57.7193 57.6668 57.617 58.0185 57.7073C58.2593 57.7688 58.4175 57.8805 58.5218 58.0633L58.5978 58.197L58.9285 58.1975H58.9455C59.1365 58.1975 59.2218 58.1975 59.2465 58.1588C59.2665 58.1273 59.2468 58.0705 59.211 57.9675L59.2068 57.9558C59.0068 57.3838 58.4468 57.0293 57.7515 57.0343C56.988 57.0398 56.4025 57.4783 56.2048 58.1923C56.128 58.468 56.123 58.9535 56.193 59.2238C56.354 59.8418 56.8075 60.2665 57.4468 60.3975C58.2735 60.5668 59.0875 60.0828 59.2535 59.3233L59.2848 59.1793ZM54.3393 59.7475L54.9913 59.7565V60.0778V60.3985H53.9923H52.993V58.722V57.0455H53.975H54.9575V57.3673V57.6895H54.314H53.6708V58.028V58.3665H54.263H54.8558V58.6715V58.9763H54.262H53.6685L53.6778 59.3575L53.6875 59.7383L54.3393 59.7475ZM51.094 59.1295C51.0583 59.141 51.0288 59.1638 51.0288 59.1805C51.0288 59.1975 51.1893 59.4535 51.3845 59.7488C51.5803 60.0445 51.7403 60.3115 51.7403 60.3425C51.7403 60.391 51.692 60.3985 51.3703 60.3985H51.0013L50.6658 59.8483L50.33 59.2978H50.0445H49.759L49.7495 59.8483L49.7403 60.3985H49.4025H49.0648V58.7198V57.0405L49.9065 57.052L50.7485 57.0628L50.9803 57.1813C51.2528 57.32 51.4313 57.5295 51.521 57.8158C51.6005 58.0688 51.5778 58.4963 51.4735 58.6985C51.3825 58.8748 51.1833 59.101 51.094 59.1295ZM50.659 58.632C50.546 58.6955 50.4758 58.7053 50.135 58.7053H49.7418V58.1975V57.6895H50.157C50.5085 57.6895 50.588 57.6998 50.6803 57.7558C50.986 57.942 50.974 58.4555 50.659 58.632ZM66.8993 50.2873C66.0875 49.646 65.232 49.0645 64.3743 48.4875C66.3025 48.528 68.1003 46.979 68.3005 45.0535C68.304 44.9385 68.308 44.823 68.312 44.7073C68.3423 43.8205 68.3733 42.9183 68.1758 42.0535C67.748 40.6135 66.4128 39.43 64.9088 39.2828H50.0638C49.4165 39.5128 48.9913 40.1648 49.086 40.8563C49.0523 44.5798 49.0493 48.3045 49.0888 52.028C48.9685 52.9328 49.9075 53.732 50.7825 53.479C51.3965 53.295 51.9025 52.67 51.7965 52.0135C51.8085 51.697 51.8078 51.3785 51.807 51.0598C51.8053 50.4065 51.8035 49.7525 51.912 49.115C52.108 48.639 52.626 48.3978 53.1165 48.4783C53.3565 48.4788 53.597 48.4775 53.8378 48.4763C55.3878 48.468 56.9498 48.4598 58.4433 48.931C61.3238 49.7193 63.7923 51.4785 66.1583 53.2335C66.913 53.8895 68.184 53.3338 68.3075 52.371C68.487 51.5148 67.7873 50.9755 67.174 50.5025C67.0793 50.4295 66.9865 50.358 66.8993 50.2873ZM55.2775 45.645C57.7558 45.642 60.234 45.6388 62.7123 45.6303C62.984 45.6095 63.2618 45.6173 63.54 45.6248C64.0683 45.6393 64.5978 45.6538 65.0888 45.4748C65.705 45.1415 65.679 44.4738 65.6548 43.849C65.6483 43.6845 65.642 43.523 65.6475 43.3715C65.7458 42.7993 65.294 42.2013 64.7163 42.14C62.5648 42.1108 60.414 42.1065 58.2625 42.108C57.5723 42.1083 56.882 42.1095 56.192 42.1105C54.7305 42.1128 53.269 42.115 51.808 42.1108V45.65C52.9645 45.648 54.121 45.6465 55.2775 45.645Z" fill="black"/>
<path fill-rule="evenodd" clip-rule="evenodd" d="M43.035 46.25C42.8765 49.9735 40.2863 53.0127 37.7228 55.472C34.3248 58.7665 29.9843 61.2642 25.209 61.7175C23.6988 61.7942 21.2113 62.161 21.447 64.1905C21.755 66.2445 24.0628 66.9072 25.8323 67.068C29.7138 67.3397 33.6443 66.0515 36.778 63.7885C41.3875 60.4445 43.7428 54.6535 43.4613 49.0432C43.5105 48.4777 43.1713 45.9382 43.0655 45.9382C43.0455 45.9382 43.0338 46.0315 43.035 46.25Z" fill="url(#paint0_linear_840_1773)"/>
<path fill-rule="evenodd" clip-rule="evenodd" d="M26.4475 32.4998C22.356 32.5155 18.2753 34.0073 15.3828 36.965C16.132 36.5218 17.833 35.8443 19.1158 35.8665C25.0995 35.7085 30.8075 38.7168 34.8752 42.9595C36.4022 44.3313 37.376 46.3955 39.3277 47.2285C39.5437 47.292 39.774 47.3085 39.9967 47.2748C41.7357 46.818 42.4065 44.7085 42.0347 43.0995C40.7465 39.9155 38.4353 37.1528 35.5893 35.236C32.9545 33.421 29.7622 32.5108 26.5692 32.4998H26.4475Z" fill="url(#paint1_linear_840_1773)"/>
<path fill-rule="evenodd" clip-rule="evenodd" d="M13.7486 39.2473C11.7372 41.6513 10.6125 44.6803 10.171 47.7643C9.88312 49.3886 10.0137 51.1988 10.1635 52.7446C10.4255 53.9273 10.6349 55.2361 11.0964 56.4003C12.8521 61.3603 17.1842 65.2223 22.2255 66.6451L22.4082 66.6756C21.4662 66.0681 20.571 65.3608 19.873 64.4626C19.2717 63.6681 18.5925 62.6446 18.3095 61.7873C17.305 59.7291 16.803 57.4581 16.54 55.1748C15.9767 51.3636 16.7352 47.5121 17.7767 43.8736C18.214 42.3603 19.0785 40.6223 18.1967 39.1126C17.6932 38.6081 17.0205 38.4031 16.3195 38.4031C15.404 38.4031 14.4411 38.7541 13.7486 39.2473Z" fill="url(#paint2_linear_840_1773)"/>
</g>
<defs>
<linearGradient id="paint0_linear_840_1773" x1="21.4313" y1="67.1042" x2="43.484" y2="67.1042" gradientUnits="userSpaceOnUse">
<stop stop-color="#AFEDFF"/>
<stop offset="1" stop-color="#2856FB"/>
</linearGradient>
<linearGradient id="paint1_linear_840_1773" x1="7.90143" y1="39.405" x2="21.39" y2="57.8448" gradientUnits="userSpaceOnUse">
<stop stop-color="#AFEDFF"/>
<stop offset="1" stop-color="#2856FB"/>
</linearGradient>
<linearGradient id="paint2_linear_840_1773" x1="9.99997" y1="66.6756" x2="22.408" y2="66.6756" gradientUnits="userSpaceOnUse">
<stop stop-color="#AFEDFF"/>
<stop offset="1" stop-color="#2856FB"/>
</linearGradient>
<clipPath id="clip0_840_1773">
<rect width="100" height="100" fill="white"/>
</clipPath>
</defs>
</svg>
