<svg width="100" height="100" viewBox="0 0 100 100" fill="none" xmlns="http://www.w3.org/2000/svg">
<g clip-path="url(#clip0_840_1772)">
<path d="M78.522 34.4938C78.9704 41.8328 77.1767 48.528 72.4491 54.357C66.0735 62.221 57.6958 65.6701 47.4854 64.988C45.625 64.8654 43.8708 64.4208 42.5178 63.0373C40.8147 61.3357 40.6416 58.998 42.1008 57.2121C43.2139 55.8516 44.7361 55.1924 46.4273 54.7824C50.9308 53.6978 55.3989 52.5097 59.6388 50.6204C65.8729 47.842 71.2967 44.1054 74.8955 38.2534C75.6963 36.8664 76.3338 35.3956 76.7952 33.8691C77.0313 33.1563 77.1098 32.3362 78.0579 31.9797C78.7145 32.7348 78.0968 33.7196 78.522 34.4938Z" fill="black"/>
<path d="M31.8433 15.5729C31.8 14.7451 32.5669 14.5688 33.0547 14.2239C44.8187 5.94981 61.3735 7.65905 70.9861 18.2555C73.5072 21.0379 75.7058 24.1267 76.63 27.8365C77.6135 29.6722 76.4334 30.9024 75.2656 32.01C73.8926 33.3207 72.2643 34.0641 70.2781 33.3053C68.9565 32.8032 67.985 31.8567 67.0254 30.8986C62.8129 26.683 58.4157 22.7011 53.161 19.731C48.3429 17.0062 43.2455 15.1667 37.5543 15.3046C36.3157 15.3853 35.0843 15.5492 33.8689 15.7952C33.1766 15.9063 32.453 16.1976 31.8433 15.5729Z" fill="black"/>
<path d="M34.9196 61.1745C34.0249 60.8703 33.2163 60.3648 32.5597 59.699C32.2529 59.2391 32.839 58.9555 32.7958 58.5224C32.3474 58.6144 32.0091 59.0782 31.4781 58.8444C19.5095 50.3863 17.2323 31.0252 26.8803 20.1106C28.3198 18.4818 29.9993 17.9185 32.0996 18.317C34.546 18.7271 35.722 19.9956 35.8675 22.4062C35.9533 23.6138 35.8202 24.8268 35.4742 25.9894C33.842 31.3049 32.5519 36.7201 32.5008 42.2732C32.4535 47.4162 32.9807 52.567 35.4979 57.2769C35.6512 57.687 35.8164 58.1661 35.545 58.5224C35.0769 59.128 34.8921 59.561 35.545 60.2356C36.0248 60.7453 35.8439 61.2818 34.9196 61.1745Z" fill="black"/>
<path d="M35.3271 57.825C36.4835 59.6683 38.2652 61.0747 39.2092 63.0676C37.5927 62.8415 36.2475 62.029 34.922 61.1744C35.1855 60.9789 35.7874 60.8257 35.1974 60.408C34.108 59.6415 33.573 59.0092 35.2642 58.3614C35.3468 58.3423 35.3074 58.0166 35.3271 57.825Z" fill="black"/>
<path d="M31.4675 58.8287C31.7087 58.7568 31.9298 58.632 32.1139 58.464C32.298 58.2959 32.4401 58.089 32.5294 57.8591C32.7952 58.0052 33.0354 58.1914 33.2412 58.411C33.7446 59.1775 32.4153 59.0625 32.5491 59.6834L31.4675 58.8287Z" fill="black"/>
<path d="M67.056 57.3682C67.532 57.5521 67.764 57.6901 67.6932 57.966C67.6617 58.0925 67.4454 58.1768 67.2999 58.2841C67.1391 58.1249 67.0062 57.9411 66.9066 57.7399C66.879 57.6135 67.0285 57.4295 67.056 57.3682Z" fill="black"/>
<path d="M72.1592 44.0513C72.5525 44.082 72.6508 44.3157 72.5957 44.5687C72.558 44.6387 72.5016 44.6974 72.4323 44.7386C72.3631 44.7797 72.2836 44.8018 72.2024 44.8025C71.9821 44.7603 71.6637 44.6836 71.7738 44.3541C71.8407 44.2161 72.057 44.1318 72.1592 44.0513Z" fill="black"/>
<path d="M60.3999 23.0306C60.0617 23.0306 59.7825 22.7968 59.8572 22.5898C60.0719 22.0082 60.4895 21.5185 61.0371 21.2063C61.0922 21.1718 61.5288 21.5053 61.5209 21.6471C61.4816 22.3522 60.8877 22.6741 60.3999 23.0306Z" fill="black"/>
<path d="M62.3204 13.9285C62.0529 13.8518 61.8603 13.687 61.9271 13.4034C61.9354 13.3415 61.9583 13.2823 61.9939 13.2304C62.0296 13.1785 62.077 13.1353 62.1325 13.1042C62.188 13.073 62.2502 13.0548 62.3142 13.0509C62.3781 13.0469 62.4422 13.0574 62.5013 13.0815C62.5773 13.1241 62.642 13.1834 62.6905 13.2545C62.739 13.3257 62.7697 13.4068 62.7806 13.4916C62.7904 13.5521 62.7852 13.6142 62.7654 13.6724C62.7456 13.7306 62.7117 13.7833 62.6666 13.8261C62.6215 13.8689 62.5666 13.9006 62.5064 13.9184C62.4461 13.9362 62.3823 13.9396 62.3204 13.9285Z" fill="black"/>
<path d="M26.0089 49.9219C26.7168 50.5542 27.1888 51.1866 26.4572 52.5088C26.4021 51.3974 25.2891 50.9452 26.0089 49.9219Z" fill="black"/>
<path d="M32.6453 55.3793L32.3541 55.0306C32.4837 54.9421 32.6271 54.8748 32.7789 54.8313C32.8615 54.8313 33.011 54.9616 33.0464 55.0651C33.1329 55.3333 32.9363 55.3793 32.6453 55.3793Z" fill="black"/>
<path d="M75.701 33.4543C73.7738 39.4979 69.8014 43.4644 64.7945 46.6107C59.3391 50.0599 53.2703 51.9761 47.0166 53.4707C46.4462 53.6049 45.872 53.7352 45.3056 53.8885C41.6046 54.8925 40.3223 56.4523 39.8346 60.6986C37.4813 58.3536 35.7869 55.458 34.9142 52.2903C32.692 44.8095 33.6439 37.3939 35.4925 30.009C35.8504 28.5871 36.3066 27.1883 36.7038 25.7933C37.8838 21.6505 37.2073 19.7228 33.5927 17.067C37.4276 16.0783 41.0657 16.3695 44.6684 17.3851C52.3892 19.5542 58.4344 24.245 64.0235 29.6487C64.9517 30.5493 65.8406 31.4844 66.7767 32.3888C69.6086 35.1481 71.9016 35.4892 75.701 33.4543Z" fill="black"/>
<path d="M61.0193 27.8249L59.0527 28.8136C59.0527 27.5145 59.387 26.8668 61.0193 27.8249Z" fill="black"/>
<path d="M57.3484 25.1846C57.7418 25.1846 58.1862 25.2459 58.261 25.6866C58.3357 26.1273 57.9581 26.1235 57.612 26.1158C57.2659 26.1082 56.786 26.1963 56.7113 25.6789C56.6484 25.2382 57.0181 25.2114 57.3484 25.1846Z" fill="black"/>
<path d="M37.3833 88.6698C37.9221 89.0531 37.9183 89.0531 37.4463 89.5014C36.699 90.18 35.8072 90.689 34.8346 90.9924H31.519C30.7564 90.7335 30.0359 90.3692 29.3794 89.9114C28.4295 89.196 27.7159 88.2243 27.3272 87.1173C26.9384 86.0103 26.8917 84.8165 27.1925 83.6842C27.4967 82.5444 28.1393 81.5173 29.0397 80.7322C29.9402 79.947 31.0585 79.438 32.2545 79.2692C33.1685 79.1271 34.1036 79.1892 34.9893 79.4509C35.875 79.7127 36.6883 80.1664 37.3676 80.7787C37.5918 80.9782 37.6272 81.1121 37.4069 81.3458C37.0136 81.7757 36.64 82.2355 36.2624 82.6838C36.1601 82.8061 36.0814 82.8867 35.9359 82.7255C35.3867 82.1576 34.6712 81.7681 33.8867 81.6103C33.4646 81.5303 33.0306 81.5303 32.6085 81.6103C31.6838 81.7996 30.8614 82.3107 30.2958 83.048C29.7789 83.7416 29.5308 84.5917 29.5956 85.4465C29.6604 86.3021 30.0339 87.107 30.6498 87.7193C31.2605 88.3295 32.0766 88.704 32.948 88.7743C33.8195 88.8447 34.6878 88.6063 35.3932 88.1026L35.6763 87.9188C35.8691 87.7459 36.1562 87.815 36.3607 87.6735L36.5338 87.8423C36.636 87.9612 36.6832 88.1334 36.8681 88.1716L37.2142 88.5126C37.2575 88.6548 37.053 88.7463 37.1395 88.896C37.2693 88.8652 37.2024 88.639 37.3833 88.6698Z" fill="black"/>
<path d="M92.355 80.193C91.9025 80.9249 91.6117 81.7258 91.2377 82.4925L90.4903 84.0252C90.3606 84.3395 90.0426 84.5698 90.0583 84.949C89.2713 86.7886 88.3901 88.5782 87.5527 90.3911C87.5165 90.5052 87.4421 90.605 87.3417 90.6747C87.2421 90.7437 87.1206 90.7786 86.9978 90.7745C86.8694 90.7717 86.7452 90.7294 86.6428 90.6535C86.5404 90.5777 86.4647 90.4724 86.4278 90.3528C85.948 89.308 85.4695 88.2605 84.9918 87.2102C84.0007 85.0386 83.0124 82.8669 82.0261 80.6953C81.9913 80.6188 81.9756 80.5381 81.9476 80.4616C81.9347 80.3605 81.9558 80.258 82.0063 80.1691C82.0575 80.0803 82.136 80.0092 82.2309 79.9669C82.3442 79.8944 82.4807 79.8637 82.6152 79.8814C82.7496 79.8992 82.8732 79.9634 82.9626 80.0625C83.525 81.0554 83.9304 82.1166 84.4061 83.1286C85.2791 85.003 86.1207 86.8883 87.01 88.8468C87.4032 88.0568 87.7294 87.3407 88.0598 86.6164C88.9962 84.5876 89.9306 82.5574 90.8643 80.5265C90.9824 80.2621 91.1005 79.9935 91.2302 79.7332C91.525 79.1318 91.8001 79.0628 92.355 79.4496V80.193Z" fill="black"/>
<path d="M20.7534 81.6568C20.5292 81.6794 20.553 81.8441 20.553 81.9978C20.553 82.5493 20.553 83.1055 20.553 83.6569C20.553 83.9521 20.6513 84.0403 20.9462 84.0403C22.3818 84.0403 23.8135 84.0403 25.2491 84.0403C25.4025 84.0403 25.5598 84.0403 25.7132 84.0635C25.9256 84.6054 25.9491 85.2006 25.78 85.7575C25.7289 86.0062 25.4496 85.983 25.2412 85.9871C24.49 85.9871 23.7388 85.9871 22.9875 85.9871H21.4143C21.2023 85.9687 20.9892 86.0097 20.8007 86.106C20.7278 86.1217 20.659 86.1518 20.5988 86.1948C20.5387 86.2379 20.4885 86.2932 20.4514 86.3561C20.4144 86.4197 20.3913 86.4894 20.3838 86.5618C20.3761 86.6342 20.3842 86.7073 20.4074 86.7764C20.5646 87.2725 20.6024 87.7973 20.5175 88.3098C20.5175 88.6931 20.6198 88.7464 20.9344 88.7157C21.0903 88.704 21.2467 88.704 21.4025 88.7157C21.4536 88.7157 21.5283 88.7157 21.5165 88.8004C21.5048 88.8844 21.426 88.8961 21.3749 88.9111C21.7786 89.0232 22.2094 89.0006 22.5981 88.8462C22.9182 88.7355 23.259 88.6938 23.5972 88.7232C23.8803 88.7232 23.6916 88.8421 23.5972 88.9494C23.9977 88.7717 24.436 88.6904 24.8755 88.7122C25.0092 88.7348 25.0366 88.7122 24.9934 88.892C24.9934 88.961 25.017 88.9111 25.017 88.9186C25.3395 88.8728 25.6974 89.1257 25.9845 88.7505C26.0946 88.6125 26.378 88.7731 26.551 88.6733C26.7241 88.5742 26.783 88.7157 26.783 88.8694C26.783 89.4366 26.783 90.0188 26.783 90.5709C26.783 90.8852 26.5588 90.8313 26.366 90.8313H21.5479C20.4978 90.8313 19.4437 90.8313 18.4014 90.8313C18.1222 90.8313 18.0081 90.7814 18.0081 90.4711C18.0081 86.9301 18.0081 83.3891 18.0081 79.8474C18.0081 79.5829 18.079 79.4872 18.3661 79.4913C21.0511 79.4913 23.7374 79.4913 26.4251 79.4913C26.6887 79.4913 26.8184 79.5528 26.7948 79.8364C26.8165 80.4268 26.7968 81.0186 26.7358 81.6069C26.6454 81.5721 26.6807 81.2236 26.4604 81.5106C26.4133 81.5762 26.2795 81.5721 26.1851 81.5912C25.7678 81.5372 25.3454 81.5304 24.9265 81.5721C24.8842 81.5844 24.8407 81.5919 24.7967 81.5953C24.384 81.5338 23.9648 81.5263 23.5499 81.5721C23.5075 81.5837 23.464 81.5912 23.4201 81.5953C22.5708 81.4997 21.7129 81.4997 20.8636 81.5953L20.7534 81.6568Z" fill="black"/>
<path d="M75.6212 85.5087C75.6212 83.9753 75.6212 82.4658 75.6212 80.944C75.6212 80.6221 75.5386 80.5108 75.1924 80.5224C74.2288 80.5415 73.2612 80.5224 72.2936 80.5224C72.1619 80.5326 72.0294 80.5237 71.9004 80.4957C71.6486 80.4267 71.4402 80.262 71.4638 80.001C71.4725 79.8746 71.5294 79.7557 71.6232 79.6682C71.717 79.5801 71.8411 79.5295 71.9712 79.5261C72.0852 79.5206 72.1994 79.5206 72.3134 79.5261H80.2856C80.6242 79.5261 80.8876 79.6757 80.8794 80.0317C80.8719 80.3884 80.6085 80.5265 80.2658 80.5265C79.2714 80.5265 78.2762 80.5265 77.2852 80.5265C76.8914 80.5265 76.7774 80.6146 76.7815 81.0055C76.7815 83.9794 76.7815 86.9532 76.7815 89.9271C76.7979 90.1061 76.7808 90.2865 76.7303 90.4601C76.6996 90.5899 76.6218 90.7047 76.5112 90.7833C76.4006 90.8626 76.2648 90.8995 76.1283 90.8892C75.9836 90.8783 75.8484 90.8147 75.7502 90.7109C75.6519 90.607 75.5973 90.471 75.5973 90.3296C75.5741 90.0111 75.5973 89.6934 75.5973 89.375L75.6212 85.5087Z" fill="black"/>
<path d="M61.5481 79.5186C61.2099 79.9819 61.3711 80.4958 61.4458 80.9782C61.4899 81.132 61.5228 81.2878 61.5442 81.4463C61.5442 82.9367 61.6307 84.4352 61.5127 85.9146C61.4419 86.7579 61.4025 87.597 61.371 88.4402C61.3514 88.9076 61.6543 89.3292 61.5481 89.8042C61.5391 90.0064 61.498 90.2053 61.4262 90.3946C61.2374 90.7779 61.552 90.7472 61.8195 90.7396C62.2671 90.687 62.7189 90.6768 63.1685 90.7089C64.2226 90.7089 65.2806 90.6549 66.3387 90.7396H66.9562C66.7022 90.8175 66.4341 90.8428 66.1696 90.8121C64.6907 90.8121 63.2118 90.8121 61.733 90.8121C61.4301 90.8121 61.3121 90.7547 61.316 90.4294C61.316 86.8993 61.316 83.3699 61.316 79.8439C61.3003 79.71 61.2138 79.4646 61.5481 79.5186Z" fill="black"/>
<path d="M20.6715 86.0869C20.711 86.0022 20.7772 85.9311 20.8606 85.8854C20.9441 85.8389 21.0405 85.8198 21.1357 85.8307C22.4848 85.8307 23.8338 85.8307 25.1829 85.8307C25.5762 85.8307 25.7493 85.7535 25.7139 85.336C25.6785 84.9184 25.7139 84.462 25.7139 84.0253C25.9695 83.9529 26.0836 84.0253 26.0757 84.3014C26.0757 84.8262 26.0757 85.3517 26.0757 85.8806C26.0757 86.076 26.0364 86.1833 25.7965 86.1833C24.0895 86.1833 22.3864 86.1642 20.6833 86.156C20.6519 86.156 20.6441 86.1218 20.6519 86.1027C20.6599 86.0835 20.6597 86.0869 20.6715 86.0869Z" fill="black"/>
<path d="M20.671 86.0874V86.1715C20.5176 86.2637 20.553 86.4127 20.553 86.5548C20.553 87.1336 20.553 87.7042 20.553 88.2946C20.553 88.5973 20.6632 88.6779 20.9464 88.6588C22.6612 88.6588 24.376 88.6588 26.0948 88.6588C26.2482 88.6588 26.4055 88.6588 26.5589 88.6588C26.4993 88.6916 26.4359 88.7169 26.3701 88.7353C26.2443 88.7353 26.2482 88.7353 26.1734 88.9157C26.0987 89.0954 25.9925 88.9649 25.906 88.9957C25.4458 89.1645 25.0171 88.9308 24.5097 88.9731C24.6828 88.7312 24.9031 88.8959 25.0407 88.7545H24.1833C24.1833 88.8351 24.4665 88.9765 24.1321 88.9841C23.7978 88.9923 23.5186 88.9841 23.1725 88.9841C23.2905 88.7046 23.5461 88.9116 23.6681 88.7504H22.8146C22.7792 88.8235 23.1214 88.9649 22.8146 88.9731C22.2089 88.9731 21.5952 89.1645 20.9581 88.9075C21.1115 88.7586 21.3003 88.8617 21.4537 88.7886C21.4222 88.7661 21.4105 88.7428 21.3908 88.7394C21.0997 88.7005 20.7457 88.8542 20.5294 88.6547C20.3131 88.4558 20.5687 88.1415 20.5294 87.888C20.4705 87.5436 20.5648 87.206 20.3013 86.8575C20.0653 86.5698 20.3563 86.2637 20.671 86.0874Z" fill="black"/>
<path d="M7.13342 90.6591C7.73347 90.6892 8.33479 90.6892 8.93484 90.6591C9.35175 90.6051 9.60344 90.4288 9.48937 90.0455C9.39282 89.494 9.37433 88.9316 9.43435 88.3747C9.43435 88.0296 9.65067 87.7078 9.61526 87.3401C9.61526 87.252 9.70962 87.267 9.76468 87.3401C9.63095 87.4625 9.6939 87.6272 9.6939 87.7693C9.6939 88.6542 9.67424 89.5398 9.6939 90.4213C9.6939 90.7582 9.58767 90.8463 9.25728 90.8313C8.64765 90.8081 8.03805 90.8313 7.42841 90.8313C7.29468 90.8238 7.10196 90.9037 7.13342 90.6591Z" fill="black"/>
<path d="M82.9612 80.0428C82.7728 80.1966 82.6786 79.775 82.3954 79.9895C82.2083 80.1002 82.0534 80.256 81.9469 80.4419C81.8521 80.2731 81.7702 80.0975 81.7026 79.9164C81.6842 79.8426 81.6814 79.7654 81.6937 79.6895C81.7067 79.6144 81.7347 79.5419 81.7763 79.4777C81.8179 79.4128 81.8732 79.3568 81.9374 79.313C82.0015 79.2693 82.0746 79.2385 82.151 79.2228C82.2172 79.2044 82.2868 79.1996 82.3551 79.2092C82.4227 79.2187 82.4882 79.2426 82.5462 79.2789C82.6035 79.3151 82.6527 79.3636 82.6902 79.4196C82.7271 79.4763 82.751 79.5399 82.7612 79.6062C82.7919 79.7647 82.8609 79.9144 82.9612 80.0428Z" fill="black"/>
<path d="M20.756 81.6568V81.6035C20.8818 81.4114 21.0745 81.488 21.2476 81.4955C21.5326 81.5372 21.8218 81.546 22.109 81.5228C22.3542 81.488 22.6032 81.488 22.8484 81.5228C23.0569 81.4763 23.2693 81.6301 23.4777 81.5228C23.8388 81.4784 24.2046 81.4859 24.5633 81.5454C24.6577 81.5454 24.756 81.5918 24.8465 81.5228C25.2062 81.4784 25.5707 81.4866 25.9281 81.5454C26.0225 81.5454 26.1208 81.5918 26.2112 81.5228C26.3018 81.4538 26.3922 81.4688 26.463 81.4231C26.7462 81.2351 26.7305 81.4231 26.7266 81.611C26.6793 81.611 26.6281 81.6718 26.581 81.6718L20.756 81.6568Z" fill="black"/>
<path d="M60.0158 84.3622C59.8651 83.7896 59.8557 83.1909 59.9882 82.6142C60.0067 82.4939 60.0172 82.3723 60.0197 82.25C60.27 82.9333 60.2687 83.6795 60.0158 84.3622Z" fill="black"/>
<path d="M71.8814 86.1177C71.8814 85.7883 71.9011 85.4548 71.8814 85.1289C71.8617 84.8036 72.0308 84.5542 71.669 84.3014C71.5274 84.2016 71.5784 83.78 71.7161 83.5347C72.034 84.3608 72.0916 85.2601 71.8814 86.1177Z" fill="black"/>
<path d="M36.3678 87.6694C36.2263 87.7425 36.3954 87.8765 36.293 87.9879C36.209 87.9209 36.107 87.8785 35.9991 87.8656C35.8912 87.8526 35.7818 87.8697 35.6835 87.9148C35.774 87.8157 35.8762 87.7193 35.9628 87.612C36.1397 87.3858 36.2696 87.4091 36.3678 87.6694Z" fill="black"/>
<path d="M37.3839 88.6705C37.3839 88.7047 37.3288 88.7355 37.321 88.7696C37.2935 88.9001 37.3485 89.0614 37.1793 89.1263C37.0967 89.1571 37.0732 89.0723 37.0457 89.0074C36.9788 88.8468 36.9159 88.6972 37.1283 88.5899C37.1624 88.566 37.1941 88.5393 37.2227 88.5093C37.2655 88.5113 37.3059 88.5291 37.3358 88.5585C37.3658 88.5885 37.3829 88.6282 37.3839 88.6705Z" fill="black"/>
<path d="M90.0569 84.9369C89.8323 84.466 90.2848 84.2973 90.4889 84.0137C90.4056 84.3451 90.2589 84.6581 90.0569 84.9369Z" fill="black"/>
<path d="M32.6151 81.6111C33.0281 81.4656 33.4804 81.4656 33.8934 81.6111H32.6151Z" fill="black"/>
<path d="M36.8731 88.1682C36.4994 88.3138 36.6291 87.9687 36.5387 87.8389C36.6159 87.8662 36.6858 87.9099 36.7436 87.9666C36.8014 88.024 36.8456 88.0924 36.8731 88.1682Z" fill="black"/>
<path d="M37.6423 86.5933C37.7132 86.6725 37.7657 86.7661 37.7963 86.8673C37.8268 86.9684 37.8346 87.075 37.8193 87.1796C37.703 87.0046 37.6415 86.801 37.6423 86.5933Z" fill="black"/>
<path d="M71.2086 82.3462C71.1256 82.3114 71.0555 82.2526 71.0071 82.1781C70.9587 82.1036 70.9343 82.0169 70.9372 81.9287C71.0688 82.038 71.1634 82.1836 71.2086 82.3462Z" fill="black"/>
<path d="M14.697 79.9546C14.5475 79.9546 14.4138 79.9546 14.3548 79.7824C14.4222 79.7804 14.4891 79.7947 14.549 79.8248C14.6089 79.8549 14.6599 79.9 14.697 79.9546Z" fill="black"/>
<path d="M37.5531 86.1792C37.7184 86.2899 37.6318 86.4553 37.6475 86.5967C37.5675 86.4723 37.5342 86.3247 37.5531 86.1792Z" fill="black"/>
<path d="M49.7094 84.1709C49.2059 81.6877 47.6719 80.0319 45.1626 79.4074C42.6533 78.7828 40.4822 79.4989 38.8185 81.4458C38.251 82.0895 37.8419 82.8507 37.6224 83.6714C37.4029 84.4927 37.3789 85.3517 37.5521 86.1826C37.6818 86.3015 37.552 86.4744 37.6464 86.6008C37.7178 86.7922 37.7769 86.9883 37.8234 87.1871C38.146 88.1465 38.7307 89.0021 39.5146 89.6628C40.226 90.2485 41.042 90.7022 41.9217 91.0001H45.3357C45.4301 90.8812 45.5834 90.8812 45.729 90.8354C47.0944 90.3626 48.2436 89.4339 48.9724 88.2135C49.7011 86.9937 49.9623 85.5608 49.7094 84.1709ZM43.6011 88.7697C42.6418 88.7465 41.7307 88.3543 41.0674 87.6784C40.4041 87.0026 40.0423 86.0986 40.0613 85.1638C40.0535 84.695 40.1416 84.2303 40.3205 83.7951C40.4994 83.3605 40.7654 82.9648 41.1031 82.632C41.4408 82.2986 41.8433 82.0341 42.2871 81.8544C42.7309 81.674 43.207 81.5824 43.6877 81.5838C44.1646 81.594 44.6348 81.6959 45.0712 81.8831C45.5076 82.071 45.9017 82.3409 46.2307 82.6771C46.5597 83.014 46.8171 83.4103 46.9882 83.8443C47.1593 84.2782 47.2406 84.7408 47.2275 85.2055C47.2312 85.6722 47.1401 86.1348 46.9595 86.5667C46.779 86.9985 46.5124 87.3914 46.1754 87.7229C45.8384 88.0543 45.4374 88.3174 44.9956 88.4971C44.5538 88.6768 44.0799 88.769 43.6011 88.7697Z" fill="black"/>
<path d="M60.0354 83.5154C60.057 83.0945 60.057 82.6722 60.0354 82.2505C59.8306 81.4818 59.3745 80.7978 58.7359 80.3037C58.0973 79.8097 57.3109 79.5309 56.4955 79.5104C54.6076 79.4837 52.7158 79.5104 50.824 79.5104C50.5329 79.5104 50.466 79.6101 50.47 79.8937C50.4896 80.4459 50.47 80.9973 50.47 81.5535C50.47 84.5117 50.47 87.4746 50.47 90.4369C50.47 90.7854 50.5762 90.8851 50.9262 90.8701C51.4926 90.8428 52.0629 90.8428 52.6292 90.8701C52.9635 90.8701 53.0225 90.7662 53.0225 90.4635C53.0029 89.6627 53.0225 88.8618 53.0225 88.0568V87.4282L53.1523 87.3749C54.1239 88.3404 55.1189 89.2909 56.0629 90.2831C56.2412 90.4929 56.4697 90.6569 56.7283 90.7608C56.9868 90.864 57.2675 90.9043 57.5456 90.8776C58.3559 90.8236 59.174 90.8776 59.9921 90.8776L60.0433 90.7738L56.3775 87.2136C58.2222 86.999 59.524 86.1749 60.0314 84.4119C59.996 84.0791 60.0669 83.7874 60.0354 83.5154ZM56.0433 85.0023C55.591 85.0256 55.1346 85.0023 54.6823 85.0023C54.2261 85.0023 53.7738 85.0023 53.3215 85.0023C53.0776 85.0023 52.999 84.9258 53.0029 84.6921C53.0029 83.8106 53.0029 82.925 53.0029 82.0442C53.0029 81.818 53.0697 81.7216 53.3136 81.7257C54.2221 81.7257 55.1307 81.7257 56.0393 81.7257C56.2529 81.7251 56.4644 81.7661 56.6614 81.8467C56.8584 81.9267 57.037 82.0449 57.1865 82.1931C57.3361 82.3421 57.4536 82.5184 57.5321 82.7118C57.6107 82.9052 57.6487 83.1122 57.644 83.32C57.6524 83.5332 57.6177 83.7457 57.5418 83.9452C57.4659 84.1448 57.3503 84.3286 57.2016 84.4844C57.0529 84.6408 56.8741 84.7673 56.6753 84.8561C56.4765 84.9449 56.2618 84.9948 56.0433 85.0023Z" fill="black"/>
<path d="M50.7906 88.6999C50.7906 89.1406 50.7906 89.5814 50.7906 90.0221C50.7906 90.1069 50.8535 90.2408 50.704 90.2558C50.5546 90.2716 50.5389 90.1677 50.5389 90.057V87.2054C50.5389 87.1214 50.5389 87.0257 50.6686 87.0291C50.7984 87.0332 50.7906 87.1289 50.7906 87.213V88.6999Z" fill="black"/>
<path d="M50.564 81.9595V80.4268C50.7921 80.9249 50.6781 81.4381 50.7018 81.9595H50.564Z" fill="black"/>
<path d="M13.3327 87.1065C14.033 87.0484 14.7032 86.8024 15.2695 86.3965C15.8357 85.9913 16.2761 85.4412 16.5421 84.807C17.3956 82.9791 16.4831 80.6141 14.6974 79.9322C14.5834 79.8748 14.4458 79.8631 14.3553 79.76C14.0438 79.5912 13.6929 79.5044 13.3366 79.5071C11.3504 79.5071 9.36415 79.5071 7.37397 79.4839C7.08685 79.4839 7.09858 79.6335 7.09858 79.8249C7.09858 80.7679 7.09858 81.7068 7.09858 82.6457V90.6475C7.64588 90.765 8.20911 90.7944 8.76623 90.7357C9.48206 90.709 9.62373 90.5635 9.52934 89.8507C9.486 89.0321 9.51361 88.2114 9.61192 87.3976C9.61192 87.3326 9.667 87.3094 9.72993 87.3327C10.8548 88.4287 11.977 89.5282 13.0966 90.6325C13.1594 90.6967 13.2361 90.7473 13.321 90.7794C13.406 90.8122 13.4972 90.8259 13.5883 90.8197C14.5125 90.8197 15.4369 90.8197 16.3612 90.8197C16.4477 90.8197 16.5657 90.8696 16.6286 90.6974L13.0652 87.1331C13.1282 87.0949 13.2343 87.1181 13.3327 87.1065ZM9.68662 85.0066C9.4349 84.6574 9.53327 84.2399 9.53327 83.8798C9.5025 83.2477 9.5288 82.6142 9.61192 81.9862C9.64338 81.8332 9.65119 81.7293 9.84784 81.7293C10.9295 81.7293 12.0071 81.7293 13.0888 81.7293C13.1124 81.7293 13.1321 81.7567 13.1557 81.7717C13.498 81.8926 13.7921 82.1161 13.9957 82.4099C14.1993 82.7044 14.3018 83.0536 14.2884 83.4083C14.2791 83.8333 14.0987 84.2378 13.786 84.5351C13.4733 84.8317 13.0533 84.997 12.6168 84.995C11.6374 85.0175 10.6738 85.0066 9.68662 85.0066Z" fill="black"/>
<path d="M13.1587 81.7832C12.0967 81.695 11.0347 81.764 9.97279 81.7408C9.75647 81.7408 9.666 81.8057 9.66993 82.0244C9.66993 83.0166 9.66993 84.0095 9.66993 85.0058C9.57054 84.9538 9.48981 84.8732 9.43851 84.7755C9.38721 84.6778 9.36778 84.5671 9.38282 84.4577C9.38282 83.879 9.38282 83.3084 9.38282 82.718C9.38282 82.4002 9.6306 82.1392 9.57554 81.8098C9.57554 81.7176 9.6778 81.6909 9.76826 81.6909H13.0407C13.0997 81.7101 13.1272 81.7558 13.1587 81.7832Z" fill="black"/>
<path d="M71.6999 83.5195C71.4875 83.1362 71.4875 82.6913 71.2082 82.3462C71.0706 82.239 71.0352 82.0627 70.9368 81.9287C70.5468 81.324 70.0297 80.806 69.4196 80.4097C68.8095 80.0133 68.1201 79.7475 67.397 79.6293C65.4658 79.3266 63.511 79.5336 61.5641 79.5186C61.3517 79.5719 61.3597 79.7332 61.344 79.9013C61.2928 80.5914 61.4462 81.27 61.4384 81.9595C61.4187 83.7648 61.4384 85.5695 61.3597 87.3749C61.3087 87.9919 61.3284 88.6124 61.4186 89.2254C61.4828 89.5807 61.4721 89.9442 61.3872 90.2948C61.277 90.7396 61.3164 90.7813 61.8041 90.7704C63.3145 90.713 64.8208 90.728 66.3272 90.7704C66.5354 90.8066 66.7484 90.8066 66.9565 90.7704C67.7224 90.7205 68.4628 90.482 69.108 90.0768C69.854 89.675 70.4942 89.1099 70.9781 88.4265C71.4619 87.7425 71.7763 86.9587 71.8965 86.1367C71.9268 86.0021 71.9374 85.864 71.928 85.7267C72.0067 84.9641 71.7864 84.2473 71.6999 83.5195ZM69.458 85.37C69.4035 86.2283 69.022 87.036 68.3882 87.6346C67.7546 88.2325 66.9143 88.5789 66.0323 88.6049C65.4186 88.6049 64.8091 88.6049 64.1994 88.6049C63.9123 88.6049 63.8375 88.5167 63.8375 88.2482C63.8375 87.2252 63.8375 86.2016 63.8375 85.1828C63.8375 84.1632 63.8375 83.1628 63.8375 82.1549C63.8375 81.8563 63.9004 81.7299 64.2308 81.7716C65.0175 81.818 65.8237 81.6991 66.6104 81.8481C67.4379 82.0087 68.1795 82.4515 68.7016 83.0972C69.2237 83.743 69.492 84.5486 69.458 85.37Z" fill="black"/>
</g>
<defs>
<clipPath id="clip0_840_1772">
<rect width="86" height="82" fill="white" transform="translate(7 9)"/>
</clipPath>
</defs>
</svg>
