<svg width="100" height="100" viewBox="0 0 100 100" fill="none" xmlns="http://www.w3.org/2000/svg">
<path d="M60.6502 27.2344C59.2525 27.365 57.8719 27.4768 57.5822 27.5141C57.3095 27.5328 59.4571 27.626 62.3546 27.682C65.9851 27.7752 68.0304 27.9057 68.9167 28.1108C69.6155 28.26 70.7404 28.4837 71.3881 28.6143C74.2857 29.1737 77.8479 30.7959 80.4216 32.6978C80.8648 33.0335 81.2057 33.0894 82.9271 33.0894C84.7509 33.0894 84.9384 33.1267 85.1088 33.4623C85.2111 33.6861 85.2793 34.8608 85.2622 36.2779C85.2452 38.2358 85.177 38.9071 84.9213 39.5597C84.7168 40.1004 84.5975 40.8276 84.5975 41.6481C84.5975 43.289 84.2396 44.7434 83.3362 46.7945C82.2624 49.2744 81.2057 50.8034 78.7683 53.4699L76.5866 55.8566V57.7026C76.5866 58.7095 76.6548 59.6045 76.7571 59.6605C76.9446 59.791 78.0354 59.0265 79.7398 57.5348C85.177 52.8172 88.1427 48.2862 88.8756 43.6432C89.1313 41.9837 88.9779 39.4478 88.5518 38.1239C87.87 36.0169 87.1712 34.9727 84.6486 32.3622C84.1714 31.8587 81.6829 30.3111 80.4557 29.7517C75.3595 27.4396 68.2349 26.5259 60.6502 27.2344Z" fill="black"/>
<path d="M55.5028 27.9989C55.6562 28.0362 55.8948 28.0362 56.0141 27.9989C56.1164 27.9429 55.997 27.9057 55.7073 27.9057C55.4346 27.9057 55.3323 27.9429 55.5028 27.9989Z" fill="black"/>
<path d="M20.0164 34.0776C19.6755 34.1895 19.2494 34.5624 18.9596 35.0099L18.4653 35.7558L18.4994 49.3863L18.5506 63.0168L20.0845 63.0727C24.3286 63.2405 25.9648 61.7302 25.9648 57.6839C25.9648 56.3787 26.016 56.043 26.2376 55.9498C26.391 55.8939 27.3625 55.8379 28.4192 55.8379C30.635 55.8379 30.6861 55.8752 31.8792 57.572C33.4814 59.8655 35.3904 62.2709 35.8506 62.6066C36.2596 62.8863 36.7028 62.9236 39.7026 62.8863L43.0944 62.8303L43.1456 62.3642C43.1796 62.0845 42.9751 61.5437 42.6342 60.9843C42.3274 60.4809 41.9184 59.8096 41.7309 59.474C41.5434 59.1383 41.2536 58.6722 41.1002 58.4298C40.0094 56.7703 38.5777 54.3089 38.5777 54.0852C38.5777 53.936 39.0379 53.302 39.5833 52.6681C42.4979 49.3676 43.1796 44.0907 41.2877 39.6902C40.0605 36.8559 36.9073 34.3573 34.1291 34.003C32.2713 33.7793 20.7152 33.8352 20.0164 34.0776ZM33.1064 41.0887C34.6916 41.4243 35.4245 42.5617 35.4245 44.6501C35.4245 46.3096 35.0154 47.2047 34.0098 47.7454C33.4473 48.0624 32.936 48.0997 29.7146 48.0997H26.0501L25.9989 44.6128C25.9648 41.4243 25.9819 41.126 26.2546 41.0514C26.8 40.9022 32.3394 40.9395 33.1064 41.0887Z" fill="black"/>
<path d="M49.6054 34.0964C49.2474 34.2455 48.8384 34.5066 48.702 34.7117C47.935 35.7372 47.9521 35.5321 47.9521 49.5728C47.9521 61.5438 47.9861 62.8864 48.2248 62.9982C48.3782 63.0542 49.2815 63.1101 50.253 63.1101C52.7586 63.1101 53.713 62.588 54.7187 60.6861C55.4516 59.3062 55.4686 58.9333 55.4175 46.1419L55.3663 33.9285L52.8097 33.8913C50.986 33.854 50.0656 33.9285 49.6054 34.0964Z" fill="black"/>
<path d="M62.0137 34.0404C61.383 34.2456 61.0763 34.5066 60.599 35.2711C60.2411 35.8305 60.224 36.0356 60.2581 38.3478L60.3093 40.8277L64.1442 40.921C66.2577 40.9769 68.0815 41.0888 68.2008 41.1634C68.3542 41.2752 68.4053 43.6806 68.4053 52.1088C68.4053 61.7676 68.4394 62.8864 68.678 62.9982C69.1553 63.2034 72.513 63.1101 73.1948 62.8864C74.064 62.6067 75.1378 61.5998 75.6151 60.6115C75.9901 59.8657 75.9901 59.6978 76.0753 50.5238L76.1605 41.2007L77.6093 41.0701C78.4104 41.0142 79.8591 40.9582 80.8477 40.9396C82.8589 40.921 83.4725 40.6599 84.0861 39.5784C84.3929 39.0377 84.427 38.6834 84.3929 36.4458L84.3418 33.9286L73.4334 33.8913C67.144 33.8726 62.3034 33.9472 62.0137 34.0404Z" fill="black"/>
<path d="M11.0511 56.6211C10.983 57.1246 10.983 57.9077 11.0511 58.3925C11.6306 62.6998 14.1702 66.0934 18.5506 68.4802C21.2777 69.9532 24.4139 71.0161 27.2433 71.4077C27.7205 71.4822 28.4023 71.6128 28.7773 71.6874C30.3283 72.0603 35.203 72.3027 38.5778 72.1908C46.0773 71.9484 54.1733 70.3262 61.5024 67.6038C64.7579 66.3918 68.7463 64.5644 68.7463 64.2661C68.7463 64.1542 68.644 64.0424 68.5247 64.0424C68.1327 64.0424 67.7236 63.3897 67.7236 62.7744C67.7236 62.4574 67.6725 62.1591 67.6043 62.1218C67.5191 62.0658 66.7862 62.4015 65.9339 62.849C65.0988 63.2965 63.5648 64.061 62.5251 64.5272C61.5024 64.9933 60.4968 65.4408 60.3093 65.5341C59.3889 65.9816 54.5994 67.6411 52.5541 68.2191C49.1793 69.1515 44.7649 70.0278 41.3901 70.4008C38.8846 70.6805 32.6804 70.6805 30.1408 70.4008C25.4025 69.8973 21.1755 68.5548 17.9541 66.5223C16.1303 65.3849 15.1247 64.4899 13.9828 63.0168C12.7044 61.3386 11.8863 59.5113 11.4943 57.4229L11.1704 55.7447L11.0511 56.6211Z" fill="black"/>
</svg>
