<svg width="100" height="100" viewBox="0 0 100 100" fill="none" xmlns="http://www.w3.org/2000/svg">
<g clip-path="url(#clip0_840_1796)">
<path d="M21.7545 45.343H18.7627C17.5746 45.343 17.4915 47.0918 17.4915 47.0918L16.6666 53.1301H18.4395L18.9012 50.0845H20.1555L21.1958 53.1301H23.4566L22.207 50.0845C22.207 50.0845 23.9506 50.0845 23.9506 47.0918C23.946 46.4893 24.0383 45.343 21.7545 45.343ZM21.0095 48.5286H19.266L19.4199 47.0918H21.4066C21.4066 47.0918 21.8883 47.0918 21.8683 47.6611C21.8268 48.5768 21.0095 48.5286 21.0095 48.5286ZM27.0502 45.343C25.862 45.343 25.7789 47.0918 25.7789 47.0918L24.9541 53.1301H30.7006L30.9391 51.5516H26.9531L27.1856 50.0845H30.5175L30.7037 48.5286H27.4473L27.7364 47.0918H31.4979L31.7364 45.343H27.0502ZM43.0816 45.343C41.8935 45.343 41.8106 47.0918 41.8106 47.0918L40.9825 53.1301H46.7291L46.9677 51.5516H42.9833L43.2156 50.0845H46.5414L46.7291 48.5286H43.4787L43.7681 47.0918H47.5293L47.7679 45.343H43.0816ZM50.201 45.343C49.0145 45.343 48.9297 47.0918 48.9297 47.0918H51.1397L50.3704 53.1301H52.4802L53.1143 48.5286L53.2683 47.0918H55.5335L55.7706 45.343H50.201ZM35.4083 45.343H34.2279C34.0956 45.343 33.7462 45.4049 33.68 45.7166C33.2877 47.5511 32.5181 53.1301 32.5181 53.1301H34.6727C37.4843 53.1301 38.1448 53.3816 39.0527 51.9536C39.6112 51.0741 39.976 48.5468 39.7914 47.0932C39.5729 45.343 38.3448 45.343 35.4083 45.343ZM36.8966 51.5516H34.6295C34.6037 51.5518 34.5781 51.5466 34.5543 51.5361C34.5306 51.5259 34.5095 51.5107 34.4922 51.4918C34.4752 51.4728 34.4623 51.4505 34.4545 51.4261C34.447 51.402 34.4448 51.3764 34.4481 51.3511L35.0837 47.4005C35.0956 47.3166 35.1381 47.2399 35.2035 47.1845C35.2689 47.1291 35.3527 47.0989 35.4391 47.0993H37.68C38.731 47.0918 38.2125 51.6103 36.8966 51.5516ZM64.3395 45.343H62.7622C62.6756 45.3439 62.5912 45.3684 62.5183 45.4139C62.4454 45.4595 62.3868 45.5241 62.3497 45.6005L60.306 49.9534C60.2864 49.9949 60.255 50.0299 60.2158 50.0545C60.1766 50.0789 60.131 50.092 60.0843 50.092H59.875C59.8327 50.0922 59.7918 50.0768 59.7606 50.0491C59.7291 50.0211 59.7095 49.9828 59.7058 49.9414L59.1702 45.5855C59.1622 45.5195 59.1297 45.4586 59.0791 45.4145C59.0283 45.3703 58.9627 45.3459 58.8948 45.3461H57.151C57.1318 45.3463 57.1129 45.3505 57.0956 45.3584C57.0781 45.3664 57.0627 45.378 57.0502 45.3922C57.0377 45.4064 57.0285 45.423 57.0229 45.4411C57.0175 45.4591 57.016 45.478 57.0187 45.4968L58.2991 52.8393C58.3133 52.9201 58.356 52.9934 58.42 53.0464C58.4839 53.0993 58.5648 53.1282 58.6485 53.1286H60.5754C60.6443 53.1286 60.712 53.1095 60.7704 53.073C60.8287 53.0368 60.8754 52.9849 60.9045 52.9236L64.455 45.5193C64.4637 45.5003 64.4675 45.4795 64.466 45.4588C64.4643 45.438 64.4575 45.418 64.446 45.4005C64.4345 45.383 64.4189 45.3686 64.4004 45.3586C64.3816 45.3486 64.3608 45.3432 64.3395 45.343Z" fill="url(#paint0_linear_840_1796)"/>
<path d="M65.5016 69.2719C69.5889 69.2719 72.9025 66.0289 72.9025 62.0287C72.9025 58.0283 69.5889 54.7854 65.5016 54.7854C61.4141 54.7854 58.1006 58.0283 58.1006 62.0287C58.1006 66.0289 61.4141 69.2719 65.5016 69.2719Z" fill="#00EABD"/>
<path d="M69.3137 53.2791C69.3512 53.3003 69.3904 53.3191 69.4306 53.3349L69.3137 53.2791Z" fill="url(#paint1_linear_840_1796)"/>
<path d="M83.5863 42.3293C84.409 41.3309 84.9771 40.1551 85.2438 38.8993C85.5104 37.6436 85.4681 36.3436 85.1202 35.107C84.7725 33.8703 84.129 32.7324 83.2431 31.7872C82.3573 30.842 81.2544 30.1165 80.0254 29.6707C78.7965 29.2251 77.4769 29.0718 76.1756 29.2236C74.8742 29.3755 73.6284 29.8282 72.5411 30.5443C71.4538 31.2603 70.5561 32.219 69.9221 33.3418C69.2881 34.4643 68.9361 35.7184 68.895 37.0005V52.5609C68.895 52.7063 68.9342 52.8495 69.0084 52.9755C69.0827 53.1018 69.1896 53.2063 69.3184 53.2793C69.5369 53.3622 70.04 53.4299 70.2186 53.2793C70.2186 53.2793 82.9106 43.1503 83.5877 42.3293H83.5863Z" fill="url(#paint2_linear_840_1796)"/>
</g>
<defs>
<linearGradient id="paint0_linear_840_1796" x1="16.6666" y1="49.2441" x2="64.4675" y2="49.2441" gradientUnits="userSpaceOnUse">
<stop stop-color="#0084D6"/>
<stop offset="1" stop-color="#00EABD"/>
</linearGradient>
<linearGradient id="paint1_linear_840_1796" x1="109.369" y1="62.1999" x2="109.369" y2="62.2206" gradientUnits="userSpaceOnUse">
<stop stop-color="#0084D6"/>
<stop offset="1" stop-color="#00EABD"/>
</linearGradient>
<linearGradient id="paint2_linear_840_1796" x1="6011.54" y1="238.998" x2="7491.19" y2="3014.23" gradientUnits="userSpaceOnUse">
<stop stop-color="#0084D6"/>
<stop offset="1" stop-color="#00EABD"/>
</linearGradient>
<clipPath id="clip0_840_1796">
<rect width="100" height="100" fill="white"/>
</clipPath>
</defs>
</svg>
