<svg width="100" height="100" viewBox="0 0 100 100" fill="none" xmlns="http://www.w3.org/2000/svg">
<path d="M83.8416 77.3376V68.5261H85.9353V75.4614H89.5945V77.3376H83.8416Z" fill="#045F8C"/>
<path fill-rule="evenodd" clip-rule="evenodd" d="M79.9456 68.5261H78.125L74.0836 77.3743H75.4487C75.5765 77.3743 75.722 77.356 75.8495 77.3193C75.9951 77.2823 76.1225 77.2272 76.2316 77.1535C76.341 77.0801 76.4501 76.9881 76.5414 76.896C76.6321 76.8043 76.705 76.6939 76.7596 76.5835L77.1965 75.6085H80.8741L81.3294 76.5835C81.3839 76.7122 81.4566 76.8226 81.5478 76.9144C81.6386 77.0062 81.7474 77.0796 81.8563 77.153L81.8571 77.1535C81.9664 77.2089 82.0939 77.2642 82.2214 77.3009C82.3488 77.3376 82.4763 77.356 82.6219 77.356H83.9872L79.9456 68.5261ZM80.0185 73.7506H78.0342L78.8533 71.911C78.8641 71.8833 78.8753 71.8575 78.8856 71.8327C78.9099 71.7748 78.9316 71.7233 78.9443 71.6719C78.9624 71.5982 78.9807 71.5247 78.9988 71.4694C79.0172 71.4143 79.0353 71.3407 79.0353 71.2856C79.0353 71.3293 79.0467 71.373 79.0606 71.4257C79.0643 71.4397 79.0679 71.4542 79.0718 71.4694C79.0899 71.5247 79.1082 71.5982 79.1263 71.6719C79.1392 71.7236 79.1609 71.7753 79.1855 71.8334C79.1959 71.858 79.2067 71.8836 79.2173 71.911L80.0185 73.7506Z" fill="#045F8C"/>
<path fill-rule="evenodd" clip-rule="evenodd" d="M67.2563 77.3375H69.3684V74.6517H70.5151L72.0627 76.6567C72.1718 76.8041 72.2993 76.9329 72.4267 77.0247C72.5542 77.1167 72.6817 77.1904 72.7908 77.2271C72.8901 77.2773 72.9893 77.2969 73.0749 77.314C73.0835 77.3158 73.092 77.3173 73.1005 77.3191C73.1915 77.3375 73.2642 77.3375 73.3006 77.3375H73.3371H75.103L72.6452 74.1551C72.9182 73.971 73.1367 73.7871 73.319 73.5847C73.5007 73.3825 73.6647 73.1617 73.774 72.9409C73.8831 72.7201 73.9741 72.4996 74.029 72.2604C74.0835 72.0213 74.1016 71.8005 74.1016 71.5613C74.1016 71.3222 74.0654 71.083 74.0106 70.8438C73.9561 70.6047 73.865 70.3655 73.7376 70.1447C73.6101 69.9056 73.4646 69.7034 73.2823 69.501C73.1005 69.2985 72.882 69.1331 72.6452 68.9859C72.4086 68.8388 72.1356 68.7284 71.8442 68.6364C71.5529 68.5443 71.2253 68.5076 70.8794 68.5076H67.2563V77.3375ZM71.3892 72.5363C71.2615 72.5914 71.1343 72.6283 71.0068 72.6283H69.3865V70.531H71.0068C71.1343 70.531 71.2615 70.568 71.3892 70.6231C71.5164 70.6784 71.6258 70.7702 71.7168 70.8622C71.8078 70.9543 71.8807 71.0646 71.9353 71.1934C71.9898 71.3222 72.0263 71.4509 72.0263 71.5797C72.0263 71.7084 71.9898 71.8372 71.9353 71.9659C71.8807 72.0947 71.8078 72.2051 71.7168 72.2971C71.6964 72.3142 71.6764 72.3315 71.6571 72.3486C71.5723 72.4223 71.4926 72.4913 71.3892 72.5363Z" fill="#045F8C"/>
<path d="M60.7025 73.7873C60.7025 74.0081 60.7573 74.2103 60.8483 74.4127C60.9393 74.6151 61.0668 74.7806 61.2305 74.9277C61.3944 75.0751 61.5764 75.1855 61.7768 75.2773C61.9769 75.3693 62.2137 75.406 62.4322 75.406C62.6687 75.406 62.8872 75.3693 63.0876 75.2773C63.2877 75.1855 63.4881 75.0751 63.6336 74.9277C63.7976 74.7806 63.925 74.6151 64.016 74.4127C64.107 74.2103 64.1616 74.0081 64.1616 73.7873V68.5261H66.2734V73.7873C66.2734 74.2839 66.1643 74.7623 65.9639 75.2036C65.7638 75.6452 65.4905 76.0317 65.1448 76.3627C64.7989 76.6939 64.3801 76.9514 63.925 77.1352C63.4516 77.3193 62.9601 77.4297 62.4322 77.4297C62.0862 77.4297 61.7403 77.3927 61.4127 77.3009C61.0849 77.2089 60.7754 77.0985 60.5024 76.933C60.211 76.7673 59.9561 76.5835 59.7195 76.3627C59.4829 76.1419 59.2826 75.9027 59.1186 75.6268C58.955 75.351 58.8273 75.0751 58.7365 74.7623C58.6455 74.4494 58.5907 74.1368 58.5907 73.7873V68.5261H60.7025V73.7873Z" fill="#045F8C"/>
<path fill-rule="evenodd" clip-rule="evenodd" d="M50.8169 77.3375H52.9106V74.6517H54.0756L55.6233 76.6567C55.7324 76.8041 55.8598 76.9329 55.9873 77.0247C56.1148 77.1167 56.2422 77.1904 56.3513 77.2271C56.4509 77.2773 56.5499 77.2969 56.6355 77.314C56.6443 77.3158 56.6525 77.3173 56.6611 77.3191C56.7521 77.3375 56.8247 77.3375 56.8612 77.3375H56.8976H58.6635L56.2058 74.1551C56.4788 73.971 56.6973 73.7871 56.8795 73.5847C57.0613 73.3825 57.2252 73.1617 57.3346 72.9409C57.4437 72.7201 57.5347 72.4996 57.5895 72.2604C57.6441 72.0213 57.6622 71.8005 57.6622 71.5613C57.6622 71.3222 57.626 71.083 57.5712 70.8438C57.5166 70.6047 57.4256 70.3655 57.2981 70.1447C57.1707 69.9056 57.0251 69.7034 56.8431 69.501C56.6611 69.2985 56.4426 69.1331 56.2058 68.9859C55.9692 68.8388 55.6962 68.7284 55.4048 68.6364C55.1134 68.5443 54.7858 68.5076 54.4399 68.5076H50.8169V77.3375ZM54.9133 72.5363C54.8039 72.5914 54.6765 72.6283 54.549 72.6283H52.929V70.531H54.549C54.6765 70.531 54.7858 70.568 54.9133 70.6231C55.0408 70.6784 55.1499 70.7702 55.2409 70.8622C55.3319 70.9543 55.4048 71.0646 55.4593 71.1934C55.5139 71.3222 55.5504 71.4509 55.5504 71.5797C55.5504 71.7084 55.5139 71.8372 55.4593 71.9659C55.4048 72.0947 55.3319 72.2051 55.2409 72.2971C55.1499 72.3892 55.0408 72.481 54.9133 72.5363Z" fill="#045F8C"/>
<path d="M43.7531 77.3376V68.5444H44.5176V76.565H48.5046V77.3376H43.7531Z" fill="#045F8C"/>
<path fill-rule="evenodd" clip-rule="evenodd" d="M39.1107 68.5444H38.4737L34.6322 77.3376H34.9784C35.1421 77.3376 35.2695 77.2823 35.397 77.2088C35.5244 77.1168 35.6155 77.0064 35.67 76.8776L36.3619 75.2405H41.1682L41.8782 76.8776C41.9509 77.0247 42.0238 77.1351 42.1512 77.2088C42.2603 77.3006 42.4062 77.3376 42.5517 77.3376H42.8977C42.7431 76.9697 42.5835 76.6018 42.4243 76.2339C42.265 75.8659 42.1057 75.498 41.9509 75.1301C41.752 74.6572 41.5457 74.1846 41.3415 73.7166C41.228 73.4563 41.115 73.1975 41.0043 72.941C40.8495 72.5731 40.6902 72.2098 40.5309 71.8463C40.3717 71.4831 40.2124 71.1198 40.0575 70.7519C39.9417 70.4833 39.8259 70.2095 39.709 69.9336C39.5138 69.4724 39.3158 69.0049 39.1107 68.5444ZM40.8585 74.4863H36.7259L38.6741 69.9794L38.7286 69.8139C38.7467 69.7586 38.7651 69.7035 38.7651 69.6482C38.7832 69.5931 38.8013 69.5194 38.8013 69.4643C38.8013 69.5194 38.8013 69.5931 38.8196 69.6482C38.8196 69.7035 38.8377 69.7586 38.8561 69.8139C38.8742 69.8873 38.8925 69.9426 38.9106 69.9794L40.8585 74.4863Z" fill="#045F8C"/>
<path d="M33.8129 77.3376H33.0665L27.8051 69.7402C27.7867 69.7219 27.7686 69.6851 27.7503 69.6482C27.7322 69.6115 27.7322 69.5747 27.7138 69.5561C27.6957 69.5194 27.6776 69.4827 27.6776 69.446V77.3376H26.9128V68.5444H27.4408C27.6047 68.5444 27.7322 68.5628 27.8232 68.5998C27.9142 68.6365 28.0052 68.7102 28.06 68.8019L32.8661 75.7555C32.9026 75.7923 32.9207 75.8476 32.9388 75.8843C32.9571 75.9394 32.9752 75.9763 32.9936 76.0131C33.0117 76.0498 33.03 76.1051 33.03 76.1602V68.5444H33.7765V77.3376H33.8129Z" fill="#045F8C"/>
<path fill-rule="evenodd" clip-rule="evenodd" d="M22.2704 68.5444H21.6334L17.8284 77.3376H18.1743C18.3199 77.3376 18.4473 77.2823 18.5748 77.2088C18.7023 77.1168 18.793 77.0064 18.8478 76.8776L19.5397 75.2405H24.3458L25.056 76.8776C25.1287 77.0247 25.2016 77.1351 25.3291 77.2088C25.4382 77.3006 25.584 77.3376 25.7295 77.3376H26.0755C25.9206 76.9697 25.7613 76.6018 25.6021 76.2339C25.4428 75.8659 25.2835 75.498 25.1287 75.1301C24.9301 74.658 24.7241 74.1859 24.5203 73.719C24.4063 73.4578 24.2931 73.1983 24.1819 72.941C24.027 72.5723 23.8672 72.2083 23.7077 71.8443C23.5487 71.4815 23.3897 71.119 23.2353 70.7519C23.05 70.3462 22.8705 69.9289 22.6903 69.5096C22.5517 69.1874 22.4129 68.8643 22.2704 68.5444ZM24.0182 74.4863H19.8856L21.8335 69.9794L21.8881 69.8139C21.9064 69.7586 21.9245 69.7035 21.9245 69.6482C21.9426 69.5931 21.961 69.5194 21.961 69.4643C21.961 69.5194 21.961 69.5931 21.9791 69.6482C21.9791 69.703 21.9972 69.758 22.0153 69.8129L22.0155 69.8139C22.0339 69.8873 22.052 69.9426 22.0703 69.9794L24.0182 74.4863Z" fill="#045F8C"/>
<path d="M10.7648 72.941C10.7648 73.2905 10.801 73.6217 10.8922 73.9343C10.9832 74.2472 11.1105 74.5414 11.2563 74.8173C11.4202 75.0934 11.6022 75.3509 11.8388 75.5717C12.0573 75.7922 12.3122 75.9947 12.5852 76.1601C12.8582 76.3259 13.1496 76.4546 13.4591 76.5281C13.7686 76.6201 14.0961 76.6571 14.4423 76.6571C14.8428 76.6571 15.2069 76.6017 15.5709 76.473C15.9168 76.3626 16.2447 76.1971 16.5539 75.9947C16.6087 75.958 16.6633 75.921 16.7362 75.9026C16.8088 75.8843 16.8636 75.8659 16.9363 75.8659C17.0456 75.8659 17.1547 75.8843 17.2458 75.921C17.337 75.958 17.4097 76.013 17.4826 76.0867L17.5371 76.1418C17.1366 76.5281 16.6633 76.8409 16.1353 77.0614C15.6073 77.2825 15.0429 77.3926 14.4423 77.3926C13.8231 77.3926 13.2587 77.2825 12.7127 77.0433C12.1666 76.8042 11.7113 76.4913 11.2927 76.0867C10.8922 75.6818 10.5644 75.2038 10.3459 74.6518C10.1094 74.1 10 73.5297 10 72.9043C10 72.2788 10.1094 71.7085 10.3459 71.1568C10.5825 70.6048 10.8922 70.1264 11.2927 69.7218C11.6932 69.3172 12.1666 68.986 12.7127 68.7652C13.2587 68.526 13.8231 68.4156 14.4423 68.4156C15.061 68.4156 15.6257 68.526 16.1353 68.7468C16.6633 68.9676 17.1185 69.2802 17.5188 69.6668L17.4642 69.7218C17.3916 69.7955 17.3187 69.8506 17.2277 69.8873C17.1366 69.9243 17.0456 69.9426 16.9363 69.9426C16.7907 69.9426 16.6632 69.9057 16.5539 69.8139C16.2628 69.6114 15.9352 69.446 15.5709 69.3172C15.225 69.2068 14.8428 69.1331 14.4423 69.1331C14.0961 69.1331 13.7686 69.1698 13.4591 69.2619C13.1496 69.3539 12.8582 69.4827 12.5852 69.6298C12.3122 69.7955 12.0573 69.9793 11.8388 70.2185C11.6203 70.4393 11.4202 70.6968 11.2563 70.9727C11.0924 71.2485 10.9649 71.543 10.8922 71.8556C10.801 72.2605 10.7648 72.5914 10.7648 72.941Z" fill="#045F8C"/>
<path fill-rule="evenodd" clip-rule="evenodd" d="M42.17 47.5315V41.1484C42.17 37.6252 45.0296 34.7654 48.5529 34.7654C52.0762 34.7654 54.9357 37.6252 54.9357 41.1484C54.9357 44.6717 52.0762 47.5315 48.5529 47.5315H42.17ZM48.5529 38.0333C46.8423 38.0333 45.438 39.4381 45.438 41.1484H45.4636V44.2636H48.5784C50.289 44.2636 51.6677 42.8588 51.6677 41.1484C51.6677 39.4381 50.2635 38.0333 48.5529 38.0333Z" fill="url(#paint0_linear_841_162)"/>
<path d="M35.7876 40.5636V63.4881H39.1707V48.8105V40.5636C39.1707 35.6205 43.3731 31.6106 48.5533 31.6106C53.7336 31.6106 57.936 35.6205 57.936 40.5636C57.936 45.5067 53.7336 49.5166 48.5533 49.5166H41.9458V52.7449H48.5533C55.5837 52.7449 61.3189 47.2975 61.3189 40.5636C61.3189 33.8303 55.5837 28.3829 48.5533 28.3829C41.4965 28.3829 35.7876 33.8303 35.7876 40.5636Z" fill="url(#paint1_linear_841_162)"/>
<path d="M31 40.3575C31 40.4084 31 40.4336 31 40.4845V60.0864C31.0254 60.5178 31.2538 63.4883 34.4519 63.4883V51.0724V40.5096V40.3575C34.4519 32.1308 41.1271 25.4534 49.3507 25.4534C57.5741 25.4534 64.2494 32.1308 64.2494 40.3575C64.2494 48.5842 57.5741 55.2615 49.3507 55.2615H43.0054V58.715H49.3507C59.4777 58.715 67.7013 50.4882 67.7013 40.3575C67.7013 30.2267 59.4525 22 49.3507 22C39.2235 22 31 30.2267 31 40.3575Z" fill="url(#paint2_linear_841_162)"/>
<path d="M57.9747 41.1486C57.9747 45.6811 53.8211 49.3584 48.7009 49.3584H42.17V52.3188H48.7009C55.6498 52.3188 61.3187 47.3235 61.3187 41.1486H57.9747Z" fill="url(#paint3_linear_841_162)"/>
<path d="M48.73 55.3905H42.17V58.7012H48.73C59.1734 58.7012 67.6752 50.838 67.7014 41.1486H64.1329C64.1065 49.0119 57.2053 55.3905 48.73 55.3905Z" fill="url(#paint4_linear_841_162)"/>
<path d="M42.17 55.5099V55.7074V58.6716V58.8691H48.9411C52.5974 58.8691 55.7934 60.7467 57.4185 63.4883H61.1831H61.3187L61.2373 63.2908C59.3957 58.7458 54.6017 55.5099 48.9682 55.5099H42.17Z" fill="url(#paint5_linear_841_162)"/>
<path d="M42.17 49.127V52.6528H48.449C55.1048 52.6528 60.756 57.2154 62.5644 63.4884H66.1057C64.1969 55.2711 56.9886 49.127 48.449 49.127H42.17Z" fill="url(#paint6_linear_841_162)"/>
<defs>
<linearGradient id="paint0_linear_841_162" x1="30.1561" y1="59.2198" x2="66.318" y2="59.2198" gradientUnits="userSpaceOnUse">
<stop stop-color="#8EC045"/>
<stop offset="0.2789" stop-color="#74B989"/>
<stop offset="0.5309" stop-color="#5BB3B4"/>
<stop offset="0.7425" stop-color="#44AFCF"/>
<stop offset="0.9054" stop-color="#33ACDE"/>
<stop offset="1" stop-color="#2AABE3"/>
</linearGradient>
<linearGradient id="paint1_linear_841_162" x1="29.5085" y1="71.6727" x2="66.9434" y2="71.6727" gradientUnits="userSpaceOnUse">
<stop stop-color="#8EC045"/>
<stop offset="0.2789" stop-color="#74B989"/>
<stop offset="0.5309" stop-color="#5BB3B4"/>
<stop offset="0.7425" stop-color="#44AFCF"/>
<stop offset="0.9054" stop-color="#33ACDE"/>
<stop offset="1" stop-color="#2AABE3"/>
</linearGradient>
<linearGradient id="paint2_linear_841_162" x1="30.9886" y1="63.4851" x2="67.6922" y2="63.4851" gradientUnits="userSpaceOnUse">
<stop stop-color="#8EC045"/>
<stop offset="0.2789" stop-color="#74B989"/>
<stop offset="0.5309" stop-color="#5BB3B4"/>
<stop offset="0.7425" stop-color="#44AFCF"/>
<stop offset="0.9054" stop-color="#33ACDE"/>
<stop offset="1" stop-color="#2AABE3"/>
</linearGradient>
<linearGradient id="paint3_linear_841_162" x1="60.5964" y1="59.3784" x2="62.8942" y2="42.083" gradientUnits="userSpaceOnUse">
<stop stop-color="#025F9D"/>
<stop offset="0.4508" stop-color="#025F9D"/>
<stop offset="0.5232" stop-color="#0864A3" stop-opacity="0.8681"/>
<stop offset="0.8309" stop-color="#1F7BBC" stop-opacity="0.3078"/>
<stop offset="1" stop-color="#2784C6" stop-opacity="0.01"/>
</linearGradient>
<linearGradient id="paint4_linear_841_162" x1="62.8833" y1="62.4156" x2="66.3817" y2="44.3273" gradientUnits="userSpaceOnUse">
<stop stop-color="#025F9D"/>
<stop offset="0.4508" stop-color="#025F9D"/>
<stop offset="0.5232" stop-color="#0864A3" stop-opacity="0.8681"/>
<stop offset="0.8309" stop-color="#1F7BBC" stop-opacity="0.3078"/>
<stop offset="1" stop-color="#2784C6" stop-opacity="0.01"/>
</linearGradient>
<linearGradient id="paint5_linear_841_162" x1="78.6073" y1="58.7383" x2="71.5111" y2="40.4487" gradientUnits="userSpaceOnUse">
<stop stop-color="#8EC045"/>
<stop offset="0.2789" stop-color="#74B989"/>
<stop offset="0.5309" stop-color="#5BB3B4"/>
<stop offset="0.7425" stop-color="#44AFCF"/>
<stop offset="0.9054" stop-color="#33ACDE"/>
<stop offset="1" stop-color="#2AABE3"/>
</linearGradient>
<linearGradient id="paint6_linear_841_162" x1="73.1366" y1="52.3377" x2="57.3772" y2="35.0297" gradientUnits="userSpaceOnUse">
<stop stop-color="#8EC045"/>
<stop offset="0.2789" stop-color="#74B989"/>
<stop offset="0.5309" stop-color="#5BB3B4"/>
<stop offset="0.7425" stop-color="#44AFCF"/>
<stop offset="0.9054" stop-color="#33ACDE"/>
<stop offset="1" stop-color="#2AABE3"/>
</linearGradient>
</defs>
</svg>
