<svg width="100" height="100" viewBox="0 0 100 100" fill="none" xmlns="http://www.w3.org/2000/svg">
<path d="M13.4058 52.8313L12 56.1376H18.4885L19.8934 52.8313H13.4058Z" fill="#FF0930"/>
<path d="M46.8226 52.9985C44.9832 52.9985 43.6404 51.6143 43.6404 49.7759C43.6404 47.9375 44.9832 46.573 46.8226 46.573C48.6619 46.573 50.0048 47.9365 50.0048 49.7759C50.0048 51.6152 48.6619 52.9985 46.8226 52.9985ZM46.8226 43.1426C42.9586 43.1426 39.9213 46.0351 39.9213 49.7759C39.9213 53.5166 42.9586 56.4289 46.8226 56.4289C50.6865 56.4289 53.7239 53.5138 53.7239 49.7759C53.7239 46.038 50.6865 43.1426 46.8226 43.1426" fill="#08053A"/>
<path d="M31.6554 53.0382C29.8377 53.0382 28.4939 51.654 28.4939 49.7742C28.4939 47.8944 29.8377 46.5299 31.6554 46.5299C33.4948 46.5299 34.8583 47.8935 34.8583 49.7742C34.8583 51.6549 33.4741 53.0382 31.6554 53.0382V53.0382ZM32.5017 43.1409C30.6417 43.1409 29.2989 44.0088 28.5757 45.0413V43.4305H24.8989V60.1689H28.6604V54.8155C29.5067 55.8075 30.9539 56.3652 32.5864 56.3652C36.0375 56.3652 38.5793 53.4501 38.5793 49.7939C38.5793 46.0127 35.9341 43.1409 32.5036 43.1409" fill="#08053A"/>
<path d="M82.607 56.1375L88 43.4294H83.6612L80.8504 51.0548L78.1027 43.4294H73.6802L78.9697 56.1375H82.607Z" fill="#08053A"/>
<path d="M59.3397 56.1375V50.2283C59.3397 48.1002 60.5801 46.843 63.1012 46.843H63.7416V43.4294H63.4105C61.3653 43.4294 60.1456 44.0087 59.2579 45.3722V43.4294H55.5792V56.1375H59.3397Z" fill="#08053A"/>
<path d="M23.9435 52.6224V52.3403C23.9435 49.6753 22.2293 48.497 19.2323 48.1867L16.6087 47.914C15.9674 47.852 15.7408 47.6658 15.7408 47.3141C15.7408 46.9379 16.0088 46.7358 16.5871 46.7358H21.4422L22.848 43.4294H16.7526C13.8807 43.4294 12 45.0412 12 47.4175C12 49.7938 13.261 51.0548 16.6915 51.4056L19.1101 51.6538C19.7514 51.7159 20.1022 51.9642 20.1022 52.5218V52.6224H23.9435Z" fill="#08053A"/>
<path d="M72.6063 56.1375V52.7287H71.0565C69.5068 52.7287 68.7997 52.0263 68.7997 50.4963V46.8392H71.6518L73.0981 43.4295H68.8034V40H65.042V51.0756C65.042 54.4026 66.902 56.1375 70.7453 56.1375H72.6063Z" fill="#08053A"/>
</svg>
