<svg width="100" height="100" viewBox="0 0 100 100" fill="none" xmlns="http://www.w3.org/2000/svg">
<path d="M6.40584 52.8313L5 56.1376H11.4885L12.8934 52.8313H6.40584Z" fill="#FF0930"/>
<path d="M39.8226 52.9985C37.9832 52.9985 36.6404 51.6143 36.6404 49.7759C36.6404 47.9375 37.9832 46.573 39.8226 46.573C41.6619 46.573 43.0048 47.9365 43.0048 49.7759C43.0048 51.6152 41.6619 52.9985 39.8226 52.9985ZM39.8226 43.1426C35.9586 43.1426 32.9213 46.0351 32.9213 49.7759C32.9213 53.5166 35.9586 56.4289 39.8226 56.4289C43.6865 56.4289 46.7239 53.5138 46.7239 49.7759C46.7239 46.038 43.6865 43.1426 39.8226 43.1426" fill="#08053A"/>
<path d="M24.6554 53.0382C22.8377 53.0382 21.4939 51.654 21.4939 49.7742C21.4939 47.8944 22.8377 46.5299 24.6554 46.5299C26.4948 46.5299 27.8583 47.8935 27.8583 49.7742C27.8583 51.6549 26.4741 53.0382 24.6554 53.0382V53.0382ZM25.5017 43.1409C23.6417 43.1409 22.2989 44.0088 21.5757 45.0413V43.4305H17.8989V60.1689H21.6604V54.8155C22.5067 55.8075 23.9539 56.3652 25.5864 56.3652C29.0375 56.3652 31.5793 53.4501 31.5793 49.7939C31.5793 46.0127 28.9341 43.1409 25.5036 43.1409" fill="#08053A"/>
<path d="M75.607 56.1375L81 43.4294H76.6612L73.8504 51.0548L71.1027 43.4294H66.6802L71.9697 56.1375H75.607Z" fill="#08053A"/>
<path d="M52.3397 56.1375V50.2283C52.3397 48.1002 53.5801 46.843 56.1012 46.843H56.7416V43.4294H56.4105C54.3653 43.4294 53.1456 44.0087 52.2579 45.3722V43.4294H48.5792V56.1375H52.3397Z" fill="#08053A"/>
<path d="M16.9435 52.6224V52.3403C16.9435 49.6753 15.2293 48.497 12.2323 48.1867L9.60872 47.914C8.96739 47.852 8.74077 47.6658 8.74077 47.3141C8.74077 46.9379 9.00877 46.7358 9.58709 46.7358H14.4422L15.848 43.4294H9.75259C6.88073 43.4294 5 45.0412 5 47.4175C5 49.7938 6.26104 51.0548 9.69148 51.4056L12.1101 51.6538C12.7514 51.7159 13.1022 51.9642 13.1022 52.5218V52.6224H16.9435Z" fill="#08053A"/>
<path d="M65.6063 56.1375V52.7287H64.0565C62.5068 52.7287 61.7997 52.0263 61.7997 50.4963V46.8392H64.6518L66.0981 43.4295H61.8034V40H58.042V51.0756C58.042 54.4026 59.902 56.1375 63.7453 56.1375H65.6063Z" fill="#08053A"/>
<path d="M96 52.6774V56H85.7492V53.3673L90.3721 49.1187C90.7741 48.7435 91.0421 48.4227 91.1761 48.1564C91.3101 47.8901 91.3771 47.6299 91.3771 47.3757C91.3771 47.061 91.2674 46.8189 91.0482 46.6494C90.8411 46.4679 90.5365 46.3771 90.1346 46.3771C89.7447 46.3771 89.3793 46.48 89.0382 46.6858C88.6971 46.8915 88.4352 47.182 88.2525 47.5573L85 45.9413C85.4873 45.0335 86.1999 44.3194 87.1379 43.7989C88.0759 43.2663 89.2087 43 90.5365 43C91.5476 43 92.443 43.1634 93.2226 43.4902C94.0022 43.817 94.6113 44.2831 95.0498 44.8883C95.4884 45.4935 95.7076 46.1895 95.7076 46.9763C95.7076 47.6783 95.5554 48.338 95.2508 48.9553C94.9585 49.5605 94.3798 50.2505 93.5149 51.0251L91.6877 52.6774H96Z" fill="#FF0930"/>
</svg>
