<svg width="100" height="100" viewBox="0 0 100 100" fill="none" xmlns="http://www.w3.org/2000/svg">
<path d="M5.40584 52.8313L4 56.1376H10.4885L11.8934 52.8313H5.40584Z" fill="#FF0930"/>
<path d="M38.8226 52.9985C36.9832 52.9985 35.6404 51.6143 35.6404 49.7759C35.6404 47.9375 36.9832 46.573 38.8226 46.573C40.6619 46.573 42.0048 47.9365 42.0048 49.7759C42.0048 51.6152 40.6619 52.9985 38.8226 52.9985ZM38.8226 43.1426C34.9586 43.1426 31.9213 46.0351 31.9213 49.7759C31.9213 53.5166 34.9586 56.4289 38.8226 56.4289C42.6865 56.4289 45.7239 53.5138 45.7239 49.7759C45.7239 46.038 42.6865 43.1426 38.8226 43.1426" fill="#08053A"/>
<path d="M23.6554 53.0382C21.8377 53.0382 20.4939 51.654 20.4939 49.7742C20.4939 47.8944 21.8377 46.5299 23.6554 46.5299C25.4948 46.5299 26.8583 47.8935 26.8583 49.7742C26.8583 51.6549 25.4741 53.0382 23.6554 53.0382V53.0382ZM24.5017 43.1409C22.6417 43.1409 21.2989 44.0088 20.5757 45.0413V43.4305H16.8989V60.1689H20.6604V54.8155C21.5067 55.8075 22.9539 56.3652 24.5864 56.3652C28.0375 56.3652 30.5793 53.4501 30.5793 49.7939C30.5793 46.0127 27.9341 43.1409 24.5036 43.1409" fill="#08053A"/>
<path d="M74.607 56.1375L80 43.4294H75.6612L72.8504 51.0548L70.1027 43.4294H65.6802L70.9697 56.1375H74.607Z" fill="#08053A"/>
<path d="M51.3397 56.1375V50.2283C51.3397 48.1002 52.5801 46.843 55.1012 46.843H55.7416V43.4294H55.4105C53.3653 43.4294 52.1456 44.0087 51.2579 45.3722V43.4294H47.5792V56.1375H51.3397Z" fill="#08053A"/>
<path d="M15.9435 52.6224V52.3403C15.9435 49.6753 14.2293 48.497 11.2323 48.1867L8.60872 47.914C7.96739 47.852 7.74077 47.6658 7.74077 47.3141C7.74077 46.9379 8.00877 46.7358 8.58709 46.7358H13.4422L14.848 43.4294H8.75259C5.88073 43.4294 4 45.0412 4 47.4175C4 49.7938 5.26104 51.0548 8.69148 51.4056L11.1101 51.6538C11.7514 51.7159 12.1022 51.9642 12.1022 52.5218V52.6224H15.9435Z" fill="#08053A"/>
<path d="M64.6063 56.1375V52.7287H63.0565C61.5068 52.7287 60.7997 52.0263 60.7997 50.4963V46.8392H63.6518L65.0981 43.4295H60.8034V40H57.042V51.0756C57.042 54.4026 58.902 56.1375 62.7453 56.1375H64.6063Z" fill="#08053A"/>
<path d="M92.6174 48.4162C93.7047 48.6769 94.5369 49.1527 95.1141 49.8436C95.7047 50.5214 96 51.3426 96 52.3073C96 53.1285 95.7651 53.8976 95.2953 54.6145C94.8389 55.3184 94.1275 55.892 93.1611 56.3352C92.1946 56.7784 90.9933 57 89.557 57C88.5638 57 87.5705 56.8957 86.5772 56.6872C85.5973 56.4786 84.7383 56.1723 84 55.7682L85.6107 52.3659C86.1879 52.6918 86.8054 52.9395 87.4631 53.1089C88.1342 53.2784 88.7785 53.3631 89.396 53.3631C89.9463 53.3631 90.3893 53.2719 90.7248 53.0894C91.0604 52.9069 91.2282 52.6462 91.2282 52.3073C91.2282 51.6816 90.6711 51.3687 89.557 51.3687H87.6846V48.5335L89.7584 46.4804H84.7248V43H95.2349V45.8352L92.6174 48.4162Z" fill="#FF0930"/>
</svg>
