<svg width="100" height="100" viewBox="0 0 100 100" fill="none" xmlns="http://www.w3.org/2000/svg">
<g clip-path="url(#clip0_837_421)">
<path d="M45.2746 7.00009H17.2659L9.00024 15.1879V26.4662C9.36905 26.8315 9.57595 27.0365 9.94489 27.3993H27.6098V23.3755H45.2746C45.6434 23.01 45.8503 22.8053 46.2193 22.4398V7.93583C45.8503 7.57035 45.6434 7.36557 45.2746 7.00009Z" fill="#D2E50E"/>
<path d="M9.94465 31.4229C9.57571 31.7884 9.36894 31.9933 9 32.3586V47.0525C9.36894 47.4179 9.57571 47.6228 9.94465 47.9883H37.9535L46.2192 39.8005V28.335C45.8503 27.9695 45.6434 27.7647 45.2746 27.3993H27.6098V31.4229H9.94465Z" fill="#D2E50E"/>
<path d="M45.2746 52.0119H17.2659L9.00024 60.1997V92.0644C9.36905 92.4298 9.57595 92.6347 9.94489 93.0001H26.2873C26.6561 92.6347 26.863 92.4298 27.232 92.0644V86.9645H45.2746C45.6434 86.5991 45.8503 86.3944 46.2193 86.0287V73.3469C45.8503 72.9815 45.6434 72.7764 45.2746 72.4111H27.232V68.3875H45.2746C45.6434 68.022 45.8503 67.8171 46.2193 67.4518V52.9476C45.8503 52.5823 45.6434 52.3772 45.2746 52.0119" fill="#D2E50E"/>
<path d="M91.0001 7.93581C90.6313 7.57033 90.4245 7.36554 90.0554 7.00006H73.7131C73.3443 7.36554 73.1374 7.57033 72.7685 7.93581V27.3993H68.61V7.93581C68.2411 7.57033 68.0342 7.36554 67.6654 7.00006H51.3231C50.9539 7.36554 50.7472 7.57033 50.3784 7.93581V27.3993L61.5738 38.4889V47.0525C61.9426 47.4179 62.1493 47.6228 62.5184 47.9883H78.8607C79.2295 47.6228 79.4364 47.4179 79.8054 47.0525V38.4906L91.0001 27.3993V7.93581" fill="#D2E50E"/>
<path d="M91.0001 52.9476C90.6313 52.5823 90.4245 52.3772 90.0554 52.0119H73.7131C73.3443 52.3772 73.1374 52.5823 72.7685 52.9476V72.4111H68.61V52.9476C68.2411 52.5823 68.0342 52.3772 67.6654 52.0119H51.3231C50.9539 52.3772 50.7472 52.5823 50.3784 52.9476V72.4111L61.5738 83.5008V92.0644C61.9426 92.4298 62.1493 92.6347 62.5184 93.0001H78.8607C79.2295 92.6347 79.4364 92.4298 79.8054 92.0644V83.5025L91.0001 72.4111V52.9476" fill="#D2E50E"/>
</g>
<defs>
<clipPath id="clip0_837_421">
<rect width="82" height="86" fill="white" transform="translate(9 7)"/>
</clipPath>
</defs>
</svg>
