<svg width="100" height="100" viewBox="0 0 100 100" fill="none" xmlns="http://www.w3.org/2000/svg">
<g clip-path="url(#clip0_840_2266)">
<path d="M55.8199 43.9426C56.0801 43.6071 56.8328 42.1119 56.7819 41.4421C56.7297 40.7722 56.5736 39.3799 54.9111 39.2513C53.2484 39.1227 52.0001 40.3081 52.1043 41.5203C52.2084 42.7315 53.4035 43.9695 56.7297 46.4443C60.056 48.9192 62.9917 50.4401 63.5124 53.8946C64.0329 57.3491 61.8239 59.644 61.2263 60.0566C60.6287 60.4692 58.1343 62.2742 54.1584 61.9644C56.5046 61.063 57.4846 59.0254 55.0423 56.1123C55.0423 56.1123 51.4309 51.1883 50.5991 49.4605C49.7672 47.7326 48.6501 45.052 49.2998 42.4743C49.9494 39.8965 51.535 38.8129 52.5218 38.3499C53.5099 37.8858 55.1465 37.8086 56.2114 38.5814C57.2763 39.3542 57.3511 40.1515 57.2763 41.082C57.145 42.7058 55.8199 43.9426 55.8199 43.9426ZM63.3812 48.7738C63.7183 48.5211 65.33 46.8816 64.8105 44.9391C64.291 42.9965 62.4722 43.199 61.9778 43.3745C61.4843 43.5512 60.4182 44.2323 60.6004 45.6447C60.7826 47.0572 61.8475 47.2596 62.367 47.6879C62.8865 48.1162 62.9646 48.7984 62.6012 49.2524C62.6024 49.2524 63.0439 49.0254 63.3812 48.7738ZM45.3998 52.1019C45.059 53.076 44.1786 56.526 47.6089 58.8868C51.0393 61.2464 54.807 57.9485 54.807 57.9485C54.807 57.9485 51.0913 58.1632 49.1425 54.9716C47.1935 51.781 48.7791 48.7235 49.0384 48.5088C49.0371 48.5088 46.2056 49.796 45.3998 52.1019Z" fill="#F05A0A"/>
<path d="M74.5604 52.8557C73.903 54.6595 72.5596 56.0049 71.3677 56.0049C70.6549 56.0049 70.3673 55.7331 70.3673 55.0454C70.3673 54.4158 70.682 53.1845 71.1902 51.252H71.121C70.5869 52.9843 69.9837 54.2145 69.2842 54.9302C68.5847 55.6459 67.8864 56.0038 67.1734 56.0038C66.4197 56.0038 66.0497 55.5598 66.0497 54.6014C66.0497 51.2811 68.0642 48.5322 70.8324 48.5322C71.5036 48.5322 72.2302 48.6899 72.8743 48.9326L74.5185 48.3891C74.4914 48.5177 74.3952 48.8756 74.2176 49.4918C74.0399 50.1068 73.8476 50.7946 73.6415 51.5249C73.4354 52.2551 73.2579 52.9709 73.0937 53.643C72.9297 54.3162 72.847 54.7736 72.847 55.0029C73.4083 54.4303 73.9436 53.6139 74.2718 52.8702L74.5604 52.8557ZM69.1065 54.229C69.4767 54.229 70.7645 52.8266 71.5048 49.4907C71.464 48.9751 71.3271 48.7604 70.9976 48.7604C70.1896 48.7604 68.887 51.2945 68.887 53.8991C68.887 54.144 68.9412 54.229 69.1065 54.229ZM82.2711 55.0599C82.2711 54.2156 83.1619 51.2666 83.6418 49.8351H82.4634L82.7645 48.747H84.0119L84.5878 47.358L87.0551 47.2719L86.5617 48.7458H88.1382L87.8371 49.834H86.2335C85.7955 51.2509 84.8493 54.0713 84.7803 55.0443C85.1233 54.815 85.4796 54.4571 85.8769 53.9852C86.2606 53.5133 86.59 53.0123 86.8773 52.4967L87.1514 52.4822C86.315 54.314 84.6161 56.0038 83.2998 56.0038C82.4907 56.0049 82.2711 55.732 82.2711 55.0599ZM94.6016 52.5974C93.7108 54.4158 91.8605 56.0038 89.7497 56.0038C88.4347 56.0038 87.8314 55.288 87.8314 54.0288C87.8314 50.9366 89.7091 48.5322 92.7932 48.5322C94.3414 48.5322 95 49.0478 95 49.9782C95 51.4522 93.5751 52.4263 90.6553 52.5974C90.6415 52.8412 90.628 53.0984 90.628 53.3422C90.628 54.087 90.9574 54.4448 91.5594 54.4448C92.7104 54.4448 93.4506 53.9293 94.3414 52.613L94.6016 52.5974ZM90.6688 52.4397C91.8753 52.1534 92.492 51.1939 92.492 49.9771C92.492 49.1753 92.3687 48.861 92.1491 48.861C91.5594 48.8622 90.8464 50.4793 90.6688 52.4397ZM74.908 56.0049C74.908 55.9188 75.0981 55.4178 75.2486 54.8597C75.3992 54.3017 75.578 53.6855 75.7693 52.9988C75.9468 52.3122 76.1258 51.639 76.2762 50.9657C76.4267 50.307 76.5094 49.8351 76.5094 49.5488C75.9062 50.1068 75.4817 50.8517 75.1387 51.6669L74.8649 51.6814C75.5226 49.8776 76.7832 48.5322 78.0305 48.5322C78.7842 48.5322 79.0309 48.804 79.0309 49.4918C79.0309 50.1214 78.7707 51.1804 78.2637 53.1129H78.3179C78.7423 51.696 79.2087 50.5788 79.7156 49.7635C80.2226 48.9471 80.6889 48.5322 81.1405 48.5322C81.6339 48.5322 81.9079 48.8756 81.9079 49.7915C81.9079 50.6504 81.4835 51.4667 81.0036 51.7664H80.9765C80.7987 51.4231 80.4693 51.2509 80.1266 51.2509C79.6467 51.2509 78.5636 51.3795 77.7555 55.7454L74.908 56.0049ZM4 54.6484C4 53.9751 4.66095 53.4305 5.59691 53.3299H5.61275C5.65915 54.7199 6.25785 55.6515 7.19495 55.6515C7.67143 55.6515 7.94756 55.4513 7.94756 55.0062C7.94756 54.5477 7.54805 53.9751 6.45817 53C5.76667 52.3692 5.12157 51.6244 5.12157 50.6929C5.12157 49.475 6.97991 48.5289 8.83827 48.5289C10.374 48.5289 10.8652 48.9729 10.8652 49.6461C10.8652 50.2914 10.1896 50.921 9.31359 50.9791H9.29776C9.25135 49.8754 8.69906 48.8868 7.88532 48.8868C7.4711 48.8868 7.24023 49.1015 7.24023 49.503C7.24023 49.8899 7.56277 50.3193 8.6685 51.2945C9.39056 51.9398 10.1579 52.6846 10.1579 53.6016C10.1579 54.9917 8.0845 56.0082 6.17975 56.0082C4.56814 56.0094 4 55.4647 4 54.6484ZM19.7099 52.8568C19.0524 54.6618 17.7101 56.0094 16.5184 56.0094C15.8065 56.0094 15.519 55.7376 15.519 55.0498C15.519 54.4191 15.8336 53.1867 16.3407 51.2531H16.2728C15.7386 52.9865 15.1365 54.2189 14.4371 54.9358C13.7388 55.6526 13.0405 56.0105 12.3275 56.0105C11.5737 56.0105 11.2048 55.5665 11.2048 54.6059C11.2048 51.2822 13.2182 48.5311 15.9842 48.5311C16.6553 48.5311 17.3808 48.6888 18.0247 48.9326L19.668 48.388C19.6409 48.5166 19.5447 48.8756 19.367 49.4918C19.1893 50.108 18.9969 50.7957 18.7921 51.526C18.5861 52.2563 18.4084 52.9731 18.2443 53.6463C18.0802 54.3196 17.9976 54.7781 17.9976 55.0073C18.5589 54.4348 19.0931 53.6173 19.4213 52.8725L19.7099 52.8568ZM14.2594 54.2323C14.6294 54.2323 15.9163 52.8277 16.6564 49.4895C16.6157 48.974 16.4787 48.7593 16.1494 48.7593C15.3413 48.7593 14.0398 51.2956 14.0398 53.9036C14.0398 54.1474 14.0953 54.2323 14.2594 54.2323ZM19.9702 55.0498C19.9702 54.6204 20.9424 50.7085 21.7097 47.141L20.9152 46.3817L20.9288 46.3526L24.8459 45.2063L24.4214 47.0829C24.0932 48.5445 23.5171 51.0373 23.0791 52.7282H23.1199C23.6541 51.195 24.2562 50.1203 24.9274 49.4761C25.5983 48.8454 26.2695 48.53 26.9407 48.53C27.6944 48.53 28.0634 48.974 28.0634 49.9346C28.0634 53.2583 26.0364 56.0094 23.2285 56.0094C22.1205 56.0094 20.8609 55.637 19.9702 55.0498ZM22.7509 54.2323C22.6819 54.5623 22.5868 54.8631 22.5314 55.1069C22.5857 55.5799 22.7509 55.7801 23.0656 55.7801C23.9144 55.7801 25.2295 53.2437 25.2295 50.6358C25.2295 50.392 25.1751 50.3059 25.0099 50.3059C24.6817 50.307 23.5183 51.4824 22.7509 54.2323ZM28.3927 53.6027C28.3927 50.9803 30.337 48.5311 33.1178 48.5311C34.9117 48.5311 35.7333 49.333 35.7333 50.9523C35.7333 53.5882 33.7606 56.0105 30.9811 56.0105C29.1862 56.0094 28.3927 55.2209 28.3927 53.6027ZM33.1722 50.3216C33.1722 49.333 33.0759 48.832 32.8157 48.832C32.0903 48.832 30.9392 51.6255 30.9392 54.2625C30.9392 55.2366 31.0217 55.7097 31.2822 55.7097C31.9532 55.7085 33.1722 52.9575 33.1722 50.3216ZM36.1339 56.0094C36.1339 55.9233 36.3309 55.4222 36.4882 54.8631C36.6443 54.3039 36.83 53.6877 37.0292 53C37.2148 52.3122 37.3992 51.639 37.5555 50.9657C37.7117 50.307 37.7976 49.834 37.7976 49.5477C37.1717 50.1068 36.7305 50.8517 36.374 51.668L36.0886 51.6826C36.7723 49.8776 38.0817 48.53 39.3776 48.53C40.1608 48.53 40.4166 48.8018 40.4166 49.4895C40.4166 50.1203 40.146 51.1804 39.6198 53.1151H39.6764C40.1177 51.6971 40.6022 50.5788 41.1284 49.7624C41.6546 48.946 42.1391 48.53 42.6087 48.53C43.1215 48.53 43.4054 48.8733 43.4054 49.7904C43.4054 50.6504 42.9642 51.4667 42.4661 51.7676H42.4378C42.2522 51.4242 41.9116 51.252 41.5551 51.252C41.057 51.252 39.9321 51.3806 39.0924 55.751L36.1339 56.0094Z" fill="#828C46"/>
</g>
<defs>
<clipPath id="clip0_840_2266">
<rect width="91" height="24" fill="white" transform="translate(4 38)"/>
</clipPath>
</defs>
</svg>
