<svg width="100" height="100" viewBox="0 0 100 100" fill="none" xmlns="http://www.w3.org/2000/svg">
<path d="M89.6922 16.4053C89.6922 12.8695 86.8227 10 83.2869 10H16.4053C12.8695 10 10 12.8695 10 16.4053V83.2869C10 86.8227 12.8695 89.6922 16.4053 89.6922H83.2869C86.8227 89.6922 89.6922 86.8227 89.6922 83.2869V16.4053Z" fill="black"/>
<path d="M49.8597 49.846C36.8451 48.2141 11.6591 46.9086 10.7344 30.8613V83.2868C10.7344 86.4147 13.2775 88.9577 16.4053 88.9577H83.2869C86.4147 88.9577 88.9578 86.4147 88.9578 83.2868V67.2804C86.5371 52.7019 62.4527 51.4235 49.8597 49.846Z" fill="white"/>
<path d="M47.4935 23.5994C46.1199 22.3618 44.3384 21.7906 42.0809 21.7906C40.0546 21.7906 37.9059 22.4842 36.682 23.5994C35.7164 24.4833 35.2133 25.7073 35.2133 26.9312C35.2133 28.1687 35.7028 29.3791 36.682 30.2766C38.0011 31.4598 39.9594 32.0854 42.0809 32.0854C44.216 32.0854 46.2287 31.4598 47.4935 30.2766C48.4454 29.3927 48.9486 28.1279 48.9486 26.9312C48.9486 25.6937 48.4726 24.4833 47.4935 23.5994ZM44.9776 29.6103C44.2568 30.331 43.2097 30.7254 42.0809 30.7254C40.9658 30.7254 39.905 30.331 39.1843 29.6103C38.5043 28.9167 38.1235 27.9648 38.1235 26.9176C38.1235 25.8841 38.4907 24.9185 39.1843 24.2249C39.905 23.5178 40.9658 23.1234 42.0809 23.1234C43.1961 23.1234 44.2568 23.5178 44.9776 24.2249C45.6848 24.9185 46.0383 25.8705 46.0383 26.9176C46.0519 28.0056 45.712 28.8895 44.9776 29.6103Z" fill="white"/>
<path d="M26.5912 21.7906C25.4625 21.7906 24.1706 22.0082 23.0826 22.4978C22.0627 22.9466 21.2331 23.681 21.2331 24.8913C21.2331 25.9792 21.9267 26.6048 21.8995 26.5912C22.1986 26.8632 22.6746 27.3256 23.9122 27.5976C24.4561 27.72 25.6529 27.9104 26.836 28.0327C28.0056 28.1551 29.1615 28.2775 29.6239 28.3863C29.9911 28.4815 30.6166 28.6175 30.6166 29.3111C30.6166 30.0183 29.9639 30.2222 29.8415 30.2766C29.7191 30.331 28.9439 30.6846 27.516 30.6846C26.4688 30.6846 25.2041 30.3718 24.7417 30.2086C24.2113 30.0183 23.6674 29.7599 23.137 29.1343C23.0146 28.9847 22.8106 28.5495 22.8106 28.1279H21.5187V31.7318H22.9466C22.9466 31.7318 22.9466 31.3374 22.9466 31.2422C22.9466 31.1878 23.0282 30.9566 23.2594 31.079C23.5586 31.215 24.4289 31.555 25.3537 31.7454C26.1017 31.9086 26.5912 32.0174 27.516 32.0174C29.0391 32.0174 29.8687 31.7726 30.4262 31.6094C30.9702 31.4598 31.623 31.1742 32.1534 30.7526C32.4526 30.5214 33.0781 29.9231 33.0781 28.8487C33.0781 27.8152 32.5341 27.176 32.3302 26.9856C32.0718 26.7136 31.7454 26.5096 31.4054 26.3464C31.1062 26.2104 30.6438 26.0472 30.2631 25.952C29.5287 25.7617 27.856 25.5441 27.0672 25.4625C26.2377 25.3673 24.7825 25.2585 24.1978 25.0817C24.021 25.0273 23.6674 24.8505 23.6674 24.4425C23.6674 24.1433 23.8306 23.8985 24.157 23.681C24.6737 23.3682 25.7073 23.1642 26.7816 23.1642C28.06 23.1642 29.1479 23.4498 29.8279 23.749C30.0591 23.8577 30.3311 24.0073 30.5622 24.1841C30.807 24.3881 31.147 24.7961 31.2694 25.3809H32.4254V22.2394H31.1334V22.6066C31.1334 22.729 31.011 22.8786 30.7798 22.7562C30.2359 22.4434 28.6039 21.7906 26.5912 21.7906V21.7906Z" fill="white"/>
<path d="M50.363 22.3618V23.5042H51.3693C52.0901 23.5042 52.1445 23.9121 52.1445 24.2521V29.6103C52.1445 29.9367 52.1581 30.3718 51.7093 30.3718C50.9885 30.3718 50.4718 30.3718 50.4718 30.3718V31.5142H55.7619V30.3718C55.7619 30.3718 55.1907 30.3718 54.47 30.3718C53.9532 30.3718 53.926 30.1406 53.926 29.6375V25.0545L61.1745 31.5278H63.024L62.9288 24.2249C62.9424 23.6946 62.9696 23.5178 63.5135 23.5178C64.2479 23.5178 64.6695 23.5178 64.6695 23.5178V22.3754H59.2841V23.5178C59.2841 23.5178 59.7465 23.5178 60.4673 23.5178C61.0113 23.5178 61.1065 23.7353 61.1065 24.2249L61.1609 28.0463L54.878 22.3754H50.363V22.3618Z" fill="white"/>
<path d="M69.674 30.3718V31.5142H75.9433V30.3718C75.9433 30.3718 74.9913 30.3718 74.7602 30.3718L74.4474 30.3582C74.325 30.3174 74.2298 30.2358 74.2026 30.1406L74.1754 29.8959C74.1754 29.7327 74.1754 28.1687 74.1754 28.0871L74.2162 27.9103C74.2978 27.8152 77.548 24.1025 77.6976 23.9393C78.0104 23.5858 78.1872 23.5042 78.5952 23.5042C78.9895 23.5042 79.7511 23.5042 79.7511 23.5042V22.3618H74.5834V23.5042C74.5834 23.5042 75.2225 23.5042 75.3585 23.5042C75.5897 23.5042 75.6577 23.7353 75.5489 23.8577L73.3458 26.428L73.2914 26.4144L71.1563 23.8577C71.0067 23.6674 71.1291 23.5042 71.2923 23.5042C71.4419 23.5042 72.0539 23.5042 72.0539 23.5042V22.3618H65.7574V23.5042C65.7574 23.5042 66.4782 23.5042 66.8725 23.5042C67.3621 23.5042 67.6749 23.8169 67.8653 24.0209C68.0149 24.1841 71.2243 27.8152 71.2923 27.9239C71.3739 28.0191 71.3739 28.0463 71.3739 28.0871V29.8959L71.3603 30.1406C71.3059 30.2358 71.2379 30.331 71.1155 30.3582L70.8027 30.3718H69.674Z" fill="white"/>
<path d="M23.6401 73.0737C23.2865 72.9377 22.8785 72.8425 22.4706 72.8425C21.0698 72.8425 20.3763 73.9169 20.3763 75.168C20.3763 76.3648 21.0834 77.4391 22.457 77.4391C22.9465 77.4391 23.3409 77.3439 23.6945 77.1943L23.9257 78.2279C23.4633 78.4183 22.8785 78.5135 22.3074 78.5135C20.3219 78.5135 19.0435 77.1263 19.0435 75.1544C19.0435 73.1825 20.2675 71.7682 22.3482 71.7682C22.9193 71.7682 23.4633 71.8498 23.8849 72.0266L23.6401 73.0737Z" fill="black"/>
<path d="M28.4407 71.8906H29.7735V74.5561H32.2757V71.8906H33.6085V78.4183H32.2757V75.6168H29.7735V78.4047H28.4407V71.8906Z" fill="black"/>
<path d="M39.2114 78.4046H37.7971L40.1497 71.877H41.9721L44.3111 78.4046H42.8832L42.2984 76.8135H39.7826L39.2114 78.4046ZM40.0953 75.7392H41.9857L41.0473 72.9241L40.0953 75.7392Z" fill="black"/>
<path d="M68.5588 71.8906H72.489V72.965H69.8915V74.5561H72.2714V75.6304H69.8915V77.3576H72.557V78.4319H68.5452V71.8906H68.5588Z" fill="black"/>
<path d="M76.9496 71.8906H78.2824V77.344H80.8799V78.4183H76.9496V71.8906Z" fill="black"/>
<path d="M52.5796 76.1743V71.877H53.8307V78.4046H52.634L49.7645 74.1208V78.4046H48.4998V71.877H49.7509L52.5796 76.1743Z" fill="black"/>
<path d="M62.5887 76.1743V71.877H63.8399V78.4046H62.6431L59.7736 74.1208V78.4046H58.5089V71.877H59.76L62.5887 76.1743Z" fill="black"/>
</svg>
