<svg width="100" height="100" viewBox="0 0 100 100" fill="none" xmlns="http://www.w3.org/2000/svg">
<g clip-path="url(#clip0_840_2925)">
<path d="M60.6083 33C60.6903 33.0548 60.7722 33.0408 60.8676 33.0408C61.8781 33.0821 62.8748 33.1504 63.8853 33.2738C65.906 33.5063 67.8993 33.8896 69.8519 34.4372C76.1463 36.203 81.6758 39.3239 86.4546 43.772C88.8303 45.9893 90.906 48.4669 92.6809 51.1906C92.7216 51.2593 92.7901 51.3275 92.8035 51.4509C92.5582 51.4509 92.3258 51.4509 92.0939 51.4509C91.8615 51.4509 91.6157 51.5057 91.4245 51.4235C91.2338 51.3414 91.1518 51.081 91.0153 50.8899C86.9189 45.1957 81.4847 41.4999 74.6714 39.8575C73.3882 39.5424 72.0911 39.3647 70.7806 39.2552C69.3196 39.1322 67.8586 39.1183 66.3976 39.2278C63.2572 39.4603 60.2533 40.1996 57.3725 41.4725C53.0169 43.4026 49.3848 46.2631 46.4902 50.0545C46.1902 50.4378 45.9032 50.8485 45.6301 51.2593C45.5347 51.4096 45.4255 51.4644 45.2477 51.4509C44.9611 51.437 44.6746 51.4509 44.3742 51.4509C38.2571 51.4509 32.1267 51.4509 26.0096 51.4509C25.9004 51.4509 25.805 51.4509 25.6958 51.4509C25.6685 51.3414 25.7504 51.2866 25.7916 51.2319C28.1534 47.5908 31.0207 44.4291 34.407 41.7189C37.247 39.4468 40.3463 37.5989 43.6913 36.1756C45.9305 35.2173 48.2382 34.492 50.6139 33.9583C52.3887 33.5611 54.1774 33.3012 55.9796 33.1504C56.5258 33.1095 57.0855 33.0682 57.6317 33.0408C57.7137 33.0408 57.8095 33.0548 57.8915 33C58.7923 33 59.707 33 60.6083 33V33Z" fill="#005C9E"/>
<path d="M4 54.5579C4.17729 54.517 4.36848 54.5444 4.54625 54.5444C4.96935 54.5444 5.40635 54.5444 5.82946 54.5444C6.07527 54.5444 6.07527 54.5444 6.08917 54.298C6.08917 54.1198 6.10258 53.942 6.08917 53.7778C6.07527 53.5861 6.14379 53.4766 6.28035 53.3536C7.19508 52.6278 8.10981 51.9025 9.02454 51.1771C9.06575 51.1358 9.10648 51.0811 9.18842 51.0811C9.21573 51.1497 9.20183 51.2319 9.20183 51.3001C9.20183 52.2723 9.20183 53.2441 9.20183 54.2293C9.20183 54.298 9.20183 54.3662 9.20183 54.4349C9.20183 54.5031 9.24304 54.5305 9.29767 54.5305C9.36571 54.5305 9.43423 54.5305 9.50227 54.5305C10.8952 54.5305 12.2877 54.5305 13.6806 54.5444C14.0764 54.5444 13.9945 54.4897 14.1037 54.8456C14.9504 57.6374 15.7966 60.4297 16.6572 63.222C16.6845 63.3042 16.6845 63.4137 16.7937 63.4958C16.8752 63.1946 16.9571 62.9208 17.0391 62.647C17.7765 60.0329 18.514 57.4323 19.2375 54.8182C19.2514 54.7635 19.2787 54.6948 19.2921 54.64C19.306 54.5579 19.3467 54.517 19.4421 54.517C19.4833 54.517 19.5106 54.517 19.5514 54.517C20.4392 54.517 21.3267 54.517 22.2002 54.517C22.2548 54.517 22.3233 54.5031 22.378 54.5444C22.4187 54.64 22.3506 54.7361 22.3233 54.8182C21.422 57.624 20.5346 60.4297 19.6333 63.236C19.2787 64.3446 18.9236 65.4533 18.5686 66.5619C18.4866 66.8357 18.514 66.8084 18.2542 66.8084C17.2715 66.8084 16.2882 66.8084 15.3055 66.8084C15.005 66.8084 15.0596 66.8084 14.9777 66.5754C14.281 64.5637 13.5848 62.5514 12.8885 60.5392C12.5062 59.4171 12.1104 58.2945 11.728 57.1859C11.6461 56.9395 11.7007 56.9534 11.4002 56.9534C10.7447 56.9534 10.0897 56.9534 9.43423 56.9534C9.21573 56.9534 9.21573 56.9534 9.21573 57.1724C9.21573 59.3484 9.21573 61.5249 9.21573 63.7014C9.21573 63.797 9.22915 63.8931 9.25646 63.9887C9.29767 64.1803 9.40692 64.3033 9.58421 64.3581C9.74808 64.4128 9.89854 64.4402 10.0758 64.4541C10.3629 64.4676 10.6355 64.4815 10.9086 64.4815C11.1683 64.4815 11.1544 64.4815 11.1544 64.7553C11.1544 65.2616 11.1544 65.7679 11.1544 66.2881C11.1544 66.4116 11.1544 66.5346 11.1544 66.6575C11.1683 66.781 11.1137 66.8218 10.9906 66.8218C10.4716 66.8218 9.93927 66.8218 9.42033 66.8218C8.88798 66.8218 8.35562 66.8218 7.82327 66.7123C7.427 66.6301 7.05852 66.5072 6.74419 66.2607C6.30767 65.9048 6.15721 65.4259 6.11648 64.8922C6.08917 64.5771 6.08917 64.2625 6.08917 63.9474C6.08917 61.73 6.08917 59.4993 6.08917 57.282C6.08917 56.926 6.11648 56.9534 5.76142 56.9534C5.17444 56.9534 4.58698 56.9668 4 56.9668C4 56.1733 4 55.3653 4 54.5579V54.5579Z" fill="#7F7F85"/>
<path d="M46.9957 60.6761C46.9957 58.7466 46.9957 56.8165 46.9957 54.8864C46.9957 54.8317 46.9957 54.7769 46.9957 54.7221C46.9818 54.5992 47.023 54.5305 47.1596 54.5579C47.2003 54.5579 47.2276 54.5579 47.2688 54.5579C49.3302 54.5579 51.3921 54.5579 53.44 54.5579C54.1089 54.5579 54.751 54.64 55.3653 54.8999C56.6078 55.434 57.3313 56.3784 57.5637 57.7061C57.6184 58.0073 57.6318 58.3219 57.6318 58.6231C57.6318 61.2785 57.6318 63.9339 57.6318 66.5754C57.6318 66.6301 57.6318 66.6849 57.6318 66.7397C57.6318 66.8218 57.591 66.8492 57.5225 66.8492C57.4818 66.8492 57.4406 66.8492 57.386 66.8492C56.5124 66.8492 55.6384 66.8492 54.7644 66.8492C54.5052 66.8492 54.5186 66.8766 54.5186 66.5893C54.5186 64.2212 54.5186 61.8669 54.5186 59.4993C54.5186 59.1568 54.5052 58.8148 54.4367 58.4728C54.2594 57.6513 53.7405 57.1585 52.8938 57.0903C52.2249 57.0355 51.5694 57.0355 50.9004 57.0903C50.3542 57.1311 50.1223 57.3641 50.0677 57.9251C50.0269 58.2945 50.013 58.6644 50.013 59.0338C50.013 61.5249 50.013 64.016 50.013 66.5206C50.013 66.9039 50.0542 66.8492 49.6719 66.8492C48.8798 66.8492 48.0743 66.8492 47.2823 66.8492C46.9818 66.8492 47.0091 66.8631 47.0091 66.5893C46.9957 64.6045 46.9957 62.6336 46.9957 60.6761V60.6761Z" fill="#005C9E"/>
<path d="M29.3412 66.9452C28.9181 66.9452 28.4945 66.9452 28.0714 66.9452C27.034 66.8905 26.0235 66.6849 25.0948 66.206C24.4398 65.864 23.8936 65.3846 23.5246 64.7279C23.4839 64.6458 23.4427 64.5771 23.402 64.4949C23.2381 64.1256 23.2381 64.1938 23.5658 64.0434C24.3033 63.7149 25.0402 63.3863 25.7777 63.0577C25.8596 63.0169 25.9415 62.9895 26.0096 62.9621C26.1054 63.0169 26.0915 63.099 26.1054 63.1812C26.2693 63.7288 26.6243 64.1116 27.1428 64.3307C27.4159 64.4402 27.703 64.5223 28.0034 64.5497C28.5492 64.6184 29.082 64.6318 29.6282 64.5223C29.8875 64.4676 30.1333 64.372 30.3518 64.2211C30.5291 64.0982 30.6656 63.9339 30.7476 63.7422C30.9253 63.3455 30.8295 62.9756 30.4745 62.7157C30.2698 62.5788 30.0513 62.4832 29.8055 62.4011C29.2186 62.2094 28.6038 62.0999 27.9895 61.9764C27.1294 61.7987 26.2554 61.6205 25.4499 61.2511C25.218 61.1416 24.9995 61.0321 24.781 60.8817C24.0028 60.3749 23.5385 59.6635 23.47 58.7465C23.3746 57.4597 23.757 56.351 24.7398 55.4888C25.286 54.9959 25.955 54.7087 26.6651 54.5718C28.0853 54.284 29.5051 54.3527 30.898 54.7634C31.2119 54.859 31.4984 54.9959 31.7855 55.1602C32.7955 55.7486 33.3418 56.6656 33.5464 57.8017C33.5737 57.9251 33.5876 58.062 33.601 58.1989C33.6149 58.3085 33.5876 58.3767 33.4649 58.3632C33.4237 58.3632 33.3964 58.3632 33.3557 58.3632C32.4951 58.3632 31.635 58.3632 30.7749 58.3632C30.543 58.3632 30.543 58.3632 30.5018 58.1576C30.3106 57.3501 29.9009 56.9668 29.0547 56.8439C28.5492 56.7752 28.0441 56.7891 27.5391 56.8847C27.3613 56.926 27.1974 56.9808 27.0475 57.049C26.6924 57.2272 26.5285 57.5279 26.5151 57.9251C26.5012 58.185 26.6243 58.3767 26.829 58.5275C27.0201 58.6644 27.2247 58.76 27.4432 58.8282C28.0987 59.0472 28.7816 59.1568 29.4644 59.3076C30.3245 59.4853 31.1707 59.677 31.9766 60.0464C32.3997 60.238 32.7821 60.471 33.1233 60.7856C33.6283 61.265 33.9015 61.8395 33.9561 62.5241C34.0107 63.0851 33.9561 63.6466 33.7788 64.1938C33.451 65.2342 32.7409 65.9322 31.7855 66.3842C31.0068 66.7262 30.1879 66.9039 29.3412 66.9452V66.9452Z" fill="#005C9E"/>
<path d="M82.5771 66.5072C82.5771 61.5931 82.5771 56.693 82.5771 51.7795C82.5771 51.7382 82.5771 51.6973 82.5771 51.6426C82.5771 51.4509 82.5771 51.4509 82.3721 51.437C81.4712 51.437 80.5699 51.437 79.6691 51.437C79.6418 51.437 79.6145 51.437 79.5871 51.437C79.4913 51.437 79.4367 51.4783 79.4506 51.5739C79.4506 51.6286 79.4506 51.6973 79.4506 51.7521C79.4506 53.148 79.4506 54.5444 79.4506 55.9403C79.4506 56.0224 79.4779 56.132 79.4094 56.2141C79.3413 56.1185 79.2728 56.0224 79.2182 55.9403C78.6585 55.201 77.9484 54.6947 77.0337 54.4896C76.5147 54.3662 75.9824 54.3388 75.4361 54.4075C74.4121 54.5305 73.5108 54.9272 72.7739 55.6391C71.9684 56.4192 71.5041 57.3915 71.2444 58.4727C70.9578 59.6909 70.9578 60.9225 71.149 62.1547C71.2856 63.0303 71.5587 63.8791 72.0091 64.6458C72.7327 65.864 73.7566 66.6301 75.163 66.8631C75.3408 66.8905 75.532 66.8631 75.6958 66.9452C75.9004 66.9452 76.1189 66.9452 76.3235 66.9452C76.3921 66.8765 76.474 66.9039 76.542 66.9039C77.7299 66.767 78.7131 66.2747 79.3821 65.2342C79.4094 65.1934 79.4094 65.1247 79.5052 65.1521C79.5052 65.6175 79.5052 66.0965 79.5052 66.5619C79.5052 66.781 79.5052 66.781 79.7237 66.781C80.5699 66.781 81.4027 66.781 82.2494 66.781C82.6179 66.8357 82.5771 66.8765 82.5771 66.5072V66.5072ZM78.8358 63.003C78.1942 64.2759 76.911 64.5636 75.887 64.3172C75.3815 64.1938 74.9857 63.8931 74.6853 63.4684C74.3575 63.0169 74.1663 62.4967 74.0571 61.9491C73.8525 60.9639 73.8932 59.9921 74.1663 59.0338C74.2483 58.7734 74.3575 58.5275 74.4941 58.2811C74.8765 57.6374 75.4361 57.2546 76.1736 57.145C76.5693 57.0903 76.9656 57.1037 77.3475 57.2132C78.1396 57.4323 78.6312 57.966 78.9177 58.7052C79.1909 59.4032 79.2594 60.1285 79.2728 60.8404C79.2728 61.6205 79.1636 62.3324 78.8358 63.003V63.003Z" fill="#005C9E"/>
<path d="M69.7014 57.8291C69.7014 57.7469 69.7014 57.6648 69.7014 57.5966C69.6468 56.8299 69.3741 56.1594 68.814 55.6257C68.3497 55.1737 67.79 54.8999 67.1757 54.7221C65.6601 54.284 64.1311 54.3114 62.6155 54.6813C62.0007 54.8317 61.4549 55.1189 60.9767 55.5435C60.2259 56.2276 59.8847 57.1177 59.7343 58.0894C59.7069 58.2672 59.7208 58.2672 59.9254 58.2672C60.7721 58.2672 61.6049 58.2672 62.4516 58.2672C62.7247 58.2672 62.7382 58.2672 62.8201 58.0073C63.0113 57.4049 63.4344 57.0629 64.0492 56.9668C64.4584 56.8986 64.8681 56.9121 65.2777 56.9534C65.4962 56.9808 65.7147 57.0216 65.9193 57.1037C66.5202 57.3502 66.7114 57.8704 66.6707 58.3906C66.6568 58.6779 66.5068 58.8969 66.2471 59.0472C66.0698 59.1433 65.892 59.1981 65.7008 59.2255C64.8681 59.3484 64.0353 59.4853 63.2159 59.6088C62.6835 59.6909 62.1373 59.7731 61.6322 59.9647C60.6083 60.3615 59.8708 61.0321 59.5158 62.086C59.2838 62.7839 59.2426 63.4958 59.3519 64.2211C59.475 64.9878 59.8162 65.631 60.4037 66.1378C60.8675 66.5345 61.4137 66.7536 62.0007 66.8905C62.1785 66.9313 62.3697 66.9039 62.5336 66.9861C62.7928 66.9861 63.0525 66.9861 63.3251 66.9861C63.3798 66.9313 63.4344 66.9452 63.5029 66.9452C63.7894 66.9313 64.0765 66.8631 64.3496 66.7944C65.1685 66.5754 65.8513 66.1378 66.4522 65.5488C66.5475 65.4667 66.6161 65.3572 66.7387 65.289C66.7933 65.3846 66.766 65.4667 66.766 65.5354C66.7526 65.9048 66.7526 66.2747 66.7387 66.6441C66.7387 66.767 66.7526 66.8357 66.9026 66.8357C67.7766 66.8218 68.6501 66.8357 69.5241 66.8357C69.6741 66.8357 69.7014 66.781 69.7014 66.6441C69.7014 66.3842 69.7153 66.1238 69.7153 65.85C69.7287 63.1812 69.7014 60.5118 69.7014 57.8291V57.8291ZM66.6295 62.6336C66.5748 63.2086 66.2883 63.674 65.8374 64.0434C65.2097 64.5497 64.4857 64.7688 63.6802 64.7279C62.9159 64.6732 62.4104 64.1256 62.397 63.3589C62.3831 62.8661 62.4923 62.4145 62.8886 62.086C63.0932 61.9082 63.3524 61.7987 63.6122 61.7166C64.0899 61.5657 64.5815 61.511 65.0731 61.4154C65.6055 61.3059 66.1378 61.1964 66.6568 60.8817C66.6295 61.4836 66.6841 62.0586 66.6295 62.6336V62.6336Z" fill="#005C9E"/>
<path d="M45.9851 59.9508C45.9304 59.2528 45.8078 58.5549 45.562 57.8978C44.975 56.2141 43.8413 55.0915 42.0938 54.64C41.179 54.3936 40.2643 54.3801 39.3357 54.517C37.3289 54.8043 35.9499 55.8855 35.2124 57.7743C34.8167 58.8008 34.6935 59.8826 34.7347 60.9773C34.7754 61.8395 34.8847 62.6883 35.1578 63.5097C35.5263 64.5771 36.1272 65.4667 37.0831 66.0965C37.7793 66.548 38.5575 66.781 39.363 66.9039C39.6227 66.9452 39.8819 66.9179 40.1412 67C40.4416 67 40.742 67 41.0291 67C41.0837 66.9587 41.1383 66.9587 41.2063 66.9587C41.6841 66.9313 42.1484 66.8357 42.5854 66.6849C43.6367 66.3294 44.5107 65.7405 45.125 64.7961C45.1657 64.7279 45.2342 64.6592 45.2342 64.5497C44.9338 64.4128 44.6333 64.2759 44.3329 64.139C43.8006 63.8931 43.2682 63.6601 42.7354 63.4137C42.64 63.3728 42.5854 63.3589 42.5308 63.4684C42.2442 64.0434 41.7387 64.3172 41.1383 64.4402C40.674 64.5363 40.2097 64.495 39.7593 64.3994C38.9672 64.2077 38.4209 63.7422 38.1205 62.9756C37.9432 62.538 37.8747 62.086 37.8474 61.6205C37.9432 61.5657 38.0386 61.5931 38.1344 61.5931C40.2097 61.5931 42.2849 61.5931 44.3602 61.5931C44.8384 61.5931 45.3023 61.5931 45.7805 61.5931C45.999 61.5931 45.999 61.5931 45.999 61.3741C46.0536 60.8678 46.0263 60.4163 45.9851 59.9508V59.9508ZM42.79 59.4853C42.7081 59.5401 42.6127 59.5127 42.5308 59.5127C41.0971 59.5127 39.6634 59.5127 38.2298 59.5127C38.1751 59.5127 38.1205 59.5127 38.0659 59.5127C37.9839 59.5127 37.9566 59.4719 37.9705 59.4032C38.0659 58.76 38.2437 58.1442 38.7075 57.6648C39.2264 57.1177 39.8958 56.9534 40.6194 57.0216C41.7933 57.1311 42.5034 57.9112 42.7354 59.0199C42.7627 59.1707 42.8173 59.321 42.79 59.4853V59.4853Z" fill="#005C9E"/>
<path d="M95.9985 60.1972C95.9985 59.7318 95.9439 59.2663 95.8213 58.8148C95.2884 56.6657 93.964 55.2697 91.8207 54.6674C90.6189 54.3254 89.4177 54.3114 88.2159 54.6266C86.1133 55.1602 84.7209 56.4605 84.1334 58.5683C83.7237 60.0195 83.7376 61.4836 84.1607 62.9348C84.5297 64.1938 85.2259 65.2068 86.3179 65.9461C87.2332 66.5619 88.2571 66.8766 89.3492 66.9587C89.7454 66.9587 90.1273 66.9587 90.5236 66.9587C90.8101 66.9453 91.0972 66.9039 91.3837 66.8357C93.746 66.3155 95.2477 64.8922 95.8347 62.5241C96.0259 61.7574 95.9985 60.9773 95.9985 60.1972V60.1972ZM92.4762 62.6744C92.0526 63.7288 91.261 64.2625 90.1273 64.3172C89.8 64.3307 89.4584 64.3172 89.1307 64.2351C88.3525 64.0434 87.8062 63.5506 87.4651 62.8252C87.2739 62.3872 87.1646 61.9356 87.11 61.4562C87.0281 60.6353 87.0554 59.8139 87.2878 59.0064C87.4651 58.4314 87.7516 57.9251 88.2298 57.5553C88.5576 57.3093 88.9395 57.1585 89.3357 57.1037C89.8001 57.0355 90.2778 57.0355 90.7421 57.1585C91.6156 57.3775 92.1619 57.9525 92.4762 58.7735C92.7081 59.4032 92.7762 60.0464 92.7762 60.6901C92.8035 61.388 92.7215 62.0452 92.4762 62.6744V62.6744Z" fill="#005C9E"/>
</g>
<defs>
<clipPath id="clip0_840_2925">
<rect width="92" height="34" fill="white" transform="translate(4 33)"/>
</clipPath>
</defs>
</svg>
