<svg width="100" height="100" viewBox="0 0 100 100" fill="none" xmlns="http://www.w3.org/2000/svg">
<path d="M89.6922 16.4053C89.6922 12.8695 86.8227 10 83.2869 10H16.4053C12.8695 10 10 12.8695 10 16.4053V83.2869C10 86.8227 12.8695 89.6922 16.4053 89.6922H83.2869C86.8227 89.6922 89.6922 86.8227 89.6922 83.2869V16.4053Z" fill="black"/>
<path d="M49.8597 49.846C36.8451 48.2141 11.6591 46.9086 10.7344 30.8613V83.2868C10.7344 86.4147 13.2775 88.9577 16.4053 88.9577H83.2869C86.4147 88.9577 88.9578 86.4147 88.9578 83.2868V67.2804C86.5371 52.7019 62.4527 51.4235 49.8597 49.846Z" fill="white"/>
<path d="M47.4934 23.5994C46.1199 22.3618 44.3384 21.7906 42.0809 21.7906C40.0546 21.7906 37.9059 22.4842 36.6819 23.5994C35.7164 24.4833 35.2132 25.7073 35.2132 26.9312C35.2132 28.1687 35.7028 29.3791 36.6819 30.2766C38.0011 31.4598 39.9594 32.0854 42.0809 32.0854C44.216 32.0854 46.2287 31.4598 47.4934 30.2766C48.4454 29.3927 48.9485 28.1279 48.9485 26.9312C48.9485 25.6937 48.4726 24.4833 47.4934 23.5994ZM44.9775 29.6103C44.2568 30.331 43.2096 30.7254 42.0809 30.7254C40.9657 30.7254 39.905 30.331 39.1842 29.6103C38.5042 28.9167 38.1235 27.9648 38.1235 26.9176C38.1235 25.8841 38.4906 24.9185 39.1842 24.2249C39.905 23.5178 40.9657 23.1234 42.0809 23.1234C43.196 23.1234 44.2568 23.5178 44.9775 24.2249C45.6847 24.9185 46.0383 25.8705 46.0383 26.9176C46.0519 28.0056 45.7119 28.8895 44.9775 29.6103Z" fill="white"/>
<path d="M26.5912 21.7906C25.4624 21.7906 24.1705 22.0082 23.0825 22.4978C22.0626 22.9466 21.233 23.681 21.233 24.8913C21.233 25.9792 21.9266 26.6048 21.8994 26.5912C22.1986 26.8632 22.6746 27.3256 23.9121 27.5976C24.4561 27.72 25.6528 27.9104 26.836 28.0327C28.0055 28.1551 29.1615 28.2775 29.6238 28.3863C29.991 28.4815 30.6166 28.6175 30.6166 29.3111C30.6166 30.0183 29.9638 30.2222 29.8414 30.2766C29.719 30.331 28.9439 30.6846 27.5159 30.6846C26.4688 30.6846 25.204 30.3718 24.7417 30.2086C24.2113 30.0183 23.6673 29.7599 23.1369 29.1343C23.0145 28.9847 22.8106 28.5495 22.8106 28.1279H21.5186V31.7318H22.9465C22.9465 31.7318 22.9465 31.3374 22.9465 31.2422C22.9465 31.1878 23.0281 30.9566 23.2593 31.079C23.5585 31.215 24.4289 31.555 25.3536 31.7454C26.1016 31.9086 26.5912 32.0174 27.5159 32.0174C29.0391 32.0174 29.8686 31.7726 30.4262 31.6094C30.9702 31.4598 31.6229 31.1742 32.1533 30.7526C32.4525 30.5214 33.0781 29.9231 33.0781 28.8487C33.0781 27.8152 32.5341 27.176 32.3301 26.9856C32.0717 26.7136 31.7453 26.5096 31.4053 26.3464C31.1062 26.2104 30.6438 26.0472 30.263 25.952C29.5286 25.7617 27.8559 25.5441 27.0672 25.4625C26.2376 25.3673 24.7825 25.2585 24.1977 25.0817C24.0209 25.0273 23.6673 24.8505 23.6673 24.4425C23.6673 24.1433 23.8305 23.8985 24.1569 23.681C24.6737 23.3682 25.7072 23.1642 26.7816 23.1642C28.0599 23.1642 29.1479 23.4498 29.8278 23.749C30.059 23.8577 30.331 24.0073 30.5622 24.1841C30.807 24.3881 31.147 24.7961 31.2693 25.3809H32.4253V22.2394H31.1334V22.6066C31.1334 22.729 31.011 22.8786 30.7798 22.7562C30.2358 22.4434 28.6039 21.7906 26.5912 21.7906V21.7906Z" fill="white"/>
<path d="M50.3629 22.3618V23.5042H51.3693C52.09 23.5042 52.1444 23.9121 52.1444 24.2521V29.6103C52.1444 29.9367 52.158 30.3718 51.7093 30.3718C50.9885 30.3718 50.4717 30.3718 50.4717 30.3718V31.5142H55.7619V30.3718C55.7619 30.3718 55.1907 30.3718 54.4699 30.3718C53.9531 30.3718 53.9259 30.1406 53.9259 29.6375V25.0545L61.1744 31.5278H63.0239L62.9287 24.2249C62.9423 23.6946 62.9695 23.5178 63.5135 23.5178C64.2478 23.5178 64.6694 23.5178 64.6694 23.5178V22.3754H59.2841V23.5178C59.2841 23.5178 59.7465 23.5178 60.4672 23.5178C61.0112 23.5178 61.1064 23.7353 61.1064 24.2249L61.1608 28.0463L54.8779 22.3754H50.3629V22.3618Z" fill="white"/>
<path d="M69.6739 30.3718V31.5142H75.9432V30.3718C75.9432 30.3718 74.9913 30.3718 74.7601 30.3718L74.4473 30.3582C74.3249 30.3174 74.2297 30.2358 74.2025 30.1406L74.1753 29.8959C74.1753 29.7327 74.1753 28.1687 74.1753 28.0871L74.2161 27.9103C74.2977 27.8152 77.548 24.1025 77.6975 23.9393C78.0103 23.5858 78.1871 23.5042 78.5951 23.5042C78.9895 23.5042 79.7511 23.5042 79.7511 23.5042V22.3618H74.5833V23.5042C74.5833 23.5042 75.2225 23.5042 75.3585 23.5042C75.5897 23.5042 75.6576 23.7353 75.5489 23.8577L73.3458 26.428L73.2914 26.4144L71.1563 23.8577C71.0067 23.6674 71.1291 23.5042 71.2923 23.5042C71.4419 23.5042 72.0538 23.5042 72.0538 23.5042V22.3618H65.7573V23.5042C65.7573 23.5042 66.4781 23.5042 66.8725 23.5042C67.362 23.5042 67.6748 23.8169 67.8652 24.0209C68.0148 24.1841 71.2243 27.8152 71.2923 27.9239C71.3739 28.0191 71.3739 28.0463 71.3739 28.0871V29.8959L71.3603 30.1406C71.3059 30.2358 71.2379 30.331 71.1155 30.3582L70.8027 30.3718H69.6739Z" fill="white"/>
<path d="M23.64 73.0737C23.2865 72.9377 22.8785 72.8425 22.4705 72.8425C21.0698 72.8425 20.3762 73.9169 20.3762 75.168C20.3762 76.3648 21.0834 77.4391 22.4569 77.4391C22.9465 77.4391 23.3408 77.3439 23.6944 77.1943L23.9256 78.2279C23.4632 78.4183 22.8785 78.5135 22.3073 78.5135C20.3218 78.5135 19.0435 77.1263 19.0435 75.1544C19.0435 73.1825 20.2674 71.7682 22.3481 71.7682C22.9193 71.7682 23.4632 71.8498 23.8848 72.0266L23.64 73.0737Z" fill="black"/>
<path d="M28.4407 71.8906H29.7734V74.5561H32.2757V71.8906H33.6084V78.4183H32.2757V75.6168H29.7734V78.4047H28.4407V71.8906Z" fill="black"/>
<path d="M39.2113 78.4046H37.797L40.1497 71.877H41.972L44.3111 78.4046H42.8832L42.2984 76.8135H39.7825L39.2113 78.4046ZM40.0953 75.7392H41.9856L41.0472 72.9241L40.0953 75.7392Z" fill="black"/>
<path d="M68.5587 71.8906H72.4889V72.965H69.8914V74.5561H72.2713V75.6304H69.8914V77.3576H72.5569V78.4319H68.5451V71.8906H68.5587Z" fill="black"/>
<path d="M76.9496 71.8906H78.2823V77.344H80.8798V78.4183H76.9496V71.8906Z" fill="black"/>
<path d="M52.5795 76.1743V71.877H53.8306V78.4046H52.6339L49.7644 74.1208V78.4046H48.4997V71.877H49.7508L52.5795 76.1743Z" fill="black"/>
<path d="M62.5886 76.1743V71.877H63.8397V78.4046H62.643L59.7735 74.1208V78.4046H58.5088V71.877H59.7599L62.5886 76.1743Z" fill="black"/>
</svg>
