<svg width="100" height="100" viewBox="0 0 100 100" fill="none" xmlns="http://www.w3.org/2000/svg">
<g clip-path="url(#clip0_840_1780)">
<path d="M91 49.5C91 60.2412 86.7331 70.5425 79.1379 78.1378C71.5427 85.733 61.2414 90 50.5002 90C39.7589 90.0001 29.4576 85.7332 21.8624 78.138C14.2671 70.5429 10.0001 60.2416 10 49.5004C9.99991 38.7591 14.2667 28.4578 21.8619 20.8625C29.457 13.2672 39.7582 9.00014 50.4995 9C61.2407 8.99986 71.5421 13.2667 79.1374 20.8617C86.7327 28.4568 90.9998 38.7581 91 49.4993" fill="#3E4CA4"/>
<path d="M16.4433 58.0874C16.4433 57.6292 16.7304 57.3862 17.1147 57.3862C17.3597 57.3862 17.5707 57.4765 17.7568 57.5556C20.1128 58.4651 22.4285 59.3268 25.1754 59.3204C27.1159 59.3204 28.7728 58.6393 28.7728 56.9084C28.7728 55.9623 28.4499 55.6326 28.046 55.4281C27.6028 55.1838 27.1039 54.9554 26.5936 54.7653C25.2568 54.2675 23.9516 54.0489 22.573 53.5197C21.2606 53.023 19.6086 52.3273 18.3897 51.1732C16.8956 49.8042 16.1289 47.9547 16.1289 45.5961C16.1289 39.9547 20.7495 36.4653 26.5006 36.4653C30.3097 36.4653 33.4251 37.6576 33.4251 37.6576C33.7213 37.7583 34.0194 37.8561 34.0194 38.1895V43.6332C34.0194 44.0437 33.8289 44.3512 33.4688 44.3512C33.2591 44.3512 32.8309 44.1651 32.8309 44.1651C32.8309 44.1651 29.257 42.7832 26.8111 42.8102C24.0573 42.8102 22.9792 44.0048 22.9792 45.3144C22.9792 46.5232 24.1306 46.8442 25.6696 47.3324C26.4083 47.5349 29.3952 48.3029 30.7356 48.9206C33.7258 50.1216 35.6324 52.9014 35.6324 56.402C35.6324 61.5646 31.8385 65.8006 24.9643 65.8006C22.1612 65.8006 20.3053 65.4005 16.975 64.2508C16.675 64.1558 16.4433 64.0323 16.4433 63.6563V58.0874Z" fill="white"/>
<path d="M71.9705 43.6021H67.858C67.5571 43.6021 67.295 43.427 67.295 43.0389V37.1885C67.295 36.9006 67.5221 36.6722 67.7954 36.6722H71.9705V28.4596C71.9705 28.1204 72.175 27.8965 72.5491 27.8965H78.5225C78.8699 27.8965 79.0854 28.1324 79.0854 28.4596V36.6722H84.2456C84.6318 36.6722 84.8711 36.8735 84.8711 37.2823V43.0077C84.8711 43.3838 84.627 43.6021 84.2769 43.6021H79.0854V53.6065C79.0854 54.5572 79.1217 56.6316 80.2286 57.7011C81.1363 58.588 82.8475 58.7758 84.3082 58.7758C84.6223 58.7758 84.8711 59.002 84.8711 59.339V65.1269C84.8711 65.4357 84.6862 65.7057 84.2957 65.7057H83.42C78.8378 65.7057 76.3125 64.0718 74.8529 62.5983C72.8427 60.5238 71.9705 57.9852 71.9705 53.8013V43.6021Z" fill="white"/>
<path d="M39.0517 21.8301C38.7273 21.8301 38.52 22.0627 38.52 22.362V49.8028C38.52 55.7857 39.7644 58.4145 41.9357 60.8937C44.994 64.3856 49.3067 65.7909 52.8201 65.7909C61.1384 65.7909 67.4642 59.0179 67.4642 51.3202C67.4642 43.4826 60.9699 36.8455 53.2853 36.8455C48.7331 36.8455 45.6349 39.3816 45.6349 39.3816V22.362C45.6349 22.0256 45.3709 21.8301 45.1032 21.8301H39.0517ZM52.7722 43.7773C56.9619 43.7773 60.3347 46.9162 60.3347 51.3426C60.3347 55.8615 56.7189 58.8747 52.6852 58.8747C48.1915 58.8747 45.3075 55.1489 45.3075 51.1119C45.3075 47.5548 48.0397 43.7773 52.7722 43.7773V43.7773Z" fill="white"/>
</g>
<defs>
<clipPath id="clip0_840_1780">
<rect width="81" height="81" fill="white" transform="translate(10 9)"/>
</clipPath>
</defs>
</svg>
