<svg width="100" height="100" viewBox="0 0 100 100" fill="none" xmlns="http://www.w3.org/2000/svg">
<g clip-path="url(#clip0_841_293)">
<path d="M18.8464 45.5073H10.0045V54.473H18.8464V45.5073Z" fill="#FF6914"/>
<path d="M18.8464 54.4731H14.4471L18.8464 50.0116V54.4731Z" fill="#781ED2"/>
<path d="M18.8463 45.5073L10 54.4779V49.9687L14.3996 45.5073H18.8463Z" fill="#781ED2"/>
<path d="M65.9759 43.3793C65.9759 43.5605 65.9408 43.7398 65.8724 43.9072C65.804 44.0745 65.7038 44.2266 65.5775 44.3547C65.4512 44.4828 65.3013 44.5844 65.1363 44.6537C64.9712 44.723 64.7943 44.7587 64.6157 44.7587C64.255 44.7587 63.909 44.6134 63.6539 44.3547C63.3988 44.096 63.2555 43.7452 63.2555 43.3793C63.2555 43.0135 63.3988 42.6627 63.6539 42.404C63.909 42.1453 64.255 42 64.6157 42C64.7943 42 64.9712 42.0357 65.1363 42.105C65.3013 42.1743 65.4512 42.2759 65.5775 42.404C65.7038 42.5321 65.804 42.6841 65.8724 42.8515C65.9408 43.0188 65.9759 43.1982 65.9759 43.3793V43.3793Z" fill="#FF6914"/>
<path d="M21.097 54.0841L21.2405 52.1696C22.0663 52.6403 22.96 52.8557 23.8986 52.8851C24.6182 52.8723 25.361 52.9309 25.4311 52.1907C25.4697 51.8199 25.2509 51.3667 24.5104 51.1957C22.1881 50.6596 21.1009 50.06 21.1009 48.2204C21.1009 45.8676 24.406 44.8236 27.0502 45.8769C27.0277 46.3235 27.0502 47.2733 27.0502 47.7058C25.6813 47.1003 23.3227 46.8866 23.3274 48.1672C23.3274 49.4142 27.7245 48.5725 27.7245 52.1346C27.7395 53.3985 26.6445 54.2319 25.6676 54.4974C24.254 54.8815 21.8331 54.5697 21.097 54.0841V54.0841Z" fill="#FF6914"/>
<path d="M28.9082 42.1431H31.3192V46.3673C31.3198 45.3163 36.637 44.4427 36.6368 48.2527L36.6368 54.4682H34.1939L34.1939 48.6368C34.1939 46.8741 31.3998 47.14 31.3998 48.6368L31.3998 54.4682H28.9081L28.9082 42.1431Z" fill="#FF6914"/>
<path d="M37.7576 50.2761C37.7019 47.043 39.5454 45.467 41.9965 45.467C43.7626 45.467 46.1696 46.2818 46.1696 50.3077C46.1696 52.9011 44.7703 54.6636 42.0762 54.6696C38.4517 54.6776 37.8167 52.0257 37.7576 50.2761V50.2761ZM43.7086 50.1979C43.7275 48.1364 43.1943 47.2309 41.9191 47.2309C40.6194 47.2309 40.2117 48.4304 40.2272 50.2736C40.2377 51.5271 40.6422 52.8987 41.857 52.908C43.6368 52.9216 43.6993 51.2059 43.7086 50.1979V50.1979Z" fill="#FF6914"/>
<path d="M47.5229 47.4448L46.465 47.4691V45.6699H49.0159L49.487 46.8285C49.9053 46.1092 51.0339 45.4667 52.2005 45.4667C56.5507 45.4667 57.102 54.6695 51.2578 54.6695L49.972 54.5565V58H47.5229L47.5229 47.4448ZM49.972 48.5767L49.972 52.7597C55.0711 54.6289 53.9591 44.4111 49.972 48.5767V48.5767Z" fill="#FF6914"/>
<path d="M57.1775 50.1232V47.4447H55.8816V45.6699H57.1775V43.6008L59.5793 42.9976L59.5792 45.6699H61.5513V47.4447H59.5792V51.8489C59.5792 52.445 60.0088 52.8189 60.5653 52.8204C61.0558 52.8216 61.8004 52.4519 61.9563 52.3816L61.9563 54.1396C61.3802 54.563 60.5102 54.6695 59.6702 54.6695C57.0016 54.6695 57.1863 52.6726 57.1775 50.1232Z" fill="#FF6914"/>
<path d="M63.3268 47.4448H62.3613V45.6699H65.915C65.915 47.4448 65.9149 51.2416 65.9149 52.7016C65.9149 53.1903 66.9251 52.6919 66.9251 52.6919V54.2048C66.9251 54.2048 66.4366 54.6696 65.2771 54.6696C64.6515 54.6696 63.3268 54.4682 63.3268 52.5488C63.3268 50.8338 63.3268 48.5552 63.3268 47.4448L63.3268 47.4448Z" fill="#FF6914"/>
<path d="M65.976 43.3793C65.976 43.5605 65.9408 43.7398 65.8725 43.9072C65.8041 44.0745 65.7039 44.2266 65.5776 44.3547C65.4513 44.4828 65.3013 44.5844 65.1363 44.6537C64.9713 44.723 64.7944 44.7587 64.6157 44.7587C64.255 44.7587 63.909 44.6134 63.6539 44.3547C63.3989 44.096 63.2556 43.7452 63.2556 43.3793C63.2556 43.0135 63.3989 42.6627 63.6539 42.404C63.909 42.1453 64.255 42 64.6157 42C64.7944 42 64.9713 42.0357 65.1363 42.105C65.3013 42.1743 65.4513 42.2759 65.5776 42.404C65.7039 42.5321 65.8041 42.6841 65.8725 42.8515C65.9408 43.0188 65.976 43.1982 65.976 43.3793V43.3793Z" fill="#FF6914"/>
<path d="M67.9687 47.5279H66.936V45.6699H69.5426L69.9303 46.7397C70.6833 45.422 73.8006 44.711 75.1587 46.7176C76.6286 44.8774 80.8903 44.6816 80.8903 48.801L80.8903 54.4682H78.4378V48.801C78.4378 46.8709 75.6437 46.8709 75.6437 48.801C75.6437 50.1528 75.6437 52.5312 75.6437 54.4682H73.2544L73.2543 48.801C73.2543 46.8709 70.4603 46.8709 70.4603 48.801C70.4603 50.7888 70.4603 52.4393 70.4603 54.4682H67.9687V47.5279Z" fill="#FF6914"/>
<path d="M81.8936 50.1153C81.8936 47.5794 83.2256 45.4666 85.9272 45.4666C88.1925 45.4666 90 46.5954 90 49.6165C90 50.4018 89.6909 50.9364 89.0691 50.9364H84.4437C84.4437 52.3912 86.532 53.9129 89.5603 51.9719L89.5603 53.699C87.2828 55.3789 81.8936 55.2856 81.8936 50.1153ZM84.4437 49.4297H87.6115C87.6115 46.5954 84.4437 46.5954 84.4437 49.4297Z" fill="#FF6914"/>
</g>
<defs>
<clipPath id="clip0_841_293">
<rect width="80" height="16" fill="white" transform="translate(10 42)"/>
</clipPath>
</defs>
</svg>
