<svg width="100" height="100" viewBox="0 0 100 100" fill="none" xmlns="http://www.w3.org/2000/svg">
<g clip-path="url(#clip0_841_256)">
<path fill-rule="evenodd" clip-rule="evenodd" d="M83.3334 39.5833H16.6667V54.8596C16.6667 54.8596 26.1873 60.3202 41.7284 57.5198C57.2694 54.7196 61.7494 53.3196 71.5502 55.4196C81.3509 57.5198 83.3334 58.535 83.3334 58.535V39.5833Z" fill="#EE1C24"/>
<path fill-rule="evenodd" clip-rule="evenodd" d="M78.2315 42.2827H74.3685H74.3671V49.7789H76.6773V47.5106H78.0423C79.7646 47.5106 80.9825 46.6606 80.9825 44.8448C80.9825 43.7739 80.2685 42.2827 78.2315 42.2827ZM77.5706 45.7254H76.6773V44.2035H77.7067C78.2733 44.2035 78.7985 44.2456 78.7985 44.9273C78.7985 45.6833 78.1685 45.7254 77.5706 45.7254ZM64.9208 46.0291C64.9196 43.7416 66.4427 42.1035 68.7206 42.1035C70.9983 42.1035 72.5204 43.7416 72.5204 46.0291C72.5204 48.3183 70.9983 49.955 68.7206 49.955C66.4427 49.955 64.9208 48.3171 64.9208 46.0291ZM67.2296 46.0291C67.2296 47.6996 68.1325 48.0873 68.7206 48.0873C69.3087 48.0873 70.2119 47.6996 70.2119 46.0291C70.2119 44.3604 69.3087 43.9712 68.7206 43.9712C68.1325 43.9712 67.2296 44.3587 67.2296 46.0291ZM60.7737 42.2827H63.0837V49.7789H60.7737V46.8077H58.6106V49.7789H56.3004V42.2827H58.6106V44.8869H60.7737V42.2827ZM54.7129 47.3746C54.7129 49.3281 52.9177 49.9579 51.249 49.9579C50.3992 49.9579 47.974 49.6539 47.9531 47.2598H50.2646V47.2585C50.2646 47.4477 50.2969 47.6156 50.3485 47.7514C50.5167 48.2023 51.0208 48.2975 51.4504 48.2975C51.8285 48.2975 52.4052 48.1714 52.4052 47.6156C52.4052 47.2279 52.0794 47.1229 50.7883 46.7546L50.6592 46.7181C49.5062 46.3935 48.2471 46.0391 48.2471 44.5814C48.2471 42.8496 49.7269 42.1035 51.2698 42.1035C52.8969 42.1035 54.3346 42.7223 54.3975 44.5496H52.2135C52.2558 44.2664 52.1296 44.0775 51.9404 43.9514C51.7515 43.8144 51.4896 43.7625 51.2587 43.7625C50.944 43.7625 50.4298 43.8466 50.4298 44.2664C50.4627 44.6873 51.1329 44.8489 51.9335 45.0421C52.1504 45.0943 52.3769 45.1489 52.6029 45.2116C53.6627 45.5056 54.7129 45.9985 54.7129 47.3746ZM44.0608 49.7785H46.3708V42.2827H44.0608V49.7785ZM38.8848 47.8577H42.2015V49.7789H36.5746V42.2827H38.8848V47.8577ZM30.9267 42.1035C28.6485 42.1035 27.1267 43.7416 27.1283 46.0308C27.1283 48.3183 28.6502 49.9566 30.9279 49.9566C33.206 49.9566 34.7277 48.32 34.7277 46.0308C34.7277 43.7416 33.2044 42.1035 30.9267 42.1035ZM30.9267 48.0873C30.3385 48.0873 29.4371 47.6996 29.4354 46.0291C29.4354 44.3587 30.3385 43.9712 30.9267 43.9712C31.5148 43.9712 32.4177 44.3604 32.4177 46.0291C32.4177 47.6996 31.5148 48.0873 30.9267 48.0873ZM19.0846 42.2827H22.9473C24.9846 42.2827 25.6985 43.7739 25.6985 44.8448C25.6985 46.6606 24.4806 47.5106 22.7598 47.5106H21.3946V49.7789H19.0846V42.2827ZM21.3946 45.7254H22.2867C22.8846 45.7254 23.5146 45.6833 23.5146 44.9273C23.5146 44.2456 22.9896 44.2035 22.4225 44.2035H21.3933V45.7254H21.3946Z" fill="white"/>
</g>
<defs>
<clipPath id="clip0_841_256">
<rect width="100" height="100" fill="white"/>
</clipPath>
</defs>
</svg>
