<svg width="100" height="100" viewBox="0 0 100 100" fill="none" xmlns="http://www.w3.org/2000/svg">
<g clip-path="url(#clip0_841_274)">
<path d="M14.5833 68.5475V60.4941H17.6516C18.4232 60.4941 18.983 60.5675 19.3311 60.7139C19.6824 60.8568 19.9631 61.1131 20.1733 61.4831C20.3834 61.8529 20.4885 62.2758 20.4885 62.7521C20.4885 63.3562 20.3292 63.856 20.0107 64.2516C19.6923 64.6435 19.2162 64.8906 18.5825 64.9933C18.8977 65.1983 19.1571 65.4235 19.3606 65.6689C19.5675 65.9143 19.8449 66.35 20.193 66.9762L21.0746 68.5475H19.3311L18.2771 66.795C17.9028 66.1687 17.6467 65.7752 17.5088 65.6139C17.3709 65.4491 17.2248 65.3375 17.0705 65.2789C16.9161 65.2166 16.6715 65.1854 16.3366 65.1854H16.0411V68.5475H14.5833ZM16.0411 63.9H17.1197C17.8191 63.9 18.2558 63.8671 18.4298 63.8012C18.6038 63.7352 18.7401 63.6216 18.8386 63.4606C18.9371 63.2996 18.9863 63.0981 18.9863 62.8562C18.9863 62.5854 18.9207 62.3675 18.7893 62.2027C18.6613 62.0341 18.479 61.9279 18.2426 61.8839C18.1244 61.8656 17.7698 61.8566 17.1788 61.8566H16.0411V63.9Z" fill="#767676"/>
<path d="M21.7667 68.5475V60.4941H27.1202V61.8566H23.2244V63.6418H26.8494V64.9987H23.2244V67.1906H27.2581V68.5475H21.7667Z" fill="#767676"/>
<path d="M28.3885 60.4941H31.0529C31.6538 60.4941 32.1119 60.5454 32.4271 60.6481C32.8506 60.7873 33.2133 61.0343 33.5154 61.3896C33.8175 61.7448 34.0475 62.1806 34.205 62.6971C34.3627 63.2098 34.4415 63.8433 34.4415 64.5977C34.4415 65.2606 34.3675 65.8318 34.2198 66.3116C34.0392 66.8975 33.7815 67.3718 33.4465 67.7343C33.1938 68.0091 32.8523 68.2233 32.4221 68.3771C32.1004 68.4906 31.6702 68.5475 31.1317 68.5475H28.3885V60.4941ZM29.8463 61.8566V67.1906H30.9348C31.3419 67.1906 31.6358 67.165 31.8163 67.1137C32.0527 67.0477 32.2481 66.936 32.4025 66.7785C32.56 66.621 32.6881 66.3629 32.7867 66.0039C32.885 65.6414 32.9344 65.1489 32.9344 64.5262C32.9344 63.9037 32.885 63.4258 32.7867 63.0925C32.6881 62.7593 32.5502 62.4993 32.3729 62.3125C32.1956 62.1258 31.9706 61.9993 31.6981 61.9335C31.4946 61.8823 31.0956 61.8566 30.5013 61.8566H29.8463Z" fill="#767676"/>
<path d="M35.5817 68.5475V60.4941H40.9352V61.8566H37.0396V63.6418H40.6644V64.9987H37.0396V67.1906H41.0731V68.5475H35.5817Z" fill="#767676"/>
<path d="M48.2738 65.5865V64.2296H51.416V67.4377C51.1106 67.7673 50.6673 68.0585 50.0863 68.3112C49.5083 68.5602 48.9223 68.6848 48.3279 68.6848C47.5727 68.6848 46.9144 68.509 46.3529 68.1573C45.7915 67.8021 45.3696 67.2967 45.0873 66.6412C44.8048 65.9821 44.6638 65.266 44.6638 64.4933C44.6638 63.6548 44.8213 62.9094 45.1365 62.2575C45.4517 61.6056 45.9129 61.1058 46.5204 60.7579C46.9833 60.4906 47.5596 60.3569 48.2492 60.3569C49.1454 60.3569 49.8448 60.5675 50.3473 60.9885C50.8529 61.406 51.1779 61.9848 51.3223 62.7246L49.8744 63.0267C49.7727 62.631 49.5806 62.3198 49.2981 62.0927C49.0192 61.8621 48.6694 61.7467 48.2492 61.7467C47.6121 61.7467 47.1048 61.9719 46.7273 62.4223C46.3529 62.8729 46.1658 63.5412 46.1658 64.4275C46.1658 65.3833 46.3563 66.101 46.7371 66.5808C47.1179 67.0569 47.6171 67.295 48.2344 67.295C48.5398 67.295 48.845 67.229 49.1504 67.0971C49.4592 66.9617 49.7233 66.7987 49.9433 66.6083V65.5865H48.2738Z" fill="#767676"/>
<path d="M52.369 64.5702C52.369 63.75 52.479 63.0615 52.699 62.5048C52.8631 62.0946 53.0865 61.7267 53.3688 61.4006C53.6546 61.0748 53.9665 60.8329 54.3046 60.6754C54.7544 60.4631 55.2731 60.3569 55.8608 60.3569C56.9248 60.3569 57.7752 60.725 58.4121 61.461C59.0523 62.1971 59.3725 63.2208 59.3725 64.5319C59.3725 65.8319 59.0556 66.85 58.4219 67.586C57.7883 68.3185 56.9413 68.6848 55.8806 68.6848C54.8069 68.6848 53.9533 68.3204 53.3196 67.5917C52.6858 66.8592 52.369 65.8521 52.369 64.5702ZM53.8712 64.5154C53.8712 65.4273 54.06 66.1194 54.4375 66.5919C54.8152 67.0606 55.2946 67.295 55.8756 67.295C56.4569 67.295 56.9329 67.0623 57.304 66.5973C57.6783 66.1285 57.8654 65.4273 57.8654 64.4933C57.8654 63.5704 57.6831 62.8821 57.3188 62.4279C56.9575 61.9737 56.4767 61.7467 55.8756 61.7467C55.2748 61.7467 54.7906 61.9775 54.4227 62.439C54.055 62.8967 53.8712 63.5887 53.8712 64.5154Z" fill="#767676"/>
<path d="M60.0448 65.9271L61.4633 65.7733C61.5488 66.3044 61.721 66.6944 61.9804 66.9433C62.2431 67.1925 62.596 67.3169 63.0394 67.3169C63.5088 67.3169 63.8619 67.2071 64.0981 66.9873C64.3379 66.764 64.4577 66.504 64.4577 66.2073C64.4577 66.0169 64.4069 65.8556 64.305 65.724C64.2065 65.5883 64.0325 65.4712 63.7829 65.3723C63.6123 65.3065 63.2231 65.1892 62.6158 65.0206C61.8344 64.8046 61.286 64.5392 60.9708 64.2242C60.5275 63.781 60.3058 63.2408 60.3058 62.6037C60.3058 62.1935 60.4094 61.8108 60.6163 61.4556C60.8263 61.0967 61.1267 60.8237 61.5175 60.6371C61.9115 60.4502 62.3858 60.3569 62.9408 60.3569C63.8471 60.3569 64.5283 60.5785 64.9848 61.0217C65.4444 61.4648 65.6856 62.0562 65.7088 62.7958L64.2508 62.8673C64.1885 62.4535 64.054 62.1569 63.8471 61.9775C63.6435 61.7944 63.3365 61.7027 62.926 61.7027C62.5025 61.7027 62.1708 61.7998 61.9313 61.994C61.7769 62.1183 61.6998 62.285 61.6998 62.4937C61.6998 62.6842 61.7719 62.8473 61.9165 62.9827C62.1002 63.1548 62.5469 63.3342 63.256 63.521C63.9652 63.7079 64.489 63.9019 64.8271 64.1033C65.1685 64.301 65.4346 64.574 65.625 64.9219C65.8188 65.266 65.9156 65.6927 65.9156 66.2019C65.9156 66.6631 65.8006 67.0954 65.5708 67.4981C65.341 67.901 65.0158 68.2012 64.5956 68.3992C64.1754 68.5931 63.6517 68.6902 63.0246 68.6902C62.1117 68.6902 61.4108 68.4558 60.9215 67.9871C60.4323 67.5146 60.14 66.8279 60.0448 65.9271Z" fill="#767676"/>
<path d="M67.041 68.5475V60.4941H69.3804C70.2669 60.4941 70.8448 60.5346 71.1141 60.615C71.5277 60.736 71.8741 60.9996 72.1533 61.406C72.4323 61.8089 72.5718 62.3308 72.5718 62.9716C72.5718 63.466 72.4914 63.8816 72.3306 64.2187C72.1696 64.5556 71.9643 64.821 71.715 65.0152C71.4687 65.2056 71.2175 65.3321 70.9614 65.3941C70.6133 65.4712 70.1094 65.5096 69.4494 65.5096H68.4989V68.5475H67.041ZM68.4989 61.8566V64.1418H69.2966C69.8712 64.1418 70.2554 64.0996 70.4491 64.0154C70.6429 63.9312 70.7939 63.7993 70.9023 63.62C71.0139 63.4404 71.0698 63.2316 71.0698 62.9937C71.0698 62.7006 70.9925 62.4589 70.8383 62.2685C70.6839 62.0781 70.4885 61.9591 70.2521 61.9114C70.0781 61.8748 69.7285 61.8566 69.2031 61.8566H68.4989Z" fill="#767676"/>
<path d="M73.6677 68.5475V60.4941H79.0215V61.8566H75.1256V63.6418H78.7504V64.9987H75.1256V67.1906H79.1592V68.5475H73.6677Z" fill="#767676"/>
<path d="M80.334 68.5475V60.5602H81.7919V67.1906H85.4167V68.5475H80.334Z" fill="#767676"/>
<path d="M32.7441 38.7338C34.4698 41.1086 37.2241 42.5354 38.3856 42.9519C39.5471 39.5931 44.4418 33.6565 53.1529 32.9534C60.1218 32.3911 65.9016 35.6354 67.9204 37.3277C65.7633 34.8281 59.3585 29.829 50.996 29.829C42.6333 29.829 35.3437 35.7654 32.7441 38.7338Z" fill="url(#paint0_linear_841_274)"/>
<path d="M52.9869 30.7662C46.7481 31.3287 42.2571 36.3123 40.7914 38.7339C42.5337 36.5466 49.7514 32.5629 55.8906 32.7191C60.8021 32.8441 66.1227 35.8958 68.1691 37.4058C67.2564 36.3123 60.7854 30.0633 52.9869 30.7662Z" fill="url(#paint1_linear_841_274)"/>
<path d="M38.5515 31.7469C34.7021 33.0744 32.0804 36.071 31.2509 37.4033C32.0804 29.8614 35.8138 23.8279 44.5248 22.0931C51.4936 20.7054 55.2269 23.1742 56.2225 24.5821C46.4661 23.5562 40.3767 28.9312 38.5515 31.7469Z" fill="url(#paint2_linear_841_274)"/>
<path d="M60.454 31.1558C53.7506 19.8729 42.6169 22.0802 37.8881 24.5941C41.179 22.055 49.8512 18.0628 58.214 22.4071C66.5765 26.7512 68.7225 34.2229 68.7502 37.4156C67.0908 34.7006 62.5279 32.111 60.454 31.1558Z" fill="url(#paint3_linear_841_274)"/>
<path d="M61.4489 43.4921C65.2985 42.1648 67.9202 39.1681 68.7498 37.8356C67.9202 45.3777 64.1869 51.4113 55.4758 53.1458C48.5069 54.5335 44.7735 52.0648 43.7779 50.6571C53.5344 51.6827 59.6239 46.3077 61.4489 43.4921Z" fill="url(#paint4_linear_841_274)"/>
<path d="M39.5469 44.0833C46.2502 55.366 57.3837 53.1587 62.1127 50.6448C58.8219 53.1839 50.1494 57.1762 41.7869 52.8321C33.4241 48.4877 31.2783 41.0162 31.2506 37.8233C32.9098 40.5385 37.4727 43.1279 39.5469 44.0833Z" fill="url(#paint5_linear_841_274)"/>
<path d="M32.5781 36.6167C34.3038 34.3239 37.0581 32.9462 38.2196 32.5439C39.381 35.7871 44.2758 41.5189 52.9869 42.1977C59.9558 42.7408 65.7356 39.6083 67.7544 37.9742C65.5973 40.3877 59.1925 45.2146 50.83 45.2146C42.4673 45.2146 35.1777 39.4827 32.5781 36.6167Z" fill="url(#paint6_linear_841_274)"/>
<path d="M52.821 44.3096C46.5823 43.7665 42.0912 38.9548 40.6256 36.6167C42.3679 38.7286 49.5856 42.5748 55.7248 42.424C60.6362 42.3034 65.9569 39.3569 68.0033 37.8988C67.0906 38.9548 60.6196 44.9884 52.821 44.3096Z" fill="url(#paint7_linear_841_274)"/>
</g>
<defs>
<linearGradient id="paint0_linear_841_274" x1="56.3056" y1="34.8821" x2="24.9527" y2="46.4973" gradientUnits="userSpaceOnUse">
<stop stop-color="#DDE0F1"/>
<stop offset="1"/>
</linearGradient>
<linearGradient id="paint1_linear_841_274" x1="44.9396" y1="35.7656" x2="63.7335" y2="33.2156" gradientUnits="userSpaceOnUse">
<stop stop-color="#4EFFFF"/>
<stop offset="1" stop-color="#4462FF"/>
</linearGradient>
<linearGradient id="paint2_linear_841_274" x1="46.5159" y1="19.1192" x2="34.4252" y2="36.4494" gradientUnits="userSpaceOnUse">
<stop stop-color="#4EFFFF"/>
<stop offset="1" stop-color="#4358FF"/>
</linearGradient>
<linearGradient id="paint3_linear_841_274" x1="41.5633" y1="17.8711" x2="67.5573" y2="40.746" gradientUnits="userSpaceOnUse">
<stop stop-color="white"/>
<stop offset="1" stop-color="#484848"/>
</linearGradient>
<linearGradient id="paint4_linear_841_274" x1="53.4846" y1="56.1198" x2="65.5754" y2="38.7896" gradientUnits="userSpaceOnUse">
<stop stop-color="#4EFFFF"/>
<stop offset="1" stop-color="#4358FF"/>
</linearGradient>
<linearGradient id="paint5_linear_841_274" x1="55.6252" y1="58.7789" x2="30.1735" y2="30.7818" gradientUnits="userSpaceOnUse">
<stop stop-color="white"/>
<stop offset="1" stop-color="#484848"/>
</linearGradient>
<linearGradient id="paint6_linear_841_274" x1="37.3071" y1="32.5439" x2="59.9273" y2="57.1783" gradientUnits="userSpaceOnUse">
<stop stop-color="#DDE0F1"/>
<stop offset="1"/>
</linearGradient>
<linearGradient id="paint7_linear_841_274" x1="44.7737" y1="39.4827" x2="63.5429" y2="42.1202" gradientUnits="userSpaceOnUse">
<stop stop-color="#4EFFFF"/>
<stop offset="1" stop-color="#4462FF"/>
</linearGradient>
<clipPath id="clip0_841_274">
<rect width="100" height="100" fill="white"/>
</clipPath>
</defs>
</svg>
