<svg width="256" height="256" viewBox="0 0 171 100" fill="none" xmlns="http://www.w3.org/2000/svg">
<path fill-rule="evenodd" clip-rule="evenodd" d="M52.0303 20.6343C44.2983 16.0064 39.145 14.9493 33.6245 14.9493C30.5568 14.9493 27.1199 15.74 26.6289 18.9133C26.2596 21.6892 28.7146 22.3531 33.87 23.5433C43.3184 25.6596 52.8885 28.4376 54.1139 38.8858L59.2714 11.5074L52.0303 20.6343ZM123.209 21.4271L137.318 1.85202H158.303L128.608 39.5476L124.191 63.0887H106.274L111.304 36.7695L102.101 19.7061L90.0758 33.8605L106.274 63.0887H84.677L72.0329 38.7548L67.7357 63.0887H49.5754L52.152 49.0697C47.2442 61.1057 38.0413 65.0761 25.5252 65.0761C14.971 65.0761 5.2771 61.6342 0 55.4164L9.93942 42.8541C14.2324 47.3509 20.8629 49.7315 27.8564 49.7315C32.7621 49.7315 35.7101 47.7484 35.8297 45.1014C35.9535 40.6046 28.7146 39.9429 22.0883 37.9598C14.6017 35.7125 6.62628 30.2896 8.71194 18.9133C10.3066 10.1839 17.5456 7.62939e-06 35.9535 7.62939e-06C46.2622 7.62939e-06 53.8705 2.51161 60.1275 7.27485L61.1073 1.85202H79.274L73.9948 28.4376L95.3508 1.85202H113.392L123.209 21.4271Z" fill="white"/>
<path d="M163.985 7.49145H165.439C166.042 7.49145 166.421 7.19495 166.572 6.60626C166.721 6.03046 166.518 5.74471 165.96 5.74471H164.434L163.985 7.49145ZM162.118 10.2995L163.551 4.74566H166.314C167.536 4.74566 167.997 5.31931 167.701 6.47091C167.485 7.30667 167.078 7.80728 166.478 7.97701C166.961 8.10377 167.124 8.46687 166.971 9.0663L166.652 10.2995H165.511L165.775 9.27256C165.909 8.75047 165.712 8.48835 165.181 8.48835H163.727L163.261 10.2995H162.118ZM166.228 3.29112C165.095 3.29112 164.023 3.70793 163.003 4.54155C161.986 5.37732 161.323 6.38497 161.018 7.56879C160.714 8.75262 160.857 9.76242 161.442 10.5982C162.03 11.4361 162.892 11.8529 164.025 11.8529C165.156 11.8529 166.228 11.4361 167.244 10.5982C168.257 9.76242 168.918 8.75262 169.223 7.56879C169.527 6.38926 169.386 5.38376 168.803 4.54584C168.222 3.70793 167.361 3.29112 166.228 3.29112ZM166.413 2.60789C167.741 2.60789 168.75 3.09131 169.447 4.06028C170.142 5.02926 170.314 6.19805 169.961 7.56879C169.609 8.93739 168.834 10.1083 167.638 11.0816C166.444 12.0527 165.181 12.5404 163.855 12.5404C162.512 12.5404 161.495 12.0527 160.794 11.0837C160.097 10.1148 159.927 8.94384 160.28 7.56879C160.632 6.19805 161.409 5.02926 162.607 4.06028C163.803 3.09131 165.072 2.60789 166.413 2.60789Z" fill="white"/>
<path d="M40.0221 78.5371H37.7381L36.8456 83.7747H34.0338L36.4617 69.4673L41.0873 69.4771C42.6356 69.4771 43.8256 69.8505 44.6573 70.5973C45.4954 71.3441 45.8665 72.3825 45.7705 73.7123C45.6361 75.6776 44.6125 77.0435 42.6996 77.81L44.6669 83.6175V83.7747H41.6727L40.0221 78.5371ZM38.1411 76.1493L40.2332 76.169C40.9754 76.1558 41.5863 75.9528 42.0662 75.5597C42.5524 75.1601 42.8435 74.6196 42.9395 73.9383C43.029 73.3029 42.9299 72.805 42.642 72.4447C42.3541 72.0844 41.8966 71.8911 41.2697 71.8649L38.8705 71.8551L38.1411 76.1493Z" fill="white"/>
<path d="M55.5207 77.5741H50.1658L49.5132 81.4065H55.8086L55.4056 83.7747H46.2983L48.7263 69.4673H57.8143L57.4017 71.8551H51.135L50.5496 75.2649H55.9238L55.5207 77.5741Z" fill="white"/>
<path d="M57.1234 83.7747L59.5513 69.4673L63.5627 69.4771C64.5032 69.4967 65.3477 69.7162 66.0963 70.1355C66.8512 70.5482 67.4622 71.1443 67.9292 71.9239C68.3963 72.7035 68.6778 73.5813 68.7737 74.5574C68.8249 75.1273 68.8185 75.7104 68.7546 76.3065L68.6874 76.8273C68.4059 78.9237 67.5998 80.6073 66.269 81.8782C64.9447 83.1425 63.3356 83.7747 61.4419 83.7747H57.1234ZM61.9601 71.8551L60.3383 81.4065L61.5091 81.4163C62.8014 81.4163 63.8379 80.9315 64.6184 79.962C65.4053 78.9924 65.8564 77.5283 65.9715 75.5695L65.9907 75.2551C66.0099 74.1742 65.8084 73.3455 65.3861 72.769C64.9639 72.1925 64.3337 71.8911 63.4956 71.8649L61.9601 71.8551Z" fill="white"/>
<path d="M78.8407 77.5741H73.4857L72.8331 81.4065H79.1286L78.7255 83.7747H69.6183L72.0462 69.4673H81.1343L80.7216 71.8551H74.455L73.8696 75.2649H79.2437L78.8407 77.5741Z" fill="white"/>
<path d="M29.5574 95.2414C29.2887 96.722 28.633 97.8946 27.5901 98.7593C26.5537 99.6241 25.3093 100.037 23.857 99.9975C22.9933 99.9778 22.2384 99.7616 21.5922 99.3489C20.946 98.9297 20.4438 98.3302 20.0855 97.5507C19.7272 96.7645 19.5289 95.8965 19.4905 94.9466C19.4649 94.4094 19.4873 93.8854 19.5577 93.3744L19.7208 92.1952C20.0215 90.0465 20.7573 88.353 21.9281 87.1149C23.1053 85.8702 24.5352 85.2642 26.2178 85.297C27.5293 85.3232 28.569 85.7588 29.3367 86.6039C30.1045 87.4424 30.5107 88.6085 30.5555 90.1022H28.7609C28.6777 88.0975 27.91 87.0166 26.4577 86.8594L26.141 86.8397C24.9318 86.807 23.921 87.2688 23.1085 88.2253C22.3024 89.1752 21.7809 90.4756 21.5442 92.1264L21.3331 93.6102L21.2755 94.475C21.2371 95.6803 21.445 96.6401 21.8993 97.3541C22.3599 98.0616 23.0413 98.4285 23.9434 98.4547C24.9158 98.4875 25.7188 98.2483 26.3522 97.7374C26.9919 97.2264 27.4782 96.4042 27.8108 95.2709L29.5574 95.2414Z" fill="white"/>
<path d="M37.4267 94.0131H34.2022L33.2234 99.8009H31.4096L33.8376 85.4935L38.0409 85.5033C39.506 85.5099 40.6224 85.8898 41.3902 86.6432C42.1579 87.3966 42.481 88.4218 42.3594 89.7189C42.289 90.6164 41.9692 91.4058 41.3998 92.0871C40.8367 92.7684 40.085 93.2827 39.1445 93.6299L41.3134 99.6732L41.3038 99.8009H39.3844L37.4267 94.0131ZM34.4613 92.4703L37.11 92.4802C38.0313 92.4802 38.8086 92.2312 39.442 91.7334C40.0754 91.2289 40.4465 90.5574 40.5552 89.7189C40.6512 88.9 40.4913 88.258 40.0754 87.7929C39.6596 87.3278 39.0262 87.0821 38.1753 87.0559L35.3826 87.0461L34.4613 92.4703Z" fill="white"/>
<path d="M52.0617 93.1877H46.1885L45.3248 98.2582H52.1576L51.8889 99.8009H43.2615L45.6895 85.4935H54.2209L53.9522 87.0461H47.2249L46.4476 91.6449H52.3208L52.0617 93.1877Z" fill="white"/>
<path d="M54.2017 99.8009L56.6297 85.4935L60.2572 85.5033C61.396 85.5033 62.3749 85.7949 63.1938 86.3779C64.0191 86.9609 64.6109 87.7667 64.9692 88.7952C65.3275 89.8172 65.433 90.9636 65.2859 92.2345L65.1899 92.9518C64.9084 95.0351 64.1183 96.699 62.8195 97.9437C61.5208 99.1819 59.8894 99.8009 57.9252 99.8009H54.2017ZM58.1652 87.0461L56.265 98.2582L58.0404 98.268C59.3967 98.268 60.5451 97.8356 61.4856 96.9709C62.4325 96.1062 63.0467 94.9204 63.3282 93.4137C63.5521 92.2083 63.6289 91.1831 63.5585 90.338C63.4625 89.3226 63.133 88.5299 62.57 87.96C62.007 87.3835 61.2521 87.0821 60.3052 87.0559L58.1652 87.0461Z" fill="white"/>
<path d="M75.6119 93.1877H69.7388L68.8751 98.2582H75.7079L75.4392 99.8009H66.8118L69.2397 85.4935H77.7712L77.5025 87.0461H70.7752L69.9979 91.6449H75.871L75.6119 93.1877Z" fill="white"/>
<path d="M88.1836 99.8009H86.437L81.4467 88.697L79.5658 99.8009H77.752L80.18 85.4935H81.9265L86.9264 96.6466L88.817 85.4935H90.6115L88.1836 99.8009Z" fill="white"/>
<path d="M102.089 95.2414C101.82 96.722 101.165 97.8946 100.122 98.7593C99.0854 99.6241 97.841 100.037 96.3887 99.9975C95.525 99.9778 94.7701 99.7616 94.1239 99.3489C93.4778 98.9297 92.9755 98.3302 92.6173 97.5507C92.259 96.7645 92.0606 95.8965 92.0223 94.9466C91.9967 94.4094 92.0191 93.8854 92.0894 93.3744L92.2526 92.1952C92.5533 90.0465 93.289 88.353 94.4598 87.1149C95.637 85.8702 97.0669 85.2642 98.7495 85.297C100.061 85.3232 101.101 85.7588 101.868 86.6039C102.636 87.4424 103.042 88.6085 103.087 90.1022H101.293C101.209 88.0975 100.442 87.0166 98.9895 86.8594L98.6728 86.8397C97.4636 86.807 96.4527 87.2688 95.6402 88.2253C94.8341 89.1752 94.3127 90.4756 94.076 92.1264L93.8648 93.6102L93.8072 94.475C93.7689 95.6803 93.9768 96.6401 94.431 97.3541C94.8917 98.0616 95.573 98.4285 96.4751 98.4547C97.4476 98.4875 98.2505 98.2483 98.8839 97.7374C99.5237 97.2264 100.01 96.4042 100.343 95.2709L102.089 95.2414Z" fill="white"/>
<path d="M105.88 99.8009H104.085L106.513 85.4935H108.308L105.88 99.8009Z" fill="white"/>
<path d="M117.559 96.0669H111.897L109.987 99.8009H108.058L115.649 85.4935H117.233L119.997 99.8009H118.221L117.559 96.0669ZM112.694 94.5143H117.29L116.129 87.842L112.694 94.5143Z" fill="white"/>
<path d="M121.935 99.8009L124.363 85.4935L127.991 85.5033C129.129 85.5033 130.108 85.7949 130.927 86.3779C131.753 86.9609 132.344 87.7667 132.703 88.7952C133.061 89.8172 133.166 90.9636 133.019 92.2345L132.923 92.9518C132.642 95.0351 131.852 96.699 130.553 97.9437C129.254 99.1819 127.623 99.8009 125.659 99.8009H121.935ZM125.899 87.0461L123.998 98.2582L125.774 98.268C127.13 98.268 128.279 97.8356 129.219 96.9709C130.166 96.1062 130.78 94.9204 131.062 93.4137C131.285 92.2083 131.362 91.1831 131.292 90.338C131.196 89.3226 130.866 88.5299 130.303 87.96C129.74 87.3835 128.985 87.0821 128.039 87.0559L125.899 87.0461Z" fill="white"/>
<path d="M142.491 96.0669H136.829L134.919 99.8009H132.991L140.581 85.4935H142.165L144.929 99.8009H143.153L142.491 96.0669ZM137.626 94.5143H142.223L141.061 87.842L137.626 94.5143Z" fill="white"/>
</svg>
