<svg width="100" height="100" viewBox="0 0 100 100" fill="none" xmlns="http://www.w3.org/2000/svg">
<path d="M58.4425 62.5609C58.5805 61.3175 59.1654 60.199 60.0406 59.3436C60.0903 59.2947 60.1423 59.2451 60.194 59.1983C60.2459 59.1517 60.3 59.1072 60.3548 59.0618C61.1661 58.3922 62.1533 57.9437 63.1664 57.7571C63.1842 57.7554 63.2026 57.7537 63.2212 57.7497C63.3678 57.7246 63.5138 57.7053 63.6597 57.6906C63.8447 57.6733 64.0322 57.6642 64.2214 57.6642C64.2655 57.6642 64.3113 57.6686 64.354 57.6699C64.5078 57.6728 64.6673 57.6858 64.8275 57.6997C65.9815 57.8266 67.0927 58.3054 68.0056 59.0886L68.6126 59.6122L71.2358 56.903L70.5559 56.3133C68.9641 54.9338 66.5402 54.0741 64.2214 54.0741C58.1031 54.0741 54.4501 58.676 54.4501 63.1277C54.4501 63.1277 54.4501 63.1277 54.4501 63.1285C54.4501 63.129 54.4501 63.129 54.4501 63.1294C54.4501 67.5796 58.1031 72.1821 64.2214 72.1821C66.5402 72.1821 68.9641 71.3225 70.5559 69.9434L71.2358 69.3533L68.6126 66.645L68.0056 67.1681C67.0927 67.9519 65.9815 68.4301 64.8275 68.5563C64.6673 68.5711 64.5078 68.5842 64.354 68.5876C64.3113 68.5881 64.2655 68.5933 64.2214 68.5933C64.0322 68.5933 63.8447 68.5825 63.6597 68.5664C63.5138 68.5526 63.3678 68.532 63.2212 68.5073C63.2026 68.5031 63.1842 68.5008 63.1664 68.4978C62.1533 68.3129 61.1661 67.8631 60.3548 67.1954C60.3 67.1502 60.2459 67.1054 60.194 67.0582C60.1423 67.0117 60.0903 66.9624 60.0406 66.9131C59.1654 66.0588 58.5805 64.9388 58.4425 63.6954C58.4248 63.5269 58.4159 63.3545 58.4138 63.1795C58.4138 63.1623 58.4106 63.1458 58.4106 63.1285C58.4106 63.1108 58.4138 63.094 58.4138 63.0772C58.4159 62.9018 58.4248 62.7298 58.4425 62.5609V62.5609ZM44.7463 64.7673C45.2363 63.564 45.947 61.8186 46.6646 60.0693C47.3805 61.8186 48.0924 63.564 48.5819 64.7673H44.7463V64.7673ZM45.1732 54.3259L39.5248 67.4587L37.7349 71.6213L37.5998 71.9333H41.79C41.79 71.9333 42.9966 69.0041 43.3173 68.2296H50.0107C50.3334 69.0041 51.5392 71.9333 51.5392 71.9333H55.7265L48.1546 54.3259H45.1732V54.3259ZM71.7751 71.9333H83.5871V68.3439C83.5871 68.3439 77.1797 68.3439 75.7813 68.3439V64.8394C77.1797 64.8394 83.5871 64.8394 83.5871 64.8394V61.2526C83.5871 61.2526 77.1797 61.2526 75.7813 61.2526V57.9126C77.1797 57.9126 83.5871 57.9126 83.5871 57.9126V54.3259H71.7751V71.9333V71.9333ZM21.8687 61.5586L19.5249 60.8051C17.4352 60.1367 17.4352 59.4546 17.4352 59.1254C17.4352 58.6238 17.6736 57.4482 19.8866 57.4482C22.1232 57.4482 23.6919 58.301 25.08 59.4381C25.08 59.4381 25.8499 57.7649 26.7484 56.5647C26.7484 56.5647 24.5631 53.9004 19.9116 53.9004C16.0807 53.9004 13.3025 56.1241 13.3025 59.1893C13.3025 61.6251 14.8521 63.3256 18.04 64.39L20.4093 65.185C21.915 65.6896 22.6783 66.2779 22.6783 66.9299C22.6783 67.8386 21.5396 68.5463 20.0815 68.5463C17.6996 68.5463 17.2568 67.458 17.1371 66.3911H13L13.012 66.5726C13.3309 70.0317 15.9305 72.094 19.9609 72.094C23.996 72.094 26.8137 69.9023 26.8137 66.764C26.8137 64.3564 25.152 62.6044 21.8687 61.5586V61.5586ZM33.2445 63.05C33.2445 63.05 32.6112 63.05 32.0163 63.05V57.7878C32.6112 57.7878 33.2445 57.7878 33.2445 57.7878C36.3979 57.7878 36.3979 59.7768 36.3979 60.4279C36.3979 61.0776 36.3979 63.05 33.2445 63.05ZM40.2276 60.4279C40.2276 57.4711 37.9349 54.3259 33.6847 54.3259H28.1866V71.9333H32.0163C32.0163 71.9333 32.0163 67.7231 32.0163 66.513C32.7654 66.513 33.6847 66.513 33.6847 66.513C37.9349 66.513 40.2276 63.3791 40.2276 60.4279" fill="#F7DE05"/>
<path d="M48.5306 45.3954C44.9333 45.3954 42.0164 42.5013 42.0164 38.9318C42.0164 36.3426 43.5514 34.1094 45.7672 33.0782V31.6828C45.7672 30.1685 47.0041 28.9411 48.5306 28.9411C50.0569 28.9411 51.2919 30.1685 51.2919 31.6828L51.2432 33.0562C53.4859 34.0775 55.0446 36.3236 55.0446 38.9318C55.0446 42.5013 52.1281 45.3954 48.5306 45.3954V45.3954ZM48.5306 27C42.1636 27 37 32.1618 37 38.5291C37 44.8973 42.1636 50.0591 48.5306 50.0591C54.8974 50.0591 60.0591 44.8973 60.0591 38.5291C60.0591 32.1618 54.8974 27 48.5306 27ZM48.5306 36.1088C47.0054 36.1088 45.7677 37.3354 45.7677 38.8489C45.7677 40.3627 47.0054 41.5895 48.5306 41.5895C50.0542 41.5895 51.2916 40.3627 51.2916 38.8489C51.2916 37.3354 50.0542 36.1088 48.5306 36.1088Z" fill="#F7DE05"/>
<path d="M85.3287 70.3791V70.6522H84.8673V71.9205H84.5425V70.6522H84.08V70.3791H85.3287Z" fill="#FADC04"/>
<path d="M86.5371 70.3791H87V71.9205H86.7003V70.8781C86.7003 70.848 86.7006 70.8058 86.7012 70.7518C86.702 70.6979 86.7023 70.6562 86.7023 70.627L86.4104 71.9205H86.0975L85.8078 70.627C85.8078 70.6562 85.808 70.6979 85.8086 70.7518C85.8094 70.8058 85.8097 70.848 85.8097 70.8781V71.9205H85.5101V70.3791H85.9782L86.2587 71.5912L86.5371 70.3791Z" fill="#FADC04"/>
</svg>
