<svg width="100" height="100" viewBox="0 0 100 100" fill="none" xmlns="http://www.w3.org/2000/svg">
<path d="M10.9832 61.7508H25.6977V38.0764H10.9832V61.7508ZM28.6899 64.7355H8V35.0923H28.6899V64.7355Z" fill="#FDD005"/>
<path d="M70.6433 57.6223H68.2963V59.8771H70.5959V60.9808H68.2963V63.6366H71.0669V64.7379H66.8862V56.5186H70.6433V57.6223V57.6223ZM65.7825 64.7379H64.761C63.4206 62.8494 62.0952 60.9708 60.7647 58.8456L60.7548 64.7379H59.6261V56.5186H60.6501C61.988 58.3971 63.3135 60.2657 64.6314 62.3785L64.6538 56.5186H65.7824V64.7379H65.7825ZM58.2982 64.7379H57.2792C55.9388 62.8494 54.6109 60.9708 53.2829 58.8456L53.273 64.7379H52.1443V56.5186H53.1658C54.5037 58.3971 55.8342 60.2657 57.1496 62.3785L57.1722 56.5186H58.2983V64.7379H58.2982ZM47.8466 56.5186H49.0226L51.6411 64.7379H50.069L49.4212 62.4981H46.9422L46.2247 64.7379H45.0039L47.8466 56.5186ZM47.3085 61.4865H49.212C48.903 60.4052 48.609 59.4062 48.2801 58.1406C47.9637 59.4062 47.6348 60.4052 47.3085 61.4865ZM44.4981 64.7379H43.0905V60.7814H40.1655V64.7379H38.7678V56.5186H40.1655V59.6778H43.0905V56.5435H44.4981V64.7379V64.7379ZM37.8858 58.011C37.547 57.7993 36.9815 57.5501 36.4408 57.5501C35.0107 57.5501 33.9643 58.7385 33.9643 60.6071C33.9643 62.5554 35.1154 63.7064 36.4782 63.7064C37.0163 63.7064 37.5246 63.5295 37.8858 63.2954L38.277 64.3169C37.851 64.6084 37.101 64.8799 36.4184 64.8799C33.9992 64.8799 32.4719 63.0013 32.4719 60.5821C32.4719 58.3374 33.9868 56.3766 36.4408 56.3766C37.1708 56.3766 37.8509 56.6831 38.3318 57.0095L37.8858 58.011V58.011ZM92.3213 47.3028C91.9824 47.0886 91.4169 46.8419 90.8763 46.8419C89.4387 46.8419 88.3874 48.0302 88.3874 49.9013C88.3874 51.8571 89.5434 53.0132 90.9112 53.0132C91.4518 53.0132 91.96 52.8364 92.3213 52.5996L92.7125 53.6235C92.2864 53.92 91.534 54.1891 90.8514 54.1891C88.4247 54.1891 86.895 52.3056 86.895 49.8789C86.895 47.6317 88.4148 45.6634 90.8763 45.6634C91.6063 45.6634 92.2864 45.9723 92.7723 46.2987L92.3213 47.3028V47.3028ZM85.9656 54.0471H84.5648V45.8054H85.9656V54.0471ZM83.2076 54.0471H81.795V50.0808H78.8625V54.0471H77.4624V45.8054H78.8625V48.9746H81.795V45.8303H83.2076V54.0471ZM73.3166 54.0471H71.9039V45.8054H74.1064C75.6835 45.8054 76.6601 46.5828 76.6601 48.1848C76.6601 49.5725 75.6361 50.9402 73.9519 50.9402H73.3166V54.0471V54.0471ZM73.3166 49.9113C73.4263 49.9013 73.7651 49.8914 73.9046 49.8788C74.5773 49.8439 75.2475 49.3482 75.2475 48.242C75.2475 47.3949 74.7791 46.9115 73.9519 46.9115H73.3166V49.9112V49.9113ZM67.6535 45.8054H68.8295L71.458 54.0471H69.8784L69.2306 51.7998H66.7467L66.0267 54.0471H64.8033L67.6535 45.8054V45.8054ZM67.1104 50.7859H69.0189C68.7125 49.7046 68.4184 48.703 68.0895 47.4324C67.7706 48.703 67.4418 49.7046 67.1104 50.7859ZM64.781 54.0471H63.164L61.8336 50.9402H61.2007V54.0471H59.7856V45.8054H61.988C63.5676 45.8054 64.5442 46.5828 64.5442 48.1848C64.5442 49.1739 64.026 50.1504 63.1216 50.6338L64.781 54.0471V54.0471ZM61.2007 46.9116V49.9138C61.3179 49.9019 61.6467 49.8913 61.7887 49.8789C62.4589 49.8441 63.1316 49.3483 63.1316 48.2421C63.1316 47.395 62.6607 46.9116 61.8236 46.9116H61.2007ZM58.4926 50.28V53.6834C57.7377 53.9774 56.9478 54.1891 56.1481 54.1891C53.7214 54.1891 52.1892 52.3056 52.1892 49.8789C52.1892 47.6317 53.7214 45.6634 56.1929 45.6634C56.9603 45.6634 57.7252 45.9474 58.196 46.2987L57.7377 47.2779C57.359 47.0412 56.7685 46.8419 56.2278 46.8419C54.723 46.8419 53.6965 48.0302 53.6965 49.9013C53.6965 51.8571 54.8725 53.0132 56.0883 53.0132C56.4645 53.0132 56.7809 52.9633 57.0774 52.8138V50.28H58.4926V50.28ZM48.2104 54.1891C46.0553 54.1891 44.7124 52.2706 44.7124 49.8091C44.7124 47.502 46.1948 45.6634 48.2104 45.6634C50.2235 45.6634 51.7083 47.502 51.7083 49.8091C51.7083 52.2706 50.3655 54.1891 48.2104 54.1891ZM48.2104 53.0132C49.6803 53.0132 50.1986 51.3887 50.1986 49.8091C50.1986 48.2918 49.6106 46.8419 48.2104 46.8419C46.8077 46.8419 46.2197 48.2918 46.2197 49.8091C46.2197 51.3887 46.7379 53.0132 48.2104 53.0132ZM43.8529 46.9116H41.4959V49.1738H43.8055V50.28H41.4959V52.9409H44.2764V54.0471H40.0833V45.8054H43.8529V46.9116V46.9116ZM38.8002 50.28V53.6834C38.0453 53.9774 37.258 54.1891 36.4557 54.1891C34.0316 54.1891 32.5019 52.3056 32.5019 49.8789C32.5019 47.6317 34.0316 45.6634 36.5056 45.6634C37.268 45.6634 38.0353 45.9474 38.5062 46.2987L38.0453 47.2779C37.6716 47.0412 37.0811 46.8419 36.5405 46.8419C35.0307 46.8419 34.0067 48.0302 34.0067 49.9013C34.0067 51.8571 35.1851 53.0132 36.4009 53.0132C36.7746 53.0132 37.0935 52.9633 37.3875 52.8138V50.28H38.8002V50.28ZM75.7981 35.1421H77.2008V42.2775H79.9912V43.3838H75.7981V35.1421ZM71.585 35.1421H72.7635L75.387 43.3838H73.8099L73.1621 41.134H70.6782L69.9581 43.3838H68.7348L71.585 35.1421V35.1421ZM71.0444 40.125H72.9503C72.6439 39.0387 72.3499 38.0396 72.0185 36.7665C71.7021 38.0396 71.3708 39.0387 71.0444 40.125V40.125ZM68.3561 43.3838H67.3322C65.9893 41.4903 64.6589 39.6042 63.3259 37.474L63.318 43.3838H62.1868V35.1421H63.2084C64.5537 37.0256 65.8841 38.8992 67.2021 41.0169L67.227 35.1421H68.3557V43.3838H68.3561ZM57.8273 43.5256C55.6722 43.5256 54.3293 41.6072 54.3293 39.1457C54.3293 36.8361 55.8142 35 57.8273 35C59.8429 35 61.3278 36.8361 61.3278 39.1457C61.3278 41.6072 59.9849 43.5256 57.8273 43.5256ZM57.8273 42.3497C59.3022 42.3497 59.818 40.7227 59.818 39.1457C59.818 37.6259 59.23 36.1784 57.8273 36.1784C56.4271 36.1784 55.8391 37.6259 55.8391 39.1457C55.8391 40.7227 56.3574 42.3497 57.8273 42.3497ZM53.4723 43.3837H52.0705V35.1403H53.4723V43.3837ZM48.031 43.3837V36.2482H45.8659V35.142H51.6112V36.2482H49.4436V43.3837H48.031ZM42.8961 35.142H44.0746L46.6981 43.3837H45.1235L44.4757 41.1338H41.9917L41.2717 43.3837H40.0484L42.8961 35.142V35.142ZM42.3555 40.1248H44.2614C43.9575 39.0386 43.6635 38.0395 43.3321 36.7664C43.0132 38.0395 42.6844 39.0386 42.3555 40.1248ZM39.6697 43.3837H38.6457C37.3028 41.4902 35.9724 39.6041 34.642 37.4739L34.632 43.3837H33.5009V35.142H34.5224C35.8678 37.0255 37.1957 38.8991 38.5162 41.0168L38.5411 35.142H39.6697V43.3837ZM71.8541 56.5185H73.2519V63.6366H76.0348V64.7378H71.8541V56.5185Z" fill="#4F4C4C"/>
</svg>
