<svg width="100" height="100" viewBox="0 0 100 100" fill="none" xmlns="http://www.w3.org/2000/svg">
<g clip-path="url(#clip0_837_428)">
<path fill-rule="evenodd" clip-rule="evenodd" d="M69.7121 53.383H67.6798V43.4895H69.7121V53.383ZM75.2605 46.7716V48.6624H73.9221V50.8608C73.9221 51.5799 74.3473 51.567 75.1244 51.5435C75.1688 51.5422 75.214 51.5408 75.2605 51.5395V53.3199C75.2605 53.3199 74.908 53.3805 74.3946 53.3805C72.9082 53.3805 71.9709 52.963 71.9709 50.9899V48.6624H70.9386V46.7716H71.9709V45.527L73.9221 44.9449V46.7716H75.2605ZM63.8082 50.3689C63.8082 50.9651 63.4982 51.6047 62.5925 51.6047C61.9384 51.6047 61.4217 51.2228 61.4217 50.4335V46.7874H59.4544V50.796C59.4544 52.3578 60.4805 53.3853 61.9519 53.3853C63.3628 53.3853 63.8082 52.5716 63.8082 52.5716V53.1893H65.808V46.7874H63.8082V50.3689ZM56.7338 50.746L58.4407 51.7164C58.0084 52.4551 57.0336 53.372 55.513 53.372C53.6377 53.372 52.0834 52.0278 52.0834 49.9597C52.0834 47.8968 53.6421 46.592 55.4961 46.592C56.918 46.592 57.9021 47.3458 58.4398 48.2212L56.7246 49.2139C56.5405 48.8162 56.1627 48.4966 55.464 48.4966C54.5669 48.4966 54.0127 49.1978 54.0127 49.9743C54.0127 50.9443 54.7336 51.4685 55.5003 51.4685C56.0934 51.4685 56.5415 51.1897 56.7338 50.746Z" fill="#000A38"/>
<path fill-rule="evenodd" clip-rule="evenodd" d="M42.4307 58.3333C37.8467 58.3333 34.1146 54.6687 34.1146 50.0266C34.1146 45.362 37.8836 41.6666 42.4552 41.6666C45.1471 41.6666 46.9161 42.7604 47.9865 43.8012C48.1009 43.8929 48.1771 43.9718 48.1771 44.156C48.1771 44.2798 48.1427 44.3693 48.0515 44.4479L46.2327 46.355C46.1732 46.4125 46.0761 46.4662 45.9586 46.4662C45.7665 46.4662 45.6869 46.3781 45.6063 46.2914C45.0059 45.7387 43.8069 45.1641 42.57 45.1641C39.9757 45.1641 38.0382 47.3116 38.0382 49.9289C38.0382 52.6098 40.0698 54.6252 42.5871 54.6252C44.0127 54.6252 45.2257 53.9398 45.6457 53.5258C45.7115 53.4604 45.8169 53.4145 45.969 53.4145C46.1573 53.4145 46.223 53.4833 46.3211 53.5935L48.0455 55.4331C48.1252 55.5135 48.1744 55.5987 48.1744 55.7447C48.1744 55.8912 48.1252 56.02 48.015 56.1185C46.5927 57.4622 44.7342 58.3333 42.4307 58.3333Z" fill="#FF142D"/>
<path fill-rule="evenodd" clip-rule="evenodd" d="M26.6927 45.3091H23.4098C23.0738 45.3091 22.9167 45.1141 22.9167 44.8049V42.3987C22.9167 42.1153 23.0806 41.927 23.4048 41.927H33.6146C33.9873 41.927 34.1146 42.1503 34.1146 42.4637V44.8049C34.1146 45.1985 33.8656 45.3091 33.6104 45.3091H30.3384V57.5851C30.3384 57.8255 30.1963 58.0728 29.8502 58.0728H27.1813C26.8644 58.0728 26.6927 57.901 26.6927 57.6135V45.3091Z" fill="#000A38"/>
</g>
<defs>
<clipPath id="clip0_837_428">
<rect width="100" height="100" fill="white"/>
</clipPath>
</defs>
</svg>
