<svg width="100" height="100" viewBox="0 0 100 100" fill="none" xmlns="http://www.w3.org/2000/svg">
<path fill-rule="evenodd" clip-rule="evenodd" d="M7 27V60.3386L11.6271 64.9861L16.2459 69.6294L19.5981 73H92V38.5957L87.0711 33.6377L84.5381 31.0962L80.4618 27H7Z" fill="#A794F3"/>
<path fill-rule="evenodd" clip-rule="evenodd" d="M87.0707 33.6388L84.5374 31.0962L80.4614 27.0001H7.00012V60.3397L11.6266 64.9863L16.2456 69.6302L19.598 73.0001H92.0001V38.5967L87.0707 33.6388ZM41.0852 33.5934V42.4277C43.0527 41.2602 45.3461 40.5872 47.7967 40.5872C55.0937 40.5872 61.0105 46.5355 61.0105 53.8678C61.0105 61.2044 55.0937 67.1487 47.7967 67.1487C44.9046 67.1487 42.2337 66.2151 40.0575 64.632V66.3296H32.4439V33.5934H41.0852ZM77.1676 40.2033L83.7376 46.8626H73.1551C71.9003 46.8626 71.3282 47.2956 71.3282 47.908V47.9812C71.3282 48.663 72.0082 49.0958 74.6583 49.5974C81.0673 50.7841 85.3635 52.6574 85.3635 57.7279V57.8019C85.3635 63.0897 81.0317 66.3296 74.2994 66.3296H68.0612L61.4459 59.6709H73.6662C75.1696 59.6709 75.814 59.2798 75.814 58.5937V58.5248C75.814 57.8019 75.0272 57.4054 72.3415 56.8678C66.7201 55.7166 61.7821 54.0966 61.7821 48.7687V48.6988C61.7821 43.9128 65.5046 40.2033 72.413 40.2033H77.1676ZM23.6214 33.5934V41.8556H30.2041V50.8853H23.6214V66.3296L14.6409 57.304V33.5934H23.6214Z" fill="#FEDA30"/>
<path fill-rule="evenodd" clip-rule="evenodd" d="M48.0003 58C50.76 58 53 55.9818 53 53.4979C53 51.0146 50.76 49 48.0003 49C45.2397 49 43 51.0146 43 53.4979C43 55.9818 45.2397 58 48.0003 58Z" fill="#FEDA30"/>
</svg>
