<svg width="100" height="100" viewBox="0 0 100 100" fill="none" xmlns="http://www.w3.org/2000/svg">
<g clip-path="url(#clip0_837_433)">
<path fill-rule="evenodd" clip-rule="evenodd" d="M72.319 44.9071C72.319 45.5696 71.769 46.1069 71.0905 46.1069C70.4121 46.1069 69.8621 45.5696 69.8621 44.9071C69.8621 44.2444 70.4121 43.7073 71.0905 43.7073C71.769 43.7073 72.319 44.2444 72.319 44.9071ZM77.9023 46.7754H79.8938V53.1348H77.9023V52.5566C77.9023 52.5566 77.3557 53.3258 76.0384 53.3258C74.6632 53.3258 73.534 52.4319 73.534 50.5973V46.7754H75.5255V50.3727C75.5205 51.0646 75.9144 51.5596 76.6751 51.5596C77.4067 51.5596 77.9023 51.1391 77.9023 50.2439V46.7754ZM70.0653 53.3273H72.1207V46.6787H70.0653V53.3273ZM91.5205 49.0877V53.1185H89.5615V49.3127C89.5615 48.7358 89.2232 48.3381 88.6105 48.3381C87.8963 48.3381 87.6021 48.9192 87.6021 49.4412V53.1185H85.6428V49.3769C85.6428 48.7158 85.3096 48.3448 84.6942 48.3448C83.9998 48.3448 83.6836 48.8752 83.6836 49.4412V53.1185H81.7244V46.7433H83.6836V47.3214C84.0117 46.8877 84.4782 46.576 85.4473 46.576C86.4111 46.576 86.8819 47.0452 87.1363 47.4035C87.5165 46.9214 88.0598 46.5781 89.0321 46.5781C90.5471 46.5781 91.5205 47.6477 91.5205 49.0877ZM68.4273 49.0877V53.1185H66.4684V49.3127C66.4684 48.7358 66.1301 48.3381 65.5171 48.3381C64.8032 48.3381 64.5086 48.9192 64.5086 49.4412V53.1185H62.5496V49.3769C62.5496 48.7158 62.2165 48.3448 61.6011 48.3448C60.9065 48.3448 60.5905 48.8752 60.5905 49.4412V53.1185H58.6311V46.7433H60.5905V47.3214C60.9184 46.8877 61.385 46.576 62.3538 46.576C63.318 46.576 63.7886 47.0452 64.0428 47.4035C64.423 46.9214 64.9667 46.5781 65.939 46.5781C67.4538 46.5781 68.4273 47.6477 68.4273 49.0877ZM52.1294 49.2804C52.2986 48.6687 52.7815 48.2775 53.5684 48.2775C54.3096 48.2775 54.8288 48.6344 54.988 49.2804H52.1294ZM53.58 46.5796C51.3832 46.5796 50.0267 48.1344 50.0267 49.9481C50.0267 52.1052 51.6761 53.3246 53.7721 53.3246C55.1009 53.3246 56.02 52.8523 56.6484 52.0025L55.0394 51.1135C54.8311 51.315 54.5257 51.5981 53.7346 51.5981C52.7659 51.5981 52.3436 51.2 52.1753 50.7258H56.8965C56.8965 50.7258 56.9978 50.3721 56.9955 49.9606C56.9955 48.0521 55.5688 46.5796 53.58 46.5796ZM49.6378 46.5825V48.765C48.2867 48.591 47.6786 49.3127 47.6786 50.2425V53.1185H45.7517V46.7108H47.6786V47.8352C47.8044 47.4296 48.3153 46.5825 49.6378 46.5825ZM40.7294 51.3687C39.718 51.3687 39.155 50.6296 39.155 49.7342C39.155 48.8214 39.6903 48.0825 40.7294 48.0825C41.6234 48.0825 42.3153 48.6879 42.3153 49.7112C42.3153 50.8119 41.5405 51.3687 40.7294 51.3687ZM41.1409 46.1637C39.7334 46.1637 39.1671 46.9639 39.1671 46.9639V46.3577H37.1438V55.7685H39.1671V52.4604C39.1671 52.4604 39.6971 53.2658 41.144 53.2658C43.1169 53.2658 44.3086 51.4977 44.3086 49.7294C44.3086 47.7717 42.9196 46.1637 41.1409 46.1637Z" fill="#000A38"/>
<path fill-rule="evenodd" clip-rule="evenodd" d="M27.7961 58.23C23.2638 58.23 19.5735 54.5881 19.5735 49.9746C19.5735 45.3392 23.3004 41.6669 27.8207 41.6669C30.4821 41.6669 32.2311 42.7537 33.2896 43.7881C33.4029 43.8792 33.4779 43.9577 33.4779 44.1406C33.4779 44.2635 33.4442 44.3527 33.3538 44.4304L31.5557 46.326C31.4967 46.3829 31.4007 46.4362 31.2844 46.4362C31.0944 46.4362 31.0159 46.349 30.9363 46.2627C30.3423 45.7135 29.1569 45.1425 27.934 45.1425C25.3688 45.1425 23.4529 47.2769 23.4529 49.8777C23.4529 52.5421 25.4617 54.545 27.9511 54.545C29.3604 54.545 30.56 53.8637 30.9748 53.4523C31.04 53.3873 31.1444 53.3417 31.2948 53.3417C31.4811 53.3417 31.5459 53.41 31.6432 53.5196L33.3477 55.3477C33.4267 55.4277 33.4754 55.5123 33.4754 55.6575C33.4754 55.8027 33.4271 55.9308 33.3177 56.0287C31.9115 57.3642 30.0738 58.23 27.7961 58.23Z" fill="#FF142D"/>
<path fill-rule="evenodd" clip-rule="evenodd" d="M12.0592 45.2175H8.82031C8.48852 45.2175 8.3335 45.0248 8.3335 44.7198V42.3429C8.3335 42.0631 8.49525 41.8771 8.81512 41.8771H18.8889C19.2569 41.8771 19.3822 42.0977 19.3822 42.4071V44.7198C19.3822 45.1085 19.1366 45.2175 18.8847 45.2175H15.6562V57.3425C15.6562 57.5798 15.5162 57.824 15.1746 57.824H12.5413C12.2287 57.824 12.0592 57.6539 12.0592 57.3704V45.2175Z" fill="#000A38"/>
</g>
<defs>
<clipPath id="clip0_837_433">
<rect width="100" height="100" fill="white"/>
</clipPath>
</defs>
</svg>
