<svg width="100" height="100" viewBox="0 0 100 100" fill="none" xmlns="http://www.w3.org/2000/svg">
<g clip-path="url(#clip0_837_425)">
<path fill-rule="evenodd" clip-rule="evenodd" d="M67.0379 44.9339C67.0379 45.597 66.4873 46.1351 65.8075 46.1351C65.1283 46.1351 64.5775 45.597 64.5775 44.9339C64.5775 44.2705 65.1283 43.7324 65.8075 43.7324C66.4873 43.7324 67.0379 44.2705 67.0379 44.9339ZM71.7502 46.6168C69.8514 46.6168 68.276 48.0533 68.276 50.0366C68.276 51.7895 69.6435 53.402 71.7868 53.402C73.6135 53.402 75.2706 52.0699 75.2706 50.0078C75.2706 48.0799 73.7383 46.6168 71.7502 46.6168ZM83.0791 49.207V53.1828H81.1071V49.5624C81.1071 48.773 80.5893 48.3912 79.9337 48.3912C79.026 48.3912 78.715 49.031 78.715 49.627V53.1828H76.7112V46.7828H78.715V47.3968C78.715 47.3968 79.1618 46.6178 80.5754 46.6178C82.0502 46.6178 83.0791 47.6455 83.0791 49.207ZM70.2596 50.0208C70.2596 50.8522 70.8502 51.5228 71.7762 51.5228C72.5654 51.5228 73.2812 50.9814 73.2812 50.0078C73.2812 49.0635 72.6191 48.4939 71.7604 48.4939C70.94 48.4939 70.2596 49.0949 70.2596 50.0208ZM64.7833 53.4093H66.8521V46.7183H64.7833V53.4093ZM63.555 46.7989H62.2135V44.9724L60.2581 45.5543V46.7989H59.2233V48.6897H60.2581V51.0172C60.2581 52.9903 61.1973 53.4078 62.6873 53.4078C63.2018 53.4078 63.555 53.347 63.555 53.347V51.5666C63.5081 51.5678 63.4627 51.5693 63.4181 51.5705C62.6398 51.5941 62.2135 51.607 62.2135 50.8876V48.6897H63.555V46.7989ZM58.6198 51.7505L56.9077 50.7789C56.7146 51.2235 56.265 51.5026 55.67 51.5026C54.9008 51.5026 54.1773 50.9776 54.1773 50.0064C54.1773 49.2293 54.7333 48.5272 55.6335 48.5272C56.3343 48.5272 56.7135 48.8474 56.8981 49.2453L58.6191 48.2518C58.0796 47.3751 57.0925 46.621 55.6658 46.621C53.8056 46.621 52.2416 47.927 52.2416 49.9918C52.2416 52.0624 53.8012 53.4078 55.6827 53.4078C57.2083 53.4078 58.1864 52.4901 58.6198 51.7505ZM46.5593 46.6195C48.1 46.6195 48.5887 47.4291 48.5887 47.4291V46.7828H50.5929V53.2153H48.5887V52.601C48.5887 52.601 48.016 53.4064 46.6035 53.4064C44.795 53.4064 43.3823 51.9022 43.3823 50.033C43.3823 47.996 44.9231 46.6195 46.5593 46.6195ZM45.3904 50.027C45.3904 50.9416 46.0408 51.5676 46.9493 51.5676C47.8679 51.5676 48.576 51.0533 48.576 50.0005C48.576 49.0572 47.9302 48.4393 46.9864 48.4393C46.1462 48.4393 45.3904 48.9737 45.3904 50.027Z" fill="#000A38"/>
<path fill-rule="evenodd" clip-rule="evenodd" d="M34.1677 58.3333C29.6073 58.3333 25.8939 54.6687 25.8939 50.0266C25.8939 45.362 29.6439 41.6666 34.1923 41.6666C36.8704 41.6666 38.6306 42.7604 39.6954 43.8012C39.8095 43.8929 39.885 43.9718 39.885 44.156C39.885 44.2798 39.8512 44.3693 39.7604 44.4479L37.9506 46.355C37.8912 46.4125 37.795 46.4662 37.6781 46.4662C37.4868 46.4662 37.4077 46.3781 37.3275 46.2914C36.7302 45.7387 35.5368 45.1641 34.3064 45.1641C31.7252 45.1641 29.7973 47.3116 29.7973 49.9289C29.7973 52.6098 31.8187 54.6252 34.3235 54.6252C35.7418 54.6252 36.9489 53.9398 37.3662 53.5258C37.4323 53.4604 37.5368 53.4145 37.6881 53.4145C37.8756 53.4145 37.941 53.4833 38.0387 53.5935L39.7543 55.4331C39.8335 55.5135 39.8827 55.5987 39.8827 55.7447C39.8827 55.8912 39.8337 56.02 39.7241 56.1185C38.3087 57.4622 36.4598 58.3333 34.1677 58.3333Z" fill="#FF142D"/>
<path fill-rule="evenodd" clip-rule="evenodd" d="M18.3323 45.2395H15.0732C14.7396 45.2395 14.5833 45.0458 14.5833 44.7385V42.347C14.5833 42.0656 14.7461 41.8783 15.0682 41.8783H25.205C25.575 41.8783 25.7012 42.1002 25.7012 42.4116V44.7385C25.7012 45.1295 25.4539 45.2395 25.2008 45.2395H21.9521V57.44C21.9521 57.6789 21.8108 57.9248 21.4673 57.9248H18.8177C18.5031 57.9248 18.3323 57.7539 18.3323 57.4681V45.2395Z" fill="#000A38"/>
</g>
<defs>
<clipPath id="clip0_837_425">
<rect width="100" height="100" fill="white"/>
</clipPath>
</defs>
</svg>
