<svg width="100" height="100" viewBox="0 0 100 100" fill="none" xmlns="http://www.w3.org/2000/svg">
<g clip-path="url(#clip0_837_435)">
<path fill-rule="evenodd" clip-rule="evenodd" d="M78.352 46.3996C76.9383 46.3996 76.4914 47.2132 76.4914 47.2132V43.9507H74.4874V53.1649H76.4914V49.4703C76.4914 48.8738 76.802 48.2342 77.7101 48.2342C78.3654 48.2342 78.8835 48.6161 78.8835 49.4057V53.1649H80.8552V48.989C80.8552 47.4274 79.8264 46.3996 78.352 46.3996ZM71.7668 50.5655L73.4791 51.5369C73.0458 52.2765 72.0676 53.1942 70.5416 53.1942C68.6604 53.1942 67.101 51.8486 67.101 49.7786C67.101 47.7134 68.6647 46.4071 70.5249 46.4071C71.9512 46.4071 72.9387 47.1617 73.4783 48.0382L71.7574 49.0317C71.5726 48.6338 71.1935 48.3138 70.4926 48.3138C69.5924 48.3138 69.0366 49.0159 69.0366 49.793C69.0366 50.764 69.7595 51.289 70.5291 51.289C71.1243 51.289 71.5739 51.0099 71.7668 50.5655ZM63.656 50.183C63.656 50.7794 63.3451 51.419 62.4372 51.419C61.782 51.419 61.2637 51.0371 61.2637 50.2476V46.6017H59.292V50.6103C59.292 52.1717 60.3206 53.1994 61.7951 53.1994C63.2091 53.1994 63.656 52.3857 63.656 52.3857V53.003H65.6601V46.6017H63.656V50.183ZM54.3556 53.1882C56.1804 53.1882 57.8354 51.8578 57.8354 49.7978C57.8354 47.8717 56.3045 46.4103 54.3189 46.4103C52.422 46.4103 50.8483 47.8455 50.8483 49.8265C50.8483 51.5776 52.2143 53.1882 54.3556 53.1882ZM55.8481 49.7978C55.8481 48.8544 55.1868 48.2857 54.3291 48.2857C53.5095 48.2857 52.8299 48.8859 52.8299 49.8107C52.8299 50.6413 53.4197 51.3113 54.3447 51.3113C55.1331 51.3113 55.8481 50.7703 55.8481 49.7978ZM46.5212 45.3415L48.477 44.7596V46.5859H49.8185V48.4769H48.477V50.6749C48.477 51.3938 48.9029 51.3811 49.6812 51.3578C49.7258 51.3565 49.7716 51.3551 49.8185 51.3538V53.1342C49.8185 53.1342 49.4649 53.1946 48.9504 53.1946C47.4608 53.1946 46.5212 52.7774 46.5212 50.8044V48.4769H45.4868V46.5859H46.5212V45.3415Z" fill="#000A38"/>
<path fill-rule="evenodd" clip-rule="evenodd" d="M36.251 58.3333C31.6902 58.3333 27.9771 54.6687 27.9771 50.0266C27.9771 45.362 31.7273 41.6666 36.2756 41.6666C38.9537 41.6666 40.7137 42.7604 41.7787 43.8012C41.8929 43.8929 41.9683 43.9718 41.9683 44.156C41.9683 44.2798 41.9343 44.3693 41.8433 44.4479L40.0339 46.355C39.9745 46.4125 39.8783 46.4662 39.761 46.4662C39.5702 46.4662 39.4908 46.3781 39.4108 46.2914C38.8131 45.7387 37.6202 45.1641 36.3898 45.1641C33.8085 45.1641 31.8806 47.3118 31.8806 49.9289C31.8806 52.6098 33.9021 54.6252 36.4068 54.6252C37.8252 54.6252 39.0323 53.9398 39.4496 53.5258C39.5152 53.4606 39.6202 53.4145 39.7714 53.4145C39.9589 53.4145 40.0241 53.4833 40.1221 53.5935L41.8375 55.4331C41.9168 55.5135 41.9658 55.5987 41.9658 55.7447C41.9658 55.8912 41.9171 56.02 41.8073 56.1185C40.3921 57.4625 38.5429 58.3333 36.251 58.3333Z" fill="#FF142D"/>
<path fill-rule="evenodd" clip-rule="evenodd" d="M20.4156 45.2395H17.1565C16.8226 45.2395 16.6666 45.0458 16.6666 44.7385V42.347C16.6666 42.0656 16.8294 41.8783 17.1513 41.8783H27.2879C27.6583 41.8783 27.7843 42.1002 27.7843 42.4116V44.7385C27.7843 45.1295 27.5373 45.2395 27.2839 45.2395H24.0352V57.44C24.0352 57.6789 23.8941 57.925 23.5506 57.925H20.9008C20.5862 57.925 20.4156 57.7539 20.4156 57.4681V45.2395Z" fill="#000A38"/>
</g>
<defs>
<clipPath id="clip0_837_435">
<rect width="100" height="100" fill="white"/>
</clipPath>
</defs>
</svg>
