<svg width="100" height="100" viewBox="0 0 100 100" fill="none" xmlns="http://www.w3.org/2000/svg">
<g clip-path="url(#clip0_837_431)">
<path fill-rule="evenodd" clip-rule="evenodd" d="M57.5125 51.6487C56.5137 51.6487 55.9581 50.9187 55.9581 50.035C55.9581 49.1335 56.4864 48.4041 57.5125 48.4041C58.3948 48.4041 59.0783 49.0018 59.0783 50.0123C59.0783 51.0989 58.3131 51.6487 57.5125 51.6487ZM57.9189 46.51C56.5289 46.51 55.97 47.2998 55.97 47.2998V46.7012H53.972V55.9925H55.97V52.7262C55.97 52.7262 56.4933 53.5216 57.9216 53.5216C59.8695 53.5216 61.0458 51.7758 61.0458 50.03C61.0458 48.0975 59.6748 46.51 57.9189 46.51ZM65.6602 51.5781C64.705 51.5781 64.0958 50.8864 64.0958 50.0287C64.0958 49.0739 64.7979 48.4541 65.6437 48.4541C66.5293 48.4541 67.2123 49.0414 67.2123 50.0156C67.2123 51.0198 66.4739 51.5781 65.6602 51.5781ZM65.6333 46.5177C63.6748 46.5177 62.05 47.9998 62.05 50.0454C62.05 51.8531 63.4604 53.5164 65.6714 53.5164C67.5552 53.5164 69.2643 52.1425 69.2643 50.0156C69.2643 48.0268 67.6839 46.5177 65.6333 46.5177ZM75.0216 50.811L76.7881 51.8127C76.3408 52.5758 75.332 53.5221 73.7583 53.5221C71.8177 53.5221 70.2091 52.1346 70.2091 49.9991C70.2091 47.8689 71.8225 46.5218 73.7408 46.5218C75.2123 46.5218 76.2308 47.3 76.7873 48.2039L75.0123 49.2289C74.8216 48.8185 74.4308 48.4883 73.7075 48.4883C72.7791 48.4883 72.2058 49.2127 72.2058 50.0141C72.2058 51.0156 72.9516 51.5571 73.745 51.5571C74.3589 51.5571 74.8229 51.2693 75.0216 50.811ZM80.8696 51.6246C79.9323 51.6246 79.2614 50.9787 79.2614 50.0352C79.2614 48.9487 80.0412 48.3977 80.9075 48.3977C81.881 48.3977 82.547 49.035 82.547 50.0079C82.547 51.0937 81.8166 51.6246 80.8696 51.6246ZM82.5604 46.6887V47.3558C82.5604 47.3558 82.0562 46.5208 80.4673 46.5208C78.7793 46.5208 77.1902 47.9404 77.1902 50.0414C77.1902 51.9693 78.647 53.5208 80.5127 53.5208C81.9695 53.5208 82.5604 52.6902 82.5604 52.6902V53.3237H84.6273V46.6887H82.5604ZM52.4277 44.9166C52.4277 45.5798 51.877 46.1168 51.1985 46.1168C50.5195 46.1168 49.9693 45.5798 49.9693 44.9166C49.9693 44.2537 50.5195 43.7164 51.1985 43.7164C51.877 43.7164 52.4277 44.2537 52.4277 44.9166ZM50.1727 53.3414H52.2291V46.6896H50.1727V53.3414ZM45.2658 51.6487C44.2673 51.6487 43.7114 50.9187 43.7114 50.035C43.7114 49.1335 44.2395 48.4041 45.2658 48.4041C46.1479 48.4041 46.8312 49.0018 46.8312 50.0123C46.8312 51.0989 46.0664 51.6487 45.2658 51.6487ZM45.6718 46.51C44.2818 46.51 43.7231 47.2998 43.7231 47.2998V46.7012H41.7256V55.9925H43.7231V52.7262C43.7231 52.7262 44.2466 53.5216 45.6748 53.5216C47.6225 53.5216 48.7991 51.7758 48.7991 50.03C48.7991 48.0975 47.4279 46.51 45.6718 46.51Z" fill="#000A38"/>
<path fill-rule="evenodd" clip-rule="evenodd" d="M32.0844 58.3335C27.524 58.3335 23.8107 54.6689 23.8107 50.0266C23.8107 45.3623 27.5607 41.6666 32.109 41.6666C34.7875 41.6666 36.5473 42.7606 37.6125 43.8014C37.7263 43.8933 37.8021 43.972 37.8021 44.1562C37.8021 44.28 37.768 44.3695 37.6771 44.4479L35.8673 46.3552C35.808 46.4125 35.7117 46.4662 35.5948 46.4662C35.4036 46.4662 35.3244 46.3783 35.2442 46.2916C34.6469 45.7391 33.4536 45.1643 32.2234 45.1643C29.6419 45.1643 27.7142 47.312 27.7142 49.9291C27.7142 52.6102 29.7355 54.6256 32.2403 54.6256C33.6586 54.6256 34.8657 53.9402 35.283 53.526C35.349 53.4606 35.4536 53.4148 35.6053 53.4148C35.7923 53.4148 35.8578 53.4835 35.9555 53.5937L37.6711 55.4333C37.7505 55.5137 37.7994 55.5989 37.7994 55.7454C37.7994 55.8912 37.7505 56.02 37.6409 56.1187C36.2255 57.4625 34.3765 58.3335 32.0844 58.3335Z" fill="#FF142D"/>
<path fill-rule="evenodd" clip-rule="evenodd" d="M16.249 45.2398H12.9899C12.6562 45.2398 12.5 45.0458 12.5 44.7387V42.3471C12.5 42.0656 12.6627 41.8785 12.9849 41.8785H23.1217C23.4917 41.8785 23.6179 42.1004 23.6179 42.4119V44.7387C23.6179 45.13 23.3708 45.2398 23.1175 45.2398H19.8687V57.4404C19.8687 57.6792 19.7276 57.925 19.3841 57.925H16.7344C16.4198 57.925 16.249 57.754 16.249 57.4685V45.2398Z" fill="#000A38"/>
</g>
<defs>
<clipPath id="clip0_837_431">
<rect width="100" height="100" fill="white"/>
</clipPath>
</defs>
</svg>
