<svg width="100" height="100" viewBox="0 0 100 100" fill="none" xmlns="http://www.w3.org/2000/svg">
<g clip-path="url(#clip0_837_429)">
<path fill-rule="evenodd" clip-rule="evenodd" d="M53.806 46.8348H54.7114C54.6775 44.7414 55.9225 43.8275 57.9121 43.9573V45.8971C57.0917 45.8133 56.6837 46.1781 56.6837 46.8348H57.9121V48.7743H56.6837V53.5916H54.7114V48.7743H53.806V46.8348ZM73.3331 49.2046V53.2035H71.3615V49.5602C71.3615 48.7708 70.8435 48.3887 70.1881 48.3887C69.2802 48.3887 68.9694 49.0283 68.9694 49.6248V53.2035H66.9654V46.8023H68.9694V47.4289C68.9694 47.4289 69.4162 46.6154 70.83 46.6154C72.3048 46.6154 73.3331 47.6431 73.3331 49.2046ZM63.3431 50.3812C63.3431 50.9775 63.0323 51.6171 62.1246 51.6171C61.4692 51.6171 60.951 51.2352 60.951 50.4458V46.8H58.9796V50.8085C58.9796 52.37 60.0081 53.3977 61.4827 53.3977C62.8964 53.3977 63.3431 52.5841 63.3431 52.5841V53.2012H65.3475V46.8H63.3431V50.3812Z" fill="#000A38"/>
<path fill-rule="evenodd" clip-rule="evenodd" d="M44.5844 58.3333C40.0235 58.3333 36.3104 54.6687 36.3104 50.0266C36.3104 45.3616 40.0606 41.6666 44.609 41.6666C47.2871 41.6666 49.0471 42.7604 50.1121 43.8012C50.2263 43.8929 50.3017 43.9718 50.3017 44.156C50.3017 44.2798 50.2677 44.3693 50.1767 44.4479L48.3673 46.355C48.3079 46.4125 48.2115 46.4662 48.0944 46.4662C47.9035 46.4662 47.8242 46.3781 47.7442 46.2914C47.1465 45.7387 45.9535 45.1641 44.7231 45.1641C42.1419 45.1641 40.214 47.3118 40.214 49.9289C40.214 52.6095 42.2354 54.6252 44.7402 54.6252C46.1585 54.6252 47.3656 53.9398 47.7829 53.5258C47.8486 53.4604 47.9535 53.4145 48.1048 53.4145C48.2923 53.4145 48.3575 53.4833 48.4554 53.5935L50.1708 55.4331C50.2502 55.5135 50.2992 55.5987 50.2992 55.7447C50.2992 55.8908 50.2504 56.0197 50.1406 56.1185C48.7254 57.4622 46.8763 58.3333 44.5844 58.3333Z" fill="#FF142D"/>
<path fill-rule="evenodd" clip-rule="evenodd" d="M28.749 45.2395H25.4898C25.156 45.2395 25 45.0458 25 44.7385V42.347C25 42.0656 25.1627 41.8783 25.4846 41.8783H35.6212C35.9917 41.8783 36.1177 42.1002 36.1177 42.4116V44.7385C36.1177 45.1295 35.8706 45.2395 35.6173 45.2395H32.3685V57.4404C32.3685 57.6791 32.2275 57.925 31.884 57.925H29.2342C28.9196 57.925 28.749 57.7539 28.749 57.4685V45.2395Z" fill="#000A38"/>
</g>
<defs>
<clipPath id="clip0_837_429">
<rect width="100" height="100" fill="white"/>
</clipPath>
</defs>
</svg>
