<svg width="100" height="100" viewBox="0 0 100 100" fill="none" xmlns="http://www.w3.org/2000/svg">
<path fill-rule="evenodd" clip-rule="evenodd" d="M41.0424 26.1586C39.0631 25.0016 37.7439 24.7373 36.3307 24.7373C35.5454 24.7373 34.6656 24.935 34.5399 25.7283C34.4454 26.4223 35.0738 26.5883 36.3936 26.8859C38.8122 27.4149 41.2621 28.1094 41.5758 30.7215L42.896 23.8769L41.0424 26.1586ZM59.2633 26.3568L62.875 21.463H68.2468L60.6454 30.8869L59.5147 36.7722H54.9282L56.2157 30.1924L53.8598 25.9265L50.7816 29.4651L54.9282 36.7722H49.3995L46.1628 30.6887L45.0628 36.7722H40.414L41.0735 33.2675C39.8172 36.2764 37.4614 37.269 34.2574 37.269C31.5557 37.269 29.0741 36.4086 27.7233 34.8541L30.2676 31.7135C31.3666 32.8378 33.0639 33.4329 34.8542 33.4329C36.11 33.4329 36.8646 32.9371 36.8952 32.2754C36.9269 31.1512 35.0738 30.9857 33.3776 30.49C31.4611 29.9281 29.4195 28.5724 29.9534 25.7283C30.3616 23.546 32.2147 21 36.9269 21C39.5658 21 41.5134 21.6279 43.1152 22.8187L43.366 21.463H48.0164L46.665 28.1094L52.1319 21.463H56.7501L59.2633 26.3568Z" fill="#E30601"/>
<path d="M69.7015 22.873H70.0737C70.2278 22.873 70.3251 22.7989 70.3637 22.6517C70.4019 22.5078 70.3498 22.4363 70.2069 22.4363H69.8164L69.7015 22.873ZM69.2234 23.575L69.5903 22.1866H70.2977C70.6103 22.1866 70.7284 22.33 70.6527 22.6179C70.5974 22.8268 70.4932 22.952 70.3396 22.9944C70.4631 23.0261 70.505 23.1169 70.4658 23.2667L70.3841 23.575H70.092L70.1596 23.3183C70.194 23.1878 70.1435 23.1222 70.0076 23.1222H69.6354L69.5162 23.575H69.2234ZM70.2756 21.8229C69.9856 21.8229 69.7111 21.9271 69.4501 22.1355C69.1896 22.3445 69.0198 22.5964 68.942 22.8923C68.8641 23.1883 68.9006 23.4407 69.0505 23.6497C69.2009 23.8592 69.4216 23.9634 69.7117 23.9634C70.0012 23.9634 70.2756 23.8592 70.5356 23.6497C70.7951 23.4407 70.9642 23.1883 71.0421 22.8923C71.12 22.5975 71.084 22.3461 70.9347 22.1366C70.7859 21.9271 70.5657 21.8229 70.2756 21.8229ZM70.3229 21.6521C70.6629 21.6521 70.9213 21.773 71.0996 22.0152C71.2774 22.2575 71.3214 22.5497 71.2312 22.8923C71.141 23.2345 70.9428 23.5272 70.6366 23.7705C70.331 24.0133 70.0076 24.1353 69.6682 24.1353C69.3244 24.1353 69.0639 24.0133 68.8845 23.7711C68.7062 23.5288 68.6627 23.2361 68.7529 22.8923C68.8431 22.5497 69.0419 22.2575 69.3486 22.0152C69.6547 21.773 69.9797 21.6521 70.3229 21.6521" fill="#E30601"/>
<path d="M37.9684 40.6342H37.3837L37.1552 41.9436H36.4354L37.057 38.3667L38.241 38.3692C38.6374 38.3692 38.942 38.4625 39.1549 38.6492C39.3695 38.8359 39.4645 39.0955 39.4399 39.428C39.4055 39.9193 39.1435 40.2608 38.6538 40.4524L39.1574 41.9043V41.9436H38.3909L37.9684 40.6342ZM37.4869 40.0372L38.0224 40.0421C38.2124 40.0388 38.3688 39.9881 38.4916 39.8898C38.6161 39.7899 38.6906 39.6548 38.7152 39.4845C38.7381 39.3256 38.7127 39.2011 38.639 39.1111C38.5653 39.021 38.4482 38.9727 38.2877 38.9661L37.6736 38.9637L37.4869 40.0372Z" fill="#E30601"/>
<path d="M41.9358 40.3934H40.565L40.398 41.3515H42.0095L41.9063 41.9436H39.575L40.1965 38.3667H42.523L42.4173 38.9637H40.8131L40.6633 39.8161H42.039L41.9358 40.3934Z" fill="#E30601"/>
<path d="M42.3461 41.9436L42.9676 38.3667L43.9945 38.3692C44.2352 38.3741 44.4514 38.4289 44.643 38.5338C44.8363 38.6369 44.9927 38.786 45.1123 38.9809C45.2318 39.1758 45.3039 39.3952 45.3284 39.6392C45.3415 39.7817 45.3399 39.9275 45.3235 40.0765L45.3063 40.2067C45.2343 40.7308 45.0279 41.1517 44.6873 41.4694C44.3482 41.7855 43.9363 41.9436 43.4516 41.9436H42.3461ZM43.5842 38.9637L43.1691 41.3515L43.4688 41.354C43.7996 41.354 44.0649 41.2328 44.2647 40.9904C44.4662 40.748 44.5816 40.382 44.6111 39.8923L44.616 39.8137C44.6209 39.5434 44.5693 39.3363 44.4612 39.1921C44.3532 39.048 44.1918 38.9727 43.9773 38.9661L43.5842 38.9637Z" fill="#E30601"/>
<path d="M47.9054 40.3934H46.5346L46.3676 41.3515H47.9791L47.876 41.9436H45.5446L46.1661 38.3667H48.4926L48.3869 38.9637H46.7828L46.6329 39.8161H48.0086L47.9054 40.3934Z" fill="#E30601"/>
<path d="M35.2896 44.8104C35.2208 45.1805 35.0529 45.4737 34.786 45.6899C34.5207 45.9061 34.2021 46.0092 33.8303 45.9994C33.6093 45.9945 33.416 45.9405 33.2506 45.8373C33.0852 45.7325 32.9566 45.5826 32.8649 45.3877C32.7732 45.1912 32.7224 44.9742 32.7126 44.7367C32.706 44.6024 32.7118 44.4714 32.7298 44.3436L32.7715 44.0488C32.8485 43.5117 33.0369 43.0883 33.3366 42.7788C33.6379 42.4676 34.004 42.3161 34.4347 42.3243C34.7704 42.3308 35.0366 42.4398 35.2331 42.651C35.4296 42.8607 35.5336 43.1522 35.5451 43.5256H35.0857C35.0644 43.0244 34.8679 42.7542 34.4961 42.7149L34.415 42.71C34.1055 42.7018 33.8467 42.8173 33.6387 43.0564C33.4324 43.2938 33.2989 43.6189 33.2383 44.0316L33.1843 44.4026L33.1695 44.6188C33.1597 44.9201 33.2129 45.1601 33.3292 45.3386C33.4471 45.5155 33.6215 45.6072 33.8525 45.6137C34.1014 45.6219 34.3069 45.5621 34.4691 45.4344C34.6328 45.3066 34.7573 45.1011 34.8425 44.8178L35.2896 44.8104Z" fill="#E30601"/>
<path d="M37.304 44.5033H36.4786L36.228 45.9503H35.7637L36.3852 42.3734L37.4613 42.3759C37.8363 42.3775 38.1221 42.4725 38.3186 42.6608C38.5151 42.8492 38.5979 43.1055 38.5667 43.4298C38.5487 43.6541 38.4668 43.8515 38.3211 44.0218C38.177 44.1921 37.9845 44.3207 37.7438 44.4075L38.299 45.9183L38.2965 45.9503H37.8052L37.304 44.5033ZM36.5449 44.1176L37.223 44.1201C37.4588 44.1201 37.6578 44.0579 37.8199 43.9334C37.9821 43.8073 38.077 43.6394 38.1049 43.4298C38.1295 43.2251 38.0885 43.0646 37.9821 42.9483C37.8756 42.832 37.7135 42.7706 37.4956 42.764L36.7808 42.7616L36.5449 44.1176Z" fill="#E30601"/>
<path d="M41.0504 44.297H39.5469L39.3258 45.5646H41.075L41.0062 45.9503H38.7977L39.4192 42.3734H41.6031L41.5344 42.7616H39.8123L39.6133 43.9113H41.1167L41.0504 44.297Z" fill="#E30601"/>
<path d="M41.5982 45.9503L42.2198 42.3734L43.1484 42.3759C43.4399 42.3759 43.6905 42.4488 43.9001 42.5945C44.1114 42.7403 44.2629 42.9417 44.3546 43.1989C44.4463 43.4543 44.4733 43.7409 44.4356 44.0587L44.4111 44.238C44.339 44.7588 44.1367 45.1748 43.8043 45.486C43.4718 45.7955 43.0542 45.9503 42.5514 45.9503H41.5982ZM42.6128 42.7616L42.1264 45.5646L42.5809 45.567C42.9281 45.567 43.2221 45.459 43.4628 45.2428C43.7052 45.0266 43.8624 44.7302 43.9345 44.3535C43.9918 44.0521 44.0115 43.7958 43.9934 43.5845C43.9689 43.3307 43.8845 43.1325 43.7404 42.99C43.5963 42.8459 43.403 42.7706 43.1606 42.764L42.6128 42.7616Z" fill="#E30601"/>
<path d="M47.079 44.297H45.5755L45.3544 45.5646H47.1035L47.0348 45.9503H44.8262L45.4478 42.3734H47.6317L47.5629 42.7616H45.8408L45.6418 43.9113H47.1453L47.079 44.297Z" fill="#E30601"/>
<path d="M50.2972 45.9503H49.8501L48.5726 43.1743L48.0911 45.9503H47.6268L48.2483 42.3734H48.6954L49.9753 45.1617L50.4593 42.3734H50.9187L50.2972 45.9503Z" fill="#E30601"/>
<path d="M53.8568 44.8104C53.788 45.1805 53.6202 45.4737 53.3532 45.6899C53.0879 45.9061 52.7694 46.0092 52.3976 45.9994C52.1765 45.9945 51.9832 45.9405 51.8178 45.8373C51.6524 45.7325 51.5238 45.5826 51.4321 45.3877C51.3404 45.1912 51.2896 44.9742 51.2798 44.7367C51.2733 44.6024 51.279 44.4714 51.297 44.3436L51.3388 44.0488C51.4157 43.5117 51.6041 43.0883 51.9038 42.7788C52.2051 42.4676 52.5712 42.3161 53.0019 42.3243C53.3377 42.3308 53.6038 42.4398 53.8003 42.651C53.9969 42.8607 54.1008 43.1522 54.1123 43.5256H53.6529C53.6316 43.0244 53.4351 42.7542 53.0633 42.7149L52.9823 42.71C52.6727 42.7018 52.414 42.8173 52.206 43.0564C51.9996 43.2938 51.8661 43.6189 51.8055 44.0316L51.7515 44.4026L51.7367 44.6188C51.7269 44.9201 51.7801 45.1601 51.8964 45.3386C52.0143 45.5155 52.1888 45.6072 52.4197 45.6137C52.6686 45.6219 52.8742 45.5621 53.0363 45.4344C53.2001 45.3066 53.3246 45.1011 53.4097 44.8178L53.8568 44.8104Z" fill="#E30601"/>
<path d="M54.8272 45.9503H54.3678L54.9893 42.3734H55.4487L54.8272 45.9503Z" fill="#E30601"/>
<path d="M57.8169 45.0168H56.3675L55.8786 45.9503H55.3848L57.328 42.3734H57.7334L58.4409 45.9503H57.9864L57.8169 45.0168ZM56.5714 44.6286H57.7481L57.4509 42.9606L56.5714 44.6286Z" fill="#E30601"/>
<path d="M58.9371 45.9503L59.5587 42.3734L60.4873 42.3759C60.7788 42.3759 61.0294 42.4488 61.239 42.5945C61.4503 42.7403 61.6018 42.9417 61.6935 43.1989C61.7852 43.4543 61.8122 43.7409 61.7746 44.0587L61.75 44.238C61.6779 44.7588 61.4757 45.1748 61.1432 45.486C60.8107 45.7955 60.3931 45.9503 59.8903 45.9503H58.9371ZM59.9517 42.7616L59.4653 45.5646L59.9198 45.567C60.267 45.567 60.561 45.459 60.8017 45.2428C61.0441 45.0266 61.2013 44.7302 61.2734 44.3535C61.3307 44.0521 61.3504 43.7958 61.3324 43.5845C61.3078 43.3307 61.2234 43.1325 61.0793 42.99C60.9352 42.8459 60.7419 42.7706 60.4996 42.764L59.9517 42.7616Z" fill="#E30601"/>
<path d="M64.1992 45.0168H62.7498L62.261 45.9503H61.7672L63.7104 42.3734H64.1157L64.8232 45.9503H64.3688L64.1992 45.0168ZM62.9537 44.6286H64.1305L63.8332 42.9606L62.9537 44.6286Z" fill="#E30601"/>
<path d="M45.0222 60.32H42.7822V59H48.8822V60.32H46.6422V66H45.0222V60.32ZM56.3569 59L53.3269 66H51.7269L48.7069 59H50.4569L52.5869 64L54.7469 59H56.3569ZM15.5843 78.12C14.871 78.12 14.2243 77.9667 13.6443 77.66C13.071 77.3467 12.6176 76.9167 12.2843 76.37C11.9576 75.8167 11.7943 75.1933 11.7943 74.5C11.7943 73.8067 11.9576 73.1867 12.2843 72.64C12.6176 72.0867 13.071 71.6567 13.6443 71.35C14.2243 71.0367 14.8743 70.88 15.5943 70.88C16.201 70.88 16.7476 70.9867 17.2343 71.2C17.7276 71.4133 18.141 71.72 18.4743 72.12L17.4343 73.08C16.961 72.5333 16.3743 72.26 15.6743 72.26C15.241 72.26 14.8543 72.3567 14.5143 72.55C14.1743 72.7367 13.9076 73 13.7143 73.34C13.5276 73.68 13.4343 74.0667 13.4343 74.5C13.4343 74.9333 13.5276 75.32 13.7143 75.66C13.9076 76 14.1743 76.2667 14.5143 76.46C14.8543 76.6467 15.241 76.74 15.6743 76.74C16.3743 76.74 16.961 76.4633 17.4343 75.91L18.4743 76.87C18.141 77.2767 17.7276 77.5867 17.2343 77.8C16.741 78.0133 16.191 78.12 15.5843 78.12ZM22.8118 78.12C22.0851 78.12 21.4285 77.9633 20.8418 77.65C20.2618 77.3367 19.8051 76.9067 19.4718 76.36C19.1451 75.8067 18.9818 75.1867 18.9818 74.5C18.9818 73.8133 19.1451 73.1967 19.4718 72.65C19.8051 72.0967 20.2618 71.6633 20.8418 71.35C21.4285 71.0367 22.0851 70.88 22.8118 70.88C23.5385 70.88 24.1918 71.0367 24.7718 71.35C25.3518 71.6633 25.8085 72.0967 26.1418 72.65C26.4751 73.1967 26.6418 73.8133 26.6418 74.5C26.6418 75.1867 26.4751 75.8067 26.1418 76.36C25.8085 76.9067 25.3518 77.3367 24.7718 77.65C24.1918 77.9633 23.5385 78.12 22.8118 78.12ZM22.8118 76.74C23.2251 76.74 23.5985 76.6467 23.9318 76.46C24.2651 76.2667 24.5251 76 24.7118 75.66C24.9051 75.32 25.0018 74.9333 25.0018 74.5C25.0018 74.0667 24.9051 73.68 24.7118 73.34C24.5251 73 24.2651 72.7367 23.9318 72.55C23.5985 72.3567 23.2251 72.26 22.8118 72.26C22.3985 72.26 22.0251 72.3567 21.6918 72.55C21.3585 72.7367 21.0951 73 20.9018 73.34C20.7151 73.68 20.6218 74.0667 20.6218 74.5C20.6218 74.9333 20.7151 75.32 20.9018 75.66C21.0951 76 21.3585 76.2667 21.6918 76.46C22.0251 76.6467 22.3985 76.74 22.8118 76.74ZM34.2293 78L34.2193 73.8L32.1593 77.26H31.4293L29.3793 73.89V78H27.8593V71H29.1993L31.8193 75.35L34.3993 71H35.7293L35.7493 78H34.2293ZM40.5201 78.12C39.5201 78.12 38.7401 77.8433 38.1801 77.29C37.6267 76.7367 37.3501 75.9467 37.3501 74.92V71H38.9701V74.86C38.9701 76.1133 39.4901 76.74 40.5301 76.74C41.0367 76.74 41.4234 76.59 41.6901 76.29C41.9567 75.9833 42.0901 75.5067 42.0901 74.86V71H43.6901V74.92C43.6901 75.9467 43.4101 76.7367 42.8501 77.29C42.2967 77.8433 41.5201 78.12 40.5201 78.12ZM51.7109 71V78H50.3809L46.8909 73.75V78H45.2909V71H46.6309L50.1109 75.25V71H51.7109ZM53.3671 71H54.9871V78H53.3671V71ZM58.0984 72.32H55.8584V71H61.9584V72.32H59.7184V78H58.0984V72.32ZM67.0884 76.5H63.8384L63.2184 78H61.5584L64.6784 71H66.2784L69.4084 78H67.7084L67.0884 76.5ZM66.5784 75.27L65.4684 72.59L64.3584 75.27H66.5784ZM65.9184 68.99H67.5984L65.7884 70.43H64.5684L65.9184 68.99ZM74.5947 78L73.2447 76.05H73.1647H71.7547V78H70.1347V71H73.1647C73.7847 71 74.3214 71.1033 74.7747 71.31C75.2347 71.5167 75.588 71.81 75.8347 72.19C76.0814 72.57 76.2047 73.02 76.2047 73.54C76.2047 74.06 76.078 74.51 75.8247 74.89C75.578 75.2633 75.2247 75.55 74.7647 75.75L76.3347 78H74.5947ZM74.5647 73.54C74.5647 73.1467 74.438 72.8467 74.1847 72.64C73.9314 72.4267 73.5614 72.32 73.0747 72.32H71.7547V74.76H73.0747C73.5614 74.76 73.9314 74.6533 74.1847 74.44C74.438 74.2267 74.5647 73.9267 74.5647 73.54ZM77.4882 71H79.1082V78H77.4882V71ZM85.3795 76.5H82.1295L81.5095 78H79.8495L82.9695 71H84.5695L87.6995 78H85.9995L85.3795 76.5ZM84.8695 75.27L83.7595 72.59L82.6495 75.27H84.8695Z" fill="black"/>
</svg>
