<svg width="100" height="100" viewBox="0 0 100 100" fill="none" xmlns="http://www.w3.org/2000/svg">
<path fill-rule="evenodd" clip-rule="evenodd" d="M91 50.5C91 73.4118 72.4318 91.9889 49.5197 92C26.6079 92.0111 8.02181 73.4523 8.00002 50.5394C7.97754 27.6277 26.528 9.03324 49.4405 9.00004C72.3523 8.96719 90.9557 27.5087 91 50.4201" fill="#410E41"/>
<path fill-rule="evenodd" clip-rule="evenodd" d="M60.3285 38.9033L58.7221 40.5782C58.6907 47.8327 58.7425 55.0869 58.6952 62.3401L63.8495 62.3574L65.3888 60.7942L60.3157 60.7323C60.3424 53.512 60.3161 46.124 60.3285 38.9033ZM51.9756 47.5056C52.2893 47.1144 52.6248 46.7358 52.9792 46.3809C52.0365 45.2642 50.6525 44.4536 49.1685 44.2668C48.8887 44.2208 48.6089 44.1956 48.3323 44.1915C46.3963 44.1586 44.5727 45.1339 43.2492 46.9564C45.6922 45.2746 49.571 45.7605 51.3417 48.1378C50.9952 48.4846 50.6552 48.8363 50.3184 49.1939C51.9445 49.2181 53.5699 49.195 55.1957 49.2088C55.4384 49.186 55.7314 49.2458 55.9219 49.0601C56.4524 48.605 56.9138 47.9935 57.3983 47.4935C55.5917 47.5391 53.7847 47.5104 51.9756 47.5056ZM74.8905 60.7883C74.8763 57.0132 74.8905 53.1496 74.8822 49.3727L69.9755 52.2909L65.4382 49.4236L65.4147 52.3248L68.412 54.2881C70.0281 53.2187 71.6259 52.12 73.2696 51.0894C73.2661 54.849 73.2689 58.6089 73.2675 62.3702C74.9455 62.3332 76.6363 62.4376 78.3081 62.3207C78.8725 61.8518 79.8394 60.7963 79.8394 60.7963L74.8905 60.7883ZM25.9935 60.7569C26.0032 55.1921 25.9984 49.4986 25.9966 43.9338C24.0122 43.9463 22.032 43.9338 20.0469 43.9393L20.0404 39.0413L18.4257 40.9742C18.4257 40.9742 18.4326 44.1838 18.4298 45.645C20.4087 45.6422 22.3861 45.6429 24.3629 45.644C24.357 51.2167 24.3768 56.7884 24.3532 62.3622C26.1398 62.3792 27.9264 62.3626 29.7116 62.3722C30.2608 61.8514 30.7968 61.3171 31.3387 60.7908C29.5584 60.7776 27.7739 60.8319 25.9935 60.7569ZM41.8161 58.9457C39.4693 57.321 37.82 54.776 37.3289 52.0104C36.7669 49.0165 37.5751 45.8297 39.4772 43.4189C38.125 44.4411 37.1224 45.8663 36.4235 47.3783C35.2823 49.9333 35.2114 52.9213 36.2174 55.5296C37.2881 58.3111 39.5657 60.6341 42.3891 61.7636C44.2843 62.5759 46.4015 62.7222 48.4381 62.4801C51.1218 62.0842 53.6671 60.7043 55.3534 58.6189C53.7636 59.8515 51.8304 60.6542 49.8124 60.9011C47.0233 61.26 44.0924 60.5663 41.8161 58.9457ZM35.5565 45.6519C34.1524 45.6274 32.7483 45.6654 31.3439 45.6284L31.3411 43.9386V43.9383C33.2885 43.9397 35.2342 43.9355 37.1816 43.9414C36.6414 44.4723 36.1136 45.138 35.5565 45.6519Z" fill="#AB3331"/>
<path fill-rule="evenodd" clip-rule="evenodd" d="M69.9754 46.4645L60.3284 38.9036L60.3156 60.7319L65.3893 60.7941L65.4387 49.4238L69.9754 52.2904L74.8827 49.3727C74.8827 49.3727 74.8416 60.9511 74.8907 60.7883L79.8392 60.7962L79.8728 38.7445L69.9754 46.4645ZM56.6079 42.5864C55.9453 41.9155 55.2384 41.2791 54.4333 40.7794C52.7121 39.6627 50.6696 39.0755 48.6136 39.0281C47.38 38.9997 46.1419 39.1657 44.9647 39.5282C42.7908 40.1794 40.8766 41.5409 39.4705 43.285C37.5698 45.7148 36.7612 48.9269 37.3232 51.9443C37.8136 54.7303 39.4618 57.2943 41.8076 58.9325C44.0822 60.5655 47.0121 61.2634 49.8002 60.9024C51.8171 60.6534 53.7496 59.8445 55.3383 58.6026C55.9283 58.1312 56.4592 57.5973 56.961 57.0391L53.1392 53.4497C52.0097 54.8652 50.256 55.8892 48.384 55.793C45.4641 55.9511 42.751 53.5372 42.4567 50.7072C42.2755 49.3557 42.612 47.9464 43.3846 46.8142C44.6258 44.9678 46.9719 43.8767 49.2102 44.2491C50.6941 44.4373 52.037 45.2559 52.9791 46.3809L51.9758 47.5058C53.7835 47.5107 55.5925 47.5397 57.3985 47.4934C57.6941 47.3388 57.8 46.9982 57.7792 46.6876C57.7768 44.9214 57.7848 43.1542 57.7733 41.3877L56.6079 42.5864ZM37.1814 43.942L31.3413 43.9389L31.3354 60.791L25.9937 60.7564L25.9968 43.9334L20.0468 43.94L20.0405 39.0409L37.1921 39.0388L37.1814 43.942Z" fill="#EBEBCA"/>
</svg>
