<svg width="100" height="100" viewBox="0 0 100 100" fill="none" xmlns="http://www.w3.org/2000/svg">
<g clip-path="url(#clip0_840_2920)">
<path d="M78.807 29C80.5495 29 82.2498 29.2543 83.9361 29.6775C87.2384 30.4821 90.2175 31.9502 92.7188 34.2793C93.5202 35.0136 94.2225 35.8321 94.8409 36.7355C95.0379 37.0177 95.0519 37.2435 94.8831 37.5541C93.9134 39.3048 92.8031 40.9564 91.693 42.608C89.2478 46.2213 86.7326 49.7927 84.0909 53.2652C83.9921 53.3924 83.95 53.5759 83.7535 53.6043C83.6408 53.1946 83.7674 52.7997 83.8239 52.4044C84.1188 50.3435 84.1609 48.2827 84.1609 46.2072C84.1609 43.9067 83.9221 41.6339 83.4581 39.3896C82.8398 36.4673 81.8705 33.6726 80.2541 31.1317C79.9028 30.5808 79.5236 30.0589 79.1161 29.5364C78.9757 29.3953 78.807 29.2543 78.807 29V29Z" fill="#FFD004"/>
<path d="M78.8071 29C81.4349 32.1337 82.8542 35.8182 83.6408 39.7989C84.2592 42.8901 84.3719 46.0238 84.2314 49.1715C84.1609 50.654 84.0065 52.1362 83.7395 53.6043C83.3882 52.5454 83.0508 51.5011 82.6855 50.4562C82.2359 49.1291 81.7579 47.8165 81.21 46.5179C79.2706 42.0293 75.8418 39.2764 71.2323 37.9354C71.0779 37.893 70.9235 37.8507 70.7266 37.7943C70.9092 37.5401 71.0641 37.3143 71.2323 37.0744C73.2562 34.1242 75.6731 31.5269 78.4274 29.2543C78.54 29.1695 78.6383 29.0284 78.8071 29V29Z" fill="#138336"/>
<path d="M60.918 56.371C60.2431 56.0037 59.5126 55.7779 58.7959 55.5097C58.4307 55.3686 58.0649 55.2415 57.7562 54.9877C57.3627 54.6627 57.3344 54.1407 57.6719 53.8017C57.8823 53.6043 58.1493 53.5335 58.4163 53.5051C59.3438 53.4064 60.1309 53.7733 60.8759 54.2818C61.0302 54.3805 61.1284 54.4792 61.2833 54.2533C61.6769 53.703 62.0843 53.1526 62.5057 52.6162C62.6461 52.4323 62.5762 52.362 62.4213 52.2488C61.2689 51.4442 60.0183 50.9503 58.5428 50.9647C57.8684 50.9503 57.1657 51.0634 56.4912 51.3455C55.2544 51.8536 54.4534 52.7429 54.2992 54.1123C54.1304 55.5381 54.7909 56.5261 55.9433 57.2599C56.5756 57.6697 57.2922 57.9094 57.981 58.1917C58.4163 58.3611 58.8382 58.5306 59.2173 58.8128C59.4987 59.0386 59.6392 59.3213 59.5687 59.6882C59.4987 60.0411 59.2594 60.2385 58.9364 60.3373C58.5289 60.4644 58.1215 60.4783 57.6997 60.422C56.8426 60.2949 56.112 59.9141 55.4371 59.4055C55.2544 59.2789 55.1701 59.2789 55.044 59.4763C54.777 59.8716 54.4957 60.2526 54.2148 60.6479C53.6524 61.4385 53.6386 61.4525 54.4818 61.9325C56.5051 63.0761 58.5989 63.4007 60.7632 62.4126C62.0422 61.8194 62.7027 60.761 62.7449 59.3492C62.8009 57.9519 62.0982 57.0061 60.918 56.371V56.371Z" fill="#138336"/>
<path d="M75.9966 62.4549C75.8701 61.8054 75.7718 61.1419 75.6731 60.4783C75.6452 60.2949 75.6031 60.1538 75.35 60.1962C74.9426 60.267 74.7177 60.0267 74.6472 59.6598C74.6051 59.448 74.5912 59.2221 74.5912 59.0107C74.5912 57.0201 74.5912 55.044 74.5912 53.0534C74.5912 50.9926 74.5912 48.9457 74.6051 46.8848C74.6051 46.5743 74.5351 46.4895 74.226 46.5039C73.3545 46.5318 72.4973 46.5318 71.6259 46.5039C71.2745 46.4895 71.2046 46.6166 71.2046 46.9416C71.2185 50.9362 71.2046 54.9308 71.2185 58.9399C71.2185 59.3213 71.2324 59.6882 71.2745 60.0691C71.4155 61.2411 71.7807 62.2854 73.0031 62.7511C73.9167 63.09 74.8442 63.0193 75.7718 62.7935C75.9545 62.7371 76.0388 62.6808 75.9966 62.4549V62.4549Z" fill="#138336"/>
<path d="M41.2861 51.0634C40.0777 50.7952 38.9958 51.0349 38.0821 51.8959C37.6608 52.2772 37.3516 52.7429 36.972 53.209C36.9158 52.6582 36.8455 52.1218 36.7893 51.5713C36.7616 51.3316 36.705 51.2185 36.4241 51.2329C35.7213 51.2608 35.0047 51.2608 34.302 51.2329C34.0211 51.2185 33.965 51.3172 33.965 51.5854C33.9788 55.1851 33.9788 58.7704 33.965 62.3702C33.965 62.6384 34.0493 62.7087 34.302 62.7087C35.1873 62.6948 36.0588 62.6808 36.9442 62.7087C37.2672 62.7231 37.3516 62.6244 37.3516 62.2994C37.3372 60.3233 37.3516 58.3611 37.3372 56.385C37.3372 56.1453 37.3938 55.9333 37.4921 55.7215C38.1805 54.2674 39.2485 53.731 40.7943 54.0699C41.0475 54.1263 41.1035 54.0984 41.1457 53.8441C41.2722 53.0679 41.3988 52.3057 41.5815 51.5434C41.6797 51.1905 41.5392 51.1196 41.2861 51.0634V51.0634Z" fill="#138336"/>
<path d="M68.2676 56.9499C68.2676 55.1712 68.2676 53.3924 68.2676 51.5998C68.2676 51.3316 68.2392 51.2185 67.9301 51.2329C67.017 51.2608 66.1171 51.2468 65.204 51.2329C64.9652 51.2329 64.881 51.2891 64.881 51.5434C64.8949 55.1567 64.8949 58.7565 64.881 62.3702C64.881 62.6523 64.9792 62.7087 65.2322 62.7087C66.1171 62.6948 66.9886 62.6808 67.874 62.7087C68.1971 62.7231 68.2815 62.6244 68.2815 62.2994C68.2531 60.5208 68.2676 58.7281 68.2676 56.9499V56.9499Z" fill="#138336"/>
<path d="M66.5812 46.0238C65.4427 46.0238 64.614 46.7437 64.614 47.7602C64.5995 48.8046 65.4427 49.5668 66.5812 49.5668C67.7052 49.5668 68.5201 48.833 68.5201 47.7881C68.5201 46.7577 67.7336 46.0238 66.5812 46.0238V46.0238Z" fill="url(#paint0_linear_840_2920)"/>
<path d="M28.892 54.8038C28.7655 54.7758 28.6389 54.7334 28.4985 54.691C28.5406 54.6347 28.5545 54.6203 28.5685 54.6203C28.6811 54.5779 28.7794 54.55 28.892 54.5076C30.2127 53.9711 30.9293 52.9687 31.0137 51.5573C31.1124 49.9906 30.4519 48.8753 29.1025 48.2682C28.1754 47.8449 27.1774 47.6754 26.1655 47.6894C24.3109 47.6191 22.4558 47.6754 20.5868 47.6471C20.2915 47.6471 20.3619 47.8449 20.3619 48C20.3619 52.7713 20.3619 57.5565 20.348 62.3278C20.348 62.6523 20.4602 62.7087 20.7412 62.6947C22.02 62.6808 23.3129 62.6947 24.5918 62.6808C25.1819 62.6808 25.7719 62.7371 26.3625 62.6384C26.5029 62.6384 26.6295 62.6244 26.7699 62.6244C28.0767 62.5676 29.3134 62.2431 30.3392 61.3961C31.632 60.3373 31.9552 58.9115 31.6603 57.3307C31.365 55.8346 30.2693 55.1567 28.892 54.8038V54.8038ZM23.9873 50.2727C24.7883 50.3011 25.6036 50.2024 26.3903 50.3714C27.1913 50.527 27.627 50.9502 27.6975 51.656C27.7958 52.4891 27.4162 53.1665 26.6855 53.4772C26.0672 53.7454 25.421 53.7029 24.7744 53.7029C23.7485 53.7029 23.7485 53.7029 23.7485 52.6726C23.7485 52.4467 23.7485 52.2065 23.7485 51.9806C23.7485 51.5011 23.7485 51.0209 23.7485 50.5549C23.7625 50.3858 23.7769 50.2727 23.9873 50.2727V50.2727ZM26.9243 59.914C25.9407 60.1683 24.9431 60.0127 23.9452 60.055C23.7485 60.055 23.7625 59.928 23.7625 59.7868C23.7625 59.2221 23.7625 58.6578 23.7625 58.0929C23.7625 57.5281 23.7625 56.9638 23.7625 56.3989C23.7625 56.2015 23.8047 56.1028 24.0155 56.1168C24.9149 56.1453 25.8285 56.0605 26.7417 56.2015C27.8097 56.385 28.3859 56.9353 28.4424 57.8532C28.4985 58.926 27.9923 59.6458 26.9243 59.914V59.914Z" fill="#138336"/>
<path d="M51.8257 56.1732C51.8257 55.6507 51.7979 55.1287 51.7136 54.6203C51.4182 52.7429 50.3925 51.5011 48.6922 51.1337C46.4996 50.654 44.5046 51.2892 42.6072 52.3759C42.3964 52.4891 42.4946 52.5878 42.5651 52.7149C42.8321 53.209 43.0991 53.703 43.3661 54.211C43.6331 54.7195 43.6331 54.7195 44.1249 54.4653C44.9963 53.9992 45.9095 53.6323 46.9215 53.703C47.7646 53.7594 48.327 54.2674 48.4252 55.0579C48.453 55.2699 48.4252 55.3546 48.1721 55.3825C47.6381 55.4394 47.118 55.5241 46.584 55.6228C45.4316 55.8486 44.3075 56.1453 43.3379 56.8651C42.1715 57.726 41.8485 58.926 42.1155 60.2949C42.3686 61.608 43.1412 62.5113 44.4623 62.8643C45.6986 63.2028 46.8232 62.8782 47.8768 62.2007C48.186 62.0033 48.4812 61.763 48.8043 61.5233C48.8748 61.8194 48.9592 62.0876 48.987 62.3418C49.0152 62.6664 49.1696 62.7231 49.4648 62.7231C50.1116 62.6948 50.7577 62.6948 51.4182 62.7231C51.7413 62.7371 51.8257 62.6523 51.8257 62.3139C51.8118 60.2526 51.8257 58.2061 51.8257 56.1732V56.1732ZM47.6663 60.0267C47.0618 60.3797 46.4435 60.4644 45.7973 60.1823C45.1928 59.9141 45.0807 59.0386 45.5442 58.4599C45.783 58.1777 46.0921 57.9942 46.4296 57.8532C46.9775 57.6273 47.5537 57.5142 48.1438 57.4015C48.4108 57.3591 48.4673 57.4439 48.453 57.6837C48.4391 57.9235 48.453 58.1777 48.453 58.4175C48.453 58.4743 48.4391 58.5306 48.453 58.587C48.594 59.2929 48.2142 59.7021 47.6663 60.0267V60.0267Z" fill="#138336"/>
<path d="M16.6238 52.8136C16.2442 52.8136 15.8651 52.8421 15.4998 52.8136C15.1906 52.7852 15.0779 52.8983 15.0079 53.1805C14.6283 54.6347 14.2348 56.0884 13.8273 57.5425C13.7291 57.4717 13.7291 57.3591 13.7008 57.2599C13.3354 55.8766 12.9702 54.4936 12.5906 53.1103C12.5484 52.9547 12.5484 52.7997 12.3097 52.7997C11.7757 52.8136 11.2556 52.7997 10.6794 52.7997C10.7638 53.0679 10.8342 53.2793 10.9042 53.5051C11.5087 55.2838 12.1127 57.0625 12.7171 58.8273C12.7311 58.8412 12.7311 58.8691 12.7454 58.8975V58.9963H14.8109V58.8835C15.5419 56.9353 16.1038 54.9308 16.7782 52.9687C16.8626 52.8136 16.7504 52.8136 16.6238 52.8136Z" fill="#138336"/>
<path d="M8.69824 54.3097H10.5529L9.8785 52.7429H8.7965V51.1196H6.95538V52.7149C6.95538 52.7288 6.9415 52.7288 6.9275 52.7429H6V54.3097H6.801C6.85713 54.3805 6.88537 54.5076 6.88537 54.691C6.88537 55.6367 6.78712 56.5969 6.95538 57.5425C7.11013 58.3896 7.65813 58.9399 8.45913 59.053C8.90875 59.1234 9.3445 59.1094 9.79413 59.0107C10.3564 58.8975 10.3564 58.8975 10.2299 58.3188C10.2015 58.1637 10.1599 58.0081 10.1315 57.8532C10.0894 57.6553 10.0611 57.5425 9.78012 57.6129C9.10574 57.7824 8.71212 57.4717 8.69824 56.7804C8.67 55.9613 8.69824 55.1427 8.69824 54.3097V54.3097Z" fill="#138336"/>
</g>
<defs>
<linearGradient id="paint0_linear_840_2920" x1="66.9338" y1="43.2854" x2="65.5867" y2="59.6469" gradientUnits="userSpaceOnUse">
<stop stop-color="#138336"/>
<stop offset="1" stop-color="#135728"/>
</linearGradient>
<clipPath id="clip0_840_2920">
<rect width="89" height="34" fill="white" transform="translate(6 29)"/>
</clipPath>
</defs>
</svg>
