<svg width="100" height="100" viewBox="0 0 100 100" fill="none" xmlns="http://www.w3.org/2000/svg">
<g clip-path="url(#clip0_839_1442)">
<path d="M34.3939 57.8403C35.6603 56.1295 35.2833 53.6465 33.5915 52.3884C33.0232 51.969 32.3608 51.7311 31.6628 51.6943C32.4379 51.0239 32.9514 50.0848 33.0286 49.0444C33.1166 47.8503 32.6403 46.6289 31.7864 45.8572C30.5497 44.7881 28.755 44.5073 27.3244 45.3597C27.5243 44.1358 27.1236 42.8716 26.2203 41.9547C25.5545 41.2627 24.5968 40.8665 23.5916 40.8665C22.2292 40.8665 20.8525 41.679 20.245 42.9397C19.6376 41.679 18.2604 40.8665 16.8985 40.8665C15.8928 40.8665 14.9351 41.2632 14.2698 41.9547C13.3655 42.8716 12.9663 44.1363 13.1652 45.3597C11.7355 44.5078 9.93986 44.7886 8.70316 45.8572C7.84884 46.6289 7.37296 47.8503 7.46101 49.0444C7.53868 50.0853 8.05215 51.0239 8.82732 51.6943C8.12933 51.7311 7.46596 51.969 6.89856 52.3884C6.25548 52.8632 5.7697 53.5487 5.50603 54.3094C5.14591 55.5998 5.36159 56.8604 6.11152 57.8605C6.83821 58.8268 7.95718 59.3813 9.1825 59.3813H31.3096C32.5349 59.3813 33.6544 58.8268 34.381 57.8605L34.3939 57.8403Z" fill="white"/>
<path d="M11.3097 45.7095C10.5795 45.7095 9.87114 45.9827 9.26119 46.4998C8.6097 47.0876 8.23226 48.0614 8.30052 48.9803C8.34999 49.6457 8.64581 50.5974 9.77813 51.349L18.1645 57.2369L14.1012 47.7857C13.5941 46.4847 12.5518 45.7095 11.3097 45.7095Z" fill="#E06427"/>
<path d="M19.4303 43.2002C19.7301 43.7758 19.9097 44.4296 19.8018 45.1504C19.8018 45.1504 18.1773 55.1032 18.1625 55.1067L14.0952 45.6398C13.741 44.5218 14.0769 43.3569 14.8669 42.558C15.6638 41.7273 16.9837 41.4995 18.0225 41.9531C18.577 42.1956 19.1014 42.6487 19.4303 43.2002" fill="#B42946"/>
<path d="M29.179 45.7095C29.9101 45.7095 30.6185 45.9827 31.228 46.4998C31.879 47.0876 32.2569 48.0614 32.1896 48.9803C32.1397 49.6457 31.8424 50.5974 30.7105 51.349L22.3247 57.2369L26.388 47.7857C26.8956 46.4847 27.9383 45.7095 29.179 45.7095" fill="#008BC1"/>
<path d="M21.9097 44.7655C22.0056 44.7655 22.156 44.8421 22.1743 44.9374C21.6599 45.2695 20.8036 45.6385 20.9089 46.4052L21.0296 47.243C21.5075 50.1625 22.3163 55.1044 22.3277 55.1074L26.3939 45.6405C26.7476 44.5225 26.4132 43.3576 25.6227 42.5587C24.8268 41.728 23.5065 41.4991 22.4672 41.9538C21.9131 42.1963 21.3888 42.6494 21.0593 43.2014C20.8139 43.6727 20.6492 44.1964 20.6571 44.7665H21.9097V44.7655Z" fill="#595996"/>
<path d="M31.4698 52.5461C32.7842 52.5461 33.8789 53.5306 34.1748 54.5432C34.4632 55.5413 34.295 56.5595 33.7107 57.3393C33.1443 58.0924 32.2692 58.5249 31.3081 58.5249H21.9685L29.6692 53.1117C30.2401 52.7422 30.8644 52.5461 31.4698 52.5461Z" fill="#03A84B"/>
<path d="M9.01974 52.5461C7.70537 52.5461 6.61064 53.5306 6.31433 54.5432C6.02643 55.5413 6.19462 56.5595 6.77933 57.3393C7.34574 58.0924 8.21984 58.5249 9.181 58.5249H18.5211L10.8204 53.1117C10.2495 52.7422 9.62523 52.5461 9.01974 52.5461Z" fill="#F0B428"/>
<path d="M62.149 55.983C59.1627 55.983 56.7328 53.3563 56.7328 50.1293C56.7328 46.9022 59.1627 44.2766 62.149 44.2766C65.1344 44.2766 67.5633 46.9022 67.5633 50.1293C67.5633 53.3563 65.1344 55.983 62.149 55.983ZM85.3392 44.5064H91.4638C91.7874 44.5064 92.0926 44.3134 92.2405 44.019L93.5034 41.0747H83.7641C82.6184 41.0747 81.686 42.0234 81.686 43.1903V58.4811L80.7179 56.2325C80.6224 56.0117 80.3622 55.7541 79.966 55.7541H73.5816V42.2492C73.5816 41.601 73.0627 41.0742 72.427 41.0742H69.9284V43.9172C70.7293 45.5765 70.8841 47.1331 70.9148 47.6583C69.8532 43.8093 66.4345 40.8711 62.1485 40.8711C57.2131 40.8711 53.691 44.6637 53.1478 48.7925H48.2564C47.8023 48.7925 47.6015 49.111 47.5386 49.2446L46.3712 51.9615H51.8518C51.274 53.9874 49.4298 55.9825 46.6289 55.9825C43.5634 55.9825 41.1627 53.4107 41.1627 50.1288C41.1627 46.8468 43.5866 44.2761 46.6804 44.2761C47.9294 44.2761 49.3749 44.8094 50.6467 45.7399C51.1285 46.0801 51.5792 45.6678 51.6578 45.5236L52.9326 43.2619C51.9903 42.4186 49.7894 40.8716 46.7575 40.8716C41.558 40.8716 37.4843 44.9253 37.4843 50.103C37.4843 55.2228 41.5644 59.3869 46.578 59.3869C50.8105 59.3869 54.5468 56.3101 55.4649 52.0694C55.4649 52.0694 55.6118 53.7147 54.8629 55.677C56.5962 58.0355 59.2482 59.3869 62.1485 59.3869C65.877 59.3869 68.568 57.2028 69.9284 54.9411V57.0546C69.9284 58.2281 70.8599 59.1838 72.0065 59.1838H84.1811C84.8188 59.1838 85.3387 58.6565 85.3387 58.0078V51.9666L90.5472 51.9656C90.8707 51.9656 91.1779 51.773 91.3248 51.4791L92.4824 48.793H85.3387V44.5064H85.3392Z" fill="black"/>
</g>
<defs>
<clipPath id="clip0_839_1442">
<rect width="89" height="20" fill="white" transform="translate(5 40)"/>
</clipPath>
</defs>
</svg>
