<svg width="100" height="100" viewBox="0 0 100 100" fill="none" xmlns="http://www.w3.org/2000/svg">
<g clip-path="url(#clip0_837_439)">
<path fill-rule="evenodd" clip-rule="evenodd" d="M26.0992 37.5863H43.7992C43.95 37.5863 44.1329 37.5811 44.3321 37.5755C45.0469 37.555 45.9738 37.5284 46.3992 37.7153C46.745 37.8667 47.0723 38.2313 47.2858 38.534C47.4679 38.7921 47.6412 39.0623 47.8144 39.3321C47.9281 39.5096 48.0419 39.6869 48.1581 39.8605C48.2321 39.9713 48.3015 40.08 48.3717 40.1905C48.4417 40.3003 48.5127 40.4117 48.59 40.528L52.0846 45.9021C52.1325 45.9742 52.1712 46.0321 52.211 46.0919C52.2423 46.1388 52.2744 46.1867 52.3119 46.2432C52.3358 46.279 52.3565 46.3148 52.3765 46.3492C52.4262 46.4353 52.4715 46.5136 52.5542 46.5694V37.5863H71.8081C71.7337 37.2659 71.3123 36.1759 71.1746 35.8321C70.7654 34.8082 70.1254 33.5186 69.565 32.5905C68.8992 31.4886 68.3985 30.7525 67.5892 29.7525C67.5442 29.6967 67.5025 29.6475 67.4613 29.5992C67.4127 29.5423 67.3652 29.4863 67.3137 29.4213L66.3215 28.2909C65.8319 27.7348 64.48 26.5417 63.9504 26.1136C62.8165 25.1959 60.5396 23.6744 59.1269 23.0917L57.8615 22.538C55.7873 21.6144 52.1185 20.8333 49.8631 20.8333H49.5087C47.1777 20.8336 46.2323 20.8513 43.77 21.3732C43.1477 21.5053 42.4458 21.704 41.8619 21.8903C41.805 21.9084 41.7496 21.9259 41.6952 21.943C41.4342 22.0257 41.1975 22.1005 40.9508 22.1925C38.6454 23.054 37.4954 23.6525 35.3704 25.0636C34.5073 25.6363 33.4481 26.4953 32.7042 27.2109C32.5981 27.3134 32.4844 27.4178 32.3675 27.5248C32.0654 27.8021 31.7442 28.0971 31.4869 28.4194L30.3531 29.7109C28.6673 31.7771 27.3119 34.164 26.4073 36.6817C26.3815 36.7534 26.3535 36.8273 26.325 36.9028C26.2406 37.1263 26.1513 37.3625 26.0992 37.5863ZM72.9073 43.8467V45.489C72.8477 47.2263 72.6046 48.9698 72.2181 50.5421C71.9162 51.768 71.5687 52.7321 71.1154 53.874C71.0577 54.0188 71.001 54.148 70.9438 54.2786L70.9 54.3782C70.8598 54.4692 70.8198 54.5534 70.7804 54.6363C70.7433 54.7144 70.7069 54.7911 70.6715 54.8705C70.0962 56.164 69.3273 57.4275 68.5112 58.5848C68.3256 58.848 68.1448 59.088 67.949 59.3478L67.8831 59.4353C67.2873 60.2248 66.4904 61.0786 65.8104 61.759L63.8537 63.5167C62.0735 64.9353 59.9735 66.1821 57.85 67.0259C55.1696 68.0913 52.2646 68.7425 49.295 68.7425C46.0192 68.7425 43.9592 68.3663 41.1031 67.4205C40.6681 67.2767 39.4796 66.8075 39.0231 66.5825C38.8912 66.5175 38.759 66.4534 38.6265 66.3892C38.1017 66.1346 37.5748 65.8792 37.0738 65.5753C36.0065 64.9275 34.9735 64.2694 34.0115 63.4825L33.4085 62.9867C32.5563 62.3003 31.0696 60.7582 30.3277 59.8136C29.6477 58.948 29.0846 58.1875 28.5027 57.2421L27.9581 56.3086C27.4758 55.4782 26.6781 53.7067 26.3687 52.7809C26.1231 52.0448 25.8819 51.3155 25.6896 50.5421C25.0892 48.1244 25 46.6167 25 44.1436L25.0388 43.3486C25.0454 43.0805 25.0523 42.8259 25.0862 42.5621L25.265 41.1113H30.3437V55.2109H35.3092V41.1113H40.6535V55.2109H45.2396V44.2571C45.3206 44.3167 45.5187 44.6259 45.6494 44.83C45.6865 44.8878 45.7179 44.9369 45.74 44.9698L47.5113 47.6325C48.3806 48.989 49.4131 50.5305 50.3883 51.9861L50.3887 51.9865L50.3894 51.9878C50.7242 52.4873 51.0521 52.9767 51.3642 53.4453C51.4146 53.5207 51.4671 53.5967 51.5198 53.6727H51.52C51.6317 53.8342 51.7435 53.9959 51.8327 54.1513C52.0792 54.5809 52.4965 55.249 53.085 55.249H57.1404V41.1113H62.4465V55.249H67.4115V41.1113H72.6419C72.645 41.2428 72.6754 41.4338 72.704 41.613L72.7042 41.6132V41.6134C72.7173 41.6963 72.7302 41.7767 72.7396 41.8475C72.8281 42.4967 72.8831 43.1667 72.9073 43.8467ZM66.3977 78.4259C66.4115 78.209 66.4175 78.114 66.3785 77.8109C66.2392 76.728 65.2873 76.034 64.3792 75.5653L63.8415 75.269L63.7673 75.2244L63.7137 75.1927L63.7131 75.1923C63.2404 74.9119 62.6358 74.5536 62.6358 73.8971C62.6358 73.2225 63.035 72.9494 63.6592 72.9494C64.3412 72.9494 64.4554 73.6798 64.4554 74.314H66.2746C66.3758 73.8794 66.2712 73.3136 66.1569 72.9532C66.0712 72.6836 65.875 72.3467 65.6577 72.164C64.5108 71.2025 60.7412 71.1853 60.7412 73.8971C60.7412 74.6905 60.7962 75.0567 61.3035 75.6848C61.68 76.1505 62.3962 76.5717 63.0331 76.9465C63.5433 77.2467 64.0029 77.5171 64.1965 77.7563C64.8435 78.5571 64.3337 79.469 63.6973 79.469L63.6367 79.4692C63.3215 79.4707 62.9446 79.4723 62.7269 79.1505C62.5158 78.8392 62.5188 78.4292 62.5217 78.0457C62.5221 78.0019 62.5223 77.9582 62.5223 77.9153H60.6273C60.6273 78.0169 60.6262 78.1113 60.625 78.2005V78.2011C60.619 78.7009 60.6148 79.035 60.8269 79.5725C61.1554 80.404 62.0665 80.8332 63.0527 80.8332C64.6658 80.8332 66.2746 80.6075 66.3896 78.5603C66.3925 78.5098 66.3952 78.4659 66.3977 78.4259ZM69.0035 71.8505V72.9494H68.8138L68.7969 72.1859L68.5485 72.9494H68.3592C68.3488 72.8225 68.185 72.3225 68.0938 72.1917V72.9494H67.9046V71.964C67.9046 71.8409 67.9923 71.8444 68.1027 71.8488L68.1477 71.8502L68.1696 71.8505C68.1946 71.9575 68.2408 72.0834 68.2881 72.2117C68.3548 72.3936 68.4233 72.5798 68.435 72.7225C68.5094 72.6675 68.514 72.65 68.5312 72.5834V72.5832V72.583V72.5827C68.5369 72.5613 68.5437 72.5348 68.5546 72.5005C68.5933 72.3796 68.6219 72.2811 68.645 72.2009C68.741 71.8694 68.7465 71.8505 69.0035 71.8505ZM66.9187 71.8505H67.7908V72.0021H67.4496V72.9494H67.26V72.0021H66.9187V71.8505ZM56.5719 79.279H59.6419V80.6817H54.6769V71.7367H59.4523C59.5396 71.7367 59.5663 71.763 59.5663 71.8505V73.0255C59.5663 73.1125 59.5396 73.1394 59.4523 73.1394H56.5719V75.2998H59.225C59.3123 75.2998 59.3387 75.3259 59.3387 75.4132V76.7017H56.5719V79.279ZM53.1227 80.6817H51.2277V71.7367H53.1227V80.6817ZM48.3092 76.2471V76.323C48.9196 76.323 49.4958 76.6809 49.7073 77.2371C49.8342 77.5707 49.8506 78.2467 49.8671 78.9242C49.8846 79.645 49.9021 80.3678 50.0527 80.6817H48.1954C47.9756 80.223 47.9887 79.4857 48.0012 78.784C48.004 78.6434 48.0063 78.504 48.0069 78.3686C48.0127 76.9963 47.2502 77.0003 46.3762 77.0046L46.2246 77.0053V80.6817H44.33V71.7367H47.8165C48.4631 71.7367 48.9581 71.9798 49.2862 72.3136C49.8631 72.8998 49.8631 73.63 49.8631 74.3713V74.3902C49.8631 75.2936 49.1654 76.2282 48.3092 76.2471ZM46.1954 75.599L46.9454 75.6094C47.7837 75.6094 48.0581 74.8725 47.9627 74.0144C47.9204 73.6294 47.7742 73.3225 47.4569 73.1959C47.2173 73.1002 46.4777 73.0959 46.1954 73.1336V75.599ZM40.0846 79.279H43.155V80.6817H38.1896V71.7367H42.9654C43.0527 71.7367 43.0792 71.763 43.0792 71.8505V73.0255C43.0792 73.1125 43.0527 73.1394 42.9654 73.1394H40.0846V75.2998H42.7381C42.825 75.2998 42.8515 75.3259 42.8515 75.4132V76.7017H40.0846V79.279ZM36.6235 79.533C36.84 79.0675 36.8631 78.664 36.8631 78.1421C36.8631 76.6742 35.6515 76.0098 34.6052 75.4361C33.8104 75.0003 33.1113 74.6169 33.1113 73.9732C33.1113 73.2544 33.3777 72.9494 34.1342 72.9494C34.8354 72.9494 34.9187 73.8003 34.93 74.314H36.7496V74.2321C36.7504 73.3909 36.751 72.71 36.0185 72.0882C35.1838 71.3794 32.9363 71.4259 31.9892 72.169C31.4115 72.6225 31.1777 73.3509 31.1777 74.1244C31.1777 75.5963 32.361 76.2832 33.4031 76.8882C34.3713 77.4503 35.2177 77.9417 34.8804 78.9259C34.6944 79.4692 34.2706 79.469 33.8817 79.469H33.8687C33.0537 79.469 32.9592 78.7317 32.9592 77.9153H31.0642C31.0642 78.7955 31.0942 79.6203 31.6977 80.1998C32.0823 80.569 32.7419 80.7748 33.4485 80.8332H34.3042C35.0081 80.7763 35.6677 80.5786 36.0588 80.2559C36.3338 80.0294 36.4623 79.879 36.6235 79.533Z" fill="#FF4B57"/>
</g>
<defs>
<clipPath id="clip0_837_439">
<rect width="100" height="100" fill="white"/>
</clipPath>
</defs>
</svg>
