<svg width="100" height="100" viewBox="0 0 100 100" fill="none" xmlns="http://www.w3.org/2000/svg">
<g clip-path="url(#clip0_837_437)">
<path d="M87 49.9952C87 70.4261 70.4319 86.9941 49.999 86.9941C29.5641 86.9941 13 70.4261 13 49.9952C13 48.0652 13.1468 46.1706 13.4335 44.3224H21.3347V66.1839H28.8301V44.3224H37.2269V66.1839H44.3873V49.8858H44.541L54.0757 64.1602C55.0244 65.6657 55.8983 66.1838 57.7209 66.1838H62.643V44.3224H71.0674V66.1839H78.4397V44.3224H86.5635C86.8503 46.1706 87 48.0652 87 49.9952V49.9952Z" fill="#E6BF34"/>
<path d="M36.9672 38.9533H44.2204C46.0465 38.9533 46.9578 39.467 47.8692 40.974L55.3595 52.6403H55.6188V38.9533H85.307C80.6104 23.918 66.5754 13.006 49.9887 13.006C33.4039 13.006 19.3655 23.918 14.6688 38.9533H36.9672Z" fill="#E6BF34"/>
</g>
<defs>
<clipPath id="clip0_837_437">
<rect width="74" height="74" fill="white" transform="translate(13 13)"/>
</clipPath>
</defs>
</svg>
