<svg width="100" height="100" viewBox="0 0 100 100" fill="none" xmlns="http://www.w3.org/2000/svg">
<g clip-path="url(#clip0_836_64)">
<path d="M21.6943 39.2592C19.6955 39.591 17.6615 40.5865 16.1448 41.9752C15.6862 42.4054 15.6039 42.5406 15.6039 42.9339C15.6039 43.2534 15.6862 43.4746 15.8744 43.659C16.3211 44.1014 16.7091 44.0031 17.7556 43.1674C18.9548 42.2333 20.3422 41.5451 21.6003 41.2747C23.0464 40.9675 25.3391 41.0781 26.5972 41.5082C27.7729 41.9138 29.2426 42.7864 30.2067 43.6344C31.0062 44.3472 31.4295 44.4578 31.9116 44.1137C32.2643 43.8556 32.3819 43.1551 32.1467 42.7741C31.8293 42.2702 30.1244 40.9306 29.0427 40.3407C27.5143 39.505 26.3973 39.2346 24.1869 39.1854C23.1875 39.1731 22.0588 39.1977 21.6943 39.2592Z" fill="#FF5555"/>
<path d="M22.3057 42.4422C21.0124 42.6389 19.6015 43.1919 19.1429 43.6712C18.8255 44.0031 18.802 44.7896 19.1077 45.0723C19.4134 45.355 20.1071 45.3304 20.6949 45.0231C21.9765 44.3349 23.9753 44.1014 25.3156 44.4701C26.1387 44.6913 27.2674 45.2444 27.9258 45.736C28.5842 46.2153 29.2191 46.289 29.5954 45.8957C29.9128 45.5639 29.901 44.9371 29.5601 44.5315C28.9604 43.8064 27.5143 42.9707 26.315 42.6389C25.4685 42.4177 23.2346 42.3071 22.3057 42.4422Z" fill="#FF5555"/>
<path d="M9.31369 43.3026C8.37309 43.5484 7.60885 44.3103 7.38546 45.2321C7.23261 45.8711 7.2091 54.1669 7.36195 55.3836C7.50304 56.5265 8.02037 57.608 8.8669 58.5666C9.88981 59.6973 10.7834 60.2135 12.0414 60.3978C14.4282 60.7543 16.521 60.1643 17.9554 58.7264L18.6139 58.0628L19.0254 58.5052C19.6485 59.1811 20.7302 59.8817 21.565 60.152C23.0935 60.6436 25.0805 60.5945 26.6325 60.0291C27.4202 59.7342 28.7841 58.8002 29.1721 58.2717L29.4543 57.903L30.0892 58.4929C31.7117 60.0169 33.44 60.6436 35.5329 60.4593C36.9908 60.3241 38.4722 59.8571 39.0131 59.3409C39.2012 59.1689 39.2365 59.1811 39.4011 59.513C39.4952 59.7096 39.8244 60.0537 40.1301 60.2627C40.6356 60.6068 40.7767 60.6436 41.6115 60.6436C43.0106 60.6436 43.6103 60.3118 44.2687 59.1811L44.5861 58.6158L44.6214 55.4204C44.6567 52.6429 44.6802 52.2005 44.8566 52.0653C45.127 51.8441 45.515 51.8809 45.8324 52.1513C46.1146 52.3848 46.1146 52.3971 46.1734 55.6908L46.2322 59.0091L46.5614 59.4515C47.1845 60.3118 47.5961 60.533 48.6307 60.6068C49.9358 60.7051 50.8764 60.2995 51.3349 59.4515C51.4408 59.2426 51.4643 59.2426 51.7817 59.4515C52.4637 59.9063 53.5453 60.3978 54.1567 60.5207C54.5095 60.5822 55.5559 60.6436 56.5082 60.6436C57.9426 60.6436 58.3071 60.5945 58.6951 60.4101C59.33 60.0906 59.8003 59.6113 60.0708 58.9599L60.2941 58.4315L60.9996 59.046C61.999 59.9185 62.5869 60.2504 63.7038 60.533C64.8325 60.8403 66.1611 60.8034 67.4897 60.4593C68.2069 60.2749 68.2775 60.2749 68.5714 60.4716C68.7713 60.6068 69.1358 60.6805 69.7236 60.6928C70.4291 60.7051 70.676 60.6559 71.1816 60.3733L71.7812 60.0537L72.3456 60.3487C73.2979 60.8526 75.0615 60.7297 76.3431 60.0783C77.1073 59.685 78.142 58.7264 78.6005 57.9644C79.2825 56.8583 79.3765 56.4651 79.4471 54.13C79.5059 52.0038 79.5059 51.9792 79.7763 51.9424C80.3171 51.8563 80.3877 52.0653 80.3877 53.8104C80.3877 56.3422 80.811 57.522 82.2454 58.9476C83.5269 60.2258 84.5969 60.6436 86.5016 60.6436C88.5121 60.6314 89.4997 60.2135 90.8636 58.8002C91.8865 57.7309 92.3215 56.8829 92.5684 55.4819C92.8741 53.7244 92.686 52.6552 91.9806 51.9301L91.5691 51.5122L91.9806 51.0821C92.9212 50.0743 92.9564 48.0956 92.0511 47.0018C91.3339 46.1169 91.0047 46.0186 88.4886 46.0186C86.8778 46.0186 86.2664 45.9818 86.1724 45.8589C86.1018 45.7851 86.0078 45.4902 85.9607 45.2198C85.8667 44.6544 85.0084 43.6221 84.4205 43.364C84.2089 43.2657 83.6798 43.1919 83.233 43.1919C81.8221 43.1919 80.8227 43.9293 80.4935 45.2075C80.423 45.4902 80.3407 45.7851 80.3171 45.8589C80.2936 45.9695 79.9997 46.0186 79.4236 46.0186C78.4242 46.0186 77.2367 46.3259 76.4842 46.7929C75.8493 47.1739 74.8264 48.3168 74.4972 49.0051C73.9563 50.1112 73.8858 50.4676 73.8153 52.5937L73.7447 54.683H73.2156H72.6865L72.616 53.0853C72.5337 51.2296 72.2868 50.3201 71.5696 49.214C70.6172 47.7392 68.7948 46.4242 67.3486 46.1415C66.3963 45.9572 64.4328 45.994 63.6333 46.203C62.6574 46.4734 61.5992 47.0387 60.9055 47.6901L60.3059 48.2308L60.1648 47.7884C59.9884 47.2353 59.283 46.3996 58.8127 46.1907C57.8721 45.7851 54.7681 45.8834 53.3455 46.3873C52.4754 46.6823 51.5348 47.2845 50.9705 47.9113L50.5942 48.3291L49.9593 47.7269C49.0893 46.9035 48.4896 46.5594 47.4079 46.2644C44.9859 45.6131 42.2464 46.2276 40.812 47.7515C40.5063 48.0833 40.1888 48.3537 40.1183 48.3537C40.0478 48.3537 39.7773 48.1325 39.5304 47.8498C38.919 47.1985 38.143 46.6946 37.2847 46.375C36.3912 46.0432 34.4394 45.9326 33.2519 46.1415C32.1585 46.3259 30.7476 47.0633 29.901 47.8621C29.5601 48.2062 29.2309 48.4766 29.1838 48.4766C29.1368 48.4766 28.7841 48.1694 28.3843 47.8007C27.1145 46.5963 25.6566 46.0309 23.7989 46.0186C22.2352 46.0186 20.5186 46.5225 19.5545 47.2722C19.3546 47.432 19.284 47.3951 18.7902 46.8912C18.0965 46.1661 17.4734 46.0186 14.9926 46.0186C12.982 46.0186 12.9703 46.0186 12.8409 45.2444C12.7116 44.5438 11.7592 43.5115 11.0891 43.3271C10.513 43.1797 9.85453 43.1674 9.31369 43.3026ZM10.6658 44.9125C11.2772 45.2444 11.4888 45.6991 11.4888 46.6946V47.4934H14.1695C16.521 47.4934 16.8973 47.5303 17.3205 47.7269C17.7203 47.9113 17.8496 48.071 18.0142 48.5258C18.2611 49.1894 18.1906 49.6073 17.732 50.0743C17.4381 50.3816 17.3088 50.4307 16.2388 50.5045C15.6039 50.5536 14.3576 50.5782 13.4876 50.5413C12.6175 50.5045 11.8063 50.5045 11.7005 50.529C11.5123 50.5782 11.4888 50.7748 11.4888 52.5692C11.4888 54.9903 11.5711 55.3713 12.2295 55.8629C12.6881 56.207 12.7821 56.2316 13.5229 56.1947C14.2518 56.1578 14.3459 56.1087 14.7339 55.7154C15.0866 55.3467 15.1572 55.1623 15.263 54.4372C15.3218 53.9702 15.4511 53.454 15.5452 53.3066C15.9684 52.6429 16.8267 52.4217 17.4264 52.8272C17.8967 53.1591 18.0377 53.073 18.1318 52.4463C18.3434 50.9961 19.3076 49.3861 20.4833 48.5381C23.2463 46.5471 27.2086 47.6286 28.6665 50.7871C28.8899 51.2664 29.1251 51.6597 29.1838 51.6597C29.2544 51.6597 29.4895 51.2664 29.7129 50.7871C30.9239 48.1571 33.687 46.9035 36.3559 47.7884C37.9549 48.3168 39.0366 49.2632 39.7303 50.7503C40.1418 51.6228 40.4122 51.7457 40.5298 51.1067C40.6591 50.4799 41.247 49.4844 41.8231 48.9191C42.8695 47.899 44.1394 47.432 45.6326 47.518C47.7959 47.6532 49.4537 48.9436 50.1239 50.9838C50.2297 51.291 50.3708 51.5491 50.4531 51.5491C50.5354 51.5491 50.6765 51.3402 50.7588 51.0698C50.9705 50.3938 51.9816 49.0297 52.593 48.5872C53.5336 47.9113 54.3331 47.6163 55.6147 47.4811C56.8962 47.3459 57.6722 47.4074 58.2013 47.7023C58.5893 47.899 59.0243 48.8207 58.9185 49.1771C58.6011 50.1849 58.2483 50.3693 56.3907 50.443C55.0268 50.5045 54.8739 50.529 54.4272 50.8486C54.1567 51.0329 53.7923 51.4139 53.6159 51.6966C53.3102 52.1636 53.2867 52.2988 53.2867 53.3926C53.2867 54.511 53.3102 54.6093 53.6159 55.0394C53.804 55.2852 54.1685 55.6416 54.4389 55.826C54.8739 56.1332 55.0385 56.1578 56.3907 56.2193C58.1425 56.293 58.507 56.4405 58.8009 57.2148C59.0361 57.817 58.9185 58.3454 58.4482 58.8124C58.1778 59.0828 58.0249 59.1074 56.8962 59.1443C56.2143 59.1689 55.3442 59.132 54.9445 59.046C53.3572 58.7141 51.817 57.5835 51.1233 56.2316C50.5589 55.1009 50.4296 55.2115 50.3826 56.9075L50.3473 58.3331L49.9123 58.751C49.4067 59.218 48.9952 59.2795 48.3721 58.9722C47.6548 58.6158 47.6431 58.5666 47.5843 54.9042L47.5255 51.5491L47.0199 51.0329L46.5261 50.5045H45.4915C44.351 50.5045 43.8924 50.6765 43.5162 51.2664C43.3163 51.5737 43.2928 51.9301 43.234 54.9657L43.1752 58.3331L42.7402 58.751C42.2346 59.2303 41.7056 59.304 41.1059 58.9722C40.5651 58.6895 40.4122 58.1488 40.4122 56.588C40.4122 54.978 40.2947 54.8797 39.7303 56.0226C39.213 57.055 38.3076 58.0013 37.3553 58.4806C36.6263 58.8493 36.5205 58.8616 35.1214 58.8616H33.6517L32.6523 58.3577C31.4413 57.7432 30.7123 57.0058 30.0892 55.7645C29.6306 54.8182 29.419 54.6584 29.2897 55.1746C29.1838 55.6171 28.4078 56.8338 27.9023 57.3745C25.3039 60.0783 20.6361 59.2549 19.0019 55.7891C18.5668 54.8551 18.3434 54.7936 18.1318 55.5679C17.9437 56.2439 17.3441 57.2148 16.8267 57.6941C16.2153 58.2594 15.1454 58.7756 14.2518 58.9353C12.7469 59.2057 11.1361 58.6773 10.0662 57.5589C9.53708 57.0058 8.93745 55.7645 8.7846 54.8797C8.72581 54.5233 8.66703 52.3602 8.66703 50.0866C8.66703 45.4533 8.69054 45.2935 9.49005 44.888C10.0074 44.6053 10.1014 44.6176 10.6658 44.9125ZM83.7974 44.8511C84.3029 45.1215 84.6204 45.8589 84.6204 46.756V47.4934H87.3834C90.5226 47.4934 90.6755 47.5303 91.0282 48.3414C91.2986 48.9682 91.2046 49.6442 90.7931 50.062L90.4991 50.3816L87.548 50.4184L84.6086 50.4553L84.6439 52.7781L84.6792 55.1132L85.173 55.6294C85.655 56.1332 85.7021 56.1578 86.4193 56.1578C87.6891 56.1578 88.3005 55.4942 88.418 54.0317C88.5827 51.8932 91.2046 52.1636 91.2046 54.3266C91.2046 56.1578 90.1229 57.8784 88.4533 58.6895C87.1482 59.3286 85.7961 59.2918 84.444 58.5789C83.5622 58.1242 83.1507 57.7432 82.6686 56.9935C81.9279 55.826 81.7986 55.1623 81.7986 52.6306V50.4184L80.2701 50.4676C78.7887 50.5045 78.7416 50.5167 78.4242 50.8486L78.095 51.1804L78.0362 53.4909C77.9774 55.6908 77.9656 55.8137 77.6482 56.4896C77.0486 57.7678 75.9786 58.6773 74.6735 59.0091C73.9799 59.1934 73.8858 59.1934 73.3802 58.9845C72.7453 58.7264 72.3926 58.2225 72.3926 57.522C72.3926 56.8706 73.004 56.2193 73.6271 56.2193C74.168 56.2193 74.8264 55.8997 75.0145 55.5556C75.0968 55.3958 75.1791 54.4372 75.2144 53.0239C75.2849 50.7871 75.2967 50.738 75.6494 50.0129C76.1197 49.0788 76.8369 48.3168 77.6717 47.8867C78.2713 47.5794 78.483 47.5549 80.035 47.4934L81.7398 47.432L81.7986 46.5102C81.8339 46.0063 81.9279 45.4656 82.0102 45.3181C82.3512 44.679 83.1154 44.4824 83.7974 44.8511ZM67.4897 47.8498C69.03 48.4766 70.1704 49.6564 70.8288 51.3033C71.1345 52.0776 71.1463 52.1882 71.1933 54.9288C71.2286 56.7846 71.1933 57.903 71.111 58.1979C70.9699 58.6895 70.3938 59.1689 69.9353 59.1689C69.6531 59.1689 69.0417 58.8739 68.7243 58.5789C68.5361 58.4192 68.4538 58.4315 67.913 58.665C67.5838 58.8124 66.8783 59.0214 66.3257 59.1197C65.4557 59.2795 65.2558 59.2795 64.5739 59.1074C62.8573 58.7018 61.4816 57.6572 60.7057 56.1824C59.6475 54.1791 59.718 51.8932 60.882 50.1235C61.7168 48.8453 62.5281 48.2062 63.9272 47.7146C64.8208 47.4074 66.5374 47.4688 67.4897 47.8498ZM58.554 53.3188V54.7691L57.1667 54.7568C55.4265 54.7199 55.0738 54.5847 54.7446 53.835C54.4624 53.1714 54.533 52.815 55.0033 52.3357C55.3913 51.9424 56.1202 51.8195 57.7428 51.8441L58.554 51.8563V53.3188ZM87.4774 52.0038C87.5245 52.0407 87.4539 52.2496 87.3364 52.4586C87.207 52.6675 87.0659 53.1837 87.0189 53.6138C86.9013 54.7568 86.4428 55.0763 86.1606 54.2283C86.0195 53.8104 85.9842 52.1267 86.1136 52.0038C86.2076 51.8932 87.3834 51.8932 87.4774 52.0038Z" fill="#FF5555"/>
<path d="M22.9524 49.9637C22.6232 50.6396 22.3057 51.2541 22.2234 51.3156C22.1529 51.3893 21.565 51.5245 20.9301 51.6228C19.4604 51.8441 19.2488 51.8932 19.2488 52.0407C19.2488 52.1022 19.672 52.5815 20.2011 53.1099C20.7184 53.6261 21.2005 54.1546 21.2593 54.2652C21.3298 54.4004 21.2828 54.9411 21.13 55.8137C21.0006 56.5388 20.8948 57.1779 20.8948 57.2271C20.8948 57.4606 21.4474 57.2762 22.5173 56.7232L23.6578 56.121L24.7748 56.7232C25.8447 57.2885 26.5384 57.4729 26.5384 57.2025C26.5384 57.1287 26.4679 56.674 26.3738 56.1824C25.9976 54.1669 25.9153 54.4741 27.0792 53.2574C27.7024 52.5937 28.0786 52.1144 28.0316 52.0161C27.9963 51.8932 27.6083 51.7826 26.9264 51.6843C25.104 51.4139 25.3156 51.5614 24.5984 50.062C24.1399 49.1157 23.893 48.7224 23.7401 48.7224C23.5873 48.7224 23.3639 49.0788 22.9524 49.9637Z" fill="#FF5555"/>
<path d="M33.7928 50.6028C31.9468 51.2296 31.3355 53.8719 32.6876 55.3344C33.393 56.0964 33.6752 56.2193 34.7099 56.2193C35.3565 56.2193 35.721 56.1578 36.0384 55.9858C37.6257 55.1255 38.0607 52.9133 36.9203 51.4508C36.6969 51.1681 36.3559 50.8486 36.156 50.738C35.6975 50.4922 34.3571 50.4061 33.7928 50.6028Z" fill="#FF5555"/>
<path d="M64.6562 50.5659C63.3628 50.8854 62.5398 52.5446 62.8573 54.1669C62.9749 54.6953 63.1042 54.9288 63.551 55.3958C64.2211 56.0841 64.5504 56.2193 65.5262 56.2193C67.0782 56.2193 68.1011 55.3221 68.3245 53.749C68.5714 51.9424 67.3722 50.4307 65.6908 50.4553C65.3381 50.4676 64.8678 50.5167 64.6562 50.5659ZM65.9848 52.0899C66.4668 52.2988 66.8666 52.9256 66.8666 53.4663C66.8666 53.9333 66.3493 54.5601 65.8907 54.6953C65.2323 54.8551 64.5033 54.4126 64.2799 53.7121C64.1036 53.1468 64.3622 52.5077 64.8913 52.1636C65.3499 51.8686 65.4557 51.8686 65.9848 52.0899Z" fill="#FF5555"/>
</g>
<defs>
<clipPath id="clip0_836_64">
<rect width="86" height="22" fill="white" transform="translate(7 39)"/>
</clipPath>
</defs>
</svg>
