<svg width="100" height="100" viewBox="0 0 100 100" fill="none" xmlns="http://www.w3.org/2000/svg">
<path d="M44.6256 44.8479C44.6431 49.6563 44.6431 49.7045 44.735 50.0329C44.8971 50.6066 45.081 50.9307 45.4708 51.3204C45.7598 51.6138 45.8956 51.7102 46.2371 51.8766C46.9378 52.2182 47.6385 52.3802 48.637 52.424L49.215 52.4503V51.5744V50.6986L48.7246 50.6679C47.5947 50.5935 46.951 50.3701 46.6575 49.9497C46.4211 49.6037 46.4123 49.4636 46.443 47.1514L46.4692 45.0362L47.8531 45.0274L49.2369 45.0143V44.1165V43.2188L47.8487 43.2056L46.4561 43.1969V41.5984V40H45.5365H44.6124L44.6256 44.8479Z" fill="black"/>
<path d="M82.9004 44.8041C82.9223 49.1746 82.9311 49.6432 83.0012 49.9409C83.3603 51.4956 84.6346 52.2882 86.9775 52.4196L87.5337 52.4503V51.5438V50.6416H87.144C86.325 50.6416 85.5718 50.4621 85.1908 50.1687C85.0463 50.0592 84.9324 49.9191 84.8405 49.7483L84.7091 49.4899L84.7266 44.7428L84.7397 40H83.8113H82.8785L82.9004 44.8041Z" fill="black"/>
<path d="M24.5511 42.6495C23.1191 42.8553 21.8797 43.4684 20.8812 44.4669C19.966 45.3777 19.3616 46.5207 19.0989 47.8258C18.9806 48.4213 18.9894 49.8096 19.1208 50.4095C19.6769 52.967 21.5732 54.8545 24.1438 55.415C26.5042 55.923 29.0398 55.0078 30.577 53.0896C32.3681 50.8475 32.4075 47.4667 30.6645 45.1588C29.7142 43.8932 28.3304 43.0261 26.7538 42.7108C26.1889 42.5969 25.1116 42.5662 24.5511 42.6495ZM26.6181 43.4158C28.8909 43.88 30.7565 45.7806 31.1506 48.0316C31.2382 48.5396 31.2382 49.5906 31.1506 50.0986C31.0193 50.8431 30.6996 51.6182 30.2397 52.3058C29.9595 52.7262 29.1406 53.5451 28.7201 53.8254C26.8721 55.0603 24.6211 55.1786 22.7293 54.1363C21.2316 53.313 20.1674 51.8678 19.7996 50.1599C19.6901 49.6475 19.6901 48.4914 19.7996 47.9834C19.9616 47.2214 20.2725 46.4945 20.7148 45.8332C20.9995 45.404 21.814 44.5895 22.2388 44.3048C23.0096 43.7881 23.881 43.4552 24.7613 43.3326C25.2167 43.2669 26.0926 43.3063 26.6181 43.4158Z" fill="black"/>
<path d="M24.7131 45.4128C23.2942 45.7281 22.1512 46.8623 21.8228 48.2812C21.7177 48.741 21.722 49.4242 21.8403 49.9059C22.1687 51.2854 23.2592 52.3802 24.6386 52.7042C26.1407 53.0633 27.7523 52.4021 28.6238 51.0708C29.4383 49.8227 29.3814 48.071 28.488 46.8754C27.9888 46.2098 27.3538 45.7631 26.5305 45.496C26.0575 45.3427 25.2036 45.3033 24.7131 45.4128Z" fill="black"/>
<path d="M54.0322 43.2275C53.1607 43.3107 52.4995 43.4771 51.9521 43.7443C51.1638 44.1297 50.6908 44.6814 50.4543 45.496C50.3843 45.7325 50.3755 46.0741 50.3624 49.0957L50.3492 52.4371H51.247H52.1447L52.1579 49.3147C52.1754 45.9689 52.1666 46.0872 52.4031 45.7281C52.6746 45.3121 53.533 45.0362 54.549 45.0362H54.9519V44.1165V43.1969L54.5709 43.2056C54.3563 43.2056 54.1154 43.2188 54.0322 43.2275Z" fill="black"/>
<path d="M58.8933 43.2231C58.8319 43.2319 58.5911 43.2713 58.3546 43.3107C57.5532 43.4377 57.0233 43.6742 56.5898 44.0946C56.2788 44.3968 56.0818 44.7603 55.9548 45.2464C55.8584 45.623 55.8497 45.8288 55.9241 45.9033C55.9635 45.9427 56.2307 45.9558 56.8656 45.9558H57.7546L57.7765 45.8332C57.8203 45.6186 57.9473 45.4128 58.1006 45.3121C58.3896 45.115 58.6436 45.0712 59.5282 45.0493C60.7544 45.0186 61.1792 45.1237 61.3807 45.5179C61.4639 45.6799 61.4814 45.7631 61.4639 45.9646C61.4113 46.6083 61.0172 46.7922 59.572 46.8755C58.1488 46.9543 57.6802 47.055 57.0934 47.401C56.7737 47.5937 56.3139 48.0535 56.1737 48.3294C55.9066 48.8549 55.8102 49.5337 55.9153 50.1555C56.0642 51.0445 56.7255 51.7715 57.7021 52.1306C58.683 52.4853 60.2158 52.5335 61.3675 52.2401C62.3441 51.9948 63.001 51.443 63.2769 50.6416C63.3689 50.3745 63.3776 50.2431 63.4127 48.6272C63.4565 46.7047 63.4389 45.6186 63.3601 45.2551C63.1368 44.2348 62.366 43.5954 61.0391 43.3239C60.6362 43.2407 59.1779 43.1706 58.8933 43.2231ZM61.4683 49.2052C61.4551 49.8534 61.4464 49.9322 61.3588 50.0767C61.1223 50.4533 60.4917 50.6197 59.3794 50.5891C58.5473 50.5628 58.1707 50.4752 57.9605 50.2563C57.7371 50.0242 57.689 49.6037 57.8554 49.2841C58.0481 48.8987 58.4685 48.7761 59.8085 48.7104C60.3997 48.6841 60.8333 48.6403 61.061 48.5878C61.2537 48.544 61.4288 48.5045 61.4464 48.5002C61.4683 48.5002 61.477 48.8155 61.4683 49.2052Z" fill="black"/>
<path d="M63.5573 43.4684C63.6142 43.6216 64.0258 44.6683 64.4769 45.8025C64.928 46.9324 65.7119 48.9162 66.2242 50.2037L67.1526 52.5466L67.9891 52.5597C68.6328 52.5685 68.8299 52.5597 68.8474 52.5159C68.8606 52.4853 69.2678 51.4518 69.7495 50.2256C70.2356 48.995 70.6604 47.9308 70.6955 47.8608C70.8006 47.6287 72.5129 43.2801 72.5129 43.2363C72.5129 43.21 72.1231 43.2012 71.5407 43.2056L70.5728 43.2187L69.6663 45.5179C69.1671 46.7835 68.5847 48.2549 68.3745 48.7936C68.1642 49.3322 67.9891 49.7658 67.9803 49.757C67.9716 49.7482 67.8095 49.341 67.6168 48.8461C67.4241 48.3513 66.8636 46.9149 66.3687 45.6492C65.8739 44.3836 65.4535 43.3151 65.4403 43.2713C65.4097 43.2056 65.3221 43.1969 64.4287 43.1969H63.4521L63.5573 43.4684Z" fill="black"/>
<path d="M76.4103 43.245C75.7359 43.3151 75.0921 43.5165 74.5798 43.8143C74.2601 44.007 73.6733 44.5938 73.4806 44.9179C72.9726 45.7806 72.7449 47.0681 72.8587 48.4301C72.9507 49.4986 73.1609 50.2212 73.5594 50.8255C74.0761 51.6007 74.8119 52.0824 75.8629 52.3189C76.2308 52.4021 76.4322 52.4108 78.8539 52.424L81.4465 52.4415L81.4377 51.5525L81.4246 50.6635L78.9065 50.6416C76.441 50.6197 76.384 50.6153 76.0994 50.519C75.3461 50.265 74.8206 49.6475 74.7155 48.9074L74.6892 48.7147H78.07H81.4465V48.0578C81.4465 47.2652 81.3808 46.6346 81.2494 46.1047C81.0392 45.2726 80.7983 44.8259 80.2597 44.2873C79.9356 43.9588 79.8261 43.8756 79.4276 43.683C78.5912 43.2757 77.5664 43.1268 76.4103 43.245ZM78.1795 45.1631C78.8802 45.4128 79.2787 45.8419 79.4933 46.5645C79.5327 46.6959 79.5634 46.8316 79.5634 46.8623C79.5634 46.9105 79.1167 46.9192 77.1329 46.9192C75.7972 46.9192 74.7024 46.9017 74.7024 46.8842C74.7024 46.7747 74.8513 46.3149 74.9476 46.1222C75.0965 45.8288 75.4337 45.4741 75.7052 45.3252C76.1256 45.0975 76.4847 45.0361 77.2424 45.0537C77.7985 45.0668 77.9693 45.0843 78.1795 45.1631Z" fill="black"/>
<path d="M12.0876 50.738C12.9109 54.6049 16.4537 58.047 20.9425 59.3345C24.205 60.2716 27.4282 60.2191 30.6338 59.1768C33.5241 58.2397 35.9984 56.4179 37.5837 54.0662C38.28 53.0327 38.7398 51.9116 39.0727 50.4533L39.0989 50.3351H38.7136C38.3676 50.3351 38.315 50.3438 38.2362 50.4314C38.188 50.4883 38.0479 50.8474 37.9209 51.2328C37.1064 53.7728 35.4466 55.7041 32.7621 57.2456C30.4499 58.5681 27.6559 59.2075 24.8619 59.0498C22.554 58.9228 20.8549 58.5068 19.0638 57.6266C17.75 56.9828 16.7209 56.2734 15.7706 55.3537C14.4655 54.0925 13.5897 52.6824 13.0817 51.0139C12.9678 50.6329 12.8496 50.3964 12.7576 50.3613C12.7182 50.3482 12.5299 50.3351 12.3416 50.3351H12L12.0876 50.738Z" fill="black"/>
<path d="M46.2232 56.0165C46.4044 55.832 46.6239 55.6969 46.8818 55.6112C47.1466 55.5189 47.3906 55.4728 47.6136 55.4728C47.9969 55.4728 48.3419 55.5288 48.6486 55.6409C48.9622 55.7529 49.2271 55.9077 49.4431 56.1054C49.6662 56.3031 49.8369 56.5404 49.9554 56.8171C50.0739 57.0939 50.1331 57.4003 50.1331 57.7364C50.1331 58.0857 50.0669 58.3987 49.9345 58.6755C49.8021 58.9522 49.6209 59.1895 49.3909 59.3872C49.1609 59.5848 48.8891 59.7364 48.5754 59.8418C48.2688 59.9473 47.9342 60 47.5718 60C47.2024 60 46.8609 59.9473 46.5473 59.8418C46.2336 59.7364 45.9618 59.5815 45.7318 59.3773C45.5018 59.173 45.3206 58.9193 45.1882 58.6161C45.0627 58.313 45 57.9605 45 57.5585V54.1582H46.2232V56.0165ZM48.8891 57.7364C48.8891 57.5453 48.8542 57.3773 48.7845 57.2323C48.7148 57.0807 48.6207 56.9555 48.5022 56.8567C48.3838 56.7512 48.2444 56.6722 48.0841 56.6194C47.9238 56.5667 47.753 56.5404 47.5718 56.5404C47.3836 56.5404 47.2094 56.5667 47.0491 56.6194C46.8888 56.6656 46.7459 56.7381 46.6204 56.8369C46.502 56.9357 46.4079 57.061 46.3382 57.2125C46.2685 57.3641 46.2336 57.5387 46.2336 57.7364C46.2336 57.9143 46.2685 58.0791 46.3382 58.2306C46.4079 58.3756 46.502 58.5008 46.6204 58.6063C46.7459 58.7051 46.8888 58.7842 47.0491 58.8435C47.2094 58.9028 47.3836 58.9325 47.5718 58.9325C47.753 58.9325 47.9238 58.9061 48.0841 58.8534C48.2444 58.8007 48.3838 58.7249 48.5022 58.626C48.6207 58.5206 48.7148 58.3954 48.7845 58.2504C48.8542 58.0988 48.8891 57.9275 48.8891 57.7364Z" fill="black"/>
<path d="M50.8043 57.7364C50.8043 57.4003 50.867 57.0939 50.9924 56.8171C51.1249 56.5404 51.3061 56.3031 51.5361 56.1054C51.7661 55.9012 52.0379 55.7463 52.3515 55.6409C52.6652 55.5288 53.0067 55.4728 53.3761 55.4728C53.7455 55.4728 54.087 55.5288 54.4006 55.6409C54.7142 55.7463 54.986 55.9012 55.216 56.1054C55.446 56.3031 55.6238 56.5404 55.7492 56.8171C55.8816 57.0939 55.9479 57.4003 55.9479 57.7364C55.9479 58.0725 55.8816 58.3789 55.7492 58.6557C55.6238 58.9325 55.446 59.173 55.216 59.3773C54.986 59.575 54.7142 59.7298 54.4006 59.8418C54.087 59.9473 53.7455 60 53.3761 60C53.0067 60 52.6652 59.9473 52.3515 59.8418C52.0379 59.7298 51.7661 59.575 51.5361 59.3773C51.3061 59.173 51.1249 58.9325 50.9924 58.6557C50.867 58.3789 50.8043 58.0725 50.8043 57.7364ZM54.7038 57.7364C54.7038 57.3608 54.5748 57.0675 54.317 56.8567C54.0661 56.6458 53.7524 56.5404 53.3761 56.5404C53.1879 56.5404 53.0136 56.5667 52.8533 56.6194C52.693 56.6722 52.5536 56.7512 52.4352 56.8567C52.3167 56.9555 52.2226 57.0807 52.1529 57.2323C52.0832 57.3773 52.0483 57.5453 52.0483 57.7364C52.0483 57.9275 52.0832 58.0988 52.1529 58.2504C52.2226 58.3954 52.3167 58.5206 52.4352 58.626C52.5536 58.7249 52.693 58.8007 52.8533 58.8534C53.0136 58.9061 53.1879 58.9325 53.3761 58.9325C53.7524 58.9325 54.0661 58.827 54.317 58.6161C54.5748 58.4053 54.7038 58.112 54.7038 57.7364Z" fill="black"/>
<path d="M59.9908 59.911C59.8932 59.5157 59.7399 59.1697 59.5308 58.8731C59.3217 58.57 59.0499 58.346 58.7153 58.201C58.3808 58.346 58.109 58.57 57.8999 58.8731C57.6908 59.1697 57.541 59.5157 57.4504 59.911H56.2063C56.2969 59.4102 56.4572 58.9786 56.6872 58.6161C56.9172 58.2471 57.2134 57.9473 57.5758 57.7166C57.2413 57.486 56.959 57.2026 56.729 56.8666C56.506 56.5239 56.3561 56.089 56.2795 55.5618H57.5131C57.541 55.7529 57.5898 55.9374 57.6594 56.1153C57.7291 56.2932 57.8163 56.458 57.9208 56.6096C58.0254 56.7545 58.1438 56.883 58.2763 56.9951C58.4087 57.1005 58.555 57.173 58.7153 57.2125C58.8617 57.1664 59.0011 57.0873 59.1335 56.9753C59.2729 56.8633 59.3949 56.7348 59.4994 56.5898C59.604 56.4382 59.6911 56.2735 59.7608 56.0956C59.8375 55.9176 59.8932 55.7397 59.9281 55.5618H61.1512C61.0815 56.0956 60.9317 56.5305 60.7017 56.8666C60.4717 57.2026 60.1894 57.4893 59.8549 57.7265C60.2312 57.9572 60.5309 58.2537 60.754 58.6161C60.984 58.972 61.1443 59.4036 61.2349 59.911H59.9908Z" fill="black"/>
<path d="M63.0892 56.0165C63.2704 55.832 63.4899 55.6969 63.7478 55.6112C64.0126 55.5189 64.2566 55.4728 64.4796 55.4728C64.8629 55.4728 65.2079 55.5288 65.5146 55.6409C65.8282 55.7529 66.0931 55.9077 66.3091 56.1054C66.5322 56.3031 66.7029 56.5404 66.8214 56.8171C66.9399 57.0939 66.9991 57.4003 66.9991 57.7364C66.9991 58.0857 66.9329 58.3987 66.8005 58.6755C66.6681 58.9522 66.4869 59.1895 66.2569 59.3872C66.0269 59.5848 65.755 59.7364 65.4414 59.8418C65.1347 59.9473 64.8002 60 64.4378 60C64.0684 60 63.7269 59.9473 63.4132 59.8418C63.0996 59.7364 62.8278 59.5815 62.5978 59.3773C62.3678 59.173 62.1866 58.9193 62.0542 58.6161C61.9287 58.313 61.866 57.9605 61.866 57.5585V54.1582H63.0892V56.0165ZM65.755 57.7364C65.755 57.5453 65.7202 57.3773 65.6505 57.2323C65.5808 57.0807 65.4867 56.9555 65.3682 56.8567C65.2497 56.7512 65.1103 56.6722 64.95 56.6194C64.7897 56.5667 64.619 56.5404 64.4378 56.5404C64.2496 56.5404 64.0754 56.5667 63.9151 56.6194C63.7548 56.6656 63.6119 56.7381 63.4864 56.8369C63.3679 56.9357 63.2738 57.061 63.2042 57.2125C63.1345 57.3641 63.0996 57.5387 63.0996 57.7364C63.0996 57.9143 63.1345 58.0791 63.2042 58.2306C63.2738 58.3756 63.3679 58.5008 63.4864 58.6063C63.6119 58.7051 63.7548 58.7842 63.9151 58.8435C64.0754 58.9028 64.2496 58.9325 64.4378 58.9325C64.619 58.9325 64.7897 58.9061 64.95 58.8534C65.1103 58.8007 65.2497 58.7249 65.3682 58.626C65.4867 58.5206 65.5808 58.3954 65.6505 58.2504C65.7202 58.0988 65.755 57.9275 65.755 57.7364Z" fill="black"/>
<path d="M70.1098 55.4728C70.3537 55.4728 70.6012 55.4992 70.8521 55.5519C71.11 55.6046 71.3295 55.687 71.5107 55.799L71.0193 56.7776C70.7475 56.6194 70.4478 56.5404 70.1203 56.5404C69.7439 56.5404 69.4547 56.6557 69.2525 56.8863C69.0504 57.1104 68.9494 57.4267 68.9494 57.8353V59.911H67.7262V57.8649C67.7262 57.5025 67.7785 57.1763 67.883 56.8863C67.9876 56.5898 68.1409 56.3394 68.343 56.1351C68.5451 55.9242 68.7925 55.7628 69.0853 55.6507C69.385 55.5321 69.7265 55.4728 70.1098 55.4728Z" fill="black"/>
<path d="M75.3273 59.4563C75.2437 59.5486 75.1461 59.6277 75.0346 59.6936C74.9231 59.7595 74.8046 59.8155 74.6791 59.8616C74.5537 59.9077 74.4248 59.9407 74.2923 59.9605C74.1669 59.9868 74.0484 60 73.9369 60C73.5605 60 73.2155 59.9473 72.9019 59.8418C72.5952 59.7298 72.3304 59.575 72.1073 59.3773C71.8843 59.173 71.7101 58.9325 71.5846 58.6557C71.4661 58.3789 71.4069 58.0725 71.4069 57.7364C71.4069 57.3937 71.4731 57.084 71.6055 56.8072C71.738 56.5239 71.9192 56.2834 72.1492 56.0857C72.3792 55.888 72.6475 55.7364 72.9542 55.631C73.2678 55.5255 73.6058 55.4728 73.9682 55.4728C74.3446 55.4728 74.6896 55.5255 75.0032 55.631C75.3238 55.7364 75.5957 55.8913 75.8187 56.0956C76.0487 56.2998 76.2264 56.5535 76.3519 56.8567C76.4773 57.1598 76.54 57.5091 76.54 57.9044V59.911H75.3273V59.4563ZM72.651 57.7364C72.651 57.9275 72.6858 58.0988 72.7555 58.2504C72.8252 58.3954 72.9193 58.5206 73.0378 58.626C73.1563 58.7249 73.2957 58.8007 73.456 58.8534C73.6163 58.9061 73.787 58.9325 73.9682 58.9325C74.1564 58.9325 74.3307 58.9094 74.491 58.8633C74.6513 58.8105 74.7907 58.7348 74.9091 58.6359C75.0346 58.5371 75.1322 58.4119 75.2019 58.2603C75.2716 58.1087 75.3064 57.9341 75.3064 57.7364C75.3064 57.5585 75.2716 57.397 75.2019 57.2521C75.1322 57.1005 75.0346 56.9753 74.9091 56.8764C74.7907 56.771 74.6513 56.6886 74.491 56.6293C74.3307 56.57 74.1564 56.5404 73.9682 56.5404C73.787 56.5404 73.6163 56.5667 73.456 56.6194C73.2957 56.6722 73.1563 56.7512 73.0378 56.8567C72.9193 56.9555 72.8252 57.0807 72.7555 57.2323C72.6858 57.3773 72.651 57.5453 72.651 57.7364Z" fill="black"/>
<path d="M77.3717 58.7249C77.3717 58.4481 77.4309 58.2241 77.5494 58.0527C77.6679 57.8814 77.8212 57.743 78.0094 57.6376C78.1976 57.5321 78.4066 57.453 78.6366 57.4003C78.8666 57.341 79.0966 57.2883 79.3266 57.2422L79.6612 57.173C79.9539 57.1137 80.1944 57.0577 80.3825 57.0049C80.5707 56.9522 80.6648 56.8731 80.6648 56.7677C80.6648 56.715 80.6404 56.6787 80.5916 56.659C80.5498 56.6326 80.4941 56.6194 80.4244 56.6194H77.6644V55.5618H80.4871C80.9331 55.5618 81.2781 55.6573 81.5221 55.8484C81.766 56.0329 81.888 56.2998 81.888 56.6491C81.888 56.9127 81.8322 57.1334 81.7207 57.3114C81.6162 57.4827 81.4768 57.6244 81.3025 57.7364C81.1283 57.8484 80.9262 57.9407 80.6962 58.0132C80.4731 58.0791 80.2431 58.1351 80.0062 58.1812L79.6716 58.2504C79.365 58.3163 79.1071 58.3756 78.898 58.4283C78.6959 58.4811 78.5948 58.57 78.5948 58.6952C78.5948 58.7941 78.6715 58.8435 78.8248 58.8435H81.8671V59.911H78.898C78.4101 59.911 78.0338 59.8122 77.7689 59.6145C77.5041 59.4102 77.3717 59.1137 77.3717 58.7249Z" fill="black"/>
<path d="M84.0503 55.5618V59.911H82.8272V55.5618H84.0503ZM84.0503 54V54.9885H82.8272V54H84.0503Z" fill="black"/>
<path d="M88 59.8023C87.8397 59.8682 87.662 59.9176 87.4668 59.9506C87.2786 59.9835 87.1044 60 86.9441 60C86.5677 60 86.2541 59.9539 86.0032 59.8616C85.7593 59.7628 85.5641 59.6277 85.4177 59.4563C85.2714 59.2784 85.1668 59.0675 85.1041 58.8237C85.0484 58.5733 85.0205 58.2965 85.0205 57.9934V54.1582H86.2437V57.9539C86.2437 58.2702 86.2959 58.514 86.4005 58.6853C86.505 58.8501 86.6793 58.9325 86.9232 58.9325C87.0417 58.9325 87.1602 58.9259 87.2786 58.9127C87.4041 58.8929 87.5261 58.86 87.6445 58.8138L88 59.8023Z" fill="black"/>
</svg>
