<svg width="100" height="100" viewBox="0 0 100 100" fill="none" xmlns="http://www.w3.org/2000/svg">
<path d="M76.9939 35C71.3368 35 66.7366 39.5847 66.7366 45.2417C66.7366 50.8988 71.3213 55.4835 76.9939 55.4835C82.6509 55.4835 87.2356 50.8988 87.2356 45.2417C87.2356 39.5847 82.6509 35 76.9939 35Z" fill="#1D1C68"/>
<path d="M15.9163 35.513V41.6518H12V47.4331H15.9163V63.6737H23.485V47.4331H27.4015V41.6518H23.485V35.513L15.9163 35.513V35.513ZM28.4894 41.6518V63.6894H36.058L36.0736 53.7274C36.0736 50.6347 37.7209 49.2982 41.7617 49.2982H42.9584V41.652H42.1036C39.244 41.652 37.0993 42.5375 35.483 45.366V41.652H28.4894V41.6518ZM44.0618 41.6518V55.872C44.0618 61.0006 47.4653 64.0001 52.221 64.0001C54.0393 64.0001 57.1942 63.6116 58.7017 60.4256V63.7048H65.6953V41.6517L58.1578 41.6518V53.1523C58.1578 54.9551 57.2875 56.9443 54.8475 56.9443C52.3298 56.9443 51.5372 54.8929 51.5372 53.1833L51.5527 41.6518H44.0618Z" fill="#1D1C68"/>
<path d="M70.6219 41.6518L70.3111 43.3923H72.5024L71.4767 49.298H73.4971L74.5228 43.3923H76.6053L76.9006 41.6518H70.6219ZM77.3669 41.6518L78.1439 49.298H80.3974L84.5314 41.6518H82.4023L79.7291 46.8269L79.3251 41.6518H77.3669Z" fill="#C8DE47"/>
</svg>
