<svg width="100" height="100" viewBox="0 0 100 100" fill="none" xmlns="http://www.w3.org/2000/svg">
<path d="M10 23H35.32V61.721H10V23Z" fill="#D7373A"/>
<path d="M37.73 23H63.053V61.721H37.73V23Z" fill="#D7373A"/>
<path d="M65.46 23H90.788V61.721H65.46V23Z" fill="#D7373A"/>
<path d="M29.696 33.675H14.918C14.8357 33.675 14.7566 33.7074 14.6981 33.7652C14.6395 33.8231 14.606 33.9017 14.605 33.984V36.904C14.6055 36.9867 14.6387 37.0659 14.6973 37.1244C14.7559 37.1828 14.8352 37.2157 14.918 37.216H19.295C19.4699 37.2151 19.6432 37.2487 19.805 37.3151C19.9668 37.3814 20.1139 37.4791 20.2378 37.6026C20.3617 37.726 20.46 37.8727 20.527 38.0343C20.5939 38.1959 20.6282 38.3691 20.628 38.544V51.731C20.6278 51.7721 20.6359 51.8128 20.6516 51.8508C20.6672 51.8887 20.6903 51.9232 20.7194 51.9523C20.7485 51.9813 20.7831 52.0042 20.8211 52.0198C20.8591 52.0354 20.8999 52.0432 20.941 52.043H23.861C23.902 52.0431 23.9426 52.0351 23.9805 52.0195C24.0184 52.0039 24.0529 51.9809 24.0819 51.9519C24.1109 51.9229 24.1339 51.8884 24.1495 51.8505C24.1651 51.8126 24.1731 51.772 24.173 51.731V38.544C24.1728 38.3696 24.2071 38.1969 24.2737 38.0357C24.3403 37.8745 24.438 37.7281 24.5612 37.6047C24.6845 37.4812 24.8308 37.3833 24.9919 37.3165C25.1529 37.2496 25.3256 37.2151 25.5 37.215H29.7C29.7832 37.2153 29.8631 37.1826 29.9223 37.1241C29.9815 37.0657 30.0152 36.9862 30.016 36.903V33.984C30.0153 33.9427 30.0065 33.9019 29.9901 33.864C29.9736 33.826 29.9499 33.7918 29.9201 33.763C29.8904 33.7343 29.8553 33.7118 29.8168 33.6967C29.7784 33.6816 29.7373 33.6742 29.696 33.675" fill="white"/>
<path d="M55.728 48.501H50.342C49.8911 48.501 49.4587 48.3219 49.1399 48.0031C48.8211 47.6843 48.642 47.2519 48.642 46.801V33.985C48.6418 33.9441 48.6336 33.9037 48.6179 33.8661C48.6021 33.8284 48.5791 33.7942 48.5502 33.7654C48.5212 33.7366 48.4868 33.7138 48.449 33.6983C48.4113 33.6828 48.3708 33.6749 48.33 33.675H45.414C45.3315 33.675 45.2523 33.7075 45.1937 33.7656C45.1351 33.8237 45.1017 33.9025 45.101 33.985V47.931C45.101 50.258 46.31 52.048 49.101 52.048H55.722C55.763 52.048 55.8037 52.0398 55.8417 52.024C55.8796 52.0082 55.914 51.985 55.9429 51.9558C55.9718 51.9266 55.9947 51.892 56.0101 51.8539C56.0256 51.8158 56.0333 51.7751 56.033 51.734V48.82C56.0332 48.7789 56.0254 48.7381 56.0099 48.7001C55.9944 48.662 55.9716 48.6273 55.9427 48.5981C55.9138 48.5688 55.8795 48.5455 55.8416 48.5296C55.8037 48.5136 55.7631 48.5052 55.722 48.505" fill="white"/>
<path d="M85.155 49.185L83.09 47.127C83.0284 47.0693 82.9473 47.0373 82.863 47.0373C82.7786 47.0373 82.6975 47.0693 82.636 47.127V47.127C81.5913 48.0626 80.2384 48.5803 78.836 48.581C77.3213 48.5805 75.8687 47.9789 74.7972 46.9083C73.7257 45.8377 73.1228 44.3857 73.121 42.871C73.1212 42.1208 73.2693 41.3781 73.5566 40.6852C73.844 39.9923 74.2651 39.3627 74.7958 38.8326C75.3265 38.3024 75.9565 37.882 76.6497 37.5954C77.3429 37.3087 78.0858 37.1615 78.836 37.162C80.238 37.1619 81.5908 37.6784 82.636 38.613V38.613C82.697 38.6715 82.7784 38.7042 82.863 38.7042C82.9476 38.7042 83.0289 38.6715 83.09 38.613L85.155 36.548C85.2068 36.4925 85.2369 36.4203 85.2398 36.3445C85.2428 36.2686 85.2183 36.1943 85.171 36.135C83.4592 34.5153 81.1915 33.6138 78.835 33.616C77.6195 33.6159 76.416 33.8552 75.2931 34.3202C74.1701 34.7853 73.1498 35.467 72.2904 36.3264C71.431 37.1859 70.7492 38.2062 70.2842 39.3291C69.8191 40.452 69.5798 41.6556 69.58 42.871C69.581 45.3248 70.5566 47.6777 72.2922 49.4123C74.0277 51.1469 76.3812 52.1213 78.835 52.121C81.191 52.1233 83.4584 51.2229 85.171 49.605C85.2186 49.5462 85.2432 49.4721 85.2403 49.3965C85.2373 49.3209 85.207 49.2489 85.155 49.194" fill="white"/>
<path d="M70.173 66.775H70.673V69.936H75.009V66.775H75.509V73.583H75.009V70.393H70.673V73.583H70.173V66.775Z" fill="#9B9B9C"/>
<path d="M79.7769 73.125C80.2133 73.1313 80.6469 73.0536 81.0539 72.896C81.4151 72.7555 81.7441 72.5432 82.0209 72.272C82.286 72.0075 82.4948 71.6922 82.6349 71.345C82.782 70.9806 82.8561 70.5909 82.8529 70.198V70.174C82.8549 69.7831 82.7809 69.3956 82.6349 69.033C82.495 68.6827 82.2862 68.3641 82.0209 68.096C81.7446 67.8214 81.4157 67.6054 81.0539 67.461C80.6477 67.3001 80.2138 67.2206 79.7769 67.227H78.0269V73.121L79.7769 73.125ZM77.5239 66.774H79.7769C80.2741 66.7684 80.7679 66.8559 81.2329 67.032C81.6566 67.1928 82.0444 67.4358 82.3739 67.747C82.692 68.0505 82.9439 68.4165 83.1139 68.822C83.2904 69.2454 83.3792 69.7002 83.3749 70.159V70.179C83.379 70.6393 83.2902 71.0957 83.1139 71.521C82.945 71.9285 82.693 72.2963 82.3739 72.601C82.0439 72.9127 81.6564 73.1572 81.2329 73.321C80.7687 73.5001 80.2745 73.5894 79.7769 73.584H77.5239V66.774Z" fill="#9B9B9C"/>
<path d="M66.0029 68.7052L67.1754 72.4615L68.4311 68.7052H69.6C69.6 68.7052 67.4534 74.5207 67.1754 75.1148C66.9177 75.6575 66.8339 75.7641 66.4576 76.0129C66.2347 76.1619 65.656 76.1846 65.214 76.1873L64.8358 76.1871V75.2257C65.0629 75.242 65.6572 75.2533 65.9154 75.1155C66.2166 74.8887 66.547 74.0078 66.6046 73.8496L66.6134 73.8251L66.6266 73.7932L64.8064 68.7052H66.0029ZM58.2611 68.5986C58.6511 68.5986 58.9926 68.6713 59.2844 68.8224C59.5785 68.9703 59.823 69.1708 60.0177 69.4234C60.2124 69.6753 60.3598 69.9679 60.4592 70.3007C60.5569 70.6347 60.6066 70.9863 60.6066 71.3548C60.6066 71.4055 60.6048 71.4594 60.603 71.5133C60.5994 71.571 60.5934 71.6255 60.5886 71.6838H56.9885C57.0508 72.1049 57.2102 72.4258 57.4672 72.6514C57.7255 72.8726 58.034 72.9841 58.3995 72.9841C58.6804 72.9841 58.9183 72.9321 59.1238 72.83C59.3257 72.7266 59.527 72.573 59.7253 72.3737L60.3861 72.9841C60.1507 73.2743 59.8685 73.5099 59.5462 73.6822C59.2209 73.8571 58.832 73.9461 58.3815 73.9461C58.0286 73.9461 57.6985 73.8803 57.3905 73.7524C57.0862 73.6221 56.8196 73.4391 56.5937 73.206C56.3696 72.9754 56.1899 72.6946 56.0617 72.3687C55.9311 72.0435 55.8682 71.68 55.8682 71.2871V71.2683C55.8682 70.8992 55.9263 70.5514 56.0431 70.228C56.1618 69.904 56.3259 69.6226 56.5416 69.3801C56.7537 69.1363 57.0047 68.9465 57.2953 68.808C57.5853 68.6701 57.9094 68.5986 58.2611 68.5986ZM48.0772 68.5986C48.4559 68.5986 48.804 68.6701 49.1227 68.808C49.4396 68.9465 49.7158 69.1363 49.9471 69.3801C50.1813 69.6226 50.3617 69.904 50.4887 70.223C50.6211 70.5445 50.6852 70.8879 50.6852 71.2564V71.2764C50.6852 71.6399 50.6187 71.9821 50.4845 72.3042C50.3527 72.6282 50.1688 72.9121 49.9387 73.1546C49.7056 73.3959 49.4276 73.5889 49.1083 73.733C48.7878 73.8734 48.4361 73.9461 48.0593 73.9461C47.6884 73.9461 47.3427 73.8746 47.0252 73.7355C46.7058 73.5983 46.4308 73.409 46.199 73.1684C45.9683 72.929 45.7868 72.6501 45.6562 72.3255C45.5268 72.0009 45.4621 71.6587 45.4621 71.2959V71.2764C45.4621 70.9073 45.528 70.5608 45.6604 70.238C45.7946 69.9166 45.9779 69.6333 46.2104 69.3889C46.441 69.1451 46.7166 68.9546 47.036 68.8111C47.3535 68.6701 47.701 68.5986 48.0772 68.5986ZM43.1998 68.5986C44.0329 68.5986 44.583 68.89 45.0162 69.327L45.1565 69.4779L44.4592 70.2662C44.1153 69.8858 43.7546 69.6251 43.1902 69.6251C42.3718 69.6251 41.7805 70.3627 41.7805 71.2645C41.7805 72.187 42.382 72.9227 43.2453 72.9227C43.7082 72.9227 44.0642 72.7231 44.382 72.4201L44.5161 72.2841L45.1937 72.9823C44.7126 73.5444 44.144 73.9417 43.1902 73.9417C41.7326 73.9417 40.6589 72.7491 40.6589 71.2858C40.6589 69.8188 41.7326 68.5986 43.1998 68.5986ZM38.2409 68.6168C38.5512 68.6168 38.864 68.6701 39.1797 68.7735C39.4174 68.8496 39.6369 68.9505 39.8415 69.0717L40.0412 69.1996L39.5955 70.0356C39.3612 69.8858 39.1234 69.7661 38.8819 69.6797C38.6393 69.5932 38.4176 69.5506 38.2163 69.5506C37.9964 69.5506 37.8293 69.5976 37.7089 69.6928C37.6186 69.7671 37.5629 69.8558 37.5408 69.9579L37.5297 70.0644V70.0832C37.5297 70.1741 37.5603 70.2543 37.6202 70.3189C37.6807 70.3897 37.764 70.4511 37.867 70.5044C37.9677 70.5589 38.0845 70.6103 38.2187 70.6548C38.3505 70.7018 38.4877 70.7507 38.6315 70.8014C38.8119 70.8591 38.991 70.9249 39.1695 71.0045C39.3511 71.0822 39.511 71.1787 39.656 71.2915C39.8016 71.4037 39.9202 71.5403 40.0137 71.7032C40.0842 71.824 40.1282 71.9649 40.1457 72.1267L40.1545 72.2954V72.3161C40.1545 72.5849 40.1077 72.8218 40.0137 73.023C39.9202 73.2248 39.792 73.3908 39.6314 73.5224C39.4637 73.6534 39.2732 73.7549 39.0497 73.8251C38.8268 73.8909 38.586 73.9248 38.3356 73.9248C37.9815 73.9248 37.6244 73.8602 37.2643 73.733C36.9925 73.6352 36.7355 73.5036 36.4938 73.3374L36.2572 73.1596L36.7581 72.3631C37.0247 72.5699 37.2925 72.7266 37.5693 72.8331C37.8437 72.9415 38.1085 72.996 38.3625 72.996C38.604 72.996 38.7909 72.9428 38.9233 72.8431C39.0244 72.7684 39.0864 72.6739 39.1111 72.5602L39.1234 72.4402V72.4226C39.1234 72.3255 39.0952 72.2403 39.0365 72.1688C38.9754 72.098 38.8969 72.0347 38.7921 71.9802C38.6908 71.9257 38.5764 71.8774 38.4416 71.8348C38.3092 71.7916 38.169 71.7496 38.0282 71.7032C37.8479 71.6524 37.6687 71.5904 37.4866 71.5183C37.3027 71.4488 37.1397 71.3554 36.9941 71.2426C36.8479 71.1304 36.7311 70.9894 36.6376 70.8208C36.5671 70.6939 36.5239 70.5462 36.5066 70.3762L36.4981 70.1986V70.1804C36.4981 69.9366 36.5424 69.7154 36.6329 69.5255C36.7197 69.3337 36.8455 69.1708 37.0037 69.0354C37.1619 68.9001 37.3458 68.7961 37.5603 68.7246C37.7742 68.6544 38.0012 68.6168 38.2409 68.6168ZM51.9368 68.7052L53.253 72.4715L54.5795 68.7052H55.7597L53.7545 73.8671H52.7444L50.7289 68.7052H51.9368ZM26.59 68.4189C28.0213 68.4189 29.18 69.6334 29.18 71.1287C29.18 72.6239 28.0213 73.8359 26.59 73.8359C25.1605 73.8359 24 72.6239 24 71.1287C24 69.6334 25.1605 68.4189 26.59 68.4189ZM35.4909 68.7052V73.8295H34.3694V68.7052H35.4909ZM62.5681 68.7052V69.5518C62.9388 69.0715 63.5108 68.8593 63.9125 68.7664L64.0731 68.7334L64.4566 69.7135C63.9695 69.7893 63.0271 70.0525 62.6886 70.9863C62.6216 71.1719 62.5873 71.3876 62.5744 71.6289L62.5681 71.8787V73.8295H61.4466V68.7052H62.5681ZM30.269 67C32.3108 67 33.7193 68.4639 33.7193 70.3847C33.7193 72.3042 32.3108 73.7875 30.269 73.7875H28.2967C28.6963 73.5112 29.0276 73.1395 29.2655 72.7034H30.269C31.632 72.7034 32.5241 71.7427 32.5241 70.4035C32.5241 69.0655 31.632 68.0873 30.269 68.0873H28.9917V69.0837C28.8036 68.8418 28.5831 68.6225 28.338 68.4457C28.1853 68.3336 28.0217 68.2396 27.8516 68.1619V67H30.269ZM48.0593 69.6283C47.8358 69.6283 47.6345 69.6684 47.4517 69.7561C47.269 69.8451 47.1127 69.9623 46.9838 70.1083C46.8544 70.2543 46.7538 70.4248 46.6861 70.6203C46.6178 70.8202 46.5842 71.0308 46.5842 71.2564V71.2764C46.5842 71.4977 46.622 71.7082 46.6963 71.9075C46.7688 72.1099 46.8742 72.2841 47.0066 72.4364C47.1396 72.5893 47.2972 72.7084 47.4775 72.7949C47.662 72.882 47.8621 72.9271 48.0772 72.9271C48.3055 72.9271 48.5116 72.882 48.6955 72.7949C48.8771 72.7084 49.0334 72.5893 49.1634 72.4402C49.294 72.2935 49.3911 72.1181 49.4594 71.9213C49.5271 71.7233 49.5619 71.5158 49.5619 71.2959V71.2764C49.5619 71.0502 49.5229 70.8365 49.4504 70.6366C49.3767 70.4354 49.2713 70.2606 49.1419 70.114C49.0065 69.9623 48.8489 69.8451 48.668 69.7561C48.4858 69.6684 48.2821 69.6283 48.0593 69.6283ZM58.2503 69.56C57.9046 69.56 57.6206 69.6828 57.3905 69.9328C57.1665 70.1829 57.0287 70.3847 56.9795 70.7839H59.4935C59.4749 70.5965 59.4365 70.5445 59.3742 70.3784C59.3107 70.2148 59.2268 70.0676 59.1238 69.9466C59.0178 69.8251 58.8907 69.7292 58.7487 69.6609C58.6014 69.5932 58.4348 69.56 58.2503 69.56Z" fill="#9B9B9C"/>
</svg>
