<svg width="100" height="100" viewBox="0 0 100 100" fill="none" xmlns="http://www.w3.org/2000/svg">
<g clip-path="url(#clip0_841_308)">
<path fill-rule="evenodd" clip-rule="evenodd" d="M35.7211 50.4339C34.6915 50.7246 33.5954 50.0708 33.3013 48.9848C33.0069 47.971 33.5954 46.8819 34.6915 46.5948L38.5823 45.505C39.4611 45.2146 43.4221 44.0594 45.8419 48.2616C46.2833 49.0573 46.6508 49.8527 47.015 50.6516C47.4598 51.6654 47.8977 52.6058 48.5561 53.4052C48.7029 53.5504 48.85 53.6958 48.9971 53.8408C49.5854 54.4185 50.2438 54.7125 50.9056 54.7816C51.4938 54.7816 52.149 54.5637 52.8108 53.986C52.9615 53.9133 53.1086 53.7644 53.1821 53.6958C53.2556 53.6229 53.2556 53.6229 53.3256 53.5504C53.8406 52.8964 54.4252 51.8106 54.9436 50.7935C55.3079 49.9981 55.6721 49.275 56.1869 48.4798C56.7752 47.5354 57.36 46.8125 58.0917 46.3041C58.9044 45.6504 59.8567 45.2904 61.0298 45.2146C62.7881 45.1452 64.1817 45.581 65.5756 46.0135C66.6754 46.3769 67.7786 46.74 68.584 46.5219H68.7344C68.8815 46.5219 69.0988 46.4494 69.2458 46.3769C69.3927 46.3041 69.5363 46.3041 69.6869 46.2277C70.1248 46.0135 70.3456 45.7229 70.3456 45.4325C70.3456 45.1452 70.2719 44.8548 70.1983 44.5644C70.1248 44.2737 70.0513 43.9833 69.9077 43.6962C68.9552 42.1016 66.8994 40.8704 65.2113 40.1437C65.1381 40.1437 65.1381 40.1437 65.0644 40.0748C64.5531 39.8535 64.0381 39.6354 63.3767 39.4935C62.7179 39.2723 62.0565 39.0577 61.4679 38.84C57.9483 37.8991 54.2781 37.3906 51.7848 37.3181H49.8061C49.1442 37.3906 48.4858 37.3906 47.824 37.4631C44.5217 37.7537 41.0756 38.5527 37.8467 39.8535C37.7733 39.8535 37.7733 39.9296 37.7733 39.9296C36.8942 40.2925 36.0888 40.725 35.28 41.1575C34.5444 41.5931 33.8825 42.1016 33.2277 42.6102C30.2158 44.9273 28.9694 47.5354 29.0427 50.0708C29.0427 50.5791 29.1198 51.0841 29.2633 51.6654C29.4104 52.1737 29.5575 52.6787 29.7781 53.1146C30.8777 55.7225 33.3013 57.8256 36.0888 59.3471C36.6002 59.5652 37.115 59.7794 37.6996 60.07C38.2881 60.3606 38.8727 60.5787 39.4611 60.7962C42.69 61.9554 46.7244 62.8235 50.9794 62.6781C52.0792 62.6781 53.2556 62.6054 54.4252 62.46C55.5983 62.3908 56.7017 62.1729 57.8013 61.9554C63.3767 60.8689 68.2933 58.3302 71.3013 53.9133C71.96 52.9694 73.21 52.7512 74.0892 53.3323C75.0415 53.9133 75.2654 55.145 74.6742 56.0858C71.0071 61.4466 65.1381 64.4904 58.6067 65.8673C57.4336 66.085 56.1133 66.2994 54.8667 66.4481C53.6198 66.5933 52.3696 66.6627 51.0529 66.6627C46.2833 66.7352 41.7375 65.7979 38.0675 64.4904C37.3319 64.2727 36.6736 63.9821 36.0888 63.6914C35.4233 63.4048 34.8388 63.1173 34.2538 62.8235C30.6573 61.0108 27.5719 58.1883 26.1081 54.7125C25.7402 53.986 25.5233 53.2598 25.3027 52.5333C25.1556 51.8106 25.0783 51.0152 25.0086 50.216C24.8615 46.3769 26.6194 42.6102 30.7271 39.4935C31.4627 38.9125 32.345 38.3314 33.2277 37.7537C34.1031 37.2454 35.0592 36.7404 36.0888 36.3046C36.159 36.2321 36.2323 36.2321 36.3061 36.2321C39.9727 34.71 43.7163 33.8421 47.4598 33.5514C48.1917 33.4785 48.9238 33.4096 49.659 33.4096C50.3911 33.3333 51.1265 33.3333 51.8583 33.3333C54.6458 33.4096 58.7573 33.9839 62.4975 35.07C63.3065 35.2877 64.0381 35.5056 64.6969 35.7271C65.3583 35.9414 66.0171 36.1591 66.6754 36.4498C66.6754 36.4498 66.7523 36.4498 66.7523 36.5227C69.0988 37.4631 71.96 39.2723 73.4273 41.811C73.7213 42.3921 73.9385 42.9698 74.159 43.551C74.3096 44.2012 74.3798 44.8548 74.3096 45.581C74.2327 47.3175 73.3571 48.7666 71.5221 49.7108C71.2279 49.8527 70.86 49.9981 70.4927 50.1433C70.2719 50.216 69.9077 50.2885 69.6136 50.4339H69.3927C67.5579 50.7935 65.9433 50.2885 64.4061 49.7802C63.3065 49.4931 62.2769 49.13 61.324 49.1989C60.9602 49.1989 60.6661 49.275 60.5154 49.4202C60.2211 49.6383 59.9304 49.9981 59.6363 50.5064C59.2686 51.0841 58.9044 51.8106 58.5365 52.5333C57.875 53.8408 57.2898 55.0721 56.334 56.1583V56.2308H56.2606C56.2606 56.2308 56.2606 56.3035 56.1869 56.3035C55.9663 56.5939 55.7454 56.8085 55.4548 57.0262C53.9877 58.2577 52.2996 58.8389 50.6852 58.6935C49.0744 58.6208 47.5333 57.8981 46.2096 56.7391C45.9925 56.5179 45.7681 56.2308 45.4775 55.9404C44.4479 54.7816 43.8631 53.4777 43.3483 52.1737C43.0579 51.52 42.7638 50.8698 42.3923 50.216C41.5169 48.7666 40.1967 49.13 39.9727 49.1989C39.9025 49.275 39.7554 49.3479 39.6817 49.3479L35.7211 50.4339Z" fill="#0CB14B"/>
</g>
<defs>
<clipPath id="clip0_841_308">
<rect width="100" height="100" fill="white"/>
</clipPath>
</defs>
</svg>
