<svg width="100" height="100" viewBox="0 0 100 100" fill="none" xmlns="http://www.w3.org/2000/svg">
<g clip-path="url(#clip0_837_442)">
<path fill-rule="evenodd" clip-rule="evenodd" d="M49.795 71.1509C40.0144 71.1509 32.9821 65.4927 30.0906 57.4967H28.02C30.9114 66.3317 39.2112 72.4715 49.0989 72.4715C56.6127 72.4715 63.0919 69.1696 67.0719 63.7794H65.8758C62.0923 68.2775 56.5773 71.1509 49.795 71.1509Z" fill="black"/>
<path fill-rule="evenodd" clip-rule="evenodd" d="M69.3744 60.6919L67.9288 57.015H67.0183L68.9819 61.8521H69.7311L71.7306 57.015H70.8202L69.3744 60.6919Z" fill="black"/>
<path fill-rule="evenodd" clip-rule="evenodd" d="M64.6265 61.8519V57.8004H66.144V57.0148H62.2706V57.8004H63.7879V61.8519H64.6265Z" fill="black"/>
<path fill-rule="evenodd" clip-rule="evenodd" d="M87.1687 52.5171V45.1459L84.5275 45.0209V54.8734H91.6667V52.5532L87.1687 52.5171Z" fill="black"/>
<path fill-rule="evenodd" clip-rule="evenodd" d="M72.73 54.855L76.799 44.6998L79.3513 44.7713L83.3852 54.855H80.5475L79.8513 53.0527H76.1925L75.4963 54.855H72.73ZM78.0485 48.0373L76.96 50.8752L79.1017 50.9111L78.0485 48.0373Z" fill="black"/>
<path fill-rule="evenodd" clip-rule="evenodd" d="M68.7498 48.4477C67.4292 48.1086 67.09 47.7696 67.09 47.4125C67.09 47.02 67.411 46.7705 68.0537 46.7705C68.8927 46.7705 69.8383 47.1275 70.731 47.8057L72.0335 45.8244C70.9985 44.9142 69.749 44.3788 68.1252 44.3788C65.8404 44.3788 64.4127 45.699 64.4127 47.6625C64.4127 49.5188 65.9833 50.4294 68.0181 50.9644C69.3029 51.3036 69.6067 51.518 69.6067 51.9817C69.6067 52.4457 69.2137 52.6777 68.5177 52.6777C67.411 52.6777 66.3756 52.2496 65.4298 51.4286L63.9662 53.3386C65.1269 54.4988 66.7329 55.0694 68.4283 55.0694C70.749 55.0694 72.2833 53.8202 72.2833 51.75C72.2833 49.7684 70.945 49.0009 68.7498 48.4477Z" fill="black"/>
<path fill-rule="evenodd" clip-rule="evenodd" d="M59.1119 44.4144C61.5746 44.4144 63.1633 45.7528 63.1633 48.0198C63.1633 49.6257 62.3958 50.6611 61.2177 51.2142L63.4844 54.8911H60.3967L58.719 51.6963H57.3627V54.8911H54.6854V44.4144H59.1119ZM57.3627 49.3761H59.0404C59.986 49.3761 60.504 48.8761 60.504 48.1265C60.504 47.2878 59.9504 46.8238 59.0404 46.8238H57.3627V49.3761Z" fill="black"/>
<path fill-rule="evenodd" clip-rule="evenodd" d="M52.7875 46.7191V44.2404H45.0981V54.8612H52.8596V52.3645H47.8285V50.6633H52.3204V48.3474H47.8285V46.7191H52.7875Z" fill="black"/>
<path fill-rule="evenodd" clip-rule="evenodd" d="M36.8371 44.4675L33.8919 44.521L37.7648 54.8731H40.3175L44.0654 44.396C43.084 44.396 42.1202 44.4139 41.1562 44.4139L39.1219 51.0358L36.8371 44.4675Z" fill="black"/>
<path fill-rule="evenodd" clip-rule="evenodd" d="M30.0013 54.8731H32.6965V44.5389C31.804 44.5571 30.8938 44.5925 30.0013 44.5925V54.8731Z" fill="black"/>
<path fill-rule="evenodd" clip-rule="evenodd" d="M28.0202 44.6283L25.3965 44.6998V50.072L21.4698 44.8243L19.0246 44.896V54.8731H21.6125V49.3579L25.6819 54.8731H28.0202V44.6283Z" fill="black"/>
<path fill-rule="evenodd" clip-rule="evenodd" d="M14.5445 50.5896C14.5445 51.9638 13.8484 52.6063 12.7778 52.6063C11.6887 52.6063 11.0286 51.9817 11.0286 50.5896V45.2173C10.136 45.2705 9.22551 45.3065 8.33334 45.3423V50.6969C8.33334 53.6778 10.0466 55.0515 12.7598 55.0515C15.4551 55.0515 17.2218 53.6598 17.2218 50.4826V44.9855L14.5445 45.0744V50.5896Z" fill="black"/>
<path fill-rule="evenodd" clip-rule="evenodd" d="M49.9198 28.9575C58.8619 28.9575 66.6256 34.8117 69.624 42.7542H70.7127C67.7679 33.6696 59.2723 27.0834 49.1881 27.0834C39.3896 27.0834 31.0006 33.3482 27.8773 42.1115L31.2327 42.04C34.2671 34.205 41.2633 28.9575 49.9198 28.9575Z" fill="black"/>
</g>
<defs>
<clipPath id="clip0_837_442">
<rect width="100" height="100" fill="white"/>
</clipPath>
</defs>
</svg>
