<svg width="100" height="100" viewBox="0 0 100 100" fill="none" xmlns="http://www.w3.org/2000/svg">
<g clip-path="url(#clip0_840_1797)">
<path d="M49.4499 75.8371C48.1996 67.4415 46.9607 59.0465 45.7099 50.6279C37.987 53.686 30.287 56.7441 22.5989 59.7907C22.5875 59.7673 22.5755 59.7443 22.5641 59.7208C31.5493 54.4648 40.5459 49.1974 49.5425 43.9299C49.5425 54.5813 49.5425 65.2092 49.5425 75.8256C49.5077 75.814 49.4733 75.8256 49.4499 75.8371V75.8371Z" fill="#F8B307"/>
<path d="M77.4822 59.8139C76.0462 59.2441 74.6221 58.6862 73.1862 58.1164C67.0381 55.6746 60.89 53.2328 54.7415 50.7906C54.4174 50.6626 54.3478 50.7326 54.3015 51.058C53.9311 53.6397 53.5374 56.2094 53.1552 58.7907C52.8774 60.6281 52.6111 62.4766 52.3448 64.3141C52.0437 66.372 51.7311 68.4304 51.43 70.5002C51.1752 72.2558 51.1752 72.2558 50.5848 75.8372C50.5848 65.2443 50.5848 54.6049 50.5848 43.9885C59.5466 49.2325 68.5318 54.4885 77.517 59.7444C77.5051 59.7674 77.4936 59.7909 77.4822 59.8139V59.8139Z" fill="#F8B307"/>
<path d="M49.6466 10.035C49.6466 20.7324 49.6466 31.4302 49.6466 42.1861C40.6037 36.8836 31.5956 31.6047 22.5875 26.3257C22.599 26.3022 22.599 26.2907 22.6104 26.2672C22.7727 26.3257 22.923 26.3837 23.0853 26.4417C29.7779 29.1979 36.4819 31.9651 43.1745 34.7208C43.9152 35.0232 44.6448 35.3256 45.3626 35.6745C45.6752 35.8254 45.6752 35.628 45.6985 35.442C45.8608 34.4303 46.0111 33.4301 46.1615 32.4184C46.4974 30.2791 46.8215 28.1277 47.1574 25.9883C47.4815 23.8604 47.806 21.7211 48.13 19.5932C48.454 17.4653 48.79 15.3374 49.114 13.1976C49.2763 12.1394 49.4385 11.0697 49.6003 10C49.6237 10.035 49.6352 10.035 49.6466 10.035Z" fill="#F8B307"/>
<path d="M78.0725 27.5582C75.5947 29.5811 73.1284 31.6045 70.6507 33.6279C69.157 34.8486 67.6633 36.0812 66.1581 37.2904C65.3707 37.9187 64.5833 38.558 63.8078 39.1858C62.9626 39.8721 62.1289 40.5699 61.2952 41.2672C60.45 41.9765 59.5815 42.6743 58.7244 43.3606C58.5278 43.5115 58.4815 43.593 58.7129 43.7675C61.2603 45.6974 63.8078 47.6509 66.3547 49.5928C70.3033 52.6044 74.2518 55.628 78.1999 58.6396C78.2347 58.6741 78.2696 58.6976 78.281 58.7906C69.1803 53.5811 60.0792 48.3721 50.9323 43.1396C51.3603 42.8952 51.7426 42.6628 52.1248 42.4419C60.67 37.5113 69.2147 32.5697 77.7599 27.6392C77.8525 27.5812 77.9336 27.4998 78.0496 27.4998C78.0496 27.5347 78.061 27.5462 78.0725 27.5582H78.0725Z" fill="#F8B307"/>
<path d="M21.719 58.6861C21.835 58.6861 21.9042 58.5932 21.9853 58.5232C26.3738 55.1742 30.7505 51.8137 35.1385 48.4651C37.1997 46.8951 39.2608 45.3256 41.3219 43.7556C41.4145 43.6861 41.5071 43.6046 41.6111 43.5231C39.4693 41.7676 37.3385 40.0346 35.2082 38.2906C30.8545 34.7442 26.5008 31.1862 22.159 27.6278C22.0893 27.5698 21.8927 27.5348 22.0201 27.3604V27.3719C22.1012 27.5118 22.2516 27.5463 22.3675 27.6163C26.6516 30.093 30.9356 32.5698 35.2197 35.0466C37.4545 36.3372 39.6893 37.6278 41.9237 38.9185C44.2163 40.2441 46.5089 41.5697 48.8134 42.8953C48.9174 42.9533 49.01 43.0233 49.1489 43.1047C48.3615 43.5581 47.6208 43.9885 46.8678 44.4184C45.5597 45.1626 44.2511 45.9184 42.9426 46.6627C40.743 47.9188 38.543 49.1744 36.343 50.4416C31.6071 53.1513 26.883 55.8605 22.1475 58.5582C22.0087 58.6397 21.8927 58.7906 21.719 58.6862V58.6861Z" fill="#F8B307"/>
<path d="M50.4459 42.2095C50.4459 31.5231 50.4459 20.6628 50.4459 10.0349C50.4574 10.0349 50.4803 10.0349 50.4922 10.0349C50.6425 11.0346 50.8048 12.2673 50.9551 13.2675C51.2563 15.2324 51.5574 17.1978 51.8585 19.1627C52.1592 21.1396 52.4722 23.1161 52.7729 25.093C53.0974 27.2209 53.4329 29.3372 53.7455 31.4651C53.9426 32.7673 54.2088 34.0579 54.3014 35.3835C54.3363 35.7789 54.4055 35.8139 54.7877 35.6629C62.2214 32.6048 69.6432 29.5467 77.0769 26.4766C77.181 26.4301 77.2969 26.3951 77.4358 26.4186C68.4621 31.6626 59.4769 36.93 50.4459 42.2095V42.2095Z" fill="#F8B307"/>
<path d="M22.0087 27.3838C22.0087 27.4303 22.0201 27.4768 21.9624 27.4768C21.939 27.4768 21.9156 27.4418 21.8927 27.4183C21.9275 27.4068 21.9738 27.3953 22.0087 27.3838Z" fill="#F8B307"/>
<path d="M78.0376 27.5233C78.0495 27.4654 78.1073 27.4419 78.1421 27.4769C78.1769 27.5349 78.1073 27.5349 78.0724 27.5583C78.061 27.5464 78.0495 27.5349 78.0376 27.5233Z" fill="#F8B307"/>
<path d="M21.719 58.6977C21.7424 58.7212 21.7653 58.7442 21.7887 58.7677C21.6956 58.7907 21.7424 58.7093 21.719 58.6977C21.719 58.6977 21.719 58.6862 21.719 58.6977Z" fill="#F8B307"/>
<path d="M20.1625 80.1514H18.1248V85.1164C18.1248 85.1509 18.1248 85.1859 18.1248 85.2324V89.9535H18.194V90H26.9825V87.8951H20.1625V86.0117C21.9225 86.0697 23.694 86.0347 25.454 86.0232C25.5351 86.0232 25.6048 86.0117 25.6625 86.0001H25.8362V83.9998H20.1625V82.3602C20.2088 82.2907 20.2899 82.2673 20.4059 82.2558H23.4391C24.4699 82.2558 25.5003 82.2558 26.5425 82.2673C26.6003 82.2673 26.6466 82.2673 26.6928 82.2558H26.9825V80.1629L20.1625 80.1514Z" fill="#21305E"/>
<path d="M91.7537 86.2326C91.7188 86.1396 91.6725 86.0466 91.6033 85.9767L91.4874 85.7907C91.4525 85.7093 91.4062 85.6398 91.3485 85.5698L91.2325 85.3719C91.1748 85.2559 91.117 85.1509 91.0359 85.0465L90.9548 84.907C90.897 84.756 90.8159 84.6161 90.7348 84.4766C90.7233 84.4651 90.6999 84.4651 90.6885 84.4536L90.5844 84.2792C90.5262 84.1277 90.457 83.9768 90.3644 83.8488C90.3525 83.8488 90.3411 83.8488 90.3296 83.8488L90.2714 83.7443C90.237 83.6513 90.1907 83.5699 90.1211 83.4884C90.1211 83.4884 90.1211 83.4884 90.1211 83.4999L89.5999 82.6396C89.5651 82.5697 89.5307 82.5117 89.4844 82.4417L89.3337 82.1863C89.2759 82.0698 89.2062 81.9653 89.137 81.8604L88.9633 81.57C88.8822 81.4185 88.8011 81.2791 88.7085 81.1396L88.5925 80.9536C88.5582 80.8722 88.5119 80.7907 88.4537 80.7207L88.3725 80.5813C88.3382 80.5118 88.3148 80.4533 88.2799 80.3838C88.2451 80.3254 88.2107 80.2789 88.1644 80.2443L88.1062 80.1514H85.8833L85.7325 80.3953C85.6982 80.4418 85.6748 80.4883 85.6399 80.5463L83.5674 83.9883C83.5211 84.0582 83.4633 84.1397 83.417 84.2092C83.4056 84.2327 83.3937 84.2677 83.3937 84.2907L83.2782 84.4886C83.2085 84.5816 83.1507 84.6745 83.1044 84.779L82.8844 85.1394C82.8611 85.1744 82.8382 85.2094 82.8267 85.2444L82.4674 85.8372C82.4559 85.8372 82.4559 85.8372 82.4444 85.8372C82.3867 85.9302 82.3404 86.0232 82.2937 86.1161L81.6919 87.1163C81.6337 87.1513 81.6222 87.2208 81.5993 87.2793L79.9781 89.9765H83.4285L83.533 89.7556C83.5793 89.7091 83.6137 89.6396 83.637 89.5466L83.6719 89.4652C83.7296 89.3952 83.7644 89.3257 83.7759 89.2442L83.857 89.0813C83.9033 89.0118 83.9382 88.9418 83.9611 88.8603L84.0656 88.6514H89.7851C89.8199 88.6514 89.8548 88.6629 89.8777 88.6859L90.5844 89.9765H94L91.7537 86.2326ZM86.9833 86.5H85.0844L86.0337 84.849L86.9833 83.1975L87.9325 84.849L88.8822 86.5H86.9833Z" fill="#21305E"/>
<path d="M15.4962 85.9072C16.7584 85.5928 17.8236 84.4187 17.7658 83.0581C17.6962 81.4766 16.4807 80.1279 14.8481 80.1279H9.85727C9.69548 80.1279 9.53323 80.1394 9.3829 80.1744C9.2784 80.1744 9.17436 80.1744 9.0584 80.1744C8.42177 80.1744 7.78469 80.1744 7.15952 80.1859H6.01323V80.2674C5.99031 80.3254 6.00177 80.3954 6.01323 80.4653V84.2677C6.00177 85.5813 6.00177 86.8839 6.01323 88.1976V89.9885H6.3029C6.31436 89.9885 6.32581 90 6.34919 90H8.29436C8.30582 90 8.32919 90 8.34065 89.9885H8.56065V86.872C8.59548 86.791 8.68807 86.756 8.85032 86.756C9.91548 86.7675 10.9807 86.7675 12.0458 86.756C12.1384 86.756 12.2195 86.7675 12.2892 86.8025L14.5584 89.7091C14.6047 89.8026 14.651 89.8721 14.7207 89.9186C14.8018 89.9766 14.9058 89.9885 15.0332 89.9885C15.751 89.9766 16.4807 89.9885 17.1984 89.9885H17.2676L17.7195 90L14.6395 86.1977C14.7899 86.0117 15.0447 86.0932 15.2184 85.9767C15.3224 85.9652 15.415 85.9417 15.4962 85.9072V85.9072ZM8.56065 83.7559C8.57211 83.7094 8.57211 83.6629 8.56065 83.6049V82.7791C8.64177 82.3723 8.90807 82.3138 9.2784 82.3258C10.6099 82.3488 11.9532 82.3373 13.2847 82.3373C13.5744 82.3373 13.8636 82.3258 14.1532 82.3603H14.4773C14.7321 82.3603 14.9287 82.4418 15.091 82.5582C15.2647 82.6977 15.3687 82.8956 15.4269 83.1046C15.4499 83.221 15.4613 83.3375 15.4499 83.465C15.4384 83.6394 15.3807 83.8139 15.2881 83.9533C15.2184 84.0698 15.1258 84.1627 14.9984 84.2327C14.9984 84.2327 14.9984 84.2327 14.9869 84.2327C14.9521 84.2557 14.9058 84.2792 14.8595 84.2907C14.7436 84.3372 14.6162 84.3607 14.4773 84.3607H14.1647C14.0373 84.3837 13.9218 84.3722 13.7944 84.3722C12.3584 84.3722 10.9344 84.3722 9.4984 84.3722C9.35952 84.3722 9.24357 84.3722 9.15098 84.3607H8.58357C8.57211 84.3837 8.56065 84.4072 8.56065 84.4302L8.56065 83.7559Z" fill="#21305E"/>
<path d="M63.9879 80.1628C63.9765 80.1744 63.965 80.1744 63.9416 80.1744C62.865 80.1744 61.7879 80.1859 60.7227 80.1628C60.6535 80.1628 60.5839 80.1629 60.5261 80.1744H60.3405L56.9135 86.1281L56.6816 85.7327C56.6587 85.6628 56.6124 85.6048 56.5776 85.5463L56.4621 85.3488C56.4387 85.3024 56.4153 85.2559 56.3809 85.2094L56.2072 84.9185C56.1839 84.872 56.1609 84.8255 56.1261 84.779L53.4861 80.1859H53.2661C52.1661 80.1629 51.0661 80.1744 49.9198 80.1744C49.8969 80.1978 50.3369 80.9536 50.3369 80.9766C50.3484 81.0231 50.8576 81.8489 51.5639 82.9765C51.5758 82.9885 51.5758 83 51.5872 83.0115C52.8839 85.0814 54.8176 88.151 55.5935 89.3257C55.6164 89.3721 55.6513 89.4071 55.6746 89.4536C55.6976 89.4881 55.709 89.5116 55.7324 89.5351C55.7324 89.5466 55.7324 89.5466 55.7324 89.5581C55.8135 89.8835 55.9872 90 56.2884 89.9765C56.7627 89.942 57.249 89.9535 57.7239 89.9765C57.9902 89.9885 58.1409 89.8835 58.2101 89.5816C58.245 89.5351 58.2798 89.4651 58.3261 89.3952C58.3261 89.3952 58.3261 89.3952 58.3261 89.3836C58.3953 89.2792 58.4764 89.1397 58.569 88.9998C59.669 87.2328 62.3668 82.8486 63.5016 81.0231V81.0116C63.8142 80.5117 64.0113 80.1978 64.0113 80.1859C64.0113 80.1743 64.0113 80.1743 64.0113 80.1628L63.9879 80.1628Z" fill="#21305E"/>
<path d="M42.3705 80.1394H40.3328V85.1045C40.3328 85.1394 40.3328 85.1744 40.3328 85.2209V89.942H40.402V89.9885H49.1905V87.8836H42.3705V86.0002C44.1305 86.0582 45.902 86.0232 47.662 86.0117C47.7431 86.0117 47.8123 86.0002 47.8705 85.9882H48.0442V83.9883H42.3705V82.3488C42.4168 82.2793 42.4979 82.2558 42.6134 82.2443H45.6471C46.6779 82.2443 47.7083 82.2443 48.7505 82.2558C48.8083 82.2558 48.8546 82.2558 48.9009 82.2443H49.1905V80.1514L42.3705 80.1394Z" fill="#21305E"/>
<path d="M64.7638 80.1628H67.7049V89.9765H64.7638V80.1628Z" fill="#21305E"/>
<path d="M39.6031 84.9999C39.5802 84.5 39.4872 84.0117 39.3368 83.5583C39.3368 83.5463 39.3368 83.5233 39.3254 83.5114L39.3139 83.4998C39.2672 83.3604 39.2209 83.2324 39.1631 83.1045C39.1517 83.035 39.1168 82.9765 39.0705 82.9185C39.0591 82.8835 39.0357 82.8605 39.0243 82.8255C38.9894 82.7211 38.9431 82.6161 38.862 82.5346C38.8043 82.4302 38.7346 82.3372 38.6654 82.2327C38.5843 82.0348 38.4454 81.8838 38.2831 81.7443L38.2717 81.7324C38.1094 81.5349 37.9243 81.349 37.7157 81.209C36.9283 80.5812 35.9328 80.1978 34.8094 80.1978C34.6939 80.1978 34.578 80.1978 34.462 80.2093C33.2465 80.1978 32.0425 80.1978 30.8265 80.1978V80.1743H27.8854V89.9884H30.8265C32.1002 89.9884 33.3739 89.9884 34.6591 89.9884C35.122 89.9884 35.5854 89.9185 36.0139 89.7555L36.7083 89.3951C36.8591 89.3256 37.4265 89.0232 37.5539 88.9187C37.6231 88.8722 37.6813 88.8253 37.7505 88.7788C37.7968 88.7558 37.8202 88.7323 37.8546 88.6978C38.8157 87.907 39.4991 86.7789 39.6031 85.5232C39.6146 85.4883 39.6146 85.4418 39.6146 85.4068C39.6031 85.2673 39.6031 85.1394 39.6031 84.9999L39.6031 84.9999ZM37.4843 85.1509C37.4728 85.2908 37.4613 85.4303 37.4265 85.5582H37.4146C37.3802 85.6742 37.3339 85.7907 37.2876 85.8952C37.1831 86.0931 37.0557 86.279 36.8939 86.442C36.778 86.5699 36.6391 86.6744 36.4883 86.7674C36.3728 86.8373 36.2568 86.9069 36.1294 86.9533C35.9905 87.0233 35.8517 87.0698 35.7013 87.1048C35.6894 87.1163 35.678 87.1278 35.678 87.1278C35.655 87.1278 35.6317 87.1278 35.6083 87.1278C35.5968 87.1278 35.5854 87.1278 35.562 87.1278C35.4694 87.1393 35.3654 87.1513 35.2728 87.1513C35.1917 87.1513 35.122 87.1513 35.0528 87.1393C34.8676 87.1393 34.6705 87.1393 34.4854 87.1393C33.5242 87.1513 32.5631 87.1393 31.6139 87.0813C31.5791 87.0813 31.5676 87.0813 31.5562 87.0813C31.5562 87.0813 31.5213 87.0698 30.9768 87.0348C30.9305 87.0348 30.8962 87.0348 30.8499 87.0348V82.942C31.1854 82.7675 31.5676 82.872 31.9265 82.837C32.1928 82.837 32.4591 82.8255 32.7368 82.837C33.5128 82.8486 34.2768 82.8021 35.0528 82.872H35.0643H35.3883C35.6202 82.872 35.8402 82.907 36.0483 82.9765C36.0602 82.9765 36.0831 82.9885 36.095 83C36.1528 83.023 36.1991 83.035 36.2454 83.058C36.442 83.151 36.6157 83.2674 36.7665 83.4184C36.9746 83.6163 37.1483 83.8487 37.2757 84.1047C37.3683 84.3141 37.438 84.535 37.4728 84.7675C37.4843 84.8489 37.4957 84.9299 37.4957 85.0114C37.4842 85.0579 37.4843 85.1044 37.4843 85.1509V85.1509Z" fill="#21305E"/>
<path d="M80.9274 85.3953C80.9393 85.2674 80.9393 85.1279 80.9274 84.9999C80.9045 84.5001 80.8119 84.0117 80.6611 83.5583C80.6611 83.5464 80.6611 83.5234 80.6496 83.5114L80.6382 83.4999C80.5919 83.3604 80.5456 83.2325 80.4874 83.1045C80.4759 83.035 80.4411 82.9765 80.3948 82.9185C80.3833 82.8836 80.3604 82.8605 80.3485 82.8256C80.3141 82.7211 80.2678 82.6161 80.1867 82.5347C80.1285 82.4302 80.0593 82.3372 79.9896 82.2327C79.9085 82.0348 79.7696 81.8838 79.6078 81.7444L79.5959 81.7324C79.4341 81.5349 79.2485 81.349 79.0404 81.2091C78.253 80.5812 77.257 80.1978 76.1341 80.1978C76.0182 80.1978 75.9022 80.1978 75.7867 80.2093C74.5708 80.1978 73.3667 80.1978 72.1508 80.1978V80.1628H69.2101V89.9765H72.1508C73.4245 89.9765 74.6982 89.9765 75.9833 89.9765C76.4467 89.9765 76.9096 89.907 77.3382 89.744L78.033 89.3836C78.1833 89.3141 78.7508 89.0117 78.8782 88.9068C78.9478 88.8603 79.0056 88.8138 79.0748 88.7673C79.1215 88.7443 79.1445 88.7208 79.1793 88.6859C80.1404 87.8951 80.8233 86.7674 80.9274 85.5118C80.9274 85.4653 80.9274 85.4303 80.9274 85.3953L80.9274 85.3953ZM78.8204 85.1509C78.8085 85.2908 78.7971 85.4303 78.7622 85.5583H78.7508C78.7159 85.6743 78.6696 85.7907 78.6234 85.8952C78.5193 86.0931 78.3919 86.2791 78.2296 86.442C78.1141 86.57 77.9748 86.6744 77.8245 86.7674C77.7085 86.8374 77.593 86.9069 77.4656 86.9534C77.3267 87.0233 77.1879 87.0698 77.0371 87.1048C77.0256 87.1163 77.0141 87.1278 77.0141 87.1278C76.9908 87.1278 76.9679 87.1278 76.9445 87.1278C76.933 87.1278 76.9216 87.1278 76.8982 87.1278C76.8056 87.1393 76.7016 87.1513 76.609 87.1513C76.5279 87.1513 76.4582 87.1513 76.389 87.1393C76.2034 87.1393 76.0067 87.1393 75.8216 87.1393C74.8604 87.1513 73.8993 87.1393 72.9501 87.0813C72.9153 87.0813 72.9034 87.0813 72.8919 87.0813C72.8919 87.0813 72.8571 87.0698 72.313 87.0348C72.2667 87.0348 72.2319 87.0348 72.1856 87.0348V82.942C72.5216 82.7676 72.9033 82.8721 73.2627 82.8371C73.529 82.8371 73.7953 82.8256 74.073 82.8371C74.849 82.8486 75.613 82.8021 76.389 82.8721H76.4004H76.7245C76.9559 82.8721 77.1759 82.907 77.3845 82.9765C77.3959 82.9765 77.4193 82.9885 77.4308 83C77.4885 83.023 77.5353 83.035 77.5816 83.058C77.7782 83.151 77.9519 83.2674 78.1022 83.4184C78.3108 83.6163 78.4845 83.8488 78.6119 84.1047C78.7045 84.3141 78.7741 84.5351 78.8085 84.7675C78.8204 84.849 78.8319 84.93 78.8319 85.0114C78.8204 85.0464 78.8204 85.0929 78.8204 85.1509H78.8204Z" fill="#21305E"/>
</g>
<defs>
<clipPath id="clip0_840_1797">
<rect width="88" height="80" fill="white" transform="translate(6 10)"/>
</clipPath>
</defs>
</svg>
