<svg width="100" height="100" viewBox="0 0 100 100" fill="none" xmlns="http://www.w3.org/2000/svg">
<path d="M20 16V62H46.7435V46.145L55.4932 54.8279L64.2565 46.145V62H67.8982C67.9337 60.7529 67.9578 59.1094 67.9379 58.4069C67.9104 57.6721 67.8692 55.9029 67.8692 54.9503C67.8692 49.6427 68.3362 48.336 68.3362 40.6875C68.3362 38.4011 67.8143 37.8431 67.0726 37.8431C66.2346 37.8431 64.1331 39.4219 62.581 40.5106C60.0948 42.2527 58.7487 43.6545 57.1417 43.6545C56.1802 43.6545 55.6444 43.2326 55.04 42.4705C54.9165 42.3343 54.6005 41.6949 54.6005 41.1912C54.6005 40.6196 54.8201 39.8303 55.6992 39.3131C56.647 38.7551 57.691 38.8639 59.9435 37.5165C62.6084 35.9243 65.7949 34.0735 66.3033 33.7469C67.2235 33.2705 67.0036 32.5357 67.0036 31.8552C67.0036 30.3853 68.3361 29.8681 69.4898 29.8681C70.5888 29.8681 71.2756 30.2764 71.4403 30.3445C71.8525 30.1131 72.9238 29.5143 74.9293 28.2894C77.4016 26.7788 77.3604 25.5811 78.8988 25.2545C80.6021 24.887 81.6871 26.5338 81.6871 27.6906C81.6871 29.419 79.4619 30.426 78.3357 31.0521C75.1901 32.8077 74.0914 33.5426 72.965 34.2639C73.02 34.9579 73.02 36.5775 73.02 37.9658C73.02 40.2793 73.7205 44.6072 73.7205 47.0024C73.7205 49.8468 73.5967 53.3851 73.5967 54.2562C73.5967 55.6715 73.748 57.2776 73.9266 58.4207C74.0155 59.3194 74.1322 60.7945 74.1967 62H91V39.8346C90.968 39.897 90.9357 39.9576 90.9038 40.0207C89.4478 42.906 87.5799 46.0904 86.1651 50.9626C85.7805 52.3916 85.6293 53.4667 85.6018 54.8822C85.547 57.291 82.0718 58.2573 80.1489 55.5082C78.5692 53.249 76.7423 45.1923 76.5363 44.2396C75.6572 40.3337 75.3278 38.9047 75.2178 37.4621C75.0667 35.6112 75.8221 34.5497 77.4842 34.1277C79.201 33.6786 80.6022 34.5361 80.7396 36.4006C81.0005 39.9117 81.2203 42.6473 81.5636 44.2396C81.6735 44.7705 81.9893 44.9609 82.3328 44.9609C82.786 44.9609 83.0471 44.6615 83.1981 44.3212C83.8445 42.9241 85.5167 37.005 91 30.1172V16H64.5587L55.4932 24.9686L46.4413 16H20Z" fill="black"/>
<path d="M19.2469 76.624V79H9.72486V77.11L14.5849 72.52C15.1009 72.028 15.4489 71.608 15.6289 71.26C15.8089 70.9 15.8989 70.546 15.8989 70.198C15.8989 69.694 15.7249 69.31 15.3769 69.046C15.0409 68.77 14.5429 68.632 13.8829 68.632C13.3309 68.632 12.8329 68.74 12.3889 68.956C11.9449 69.16 11.5729 69.472 11.2729 69.892L9.14886 68.524C9.64086 67.792 10.3189 67.222 11.1829 66.814C12.0469 66.394 13.0369 66.184 14.1529 66.184C15.0889 66.184 15.9049 66.34 16.6009 66.652C17.3089 66.952 17.8549 67.384 18.2389 67.948C18.6349 68.5 18.8329 69.154 18.8329 69.91C18.8329 70.594 18.6889 71.236 18.4009 71.836C18.1129 72.436 17.5549 73.12 16.7269 73.888L13.8289 76.624H19.2469ZM25.8149 79.216C24.7709 79.216 23.8409 78.958 23.0249 78.442C22.2089 77.926 21.5669 77.182 21.0989 76.21C20.6429 75.226 20.4149 74.056 20.4149 72.7C20.4149 71.344 20.6429 70.18 21.0989 69.208C21.5669 68.224 22.2089 67.474 23.0249 66.958C23.8409 66.442 24.7709 66.184 25.8149 66.184C26.8589 66.184 27.7889 66.442 28.6049 66.958C29.4209 67.474 30.0569 68.224 30.5129 69.208C30.9809 70.18 31.2149 71.344 31.2149 72.7C31.2149 74.056 30.9809 75.226 30.5129 76.21C30.0569 77.182 29.4209 77.926 28.6049 78.442C27.7889 78.958 26.8589 79.216 25.8149 79.216ZM25.8149 76.75C26.5829 76.75 27.1829 76.42 27.6149 75.76C28.0589 75.1 28.2809 74.08 28.2809 72.7C28.2809 71.32 28.0589 70.3 27.6149 69.64C27.1829 68.98 26.5829 68.65 25.8149 68.65C25.0589 68.65 24.4589 68.98 24.0149 69.64C23.5829 70.3 23.3669 71.32 23.3669 72.7C23.3669 74.08 23.5829 75.1 24.0149 75.76C24.4589 76.42 25.0589 76.75 25.8149 76.75ZM38.0317 79.216C36.9877 79.216 36.0577 78.958 35.2417 78.442C34.4257 77.926 33.7837 77.182 33.3157 76.21C32.8597 75.226 32.6317 74.056 32.6317 72.7C32.6317 71.344 32.8597 70.18 33.3157 69.208C33.7837 68.224 34.4257 67.474 35.2417 66.958C36.0577 66.442 36.9877 66.184 38.0317 66.184C39.0757 66.184 40.0057 66.442 40.8217 66.958C41.6377 67.474 42.2737 68.224 42.7297 69.208C43.1977 70.18 43.4317 71.344 43.4317 72.7C43.4317 74.056 43.1977 75.226 42.7297 76.21C42.2737 77.182 41.6377 77.926 40.8217 78.442C40.0057 78.958 39.0757 79.216 38.0317 79.216ZM38.0317 76.75C38.7997 76.75 39.3997 76.42 39.8317 75.76C40.2757 75.1 40.4977 74.08 40.4977 72.7C40.4977 71.32 40.2757 70.3 39.8317 69.64C39.3997 68.98 38.7997 68.65 38.0317 68.65C37.2757 68.65 36.6757 68.98 36.2317 69.64C35.7997 70.3 35.5837 71.32 35.5837 72.7C35.5837 74.08 35.7997 75.1 36.2317 75.76C36.6757 76.42 37.2757 76.75 38.0317 76.75ZM50.2485 79.216C49.2045 79.216 48.2745 78.958 47.4585 78.442C46.6425 77.926 46.0005 77.182 45.5325 76.21C45.0765 75.226 44.8485 74.056 44.8485 72.7C44.8485 71.344 45.0765 70.18 45.5325 69.208C46.0005 68.224 46.6425 67.474 47.4585 66.958C48.2745 66.442 49.2045 66.184 50.2485 66.184C51.2925 66.184 52.2225 66.442 53.0385 66.958C53.8545 67.474 54.4905 68.224 54.9465 69.208C55.4145 70.18 55.6485 71.344 55.6485 72.7C55.6485 74.056 55.4145 75.226 54.9465 76.21C54.4905 77.182 53.8545 77.926 53.0385 78.442C52.2225 78.958 51.2925 79.216 50.2485 79.216ZM50.2485 76.75C51.0165 76.75 51.6165 76.42 52.0485 75.76C52.4925 75.1 52.7145 74.08 52.7145 72.7C52.7145 71.32 52.4925 70.3 52.0485 69.64C51.6165 68.98 51.0165 68.65 50.2485 68.65C49.4925 68.65 48.8925 68.98 48.4485 69.64C48.0165 70.3 47.8005 71.32 47.8005 72.7C47.8005 74.08 48.0165 75.1 48.4485 75.76C48.8925 76.42 49.4925 76.75 50.2485 76.75ZM74.5109 66.4V79H71.5949V73.834H65.8709V79H62.9549V66.4H65.8709V71.368H71.5949V66.4H74.5109ZM77.492 66.4H83.216C84.584 66.4 85.79 66.664 86.834 67.192C87.89 67.708 88.706 68.44 89.282 69.388C89.87 70.336 90.164 71.44 90.164 72.7C90.164 73.96 89.87 75.064 89.282 76.012C88.706 76.96 87.89 77.698 86.834 78.226C85.79 78.742 84.584 79 83.216 79H77.492V66.4ZM83.072 76.606C84.332 76.606 85.334 76.258 86.078 75.562C86.834 74.854 87.212 73.9 87.212 72.7C87.212 71.5 86.834 70.552 86.078 69.856C85.334 69.148 84.332 68.794 83.072 68.794H80.408V76.606H83.072Z" fill="black"/>
</svg>
