<svg width="100" height="100" viewBox="0 0 100 100" fill="none" xmlns="http://www.w3.org/2000/svg">
<path d="M33.1617 38.8153L26.8298 71.5909C26.6721 72.3551 25.9079 73.1072 25.1073 73.3134L19.0787 74.9267C18.2295 75.1571 17.429 74.8296 17.2713 74.1382L11.0121 44.7348C11 44.7106 11 44.6742 11 44.6499V44.3709C11.0728 43.8493 11.5459 43.3641 12.2009 43.1943L16.2645 42.1026C16.8831 41.9328 17.344 42.3573 17.4532 43.4005L22.0991 66.0232L26.5872 40.3801C26.7449 39.6523 27.0118 39.2277 27.8123 39.0215L31.9123 37.9177C32.7129 37.6994 33.2951 38.0875 33.1375 38.8153H33.1617Z" fill="#EE436D"/>
<path d="M36.267 69.1406V38.0996C36.267 37.3718 36.8008 36.6562 37.5286 36.4621L41.0584 35.5159C41.7135 35.3461 42.2836 35.7585 42.2836 36.4863V67.5273C42.2836 68.2187 41.7135 68.9829 41.0584 69.1649L37.5286 70.111C36.8008 70.3051 36.267 69.832 36.267 69.1406Z" fill="#EE436D"/>
<path d="M67.5385 29.6207L61.2065 62.3963C61.0488 63.1605 60.2847 63.9125 59.4841 64.1187L53.4554 65.732C52.6063 65.9625 51.8057 65.635 51.648 64.9436L45.3889 35.5402C45.2312 34.8852 45.777 34.2059 46.5776 33.9997L50.6412 32.908C51.2598 32.7381 51.7208 33.1627 51.83 34.2059L56.4758 56.8285L60.9639 31.1855C61.1216 30.4577 61.3885 30.0331 62.1891 29.8269L66.2891 28.7231C67.0896 28.5047 67.6719 28.8929 67.5142 29.6207H67.5385Z" fill="#EE436D"/>
<path d="M87.0315 56.7922L82.968 57.8839C82.2402 58.0779 81.8156 57.8475 81.7428 57.1803L80.5177 52.025L74.6103 53.6019C74.0402 53.7475 73.6156 54.2206 73.5186 54.7907L72.6574 59.6185C72.4997 60.3463 72.2328 60.7708 71.4322 60.9892L67.3686 62.0809C66.5195 62.3114 65.9494 61.9232 66.1071 61.1954L72.439 28.4198C72.5967 27.6556 73.3609 26.9036 74.1615 26.6973L80.2266 25.0719C81.0757 24.8414 81.8399 25.1811 81.9975 25.8604L88.2931 55.2516C88.4022 55.9067 87.9049 56.5859 87.0679 56.8043L87.0315 56.7922ZM75.2411 48.6528L80.2266 50.3753L77.1334 31.889L74.586 47.5369C74.5133 48.0221 74.7923 48.483 75.2532 48.6528H75.2411Z" fill="#EE436D"/>
</svg>
