<svg width="100" height="100" viewBox="0 0 100 100" fill="none" xmlns="http://www.w3.org/2000/svg">
<path d="M43.9864 88.6263C38.4894 85.8552 34.3965 83.3477 30.574 80.4092C25.8357 76.7667 20.8211 71.1635 16.7712 64.9864C11.5255 56.9854 9.01577 49.2632 8.20209 38.6203C7.95626 35.4049 7.92651 25.9591 8.1581 24.6536L8.30869 23.8047L12.0353 23.0035C14.085 22.5628 15.876 22.1588 16.0153 22.1058C16.1547 22.0528 16.3802 21.4425 16.5165 20.7497C16.6528 20.0569 16.8265 19.3983 16.9025 19.2862C16.9785 19.174 18.5953 18.7117 20.4954 18.2588L23.9501 17.4354L24.2783 15.9922C24.4589 15.1985 24.6066 14.3981 24.6066 14.2136C24.6066 14.0291 24.8224 13.787 25.0861 13.6756C25.3499 13.5642 30.4751 12.6916 36.4754 11.7365L47.3852 10L58.3157 11.8499C64.3275 12.8674 69.2964 13.7488 69.3577 13.8087C69.419 13.8685 69.6657 14.7008 69.906 15.6582L70.3429 17.3988L73.7364 18.1508L77.1299 18.9028L77.7846 20.5936L78.4394 22.2844L81.9938 23.041C83.9488 23.4571 85.6369 23.8934 85.7451 24.0107C86.39 24.7092 86.8255 33.7058 86.4312 38.1834C86.1038 41.9011 85.6333 45.1211 85.1182 47.1701C84.8923 48.0687 84.7076 48.884 84.7078 48.9816C84.7081 49.0793 85.1329 49.4275 85.6519 49.7554C87.126 50.6867 89.0622 52.9038 89.9152 54.6373C92.4028 59.6923 91.4738 65.3347 87.4974 69.324C85.665 71.1623 83.6971 72.2884 81.3493 72.842C79.3223 73.3199 76.1328 73.1418 74.2306 72.4443L72.8116 71.924L71.46 73.5157C67.1042 78.6457 59.7564 84.0662 51.126 88.5162L47.4885 90.3918L43.9864 88.6263ZM49.1502 87.0819C53.8573 85.0709 59.0116 81.6754 64.0345 77.2766C66.6959 74.9458 70.7032 70.8654 70.6046 70.5866C70.5015 70.2952 67.3841 66.7399 67.2443 66.7542C67.1786 66.7609 66.6452 67.4022 66.0591 68.1792C64.6428 70.0569 60.3239 74.3832 58.067 76.185C54.3373 79.1627 51.0507 81.1645 48.3868 82.081L47.1287 82.5139L43.6364 80.7005C38.1654 77.8598 35.3332 75.824 31.2432 71.7925C24.2463 64.8958 19.5581 56.8251 17.4765 48.0936C16.3721 43.4613 16.0138 40.1698 15.9938 34.4727L15.9751 29.1636L16.5079 28.9996C16.8009 28.9094 18.1763 28.5736 19.5642 28.2534C20.9522 27.9332 22.2141 27.5448 22.3687 27.3903C22.5232 27.2358 22.7162 26.7148 22.7977 26.2326C22.8819 25.7344 22.7496 25.2949 23.2001 25.0408C23.7084 24.7542 24.8967 24.6624 26.8115 24.2134C28.8638 23.7321 29.3687 23.5382 29.5101 23.1766C29.6058 22.932 29.8912 22.1911 30.1442 21.5301L30.6044 20.3283L32.1344 20.0983C32.9759 19.9717 36.658 19.3293 39.7642 18.8547C42.9546 18.3674 44.3238 18.0683 45.8544 17.949C46.4091 17.9058 46.9911 17.7355 47.4938 17.739C49.2047 17.7511 50.8702 18.3333 54.2308 18.8665C57.5715 19.3966 61.0023 19.9516 61.8548 20.0999L63.4049 20.3694L63.7132 21.4076C63.8827 21.9785 64.0808 22.7621 64.1533 23.1488L64.2852 23.8519L66.8772 24.3265C68.3028 24.5875 69.7578 24.9355 70.0184 25.0998C70.3061 25.2811 70.5453 25.8396 70.7433 26.5209L71.0696 27.6433L73.04 28.1546C74.1237 28.4358 75.7469 28.8907 76.6472 29.1656L78.284 29.6654L78.4325 30.8543C78.5142 31.5083 78.5273 34.1681 78.4616 36.765C78.3457 41.3428 78.1111 43.1557 77.1421 46.9588C77.0041 47.5003 77.0432 47.5351 77.9217 47.6503C78.4304 47.7171 79.6119 47.7962 80.5474 47.8261L82.2481 47.8805L82.8265 45.0033C83.619 41.0603 83.8407 39.1208 83.9958 34.7734C84.1506 30.4345 83.944 26.5811 83.5347 26.1717C83.3815 26.0185 81.4741 25.4311 79.296 24.8663L75.3358 23.8394L74.8534 22.3331L74.371 20.8267L70.9926 20.0349C69.1346 19.5995 67.5816 19.2104 67.5416 19.1704C67.5016 19.1305 67.235 18.2875 66.9491 17.2973C66.6632 16.307 66.2981 15.4245 66.1377 15.3362C65.9773 15.2479 61.6936 14.5163 56.6184 13.7105L47.3907 12.2452L40.8472 13.2628C32.3583 14.5828 27.8242 15.3412 27.6032 15.4778C27.5057 15.538 27.2579 16.2358 27.0527 17.0284C26.8475 17.821 26.735 18.6975 26.3757 18.9595C26.1495 19.1245 24.435 19.5146 22.6188 19.9624L19.3165 20.7767L19.1756 21.7543C19.0364 22.7206 19.1235 23.2493 18.6872 23.5561C18.2094 23.892 17.119 23.9766 14.7799 24.4415C12.5584 24.883 10.6791 25.3441 10.6037 25.466C10.253 26.0335 10.0654 33.0965 10.3027 36.7981C10.7733 44.1388 11.9493 49.6672 14.2703 55.4503C16.8538 61.8875 20.4604 67.378 25.6219 72.7316C30.4769 77.7673 35.4752 81.465 42.7388 85.3945C44.4293 86.309 46.1001 87.232 46.4518 87.4456C46.8034 87.6592 47.1546 87.8356 47.2321 87.8376C47.3096 87.8394 48.1728 87.4995 49.1502 87.0819V87.0819ZM52.4997 77.3132C56.9155 74.3873 60.414 71.2048 64.2312 66.6414C66.1729 64.3201 66.186 64.2968 66.0166 63.4445C65.9228 62.9724 65.8466 61.5311 65.8474 60.2417C65.8495 56.5305 66.9657 53.7827 69.5003 51.2481L70.4962 50.2522L69.8793 49.0739C69.54 48.4258 68.7265 47.3479 68.0715 46.6785L66.8806 45.4614L68.7022 44.1135C71.5908 41.9761 73.1064 40.4481 73.8638 38.9096C75.2259 36.1426 74.6309 34.2294 71.4128 31.0288C67.1114 26.7508 61.1938 23.772 53.4379 21.9807C50.431 21.2862 49.751 21.223 49.3716 21.6024C49.1752 21.7987 49.1158 28.5316 49.1158 50.61C49.1158 77.081 49.1433 79.3513 49.4627 79.2287C49.6535 79.1555 51.0201 78.2935 52.4997 77.3132V77.3132ZM45.7058 50.4532C45.7058 24.692 45.6721 21.7695 45.3709 21.4684C44.7075 20.805 40.7093 21.229 39.371 22.1046L38.897 22.4147L39.0116 40.0495C39.0844 51.2543 39.0522 57.5676 38.9232 57.3645C38.6209 56.8885 36.9268 51.4888 36.6834 49.0193C36.2749 44.8753 35.5891 41.7346 35.3762 32.2891C35.2613 27.1901 35.4159 24.0562 35.3515 23.8513C35.1565 23.2312 34.285 23.1759 32.8563 23.693C30.8733 24.4107 29.5525 25.1284 29.281 25.6359C28.9033 26.3415 29.1401 40.1255 29.6124 44.9302L29.9928 48.7998L29.3443 49.923L28.6958 51.0463L27.8388 48.3656C26.1696 43.1443 25.664 39.9355 25.2752 32.0945C25.1818 30.2108 25.0355 28.5564 24.95 28.4181C24.8645 28.2797 24.6431 28.1666 24.4579 28.1666C24.075 28.1666 21.0825 30.1352 19.8328 31.2092L19.0019 31.9233L19.2442 35.3198C19.8751 44.1629 21.4177 50.5778 24.1719 55.8111C25.1674 57.7028 27.4446 61.0639 28.0984 61.6065C28.366 61.8286 28.6811 61.4719 30.1381 59.2971C31.0858 57.8825 31.8995 56.7251 31.9464 56.7251C31.9933 56.7251 32.1962 57.2286 32.3973 57.844C32.899 59.379 34.6367 63.7161 35.5781 65.7829C37.4337 69.8567 38.5914 71.787 40.838 74.5533C42.0663 76.0657 45.2004 79.1031 45.5327 79.1031C45.6279 79.1031 45.7058 66.2107 45.7058 50.4532H45.7058ZM75.33 62.1481V58.1937L76.3266 58.2586L77.3233 58.3236L78.9126 62.2131L80.5018 66.1026H81.92H83.3383L83.8908 64.4509C84.1947 63.5424 85.0229 61.1448 85.7312 59.1228L87.019 55.4464H85.1539H83.2888L82.5628 57.9889C82.1515 59.4294 81.7677 60.4224 81.6771 60.28C81.5893 60.1417 81.1723 58.9976 80.7505 57.7375L79.9835 55.4464H74.8862H69.7888V56.9383V58.4301H70.8544H71.9201V62.2664V66.1026H73.625H75.33V62.1481Z" fill="black" stroke="black" stroke-width="1.21429"/>
<path d="M55.7227 36.7185V28.6182L57.1612 29.1102C62.1142 30.8044 66.1859 33.43 66.8147 35.3352C67.4575 37.283 65.4233 39.8034 61.2338 42.2502C59.7499 43.1169 57.1363 44.3725 56.2022 44.6675L55.7227 44.8189V36.7185Z" fill="black" stroke="black" stroke-width="1.21429"/>
<path d="M55.9445 58.9295L55.9358 51.2237L57.5875 50.5226C60.446 49.3093 62.5081 49.5888 63.3951 51.3097C63.9483 52.3829 63.7793 54.4536 62.9838 56.3497C61.8935 58.9482 59.1125 63.1427 56.7437 65.7615L55.9533 66.6354L55.9445 58.9295H55.9445Z" fill="black" stroke="black" stroke-width="1.21429"/>
</svg>
