<svg width="100" height="100" viewBox="0 0 100 100" fill="none" xmlns="http://www.w3.org/2000/svg">
<path d="M29.8453 91.0002L28.8318 85.6369H29.7835L30.4832 89.4963L31.2676 85.6369H32.4803L33.2269 89.4775L33.9446 85.6369H34.8091L33.7953 91.0002H32.594L31.8563 86.8875L31.049 91.0002H29.8453Z" fill="black"/>
<path d="M37.5933 88.3873C37.5993 86.9515 38.1543 85.6459 39.6674 85.6368C41.0962 85.6438 41.7355 86.844 41.7355 88.3272C41.7423 90.0276 40.8698 91.0214 39.6644 90.9999C38.2874 90.9997 37.6028 89.5372 37.5933 88.3873V88.3873ZM38.6102 88.3979C38.6102 89.3908 38.8549 90.2323 39.6615 90.2323C40.603 90.2209 40.7242 89.2267 40.7315 88.3237C40.7443 87.3466 40.5324 86.4346 39.6703 86.4337C38.7787 86.4354 38.6102 87.5087 38.6102 88.3979Z" fill="black"/>
<path d="M44.8743 88.3873C44.8803 86.9515 45.4353 85.6459 46.9484 85.6368C48.3772 85.6438 49.0166 86.844 49.0166 88.3272C49.0233 90.0276 48.1508 91.0214 46.9454 90.9999C45.5684 90.9997 44.8838 89.5372 44.8743 88.3873V88.3873ZM45.8912 88.3979C45.8912 89.3908 46.1359 90.2323 46.9425 90.2323C47.884 90.2209 48.0052 89.2267 48.0125 88.3237C48.0253 87.3466 47.8134 86.4346 46.9513 86.4337C46.0597 86.4354 45.8912 87.5087 45.8912 88.3979Z" fill="black"/>
<path d="M52.3655 91.0002V85.6368H53.3057V87.8392H54.8278V85.6368H55.7654V91.0002H54.8278V88.6454H53.3057V91.0002H52.3655Z" fill="black"/>
<path d="M59.1265 88.3873C59.1325 86.9515 59.6875 85.6459 61.2006 85.6368C62.6294 85.6438 63.2688 86.844 63.2688 88.3272C63.2755 90.0276 62.403 91.0214 61.1976 90.9999C59.8206 90.9997 59.136 89.5372 59.1265 88.3873V88.3873ZM60.1434 88.3979C60.1434 89.3908 60.3881 90.2323 61.1947 90.2323C62.1362 90.2209 62.2574 89.2267 62.2647 88.3237C62.2775 87.3466 62.0656 86.4346 61.2035 86.4337C60.3119 86.4354 60.1434 87.5087 60.1434 88.3979Z" fill="black"/>
<path d="M66.4075 88.3873C66.4135 86.9515 66.9685 85.6459 68.4816 85.6368C69.9104 85.6438 70.5498 86.844 70.5498 88.3272C70.5565 90.0276 69.684 91.0214 68.4786 90.9999C67.1016 90.9997 66.417 89.5372 66.4075 88.3873V88.3873ZM67.4244 88.3979C67.4244 89.3908 67.6691 90.2323 68.4757 90.2323C69.4172 90.2209 69.5384 89.2267 69.5457 88.3237C69.5586 87.3466 69.3466 86.4346 68.4845 86.4337C67.5929 86.4354 67.4244 87.5087 67.4244 88.3979Z" fill="black"/>
<path d="M15 8V81.6585H84.3816V8H15ZM18.3639 11.3903H80.9187V78.238H18.3639V11.3903Z" fill="black"/>
<path d="M27.546 34.1599L24.0316 15.5601H27.332L29.7583 28.9445L32.4788 15.5601H36.6842L39.2732 28.8791L41.7624 15.5601H44.7604L41.2445 34.1599H37.0785L34.52 19.8973L31.7206 34.1599H27.546Z" fill="black"/>
<path d="M43.3395 45.6106C43.3614 40.429 45.3643 35.7173 50.8247 35.6843C55.9811 35.7095 58.2886 40.0411 58.2886 45.3937C58.3129 51.5303 55.1641 55.1166 50.814 55.0393C45.8447 55.0385 43.3738 49.7606 43.3395 45.6106V45.6106ZM47.0095 45.6489C47.0095 49.2322 47.8927 52.2691 50.8034 52.2691C54.2012 52.228 54.6388 48.6401 54.6651 45.3809C54.7114 41.8548 53.9463 38.5634 50.8354 38.5604C47.6177 38.5664 47.0095 42.4399 47.0095 45.6489Z" fill="black"/>
<path d="M60.4009 64.6685C60.4228 59.487 62.4257 54.7752 67.8861 54.7422C73.0425 54.7674 75.35 59.0991 75.35 64.4516C75.3743 70.5882 72.2255 74.1745 67.8754 74.0972C62.9061 74.0964 60.4352 68.8185 60.4009 64.6685V64.6685ZM64.0709 64.7068C64.0709 68.2902 64.9541 71.327 67.8648 71.327C71.2626 71.286 71.7002 67.698 71.7265 64.4389C71.7728 60.9128 71.0077 57.6213 67.8968 57.6184C64.6791 57.6243 64.0709 61.4978 64.0709 64.7068Z" fill="black"/>
<path d="M61.7786 34.2145V15.5601H65.1861V23.2203H70.7027V15.5601H74.1008V34.2145H70.7027V26.0243H65.1861V34.2145H61.7786Z" fill="black"/>
<path d="M26.4227 64.6685C26.4446 59.487 28.4476 54.7752 33.9079 54.7422C39.0643 54.7674 41.3718 59.0991 41.3718 64.4516C41.3962 70.5882 38.2474 74.1745 33.8973 74.0972C28.9279 74.0964 26.457 68.8185 26.4227 64.6685V64.6685ZM30.0927 64.7068C30.0927 68.2902 30.976 71.327 33.8866 71.327C37.2844 71.286 37.7221 67.698 37.7484 64.4389C37.7946 60.9128 37.0296 57.6213 33.9186 57.6184C30.7009 57.6243 30.0927 61.4978 30.0927 64.7068Z" fill="black"/>
</svg>
