<svg width="100" height="100" viewBox="0 0 100 100" fill="none" xmlns="http://www.w3.org/2000/svg">
<path d="M43.6858 14.3776C33.6506 15.0654 23.7899 19.2629 17.0587 25.7058C11.4665 31.0665 8.27531 37.2364 7.12608 44.9234C6.81826 47.0272 6.78747 51.6596 7.07478 53.5713C8.26505 61.41 12.0103 67.5293 19.3982 73.7497C19.901 74.1644 20.5679 74.6802 20.886 74.8926C21.2041 75.105 21.5735 75.3882 21.7171 75.5096C22.0865 75.8535 23.8514 77.0875 23.9643 77.0875C24.0156 77.0875 24.19 77.1886 24.3542 77.3201C24.7133 77.6033 25.6676 78.1697 26.5193 78.6047C26.8681 78.7867 27.176 78.9688 27.2067 79.0092C27.2375 79.0598 28.1508 79.5251 29.2384 80.051C30.8904 80.8501 31.7934 81.2547 33.6711 82.0436C33.784 82.0942 34.2355 82.256 34.6767 82.4077C35.1179 82.5594 35.4976 82.7213 35.5284 82.7617C35.5592 82.8123 35.6925 82.8528 35.8362 82.8528C35.9799 82.8528 36.2159 82.9134 36.3698 82.9944C36.5237 83.0652 36.8418 83.1663 37.0778 83.2068C37.324 83.2472 37.5395 83.318 37.5806 83.3686C37.6113 83.4192 37.755 83.4596 37.9089 83.4596C38.0628 83.4697 38.2988 83.5304 38.4425 83.6113C38.5861 83.6923 38.8427 83.7529 39.0068 83.7631C39.1813 83.7631 39.366 83.8035 39.4173 83.844C39.5507 83.9552 40.7615 84.38 40.8743 84.3598C40.9154 84.3497 41.0795 84.3902 41.2232 84.4508C41.3669 84.5115 41.7875 84.6127 42.1467 84.6835C42.5058 84.7442 42.8444 84.8453 42.906 84.8858C42.9573 84.9363 43.142 84.9768 43.3267 84.9768C43.5011 84.9768 43.8295 85.0577 44.045 85.1487C44.2707 85.2398 44.6093 85.3308 44.8043 85.3409C44.9992 85.3611 45.3686 85.4117 45.6251 85.4724C47.8826 85.9377 51.1045 86.14 55.0139 86.059C58.5539 85.9781 61.0473 85.7455 63.9922 85.2297C64.4745 85.1386 65.1209 85.0375 65.4288 84.9869C65.9829 84.8959 66.8756 84.7037 67.1731 84.6026C67.2552 84.5722 67.4912 84.5419 67.6862 84.5216C67.8811 84.5014 68.3326 84.4003 68.6815 84.2789C69.0304 84.1575 69.41 84.0665 69.5229 84.0665C69.6358 84.0665 69.7589 84.0159 69.7897 83.9653C69.8204 83.9047 70.0051 83.8642 70.1898 83.8642C70.3745 83.8642 70.7542 83.7833 71.0312 83.672C71.8213 83.3787 72.2215 83.2472 72.5909 83.1562C72.7756 83.1157 72.9808 83.0348 73.0526 82.9741C73.1245 82.9236 73.3502 82.8426 73.576 82.8123C73.7914 82.7718 74.1608 82.6505 74.3968 82.5493C74.6226 82.4482 75.1664 82.2257 75.5871 82.0436C76.7363 81.5682 76.8595 81.5176 78.2549 80.8299C78.963 80.486 79.6094 80.1421 79.6915 80.0713C79.7736 79.9903 79.9583 79.8791 80.1019 79.8184C80.4405 79.6667 80.6765 79.5352 81.3332 79.08C82.3388 78.4024 82.4106 78.3518 82.4414 78.2709C82.4619 78.2304 82.5235 78.2001 82.5645 78.2001C82.6158 78.2001 82.8313 78.0382 83.0468 77.8461C83.2623 77.6539 83.4778 77.4921 83.5188 77.4921C83.6009 77.4921 84.0216 77.1279 85.0066 76.1974C85.3247 75.9142 85.612 75.6715 85.6633 75.6715C85.7044 75.6715 85.7454 75.6108 85.7454 75.5299C85.7454 75.4489 85.8173 75.368 85.8993 75.3276C85.9814 75.2972 86.0533 75.2062 86.0533 75.1152C86.0533 75.0342 86.1148 74.9634 86.1764 74.9634C86.279 74.9634 86.8228 74.4375 87.6334 73.5474C87.9618 73.1833 88.9366 71.8178 89.0495 71.5549C89.1213 71.4031 89.2342 71.2312 89.306 71.1907C89.3778 71.1503 89.4394 71.0491 89.4394 70.9682C89.4394 70.8974 89.4804 70.8165 89.5215 70.7963C89.6241 70.7659 89.7062 70.6142 90.3936 69.2589C90.6604 68.7228 90.8759 68.2272 90.8759 68.1564C90.8759 68.0856 90.9169 67.9844 90.9683 67.9237C91.0196 67.8732 91.1119 67.6507 91.1735 67.4281C91.2453 67.2056 91.3376 66.9325 91.389 66.8213C91.5429 66.447 91.902 65.2029 91.902 65.031C91.902 64.94 91.9533 64.8287 92.0046 64.7984C92.0662 64.768 92.1072 64.6264 92.1072 64.4949C92.1072 64.3634 92.1483 64.151 92.1996 64.0196C92.6716 62.8058 92.9897 56.9495 92.7229 54.3804C92.6716 53.8747 92.5279 52.9644 92.415 52.3575C92.3022 51.7405 92.1072 50.7392 91.9943 50.1323C91.5736 47.7959 90.5065 44.448 89.3983 41.9902C82.9955 27.7894 67.1218 16.4511 50.9608 14.5192C49.4012 14.3371 45.4302 14.2562 43.6858 14.3776ZM60.0007 23.4806C60.6779 23.6121 61.8887 24.1684 62.5865 24.664C64.1769 25.8171 65.7982 28.9627 66.3523 32.0072C66.7729 34.2728 66.7319 35.9114 66.1778 38.3489C65.1517 42.9207 62.8225 45.8337 59.6416 46.5114C58.9644 46.653 58.7386 46.6631 58.1127 46.5619C57.1482 46.4001 56.0195 45.864 55.373 45.2673C54.3675 44.3367 53.2388 42.3239 52.6026 40.2909C52.2332 39.1075 51.9869 38.9052 51.9869 39.7852C51.9869 40.0785 51.9151 40.736 51.833 41.2316C51.2687 44.711 49.709 46.9463 47.39 47.6543C46.5691 47.9072 45.266 47.9173 44.4862 47.6947C43.2446 47.3306 41.6644 46.3394 40.9462 45.4696C40.7409 45.2268 40.5152 45.0245 40.4434 45.0245C40.3613 45.0245 40.2792 45.2066 40.2381 45.4493C39.879 47.6138 36.5647 49.6266 32.6143 50.0818C30.9828 50.2638 29.1461 49.8694 28.1405 49.1209C27.9455 48.9793 27.689 48.6253 27.5556 48.332C27.3504 47.8869 27.3094 47.6543 27.3196 46.7946C27.3299 45.5909 27.5556 44.5896 28.2328 42.7993C28.4894 42.1014 28.7356 41.4642 28.7562 41.3732C28.8075 41.2316 28.6741 41.2012 27.7506 41.1608C26.8784 41.1203 26.5808 41.0698 26.0473 40.827C24.8673 40.3112 24.426 39.502 24.7544 38.4804C25.37 36.5587 28.3252 34.4448 31.5779 33.585C32.7066 33.2816 34.7588 33.2614 35.4668 33.5243C36.5442 33.939 37.1086 34.6673 37.3035 35.9417C37.4985 37.1656 36.9341 39.5222 35.9183 41.6766C35.3847 42.7993 35.3437 43.0522 35.7233 42.9612C36.0825 42.8701 37.9705 43.2646 38.6374 43.568C39.2531 43.8411 39.5712 43.8816 39.5712 43.6692C39.5712 43.5984 39.407 43.1837 39.2121 42.7488C38.8427 41.9497 38.463 40.8472 38.2167 39.8661C37.991 38.9558 38.0526 36.6699 38.3296 35.5169C38.8324 33.4434 39.407 32.1285 40.3818 30.8339C41.7875 28.9728 44.0655 27.8198 45.697 28.1232C46.3639 28.2547 47.4926 28.8009 48.0878 29.2965C49.1549 30.1764 50.4067 32.1791 51.1147 34.1413C51.5765 35.4157 51.7304 35.4056 51.8228 34.0806C52.1101 29.9843 53.8031 26.0497 55.9579 24.4719C57.2508 23.5413 58.5642 23.2177 60.0007 23.4806ZM69.4408 47.3407C70.5285 47.6138 71.9034 48.2308 72.9706 48.9085C74.0787 49.6165 75.6384 51.1337 76.3567 52.1957C76.9518 53.0858 77.5777 54.4917 77.8137 55.4323C78.6859 59.0129 75.8436 63.1194 71.9342 63.9083C70.9184 64.1106 69.9025 63.9892 68.7738 63.5341C66.9576 62.7856 65.7161 61.5718 64.2795 59.1545C63.9615 58.6184 63.6331 58.497 63.7254 58.9522C63.8794 59.7209 63.8896 60.4491 63.787 61.4606C63.4689 64.5657 62.2376 66.9022 60.2265 68.1968C58.2256 69.4814 55.9887 69.3499 53.8134 67.8327C52.7257 67.0741 51.3097 65.4255 50.6633 64.1612C50.5401 63.9285 50.3657 63.7363 50.2836 63.7363C50.0989 63.7363 50.0989 63.7869 50.3965 65.3547C50.6427 66.6898 50.5709 68.5913 50.2426 69.451C49.7706 70.6648 49.0626 71.3829 48.0262 71.6863C47.5337 71.8279 47.4516 71.8178 46.9283 71.6459C45.9843 71.3323 45.2147 70.8165 44.1065 69.7241C43.0907 68.7329 42.7521 68.5407 42.7521 68.9453C42.7521 69.0262 42.6084 69.5421 42.434 70.0781C41.7978 72.0505 40.8948 73.3653 39.9919 73.6384C39.4481 73.7902 38.7811 73.6182 37.8371 73.072C37.0778 72.627 35.7439 71.5144 35.3334 70.9783C34.9127 70.4321 34.7075 70.4928 34.5433 71.1907C34.3484 72.101 33.7635 73.6182 33.3941 74.2251C32.7271 75.3276 31.7216 75.9041 30.7776 75.722C30.3363 75.6411 29.5052 75.2466 29.0435 74.8926C28.6228 74.5791 27.9968 73.6991 27.4941 72.6877C25.2572 68.2778 24.6518 59.9636 26.2422 55.5537C26.8989 53.7129 27.8942 52.4688 29.1461 51.8923C30.4389 51.2955 31.1572 51.3764 33.312 52.3676C33.9687 52.6711 34.6049 52.9138 34.728 52.9138C34.8717 52.9138 35.2308 52.5902 35.8259 51.9226C36.9239 50.6988 37.519 50.2234 38.227 50.0211C39.9714 49.5052 42.7008 50.7493 44.5375 52.8835C45.4404 53.9354 46.7538 55.9381 47.6055 57.5665C48.0878 58.4869 48.4469 59.0432 48.5495 59.0736C48.7137 59.1039 48.7239 59.0533 48.6624 58.7196C48.5187 57.8295 48.4777 55.6447 48.5906 54.5827C48.7547 53.0554 48.9497 52.307 49.473 51.2348C50.0476 50.0615 50.8172 49.2423 51.7304 48.8377C52.8796 48.332 54.0391 48.2409 55.291 48.5545C58.1025 49.2625 60.4317 51.2551 62.094 54.3501C62.5249 55.1491 62.7301 55.4425 62.8738 55.4425C63.0482 55.4425 63.0585 55.3818 63.0072 54.8558C62.9148 53.9961 63.1303 51.953 63.4279 50.9415C63.982 49.0501 65.203 47.6745 66.6601 47.2902C67.3578 47.098 68.5789 47.1182 69.4408 47.3407Z" fill="#800080"/>
</svg>
