<svg width="48" height="48" viewBox="0 0 48 48" fill="none" xmlns="http://www.w3.org/2000/svg">
<rect x="1" y="1" width="46" height="46" rx="23" fill="white" stroke="#F8F8F8" stroke-width="2"/>
<mask id="mask0_920_717" style="mask-type:alpha" maskUnits="userSpaceOnUse" x="12" y="18" width="24" height="13">
<path fill-rule="evenodd" clip-rule="evenodd" d="M12.0001 18.0001H36.0001V30.4616H12.0001V18.0001Z" fill="white"/>
</mask>
<g mask="url(#mask0_920_717)">
<path fill-rule="evenodd" clip-rule="evenodd" d="M29.9363 28.1258L31.8735 30.461L35.9897 30.4602L35.9904 27.4079L30.5289 27.4064C30.1054 27.8924 30.0897 27.9513 29.9363 28.1258ZM26.7278 18.0014C27.6967 18.5002 28.2587 19.461 28.2587 20.6342V20.6341C28.2587 21.6179 27.7515 22.2798 26.9807 22.8522C26.9807 22.8522 26.403 23.2994 26.088 23.5141L28.5723 26.5053C28.6426 26.4091 29.4424 25.4504 29.4424 25.4504H35.5944V22.7799H29.4424V20.8762L35.9994 20.8719L36.0001 18.0007L26.7278 18.0014ZM23.0763 26.7676C23.0763 27.8238 24.0558 28.7785 25.1057 28.7785C25.8412 28.7785 26.3843 28.5467 26.962 28.0279L24.337 24.8176C23.5829 25.3544 23.0763 25.8551 23.0763 26.7676ZM20.3229 25.1578L19.115 21.4688L17.8775 25.1578H20.3229ZM21.7452 20.5981C21.7452 21.8147 22.4815 22.709 22.988 23.2993C21.9038 24.0328 20.747 25.0882 20.747 26.7153C20.747 27.2467 20.8212 27.7259 20.9626 28.1531L17.0229 28.1494L16.2097 30.4618L12.0001 30.4602L16.976 18.0001L23.3103 18.0007C22.3086 18.4919 21.7452 19.431 21.7452 20.5981ZM24.7935 22.083C24.356 21.5642 23.972 21.1168 23.972 20.6519C23.972 20.0616 24.3215 19.6144 25.0046 19.6144C25.6524 19.6144 26.037 20.0614 26.037 20.6519C26.037 21.099 25.7229 21.4388 25.3203 21.7251C25.3203 21.7251 24.9695 21.9756 24.7935 22.083Z" fill="black"/>
</g>
</svg>
