<svg width="48" height="48" viewBox="0 0 48 48" fill="none" xmlns="http://www.w3.org/2000/svg">
<rect x="1" y="1" width="46" height="46" rx="23" fill="white" stroke="#F8F8F8" stroke-width="2"/>
<path d="M35.5153 31.301H9.28146C8.52443 31.301 7.93144 30.652 8.0064 29.9045L9.34553 18.145C9.37863 17.83 9.52741 17.5384 9.76304 17.3268C9.99867 17.1153 10.3044 16.9988 10.6209 17H36.8538C37.6121 17 38.2048 17.648 38.1301 18.3955L36.7917 30.1553C36.7588 30.4707 36.6099 30.7626 36.3741 30.9743C36.1382 31.186 35.8321 31.3024 35.5153 31.301Z" fill="#335A45"/>
<path d="M14.0918 18.3147C14.4747 18.3104 14.8537 18.3909 15.2019 18.5504C15.5261 18.6984 15.8156 18.9131 16.0515 19.1804C16.284 19.4496 16.4561 19.7656 16.5561 20.1071C16.6635 20.4759 16.6893 20.8637 16.6317 21.2435L15.4543 29.6766H14.0748L14.4955 26.6798H11.3668L10.9474 29.6782H9.60187L10.7792 21.2451C10.8334 20.8445 10.9644 20.4581 11.1649 20.1071C11.3633 19.7577 11.6192 19.4444 11.922 19.1804C12.223 18.918 12.5636 18.7049 12.9311 18.5491C13.2982 18.3932 13.693 18.3134 14.0918 18.3147ZM11.5519 25.3177H14.6806L15.2525 21.2557C15.3087 20.8196 15.2077 20.4475 14.9497 20.1395C14.6917 19.8315 14.344 19.6775 13.9066 19.6778C13.6868 19.6766 13.4689 19.7194 13.2659 19.8038C13.0689 19.8846 12.887 19.9981 12.7277 20.1395C12.5676 20.283 12.4338 20.4533 12.3324 20.6429C12.2276 20.8336 12.1565 21.0408 12.1222 21.2557L11.5519 25.3177Z" fill="white"/>
<path d="M19.0206 29.6782C18.64 29.6832 18.2632 29.6022 17.9182 29.4413C17.5986 29.2929 17.3146 29.0776 17.0853 28.8099C16.856 28.5369 16.6869 28.2185 16.589 27.8756C16.4814 27.5039 16.4556 27.1134 16.5134 26.7308L17.2874 21.2436C17.3425 20.8434 17.4741 20.4575 17.6751 20.1072C17.8748 19.7564 18.1305 19.4408 18.4321 19.1728C18.7302 18.9064 19.0715 18.6929 19.4413 18.5415C19.8094 18.3905 20.2035 18.3135 20.6013 18.3148C20.9807 18.3096 21.3566 18.3872 21.7031 18.5421C22.0265 18.6879 22.3138 18.9032 22.5447 19.1728C22.7759 19.4457 22.9476 19.764 23.0486 20.1072C23.1562 20.4759 23.1821 20.8638 23.1245 21.2436L22.99 22.1696H21.6275L21.762 21.25C21.8178 20.8152 21.7168 20.4444 21.4593 20.1376C21.2017 19.8309 20.854 19.6776 20.4161 19.6778C20.1968 19.6769 19.9796 19.7197 19.777 19.8038C19.5801 19.885 19.3981 19.9987 19.2388 20.1402C19.0787 20.2837 18.9449 20.4542 18.8435 20.6439C18.7388 20.8348 18.6677 21.0423 18.6333 21.2574L17.8593 26.7353C17.8033 27.1842 17.9044 27.5595 18.1624 27.8611C18.4204 28.1627 18.768 28.3139 19.2052 28.3145H20.7695L21.2741 24.6614H19.2878L19.4896 23.2976H22.8384L21.9469 29.6786L19.0206 29.6782Z" fill="white"/>
<path d="M24.4365 26.6647L24.0158 29.6788H22.6703L24.2683 18.2974H26.7072C27.0705 18.2935 27.4303 18.3689 27.7615 18.5184C28.0928 18.668 28.3874 18.888 28.6249 19.1631C28.8539 19.4363 29.0229 19.7547 29.1209 20.0975C29.2282 20.4692 29.2541 20.8596 29.1968 21.2422L28.8444 23.734C28.7719 24.2904 28.5608 24.8197 28.2306 25.2731C27.8995 25.7278 27.4649 26.0841 26.9267 26.3422L28.3398 29.6769H26.7575L25.5129 26.6628L24.4365 26.6647ZM24.6213 25.301H25.7163C25.9293 25.3012 26.1405 25.2614 26.3388 25.1836C26.5398 25.1058 26.725 24.9921 26.8854 24.8479C27.0444 24.7052 27.1797 24.5379 27.2861 24.3525C27.3944 24.1636 27.4658 23.9557 27.4966 23.7401L27.849 21.2557C27.8836 21.0516 27.8727 20.8423 27.817 20.6429C27.7652 20.4545 27.6734 20.2795 27.5479 20.1299C27.4233 19.9839 27.2684 19.8669 27.0939 19.7871C26.9094 19.7022 26.7084 19.6592 26.5054 19.6614H25.412L24.6213 25.301Z" fill="white"/>
<path d="M34.9662 26.7478C34.91 27.1515 34.7758 27.5405 34.5709 27.8928C34.3694 28.2446 34.1107 28.5604 33.8055 28.8272C33.5035 29.0905 33.1595 29.3011 32.7877 29.4502C32.4163 29.6007 32.0193 29.6778 31.6187 29.6772C31.2393 29.6823 30.8634 29.6048 30.5169 29.4502C30.1952 29.3054 29.9083 29.0929 29.676 28.8272C29.4425 28.557 29.2729 28.2376 29.1797 27.8928C29.0777 27.52 29.0547 27.13 29.1121 26.7478L29.8858 21.2595C29.9415 20.8568 30.0728 20.4683 30.2728 20.1145C30.4696 19.7618 30.7257 19.4459 31.0299 19.1804C31.331 18.9181 31.6717 18.705 32.0393 18.5491C32.4064 18.3932 32.8013 18.3134 33.2 18.3147C33.5829 18.3104 33.9619 18.3909 34.3101 18.5504C34.6343 18.6983 34.9237 18.913 35.1594 19.1804C35.3931 19.4518 35.5653 19.7705 35.6643 20.1148C35.7716 20.4866 35.7973 20.8772 35.7399 21.2598L34.9662 26.7478ZM34.3774 21.2739C34.4335 20.8377 34.3298 20.4625 34.0663 20.1485C33.8027 19.8344 33.4523 19.6775 33.0148 19.6778C32.801 19.6779 32.5894 19.7207 32.3924 19.8038C32.192 19.8869 32.0072 20.0035 31.8458 20.1485C31.5196 20.4431 31.3031 20.84 31.2317 21.2739L30.4577 26.7519C30.4229 26.9477 30.432 27.1488 30.4843 27.3406C30.5367 27.5324 30.631 27.7102 30.7604 27.861C30.8838 28.0067 31.0393 28.1218 31.2147 28.1971C31.4006 28.2767 31.601 28.3166 31.8032 28.3144C32.0189 28.3139 32.2326 28.2741 32.434 28.1971C32.6381 28.1205 32.8262 28.0066 32.9886 27.861C33.1485 27.7183 33.2848 27.5509 33.3922 27.3653C33.5005 27.176 33.5719 26.9679 33.6027 26.7519L34.3774 21.2739Z" fill="white"/>
<path d="M40.7056 25.2432H38.3266L37.9892 27.7879H35.8645L36.2016 25.2432H33.8286L34.1227 23.0227H36.4957L36.8301 20.4985H38.9551L38.6207 23.0227H41L40.7056 25.2432Z" fill="#88BC51"/>
</svg>
