<svg width="48" height="48" viewBox="0 0 48 48" fill="none" xmlns="http://www.w3.org/2000/svg">
<rect x="1" y="1" width="46" height="46" rx="23" fill="white" stroke="#F8F8F8" stroke-width="2"/>
<path fill-rule="evenodd" clip-rule="evenodd" d="M12 31H36V17H12V31Z" fill="black"/>
<path d="M30.1046 26.9185C31.7253 26.9185 32.5651 25.646 32.7362 24.5608L31.479 24.5625C31.4402 24.7185 31.1783 25.7363 30.1988 25.7363C30.1856 25.7363 30.0295 25.7363 30.0129 25.7354C29.293 25.7124 28.7037 25.097 28.7037 23.8832C28.7037 22.9516 29.1575 22.1146 30.0245 22.0933H30.1988C31.0948 22.0933 31.4096 23.0564 31.4288 23.1153L32.6832 23.1195C32.4393 21.9169 31.5237 20.9349 30.1369 20.9349C28.5815 20.9349 27.4756 22.2536 27.4756 23.9232C27.4756 25.8335 28.6509 26.9185 30.1046 26.9185Z" fill="white"/>
<path d="M22.3347 26.7519H21.0528V21.111H23.0107L24.0455 25.1775C24.1248 24.7855 25.0736 21.111 25.0736 21.111H27.0448V26.7519H25.7578V22.6128C25.7307 22.7339 24.6381 26.7519 24.6381 26.7519H23.4562L22.3347 22.6033V26.7519Z" fill="white"/>
<path fill-rule="evenodd" clip-rule="evenodd" d="M15.6562 24.3983C15.5463 24.6217 15.4818 24.8765 15.4818 25.1526C15.4818 26.1073 16.2182 26.8848 17.438 26.8848C18.1826 26.8848 18.7571 26.5624 19.0364 26.3187C19.0364 26.3788 19.0498 26.5256 19.0612 26.6506C19.0645 26.687 19.0677 26.7216 19.0703 26.7517H20.3893C20.3752 26.2021 20.3697 26.1454 20.3675 26.0885C20.3662 26.0522 20.3662 26.0159 20.3662 25.8516V22.9117C20.3662 22.3126 20.3555 21.791 19.7175 21.3921C19.243 21.1031 18.6165 21.0366 18.0968 21.0366C17.7512 21.0366 16.4669 21.0366 15.9471 22.0024C15.7793 22.3169 15.7545 22.5462 15.7322 22.8147V22.8164L17.0603 22.8147C17.0619 22.691 17.0785 22.564 17.19 22.4234C17.3206 22.2461 17.6108 22.0689 18.152 22.0689C19.2175 22.0689 19.0604 23.1718 19.0604 23.1718C19.0604 23.1718 18.5282 23.1786 17.395 23.3227C16.8719 23.3892 16.0455 23.5997 15.6562 24.3983ZM17.7305 25.7417C17.2124 25.7417 16.8553 25.5202 16.8553 25.0862C16.8553 24.4998 17.3918 24.3676 17.8561 24.3071C18.4405 24.2329 19.0703 24.2107 19.0703 24.2107V24.5986C19.0703 24.7657 19.0703 24.9311 18.9943 25.0973C18.8538 25.4305 18.3893 25.7417 17.7305 25.7417Z" fill="white"/>
</svg>
