<svg width="48" height="48" viewBox="0 0 48 48" fill="none" xmlns="http://www.w3.org/2000/svg">
<rect x="1" y="1" width="46" height="46" rx="23" fill="white" stroke="#F8F8F8" stroke-width="2"/>
<path fill-rule="evenodd" clip-rule="evenodd" d="M39.5173 32.9433C39.8298 32.9433 40 32.8742 40 32.8742L39.9341 32.3214C39.9341 32.3214 39.8036 32.3555 39.7022 32.3555C39.4762 32.3555 39.399 32.2628 39.399 32.0728V31.1439H39.9298V30.5467H39.399V29.9938H38.6248V30.5467H38.2799V31.1439H38.6248V32.1171C38.6248 32.6558 38.9341 32.9433 39.5173 32.9433ZM36.9149 31.0187C36.6952 31.0187 36.4504 31.1884 36.4229 31.4541H37.4117C37.377 31.2069 37.1834 31.0187 36.9149 31.0187ZM35.6363 31.7057C35.6363 30.9284 36.1576 30.4602 36.8818 30.4602C37.8118 30.4602 38.1399 31.1251 38.1162 31.9186H36.4353C36.4863 32.127 36.6766 32.3567 37.085 32.3567C37.41 32.3567 37.6959 32.2102 37.6959 32.2102L37.8659 32.7604C37.8659 32.7604 37.447 32.9498 37.0227 32.9498C36.163 32.9498 35.6363 32.4658 35.6363 31.7057ZM35.3294 32.869V31.3651C35.3294 30.8609 35.1135 30.4582 34.4783 30.4582C33.9162 30.4582 33.6618 30.8513 33.6618 30.8513V30.5467H32.8966V32.869H33.6618V31.7189C33.6618 31.327 33.873 31.0779 34.1613 31.0779C34.4131 31.0779 34.5642 31.239 34.5642 31.6305V32.869H35.3294ZM26.2395 31.7001C26.2395 32.0527 26.5143 32.2931 26.8255 32.2931C27.1218 32.2931 27.4282 32.0929 27.4282 31.7043C27.4282 31.3967 27.1746 31.1016 26.8255 31.1016C26.4817 31.1016 26.2395 31.4427 26.2395 31.7001ZM26.2616 30.8348C26.2616 30.8348 26.52 30.4602 27.0495 30.4602C27.7732 30.4602 28.223 31.0445 28.223 31.6877C28.223 32.4286 27.6867 32.9526 27.0371 32.9526C26.5582 32.9526 26.2616 32.6042 26.2616 32.6042V33.7979H25.5013V30.5473H26.2616V30.8348ZM29.3039 32.8691H28.5298V29.6178H29.3039V32.8691ZM30.4239 31.7043C30.4239 32.0929 30.7303 32.2931 31.0265 32.2931C31.3379 32.2931 31.6127 32.0527 31.6127 31.7001C31.6127 31.4427 31.3704 31.1016 31.0265 31.1016C30.6776 31.1016 30.4239 31.3967 30.4239 31.7043ZM30.8027 30.4602C31.3321 30.4602 31.5905 30.8348 31.5905 30.8348V30.5473H32.3509V32.8696H31.5905V32.6042C31.5905 32.6042 31.2938 32.9526 30.8151 32.9526C30.1653 32.9526 29.6291 32.4286 29.6291 31.6877C29.6291 31.0445 30.0789 30.4602 30.8027 30.4602ZM23.9666 32.8691H23.1925V29.6178H23.9666V32.8691ZM20.7223 31.7043C20.7223 32.0929 21.0288 32.2931 21.3251 32.2931C21.6363 32.2931 21.9111 32.0527 21.9111 31.7001C21.9111 31.4427 21.669 31.1016 21.3251 31.1016C20.976 31.1016 20.7223 31.3967 20.7223 31.7043ZM21.1011 30.4602C21.6305 30.4602 21.889 30.8348 21.889 30.8348V30.5473H22.6493V32.8696H21.889V32.6042C21.889 32.6042 21.5924 32.9526 21.1135 32.9526C20.4639 32.9526 19.9275 32.4286 19.9275 31.6877C19.9275 31.0445 20.3773 30.4602 21.1011 30.4602ZM19.6265 32.869V31.3209C19.6265 30.8224 19.3321 30.4559 18.7295 30.4559C18.087 30.4559 17.8371 30.8432 17.8371 30.8432C17.7159 30.6097 17.4841 30.4582 17.0945 30.4582C16.5323 30.4582 16.278 30.8513 16.278 30.8513V30.5467H15.5128V32.869H16.278V31.7189C16.278 31.327 16.4891 31.0779 16.7775 31.0779C17.0292 31.0779 17.1804 31.239 17.1804 31.6305V32.869H17.9457V31.7632C17.9457 31.3326 18.1675 31.0706 18.458 31.0706C18.7423 31.0706 18.8613 31.3284 18.8613 31.6305V32.869H19.6265ZM14.5924 30.1355C14.8409 30.1355 15.0423 29.934 15.0423 29.6855C15.0423 29.4369 14.8409 29.2355 14.5924 29.2355C14.3439 29.2355 14.1423 29.437 14.1423 29.6855C14.1423 29.934 14.3439 30.1355 14.5924 30.1355ZM14.9732 32.869H14.1991V30.5467H14.9732V32.869ZM13.6992 32.869V31.3651C13.6992 30.8609 13.4833 30.4582 12.8481 30.4582C12.286 30.4582 12.0316 30.8513 12.0316 30.8513V30.5467H11.2664V32.869H12.0316V31.7189C12.0316 31.327 12.2428 31.0779 12.531 31.0779C12.7829 31.0779 12.934 31.239 12.934 31.6305V32.869H13.6992ZM9.17359 30.4602C9.70311 30.4602 9.96152 30.8348 9.96152 30.8348V30.5473H10.7218V32.8696H9.96152V32.6042C9.96152 32.6042 9.66476 32.9526 9.18603 32.9526C8.53638 32.9526 8 32.4286 8 31.6877C8 31.0445 8.44978 30.4602 9.17359 30.4602ZM8.79479 31.7043C8.79479 32.0929 9.10121 32.2931 9.39746 32.2931C9.70883 32.2931 9.98362 32.0527 9.98362 31.7001C9.98362 31.4427 9.74133 31.1016 9.39746 31.1016C9.04851 31.1016 8.79479 31.3967 8.79479 31.7043Z" fill="black"/>
<path fill-rule="evenodd" clip-rule="evenodd" d="M25.9158 15V18.6851C25.9158 18.6851 26.4881 19.1535 26.7603 19.5295C25.3584 18.615 23.869 18.2307 22.0578 18.2307C19.0765 18.2307 16.3619 19.6121 15.0217 21.8984L15.1948 22.2235C15.1948 22.2235 15.7779 21.5224 17.1252 20.8348C15.6536 22.2865 15.0372 23.4446 14.1323 26.1149L15.5676 27.5445C17.4457 25.4432 20.2089 24.0547 23.3281 24.0547C26.2796 24.0547 28.9975 25.3757 30.6965 27.1318L32.2428 25.581C31.376 24.0977 30.2504 22.7295 29.3558 21.7797C30.2814 22.3082 31.7592 22.6105 33.1709 22.6105C35.6405 22.6105 37.4551 21.2809 37.4551 19.4703C37.4551 17.2401 35.5429 15.8829 32.424 15.3669L31.9198 16.213C33.4893 16.4928 35.9311 17.4063 35.9311 19.0383C35.9311 19.9336 35.2386 20.6844 34.2408 20.6844C33.0076 20.6844 31.9835 19.3093 31.3611 18.0949L30.4088 18.0719C29.3156 16.7192 27.5485 15.3992 25.9158 15Z" fill="#0074FF"/>
</svg>
