<svg width="48" height="48" viewBox="0 0 48 48" fill="none" xmlns="http://www.w3.org/2000/svg">
<rect x="1" y="1" width="46" height="46" rx="23" fill="white" stroke="#F8F8F8" stroke-width="2"/>
<path fill-rule="evenodd" clip-rule="evenodd" d="M33.4109 20.7925C35.1509 20.9538 37.1165 19.9549 37.181 18.2469H39.7589V30.524H36.4074V22.9837H33.5717C34.313 23.8538 34.7319 25.1429 34.6031 26.7864L28.3194 26.7541C28.2551 29.2997 31.413 29.2672 31.8962 27.8816H34.5063C33.733 31.2005 28.5773 31.7485 26.3218 29.0738V30.3952C22.8738 30.556 21.7783 30.3629 21.8103 27.8816V23.9504C20.1671 23.7896 19.1359 24.9493 19.1682 26.1096V30.4274H14.1093L14.0125 29.5893C12.9815 30.4917 12.5301 30.7496 11.1125 30.7173C9.66232 30.7818 8.05112 30.105 8.11539 28.0429C8.08339 26.1738 9.33992 25.304 12.6269 25.1429C14.1735 25.0461 14.077 24.0472 13.7226 23.6605C13.3359 23.2093 11.5311 22.8552 11.1125 24.3373H8.47032C8.53459 21.7914 11.2413 21.405 12.8202 21.437C14.2378 21.437 15.5269 21.6306 16.397 22.9517V21.7592H19.0391V23.3704C19.5226 22.1458 20.425 21.437 21.8103 21.5338V19.0525H24.5493V21.6949H26.3861V23.3384C27.1597 22.2426 28.513 21.4693 30.2207 21.5338C31.4775 21.5013 32.605 21.9205 33.4109 22.7581V20.7925ZM28.2874 25.2394C28.6738 22.7904 31.6383 22.7581 31.9285 25.2394H28.2874ZM25.9994 28.333C25.0327 28.4618 24.5493 28.2362 24.5818 27.1728L24.5493 23.4349H26.2895C25.3229 24.5629 25.1938 27.0762 25.9994 28.333ZM12.5722 26.7056C11.737 26.8476 10.8989 26.9902 10.9191 27.9784C11.0802 29.6541 14.0125 29.1061 13.8834 27.1728V26.2706C13.57 26.5358 13.0716 26.6206 12.5722 26.7056Z" fill="#A01B21"/>
</svg>
