<svg width="48" height="48" viewBox="0 0 48 48" fill="none" xmlns="http://www.w3.org/2000/svg">
<rect x="1" y="1" width="46" height="46" rx="23" fill="white" stroke="#F8F8F8" stroke-width="2"/>
<path fill-rule="evenodd" clip-rule="evenodd" d="M27.9989 26.9979H32.7968L30.4 24.601L27.9989 26.9979Z" fill="#E4051E"/>
<path fill-rule="evenodd" clip-rule="evenodd" d="M25.5979 19L22.3979 22.2L20.8 20.6021H17.6L20.8 23.8021L19.203 25.3979L14.4 20.5979L12.8021 22.1959L8 26.9979H11.2L11.999 26.199H16.8051L17.6 26.9938H17.6059L15.1825 29.4154H18.3825L22.3979 25.4L23.9959 26.9979H24H27.1958H27.2L30.4 23.7979L33.6 26.9979L39.9959 20.598V20.5979H36.7959L33.5959 23.7979L30.4 20.5979L25.5979 25.4L23.9959 23.7979L28.7979 19H25.5979ZM14.4041 23.7979L15.2072 24.601H13.601L14.4041 23.7979Z" fill="url(#paint0_linear_920_710)"/>
<defs>
<linearGradient id="paint0_linear_920_710" x1="27.4692" y1="34.4624" x2="32.2914" y2="16.1872" gradientUnits="userSpaceOnUse">
<stop stop-color="#3A3A3A"/>
<stop offset="1" stop-color="#383838"/>
</linearGradient>
</defs>
</svg>
