<svg width="48" height="48" viewBox="0 0 48 48" fill="none" xmlns="http://www.w3.org/2000/svg">
<rect x="1" y="1" width="46" height="46" rx="23" fill="white" stroke="#F8F8F8" stroke-width="2"/>
<path d="M34.0467 22.4526H33.3569L33.2037 23.0274H33.7785C33.5997 23.5512 33.2113 24.6983 33.0887 25.0968C32.9354 25.595 33.0887 26.6681 34.6599 26.5148C35.9169 26.3921 36.8187 25.0585 37.1125 24.407L36.576 24.2154C36.3078 24.6498 35.7023 25.4877 35.4263 25.3651C35.1504 25.2425 35.3114 24.6753 35.4263 24.407L35.9245 23.0274H36.576L36.7676 22.4526H36.1545L36.7676 20.7664L34.4683 21.073L34.0467 22.4526Z" fill="#F29E17"/>
<path d="M37.4191 24.5603L38.1856 22.4526H40.3316C39.8717 23.4234 39.0823 25.3651 39.6035 25.3651C40.1247 25.3651 40.5105 24.9052 40.6382 24.6753C40.5156 22.8665 41.2003 22.3632 41.5579 22.3376C41.6601 22.3249 41.8875 22.3913 41.9795 22.7592C42.0944 23.219 41.7112 24.407 41.1747 25.0202C40.6382 25.6334 39.2969 26.7064 38.0706 26.4381C37.0895 26.2235 37.2275 25.0968 37.4191 24.5603Z" fill="#F29E17"/>
<path d="M22.1781 20.1271L21.8485 20.2957V20.8476C21.8485 21.5987 21.7329 22.316 21.7642 23.0856C21.8178 24.5495 21.8332 24.6568 22.0324 25.0554C22.362 25.7375 22.9982 26.1207 23.9946 26.2434C25.3512 26.412 26.5775 25.9904 26.9377 25.2317C27.0067 25.0784 27.0603 24.7795 27.0603 24.5112C27.0603 23.9134 26.7078 23.2006 26.2402 22.8403C25.8882 22.5648 25.7496 22.5245 25.2975 22.4341C24.876 22.3498 24.738 22.3728 23.9332 22.6181L23.757 22.6794L23.7723 21.5374L23.7799 20.3954L23.481 20.2191C23.0135 19.9662 22.569 19.9278 22.1781 20.1271ZM26.064 23.3385C26.3475 23.5378 26.4548 23.7984 26.4242 24.174C26.3246 25.1397 24.9833 25.2853 24.6844 24.3732C24.4008 23.5072 25.3205 22.825 26.064 23.3385Z" fill="#B5000B"/>
<path d="M8.66563 20.357C6.5579 20.8016 5.50787 21.8976 6.05205 23.0779C6.46593 23.9747 7.57728 24.2659 7.93751 23.5761C8.03715 23.3845 8.02948 23.3615 7.78422 23.1699C7.26303 22.756 7.2477 22.0969 7.75356 21.545C8.02182 21.2538 8.7806 20.8246 8.86491 20.9165C8.8879 20.9395 8.88024 21.0468 8.84958 21.1618C8.75961 21.4992 8.69263 21.8221 8.68096 22.2655C8.6503 24.1739 8.57366 25.3773 8.46636 25.6838C8.37438 25.9598 8.37438 25.9981 8.48935 26.0901C8.88024 26.3813 10.1909 26.4656 10.6584 26.228C10.804 26.1514 10.9803 26.0364 11.0493 25.9828C11.1566 25.8831 11.2179 25.8908 11.5092 26.0134C12.5822 26.4733 13.8928 26.4963 14.7666 26.0671C15.3107 25.7988 15.5637 25.4386 15.5637 24.9251C15.5637 24.1969 15.1038 23.5914 14.276 23.2082L13.8621 23.0243L14.1611 22.8863C14.5443 22.7177 14.9505 22.2502 14.9505 21.9896C14.9505 21.6753 14.6669 21.1541 14.3603 20.9242C13.6782 20.403 12.6742 20.2114 10.735 20.2114C9.66201 20.2114 9.15616 20.2497 8.66563 20.357ZM12.7125 20.9702C13.2643 21.3074 13.3256 21.9896 12.8351 22.4188C12.2449 22.9476 11.3482 22.5337 11.3482 21.7366C11.3482 21.2538 11.7851 20.8246 12.2679 20.8169C12.3752 20.8169 12.5745 20.8859 12.7125 20.9702ZM12.8964 23.7984C13.272 24.2199 13.272 24.6185 12.8964 25.04C12.3446 25.6532 11.3405 25.2393 11.3482 24.3962C11.3635 23.5914 12.3599 23.2006 12.8964 23.7984Z" fill="#B5000B"/>
<path d="M19.3806 22.3958C19.258 22.4571 19.166 22.5567 19.166 22.6181C19.166 22.7637 19.1813 22.7637 18.7368 22.5644C17.9243 22.2118 16.7823 22.4265 16.2228 23.0396C15.4027 23.944 15.9852 25.6072 17.3035 26.1131C18.0087 26.389 18.8364 26.3047 19.2426 25.9138L19.4572 25.7068L19.7715 25.9214C20.5916 26.458 21.5726 26.3737 21.7336 25.7452C21.7872 25.5229 21.6033 25.1857 21.427 25.1857C21.2124 25.1857 21.1588 24.8867 21.1588 23.6681V22.4494L20.8598 22.3651C20.446 22.2348 19.6335 22.2578 19.3806 22.3958ZM17.6561 23.2849C17.863 23.3922 18.093 23.8137 18.093 24.082C18.093 24.2123 18.0163 24.4345 17.9167 24.5802C17.5565 25.1167 16.79 25.1167 16.4298 24.5802C15.8856 23.7754 16.7747 22.8327 17.6561 23.2849Z" fill="#B5000B"/>
<path d="M27.9034 22.4648C27.6254 22.5931 27.6735 22.5797 27.5202 22.733C27.4282 22.8097 27.4435 23.0626 27.4435 24.105C27.4435 25.178 27.4665 25.4233 27.5891 25.6838C27.8651 26.2893 28.4399 26.6419 29.1297 26.6419C29.5053 26.6419 30.0571 26.435 30.1644 26.2587C30.1874 26.2204 30.2487 26.182 30.2947 26.182C30.4327 26.182 30.333 27.7839 30.1721 28.0828C30.0265 28.3587 29.5972 28.604 29.398 28.5274C29.2753 28.4814 29.2677 28.466 29.3903 28.3434C29.6049 28.0982 29.5436 27.8069 29.214 27.4773C28.9458 27.2091 28.8614 27.1784 28.5549 27.1401C28.2483 27.1018 28.0184 27.1784 27.9034 27.3317C27.7118 27.5616 27.7501 27.7916 27.8267 28.0982C28.0873 28.719 28.9458 29.0485 30.0724 29.0409C30.6856 29.0409 30.7852 29.0179 31.2528 28.7803C31.659 28.5734 31.8123 28.4431 31.9962 28.1518C32.2032 27.8146 32.2262 27.7073 32.2798 26.7722C32.3105 26.2204 32.3411 25.1013 32.3411 24.2966L32.3488 22.825L32.0882 22.7024C31.659 22.4954 31.1761 22.4341 30.8619 22.5414C30.379 22.71 30.3714 22.7177 30.3407 23.8674C30.31 25.063 30.1797 25.5076 29.8272 25.5535C29.4823 25.6072 29.4363 25.4233 29.4363 24.059V22.802L29.0761 22.641C28.6468 22.4494 28.1563 22.3575 27.9034 22.4648Z" fill="#B5000B"/>
</svg>
