<svg width="48" height="48" viewBox="0 0 48 48" fill="none" xmlns="http://www.w3.org/2000/svg">
<rect x="1" y="1" width="46" height="46" rx="23" fill="white" stroke="#F8F8F8" stroke-width="2"/>
<path fill-rule="evenodd" clip-rule="evenodd" d="M38.5712 25.1654L36.5146 24.8604C36.3437 24.8359 36.2888 24.7566 36.2888 24.6345C36.2888 24.4514 36.4658 24.3233 36.9784 24.3233C37.1676 24.3233 37.3629 24.3478 37.5154 24.4148C37.6741 24.4758 37.7778 24.5858 37.7778 24.7627H39.7795C39.7185 23.8412 38.919 23.3347 36.9784 23.3347C35.7716 23.3347 34.7915 23.5568 34.5282 24.3215V23.4872H29.6218V24.267C29.5196 23.9824 29.3256 23.7537 29.1061 23.6459C28.8681 23.53 28.5691 23.4872 28.0748 23.4872H24.4498V25.1424C24.1705 23.3965 22.4672 23.3347 21.5113 23.3347C20.6514 23.3347 19.1868 23.3847 18.6978 24.6654C18.5954 23.9087 18.1163 23.4872 17.0472 23.4872H13.4955V25.9799C13.3143 25.5266 12.8423 25.2643 12.1742 25.1654L10.1176 24.8604C9.94669 24.8359 9.89181 24.7566 9.89181 24.6345C9.89181 24.4514 10.0687 24.3233 10.5814 24.3233C10.7706 24.3233 10.9658 24.3478 11.1184 24.4148C11.2771 24.4758 11.3808 24.5858 11.3808 24.7627H13.3825C13.3214 23.8412 12.522 23.3347 10.5814 23.3347C9.16556 23.3347 8.06103 23.6398 8.06103 24.7688C8.06103 25.3791 8.40886 25.8673 9.25101 25.9955L11.2161 26.2883C11.448 26.325 11.5273 26.4532 11.5273 26.5813C11.5273 26.7888 11.3808 26.9353 10.8438 26.9353C10.5753 26.9353 10.3861 26.9047 10.2579 26.8437C10.1359 26.7766 10.081 26.6789 10.0748 26.5325H8C8.00607 27.814 9.45241 27.9971 10.7767 27.9971C12.3706 27.9971 13.239 27.657 13.4955 26.9434V27.8445H15.2164V26.4897H17.0594C17.8451 26.4897 18.3067 26.2214 18.5362 25.8074C18.6158 27.9266 20.49 27.9971 21.5113 27.9971C22.4672 27.9971 24.1705 27.9353 24.4498 26.1893V27.8445H26.1708V26.5019H27.3913C27.7086 26.5019 27.8185 26.6972 27.8367 27.0207C27.8418 27.1042 27.846 27.179 27.8498 27.2464V27.2464C27.8689 27.5879 27.8773 27.7375 27.9283 27.8445H29.8079C29.6981 27.7103 29.6126 27.5272 29.5943 27.3319L29.5211 26.3799C29.4906 26.0016 29.2831 25.7818 29.0268 25.7086V25.6964C29.5272 25.55 29.6981 25.1105 29.6981 24.7017C29.6981 24.6625 29.6956 24.624 29.6921 24.5858H31.2145V27.8445H32.9355V24.5858H34.4689C34.462 24.6443 34.458 24.7051 34.458 24.7688C34.458 25.3791 34.8058 25.8673 35.648 25.9955L37.613 26.2883C37.8449 26.325 37.9243 26.4532 37.9243 26.5813C37.9243 26.7888 37.7778 26.9353 37.2408 26.9353C36.9723 26.9353 36.7831 26.9047 36.6549 26.8437C36.5329 26.7766 36.478 26.6789 36.4719 26.5325H34.397C34.4031 27.814 35.8494 27.9971 37.1737 27.9971C39.1082 27.9971 39.9748 27.4967 39.9748 26.4348C39.9748 25.6964 39.4377 25.2936 38.5712 25.1654ZM27.3913 25.4034H26.1708V24.5858H27.3669C27.6537 24.5858 27.8673 24.6651 27.8673 24.9946C27.8673 25.2692 27.7269 25.4034 27.3913 25.4034ZM20.364 25.6659C20.364 26.5508 20.8095 26.8986 21.5113 26.8986C22.2131 26.8986 22.6585 26.5508 22.6585 25.6659C22.6585 24.781 22.2131 24.4332 21.5113 24.4332C20.8095 24.4332 20.364 24.781 20.364 25.6659ZM16.3271 25.4279H15.2164V24.5125H16.3271C16.7604 24.5125 16.9251 24.6468 16.9251 24.9763C16.9251 25.2936 16.7604 25.4279 16.3271 25.4279ZM21.9676 20C23.0038 20 23.5519 20.4026 23.5519 21.5287C23.5519 22.6035 23.0081 23.0574 21.9933 23.0574H19.6168V20H21.9676ZM20.8243 20.7708V22.2866H21.518C22.0704 22.2866 22.293 22.0126 22.293 21.5287C22.293 21.0449 22.0704 20.7708 21.518 20.7708H20.8243ZM11.8975 22.8083L11.7915 23.0574H13.0761L13.2045 22.7062H14.4634L14.5919 23.0574H15.642H15.8765H16.7981V21.3446H16.8067L18.0913 23.0574H19.4144V20H18.2583V21.6957H18.2455L17.0208 20H15.642V22.5067L14.5748 20H13.0932L12.1838 22.1361C12.1847 22.1124 12.1855 22.0884 12.1855 22.064C12.1855 21.837 12.057 21.4688 11.6631 21.366V21.3574C11.8943 21.2675 12.027 21.032 12.027 20.7623C12.027 20.2741 11.7487 20 11.1235 20H8.37448V23.0574H10.9908C11.4181 23.0574 11.7095 22.9674 11.8975 22.8083ZM9.5563 22.3123H10.5883C10.8281 22.3123 10.9009 22.2096 10.9009 22.0725C10.9009 21.9397 10.8281 21.8327 10.5883 21.8327H9.5563V22.3123ZM9.5563 20.7451H10.4684C10.7124 20.7451 10.7681 20.8264 10.7681 20.9378C10.7681 21.0577 10.7124 21.139 10.4684 21.139H9.5563V20.7451ZM13.8383 20.925H13.8297L13.47 21.9612H14.1979L13.8383 20.925Z" fill="#CF110D"/>
</svg>
