<svg width="48" height="48" viewBox="0 0 48 48" fill="none" xmlns="http://www.w3.org/2000/svg">
<rect x="1" y="1" width="46" height="46" rx="23" fill="white" stroke="#F8F8F8" stroke-width="2"/>
<path fill-rule="evenodd" clip-rule="evenodd" d="M35.7941 30.5454C38.6048 30.5454 39.8638 29.8183 39.8638 28.2756C39.8638 27.2028 39.0836 26.6176 37.8245 26.4314L34.8366 25.9881C34.5883 25.9526 34.5085 25.8373 34.5085 25.66C34.5085 25.394 34.7656 25.2078 35.5104 25.2078C35.7852 25.2078 36.069 25.2433 36.2907 25.3408C36.5212 25.4295 36.6719 25.5891 36.6719 25.8462H39.5801C39.4914 24.5074 38.3299 23.7714 35.5104 23.7714C34.05 23.7714 32.8182 23.9955 32.2262 24.7121L32.4167 24.0613H30.0483L29.2502 27.8438H29.2328L28.3306 24.0613H26.3786L25.4677 27.8438H25.4503L24.6522 24.0613H22.7053H22.2838H16.1207V30.2555H22.7053V28.746H18.5671V27.9132H22.4103V26.4037H18.5671V25.5709H22.7053V25.5083L24.0883 30.2555H26.4914L27.3416 26.8201H27.3589L28.2004 30.2555H30.6035L31.8528 25.9878C31.9017 26.8118 32.4157 27.4604 33.5775 27.6373L36.4325 28.0628C36.7694 28.116 36.8847 28.3022 36.8847 28.4884C36.8847 28.7899 36.6719 29.0027 35.8916 29.0027C35.5015 29.0027 35.2267 28.9584 35.0404 28.8697C34.8631 28.7721 34.7833 28.6302 34.7745 28.4175H31.7599C31.7688 30.2795 33.8701 30.5454 35.7941 30.5454ZM15.6431 24.0613H13.3007V27.4968H13.2747L10.7935 24.0613H8V30.2555H10.3424V26.7854H10.3597L12.9623 30.2555H15.6431V24.0613ZM36.6802 17C38.8358 17 39.976 17.8374 39.976 20.1801C39.976 22.4159 38.8447 23.3602 36.7336 23.3602H31.7899V17H36.6802ZM34.3018 18.6034V21.7568H35.7448C36.894 21.7568 37.3572 21.1867 37.3572 20.1801C37.3572 19.1735 36.894 18.6034 35.7448 18.6034H34.3018ZM15.4745 22.7014L15.194 23.3602H17.8663L18.1335 22.6297H20.7524L21.0196 23.3602H23.3732H23.6919H25.7783V19.7971H25.7961L28.4684 23.3602H31.2209V17H28.8158V20.5274H28.7891L26.2415 17H23.3732V22.6116L20.984 17H17.902L15.9031 21.6946C15.9195 21.5665 15.9278 21.4329 15.9278 21.2936C15.9278 20.8214 15.6606 20.0554 14.8411 19.8416V19.8237C15.3221 19.6367 15.5982 19.1468 15.5982 18.5856C15.5982 17.5701 15.0192 17 13.7187 17H8V23.3602H13.4426C14.4504 23.3602 15.0948 23.1196 15.4745 22.7014ZM19.4519 18.9241H19.4341L18.6858 21.0798H20.2001L19.4519 18.9241ZM12.6053 21.8102H10.4585V20.8126H12.6053C13.1041 20.8126 13.2555 21.0352 13.2555 21.3114C13.2555 21.5965 13.1041 21.8102 12.6053 21.8102ZM12.3558 18.55H10.4585V19.3695H12.3558C12.8636 19.3695 12.9794 19.2002 12.9794 18.9509C12.9794 18.7193 12.8636 18.55 12.3558 18.55Z" fill="#273078"/>
</svg>
