<svg width="48" height="48" viewBox="0 0 48 48" fill="none" xmlns="http://www.w3.org/2000/svg">
<rect x="1" y="1" width="46" height="46" rx="23" fill="white" stroke="#F8F8F8" stroke-width="2"/>
<path fill-rule="evenodd" clip-rule="evenodd" d="M12.07 19.3363C15.3507 16.5036 19.6729 14.9767 24.0037 15.0003C24.4518 15.0028 24.9005 15.023 25.3477 15.0589C31.2292 15.4043 36.7662 18.8456 39.8788 23.7813C40.2928 24.7832 39.5669 25.605 38.8917 26.3694C38.6683 26.6222 38.4505 26.8688 38.2813 27.1135C34.7916 31.2525 29.454 33.8649 23.9881 33.7462C23.6534 33.7471 23.3187 33.7446 22.9842 33.7265C17.8873 33.5134 12.9825 31.0523 9.72242 27.1603C9.55274 26.9228 9.34426 26.687 9.13169 26.4466C8.49536 25.727 7.82227 24.9659 8.04274 23.9923C9.0167 22.1753 10.5572 20.7174 12.07 19.3363ZM30.7226 18.5353C28.7899 16.9262 26.2619 16.109 23.7577 16.1565C21.81 16.1934 19.8765 16.7543 18.2537 17.8752C16.1325 19.317 14.2565 21.5479 14.039 24.1797C13.9897 26.6658 15.6416 28.839 17.4686 30.3829C19.6771 32.1587 22.6009 33.0091 25.4217 32.6133C29.2816 32.1487 32.8923 29.3383 33.9492 25.5705C34.5784 22.8331 32.7576 20.1993 30.7226 18.5353Z" fill="#FFBB00"/>
<path fill-rule="evenodd" clip-rule="evenodd" d="M23.7423 17.1024C26.4593 17.0142 29.1927 18.5562 30.3986 21.0204C31.9133 23.858 31.2606 27.6759 28.8008 29.7898C27.3359 31.1697 25.2272 31.8284 23.2267 31.61C19.7252 31.2867 16.8217 28.0952 16.8008 24.6062C16.6247 21.3048 19.0028 18.0892 22.2461 17.3252C22.7387 17.1926 23.2391 17.1187 23.7423 17.1024Z" fill="#00821B"/>
</svg>
