<svg width="48" height="48" viewBox="0 0 48 48" fill="none" xmlns="http://www.w3.org/2000/svg">
<rect x="1" y="1" width="46" height="46" rx="23" fill="white" stroke="#F8F8F8" stroke-width="2"/>
<path fill-rule="evenodd" clip-rule="evenodd" d="M21.1242 17.6875V15H24.0211H26.9182L26.9167 17.686L26.9155 20.3724L24.0198 20.3737L21.1242 20.3751V17.6875ZM27.7999 17.6839C27.7999 19.16 27.8016 20.3693 27.8035 20.3714C27.8056 20.3735 29.1086 20.3745 30.6991 20.3737L33.5909 20.3724L33.5924 17.686L33.5939 15H30.6968H27.7999V17.6839ZM32.374 19.347C32.0517 19.5071 31.6697 19.6143 31.2627 19.6582C31.1707 19.6682 30.8325 19.6727 30.7439 19.6652C30.4424 19.6399 30.1891 19.5846 29.9179 19.4845C29.6222 19.3756 29.3222 19.156 29.1067 18.8908C28.8557 18.5814 28.7179 18.2257 28.6809 17.7911C28.6563 17.5019 28.7341 17.1394 28.8849 16.8415C29.1451 16.3279 29.5791 15.9899 30.2227 15.8003C30.4931 15.7205 30.9079 15.6916 31.2884 15.7263C31.5337 15.7485 31.9249 15.8495 32.2575 15.9766L32.3837 16.0248L32.4074 16.0336V16.3872C32.4074 16.5816 32.4061 16.7407 32.4044 16.7407C32.403 16.7407 32.3761 16.7268 32.3449 16.7096C32.1604 16.609 31.9111 16.5056 31.6899 16.438C31.3839 16.3446 31.0573 16.2978 30.8287 16.3144C30.7428 16.3209 30.6385 16.3346 30.5748 16.3483C30.2354 16.4208 29.9943 16.5409 29.7923 16.7378C29.6724 16.8548 29.5905 16.9699 29.5278 17.1091C29.4354 17.3148 29.3839 17.5936 29.402 17.7911C29.4271 18.0649 29.5198 18.3061 29.6811 18.5166C29.7551 18.6138 29.8949 18.7368 30.0116 18.8087C30.2677 18.966 30.6256 19.0547 31.0041 19.0545C31.4121 19.054 31.8993 18.8993 32.3698 18.6198L32.446 18.5748L32.4447 18.9435L32.4433 19.3125L32.374 19.347ZM25.3011 19.1966C25.1048 19.4101 24.8323 19.5373 24.4399 19.599L24.3483 19.6133L23.4987 19.6152L22.6489 19.6168V17.6875V15.7581L23.3627 15.7597L23.4908 15.76C23.9859 15.7611 24.0782 15.7613 24.168 15.7762C24.1886 15.7796 24.2091 15.7838 24.2342 15.7889L24.2342 15.7889L24.2624 15.7946C24.7614 15.8948 25.0744 16.1694 25.1671 16.5885C25.1783 16.6383 25.1797 16.661 25.1799 16.7761C25.1802 16.92 25.1751 16.9574 25.143 17.0569C25.1021 17.1837 25.0408 17.2794 24.9338 17.385C24.8604 17.4573 24.7894 17.5105 24.7156 17.5483C24.7012 17.5557 24.6892 17.5632 24.6894 17.5647C24.6894 17.5661 24.7175 17.5755 24.7517 17.5855C24.8922 17.6262 25.0208 17.6862 25.1301 17.7627C25.1966 17.809 25.3015 17.9102 25.3482 17.9729C25.4322 18.0851 25.4888 18.2116 25.5219 18.3614C25.5365 18.4273 25.5415 18.5708 25.5327 18.6562C25.5101 18.8673 25.4284 19.058 25.3011 19.1966ZM23.3421 16.8579V16.3581L23.668 16.3601C23.9715 16.3622 23.997 16.3631 24.0462 16.3736C24.2748 16.4223 24.4101 16.5363 24.4572 16.7187C24.4673 16.7584 24.4684 16.775 24.4661 16.844C24.4612 16.9805 24.4274 17.065 24.3417 17.1554C24.2562 17.2454 24.137 17.3052 23.9713 17.3416C23.9187 17.353 23.901 17.3538 23.6289 17.3559L23.3421 17.358V16.8579ZM23.3421 17.9685V18.4954V19.0223L23.7925 19.0202L23.8338 19.02H23.8338H23.8338H23.8338H23.8338H23.8338H23.8338H23.8338H23.8338H23.8338C24.175 19.0182 24.2476 19.0179 24.3174 19.0037C24.3362 18.9999 24.3549 18.9951 24.3786 18.9889L24.3786 18.9889L24.3886 18.9863C24.5744 18.9377 24.7103 18.8365 24.7755 18.6978C24.8162 18.6109 24.8323 18.4869 24.8144 18.3996C24.765 18.1597 24.5644 18.0082 24.2501 17.9744C24.2168 17.9706 24.0344 17.9685 23.7691 17.9685H23.3421ZM14.4488 17.6875V15H17.3429H20.2373V17.6875V20.3751H17.3429H14.4488V17.6875ZM17.7642 19.599C17.9747 19.5661 18.1357 19.5184 18.2881 19.4434C18.5389 19.3204 18.7107 19.1411 18.797 18.9126C18.8416 18.7946 18.8593 18.6882 18.8593 18.5388C18.8593 18.4466 18.8572 18.42 18.8466 18.3678C18.811 18.1944 18.7276 18.0288 18.6128 17.9025C18.4836 17.7604 18.2866 17.6451 18.0669 17.5825C18.0378 17.5742 18.0137 17.5661 18.0137 17.5647C18.0137 17.5632 18.0355 17.5499 18.0621 17.5352C18.2119 17.4515 18.3464 17.3135 18.4211 17.1666C18.4758 17.0592 18.5011 16.9537 18.5055 16.8143C18.51 16.6805 18.4971 16.5907 18.457 16.4717C18.3348 16.1092 18.015 15.8699 17.5407 15.7855L17.5388 15.7852C17.5119 15.7804 17.4897 15.7765 17.4675 15.7733C17.3653 15.7585 17.2609 15.7585 16.6761 15.7585H16.6596H15.9734V17.6877V19.6168L16.8232 19.6152L17.6728 19.6133L17.7642 19.599ZM16.6666 17.9679V18.4948V19.0218H17.0839C17.5267 19.0218 17.5717 19.0196 17.6785 18.9948C17.8932 18.9444 18.0428 18.8355 18.1057 18.683C18.1321 18.6194 18.1429 18.5613 18.1429 18.4815C18.1429 18.4173 18.141 18.4017 18.1281 18.3597C18.0663 18.1582 17.9078 18.0346 17.6462 17.9837C17.5856 17.9719 17.5726 17.9717 17.1253 17.9698L16.6666 17.9679ZM16.6666 16.8577V16.3581L16.9923 16.3601C17.3038 16.362 17.3203 16.3626 17.372 16.3743C17.5248 16.4081 17.6344 16.4692 17.7036 16.5594C17.7632 16.6369 17.7919 16.7225 17.7921 16.8232C17.7921 16.9676 17.7488 17.074 17.6509 17.1691C17.5747 17.2431 17.4771 17.2948 17.3528 17.3272C17.2488 17.3546 17.2103 17.3571 16.9285 17.3573H16.6666V16.8577ZM32.0247 23.0707V25.3381V27.6055H32.8965C33.4043 27.6055 33.8149 27.6032 33.8793 27.5999C34.5214 27.5681 35.0138 27.3753 35.3849 27.0109C35.4731 26.9241 35.5398 26.8451 35.6059 26.7487C35.8706 26.3637 36 25.8969 36 25.3273C36 24.8968 35.9223 24.5166 35.7703 24.2031C35.668 23.9919 35.555 23.8296 35.4043 23.6775C35.0514 23.321 34.5541 23.117 33.9386 23.0765C33.8858 23.073 33.5075 23.0707 32.9391 23.0707H32.0247ZM34.5644 26.6772C34.3859 26.7973 34.1733 26.8707 33.9044 26.9051C33.8459 26.9126 33.756 26.9145 33.3402 26.9164L32.8454 26.9186V25.3383V23.7577L33.3596 23.76L33.3824 23.7601C33.7832 23.7616 33.8713 23.762 33.9578 23.7742C33.9822 23.7777 34.0065 23.7821 34.0376 23.7877L34.0376 23.7877L34.0428 23.7887C34.5805 23.8855 34.9418 24.2193 35.079 24.7464C35.128 24.9353 35.1432 25.069 35.1434 25.3246C35.1436 25.523 35.1394 25.5874 35.1181 25.7257C35.0516 26.1543 34.8646 26.4753 34.5644 26.6772ZM28.2138 27.6019C28.2117 27.5999 28.21 26.5796 28.21 25.3346V23.0707H28.6204H29.0307L29.0322 24.9876L29.0335 26.9043L30.1659 26.9058L31.2984 26.907V27.2562V27.6055H29.7579C28.9106 27.6055 28.2157 27.604 28.2138 27.6019ZM23.8577 25.3379V23.0703L24.7823 23.0724L24.8236 23.0724H24.8236H24.8237H24.8237H24.8237C25.6043 23.0739 25.7301 23.0742 25.8542 23.0894C25.878 23.0924 25.9018 23.0959 25.9301 23.1L25.9369 23.101C26.3753 23.165 26.6987 23.3077 26.9378 23.5427C27.1314 23.7328 27.2416 23.9626 27.2815 24.2584C27.3011 24.4045 27.2977 24.5896 27.2726 24.7352C27.1966 25.1754 26.9152 25.5109 26.469 25.6933L26.4672 25.6941L26.467 25.6942L26.4667 25.6943L26.4661 25.6946C26.4323 25.7086 26.4044 25.7202 26.4034 25.721C26.4023 25.7218 26.4572 25.8078 26.526 25.9123C26.8654 26.43 27.1783 26.9265 27.4592 27.3938C27.5276 27.5076 27.5835 27.6017 27.5835 27.6032C27.5835 27.6044 27.3718 27.6055 27.113 27.6055H26.6423L26.6075 27.5442C26.4749 27.3103 26.3352 27.0738 26.0382 26.5819C25.6895 26.0039 25.6004 25.8618 25.5892 25.8641C25.5837 25.8649 25.3741 25.8672 25.1232 25.8687L24.6672 25.8714V26.7385V27.6055H24.2624H23.8577V25.3379ZM25.531 25.2209C25.7459 25.2101 25.9018 25.1806 26.0492 25.1226C26.2113 25.0591 26.3238 24.9616 26.3928 24.8251C26.492 24.629 26.4927 24.3207 26.3943 24.1205C26.3046 23.9383 26.122 23.8153 25.8535 23.7565C25.6751 23.7174 25.6241 23.7141 25.1149 23.7108L24.6672 23.7079V24.467V25.2263L25.0484 25.2261C25.258 25.2261 25.4752 25.2238 25.531 25.2209ZM19.7148 27.529C19.9158 27.6121 20.1475 27.6659 20.4061 27.69C20.5178 27.7002 20.8519 27.6975 20.9579 27.6852C21.3161 27.6439 21.6112 27.5494 21.8837 27.3886C22.4283 27.0672 22.7749 26.5123 22.8815 25.7912C22.9195 25.5336 22.9205 25.1713 22.8844 24.9082C22.8528 24.6793 22.8021 24.4871 22.717 24.2742C22.6081 24.0016 22.4633 23.7833 22.2554 23.578C22.0281 23.3536 21.7646 23.1933 21.4588 23.0933C20.9777 22.9359 20.3578 22.9338 19.8685 23.0875C19.4341 23.224 19.0647 23.4949 18.8127 23.862C18.6379 24.1161 18.5159 24.4146 18.4551 24.7352C18.415 24.9465 18.4046 25.0728 18.4051 25.3437C18.4053 25.5344 18.4072 25.5834 18.4175 25.6765C18.4504 25.9765 18.5093 26.2131 18.6069 26.4373C18.8306 26.9519 19.2002 27.3161 19.7148 27.529ZM21.6122 26.6398C21.4161 26.8339 21.1804 26.9452 20.8802 26.9862C20.8198 26.9945 20.5762 27.0017 20.5309 26.9966L20.4589 26.9887C20.1646 26.9563 19.9225 26.8488 19.7277 26.6644C19.4501 26.4014 19.2948 26.0251 19.2608 25.5334C19.2523 25.4135 19.2574 25.1235 19.2694 25.0244C19.3005 24.7688 19.3537 24.5819 19.4499 24.3887C19.524 24.2401 19.6067 24.1267 19.7193 24.0201C19.9797 23.7733 20.3373 23.6538 20.7462 23.6767C20.9568 23.6885 21.117 23.7276 21.2823 23.8072C21.6388 23.9788 21.875 24.2862 21.989 24.7269C22.0665 25.0258 22.0813 25.421 22.0279 25.7629C21.9713 26.1252 21.8292 26.4257 21.6122 26.6398ZM13.2323 27.5959C12.8006 26.187 12.4048 24.7454 12.0646 23.3437C12.0308 23.2041 12.0017 23.0857 12.0002 23.0802C11.9972 23.0713 12.0209 23.0707 12.4403 23.0707H12.8834L12.9342 23.3204C13.1972 24.6083 13.3805 25.415 13.6454 26.4485C13.6848 26.6029 13.718 26.73 13.7188 26.7308C13.7231 26.735 13.985 25.7735 14.1243 25.2427L14.1376 25.192C14.1644 25.0901 14.2013 24.9492 14.2269 24.8524C14.3278 24.4711 14.3597 24.3477 14.4794 23.873L14.6166 23.33L14.6345 23.2591L15.0351 23.2577L15.436 23.2562L15.441 23.2685C15.444 23.2753 15.4679 23.368 15.494 23.4746C15.5489 23.6977 15.7484 24.4824 15.8096 24.7161C15.8755 24.9666 15.9333 25.1862 15.969 25.3192L15.9984 25.4295L16.0323 25.5564C16.0967 25.7974 16.3308 26.6544 16.3369 26.6718C16.3384 26.676 16.3409 26.6783 16.3419 26.6768C16.346 26.6731 16.4863 26.1232 16.5549 25.8429C16.7289 25.1324 16.9663 24.0687 17.1379 23.229C17.1529 23.1555 17.1666 23.0898 17.1683 23.083L17.1711 23.0707H17.6036H18.0361L18.0331 23.083C17.9339 23.4993 17.6802 24.4836 17.4947 25.1717C17.295 25.9119 16.9784 27.0213 16.8127 27.5606L16.7989 27.6055H16.3671H15.935L15.9263 27.5768C15.9215 27.5612 15.8529 27.326 15.7741 27.0545C15.6479 26.6199 15.5785 26.3785 15.4651 25.9794C15.3623 25.6169 15.1723 24.9309 15.0729 24.5605L15.0713 24.5543L15.0713 24.5543C15.0253 24.3838 15.0159 24.3492 15.0123 24.3498C15.0114 24.3499 15.0108 24.3523 15.0101 24.3554L15.01 24.3558C14.9997 24.4015 14.7512 25.3075 14.651 25.6657L14.638 25.7122C14.6063 25.8257 14.5541 26.0124 14.5129 26.1593C14.3776 26.6459 14.2953 26.9355 14.175 27.3491L14.1013 27.6028L13.6682 27.6042C13.2593 27.6055 13.235 27.6051 13.2323 27.5959ZM30.3506 33.7169C30.685 33.8766 31.0622 33.9699 31.4841 33.9973C31.5519 34.0017 31.8299 34.0004 31.9027 33.9955C32.4583 33.957 32.8623 33.8056 33.1521 33.5268C33.4094 33.2793 33.5341 32.9488 33.5198 32.5522C33.5097 32.2678 33.448 32.0792 33.3043 31.8905C33.1837 31.7324 32.9625 31.5756 32.7094 31.469C32.5528 31.4029 32.2767 31.3184 31.9443 31.2345C31.6515 31.1603 31.4579 31.1003 31.3634 31.0537C31.2272 30.9868 31.1367 30.9089 31.0915 30.8198C31.0322 30.7026 31.0183 30.5472 31.0544 30.4084C31.1056 30.2105 31.2882 30.0584 31.5563 29.9902C31.6944 29.9551 31.7507 29.9497 31.9719 29.9495C32.1298 29.9495 32.1885 29.9514 32.252 29.9591C32.6113 30.0025 32.9839 30.119 33.2407 30.2684C33.2669 30.2836 33.2897 30.2958 33.2912 30.2958C33.2929 30.2958 33.2944 30.135 33.2944 29.9385V29.5812L33.2399 29.5542C33.0305 29.4507 32.7377 29.3614 32.4629 29.3167C32.0226 29.2452 31.5542 29.2706 31.1945 29.3851C30.7056 29.5405 30.373 29.8591 30.2645 30.2755C30.2307 30.4053 30.2254 30.4539 30.2259 30.6343C30.2261 30.8154 30.233 30.8736 30.2691 30.9972C30.3297 31.2041 30.4667 31.394 30.6461 31.5203C30.9072 31.7038 31.1886 31.8145 31.7509 31.9549C32.1197 32.047 32.2419 32.0879 32.3719 32.1627C32.4507 32.2082 32.5077 32.2506 32.5499 32.2948C32.6478 32.3983 32.6879 32.498 32.6928 32.6499C32.6985 32.8273 32.6381 32.976 32.5142 33.0899C32.3924 33.2021 32.2199 33.2775 32.0108 33.3103C31.6739 33.3635 31.2376 33.3259 30.8713 33.212C30.6959 33.1574 30.4914 33.0683 30.3301 32.9762C30.2871 32.9517 30.2503 32.9316 30.2484 32.9316C30.2465 32.9316 30.2451 33.0969 30.2451 33.2991V33.6666L30.3506 33.7169ZM24.9228 33.731C24.9503 33.821 24.9737 33.8978 24.975 33.9016C24.9769 33.907 25.0687 33.9084 25.4096 33.9084C25.8164 33.9084 25.8419 33.9078 25.8449 33.8989C25.8563 33.8619 26.0249 33.2773 26.0726 33.109C26.2037 32.6488 26.5577 31.3755 26.6858 30.9033C26.7236 30.7645 26.7552 30.6519 26.7559 30.6528C26.7569 30.6536 26.7802 30.7377 26.8078 30.8393C27.0423 31.7063 27.2471 32.434 27.5339 33.42L27.6625 33.8621L27.6756 33.9057H28.1079H28.5399L28.5473 33.8839C28.5511 33.8719 28.579 33.7798 28.6092 33.6793C28.9551 32.5227 29.2794 31.346 29.593 30.1103C29.6927 29.7181 29.7706 29.4058 29.7746 29.3832C29.7763 29.3743 29.753 29.3736 29.3467 29.3734C29.0039 29.3734 28.9163 29.3749 28.9127 29.3803C28.9104 29.384 28.8935 29.4609 28.8751 29.5511C28.6972 30.4219 28.4593 31.4856 28.279 32.2167C28.2128 32.4862 28.0855 32.9806 28.0827 32.9806C28.0754 32.9806 27.7283 31.6977 27.5392 30.9725C27.497 30.8102 27.2671 29.9067 27.2139 29.6929L27.1812 29.5619H26.7802C26.4291 29.5619 26.3783 29.5629 26.3745 29.57C26.3719 29.5745 26.3409 29.6961 26.3054 29.8402C26.1929 30.2958 26.0705 30.7695 25.8117 31.7501C25.658 32.3322 25.4624 33.0408 25.4581 33.0298C25.4394 32.98 25.1643 31.8635 25.0609 31.4173C24.9644 31.0016 24.7814 30.1467 24.6605 29.5463L24.6533 29.5112L24.6533 29.511L24.6532 29.5107C24.6377 29.434 24.6258 29.3756 24.6254 29.3749C24.624 29.3726 23.7452 29.3734 23.7429 29.3757C23.737 29.3813 24.0162 30.4976 24.157 31.0317C24.4006 31.956 24.6455 32.8192 24.9228 33.731ZM19.9403 33.9016C19.939 33.8978 19.9384 32.8773 19.939 31.6342L19.9405 29.3736H21.479H23.0176L23.0191 29.7121L23.0206 30.0503L21.8909 30.0517L20.7612 30.053V30.637V31.221L21.7687 31.2222L22.7766 31.2237V31.5648V31.9057H21.7674H20.7582V32.5659V33.2264L21.9504 33.2276L23.1426 33.2291V33.5673V33.9057L21.5428 33.907C20.2657 33.9082 19.9424 33.907 19.9403 33.9016ZM14.956 29.3734L14.9545 31.641L14.953 33.9084H15.3469H15.7406L15.7421 32.2211L15.7433 30.5337L15.8269 30.6536C16.1834 31.1634 16.6495 31.8531 17.1894 32.6696L17.1973 32.6815C17.2645 32.7828 17.3679 32.9386 17.4324 33.0352C17.5337 33.1871 17.6701 33.394 17.973 33.8552L18.008 33.9084L18.4196 33.907L18.8314 33.9057V31.6396V29.3734H18.4407H18.0498L18.0471 31.0502L18.0443 32.7269L18.03 32.7051C18.0217 32.6931 17.9542 32.59 17.8797 32.476C17.2899 31.5748 16.5005 30.4049 15.9411 29.6028L15.7822 29.3749C15.7815 29.3741 15.5954 29.3734 15.3684 29.3734H14.956Z" fill="#B90005"/>
</svg>
