<svg width="429" height="120" viewBox="0 0 429 120" fill="none" xmlns="http://www.w3.org/2000/svg">
<path d="M368.214 0L428.182 60.0235L368.214 119.997L308.256 59.9596L368.214 0Z" fill="black"/>
<path d="M362.262 43.0858L368.819 37.033L368.779 82.7551L362.262 75.8583V62.8885H336.545V82.8055L329.998 75.9221V43.1093L336.545 37.0363V56.8189H362.262V43.0891V43.0858Z" fill="white"/>
<path d="M368.779 82.7316L375.337 76.894H383.67C386.942 76.894 389.488 76.6788 391.304 76.2584C393.13 75.7978 394.63 75.2328 395.841 74.5536C397.061 73.8441 398.161 72.9832 399.177 71.9879C402.408 68.716 404.019 64.5698 404.019 59.5628C404.019 54.5558 402.358 50.645 399.042 47.5581C397.821 46.398 396.416 45.4329 394.815 44.6965C393.244 43.9466 391.748 43.4657 390.319 43.2304C388.913 42.995 386.636 42.8705 383.475 42.8705H375.296L368.799 37.033H384.171C390.389 37.033 395.326 37.9779 398.938 39.8441C402.57 41.7104 405.455 44.451 407.597 48.0827C409.723 51.7043 410.809 55.6554 410.809 59.9428C410.809 62.9894 410.204 65.9149 409.033 68.716C407.843 71.507 406.161 73.9685 403.986 76.0937C401.769 78.2794 399.173 79.9204 396.227 81.0301C394.502 81.706 392.901 82.17 391.475 82.4054C390.039 82.6307 387.279 82.7349 383.206 82.7349H368.779V82.7316Z" fill="white"/>
<path d="M375.333 42.9109L368.786 37.033V82.7315L375.333 76.894V42.9109Z" fill="#838181"/>
<path d="M336.535 62.8884L336.515 82.7752L343.073 76.8737L343.053 62.8884H336.535Z" fill="#838181"/>
<path d="M343.227 56.8121L343.103 43.1025L336.545 37.0295V56.8121H343.224H343.227Z" fill="#838181"/>
<path d="M161.508 71.4803C161.508 80.6906 150.02 80.1458 150.02 80.1458H138.533V63.5007H150.02C161.844 63.42 161.508 71.4803 161.508 71.4803ZM138.533 38.1125H147.286C156.376 38.5934 156.033 45.3456 156.033 45.3456C156.033 53.7388 145.981 53.8767 145.981 53.8767H138.533V38.1159V38.1125ZM159.383 57.1486C159.383 57.1486 167.245 53.8061 167.175 44.9354C167.175 44.9354 168.372 30.402 149.072 28.6298H127.657V89.5613H152.203C152.203 89.5613 172.713 89.6218 172.713 72.3714C172.713 72.3714 173.198 60.6289 159.383 57.152V57.1486ZM103.965 16.6924H194.122V101.465H103.965V16.6924ZM57.5431 71.4803C57.5431 80.6906 46.0553 80.1458 46.0553 80.1458H34.5676V63.5007H46.0553C57.8794 63.42 57.5431 71.4803 57.5431 71.4803ZM34.5642 38.1125H43.3213C52.4113 38.5934 52.0683 45.3456 52.0683 45.3456C52.0683 53.7388 42.0165 53.8767 42.0165 53.8767H34.5642V38.1159V38.1125ZM55.4177 57.1486C55.4177 57.1486 63.2836 53.8061 63.213 44.9354C63.213 44.9354 64.4069 30.402 45.1104 28.6298H23.6952V89.5613H48.2412C48.2412 89.5613 68.7518 89.6218 68.7518 72.3714C68.7518 72.3714 69.236 60.6289 55.4211 57.152L55.4177 57.1486ZM0 16.6924H90.1568V101.465H0V16.6924ZM279.695 32.9979V44.2561C279.695 44.2561 268.685 37.5039 256.514 37.3694C256.514 37.3694 233.811 36.9255 232.789 59.0855C232.789 59.0855 231.968 79.4632 256.242 80.6267C256.242 80.6267 266.425 81.8507 280.243 73.0607V84.7191C280.243 84.7191 261.71 95.7049 240.241 87.2444C240.241 87.2444 222.192 80.6671 221.506 59.0888C221.506 59.0888 220.756 36.8953 244.825 29.5277C244.825 29.5277 251.251 27.0729 262.803 28.1624C262.803 28.1624 269.707 28.845 279.695 33.0047V32.9979ZM207.93 101.465H298.087V16.6924H207.93V101.465Z" fill="black"/>
</svg>
