<svg width="48" height="48" viewBox="0 0 48 48" fill="none" xmlns="http://www.w3.org/2000/svg">
<rect x="1" y="1" width="46" height="46" rx="23" fill="white" stroke="#F8F8F8" stroke-width="2"/>
<path fill-rule="evenodd" clip-rule="evenodd" d="M31.9882 19.2529C30.3403 20.8193 30.1971 22.4336 30.1971 23.8312V23.9518C30.1971 25.0121 30.1015 25.3252 29.6002 25.783L29.5762 25.8072C29.3374 26.0481 28.9075 26.1926 27.6897 26.1926V29.9758C29.2418 29.9758 30.8418 29.8072 32.1552 28.5541C33.8031 26.9879 33.9463 25.3735 33.9463 23.9759V23.8552C33.9463 22.7951 34.2568 22.2892 34.5432 21.9998C34.83 21.7349 35.6418 21.7831 36 21.7831V18C34.4955 18.0481 33.0388 18.2408 31.9882 19.2529ZM18.5672 22.5783C18.7822 22.1445 18.9015 21.6625 18.9015 21.1566C18.9015 19.4217 17.5403 18.0241 15.8209 18H12V29.9998H16.4657C18.6628 29.9519 20.4298 28.1687 20.4298 25.9759C20.4298 24.5783 19.7374 23.301 18.5672 22.5783ZM22.2448 30H25.8748V18H22.2448V30Z" fill="#00B1EB"/>
</svg>
