<svg width="48" height="48" viewBox="0 0 48 48" fill="none" xmlns="http://www.w3.org/2000/svg">
<rect x="1" y="1" width="46" height="46" rx="23" fill="white" stroke="#F8F8F8" stroke-width="2"/>
<path fill-rule="evenodd" clip-rule="evenodd" d="M42.5725 23.0483V22.6063H44V26.1134C44 26.762 43.7671 27.2629 43.4103 27.5576C43.0381 27.8671 42.5105 27.9996 41.9054 27.9996C40.7573 28.0144 39.9659 27.5723 39.8262 26.6735H41.2692C41.3313 26.8503 41.5175 27.0124 41.8743 27.0124C42.3552 27.0124 42.526 26.7324 42.526 26.305V26.0103H42.4949C42.2622 26.2755 41.9364 26.4671 41.471 26.4671C40.5554 26.4671 39.7486 25.8187 39.7486 24.5515C39.7486 23.3872 40.4003 22.4884 41.3933 22.4884C41.9675 22.4884 42.3087 22.7094 42.5416 23.0483H42.5725ZM41.2227 24.4925C41.2227 25.0376 41.4863 25.4209 41.9054 25.4209C42.3243 25.4209 42.5881 25.023 42.5881 24.4925C42.5881 23.9914 42.3397 23.5788 41.9054 23.5788C41.4863 23.5788 41.2227 23.9325 41.2227 24.4925ZM39.4227 22.5326C39.547 22.5326 39.6246 22.5473 39.6711 22.5767V23.8146H39.6402C38.7556 23.6673 38.2437 24.0651 38.2437 24.9787V26.6735H36.7386V22.6209H38.166V23.3136H38.1971C38.5075 22.7536 38.9108 22.5326 39.4227 22.5326ZM35.7767 23.0337C35.4041 22.6946 34.9232 22.5032 34.287 22.5032C33.0148 22.5032 32.1303 23.3726 32.1303 24.6398C32.1303 25.922 33.0148 26.7766 34.3337 26.7914C35.4041 26.7914 36.1644 26.3346 36.4127 25.4061H34.9698C34.8767 25.6714 34.644 25.7893 34.3802 25.7893C33.9302 25.7893 33.6819 25.524 33.6198 25.023H36.4748C36.4903 24.1978 36.2732 23.4904 35.7767 23.0337ZM33.6198 24.2124C33.6665 23.7409 33.8992 23.4609 34.3181 23.4757C34.6749 23.4757 34.9543 23.7262 34.9852 24.2124H33.6198ZM29.0581 23.0337C29.3375 22.6798 29.7254 22.4884 30.2684 22.4884C31.339 22.4884 31.9597 23.402 31.9597 24.6252C31.9597 25.9957 31.2925 26.7914 30.1754 26.7914C29.7098 26.7914 29.2289 26.585 28.9806 26.1282H28.9651V26.6587H27.5376V21H29.0271V23.0337H29.0581ZM28.9806 24.6104C28.9806 25.2588 29.2754 25.6862 29.7254 25.6862C30.1754 25.6862 30.4237 25.2734 30.4237 24.6104C30.4237 23.962 30.1754 23.5346 29.7254 23.5346C29.2598 23.5346 28.9806 23.962 28.9806 24.6104ZM27.1032 24.1241V26.6587H25.6136V24.3746C25.6136 23.962 25.474 23.6967 25.1017 23.6967C24.7292 23.6967 24.543 24.021 24.543 24.463V26.6587H23.0535V24.3746C23.0535 23.962 22.914 23.6967 22.5416 23.6967C22.169 23.6967 21.9829 24.021 21.9829 24.463V26.6587H20.447V22.6209H21.8744V23.2251H21.9054C22.1846 22.7536 22.5725 22.5032 23.1932 22.5032C23.7362 22.5032 24.1397 22.7536 24.3414 23.1957H24.3724C24.7136 22.6652 25.1637 22.5032 25.6913 22.5032C26.6841 22.5032 27.1032 23.1957 27.1032 24.1241ZM17.9487 22.5178C16.5989 22.5178 15.73 23.3726 15.73 24.6546C15.73 25.9366 16.5989 26.7914 17.9333 26.7914C19.2832 26.7914 20.1365 25.9366 20.1365 24.6546C20.1365 23.3726 19.2987 22.5178 17.9487 22.5178ZM17.9178 25.8187C17.4522 25.8187 17.2351 25.3619 17.2351 24.6546C17.2351 23.9472 17.4522 23.5051 17.9178 23.5051C18.3833 23.5051 18.6159 23.9472 18.6159 24.6546C18.6159 25.3619 18.3833 25.8041 17.9178 25.8187ZM11.1373 24.6546C11.1373 23.3726 12.0062 22.5178 13.3562 22.5178C14.706 22.5178 15.5594 23.3873 15.5594 24.6546C15.5594 25.9366 14.706 26.7914 13.3562 26.7914C12.0062 26.7914 11.1373 25.9366 11.1373 24.6546ZM12.6424 24.6546C12.6424 25.3619 12.8597 25.8187 13.3251 25.8187C13.7905 25.8041 14.0233 25.3619 14.0233 24.6546C14.0233 23.9472 13.7905 23.5051 13.3251 23.5051C12.8597 23.5051 12.6424 23.9472 12.6424 24.6546ZM9.29079 26.6735H10.827V21H9.29079V26.6735ZM8.04968 23.5936V23.5642C8.51524 23.3578 8.74778 23.0189 8.74778 22.4736C8.74778 22.0021 8.56175 21.6188 8.22032 21.3537C7.91 21.1327 7.49095 21 6.93254 21H4V26.6587H7.01C7.59968 26.6587 8.03413 26.5556 8.37556 26.3198C8.77889 26.0251 9.02714 25.5535 9.02714 24.9493C9.02714 24.3157 8.67032 23.7852 8.04968 23.5936ZM6.7773 25.4061V25.4208H5.62921V24.2567H6.7773C7.11873 24.2567 7.3981 24.4336 7.3981 24.8314C7.3981 25.1998 7.13413 25.4061 6.7773 25.4061ZM6.62222 22.2231H5.61365V23.1957H6.63762V23.2103C6.9481 23.2103 7.18063 23.0483 7.18063 22.7094C7.18063 22.3851 6.9481 22.2231 6.62222 22.2231Z" fill="black"/>
</svg>
