<svg width="48" height="48" viewBox="0 0 48 48" fill="none" xmlns="http://www.w3.org/2000/svg">
<rect x="1" y="1" width="46" height="46" rx="23" fill="white" stroke="#F8F8F8" stroke-width="2"/>
<path d="M5 22.0685H6.54515C6.85102 22.0685 7.07866 22.0817 7.22808 22.1081C7.37926 22.1327 7.51373 22.1854 7.63151 22.2663C7.75104 22.3471 7.85036 22.4552 7.92947 22.5906C8.00857 22.7242 8.04812 22.8745 8.04812 23.0415C8.04812 23.2225 7.9989 23.3887 7.90046 23.5398C7.80378 23.691 7.67194 23.8044 7.50494 23.88C7.7405 23.9485 7.92156 24.0654 8.04812 24.2307C8.17469 24.3959 8.23797 24.5902 8.23797 24.8134C8.23797 24.9892 8.19666 25.1606 8.11404 25.3276C8.03318 25.4928 7.92156 25.6255 7.77917 25.7257C7.63854 25.8242 7.46451 25.8848 7.25709 25.9077C7.12701 25.9217 6.81323 25.9305 6.31575 25.934H5V22.0685ZM5.78049 22.7119V23.6058H6.29202C6.59613 23.6058 6.7851 23.6014 6.85893 23.5926C6.99253 23.5768 7.09712 23.531 7.17271 23.4555C7.25005 23.3781 7.28873 23.277 7.28873 23.1522C7.28873 23.0327 7.25533 22.936 7.18853 22.8622C7.12349 22.7866 7.02593 22.7409 6.89585 22.7251C6.8185 22.7163 6.59613 22.7119 6.22874 22.7119H5.78049ZM5.78049 24.2491V25.2828H6.50297C6.78422 25.2828 6.96265 25.2748 7.03823 25.259C7.15425 25.2379 7.2483 25.1869 7.32037 25.1061C7.3942 25.0235 7.43111 24.9136 7.43111 24.7765C7.43111 24.6605 7.40299 24.562 7.34674 24.4812C7.29049 24.4003 7.20875 24.3414 7.10152 24.3045C6.99604 24.2676 6.76577 24.2491 6.41068 24.2491H5.78049Z" fill="#13568A"/>
<path d="M8.25558 24.025C8.25558 23.6312 8.31447 23.3008 8.43225 23.0336C8.52014 22.8367 8.63967 22.66 8.79085 22.5036C8.94378 22.3471 9.11078 22.2311 9.29184 22.1555C9.53267 22.0536 9.81041 22.0026 10.1251 22.0026C10.6946 22.0026 11.1499 22.1793 11.4909 22.5326C11.8337 22.8859 12.0051 23.3772 12.0051 24.0065C12.0051 24.6306 11.8355 25.1193 11.4962 25.4726C11.1569 25.8242 10.7034 26 10.1356 26C9.56079 26 9.10375 25.8251 8.76448 25.4752C8.42522 25.1237 8.25558 24.6403 8.25558 24.025ZM9.0598 23.9986C9.0598 24.4363 9.16088 24.7686 9.36303 24.9953C9.56519 25.2203 9.82183 25.3329 10.133 25.3329C10.4441 25.3329 10.699 25.2212 10.8976 24.998C11.098 24.773 11.1982 24.4363 11.1982 23.9881C11.1982 23.5451 11.1007 23.2146 10.9056 22.9967C10.7122 22.7787 10.4547 22.6697 10.133 22.6697C9.81129 22.6697 9.552 22.7804 9.35512 23.0019C9.15824 23.2217 9.0598 23.5539 9.0598 23.9986Z" fill="#13568A"/>
<path d="M15.6166 25.934H14.7676L14.4301 25.056H12.8849L12.5659 25.934H11.7379L13.2435 22.0685H14.0688L15.6166 25.934ZM14.1796 24.4047L13.647 22.9703L13.1249 24.4047H14.1796Z" fill="#13568A"/>
<path d="M38.3276 25.9341V22.7225H37.1806V22.0685H40.2525V22.7225H39.1081V25.9341H38.3276Z" fill="#D1B182"/>
<path d="M41.2589 25.9341L39.8772 22.0685H40.7236L41.7018 24.9295L42.6484 22.0685H43.4764L42.0921 25.9341H41.2589Z" fill="#D1B182"/>
<path d="M15.9952 25.9341L14.4975 22.0686H15.0512L16.0558 24.8767C16.1367 25.1017 16.2044 25.3127 16.2589 25.5096C16.3186 25.2986 16.3881 25.0877 16.4672 24.8767L17.5113 22.0686H18.0334L16.5199 25.9341H15.9952Z" fill="#13568A"/>
<path d="M17.8506 24.0514C17.8506 23.4098 18.0229 22.9079 18.3675 22.5458C18.712 22.1819 19.1567 22 19.7017 22C20.0585 22 20.3802 22.0853 20.6667 22.2558C20.9533 22.4263 21.1712 22.6645 21.3206 22.9703C21.4718 23.2744 21.5474 23.6199 21.5474 24.0066C21.5474 24.3986 21.4683 24.7493 21.3101 25.0587C21.1519 25.3681 20.9278 25.6027 20.6377 25.7627C20.3477 25.9209 20.0348 26 19.699 26C19.3352 26 19.0099 25.9121 18.7234 25.7363C18.4369 25.5605 18.2198 25.3206 18.0721 25.0165C17.9245 24.7124 17.8506 24.3907 17.8506 24.0514ZM18.378 24.0593C18.378 24.5252 18.5028 24.8926 18.7524 25.1615C19.0038 25.4287 19.3185 25.5623 19.6964 25.5623C20.0814 25.5623 20.3978 25.4269 20.6456 25.1562C20.8952 24.8855 21.0201 24.5014 21.0201 24.004C21.0201 23.6893 20.9664 23.4151 20.8592 23.1813C20.7537 22.9457 20.5982 22.7638 20.3925 22.6355C20.1886 22.5054 19.9592 22.4403 19.7043 22.4403C19.3422 22.4403 19.0302 22.5652 18.7682 22.8148C18.5081 23.0626 18.378 23.4775 18.378 24.0593Z" fill="#13568A"/>
<path d="M21.718 25.9341V22.0686H22.2427L24.273 25.1035V22.0686H24.7634V25.9341H24.2387L22.2084 22.8965V25.9341H21.718Z" fill="#13568A"/>
<path d="M26.1232 25.9341V22.5247H24.8496V22.0686H27.9136V22.5247H26.6347V25.9341H26.1232Z" fill="#13568A"/>
<path d="M27.1296 25.9341L28.6141 22.0686H29.1652L30.7473 25.9341H30.1645L29.7136 24.7633H28.0973L27.6728 25.9341H27.1296ZM28.2449 24.3467H29.5554L29.152 23.2762C29.0289 22.951 28.9375 22.6838 28.8778 22.4746C28.8286 22.7225 28.7591 22.9686 28.6695 23.2129L28.2449 24.3467Z" fill="#13568A"/>
<path d="M30.6699 25.9341V22.0686H32.0015C32.3021 22.0686 32.5315 22.087 32.6897 22.1239C32.9112 22.1749 33.1002 22.2672 33.2566 22.4008C33.4605 22.5731 33.6126 22.7937 33.7128 23.0626C33.8147 23.3298 33.8657 23.6357 33.8657 23.9802C33.8657 24.2738 33.8314 24.5339 33.7629 24.7607C33.6943 24.9875 33.6064 25.1756 33.4992 25.325C33.392 25.4726 33.2742 25.5895 33.1459 25.6757C33.0193 25.7601 32.8655 25.8242 32.6844 25.8682C32.5051 25.9121 32.2986 25.9341 32.0648 25.9341H30.6699ZM31.1815 25.4779H32.0068C32.2617 25.4779 32.4612 25.4542 32.6053 25.4067C32.7512 25.3593 32.8673 25.2925 32.9534 25.2063C33.0747 25.085 33.1687 24.9224 33.2355 24.7185C33.3041 24.5129 33.3384 24.2641 33.3384 23.9723C33.3384 23.568 33.2716 23.2577 33.138 23.0415C33.0061 22.8236 32.8453 22.6777 32.6554 22.6038C32.5183 22.5511 32.2977 22.5247 31.9936 22.5247H31.1815V25.4779Z" fill="#13568A"/>
<path d="M34.0969 25.9341V22.0686H36.8919V22.5247H34.6085V23.7086H36.7469V24.1622H34.6085V25.4779H36.9816V25.9341H34.0969Z" fill="#13568A"/>
</svg>
