<svg width="48" height="48" viewBox="0 0 48 48" fill="none" xmlns="http://www.w3.org/2000/svg">
<rect x="1" y="1" width="46" height="46" rx="23" fill="white" stroke="#F8F8F8" stroke-width="2"/>
<path fill-rule="evenodd" clip-rule="evenodd" d="M14.0397 18.057H13.4818C12.6669 18.057 12 17.3692 12 16.5285C12 15.6878 12.6669 15 13.4818 15H14.0397C14.7736 15 15.3871 15.5579 15.502 16.2828H14.4761C14.3643 16.0236 14.0817 15.8392 13.7497 15.8392C13.3199 15.8392 12.9714 16.1478 12.9714 16.5285C12.9714 16.9092 13.3199 17.2178 13.7497 17.2178C14.0817 17.2178 14.3643 17.0334 14.4761 16.7742H15.502C15.3871 17.4991 14.7736 18.057 14.0397 18.057ZM26.6714 19.4247L27.9592 21.0269L23.8507 25.7494L24.6398 25.7406L24.6328 25.7494H28.263C25.7768 24.9993 26.462 23.5372 26.7973 23.0256L26.9304 22.8435H29.4193L30.8674 24.645L30.9996 24.8095C31.2046 25.0813 31.5405 25.6085 31.1837 25.7494H36L30.6348 19.0721L26.6714 19.4247ZM26.7393 26.2338H27.4184C27.9246 26.2338 28.3387 26.6609 28.3387 27.1831V27.5208C28.3387 28.043 27.9246 28.4701 27.4184 28.4701H26.7393C26.2331 28.4701 25.8189 28.043 25.8189 27.5208V27.1831C25.8189 26.6609 26.2331 26.2338 26.7393 26.2338ZM30.2631 26.3691H32.4795V30.8348H36V32.8647H32.4795H30.2631V30.8348V26.3691ZM27.9935 29.1682V30.4929V31.2249H29.6796V32.8647H24.5561V31.2249H26.2748V30.4929H24.5561V28.8532H27.9935V29.1682ZM21.8741 29.6382C21.1422 29.5527 18.9326 29.4246 17.9935 29.3961C17.9324 29.3942 17.8633 29.3923 17.7875 29.3902C16.6995 29.3598 14.2372 29.2911 14.2372 28.8532C14.2372 28.4365 15.8757 28.458 16.6268 28.4679C16.7203 28.4691 16.8 28.4701 16.8611 28.4701C17.4135 28.4701 21.4322 28.5699 23.5589 29.0685V26.889C23.5589 26.889 20.3412 26.3192 17.9383 26.3192C17.7442 26.3192 17.5426 26.318 17.3362 26.3168C14.9872 26.3027 12 26.2848 12 28.0001C12 29.0115 12.7595 29.5049 15.4387 29.6571C16.068 29.6928 16.7599 29.7201 17.4481 29.7473C19.6898 29.8359 21.8936 29.9229 21.7774 30.2935C21.6292 30.7661 20.1267 30.7504 18.7582 30.7361L18.6564 30.7351C17.2616 30.7209 14.5548 30.5784 12.2693 30.0656V32.448C12.2693 32.448 15.4387 33 19.1121 33C22.7856 33 24.056 32.4445 24.056 31.1339C24.056 29.884 22.7368 29.7355 21.9799 29.6503L21.8741 29.6382ZM28.1158 21.2218L27.1178 22.587H29.2132L28.1158 21.2218ZM23.6032 24.2216C23.6032 23.0358 22.0703 22.8649 22.0703 22.8649C22.0703 22.8649 23.9595 22.7366 23.9595 21.0059C23.9595 19.2751 21.6767 19.2965 21.6767 19.2965H21.3142H20.3613H19.6363V25.7494H21.3142V23.4382C21.3142 23.4382 21.6025 23.3973 21.7734 23.5735C21.9443 23.7498 21.9253 24.2216 21.9253 24.2216V25.493V25.7494H23.6032V25.493V24.2216ZM21.3142 20.9364V22.295C21.3142 22.295 22.1998 22.3414 22.1998 21.5561C22.1998 21.5561 22.2361 20.9364 21.3142 20.9364ZM17.8471 22.4108H17.6063C18.4694 22.4108 19.077 21.8075 19.077 21.0703C19.077 20.0947 18.6835 19.2965 16.0481 19.2965H14.6147H14.3817H13.1249H12.2826V25.7494H13.1249H14.3817H14.7233H14.7234H16.1977C18.5488 25.7494 19.2416 24.8992 19.2416 23.8601V23.8492C19.2416 23.0581 18.6903 22.4108 17.8471 22.4108ZM16.9659 23.5883C16.9659 23.3007 16.7377 23.0654 16.4589 23.0654H16.0381H15.695H14.3747V24.1113H15.695H16.0381H16.4589C16.7377 24.1113 16.9659 23.8759 16.9659 23.5883ZM15.6576 21.8036H14.3747V20.8349H15.6576H16.0381H16.4186C16.6769 20.8349 16.8882 21.0529 16.8882 21.3193C16.8882 21.5857 16.6769 21.8036 16.4186 21.8036H16.0381H15.6576ZM27.6771 17.9824H29.2479V17.0636H27.6771V15.0818H26.7103V17.9824H27.28H27.6771ZM24.0417 17.9824H23.0836L23.7103 15.0818H25.559L26.1857 17.9824H25.2276L25.1289 17.3806H24.1404L24.0417 17.9824ZM24.255 16.6817H25.0143L24.8851 15.8938H24.3842L24.255 16.6817ZM19.4187 17.9824H20.2991V16.2552L21.7052 17.9824H22.5856V15.0818H21.7052V16.7467L20.2991 15.0818H19.4187V17.9824ZM15.8196 17.9824H16.7777L16.8764 17.3806H17.8649L17.9636 17.9824H18.9217L18.295 15.0818H16.4462L15.8196 17.9824ZM16.991 16.6817H17.7503L17.6211 15.8938H17.1202L16.991 16.6817Z" fill="black"/>
</svg>
