<svg width="48" height="48" viewBox="0 0 48 48" fill="none" xmlns="http://www.w3.org/2000/svg">
<rect x="1" y="1" width="46" height="46" rx="23" fill="white" stroke="#F8F8F8" stroke-width="2"/>
<path d="M41.6959 25.4809V22.0728H42.5057V24.7552H43.921V25.4809H41.6959Z" fill="#045F8C"/>
<path fill-rule="evenodd" clip-rule="evenodd" d="M40.1891 22.0728H39.4849L37.9218 25.4951H38.4498C38.4992 25.4951 38.5555 25.488 38.6048 25.4738C38.6611 25.4595 38.7104 25.4382 38.7526 25.4097C38.7949 25.3813 38.8371 25.3457 38.8724 25.3101C38.9075 25.2746 38.9357 25.2319 38.9568 25.1892L39.1258 24.8121H40.5482L40.7243 25.1892C40.7454 25.239 40.7735 25.2817 40.8088 25.3172C40.8439 25.3527 40.886 25.3811 40.9281 25.4095L40.9284 25.4097C40.9707 25.4311 41.02 25.4525 41.0693 25.4667C41.1186 25.4809 41.1679 25.488 41.2242 25.488H41.7523L40.1891 22.0728ZM40.2173 24.0935H39.4498L39.7666 23.382C39.7708 23.3713 39.7751 23.3613 39.7791 23.3517C39.7885 23.3293 39.7969 23.3094 39.8018 23.2895C39.8088 23.261 39.8159 23.2326 39.8229 23.2112C39.83 23.1899 39.837 23.1614 39.837 23.1401C39.837 23.157 39.8414 23.1739 39.8468 23.1943C39.8482 23.1997 39.8496 23.2053 39.8511 23.2112C39.8581 23.2326 39.8652 23.261 39.8722 23.2895C39.8772 23.3095 39.8856 23.3295 39.8951 23.352C39.8991 23.3615 39.9033 23.3714 39.9074 23.382L40.2173 24.0935Z" fill="#045F8C"/>
<path fill-rule="evenodd" clip-rule="evenodd" d="M35.2811 25.4809H36.098V24.4421H36.5415L37.1401 25.2176C37.1823 25.2746 37.2316 25.3244 37.2809 25.3599C37.3302 25.3955 37.3795 25.424 37.4217 25.4382C37.4601 25.4576 37.4985 25.4652 37.5316 25.4718C37.5349 25.4725 37.5382 25.4731 37.5415 25.4738C37.5767 25.4809 37.6048 25.4809 37.6189 25.4809H37.633H38.316L37.3654 24.25C37.471 24.1788 37.5555 24.1077 37.626 24.0294C37.6963 23.9512 37.7597 23.8658 37.802 23.7804C37.8442 23.695 37.8794 23.6097 37.9006 23.5172C37.9217 23.4247 37.9287 23.3393 37.9287 23.2468C37.9287 23.1543 37.9147 23.0618 37.8935 22.9693C37.8724 22.8768 37.8372 22.7843 37.7879 22.6989C37.7386 22.6064 37.6823 22.5282 37.6118 22.4499C37.5415 22.3716 37.457 22.3076 37.3654 22.2507C37.2739 22.1938 37.1683 22.1511 37.0556 22.1155C36.9429 22.0799 36.8162 22.0657 36.6824 22.0657H35.2811V25.4809ZM36.8796 23.6239C36.8302 23.6452 36.781 23.6595 36.7317 23.6595H36.105V22.8483H36.7317C36.781 22.8483 36.8302 22.8626 36.8796 22.8839C36.9288 22.9053 36.9711 22.9408 37.0063 22.9764C37.0415 23.012 37.0697 23.0547 37.0908 23.1045C37.1119 23.1543 37.126 23.2041 37.126 23.2539C37.126 23.3037 37.1119 23.3535 37.0908 23.4033C37.0697 23.4531 37.0415 23.4958 37.0063 23.5314C36.9984 23.538 36.9907 23.5447 36.9832 23.5513C36.9504 23.5798 36.9196 23.6065 36.8796 23.6239Z" fill="#045F8C"/>
<path d="M32.7462 24.1077C32.7462 24.1931 32.7674 24.2713 32.8026 24.3496C32.8378 24.4279 32.8871 24.4919 32.9504 24.5488C33.0138 24.6058 33.0842 24.6485 33.1617 24.684C33.2391 24.7196 33.3307 24.7338 33.4152 24.7338C33.5067 24.7338 33.5912 24.7196 33.6687 24.684C33.7461 24.6485 33.8236 24.6058 33.8799 24.5488C33.9433 24.4919 33.9926 24.4279 34.0278 24.3496C34.063 24.2713 34.0841 24.1931 34.0841 24.1077V22.0728H34.9009V24.1077C34.9009 24.2998 34.8587 24.4848 34.7812 24.6555C34.7038 24.8263 34.5981 24.9758 34.4644 25.1038C34.3306 25.2319 34.1686 25.3315 33.9926 25.4026C33.8095 25.4738 33.6194 25.5165 33.4152 25.5165C33.2814 25.5165 33.1476 25.5022 33.0209 25.4667C32.8941 25.4311 32.7744 25.3884 32.6688 25.3244C32.5561 25.2603 32.4575 25.1892 32.366 25.1038C32.2745 25.0184 32.197 24.9259 32.1336 24.8192C32.0703 24.7125 32.0209 24.6058 31.9858 24.4848C31.9506 24.3638 31.9294 24.2429 31.9294 24.1077V22.0728H32.7462V24.1077Z" fill="#045F8C"/>
<path fill-rule="evenodd" clip-rule="evenodd" d="M28.9227 25.4809H29.7325V24.4421H30.1831L30.7817 25.2176C30.8239 25.2746 30.8732 25.3244 30.9225 25.3599C30.9718 25.3955 31.0211 25.424 31.0633 25.4382C31.1018 25.4576 31.1401 25.4652 31.1732 25.4718C31.1766 25.4725 31.1798 25.4731 31.1831 25.4738C31.2183 25.4809 31.2464 25.4809 31.2605 25.4809H31.2746H31.9576L31.007 24.25C31.1126 24.1788 31.1971 24.1077 31.2676 24.0294C31.3379 23.9512 31.4013 23.8658 31.4436 23.7804C31.4858 23.695 31.521 23.6097 31.5422 23.5172C31.5633 23.4247 31.5703 23.3393 31.5703 23.2468C31.5703 23.1543 31.5563 23.0618 31.5351 22.9693C31.514 22.8768 31.4788 22.7843 31.4295 22.6989C31.3802 22.6064 31.3239 22.5282 31.2535 22.4499C31.1831 22.3716 31.0986 22.3076 31.007 22.2507C30.9155 22.1938 30.8099 22.1511 30.6972 22.1155C30.5845 22.0799 30.4578 22.0657 30.324 22.0657H28.9227V25.4809ZM30.5071 23.6239C30.4648 23.6452 30.4155 23.6595 30.3662 23.6595H29.7396V22.8483H30.3662C30.4155 22.8483 30.4578 22.8626 30.5071 22.8839C30.5564 22.9053 30.5986 22.9408 30.6338 22.9764C30.669 23.012 30.6972 23.0547 30.7183 23.1045C30.7394 23.1543 30.7535 23.2041 30.7535 23.2539C30.7535 23.3037 30.7394 23.3535 30.7183 23.4033C30.6972 23.4531 30.669 23.4958 30.6338 23.5314C30.5986 23.567 30.5564 23.6025 30.5071 23.6239Z" fill="#045F8C"/>
<path d="M26.1906 25.4809V22.0799H26.4863V25.1821H28.0284V25.4809H26.1906Z" fill="#045F8C"/>
<path fill-rule="evenodd" clip-rule="evenodd" d="M24.395 22.0799H24.1486L22.6628 25.4809H22.7967C22.86 25.4809 22.9093 25.4595 22.9586 25.4311C23.0079 25.3955 23.0431 25.3528 23.0642 25.303L23.3318 24.6698H25.1908L25.4654 25.303C25.4935 25.3599 25.5217 25.4026 25.571 25.4311C25.6132 25.4666 25.6696 25.4809 25.7259 25.4809H25.8597C25.7999 25.3386 25.7382 25.1963 25.6766 25.054C25.615 24.9117 25.5534 24.7694 25.4935 24.6271C25.4166 24.4442 25.3368 24.2614 25.2578 24.0804C25.2139 23.9797 25.1702 23.8796 25.1274 23.7804C25.0675 23.6381 25.0059 23.4976 24.9443 23.357C24.8827 23.2165 24.8211 23.076 24.7612 22.9337C24.7164 22.8298 24.6716 22.7239 24.6264 22.6172C24.5509 22.4388 24.4743 22.258 24.395 22.0799ZM25.071 24.3781H23.4726L24.2261 22.6349L24.2472 22.5709C24.2542 22.5495 24.2613 22.5282 24.2613 22.5068C24.2683 22.4855 24.2753 22.457 24.2753 22.4357V22.4357C24.2753 22.457 24.2753 22.4855 24.2824 22.5068C24.2824 22.5282 24.2894 22.5495 24.2965 22.5709C24.3035 22.5993 24.3106 22.6207 24.3176 22.6349L25.071 24.3781Z" fill="#045F8C"/>
<path d="M22.3459 25.4809H22.0572L20.0222 22.5424C20.0151 22.5353 20.0081 22.5211 20.001 22.5068C19.994 22.4926 19.994 22.4784 19.9869 22.4712C19.9799 22.457 19.9729 22.4428 19.9729 22.4286V25.4809H19.6771V22.0799H19.8813C19.9447 22.0799 19.994 22.087 20.0292 22.1013C20.0644 22.1155 20.0996 22.144 20.1208 22.1795L21.9797 24.869C21.9938 24.8832 22.0008 24.9046 22.0078 24.9188C22.0149 24.9401 22.0219 24.9544 22.029 24.9686C22.036 24.9828 22.0431 25.0042 22.0431 25.0255V22.0799H22.3318V25.4809H22.3459Z" fill="#045F8C"/>
<path fill-rule="evenodd" clip-rule="evenodd" d="M17.8816 22.0799H17.6352L16.1635 25.4809H16.2973C16.3536 25.4809 16.4029 25.4595 16.4522 25.4311C16.5015 25.3955 16.5366 25.3528 16.5578 25.303L16.8254 24.6698H18.6843L18.959 25.303C18.9871 25.3599 19.0153 25.4026 19.0646 25.4311C19.1068 25.4666 19.1632 25.4809 19.2195 25.4809H19.3533C19.2934 25.3386 19.2318 25.1963 19.1702 25.054C19.1086 24.9117 19.047 24.7694 18.9871 24.6271C18.9103 24.4445 18.8306 24.2619 18.7518 24.0813C18.7077 23.9803 18.6639 23.8799 18.6209 23.7804C18.561 23.6378 18.4992 23.497 18.4375 23.3562C18.376 23.2159 18.3145 23.0757 18.2548 22.9337C18.1831 22.7768 18.1137 22.6154 18.044 22.4532C17.9904 22.3286 17.9367 22.2036 17.8816 22.0799ZM18.5576 24.3781H16.9592L17.7126 22.6349L17.7337 22.5709C17.7408 22.5495 17.7478 22.5282 17.7478 22.5068C17.7548 22.4855 17.7619 22.457 17.7619 22.4357C17.7619 22.457 17.7619 22.4855 17.7689 22.5068C17.7689 22.528 17.7759 22.5493 17.7829 22.5705L17.783 22.5709C17.7901 22.5993 17.7971 22.6207 17.8042 22.6349L18.5576 24.3781Z" fill="#045F8C"/>
<path d="M13.4314 23.7804C13.4314 23.9156 13.4454 24.0437 13.4807 24.1646C13.5159 24.2856 13.5651 24.3994 13.6215 24.5061C13.6849 24.6129 13.7553 24.7125 13.8468 24.7979C13.9313 24.8832 14.0299 24.9615 14.1355 25.0255C14.2411 25.0896 14.3538 25.1394 14.4735 25.1678C14.5932 25.2034 14.7199 25.2177 14.8538 25.2177C15.0087 25.2177 15.1495 25.1963 15.2903 25.1465C15.4241 25.1038 15.5509 25.0398 15.6705 24.9615C15.6917 24.9473 15.7128 24.933 15.741 24.9259C15.7691 24.9188 15.7903 24.9117 15.8184 24.9117C15.8607 24.9117 15.9029 24.9188 15.9381 24.933C15.9734 24.9473 16.0015 24.9686 16.0297 24.9971L16.0508 25.0184C15.8959 25.1678 15.7128 25.2888 15.5086 25.3741C15.3044 25.4596 15.0861 25.5022 14.8538 25.5022C14.6143 25.5022 14.396 25.4596 14.1848 25.3671C13.9736 25.2746 13.7975 25.1536 13.6356 24.9971C13.4807 24.8405 13.3539 24.6556 13.2694 24.4421C13.1779 24.2287 13.1356 24.0081 13.1356 23.7662C13.1356 23.5243 13.1779 23.3037 13.2694 23.0903C13.3609 22.8768 13.4807 22.6918 13.6356 22.5353C13.7905 22.3788 13.9736 22.2507 14.1848 22.1653C14.396 22.0728 14.6143 22.0301 14.8538 22.0301C15.0931 22.0301 15.3115 22.0728 15.5086 22.1582C15.7128 22.2436 15.8889 22.3645 16.0437 22.514L16.0226 22.5353C15.9945 22.5638 15.9663 22.5851 15.9311 22.5993C15.8959 22.6136 15.8607 22.6207 15.8184 22.6207C15.7621 22.6207 15.7128 22.6064 15.6705 22.5709C15.5579 22.4926 15.4312 22.4286 15.2903 22.3788C15.1565 22.3361 15.0087 22.3076 14.8538 22.3076C14.7199 22.3076 14.5932 22.3218 14.4735 22.3574C14.3538 22.393 14.2411 22.4428 14.1355 22.4997C14.0299 22.5638 13.9313 22.6349 13.8468 22.7274C13.7623 22.8128 13.6849 22.9124 13.6215 23.0191C13.5581 23.1258 13.5088 23.2397 13.4807 23.3606C13.4454 23.5172 13.4314 23.6452 13.4314 23.7804Z" fill="#045F8C"/>
<path fill-rule="evenodd" clip-rule="evenodd" d="M5.77637 24.0603V23.0452C5.77637 22.4849 6.23112 22.0301 6.79144 22.0301C7.35175 22.0301 7.8065 22.4849 7.8065 23.0452C7.8065 23.6055 7.35175 24.0603 6.79144 24.0603H5.77637ZM6.79144 22.5498C6.5194 22.5498 6.29608 22.7732 6.29608 23.0452H6.30014V23.5406H6.79549C7.06753 23.5406 7.28679 23.3172 7.28679 23.0452C7.28679 22.7732 7.06347 22.5498 6.79144 22.5498Z" fill="url(#paint0_linear_920_2868)"/>
<path d="M4.76135 22.9522V26.5979H5.29936V24.2637V22.9522C5.29936 22.1661 5.96767 21.5284 6.79149 21.5284C7.61531 21.5284 8.28362 22.1661 8.28362 22.9522C8.28362 23.7383 7.61531 24.376 6.79149 24.376H5.74069V24.8894H6.79149C7.90953 24.8894 8.8216 24.0231 8.8216 22.9522C8.8216 21.8814 7.90953 21.0151 6.79149 21.0151C5.66924 21.0151 4.76135 21.8814 4.76135 22.9522Z" fill="url(#paint1_linear_920_2868)"/>
<path d="M4 22.9194C4 22.9275 4 22.9315 4 22.9396V26.0569C4.00404 26.1255 4.04036 26.5979 4.54895 26.5979V24.6234V22.9436V22.9194C4.54895 21.6111 5.61052 20.5492 6.91832 20.5492C8.2261 20.5492 9.28767 21.6111 9.28767 22.9194C9.28767 24.2277 8.2261 25.2896 6.91832 25.2896H5.90922V25.8388H6.91832C8.52882 25.8388 9.83662 24.5305 9.83662 22.9194C9.83662 21.3083 8.52482 20 6.91832 20C5.30779 20 4 21.3083 4 22.9194Z" fill="url(#paint2_linear_920_2868)"/>
<path d="M8.28979 23.0452C8.28979 23.766 7.62925 24.3508 6.81498 24.3508H5.77637V24.8216H6.81498C7.92006 24.8216 8.82159 24.0272 8.82159 23.0452H8.28979Z" fill="url(#paint3_linear_920_2868)"/>
<path d="M6.8196 25.3101H5.77637V25.8366H6.8196C8.48043 25.8366 9.83247 24.5861 9.83664 23.0452H9.26913C9.26493 24.2957 8.16744 25.3101 6.8196 25.3101Z" fill="url(#paint4_linear_920_2868)"/>
<path d="M5.77637 25.3291V25.3605V25.8319V25.8633H6.85317C7.43464 25.8633 7.9429 26.1619 8.20134 26.5979H8.80002H8.82159L8.80864 26.5665C8.51577 25.8437 7.75338 25.3291 6.85748 25.3291H5.77637Z" fill="url(#paint5_linear_920_2868)"/>
<path d="M5.77637 24.314V24.8747H6.77492C7.83339 24.8747 8.7321 25.6003 9.01969 26.5979H9.58287C9.27932 25.2911 8.13297 24.314 6.77492 24.314H5.77637Z" fill="url(#paint6_linear_920_2868)"/>
<defs>
<linearGradient id="paint0_linear_920_2868" x1="3.86579" y1="25.9191" x2="9.61664" y2="25.9191" gradientUnits="userSpaceOnUse">
<stop stop-color="#8EC045"/>
<stop offset="0.2789" stop-color="#74B989"/>
<stop offset="0.5309" stop-color="#5BB3B4"/>
<stop offset="0.7425" stop-color="#44AFCF"/>
<stop offset="0.9054" stop-color="#33ACDE"/>
<stop offset="1" stop-color="#2AABE3"/>
</linearGradient>
<linearGradient id="paint1_linear_920_2868" x1="3.76278" y1="27.8995" x2="9.71608" y2="27.8995" gradientUnits="userSpaceOnUse">
<stop stop-color="#8EC045"/>
<stop offset="0.2789" stop-color="#74B989"/>
<stop offset="0.5309" stop-color="#5BB3B4"/>
<stop offset="0.7425" stop-color="#44AFCF"/>
<stop offset="0.9054" stop-color="#33ACDE"/>
<stop offset="1" stop-color="#2AABE3"/>
</linearGradient>
<linearGradient id="paint2_linear_920_2868" x1="3.99818" y1="26.5974" x2="9.83518" y2="26.5974" gradientUnits="userSpaceOnUse">
<stop stop-color="#8EC045"/>
<stop offset="0.2789" stop-color="#74B989"/>
<stop offset="0.5309" stop-color="#5BB3B4"/>
<stop offset="0.7425" stop-color="#44AFCF"/>
<stop offset="0.9054" stop-color="#33ACDE"/>
<stop offset="1" stop-color="#2AABE3"/>
</linearGradient>
<linearGradient id="paint3_linear_920_2868" x1="8.70672" y1="25.9443" x2="9.07215" y2="23.1938" gradientUnits="userSpaceOnUse">
<stop stop-color="#025F9D"/>
<stop offset="0.4508" stop-color="#025F9D"/>
<stop offset="0.5232" stop-color="#0864A3" stop-opacity="0.8681"/>
<stop offset="0.8309" stop-color="#1F7BBC" stop-opacity="0.3078"/>
<stop offset="1" stop-color="#2784C6" stop-opacity="0.01"/>
</linearGradient>
<linearGradient id="paint4_linear_920_2868" x1="9.07041" y1="26.4273" x2="9.62677" y2="23.5507" gradientUnits="userSpaceOnUse">
<stop stop-color="#025F9D"/>
<stop offset="0.4508" stop-color="#025F9D"/>
<stop offset="0.5232" stop-color="#0864A3" stop-opacity="0.8681"/>
<stop offset="0.8309" stop-color="#1F7BBC" stop-opacity="0.3078"/>
<stop offset="1" stop-color="#2784C6" stop-opacity="0.01"/>
</linearGradient>
<linearGradient id="paint5_linear_920_2868" x1="11.571" y1="25.8425" x2="10.4425" y2="22.9339" gradientUnits="userSpaceOnUse">
<stop stop-color="#8EC045"/>
<stop offset="0.2789" stop-color="#74B989"/>
<stop offset="0.5309" stop-color="#5BB3B4"/>
<stop offset="0.7425" stop-color="#44AFCF"/>
<stop offset="0.9054" stop-color="#33ACDE"/>
<stop offset="1" stop-color="#2AABE3"/>
</linearGradient>
<linearGradient id="paint6_linear_920_2868" x1="10.701" y1="24.8246" x2="8.19478" y2="22.0721" gradientUnits="userSpaceOnUse">
<stop stop-color="#8EC045"/>
<stop offset="0.2789" stop-color="#74B989"/>
<stop offset="0.5309" stop-color="#5BB3B4"/>
<stop offset="0.7425" stop-color="#44AFCF"/>
<stop offset="0.9054" stop-color="#33ACDE"/>
<stop offset="1" stop-color="#2AABE3"/>
</linearGradient>
</defs>
</svg>
