<svg width="48" height="48" viewBox="0 0 48 48" fill="none" xmlns="http://www.w3.org/2000/svg">
<rect x="1" y="1" width="46" height="46" rx="23" fill="white" stroke="#F8F8F8" stroke-width="2"/>
<path fill-rule="evenodd" clip-rule="evenodd" d="M19.5598 21.6317C19.5598 24.9291 22.7455 27.6042 26.674 27.6042C27.0426 27.6042 27.4058 27.5818 27.7606 27.5339C26.6823 27.9985 25.4608 28.2604 24.1651 28.2604C19.8046 28.2604 16.2697 25.2924 16.2697 21.6289C16.2697 17.9651 19.8046 15 24.1651 15C25.4608 15 26.6823 15.2619 27.7634 15.7264C27.4058 15.6814 27.0426 15.659 26.674 15.659C22.7455 15.659 19.5598 18.3341 19.5598 21.6317ZM23.2792 21.6317C23.2792 19.2239 25.6065 17.2696 28.4731 17.2696C28.7428 17.2696 29.0097 17.2866 29.2682 17.3204C28.4786 16.9825 27.5872 16.791 26.6409 16.791C23.4582 16.791 20.8775 18.9593 20.8803 21.6317C20.8803 24.3039 23.4608 26.4722 26.6438 26.4722C27.5902 26.4722 28.4814 26.2807 29.2682 25.9428C29.0097 25.9766 28.7428 25.9937 28.4731 25.9937C25.6038 25.9937 23.2792 24.0394 23.2792 21.6317ZM28.7786 25.1853C26.4455 25.1853 24.5531 23.5972 24.5531 21.6374C24.5502 19.6717 26.4429 18.0834 28.7786 18.0834C29.4717 18.0834 30.1265 18.2243 30.7042 18.4721C30.5145 18.4467 30.3191 18.4355 30.1211 18.4355C28.0192 18.4355 26.3135 19.8661 26.3135 21.6344C26.3135 23.4 28.0192 24.8334 30.1211 24.8334C30.3191 24.8334 30.5145 24.8193 30.7042 24.7967C30.1265 25.0445 29.4717 25.1853 28.7786 25.1853ZM13.37 31.2734C13.304 31.358 13.2078 31.4002 13.0811 31.4002C12.9491 31.4002 12.8474 31.3496 12.7758 31.2425C12.7015 31.1384 12.6657 30.9413 12.6657 30.6567C12.6657 30.4259 12.696 30.2569 12.7565 30.1498C12.8365 30.0063 12.9518 29.933 13.1032 29.933C13.1692 29.933 13.2297 29.9471 13.2848 29.981C13.3397 30.0147 13.3866 30.0627 13.4223 30.1218C13.4469 30.1583 13.4663 30.2147 13.4883 30.2934L14.0771 30.1358C14.0028 29.8656 13.8872 29.6656 13.7303 29.5331C13.5737 29.4008 13.3618 29.3361 13.0894 29.3361C12.7428 29.3361 12.4731 29.4515 12.2834 29.6796C12.0963 29.9078 12 30.2344 12 30.6597C12 30.9806 12.0549 31.2425 12.1623 31.4509C12.2697 31.6535 12.3989 31.7972 12.5475 31.8789C12.696 31.9605 12.8885 32 13.1225 32C13.3151 32 13.4746 31.9663 13.5985 31.8986C13.7222 31.8339 13.8266 31.7353 13.912 31.603C13.9945 31.4706 14.0578 31.3073 14.0963 31.1131L13.5131 30.9018C13.4828 31.0622 13.436 31.189 13.37 31.2734ZM34.9491 30.6455C34.9491 30.2315 34.85 29.9078 34.6574 29.6796C34.4622 29.4515 34.1871 29.3361 33.8266 29.3361C33.4774 29.3361 33.2022 29.4544 33.0069 29.6881C32.8115 29.9218 32.7126 30.2484 32.7126 30.6681C32.7126 30.9666 32.762 31.2172 32.8611 31.417C32.9602 31.617 33.0894 31.7633 33.2489 31.8564C33.4112 31.9493 33.6122 31.9943 33.8542 31.9943C34.0935 31.9943 34.2943 31.9408 34.4538 31.8339C34.6162 31.7268 34.7372 31.5776 34.8226 31.3862C34.9078 31.1918 34.9491 30.9468 34.9491 30.6455ZM36 31.9521H35.3315V29.3813H36V31.9521ZM34.2806 30.637C34.2806 30.3948 34.2394 30.2175 34.1569 30.1048C34.0742 29.9922 33.9643 29.9388 33.8238 29.9388C33.6891 29.9388 33.5818 29.995 33.4992 30.1078C33.4195 30.2203 33.3783 30.409 33.3783 30.6709C33.3783 30.9298 33.4195 31.1158 33.4992 31.2314C33.5791 31.3438 33.6918 31.4002 33.8295 31.4002C33.9725 31.4002 34.0825 31.3438 34.1623 31.234C34.2394 31.1214 34.2806 30.9243 34.2806 30.637ZM32.4512 31.2228C32.4512 31.0595 32.4128 30.9216 32.3412 30.8145C32.2697 30.7074 32.154 30.6315 32 30.5865C32.1017 30.5441 32.1788 30.4879 32.2311 30.4147C32.3109 30.3049 32.3494 30.1752 32.3494 30.0232C32.3494 29.8429 32.2943 29.6909 32.1817 29.567C32.0715 29.443 31.912 29.3812 31.7028 29.3812H30.4566V31.9578H31.6065C31.6562 31.9578 31.7551 31.9436 31.9065 31.9211C32.0192 31.9043 32.1046 31.8761 32.1595 31.8367C32.2503 31.7748 32.3218 31.6902 32.3742 31.5833C32.4263 31.4762 32.4512 31.3551 32.4512 31.2228ZM31.714 30.9468C31.7606 30.9918 31.7826 31.0539 31.7826 31.1299C31.7826 31.2143 31.758 31.2791 31.7111 31.3269C31.6643 31.375 31.5846 31.4002 31.4691 31.4002H31.1308V30.8766H31.4691C31.5872 30.8766 31.6671 30.9018 31.714 30.9468ZM31.1278 30.3893H31.4168C31.5214 30.3893 31.5929 30.3666 31.6342 30.3246C31.6754 30.2822 31.6946 30.2203 31.6946 30.1386C31.6946 30.0627 31.6754 30.0063 31.6342 29.9641C31.5929 29.9218 31.5214 29.8994 31.4223 29.8994H31.1278V30.3893ZM29.0949 30.6455C29.0949 30.2315 28.996 29.9078 28.8034 29.6796C28.608 29.4515 28.3302 29.3361 27.9725 29.3361C27.6231 29.3361 27.348 29.4544 27.1526 29.6881C26.9574 29.9218 26.8583 30.2484 26.8583 30.6681C26.8583 30.9666 26.9078 31.2172 27.0069 31.417C27.1058 31.617 27.2351 31.7633 27.3946 31.8564C27.5571 31.9493 27.758 31.9943 28 31.9943C28.2394 31.9943 28.4402 31.9408 28.5997 31.8339C28.762 31.7268 28.8831 31.5776 28.9683 31.3862C29.0509 31.1918 29.0949 30.9468 29.0949 30.6455ZM28.3026 30.1048C28.3851 30.2175 28.4263 30.3948 28.4263 30.637C28.4263 30.9243 28.3851 31.1214 28.3082 31.234C28.2283 31.3438 28.1183 31.4002 27.9752 31.4002C27.8377 31.4002 27.7249 31.3438 27.6451 31.2314C27.5654 31.1158 27.524 30.9298 27.524 30.6709C27.524 30.409 27.5654 30.2203 27.6478 30.1078C27.7275 29.995 27.8349 29.9388 27.9698 29.9388C28.11 29.9388 28.2202 29.9922 28.3026 30.1048ZM26.5392 30.1613C26.5749 30.3189 26.5915 30.4849 26.5915 30.6597C26.5915 30.9356 26.5668 31.1466 26.5117 31.2988C26.4594 31.4509 26.3878 31.5776 26.2943 31.6789C26.2009 31.7803 26.1017 31.8507 25.9945 31.8846C25.8488 31.9324 25.7166 31.955 25.5985 31.955H24.608V29.3812H25.5985C25.7937 29.3812 25.9505 29.4122 26.0715 29.4769C26.1926 29.5416 26.2917 29.6317 26.3686 29.75C26.4455 29.8682 26.5034 30.0063 26.5392 30.1613ZM25.8074 30.1104C25.8817 30.2118 25.9202 30.3978 25.9202 30.6709C25.9202 30.8792 25.9037 31.0257 25.8706 31.1186C25.8377 31.2087 25.7909 31.2734 25.7332 31.3101C25.6754 31.3496 25.5763 31.3665 25.436 31.3665H25.2737V29.9613V29.9585H25.436C25.6094 29.9585 25.7332 30.0092 25.8074 30.1104ZM22.2503 29.3812H21.5846V31.9521H23.2903V31.3184H22.2503V29.3812ZM21.3754 31.9521L20.564 29.3812H19.8377L19.0262 31.9521H19.7057L19.8103 31.5268H20.5694L20.6795 31.9521H21.3754ZM20.4292 30.9721L20.1897 30.0485L19.9532 30.9721H20.4292ZM17.3892 29.3812L18.2009 30.8032V29.3812H18.828V31.9521H18.2009L17.392 30.5414V31.9521H16.7648V29.3812H16.7675H17.3892ZM15.7388 29.3812L16.5502 31.9521H15.8542L15.7468 31.5268H14.9875L14.8831 31.9521H14.2035L15.0123 29.3812H15.7388ZM15.3674 30.0485L15.6065 30.9721H15.1308L15.3674 30.0485ZM31.3343 23.8112C29.9009 23.8112 28.74 22.834 28.74 21.6317C28.74 20.4292 29.9009 19.452 31.3343 19.452C31.4691 19.452 31.6011 19.4604 31.7303 19.4774C31.3369 19.3086 30.8914 19.2127 30.4182 19.2127C28.828 19.2127 27.5378 20.2939 27.5378 21.6317C27.5378 22.9663 28.828 24.0505 30.4182 24.0505C30.8914 24.0505 31.3369 23.9546 31.7303 23.7858C31.6011 23.8028 31.4691 23.8112 31.3343 23.8112Z" fill="black"/>
</svg>
