<svg width="48" height="48" viewBox="0 0 48 48" fill="none" xmlns="http://www.w3.org/2000/svg">
<rect x="1" y="1" width="46" height="46" rx="23" fill="white" stroke="#F8F8F8" stroke-width="2"/>
<path fill-rule="evenodd" clip-rule="evenodd" d="M17.8755 24.6379C17.8755 23.6038 17.029 22.7666 15.9834 22.7666C14.9377 22.7666 14.0912 23.6038 14.0912 24.6379C14.0912 25.6719 14.9377 26.5091 15.9834 26.5091C17.029 26.5091 17.9004 25.6473 17.8755 24.6379ZM31.6681 19.3686C31.5686 19.7872 31.4689 20.2059 31.3942 20.649H33.9834L33.5353 22.7173H30.9959C30.6224 24.8841 30.1992 27.0754 29.1535 28.7744C27.9336 30.7935 26.0414 31.8523 23.3776 31.9754L23.8755 29.6362C25.4191 29.4392 26.4648 28.7744 27.1867 27.5925C27.9585 26.3369 28.3319 24.6133 28.6556 22.742H24.3237C23.9253 24.8594 23.4523 27.0017 22.4315 28.7005C21.0872 30.9167 19.0208 32 16.1078 32L16.6058 29.6855C20.2407 29.4885 21.1369 26.9031 21.9586 22.742H19.4937C19.7924 23.2837 19.9668 23.9238 19.9668 24.6133C19.9668 26.78 18.1743 28.5528 15.9834 28.5528C13.7924 28.5528 12 26.78 12 24.6133C12 22.4465 13.7924 20.6736 15.9834 20.6736H22.3817C22.5062 20.0581 22.6307 19.4426 22.7801 18.8517C23.1535 17.3497 24.2986 16.2663 25.7926 16.0447C27.2365 15.823 28.6308 16.4386 29.3527 17.6205L27.3858 18.8024C27.112 18.3837 26.5644 18.2361 26.1411 18.31C25.8175 18.3591 25.2199 18.5562 25.0208 19.3934C24.8963 19.8118 24.8216 20.2304 24.722 20.6736H29.0291C29.1535 20.0581 29.2781 19.4426 29.4274 18.8517C29.8008 17.3497 30.9461 16.2663 32.44 16.0447C33.8838 15.823 35.2781 16.4386 36 17.6205L34.0333 18.8024C33.7594 18.3837 33.2117 18.2361 32.7883 18.31C32.4647 18.3591 31.8673 18.5562 31.6681 19.3686ZM21.8091 19.9596H21.0125L21.2864 18.4331H21.1121L20.8133 20.1073H21.7842L21.8091 19.9596ZM19.5186 19.5164H20.2656L20.0912 18.63L19.5186 19.5164ZM18.9461 20.1073L20.0414 18.4331H20.2158L20.5644 20.1073H20.39L20.2904 19.6642H19.4191L19.1453 20.1073H18.9461ZM17.8008 18.6792L18.4979 20.1319H18.722L19.0208 18.4576H18.8216L18.5726 19.8858L17.9004 18.4576H17.6763L17.3776 20.1319H17.5517L17.8008 18.6792ZM16.0828 19.5164H16.8299L16.6556 18.63L16.0828 19.5164ZM15.5103 20.1073L16.6058 18.4331H16.7801L17.1286 20.1073H16.9542L16.8547 19.6642H15.9834L15.7095 20.1073H15.5103ZM14.0663 19.4426C14.0663 18.8763 14.5145 18.4083 15.0871 18.4083C15.336 18.4083 15.5601 18.5068 15.6597 18.6792L15.5103 18.7777C15.4606 18.6792 15.3112 18.5562 15.0871 18.5562C14.614 18.5562 14.2656 18.9747 14.2656 19.4426C14.2656 19.7626 14.4647 20.0335 14.8631 20.0335C15.0622 20.0335 15.2614 19.9596 15.4109 19.7872L15.4853 19.8611C15.3609 20.0335 15.137 20.1566 14.8132 20.1566C14.3651 20.1566 14.0663 19.8611 14.0663 19.4426Z" fill="black"/>
</svg>
