<svg width="48" height="48" viewBox="0 0 48 48" fill="none" xmlns="http://www.w3.org/2000/svg">
<rect x="1" y="1" width="46" height="46" rx="23" fill="white" stroke="#F8F8F8" stroke-width="2"/>
<path fill-rule="evenodd" clip-rule="evenodd" d="M36.1143 19.0006V19.3286V24.0699H36.1124C36.1124 24.6412 35.6687 25.1038 35.1212 25.1038C34.5738 25.1051 34.1298 24.6418 34.1298 24.0705V19.3294V19.0012H30.2445V24.1207C30.2445 26.8225 32.4282 29.0131 35.1225 29.0131C37.8169 29.0131 40 26.8225 40 24.12V19.0006H36.1143Z" fill="url(#paint0_linear_920_3062)"/>
<path fill-rule="evenodd" clip-rule="evenodd" d="M36.1138 18.9999V19.3281L36.1144 24.0705H36.1125C36.1125 24.0969 36.1106 24.1226 36.1089 24.1482H36.1094C36.1094 24.1482 36.1089 24.1562 36.1077 24.1706C36.1077 24.1737 36.1069 24.1775 36.1063 24.1805C36.0744 24.5063 35.7425 27.1631 33.3357 27.1631C30.7732 27.1631 30.3251 24.9963 30.2981 24.8512C30.6499 27.2062 32.6757 29.0119 35.1213 29.0119C37.8151 29.0119 39.9994 26.8211 39.9994 24.1195V18.9999H36.1138Z" fill="url(#paint1_linear_920_3062)"/>
<path fill-rule="evenodd" clip-rule="evenodd" d="M19.1857 23.8939V29.0131H23.0712V28.685V23.9432H23.073C23.073 23.3719 23.5168 22.9095 24.0644 22.9095C24.6119 22.9095 25.0563 23.3719 25.0563 23.9432V28.6844V29.0125H28.9417V23.8939C28.9417 21.1918 26.7581 19.0012 24.0638 19.0012C21.3694 19.0012 19.1857 21.1918 19.1857 23.8939Z" fill="url(#paint2_linear_920_3062)"/>
<path fill-rule="evenodd" clip-rule="evenodd" d="M19.1868 23.8944V29.0137H23.0726V28.6856V23.9432H23.0737C23.0737 23.9168 23.0756 23.8912 23.0774 23.8657H23.077C23.077 23.8657 23.0774 23.8574 23.0787 23.8431C23.0787 23.8401 23.0793 23.8362 23.0799 23.8332C23.1119 23.5074 23.4437 20.8506 25.8506 20.8506C28.4131 20.8506 28.8611 23.0175 28.8879 23.1626C28.5363 20.8076 26.5105 19.002 24.065 19.002C21.3712 19.002 19.1868 21.1926 19.1868 23.8944Z" fill="url(#paint3_linear_920_3062)"/>
<path fill-rule="evenodd" clip-rule="evenodd" d="M12.8924 19.2481C10.1906 19.2481 8 21.4318 8 24.1262C8 26.8205 10.1906 29.0045 12.8924 29.0045H18.0118V25.1181H17.6838H12.942V25.1162C12.3707 25.1162 11.9082 24.6724 11.9082 24.125C11.9082 23.5775 12.3707 23.1338 12.942 23.1338H17.6831H18.0113V19.2481H12.8924Z" fill="url(#paint4_linear_920_3062)"/>
<path fill-rule="evenodd" clip-rule="evenodd" d="M8 24.1262C8 26.82 10.1906 29.0045 12.8924 29.0045H18.0118V25.1181H17.6838H12.942V25.1162C12.9156 25.1162 12.89 25.1143 12.8643 25.1124V25.1132C12.8643 25.1132 12.8562 25.1124 12.8419 25.1113C12.8389 25.1113 12.835 25.1105 12.8318 25.1099C12.5062 25.0781 9.84925 24.7463 9.84925 22.3394C9.84925 19.7769 12.0162 19.3286 12.1611 19.3019C9.80565 19.655 8 21.6799 8 24.1262Z" fill="url(#paint5_linear_920_3062)"/>
<defs>
<linearGradient id="paint0_linear_920_3062" x1="39.9998" y1="29.0131" x2="39.9998" y2="19.0006" gradientUnits="userSpaceOnUse">
<stop stop-color="#75B8E6"/>
<stop offset="1" stop-color="#2B3185"/>
</linearGradient>
<linearGradient id="paint1_linear_920_3062" x1="39.9994" y1="29.0119" x2="39.9994" y2="19" gradientUnits="userSpaceOnUse">
<stop stop-color="#263D97"/>
<stop offset="1" stop-color="#82CDF2"/>
</linearGradient>
<linearGradient id="paint2_linear_920_3062" x1="19.1857" y1="19.0013" x2="19.1857" y2="29.0131" gradientUnits="userSpaceOnUse">
<stop stop-color="#75B8E6"/>
<stop offset="1" stop-color="#2B3185"/>
</linearGradient>
<linearGradient id="paint3_linear_920_3062" x1="19.1868" y1="19.0019" x2="19.1868" y2="29.0137" gradientUnits="userSpaceOnUse">
<stop stop-color="#263D97"/>
<stop offset="1" stop-color="#82CDF2"/>
</linearGradient>
<linearGradient id="paint4_linear_920_3062" x1="8" y1="29.0045" x2="18.0119" y2="29.0045" gradientUnits="userSpaceOnUse">
<stop stop-color="#75B8E6"/>
<stop offset="1" stop-color="#2B3185"/>
</linearGradient>
<linearGradient id="paint5_linear_920_3062" x1="8" y1="29.0045" x2="18.0119" y2="29.0045" gradientUnits="userSpaceOnUse">
<stop stop-color="#263D97"/>
<stop offset="1" stop-color="#82CDF2"/>
</linearGradient>
</defs>
</svg>
