<svg width="48" height="48" viewBox="0 0 48 48" fill="none" xmlns="http://www.w3.org/2000/svg">
<rect x="1" y="1" width="46" height="46" rx="23" fill="white" stroke="#F8F8F8" stroke-width="2"/>
<path fill-rule="evenodd" clip-rule="evenodd" d="M19.3312 31.9717C18.8294 31.9805 18.3274 31.9739 17.8255 31.9739V31.9751C17.3744 31.9751 16.9232 31.9755 16.4721 31.9747C16.3989 31.9746 16.3252 31.9732 16.2525 31.9657C16.007 31.9402 15.8994 31.7684 15.9861 31.5349C16.0233 31.4348 16.0728 31.3392 16.1185 31.2424C16.5868 30.2494 17.0555 29.2565 17.5241 28.2637C17.5457 28.2179 17.5673 28.172 17.5899 28.1267C17.6414 28.0234 17.7002 27.9195 17.8309 27.9167C17.9715 27.9137 18.0333 28.0239 18.085 28.1327C18.3965 28.7888 18.7067 29.4456 19.0169 30.1024C19.2285 30.5504 19.4412 30.998 19.6502 31.4473C19.8034 31.7768 19.693 31.9653 19.3312 31.9717ZM18.4955 27.8943C18.447 27.7855 18.3883 27.6834 18.3062 27.5959C18.0371 27.3094 17.6339 27.3104 17.3653 27.5983C17.2874 27.6818 17.2308 27.7785 17.1846 27.8822C16.6706 29.0346 16.1562 30.1868 15.6423 31.3392C15.5819 31.4746 15.546 31.6163 15.5518 31.7655C15.5682 32.1848 15.8884 32.4886 16.3491 32.4987C16.8398 32.5095 17.3308 32.5011 17.8217 32.5011V32.5031C18.3013 32.5031 18.781 32.5082 19.2605 32.5019C19.9581 32.4927 20.3038 31.9571 20.0222 31.3212C19.5158 30.1778 19.0046 29.0365 18.4955 27.8943ZM21.0423 32.3938C21.0413 32.8492 20.767 33.1103 20.3064 33.1108C19.4886 33.1118 18.6708 33.111 17.853 33.111C17.0466 33.111 16.2401 33.1114 15.4336 33.1109C14.9256 33.1106 14.6567 32.8457 14.6565 32.3435C14.6559 30.7373 14.6628 29.1311 14.652 27.5251C14.6492 27.0959 14.9369 26.6902 15.4843 26.697C17.0744 26.7169 18.6651 26.7144 20.2554 26.698C20.7544 26.6929 21.0445 27.0574 21.0442 27.4739C21.0427 29.1138 21.0456 30.7538 21.0423 32.3938ZM21.4655 27.439C21.4642 26.7256 21.0151 26.2772 20.3033 26.277C18.6501 26.2766 16.9969 26.2766 15.3437 26.277C14.6322 26.2771 14.1809 26.7266 14.1804 27.4388C14.1792 29.0907 14.1794 30.7427 14.1803 32.3947C14.1807 33.121 14.6225 33.563 15.3519 33.5637C16.9995 33.5653 18.647 33.5653 20.2946 33.5636C21.0242 33.5629 21.4646 33.1216 21.4656 32.3949C21.4666 31.5717 21.4658 30.7486 21.4658 29.9254C21.4658 29.0966 21.4669 28.2678 21.4655 27.439ZM28.7006 32.4837C28.6982 32.9756 28.2947 33.3091 27.8371 33.2059C27.5054 33.1312 27.2936 32.8395 27.293 32.4469C27.2915 31.4773 27.2929 30.5078 27.2915 29.5382C27.2915 29.4799 27.3094 29.4178 27.2734 29.3575C27.2175 29.3883 27.2007 29.4438 27.1717 29.4883C26.8094 30.046 26.449 30.6049 26.0865 31.1624C25.7267 31.7155 25.1953 31.7192 24.8282 31.1679C24.4323 30.5734 24.0421 29.9752 23.6255 29.3423C23.621 29.4383 23.616 29.4959 23.616 29.5535C23.6155 30.5343 23.6164 31.5151 23.6152 32.496C23.6148 32.8006 23.4804 33.0304 23.2021 33.1579C22.9454 33.2757 22.6951 33.2451 22.4696 33.0718C22.2866 32.9313 22.2079 32.7366 22.2077 32.5105C22.2068 30.8081 22.2065 29.1058 22.208 27.4034C22.2083 27.1328 22.3363 26.9283 22.5645 26.7892C22.9741 26.5396 23.5326 26.6648 23.784 27.0702C24.3008 27.9034 24.8108 28.7409 25.3237 29.5765C25.3728 29.6565 25.423 29.7359 25.4853 29.8358C25.5864 29.673 25.675 29.5315 25.7626 29.3891C26.2322 28.6261 26.7107 27.8683 27.1673 27.0976C27.4096 26.6887 27.7737 26.601 28.2341 26.7189C28.5285 26.7943 28.7005 27.0775 28.7011 27.4273C28.7027 28.318 28.7017 29.2086 28.7017 30.0993C28.7017 30.8941 28.7044 31.6889 28.7006 32.4837ZM29.0786 27.188C29.0164 26.7321 28.6915 26.344 28.2571 26.2595C27.6412 26.1397 27.1745 26.2808 26.8415 26.8233C26.6706 27.1019 26.5001 27.3807 26.3291 27.6593C26.0529 28.1091 25.7764 28.5589 25.4862 29.0313C25.4334 28.9465 25.3923 28.8817 25.3523 28.8163C24.947 28.1525 24.5407 27.4894 24.137 26.8247C23.8183 26.2999 23.3086 26.1123 22.6548 26.275C22.1259 26.4067 21.8085 26.8794 21.8082 27.4767C21.8075 29.1341 21.8081 30.7915 21.8078 32.4488C21.8078 32.579 21.8172 32.7077 21.8539 32.8333C22.0061 33.3537 22.5317 33.7023 23.0613 33.6342C23.6584 33.5575 24.0795 33.1109 24.0898 32.5238C24.0992 31.9941 24.0917 31.464 24.093 30.9341C24.0931 30.8878 24.0781 30.8367 24.1203 30.7805C24.264 31.009 24.4 31.2278 24.5385 31.445C24.8161 31.8803 25.2582 32.0716 25.7262 31.9579C26.0431 31.8809 26.2535 31.6668 26.4241 31.4049C26.5638 31.1904 26.7005 30.9738 26.8385 30.7582C26.8725 30.804 26.8724 30.8408 26.8725 30.8776C26.8732 31.4413 26.8628 32.0053 26.8775 32.5687C26.8931 33.1673 27.3811 33.6348 27.9705 33.6421C28.5667 33.6495 29.048 33.2017 29.0906 32.5987C29.0958 32.5257 29.0963 32.4522 29.0963 32.379C29.0966 30.7611 29.0968 29.1432 29.0958 27.5253C29.0957 27.4128 29.0938 27.2992 29.0786 27.188ZM39.7593 32.7948C39.3486 33.0837 38.8954 33.2294 38.4032 33.2646C37.4287 33.3344 36.5357 33.0925 35.7301 32.5392C35.3924 32.3072 35.3079 31.9084 35.5215 31.5953C35.7313 31.2878 36.1491 31.2149 36.4812 31.4428C36.843 31.6911 37.2212 31.8966 37.658 31.9758C37.972 32.0328 38.2859 32.0497 38.5964 31.9558C38.775 31.9018 38.9268 31.8086 39.0106 31.6329C39.1326 31.3768 39.05 31.1028 38.7957 30.9452C38.5141 30.7706 38.1944 30.6919 37.8792 30.6067C37.4764 30.4978 37.0725 30.3937 36.6869 30.2305C36.0281 29.9515 35.627 29.4849 35.5909 28.7454C35.5533 27.9751 35.8368 27.3711 36.5049 26.9656C36.9384 26.7026 37.4188 26.6231 37.9171 26.6219C38.625 26.6343 39.2907 26.7978 39.895 27.1775C40.229 27.3874 40.337 27.7637 40.158 28.0825C39.9774 28.404 39.5816 28.5106 39.2302 28.3163C38.8111 28.0846 38.3795 27.9005 37.8928 27.8808C37.6933 27.8727 37.4971 27.8923 37.3143 27.9776C37.1199 28.0684 36.9781 28.2022 36.9667 28.4358C36.9548 28.6799 37.0716 28.8421 37.2809 28.9499C37.6355 29.1324 38.0242 29.2105 38.4039 29.3157C38.7846 29.4213 39.1563 29.5469 39.5143 29.7185C40.8827 30.3745 40.6129 32.1946 39.7593 32.7948ZM34.8369 32.6127C34.8159 32.9052 34.5863 33.1578 34.2687 33.1609C33.011 33.1729 31.7528 33.177 30.4952 33.1584C30.0933 33.1524 29.8437 32.8421 29.8423 32.437C29.8394 31.6083 29.8414 30.7797 29.8414 29.951C29.8414 29.1449 29.8407 28.3389 29.8416 27.5327C29.8422 26.9971 30.1337 26.7044 30.6656 26.7042C31.8164 26.7037 32.9672 26.7032 34.118 26.7047C34.4567 26.7051 34.7034 26.8864 34.7746 27.1788C34.8607 27.5317 34.6395 27.8722 34.2806 27.9321C34.1922 27.9469 34.1009 27.9491 34.0109 27.9492C33.1648 27.9504 32.3186 27.9528 31.4724 27.9469C31.3378 27.946 31.2849 27.9719 31.2904 28.1198C31.3021 28.4407 31.3015 28.7625 31.2905 29.0835C31.2857 29.2233 31.3349 29.2491 31.4626 29.2482C32.2185 29.243 32.9745 29.2434 33.7303 29.2476C34.0181 29.2492 34.2455 29.4241 34.3411 29.6976C34.43 29.9517 34.3506 30.2406 34.1437 30.4184C34.008 30.5349 33.8487 30.5726 33.6729 30.572C32.9396 30.5697 32.2061 30.5762 31.4729 30.5669C31.3171 30.5649 31.286 30.6127 31.2906 30.7566C31.3013 31.0945 31.3004 31.4331 31.2908 31.7711C31.287 31.9078 31.3196 31.9528 31.4651 31.9516C32.3395 31.9445 33.2139 31.9474 34.0882 31.9489C34.1837 31.9491 34.2821 31.9491 34.374 31.9708C34.6706 32.041 34.8588 32.3084 34.8369 32.6127ZM39.7222 29.35C39.3001 29.1267 38.8467 28.9937 38.3877 28.8743C38.0879 28.7964 37.7857 28.7245 37.5043 28.5896C37.448 28.5626 37.3881 28.5335 37.396 28.4559C37.4037 28.3794 37.469 28.3602 37.5273 28.3416C37.7033 28.2857 37.8829 28.2896 38.0635 28.315C38.4053 28.3632 38.7088 28.5102 39.0048 28.6772C39.2831 28.8343 39.5769 28.8815 39.8851 28.7866C40.3134 28.6548 40.5782 28.3633 40.6456 27.9239C40.7152 27.4706 40.5466 27.0991 40.1598 26.8486C39.5144 26.4306 38.798 26.234 38.0325 26.2072C37.3201 26.1821 36.6598 26.332 36.0642 26.7478C34.8643 27.5854 34.7341 29.8695 36.4276 30.5721C36.7829 30.7194 37.1449 30.8398 37.5148 30.9411C37.8462 31.0318 38.1833 31.1054 38.4957 31.2545C38.5589 31.2846 38.6386 31.3096 38.6308 31.4063C38.6228 31.5048 38.5448 31.5309 38.4694 31.5556C38.3393 31.5981 38.2046 31.608 38.0684 31.6039C37.571 31.5891 37.1398 31.3989 36.7403 31.1148C36.3619 30.8458 35.9569 30.8121 35.5442 31.028C35.2283 31.1932 35.0584 31.4713 34.9914 31.8519C34.7058 31.5475 34.3716 31.4907 34.0089 31.4953C33.3431 31.5037 32.6772 31.4977 32.0113 31.4977C31.69 31.4977 31.699 31.4974 31.6882 31.1809C31.6832 31.0352 31.7399 31.0174 31.8633 31.0184C32.4614 31.0236 33.0596 31.0211 33.6577 31.0205C33.7705 31.0205 33.8828 31.0175 33.9931 30.9866C34.5015 30.8439 34.8485 30.3342 34.7897 29.814C34.7252 29.2441 34.2852 28.8328 33.7103 28.8236C33.1518 28.8147 32.5931 28.8215 32.0344 28.8214C31.6828 28.8214 31.6873 28.8214 31.6896 28.4768C31.6902 28.372 31.7214 28.3421 31.8244 28.3437C32.1741 28.3492 32.5241 28.3464 32.8739 28.3457C33.3253 28.3447 33.7774 28.3573 34.2279 28.3373C34.806 28.3118 35.2256 27.8443 35.2091 27.2759C35.1927 26.7132 34.7326 26.2797 34.1374 26.2779C32.9806 26.2744 31.8238 26.2766 30.6671 26.277C29.9088 26.2772 29.416 26.767 29.4156 27.5233C29.4147 29.1472 29.415 30.7712 29.4161 32.3951C29.4162 32.4905 29.4169 32.588 29.435 32.6811C29.5398 33.2203 29.9975 33.5849 30.5823 33.5869C31.739 33.5907 32.8958 33.5881 34.0526 33.5881C34.731 33.5881 35.056 33.3515 35.2576 32.7111C35.2682 32.7133 35.2814 32.7126 35.2891 32.7187C36.2972 33.5241 37.4522 33.811 38.7161 33.6433C39.9277 33.4825 40.6991 32.7326 40.84 31.5773C40.9591 30.5999 40.6271 29.8287 39.7222 29.35ZM13.5694 30.9965H13.5671C13.5671 31.2728 13.5731 31.5492 13.5656 31.8252C13.5569 32.1365 13.4319 32.398 13.171 32.5738C11.9064 33.4261 10.1741 33.5421 8.96576 32.8145C7.81869 32.1237 7.34878 31.0639 7.40631 29.7582C7.48293 28.021 8.89419 26.6611 10.6495 26.6124C11.485 26.5892 12.2802 26.7282 12.9786 27.2256C13.2192 27.397 13.3365 27.6345 13.2833 27.929C13.2307 28.2204 13.0497 28.4127 12.7604 28.4886C12.5319 28.5486 12.3271 28.4847 12.1389 28.3491C11.7162 28.0448 11.2404 27.9161 10.7229 27.922C9.93901 27.931 9.24908 28.4667 8.98763 29.2733C8.67305 30.2438 9.04265 31.3175 9.87741 31.7559C10.6093 32.1403 11.3466 32.0661 12.0626 31.6802C12.1306 31.6435 12.1737 31.598 12.1711 31.5084C12.1644 31.2774 12.1651 31.0461 12.1707 30.8151C12.1729 30.7237 12.1394 30.7006 12.0533 30.7022C11.7939 30.7067 11.5343 30.7054 11.2747 30.7033C10.8931 30.7003 10.6157 30.4281 10.6151 30.0594C10.6146 29.6875 10.8895 29.4109 11.2676 29.4092C11.7811 29.4069 12.2945 29.4071 12.808 29.4091C13.2349 29.4107 13.5566 29.7221 13.568 30.1508C13.5755 30.4325 13.5694 30.7146 13.5694 30.9965ZM12.7548 28.9801C12.2136 28.9795 11.6724 28.9778 11.1312 28.9766C11.0782 28.936 11.0218 28.9579 10.9694 28.9734C10.5343 29.1017 10.27 29.395 10.1744 29.832C10.0813 30.2573 10.2309 30.6098 10.5511 30.8893C10.823 31.1267 11.1546 31.1737 11.5032 31.1575C11.5787 31.154 11.6907 31.1138 11.7162 31.233C11.7436 31.3606 11.6301 31.3866 11.543 31.4235C11.385 31.4902 11.2155 31.5084 11.048 31.5272C10.5146 31.5868 9.82588 31.4074 9.50049 30.7312C9.3141 30.3439 9.27851 29.9438 9.37367 29.5306C9.55335 28.7509 10.2366 28.2966 11.0312 28.4012C11.3798 28.4471 11.6741 28.5979 11.9595 28.7832C12.0686 28.8541 12.1759 28.9301 12.3175 28.9067C12.3847 28.9121 12.4518 28.919 12.5191 28.9228C13.0982 28.9551 13.6001 28.5678 13.6917 27.9968C13.7676 27.5242 13.5937 27.1446 13.2015 26.8707C12.4601 26.3529 11.6232 26.1778 10.7343 26.1946C8.88826 26.2297 7.42757 27.4488 7.0634 29.2568C7.05587 29.2942 7.07574 29.3565 7 29.3504V29.5872C7 29.5872 7.00003 29.5872 7.00003 29.5872C7 29.5872 7 29.5872 7 29.5872V29.6549V30.0271L7.00003 30.0271C7 30.0271 7 30.0271 7 30.0271V30.2301V30.3316V30.3993C7 30.3992 7.00003 30.3992 7.00003 30.3992L7 30.3993V30.6023C7.09706 30.6023 7.05828 30.6821 7.06685 30.7262C7.23138 31.5684 7.61871 32.2849 8.28413 32.8341C8.9541 33.387 9.72669 33.6566 10.6007 33.6875C11.5546 33.7213 12.4312 33.5064 13.2479 33.0194C13.6766 32.7638 13.9385 32.3989 13.955 31.8986C13.9749 31.2908 13.9881 30.6805 13.9554 30.0739C13.919 29.4016 13.4282 28.9807 12.7548 28.9801Z" fill="black"/>
<path fill-rule="evenodd" clip-rule="evenodd" d="M23.7489 22.3927H34.1097V12H23.7489V22.3927Z" fill="white"/>
<path fill-rule="evenodd" clip-rule="evenodd" d="M33.3695 21.6505V12.7426H30.4092V16.454L27.4487 12.7426H24.4881V21.6505H27.4489V17.9388L30.4095 21.6505H33.3695Z" fill="black"/>
<path fill-rule="evenodd" clip-rule="evenodd" d="M13.3871 22.3927H23.7489V12H13.3871V22.3927Z" fill="black"/>
<path fill-rule="evenodd" clip-rule="evenodd" d="M20.3034 18.0247C20.0083 18.5448 19.4567 18.8664 18.8588 18.8666C17.9395 18.8666 17.1936 18.1186 17.1936 17.1965C17.1936 16.2741 17.9395 15.5263 18.8588 15.5263C19.4565 15.5266 20.0083 15.8482 20.3034 16.368L22.8746 14.8951C22.0768 13.4988 20.5782 12.5567 18.8588 12.5567C16.3044 12.5567 14.2338 14.6341 14.2338 17.1965C14.2338 19.7589 16.3044 21.8365 18.8585 21.8365C20.5779 21.8365 22.0768 20.8949 22.8744 19.4983L20.3031 18.0249L20.3034 18.0247Z" fill="white"/>
<path fill-rule="evenodd" clip-rule="evenodd" d="M14.2587 23.9956C14.1785 23.9486 14.1289 23.8632 14.1284 23.7703C14.1281 23.6255 14.2452 23.5079 14.39 23.5076C14.4876 23.5076 14.5717 23.5611 14.6171 23.6405L14.9615 23.4415C14.8444 23.2349 14.6254 23.1074 14.3879 23.1072C14.0227 23.1085 13.7276 23.4051 13.7284 23.77C13.7274 24.1355 14.0225 24.4324 14.3879 24.4332H14.3882C14.6256 24.4334 14.8447 24.3057 14.9617 24.0991L14.6171 23.9006C14.5442 24.0257 14.3838 24.0683 14.2587 23.9956ZM17.3285 23.6135C17.3285 23.5549 17.2818 23.5071 17.2236 23.5071H16.9594V23.7197H17.2236C17.2818 23.7197 17.3285 23.6719 17.3285 23.6135ZM16.4128 24.409L16.016 23.1362H15.3822L14.9851 24.409H15.4367L15.4974 24.1962H15.9023L15.9631 24.409H16.4128ZM15.8104 23.8785L15.6991 23.4877L15.5878 23.8785H15.8104Z" fill="black"/>
</svg>
