<svg width="48" height="48" viewBox="0 0 48 48" fill="none" xmlns="http://www.w3.org/2000/svg">
<rect x="1" y="1" width="46" height="46" rx="23" fill="white" stroke="#F8F8F8" stroke-width="2"/>
<path d="M28.197 27.6886C28.1979 27.9743 27.9695 28.2075 27.6849 28.2109C25.7118 28.2336 23.7029 28.2131 21.7393 28.2222C21.2697 28.2173 20.8004 28.2109 20.3309 28.2075C20.0457 28.2057 19.816 27.9723 19.8165 27.6861C19.8201 25.2262 19.8177 22.7597 19.8127 20.2995C19.8121 20.0114 20.0448 19.7775 20.332 19.7778C22.7716 19.7795 25.2324 19.7883 27.6715 19.7795C27.9567 19.7784 28.1894 20.0086 28.1921 20.2951C28.1955 20.6288 28.1974 20.9822 28.1952 21.2601C28.1706 23.1407 28.1921 25.8482 28.1971 27.6885" fill="#2ECCF2"/>
<path d="M23.4664 23.7151C23.4319 23.2469 23.2086 22.7945 22.7874 22.5496C22.3258 22.2813 21.6073 22.2636 21.1425 22.5254C20.6035 22.8286 20.3172 23.4347 20.38 24.0343C20.4383 24.5938 20.7113 25.1289 21.2876 25.3083C21.813 25.4723 22.5056 25.4636 22.9726 25.1499C23.451 24.8287 23.5051 24.2376 23.4664 23.7151" fill="white"/>
<path d="M25.9756 22.3528C25.5027 22.3652 25.0373 22.5652 24.7717 22.9707C24.4806 23.4154 24.4304 24.1255 24.6727 24.5981C24.9535 25.1454 25.5502 25.4572 26.1568 25.4228C26.7225 25.3911 27.2734 25.1457 27.4804 24.5837C27.6688 24.0711 27.6918 23.3852 27.3972 22.908C27.0956 22.4198 26.5031 22.3386 25.9755 22.3527" fill="white"/>
<path d="M22.1121 22.9573C22.0795 22.9506 22.0474 22.9464 22.0159 22.9439C21.7036 22.9115 21.3902 22.9825 21.2081 23.2635C21.0364 23.5289 21.0149 23.9306 21.113 24.2232C21.226 24.5608 21.5143 24.7993 21.8807 24.8143C22.195 24.8271 22.5678 24.725 22.7325 24.4429C22.8743 24.2007 22.8804 23.816 22.8047 23.5522C22.7154 23.2413 22.4266 23.023 22.1121 22.9573" fill="black"/>
<path d="M26.9034 23.3276C26.7348 23.0696 26.4205 22.9656 26.127 22.9462C26.072 22.9426 26.0173 22.9418 25.962 22.9464C25.6843 22.97 25.422 23.1031 25.2885 23.3666C25.0884 23.7621 25.144 24.3419 25.5104 24.6118C25.8584 24.8675 26.4772 24.946 26.8036 24.6073C27.1057 24.2942 27.1388 23.6878 26.9034 23.3275" fill="black"/>
<path d="M24.0309 25.7992H24.0284C24.0173 25.7992 24.006 25.7992 23.995 25.799C23.9845 25.7984 23.9737 25.7979 23.9632 25.7973C23.9626 25.7973 23.9617 25.7973 23.9612 25.7971C23.9444 25.7963 23.9275 25.7949 23.9109 25.793C23.9007 25.7919 23.891 25.7905 23.8811 25.7894C23.8769 25.7885 23.8725 25.7879 23.8681 25.7875C23.61 25.7492 23.4759 25.6302 23.4762 25.6302C23.4428 25.6041 23.414 25.5764 23.3919 25.547C23.3383 25.4757 23.3259 25.3759 23.3626 25.3171C23.395 25.2657 23.4563 25.2388 23.5221 25.2524C23.5221 25.2524 23.5273 25.2533 23.5365 25.2563C23.537 25.2565 23.5379 25.2565 23.5387 25.2569C23.5461 25.2594 23.5558 25.2636 23.5677 25.2697C23.5707 25.2714 23.5738 25.2728 23.5765 25.2744C23.5904 25.2819 23.6064 25.2925 23.6241 25.3055C23.6241 25.3055 23.626 25.3071 23.6296 25.3102C23.6321 25.3121 23.6343 25.3135 23.6368 25.3155C23.6368 25.3155 23.6401 25.3182 23.6451 25.3224C23.6713 25.3426 23.7189 25.3773 23.7705 25.4042C23.8399 25.4381 23.9273 25.4664 24.0248 25.4647H24.0339C24.1315 25.4664 24.2188 25.4381 24.2879 25.4042C24.3399 25.3773 24.3874 25.3426 24.4137 25.3224C24.4186 25.3182 24.422 25.3155 24.422 25.3157C24.4244 25.3135 24.4267 25.3121 24.4291 25.3102C24.4327 25.3071 24.4347 25.3055 24.4341 25.3063C24.4521 25.2924 24.4681 25.2819 24.4819 25.2744C24.485 25.2727 24.488 25.2713 24.4908 25.2697C24.5029 25.2636 24.5126 25.2594 24.5201 25.2569C24.5209 25.2567 24.5215 25.2567 24.5223 25.2563C24.5311 25.2532 24.5366 25.2524 24.5366 25.2532C24.6024 25.2388 24.6638 25.2657 24.6961 25.317C24.7329 25.3758 24.7204 25.4757 24.6668 25.547C24.6447 25.5764 24.616 25.6041 24.5828 25.6302C24.5828 25.6302 24.4488 25.7492 24.1903 25.7875C24.1862 25.7881 24.1818 25.7885 24.1774 25.7893C24.1677 25.7904 24.158 25.7918 24.1478 25.7929C24.1312 25.7948 24.1143 25.7963 24.0975 25.7971C24.0969 25.7973 24.0961 25.7973 24.0956 25.7973C24.0842 25.7981 24.0732 25.7983 24.0618 25.799C24.0516 25.7991 24.0411 25.7991 24.0309 25.7991" fill="#ED1C99"/>
<path d="M14.8548 24.1247C15.2395 23.9319 15.4454 23.3478 15.271 22.9334C15.124 22.5842 14.779 22.4214 14.425 22.362C14.0787 22.304 13.6733 22.2932 13.3267 22.3573C13.1446 22.3911 12.9657 22.4713 12.8795 22.6458C12.7518 22.9043 12.772 23.2518 12.7604 23.5334C12.7601 23.5389 12.7598 23.5444 12.7595 23.55C12.7443 23.8948 12.7739 24.2146 12.7847 24.5599C12.7927 24.8218 12.827 25.1765 13.0412 25.3477C13.2095 25.4825 13.4441 25.5097 13.6199 25.3726C13.7979 25.2334 13.8283 24.928 13.8319 24.7125C13.8327 24.6703 13.833 24.6279 13.8335 24.5854C14.0057 24.7943 14.1558 25.0259 14.3578 25.2048C14.4026 25.2445 14.4496 25.2806 14.4965 25.3169C14.7212 25.49 15.0661 25.5005 15.2397 25.2312C15.4354 24.9277 15.0584 24.3247 14.8547 24.1247L14.8548 24.1247ZM13.7768 23.7711C13.7829 23.4482 13.776 23.2019 13.7724 23.1073C13.8042 23.1004 13.8993 23.0971 13.9123 23.0968C14.048 23.0957 14.2085 23.0932 14.308 23.2011C14.3644 23.2624 14.3882 23.342 14.3918 23.4238C14.3951 23.5594 14.292 23.6973 14.1541 23.7358C14.0272 23.7716 13.9241 23.7716 13.7929 23.7713C13.792 23.7713 13.7768 23.7712 13.7768 23.7712" fill="black"/>
<path d="M42.7723 23.0308C42.251 22.2619 41.2503 22.1271 40.4947 22.5592C39.835 22.9364 39.5655 23.9475 39.9342 24.665C40.1893 25.1615 40.7793 25.453 41.2915 25.4605C41.6076 25.4655 41.9282 25.4134 42.2237 25.2497C42.9842 24.8287 43.2241 23.7532 42.7723 23.0308V23.0308ZM40.9524 24.122C40.757 23.6332 41.2641 23.2191 41.6928 23.5378C41.9081 23.7059 41.9134 24.097 41.6964 24.2767C41.4783 24.4573 41.0746 24.3835 40.9524 24.122" fill="black"/>
<path d="M38.1524 22.3293C37.6635 22.3107 37.2768 22.3088 36.7879 22.3321C36.4008 22.3501 36.0843 22.5606 36.1846 22.9875C36.2548 23.2852 36.6674 23.3301 36.9773 23.3387C36.9737 23.6591 36.9629 24.0962 36.9758 24.4163C36.9838 24.6127 36.9802 24.8091 37.0253 25.003C37.0789 25.2326 37.19 25.4265 37.4877 25.4578C37.7748 25.4875 37.9592 25.3469 38.0487 25.1233C38.1968 24.7533 38.1344 24.2155 38.1402 23.8269C38.142 23.6896 38.1449 23.474 38.1468 23.3365C38.4906 23.3354 38.9041 23.2546 38.9381 22.9251C38.9925 22.3967 38.5335 22.3437 38.1523 22.3293" fill="black"/>
<path d="M30.8197 24.7773C30.8976 24.8741 30.9811 24.967 31.0662 25.0574C31.1561 25.1528 31.2699 25.2408 31.3863 25.3037C31.5059 25.3684 31.6477 25.408 31.7851 25.4055C32.1836 25.3991 32.3055 25.0388 32.3279 24.7137C32.3461 24.448 32.3425 24.1426 32.3395 23.8772C32.3373 23.6739 32.3353 23.4869 32.3364 23.2925C32.3373 23.1025 32.345 22.905 32.2944 22.7197C32.2486 22.5508 32.109 22.3749 31.9335 22.328C31.7599 22.2812 31.5623 22.3114 31.4244 22.4107C31.1795 22.5865 31.1522 22.9735 31.1527 23.2864C30.941 23.0156 30.7531 22.8112 30.6282 22.6853C30.4342 22.49 30.202 22.2986 29.8925 22.3142C29.6581 22.3258 29.4992 22.4642 29.4273 22.6786C29.3323 22.9627 29.3521 23.4425 29.3535 23.8422C29.3541 24.0999 29.3369 24.3584 29.355 24.6158C29.3699 24.8333 29.3998 25.0785 29.5374 25.2546C29.6698 25.4241 29.8154 25.4818 30.0357 25.4685C30.1858 25.4596 30.3148 25.3889 30.3988 25.2682C30.566 25.0286 30.566 24.6941 30.5506 24.4167C30.5506 24.4167 30.7128 24.6444 30.8197 24.7773" fill="black"/>
<path d="M18.8849 22.6549C18.8384 22.5703 18.7685 22.4971 18.6809 22.4471C18.4664 22.3251 18.2025 22.3226 17.962 22.3218C17.6041 22.3201 17.2819 22.3068 16.9245 22.3201C16.8433 22.3232 16.7211 22.337 16.6338 22.3675C16.3723 22.4582 16.2317 22.7112 16.3157 23.0074C16.3831 23.2451 16.6349 23.3156 16.8593 23.3533C16.9162 23.363 17.026 23.3686 17.0837 23.3711C17.089 23.8024 17.0613 24.4048 17.108 24.8337C17.1453 25.1749 17.2938 25.4786 17.7185 25.4617C17.8363 25.4569 17.938 25.3871 18.0071 25.2939C18.1425 25.1113 18.145 24.8825 18.1558 24.665C18.1602 24.573 18.1815 23.3755 18.1831 23.3755C18.3199 23.3755 18.4031 23.3694 18.5195 23.3483C18.6585 23.3231 18.7953 23.279 18.8733 23.155C18.9719 22.9986 18.9669 22.8047 18.8849 22.6549" fill="black"/>
<path d="M6.90234 24.286C6.84181 24.3126 6.78212 24.3431 6.71717 24.362C6.57346 24.4041 6.43278 24.3814 6.31891 24.2813C6.21195 24.1867 6.15446 24.0111 6.15696 23.8907C6.16028 23.7174 6.23407 23.5368 6.38607 23.4436C6.45793 23.3998 6.54167 23.3803 6.6254 23.3848C6.73761 23.3912 6.81914 23.4472 6.92058 23.4858C7.1074 23.5568 7.352 23.5409 7.49295 23.4444C7.65269 23.3349 7.72704 23.212 7.71598 22.982C7.70686 22.7981 7.59576 22.6389 7.45895 22.5391C7.31165 22.4312 7.12813 22.3527 6.94986 22.3244C6.86502 22.3108 6.77907 22.3036 6.69311 22.303C6.19646 22.2997 5.70009 22.4805 5.37453 22.8694C4.98623 23.3335 4.87871 24.0796 5.15233 24.6261C5.33308 24.9872 5.66666 25.2741 6.0522 25.3919C6.36589 25.4882 6.70473 25.4998 7.02422 25.4255C7.28953 25.3637 7.55376 25.2372 7.67065 24.9737C7.72455 24.8524 7.74693 24.7107 7.71377 24.5812C7.63417 24.2691 7.32464 24.2023 7.0911 24.2344C7.02311 24.2436 6.96204 24.26 6.90234 24.286" fill="black"/>
<path d="M10.9698 22.9584C10.8432 22.6929 10.6519 22.2916 10.2681 22.2763C10.2307 22.2749 10.2009 22.2761 10.1967 22.2763C9.85515 22.2877 9.67163 22.5972 9.54008 22.8649C9.50747 22.9312 9.4732 22.9967 9.43783 23.0619C9.3024 23.3109 9.18163 23.5675 9.06887 23.828C8.94229 24.1209 8.80936 24.4196 8.70904 24.7231C8.68085 24.8082 8.66896 24.8981 8.67421 24.9879C8.68527 25.1727 8.73584 25.3214 8.89752 25.4171C9.0252 25.4928 9.1855 25.5202 9.32977 25.4831C9.56497 25.4226 9.68021 25.2129 9.75787 24.956C9.87809 24.956 10.0887 24.9569 10.2092 24.9583H10.2559C10.3747 24.9568 10.5853 24.9564 10.7058 24.956C10.715 24.9846 10.7255 25.0126 10.7371 25.0398C10.8139 25.2578 10.9258 25.4292 11.1351 25.4831C11.1818 25.4953 11.2285 25.5011 11.2743 25.5011H11.2821C11.4167 25.4992 11.5435 25.4434 11.645 25.3563C11.6486 25.3532 11.6521 25.3499 11.6558 25.3469C11.7052 25.3028 11.7428 25.252 11.766 25.1896C11.7884 25.1297 11.7978 25.0648 11.8025 25.0015C11.8127 24.867 11.7851 24.74 11.7163 24.5907L11.5391 24.1805C11.3609 23.7678 11.171 23.3603 10.9698 22.9584L10.9698 22.9584ZM10.2324 24.13C10.1009 24.1286 10.0848 24.13 9.89857 24.1261C9.97872 23.9015 10.1525 23.5062 10.2319 23.3617H10.233C10.3328 23.5506 10.4934 23.9417 10.5661 24.1261C10.3801 24.13 10.364 24.1286 10.2325 24.13" fill="black"/>
<path d="M34.7771 22.5306C34.682 22.4035 34.5201 22.3073 34.3316 22.3145C34.1486 22.3217 34.0016 22.3963 33.8877 22.5328C33.723 22.7303 33.7075 23.0235 33.691 23.2645C33.6713 23.5485 33.6804 23.8365 33.6791 24.1208C33.6781 24.3954 33.6617 24.6805 33.7214 24.9512C33.8029 25.3212 34.2335 25.6128 34.624 25.3698C35.0377 25.1127 34.9722 24.5604 34.9838 24.1527C34.9919 23.8709 34.9847 23.6179 34.9847 23.3508C34.9789 23.1153 34.9482 22.7589 34.7772 22.5306" fill="black"/>
</svg>
