<svg width="201" height="120" viewBox="0 0 201 120" fill="none" xmlns="http://www.w3.org/2000/svg">
<path fill-rule="evenodd" clip-rule="evenodd" d="M100.935 100.288H200.915V0H100.935V100.288Z" fill="white"/>
<path fill-rule="evenodd" clip-rule="evenodd" d="M193.772 93.1252V7.16565H165.206V42.98L136.637 7.16565H108.068V93.1252H136.639V57.3083L165.208 93.1252H193.772Z" fill="black"/>
<path fill-rule="evenodd" clip-rule="evenodd" d="M200.945 116.337V119.728H200.3V117.437C200.3 117.369 200.31 117.28 200.31 117.155V116.878L199.679 119.728H199.008L198.387 116.878V119.728H197.746V116.337H198.755L199.356 119.012L199.952 116.337H199.954H200.945ZM126.739 107.274H138.884V110.907H135.084V119.728H130.534V110.904H126.739V107.274ZM185.167 107.274V111.356L188.187 107.274H193.383L188.669 113.266L193.383 119.728H188.187L185.167 115.09V119.728H181.123V107.274H185.167ZM175.309 107.274C178.113 107.274 179.857 109.423 179.857 111.686C179.857 113.383 178.858 114.851 177.448 115.588L179.857 119.728H175.334L173.556 116.096H172.269V119.728H168.221V107.274H175.309ZM174.795 110.907H172.269V112.982H174.795C175.354 112.982 175.808 112.52 175.813 111.945C175.811 111.374 175.356 110.907 174.795 110.907ZM160.698 107.015C164.195 107.02 167.024 109.926 167.019 113.503C167.024 117.079 164.195 119.982 160.698 119.987C157.201 119.982 154.375 117.076 154.38 113.503C154.375 109.929 157.201 107.023 160.698 107.015ZM143.938 107.274L144.949 112.746L146.978 107.711L148.995 112.746L150.013 107.274H154.089L151.772 119.733H148.406L146.978 116.378L145.538 119.733H142.18L139.865 107.274H143.938ZM197.351 116.335V116.937H196.363V119.728H195.665V116.937H194.677V116.337L197.351 116.335ZM125.413 107.277V110.907L118.831 110.904V111.991H124.402V115.108H118.831V116.36H125.413V119.728H114.793V107.277H125.413ZM160.69 111.171C159.434 111.171 158.413 112.215 158.413 113.503C158.415 114.793 159.436 115.837 160.698 115.839C161.955 115.839 162.97 114.795 162.97 113.503C162.97 112.215 161.95 111.171 160.69 111.171ZM84.721 107.287L88.7693 112.474V107.287H92.8151V119.743H88.7718L84.7234 114.554V119.743H80.6776V107.287H84.721ZM104.99 107.274L109.036 112.464V107.274H113.082V119.728H109.036L104.992 114.541V119.728H100.944V107.274H104.99ZM73.1522 107.025C76.6491 107.03 79.4805 109.934 79.4755 113.513C79.478 117.092 76.6467 119.995 73.1472 120C69.6503 119.992 66.8189 117.089 66.8239 113.513C66.8189 109.934 69.6478 107.03 73.1472 107.025H73.1522ZM73.1522 111.183C71.893 111.183 70.8747 112.225 70.8747 113.513L70.8918 113.808C71.0299 114.957 71.9849 115.847 73.1472 115.85C74.4089 115.847 75.4297 114.803 75.4297 113.513C75.4297 112.225 74.4089 111.183 73.1522 111.183ZM59.4947 107.025C62.9891 107.033 65.8155 109.936 65.8081 113.513C65.8155 117.089 62.9842 119.992 59.4872 120C55.9902 119.99 53.1639 117.087 53.1713 113.513C53.1639 109.934 55.9927 107.033 59.4872 107.025H59.4947ZM7.25629 107C9.52882 107.003 11.6225 108.25 12.7451 110.272L9.44934 112.222C9.01471 111.445 8.21001 110.922 7.27616 110.922C5.89029 110.924 4.77017 112.075 4.77265 113.492C4.77762 114.399 5.25199 115.237 6.01944 115.695C7.21655 116.406 8.75144 115.992 9.44934 114.767L12.7476 116.708C11.625 118.73 9.5313 119.98 7.25877 119.98H7.25629C3.75933 119.97 0.93543 117.064 0.945338 113.49C0.937914 109.916 3.76181 107.013 7.25629 107ZM52.6572 107.284V110.919H48.8697V119.743H44.3072V110.919H40.5221V107.284H52.6572ZM34.8942 107.287C37.7007 107.287 39.4492 109.436 39.4492 111.697C39.4492 113.393 38.4433 114.861 37.0351 115.603L39.4492 119.743H34.9215L33.1432 116.111H31.8642V119.743H27.8109V107.287H34.8942ZM22.8362 107.284L26.6336 119.743H22.3295L21.7483 117.661H17.8738L17.2927 119.743H12.9711L16.7711 107.284H22.8362ZM59.4971 111.183C58.2379 111.181 57.2122 112.222 57.2097 113.51C57.2072 114.801 58.228 115.847 59.4872 115.85C60.7464 115.852 61.7697 114.808 61.7722 113.523C61.7746 112.233 60.7563 111.186 59.4971 111.183ZM19.8036 110.726L18.7381 114.552H20.8691L19.8036 110.726ZM34.3925 110.914H31.8642V112.997H34.3925C34.9489 112.997 35.3959 112.53 35.3959 111.956C35.3959 111.384 34.9489 110.914 34.3925 110.914Z" fill="black"/>
<path fill-rule="evenodd" clip-rule="evenodd" d="M100.935 100.288H0.945312V0H100.935V100.288ZM67.6843 58.1398C64.8363 63.1571 59.5152 66.2589 53.746 66.2614C44.875 66.2614 37.6771 59.0434 37.6771 50.1449C37.6771 41.2439 44.875 34.0285 53.746 34.0285C59.5138 34.031 64.8384 37.1341 67.686 42.1506L92.4981 27.9375C84.7993 14.4633 70.3383 5.37195 53.746 5.37195C29.0966 5.37195 9.11572 25.418 9.11572 50.1449C9.11572 74.8719 29.0966 94.9204 53.7435 94.9204C70.3358 94.9204 84.7993 85.8341 92.4956 72.3574L67.6843 58.1398Z" fill="black"/>
<path d="M67.686 58.1368C67.6855 58.1378 67.6849 58.1388 67.6843 58.1398L67.686 58.1368Z" fill="white"/>
<path d="M53.746 66.2614C59.5152 66.2589 64.8363 63.1571 67.6843 58.1398L92.4956 72.3574C84.7993 85.8341 70.3358 94.9204 53.7435 94.9204C29.0966 94.9204 9.11572 74.8719 9.11572 50.1449C9.11572 25.418 29.0966 5.37195 53.746 5.37195C70.3383 5.37195 84.7993 14.4633 92.4981 27.9375L67.686 42.1506C64.8384 37.1341 59.5138 34.031 53.746 34.0285C44.875 34.0285 37.6771 41.2439 37.6771 50.1449C37.6771 59.0434 44.875 66.2614 53.746 66.2614Z" fill="white"/>
</svg>
