<svg width="48" height="48" viewBox="0 0 48 48" fill="none" xmlns="http://www.w3.org/2000/svg">
<rect x="1" y="1" width="46" height="46" rx="23" fill="white" stroke="#F8F8F8" stroke-width="2"/>
<path fill-rule="evenodd" clip-rule="evenodd" d="M38.1142 20.1014V24.94L33.8859 20.287C33.8039 20.1945 33.7608 20.1014 33.5716 20.1014H32.1217V27.8866L33.9895 27.8864V22.9726L38.2055 27.6865C38.32 27.8041 38.3696 27.8864 38.5415 27.8864H40V20.1014H38.1142ZM23.9999 21.6013H26.7071V27.8866H28.6388V21.6013H31.3004V20.1014H23.9999V21.6013ZM23.4827 23.9439H21.7794V26.0865C21.7794 26.0865 21.1831 26.3679 20.4137 26.3679C18.6807 26.3679 17.7312 25.368 17.7312 24.058C17.7312 22.7086 18.6526 21.6311 20.4605 21.6311C21.6259 21.6311 22.6211 22.0834 22.6211 22.0834L23.3983 20.6851C23.3983 20.6851 22.051 20 20.3649 20C17.5704 20 15.763 21.7949 15.763 24.0247C15.763 26.3464 17.6794 27.9953 20.2904 27.9953C22.4482 27.9953 23.574 27.0866 23.574 27.0866V24.0297C23.574 23.9786 23.5328 23.9439 23.4827 23.9439ZM14.9512 25.7323L15.5285 27.2307C15.5285 27.2307 14.2093 28 12.5126 28C9.5462 28 8 26.0721 8 24.0338C8 21.9892 9.58746 20.0024 12.5919 20.0024C14.2435 20.0024 15.4709 20.7042 15.4709 20.7042L14.6854 22.1193C14.6854 22.1193 13.7818 21.6288 12.6948 21.6288C11.0112 21.6288 9.96409 22.6503 9.96409 24.0157C9.96409 25.2871 10.928 26.3663 12.6499 26.3663C13.8811 26.3663 14.9512 25.7323 14.9512 25.7323Z" fill="#BFAE62"/>
</svg>
