<svg width="221" height="120" viewBox="0 0 221 120" fill="none" xmlns="http://www.w3.org/2000/svg">
<path d="M0.181641 102.428C0.337939 101.522 0.438101 100.601 0.660441 99.7111C2.33899 92.9844 7.7687 88.1234 14.6084 87.4188C20.8504 86.7765 25.8398 89.1653 29.5943 94.2256C29.6493 94.3002 29.6988 94.377 29.7495 94.4549C29.7792 94.5016 29.8034 94.5506 29.8705 94.6686C27.6956 96.1168 25.5184 97.5661 23.3071 99.0388C21.5857 96.5687 19.3072 95.174 16.3023 95.1818C14.003 95.1885 12.0603 96.0734 10.4687 97.7386C7.20955 101.147 7.39336 106.64 10.8539 109.91C14.1802 113.052 20.0579 113.007 23.251 108.339C23.3765 108.407 23.5064 108.473 23.6318 108.546C25.7485 109.801 27.864 111.055 30.0423 112.347C29.8683 112.613 29.722 112.861 29.5535 113.091C26.5608 117.177 22.584 119.495 17.5505 119.917C17.4449 119.926 17.3414 119.971 17.2368 119.999H15.4768C15.3734 119.97 15.2699 119.924 15.1642 119.917C8.2552 119.401 2.43255 114.508 0.72318 107.748C0.48323 106.805 0.358852 105.833 0.181641 104.875C0.181641 104.059 0.181641 103.244 0.181641 102.428Z" fill="black"/>
<path d="M105.803 120C104.705 119.81 103.591 119.692 102.515 119.419C96.2047 117.82 91.3859 112.141 90.6022 105.618C89.6006 97.2776 95.0732 89.3109 103.588 87.5632C109.841 86.2809 116.766 89.2129 120.2 94.6806C120.238 94.7418 120.268 94.8086 120.326 94.9188C119.375 95.5522 118.434 96.18 117.457 96.8312C114.766 92.756 111.075 90.5398 106.197 90.6678C102.88 90.7546 100.037 92.0781 97.7237 94.4769C92.72 99.663 92.8289 108.062 97.9625 113.026C100.839 115.808 104.303 116.988 108.24 116.497C112.163 116.007 115.151 113.914 117.347 110.573C118.355 111.171 119.329 111.748 120.337 112.345C119.116 114.304 117.583 115.897 115.723 117.164C113.35 118.78 110.737 119.716 107.874 119.914C107.769 119.922 107.666 119.969 107.563 119.998H105.803V120Z" fill="black"/>
<path d="M142.945 35.4244C142.954 54.8875 127.188 70.8287 107.91 70.8465C88.6229 70.8654 72.8203 54.912 72.8203 35.4232C72.8192 15.9356 88.6108 -0.0044516 107.913 9.32567e-07C127.172 0.00445347 142.937 15.9445 142.945 35.4244ZM122.314 26.7475C119.291 21.7195 112.573 17.9593 105.146 19.777C98.2672 21.4612 92.6206 28.0398 93.0202 36.2759C93.3504 43.0872 98.2055 49.6469 105.821 51.2275C112.715 52.659 119.205 49.1604 122.153 44.3194C120.028 43.0126 117.902 41.7069 115.78 40.4023C112.413 44.847 106.531 44.8782 103.086 41.4854C99.7784 38.2295 99.7278 32.8586 102.955 29.4869C106.162 26.1375 112.399 25.7156 115.949 30.6512C118.069 29.3511 120.192 28.0487 122.314 26.7464V26.7475Z" fill="black"/>
<path d="M66.6153 119.335C64.6044 119.335 62.6451 119.346 60.6859 119.316C60.5098 119.314 60.2951 119.081 60.1686 118.904C57.0195 114.485 53.8814 110.06 50.7401 105.635C50.5001 105.296 50.2569 104.961 49.9123 104.666V119.293H41.8223V87.9727C42.0072 87.9627 42.2009 87.9438 42.3935 87.9438C43.9697 87.9416 45.547 87.956 47.1232 87.9327C47.5216 87.9271 47.7429 88.0707 47.9663 88.3935C51.3454 93.2835 54.7378 98.1623 58.129 103.045C58.2214 103.177 58.3238 103.303 58.5153 103.558V87.985H66.6153V119.335Z" fill="black"/>
<path d="M69.5098 87.9744H89.2121V95.6672H77.5888V99.6534H88.3371V107.317H77.5954V111.642H89.1945V119.308H69.5098V87.9755V87.9744Z" fill="black"/>
<path d="M148.764 87.9455C149.54 87.9455 150.29 87.9221 151.037 87.9633C151.206 87.9722 151.405 88.1714 151.52 88.335C155.93 94.6443 160.332 100.959 164.735 107.274C166 109.088 167.265 110.904 168.637 112.7V87.9866H172.115V119.337C171.081 119.337 170.077 119.355 169.076 119.319C168.913 119.314 168.718 119.098 168.606 118.932C166.37 115.652 164.144 112.366 161.917 109.081C158.82 104.511 155.723 99.9406 152.625 95.3712C152.527 95.2265 152.416 95.0895 152.21 94.8146V119.307H148.764V87.9455Z" fill="black"/>
<path d="M30.6777 119.299V87.9812H38.7348V119.299H30.6777Z" fill="black"/>
<path d="M173.869 119.337C174.086 118.741 174.272 118.224 174.462 117.708C178.054 107.996 181.65 98.2862 185.226 88.5697C185.4 88.0977 185.596 87.8973 186.117 87.9296C186.939 87.9819 187.766 87.9619 188.591 87.9352C188.946 87.924 189.093 88.0576 189.214 88.386C192.873 98.3096 196.541 108.229 200.209 118.149C200.348 118.526 200.481 118.906 200.635 119.337C199.543 119.337 198.517 119.322 197.492 119.344C197.123 119.352 197.092 119.093 197.005 118.859C196.19 116.657 195.362 114.459 194.575 112.247C194.41 111.782 194.189 111.652 193.71 111.654C189.401 111.675 185.092 111.676 180.783 111.654C180.291 111.652 180.091 111.816 179.931 112.266C179.14 114.478 178.306 116.673 177.509 118.881C177.381 119.235 177.215 119.361 176.838 119.35C175.873 119.32 174.908 119.34 173.869 119.34V119.337ZM187.256 92.4946C185.227 97.9812 183.257 103.309 181.275 108.671H193.237C191.247 103.288 189.281 97.9712 187.256 92.4946Z" fill="black"/>
<path d="M146.766 119.336C145.665 119.336 144.657 119.319 143.651 119.345C143.289 119.354 143.24 119.12 143.151 118.878C142.331 116.658 141.498 114.443 140.696 112.215C140.55 111.809 140.383 111.649 139.926 111.651C135.562 111.673 131.199 111.671 126.834 111.653C126.413 111.652 126.244 111.788 126.102 112.182C125.297 114.427 124.45 116.657 123.638 118.9C123.518 119.23 123.364 119.354 123.011 119.345C122.042 119.319 121.071 119.336 120.033 119.336C120.108 119.098 120.159 118.91 120.226 118.727C123.963 108.617 127.704 98.5073 131.432 88.3934C131.566 88.0283 131.745 87.9225 132.111 87.9336C132.972 87.9604 133.835 87.9637 134.695 87.9325C135.077 87.9181 135.234 88.0583 135.363 88.4089C137.788 95.0031 140.229 101.592 142.664 108.182C143.967 111.702 145.269 115.222 146.57 118.743C146.632 118.912 146.684 119.086 146.767 119.336H146.766ZM133.393 92.4941C131.366 97.9797 129.395 103.313 127.411 108.679H139.379C137.388 103.294 135.418 97.9674 133.393 92.4941Z" fill="black"/>
<path d="M202.744 87.943C203.665 87.943 204.56 87.943 205.454 87.943C205.67 87.943 205.886 87.943 206.156 87.943V116.382H220.182V119.295H202.744V87.9441V87.943Z" fill="black"/>
</svg>
