<svg width="48" height="48" viewBox="0 0 48 48" fill="none" xmlns="http://www.w3.org/2000/svg">
<rect x="1" y="1" width="46" height="46" rx="23" fill="white" stroke="#F8F8F8" stroke-width="2"/>
<path fill-rule="evenodd" clip-rule="evenodd" d="M5.23809 22.5136L42.686 18.0851L41.4479 26.5718L4 31L5.23809 22.5136ZM43.9952 18.415C44.0155 18.5776 43.9717 18.7382 43.8683 18.8656C43.7679 18.9896 43.6293 19.0713 43.4604 19.0911C43.1618 19.1266 42.9406 18.9412 42.9074 18.6807C42.8866 18.5182 42.9309 18.357 43.0342 18.23C43.1348 18.1062 43.2729 18.0242 43.4415 18.0044C43.7409 17.9688 43.9617 18.1546 43.9952 18.415ZM43.4428 18.0637C43.2933 18.0813 43.1706 18.1579 43.0893 18.258C42.9913 18.3786 42.9513 18.5199 42.9704 18.6671C42.9994 18.8971 43.1826 19.0654 43.4596 19.0327C43.6093 19.0144 43.7323 18.938 43.8129 18.838C43.9107 18.7181 43.9509 18.5763 43.9323 18.4287C43.9026 18.1991 43.7202 18.0307 43.4428 18.0637ZM43.7472 18.3945C43.7596 18.4959 43.7048 18.5709 43.6028 18.614L43.7099 18.7913L43.5218 18.8134L43.4312 18.659L43.3639 18.6675L43.3406 18.8351L43.1591 18.8565L43.2436 18.2737L43.479 18.2458C43.6544 18.225 43.7337 18.2931 43.7472 18.3945ZM14.5001 23.3463L13.8319 27.9067L12.2997 28.0874L12.9682 23.5276L14.5001 23.3463ZM19.556 22.7482L18.8873 27.3087L17.5249 27.4696L16.1582 25.4033L15.8225 27.671L14.3038 27.8507L14.9719 23.2908L16.4055 23.1209L17.7158 25.1041L18.0365 22.9276L19.556 22.7482ZM23.9435 22.2295L23.7574 23.4808L21.3539 23.7642L21.2868 24.2271L23.5257 23.9622L23.3669 25.0627L21.1277 25.3275L21.0517 25.8235L23.4528 25.5393L23.2725 26.7898L19.3654 27.2519L20.0336 22.6915L23.9435 22.2295ZM39.138 20.4327L37.4345 22.8234L38.8471 24.9482L37.1901 25.1445L36.4717 23.9617L35.5399 25.3395L34.1701 25.5014L33.7652 25.549L32.5391 25.694L32.386 25.1105L30.7812 25.3004L30.4568 25.9406L28.9115 26.1228L28.7872 26.1378L27.3863 26.3031L27.7152 24.0432L26.4233 25.79L26.3971 25.7933L25.5815 24.2957L25.2515 26.5564L23.752 26.7336L24.4207 22.1734L25.933 21.9944L26.6804 23.4812L27.8973 21.7622L29.5801 21.5632L28.9545 25.8309L31.395 21.355L32.9142 21.176L34.0625 25.1313L35.5958 22.9765L34.2525 21.0101L35.9096 20.8146L36.5696 21.8249L37.3629 20.6425L39.138 20.4327ZM31.9064 23.0164L31.329 24.173L32.1666 24.0741L31.9064 23.0164ZM8.9584 28.485H8.96078L11.8182 28.1468L12.0149 26.8716L10.0733 27.1017C9.81602 27.1321 9.58443 27.0547 9.63046 26.7351L9.80062 25.5789C9.85158 25.2117 10.1741 25.1137 10.5114 25.0742L12.3101 24.8629L12.4998 23.5843L9.33618 23.9594C8.89491 24.0112 8.55348 24.2818 8.44999 24.6808L7.99682 27.8105C7.95301 28.2178 8.38602 28.5524 8.9584 28.485Z" fill="#FEBE1F"/>
</svg>
