<svg width="48" height="48" viewBox="0 0 48 48" fill="none" xmlns="http://www.w3.org/2000/svg">
<circle cx="24" cy="24" r="23" fill="white" stroke="#F8F8F8" stroke-width="2"/>
<path fill-rule="evenodd" clip-rule="evenodd" d="M28.1947 21.877L27.6097 22.0383C27.2021 22.1994 26.8374 22.4775 26.5299 22.9006V22.1254L25.0856 22.1117V28.1985H26.5885V25.2868C26.5885 24.7887 26.6474 24.4382 26.7793 24.2179C26.8805 23.9848 27.0699 23.7943 27.3041 23.6335C27.5666 23.4572 27.8436 23.3693 28.1363 23.3693L28.6022 23.3996L28.5883 21.8472L28.1947 21.877ZM16.433 28.198H17.9505V20.2679H16.433V28.198ZM22.4738 25.0969L22.1824 25.2563L21.4235 25.4468C21.1021 25.4907 20.8548 25.5639 20.7085 25.6515C20.4612 25.8126 20.3434 26.0331 20.3434 26.3399C20.3434 26.6178 20.4173 26.8072 20.5626 26.9399C20.7085 27.0556 20.8837 27.1146 21.1021 27.1146C21.4527 27.1146 21.7591 27.012 22.0513 26.8072C22.3277 26.6025 22.4738 26.2365 22.4738 25.7108V25.0969ZM24.0656 23.7203V28.1983H22.5469V27.5685C22.0794 27.9783 21.4235 28.1833 20.5923 28.1983C20.0807 28.1833 19.6578 28.0378 19.3512 27.7738C19.002 27.452 18.827 27.012 18.8411 26.4723C18.827 25.6955 19.1036 25.1547 19.6723 24.8182C20.0087 24.6271 20.4457 24.4963 20.9852 24.4224L22.153 24.2332C22.3861 24.1311 22.503 23.9687 22.503 23.7648C22.4883 23.5161 22.4152 23.3401 22.2405 23.2524C22.0657 23.1495 21.818 23.0903 21.4971 23.1059C21.1168 23.0903 20.8548 23.1938 20.6943 23.3996C20.5923 23.5161 20.504 23.6922 20.4759 23.9553H18.9575C19.002 23.3996 19.1334 22.9593 19.3953 22.6233C19.804 22.082 20.519 21.8033 21.5407 21.8186C22.1971 21.8033 22.7802 21.9359 23.3055 22.2138C23.8011 22.4772 24.0656 22.9888 24.0656 23.7203ZM11.9097 21.7752C12.3772 21.7752 12.7997 21.9062 13.2086 22.1701C13.5736 22.4191 13.8653 22.7698 14.0698 23.1793H15.6599C15.4265 22.3312 14.974 21.6283 14.2879 21.0881C13.5886 20.5313 12.7858 20.2534 11.9097 20.2679C10.816 20.2534 9.9104 20.6336 9.15202 21.4233C8.37892 22.1991 8 23.1203 8 24.2179C8 25.3002 8.37892 26.2526 9.15202 27.0273C9.9104 27.7875 10.816 28.1688 11.9097 28.1688C12.7858 28.1688 13.5886 27.9048 14.2879 27.3633C14.974 26.8072 15.4265 26.1202 15.6599 25.2716H14.0698C13.8653 25.6815 13.5736 26.0167 13.2086 26.2807C12.7997 26.5305 12.3772 26.6618 11.9097 26.6618C11.2388 26.6618 10.6701 26.4128 10.2024 25.9436C9.72203 25.4613 9.48814 24.8921 9.50231 24.2179C9.48814 23.5456 9.72203 22.9743 10.2024 22.4922C10.6701 22.0238 11.2388 21.7752 11.9097 21.7752ZM33.5639 25.0374C33.5486 24.555 33.3883 24.1592 33.0811 23.8377C32.746 23.5019 32.3527 23.3401 31.8854 23.3551C31.4332 23.3401 31.0393 23.5019 30.7187 23.8377C30.397 24.1592 30.2217 24.555 30.2217 25.0374C30.2217 25.4907 30.397 25.886 30.7187 26.2228C31.0393 26.5602 31.4332 26.7194 31.8854 26.7194C32.3527 26.7194 32.746 26.5602 33.0672 26.2228C33.3883 25.886 33.5486 25.4907 33.5639 25.0374ZM34.1322 22.7698C34.7453 23.3996 35.052 24.1592 35.052 25.0374C35.052 25.9152 34.7453 26.6757 34.1322 27.2904C33.505 27.9201 32.746 28.2411 31.8854 28.2411C31.0248 28.2411 30.2798 27.9201 29.6675 27.2904C29.0395 26.6757 28.7339 25.9152 28.7339 25.0374C28.7339 24.1592 29.0395 23.3996 29.6675 22.7698C30.2798 22.1412 31.0248 21.8328 31.8854 21.8328C32.746 21.8328 33.505 22.1412 34.1322 22.7698ZM35.9867 24.9495H40V23.589H35.9867V24.9495ZM31.3898 20.6039H32.7469V16.6667H31.3898V20.6039ZM38.9788 18.3942L35.3148 22.067L34.3522 21.1009L38.0149 17.4293L38.9788 18.3942Z" fill="#E3262E"/>
</svg>
