<svg width="708" height="120" viewBox="0 0 708 120" fill="none" xmlns="http://www.w3.org/2000/svg">
<path fill-rule="evenodd" clip-rule="evenodd" d="M208.567 54.1996L202.565 55.8535C198.384 57.5045 194.642 60.3561 191.487 64.6936V56.7462L176.666 56.6062V119.007H192.085V89.157C192.085 84.05 192.692 80.4569 194.043 78.1986C195.081 75.8087 197.027 73.8555 199.432 72.2072C202.12 70.3995 204.962 69.4956 207.966 69.4956L212.748 69.8062L212.605 53.8946L208.567 54.1996ZM87.8952 119.04H103.465V37.7415H87.8952V119.04ZM149.873 87.3492L146.883 88.9834L139.097 90.9339C135.8 91.3872 133.26 92.1372 131.758 93.0355C129.224 94.6865 128.016 96.9476 128.016 100.093C128.016 102.942 128.777 104.884 130.265 106.244C131.758 107.43 133.559 108.035 135.8 108.035C139.396 108.035 142.537 106.983 145.535 104.884C148.374 102.785 149.873 99.0324 149.873 93.6427V87.3492ZM166.203 73.25V119.157H150.619V112.702C145.825 116.902 139.096 119.004 130.568 119.157C125.316 119.004 120.981 117.512 117.835 114.806C114.249 111.507 112.456 106.996 112.602 101.463C112.456 93.4991 115.292 87.9555 121.126 84.5051C124.58 82.5462 129.064 81.2058 134.599 80.4474L146.58 78.5081C148.969 77.4616 150.171 75.7965 150.171 73.7061C150.017 71.1568 149.271 69.3518 147.478 68.4536C145.685 67.3986 143.14 66.7913 139.854 66.9508C135.952 66.7913 133.259 67.8519 131.614 69.9619C130.568 71.1568 129.662 72.959 129.371 75.6594H113.796C114.249 69.9619 115.6 65.4481 118.288 62.0033C122.477 56.4541 129.813 53.5969 140.296 53.7537C147.03 53.5969 153.013 54.957 158.402 57.8057C163.49 60.5062 166.203 65.7475 166.203 73.25ZM41.4851 53.5414C46.2817 53.5414 50.6223 54.8874 54.8119 57.5934C58.5597 60.1456 61.5523 63.7415 63.6471 67.9391H79.9637C77.5696 59.2417 72.9269 52.0359 65.8873 46.4979C58.7135 40.792 50.4769 37.9432 41.4851 38.0915C30.2671 37.9432 20.9733 41.8413 13.1953 49.9371C5.26355 57.8901 1.37598 67.3346 1.37598 78.5869C1.37598 89.6825 5.26355 99.4461 13.1953 107.388C20.9733 115.181 30.2671 119.091 41.4851 119.091C50.4769 119.091 58.7135 116.385 65.8873 110.833C72.9269 105.132 77.5696 98.0888 79.9637 89.3887H63.6471C61.5523 93.5918 58.5597 97.0282 54.8119 99.7343C50.6223 102.295 46.2817 103.641 41.4851 103.641C34.6049 103.641 28.7708 101.089 23.9715 96.2783C19.0435 91.3335 16.641 85.4989 16.7892 78.5869C16.641 71.6945 19.0435 65.8375 23.9715 60.8955C28.7708 56.0935 34.6049 53.5414 41.4851 53.5414ZM263.653 86.1983C263.496 81.2536 261.852 77.1931 258.7 73.8994C255.262 70.4574 251.224 68.798 246.433 68.9519C241.796 68.798 237.751 70.4574 234.46 73.8994C231.162 77.1931 229.364 81.2536 229.364 86.1983C229.364 90.8464 231.162 94.8985 234.46 98.3517C237.751 101.811 241.796 103.442 246.433 103.442C251.224 103.442 255.262 101.811 258.554 98.3517C261.852 94.8985 263.496 90.8464 263.653 86.1983ZM269.485 62.9523C275.772 69.4081 278.919 77.1932 278.919 86.1984C278.919 95.198 275.772 102.994 269.485 109.296C263.05 115.752 255.263 119.043 246.434 119.043C237.601 119.043 229.958 115.752 223.682 109.296C217.232 102.994 214.097 95.198 214.097 86.1984C214.097 77.1932 217.232 69.4081 223.682 62.9523C229.958 56.5076 237.601 53.3454 246.434 53.3454C255.263 53.3454 263.05 56.5076 269.485 62.9523ZM289.138 87.0571H331.244V73.1099H289.138V87.0571ZM319.21 18.0941L281.618 55.7463L271.742 45.8428L309.323 8.20179L319.21 18.0941ZM255.238 42.4886V0.382568L241.291 0.382569V42.4886H255.238Z" fill="#DA291C"/>
<path d="M363.308 56.1077L364.594 63.4751H365.646C367.829 60.9023 370.48 58.7974 373.599 57.1602C376.795 55.5229 380.147 54.7043 383.656 54.7043C387.086 54.7043 390.088 55.484 392.66 57.0432C395.311 58.6025 397.299 60.8244 398.625 63.709H399.677C401.938 61.0583 404.667 58.9143 407.863 57.2771C411.059 55.5619 414.451 54.7043 418.037 54.7043C423.183 54.7043 427.276 56.4195 430.316 59.8498C433.435 63.2022 434.994 67.6071 434.994 73.0644V116.684H416.868V78.6777C416.868 76.105 416.205 74.1169 414.88 72.7136C413.554 71.2323 411.722 70.4917 409.383 70.4917C406.577 70.4917 403.653 71.5832 400.613 73.7661V116.684H382.486V78.6777C382.486 76.105 381.824 74.1169 380.498 72.7136C379.173 71.2323 377.341 70.4917 375.002 70.4917C372.039 70.4917 369.077 71.6221 366.114 73.883V116.684H347.988V72.7136L346 56.1077H363.308Z" fill="black"/>
<path d="M487.496 116.684L486.21 109.317H485.157C482.974 111.89 480.284 113.995 477.088 115.632C473.969 117.269 470.656 118.088 467.148 118.088C462.002 118.088 457.87 116.411 454.752 113.059C451.711 109.629 450.191 105.185 450.191 99.7275V56.1077H468.317V93.9973C468.317 96.648 468.98 98.714 470.305 100.195C471.631 101.599 473.463 102.3 475.802 102.3C478.764 102.3 481.727 101.17 484.689 98.9089V56.1077H502.816V99.9614L504.804 116.684H487.496ZM491.823 31.3157L481.298 49.5588H469.487L474.983 29.9124H491.823V31.3157Z" fill="black"/>
<path d="M515.212 73.6492C515.212 67.4901 517.434 62.8124 521.878 59.616C526.4 56.3415 532.598 54.7043 540.472 54.7043C543.123 54.7043 545.969 54.8603 549.009 55.1721C552.05 55.484 554.427 55.9128 556.143 56.4585V70.7256C553.648 69.7121 550.802 68.8545 547.606 68.1528C544.409 67.3732 541.798 66.9834 539.771 66.9834C537.588 66.9834 535.794 67.4122 534.391 68.2698C533.066 69.1273 532.403 70.4137 532.403 72.1289C532.403 73.6881 532.91 74.8966 533.923 75.7541C535.015 76.6117 536.613 77.4693 538.718 78.3269L544.097 80.198C549.321 81.9911 553.336 84.213 556.143 86.8638C559.027 89.5145 560.469 93.3736 560.469 98.4411C560.469 104.6 558.248 109.434 553.804 112.942C549.438 116.372 543.162 118.088 534.976 118.088C531.546 118.088 527.881 117.776 523.983 117.152C520.085 116.606 516.967 115.827 514.628 114.813V100.312C517.902 101.871 521.41 103.158 525.153 104.171C528.895 105.185 532.208 105.692 535.093 105.692C537.666 105.692 539.615 105.224 540.94 104.288C542.343 103.275 543.045 101.871 543.045 100.078C543.045 98.5191 542.499 97.3497 541.408 96.5701C540.394 95.7125 538.601 94.8159 536.028 93.8804L531.117 92.1262C526.283 90.411 522.424 88.1891 519.539 85.4604C516.655 82.6538 515.212 78.7167 515.212 73.6492Z" fill="black"/>
<path d="M590.065 56.1077V116.684H571.939V56.1077H590.065ZM571.12 39.7356C571.12 37.0849 571.939 35.0189 573.576 33.5376C575.291 32.0563 577.786 31.3157 581.061 31.3157C584.335 31.3157 586.791 32.0563 588.428 33.5376C590.065 35.0189 590.884 37.0849 590.884 39.7356C590.884 42.4643 590.065 44.5693 588.428 46.0505C586.791 47.5318 584.335 48.2725 581.061 48.2725C577.786 48.2725 575.291 47.5318 573.576 46.0505C571.939 44.4913 571.12 42.3863 571.12 39.7356Z" fill="black"/>
<path d="M645.147 71.3103C643.51 70.6866 641.561 70.1409 639.3 69.6731C637.117 69.2053 635.129 68.9714 633.336 68.9714C629.204 68.9714 626.086 70.4137 623.981 73.2983C621.876 76.1829 620.823 80.4709 620.823 86.1621C620.823 97.9344 625.189 103.821 633.921 103.821C635.714 103.821 637.663 103.587 639.768 103.119C641.873 102.651 643.666 102.105 645.147 101.482V115.983C641.327 117.386 637.078 118.088 632.401 118.088C626.164 118.088 620.745 116.801 616.145 114.229C611.624 111.578 608.115 107.875 605.621 103.119C603.204 98.2852 601.995 92.6719 601.995 86.279C601.995 79.9641 603.204 74.4288 605.621 69.6731C608.115 64.9174 611.663 61.2532 616.262 58.6804C620.862 56.0297 626.281 54.7043 632.518 54.7043C636.572 54.7043 640.782 55.2891 645.147 56.4585V71.3103Z" fill="black"/>
<path d="M689.16 110.603H688.225C685.964 112.942 683.391 114.774 680.506 116.1C677.622 117.425 674.503 118.088 671.151 118.088C665.927 118.088 661.639 116.489 658.287 113.293C654.935 110.096 653.259 105.497 653.259 99.4936C653.259 93.0228 655.247 88.2281 659.223 85.1096C663.277 81.9132 668.89 80.3149 676.062 80.3149C678.557 80.3149 681.832 80.5488 685.886 81.0166V77.6252C685.886 71.5442 682.338 68.5037 675.244 68.5037C672.593 68.5037 669.709 68.8935 666.59 69.6731C663.472 70.4527 660.704 71.4272 658.287 72.5967V58.6804C664.29 56.0297 670.917 54.7043 678.167 54.7043C686.353 54.7043 692.707 56.6144 697.229 60.4346C701.751 64.2547 704.012 69.829 704.012 77.1575V99.9614L706 116.684H691.733L689.16 110.603ZM668.812 98.9089C668.812 101.404 669.475 103.392 670.8 104.873C672.125 106.276 673.996 106.978 676.413 106.978C679.61 106.978 682.806 105.77 686.003 103.353L685.886 103.002V90.6059L679.337 90.3721C672.32 90.3721 668.812 93.2177 668.812 98.9089Z" fill="black"/>
</svg>
