<svg width="48" height="48" viewBox="0 0 48 48" fill="none" xmlns="http://www.w3.org/2000/svg">
<rect x="1" y="1" width="46" height="46" rx="23" fill="white" stroke="#F8F8F8" stroke-width="2"/>
<path fill-rule="evenodd" clip-rule="evenodd" d="M21.2394 13C25.9618 13 29.8542 17.2193 30.4083 22.6641L36 22.0094V23.8167V25.6238L30.4404 24.9729C30.0265 30.592 26.0664 35 21.2394 35C16.1366 35 12 30.0751 12 24C12 17.9248 16.1366 13 21.2394 13ZM13.7447 24C13.7447 28.928 17.1001 32.923 21.2394 32.923C25.1606 32.923 28.3763 29.337 28.7045 24.7697L20.5635 23.8167L28.6718 22.8673C28.2039 18.4745 25.0561 15.077 21.2394 15.077C17.1001 15.077 13.7447 19.0719 13.7447 24Z" fill="#007FCF"/>
</svg>
