<svg width="48" height="48" viewBox="0 0 48 48" fill="none" xmlns="http://www.w3.org/2000/svg">
<rect x="1" y="1" width="46" height="46" rx="23" fill="white" stroke="#F8F8F8" stroke-width="2"/>
<path fill-rule="evenodd" clip-rule="evenodd" d="M34.0175 31.0715V31.6991H31.6326V28.2402H32.3439V31.0715H34.0175ZM29.9577 31.6991H30.6691V28.2402H29.9577V31.6991ZM29.1445 30.1231C29.2702 30.2348 29.3399 30.43 29.3399 30.6809C29.3399 30.8485 29.2979 31.0019 29.2282 31.1412C29.1585 31.2806 29.0468 31.4063 28.9074 31.5177C28.7959 31.6015 28.6563 31.6712 28.5168 31.6991C28.3774 31.7271 28.196 31.7549 27.9869 31.7549C27.6939 31.7549 27.4429 31.7131 27.2477 31.6294C27.0385 31.5457 26.8851 31.4203 26.7594 31.2668C26.7594 31.2599 26.756 31.2564 26.7525 31.2529C26.749 31.2495 26.7455 31.246 26.7455 31.2389C26.7455 31.2319 26.7421 31.2284 26.7386 31.2249C26.7352 31.2214 26.7317 31.2179 26.7317 31.2109C26.6757 31.1412 26.648 31.0575 26.62 30.9599C26.592 30.8623 26.5643 30.7646 26.5503 30.6112H27.2337C27.2755 30.8205 27.3592 30.9739 27.4848 31.0575C27.6103 31.1412 27.7775 31.1832 27.9869 31.1832C28.182 31.1832 28.3355 31.1412 28.4471 31.0715C28.5588 31.0019 28.6285 30.9042 28.6285 30.7786C28.6285 30.7089 28.6005 30.6531 28.5588 30.6112C28.5168 30.5555 28.4331 30.5135 28.3355 30.4857L27.2895 30.0812C27.0803 30.0114 26.9268 29.9 26.8014 29.7743C26.6757 29.6489 26.62 29.4675 26.62 29.2305C26.62 28.9097 26.7317 28.6586 26.9688 28.4634C27.2059 28.268 27.5126 28.1705 27.8892 28.1705C28.3077 28.1705 28.6285 28.268 28.8655 28.4634C29.1026 28.6586 29.2142 28.9235 29.2422 29.2863H28.5448C28.5028 29.1049 28.4471 28.9655 28.3355 28.8819C28.238 28.7982 28.0846 28.7563 27.8892 28.7563C27.7219 28.7563 27.5823 28.7982 27.4708 28.8679C27.3592 28.9375 27.3034 29.0352 27.3034 29.1468C27.3034 29.2026 27.3174 29.2445 27.3592 29.3002C27.4011 29.342 27.4568 29.3839 27.5405 29.4119L28.6285 29.8163C28.8377 29.9 29.0191 30.0114 29.1445 30.1231ZM24.0659 28.2402L22.8386 31.6991H23.5917L23.8288 30.9739H25.0842L25.3212 31.6991H26.0743L24.8609 28.2402H24.0659ZM24.024 30.3882L24.4565 29.0352L24.8888 30.3882H24.024ZM22.2306 30.9739V30.9879C22.2306 31.1262 22.2444 31.251 22.2582 31.3754V31.3754V31.3754L22.2585 31.3783C22.2725 31.504 22.3145 31.5875 22.3842 31.6574H21.5891C21.5751 31.6294 21.5612 31.6015 21.5612 31.5737C21.5551 31.5614 21.5516 31.5491 21.5485 31.538C21.5446 31.5239 21.5412 31.5117 21.5334 31.504C21.526 31.4817 21.5225 31.4555 21.5187 31.4275L21.5187 31.4275C21.5154 31.4027 21.512 31.3766 21.5054 31.3503C21.5054 31.3273 21.503 31.3018 21.5002 31.272V31.272V31.272C21.4962 31.2297 21.4914 31.1787 21.4914 31.1132V31.0297V30.946C21.4914 30.7368 21.4635 30.5694 21.4217 30.4579C21.366 30.3462 21.1986 30.2905 20.9195 30.2905H20.2642V31.6574H19.5528V28.2402H21.0729C21.2963 28.2402 21.4774 28.2542 21.5891 28.282C21.7006 28.31 21.8122 28.3517 21.9099 28.4075C21.9169 28.4075 21.9204 28.411 21.9239 28.4145C21.9273 28.418 21.9308 28.4214 21.9377 28.4214C21.9447 28.4214 21.9482 28.4249 21.9517 28.4284C21.9552 28.4319 21.9587 28.4354 21.9657 28.4354C22.0912 28.5191 22.1748 28.6308 22.2306 28.7702C22.2865 28.9097 22.3145 29.0631 22.3145 29.2305C22.3145 29.4397 22.2725 29.5931 22.2028 29.7046C22.1191 29.8163 21.9935 29.9277 21.8262 30.0254C21.896 30.0534 21.9517 30.0812 21.9935 30.1091C22.0223 30.1283 22.0445 30.154 22.0647 30.1773L22.0647 30.1773C22.0738 30.1879 22.0825 30.198 22.0912 30.2068C22.1609 30.2905 22.1888 30.3882 22.2028 30.5135C22.2168 30.6391 22.2306 30.7646 22.2306 30.9042V30.932V30.9599V30.9739ZM20.9335 29.7465C21.1706 29.7465 21.338 29.7186 21.4357 29.6489C21.5334 29.5792 21.5751 29.4675 21.5751 29.3002C21.5751 29.1328 21.5334 29.0212 21.4357 28.9515C21.352 28.8957 21.1706 28.8539 20.9335 28.8539H20.2502V29.7465H20.9335ZM18.3859 29.872C18.5252 29.7743 18.6368 29.6768 18.6926 29.5652C18.7623 29.4535 18.7902 29.3142 18.7902 29.1468C18.7902 28.9932 18.7623 28.8679 18.7066 28.7423C18.6508 28.6168 18.5671 28.5191 18.4555 28.4354C18.3579 28.3517 18.2323 28.31 18.1208 28.282C18.0091 28.2542 17.8279 28.2402 17.5908 28.2402H16.0845V31.6991H17.5489C17.8 31.6991 17.9951 31.6712 18.1348 31.6434C18.2882 31.6154 18.4135 31.5457 18.5252 31.462C18.6368 31.3643 18.7345 31.2389 18.8042 31.0994C18.8739 30.9599 18.9019 30.8065 18.9019 30.6391C18.9019 30.4579 18.86 30.2905 18.7763 30.1649C18.6926 30.0394 18.5671 29.9417 18.3859 29.872ZM18.0371 30.9879C17.9394 31.0435 17.758 31.0715 17.4931 31.0715H16.8095V30.2068H17.5071C17.772 30.2068 17.9534 30.2348 18.0511 30.2905C18.1488 30.3462 18.1905 30.4579 18.1905 30.6391C18.1905 30.8065 18.1348 30.9182 18.0371 30.9879ZM17.5209 28.8679H16.7959V29.6069H17.5071C17.7163 29.6069 17.8697 29.5792 17.9534 29.5372C18.0371 29.4815 18.0651 29.3839 18.0651 29.2445C18.0651 29.1049 18.0231 29.0072 17.9394 28.9515C17.8557 28.8957 17.7163 28.8679 17.5209 28.8679Z" fill="#CC0000"/>
<path fill-rule="evenodd" clip-rule="evenodd" d="M17.6004 25.7687H21.0215C21.4887 25.7687 21.8692 25.3908 21.8692 24.9268V18.1565C21.8699 17.9891 22.0084 17.8537 22.179 17.8537H22.1796C22.2901 17.8537 22.3927 17.9127 22.447 18.0054L26.6872 25.3471C26.9205 25.7477 27.4402 25.8857 27.8442 25.6564C28.1056 25.5059 28.269 25.2268 28.2696 24.9268V18.1557C28.2696 18.076 28.301 18.0016 28.3579 17.9447C28.4167 17.8859 28.4944 17.8537 28.5788 17.8537H28.5795C28.6899 17.8537 28.7925 17.9127 28.8467 18.0054L33.0876 25.3471C33.3216 25.7477 33.8399 25.8871 34.2445 25.6556C34.5059 25.5059 34.6688 25.2268 34.6695 24.9268V16.0002H36V24.9268C35.9986 26.1176 35.022 27.0816 33.8188 27.0802C33.0386 27.0793 32.3185 26.6656 31.9308 25.9956L29.6 21.961V24.9268C29.5986 26.1176 28.6222 27.0816 27.4188 27.0802C26.6386 27.0793 25.9185 26.6656 25.5308 25.9956L23.2002 21.961V24.9268C23.2002 26.1176 22.2246 27.0826 21.0212 27.0826H17.6C14.5072 27.0826 12 24.6017 12 21.5416C12 18.4811 14.5072 16.0002 17.6 16.0002H19.4668V17.3196L19.4665 17.3198V17.3139H17.6004C15.2465 17.3145 13.3315 19.2114 13.3315 21.5422C13.3321 23.8719 15.2472 25.768 17.6004 25.7687ZM19.4665 17.847L19.4668 17.8473V19.1666H17.6C16.2746 19.1673 15.2006 20.231 15.2012 21.5425C15.2018 22.8533 16.2755 23.9156 17.6 23.9162H19.688C19.8605 23.9162 20 23.778 20 23.6074V18.156C20.0015 16.9653 20.978 16.0014 22.1814 16.0028C22.9615 16.0036 23.6815 16.4174 24.0694 17.0873L26.4 21.1219V18.156C26.4014 16.9653 27.378 16.0014 28.5812 16.0028C29.3614 16.0036 30.0817 16.4174 30.4694 17.0873L32.8 21.1219V16.0002H34.1308V24.926C34.1302 25.0334 34.0713 25.134 33.9773 25.1884C33.8282 25.2719 33.6387 25.2228 33.5536 25.0771L29.3128 17.7348C29.1612 17.476 28.8801 17.3151 28.5801 17.3151H28.5781C28.3515 17.3151 28.1376 17.4034 27.9775 17.5628C27.8187 17.7217 27.731 17.932 27.731 18.1557V24.926C27.7304 25.0334 27.6716 25.134 27.5767 25.1884C27.429 25.2739 27.2375 25.2228 27.1532 25.0771L22.913 17.7348C22.7615 17.476 22.4802 17.3151 22.1802 17.3151H22.1784C21.7116 17.3151 21.3313 17.6916 21.3307 18.1557V24.9268C21.3307 25.094 21.1919 25.23 21.0215 25.23H17.6004C15.5439 25.2294 13.8707 23.575 13.8699 21.5422C13.8699 19.5082 15.5433 17.8531 17.6004 17.8525H19.4665V17.847Z" fill="#CC0000"/>
</svg>
