<svg width="48" height="48" viewBox="0 0 48 48" fill="none" xmlns="http://www.w3.org/2000/svg">
<rect x="1" y="1" width="46" height="46" rx="23" fill="white" stroke="#F8F8F8" stroke-width="2"/>
<path fill-rule="evenodd" clip-rule="evenodd" d="M17.5484 18.2033C14.5237 18.2033 12.0741 20.6431 12.0741 23.649C12.0741 26.6501 14.5237 29.0899 17.5484 29.0899H20.9966C21.5863 29.1424 22.1713 28.9284 22.59 28.505C23.0037 28.0864 23.213 27.5014 23.1512 26.9116V23.8107L25.4532 27.7487C26.8466 30.1079 29.4864 29.1375 29.4864 27.1018V23.8203L31.7882 27.7582C33.1867 30.1126 35.8263 29.1471 35.8263 27.1114V18.2033H34.504V27.0687C34.5088 27.4968 34.1758 27.8581 33.7477 27.8915C33.4148 27.8819 33.1151 27.6917 32.9631 27.3969L30.7418 23.5967L28.7539 20.1818C28.6444 20.0012 28.4969 19.9106 28.3639 19.9535C28.2448 19.9869 28.1689 20.1011 28.1736 20.2246V27.0591C28.1689 27.4158 27.9358 27.7251 27.5982 27.8343C27.2033 27.9247 26.7894 27.7297 26.6183 27.3635L24.5541 23.8345L22.414 20.1818C22.3092 20.0012 22.1619 19.9106 22.0193 19.9535C21.9004 19.9869 21.8195 20.1011 21.8288 20.2246V26.9118C21.8195 27.3826 21.4388 27.7631 20.9635 27.7773H17.5389C15.2419 27.7773 13.382 25.9225 13.382 23.6396C13.382 21.3518 15.2419 19.5016 17.5389 19.5016H19.3129V18.2033H17.5484ZM21.9621 18.1414C20.911 18.1272 19.9836 18.9594 19.9836 20.1676V25.5656C19.9836 25.6655 19.9455 25.7561 19.879 25.8273C19.8124 25.894 19.7221 25.9368 19.6269 25.9368H17.5531C16.2835 25.9319 15.2515 24.9141 15.237 23.649C15.2419 22.3697 16.2835 21.3422 17.5627 21.3422H19.3225V20.0343H17.5389C16.2405 20.0343 15.0419 20.7241 14.3953 21.8417C13.7482 22.9594 13.7482 24.3338 14.3953 25.4515C15.0419 26.5692 16.2405 27.2589 17.5389 27.2589H20.9539C21.1393 27.2447 21.2917 27.0972 21.301 26.9118V20.1818C21.3059 19.8298 21.5389 19.5161 21.8813 19.4113C22.276 19.3163 22.685 19.5112 22.8612 19.8774L24.9824 23.5301L27.0464 27.0591C27.151 27.24 27.3032 27.3301 27.4411 27.2923C27.5601 27.2589 27.6409 27.1448 27.6314 27.0211V20.1818C27.636 19.8298 27.8692 19.5161 28.207 19.4113C28.6064 19.302 29.0298 19.5016 29.1914 19.8774L31.1652 23.2591L33.3816 27.0591C33.4909 27.24 33.6384 27.3301 33.781 27.2923C33.9 27.2589 33.976 27.1448 33.9666 27.0211V18.2033H32.6585V23.4683L30.3566 19.5254C28.9584 17.1711 26.3186 18.1414 26.3186 20.1772V23.4589L24.0167 19.5208C23.4509 18.56 22.6803 18.151 21.9621 18.1414Z" fill="#CC1417"/>
</svg>
