<svg width="48" height="48" viewBox="0 0 48 48" fill="none" xmlns="http://www.w3.org/2000/svg">
<rect x="1" y="1" width="46" height="46" rx="23" fill="white" stroke="#F8F8F8" stroke-width="2"/>
<path fill-rule="evenodd" clip-rule="evenodd" d="M40.9088 22.4167H43.6565L44 21.0417H40.1005C39.8177 21.0417 39.5349 21.2709 39.4743 21.5417L38.2824 26.3542C38.1813 26.7291 38.4036 27 38.7672 27H42.5049L42.8484 25.6042H40.0804C39.9592 25.6042 39.8784 25.5209 39.9188 25.3959L40.1005 24.7083H42.3837L42.7221 23.3333H40.4643L40.626 22.6666C40.6461 22.5417 40.7876 22.4167 40.9088 22.4167ZM39.2116 21.0209H34.5849L34.2415 22.3959H35.8579L34.7061 26.9792H36.1205L37.2519 22.3959H38.8681L39.2116 21.0209ZM33.9788 21.6667L32.6657 26.9792H31.2513L31.7968 24.8126H29.837L29.332 26.9792H27.938L29.3117 21.5C29.3725 21.2292 29.6553 21 29.9178 21H33.494C33.8375 21 34.0799 21.2916 33.9788 21.6667ZM32.2212 22.4167H30.7261C30.6049 22.4167 30.4633 22.5417 30.4432 22.6666C30.4028 22.6459 30.2209 23.4375 30.2209 23.4375H32.1605L32.3625 22.6251C32.4029 22.5 32.3222 22.4167 32.2212 22.4167ZM27.4329 26.4168L27.9177 24.4375C27.9985 24.1041 27.8974 23.7917 27.5742 23.6249L27.8773 23.4583C28.0592 23.3541 28.2005 23.1874 28.2612 22.9582L28.5441 21.875C28.6854 21.3749 28.443 21.0417 27.8974 21.0417H23.978L22.503 27H26.6246C27.0489 27 27.352 26.7708 27.4329 26.4168ZM24.4426 25.3125L26.261 24.3125C26.4226 24.25 26.5034 24.3125 26.463 24.4584L26.261 25.3541C26.2206 25.4791 26.0994 25.5833 25.9782 25.5833H24.4832C24.3214 25.5833 24.3012 25.4167 24.4426 25.3125ZM26.9681 22.5C26.9681 22.4374 26.9278 22.3959 26.867 22.3959H25.3316C25.2104 22.3959 25.0689 22.5 25.0488 22.6251L24.8265 23.5209C24.7861 23.6458 24.867 23.7084 24.9882 23.6458L26.8268 22.6459C26.948 22.5833 26.9681 22.5626 26.9681 22.5ZM20.3008 21.0209H22.5838C22.9476 21.0209 23.1698 21.3125 23.0688 21.6874L21.7556 27H20.3616L21.4525 22.6251C21.4929 22.5 21.412 22.4167 21.2908 22.4167H20.2605C20.1393 22.4167 19.9978 22.5209 19.9776 22.6666L18.9068 27H17.5126L18.6037 22.6251C18.6442 22.5 18.5633 22.4167 18.4421 22.4167H17.1288L15.9974 27H14.6033L16.0782 21.0417H18.9673C19.2705 21.0417 19.4725 21.1457 19.5937 21.2916C19.7957 21.1042 20.018 21.0209 20.3008 21.0209ZM14.0174 26.5L15.2297 21.6667C15.3105 21.2916 15.0882 21 14.7245 21H11.1485C10.8657 21 10.5828 21.2292 10.5222 21.5L9.33008 26.3542C9.22902 26.7291 9.45128 27 9.81502 27H13.4114C13.674 27 13.9568 26.7708 14.0174 26.5ZM11.9566 22.3959H13.4517C13.5729 22.3959 13.6538 22.4791 13.6133 22.6041L12.9265 25.3541C12.886 25.4791 12.7648 25.5833 12.6436 25.5833H11.1485C11.0273 25.5833 10.9262 25.5 10.9668 25.375L11.6737 22.6459C11.6941 22.5209 11.8153 22.3959 11.9566 22.3959ZM7.75421 24.6876H9.16848L8.70382 26.5C8.64328 26.7708 8.36035 27 8.09768 27H4.52168C4.15794 27 3.93568 26.7291 4.01661 26.3542L5.20848 21.5C5.26914 21.2292 5.55194 21 5.81461 21H9.39075C9.75448 21 9.97675 21.2916 9.89582 21.6667L9.49182 23.2917H8.09768L8.27955 22.6041C8.31995 22.4791 8.23915 22.3959 8.11782 22.3959H6.62275C6.50155 22.3959 6.36021 22.5209 6.33995 22.6459L5.65301 25.375C5.61261 25.5 5.69341 25.5833 5.81461 25.5833H7.30981C7.43101 25.5833 7.57248 25.4791 7.59261 25.3541L7.75421 24.6876Z" fill="#CE1417"/>
</svg>
