<svg width="48" height="48" viewBox="0 0 48 48" fill="none" xmlns="http://www.w3.org/2000/svg">
<rect x="1" y="1" width="46" height="46" rx="23" fill="white" stroke="#F8F8F8" stroke-width="2"/>
<path fill-rule="evenodd" clip-rule="evenodd" d="M25.5405 19.6967C25.6354 19.9631 25.6829 20.2958 25.6829 20.6955V21.2229C25.6829 21.6221 25.6354 21.9599 25.5405 22.2353C25.4454 22.5109 25.3026 22.7204 25.1122 22.8626C24.9887 22.958 24.853 23.0318 24.7061 23.0836C24.5589 23.1364 24.3949 23.1623 24.2138 23.1623C24.0147 23.1623 23.841 23.1364 23.6938 23.0836C23.5465 23.0318 23.4109 22.958 23.2867 22.8626C23.1064 22.7204 22.9636 22.5109 22.859 22.2353C22.7547 21.9599 22.7026 21.6176 22.7026 21.2089V20.6958C22.7026 20.296 22.7547 19.9635 22.859 19.6972C22.964 19.4312 23.1064 19.2172 23.2867 19.0557C23.4109 18.9699 23.5465 18.9011 23.6938 18.8487C23.841 18.7965 24.0144 18.7703 24.2138 18.7703C24.3949 18.7703 24.5587 18.7962 24.7061 18.8484C24.853 18.9009 24.9887 18.9697 25.1122 19.0554C25.3029 19.2168 25.4454 19.4309 25.5405 19.6967ZM30.8877 23.091H33.1409V22.3065H31.7287V21.3231H32.9695V20.5098H31.7287V19.6256H33.1409V18.8273H30.8877V23.091ZM27.4801 23.9608H28.264V28.2244H27.5084L26.3531 25.7575V28.2244H25.5831V23.9608H26.3247L27.4801 26.4567V23.9608ZM31.5869 23.9608H32.9415C33.322 23.9608 33.633 24.0935 33.8753 24.3599C34.1178 24.6262 34.2391 24.959 34.2391 25.3581V25.4581C34.2391 25.7336 34.1819 25.9785 34.0683 26.1925C33.9536 26.4065 33.8062 26.5749 33.6257 26.6986L34.2248 28.2244H33.3832L32.8133 26.8698H32.4424V28.2244H31.5869V23.9608ZM40 27.4399V28.2244H37.9036V23.9608H38.7592V27.4399H40ZM35.6792 23.9752L34.453 28.2244H35.3367L35.4654 27.6828H36.6057L36.7203 28.2244H37.6185L36.3777 23.9752H35.6792ZM35.6369 26.9411L35.9358 25.7005C35.955 25.6058 35.9763 25.5006 36.0002 25.3867C36.0238 25.2728 36.0355 25.1871 36.0355 25.1299C36.0355 25.1871 36.0474 25.2728 36.0711 25.3867C36.0951 25.501 36.1163 25.6058 36.1354 25.7005L36.4209 26.9411H35.6369ZM33.3973 25.4016C33.3973 25.6389 33.345 25.8103 33.2406 25.915C33.1362 26.019 33.0077 26.0715 32.8558 26.0715H32.4421V24.7594H32.8558C33.0077 24.7594 33.1362 24.8094 33.2406 24.9091C33.345 25.0094 33.3973 25.1633 33.3973 25.3727V25.4016ZM31.13 23.9611H28.6916V24.7594H29.4901V28.2248H30.3318V24.7594H31.13V23.9611ZM20.3488 25.8718V26.3423C20.3488 26.6088 20.3677 26.8201 20.4062 26.9767C20.4441 27.1341 20.496 27.2459 20.5627 27.3119C20.6102 27.3787 20.6697 27.4242 20.7409 27.4475C20.8123 27.4714 20.8906 27.4835 20.9761 27.4835C21.1 27.4835 21.2143 27.4548 21.3186 27.398C21.4233 27.3406 21.5085 27.2266 21.5752 27.0554L22.3311 27.398C22.2072 27.6921 22.029 27.9133 21.7961 28.0606C21.5638 28.2082 21.2901 28.2816 20.9763 28.2816C20.7959 28.2816 20.6274 28.2579 20.4703 28.2105C20.3131 28.1632 20.1782 28.0921 20.0637 27.9965C19.8831 27.8445 19.7432 27.6356 19.6435 27.3691C19.5432 27.1033 19.4933 26.7652 19.4933 26.3566V25.8292C19.4933 25.4296 19.5432 25.0969 19.6435 24.8308C19.7429 24.5646 19.8831 24.3553 20.0637 24.2035C20.1782 24.1085 20.3133 24.0323 20.4703 23.9754C20.6274 23.9185 20.7959 23.8901 20.9763 23.8901C21.2713 23.8901 21.54 23.9659 21.7824 24.1178C22.0247 24.2696 22.2074 24.5075 22.3314 24.8308L21.5754 25.1442C21.5089 24.9734 21.4213 24.8591 21.312 24.8019C21.2026 24.7451 21.0913 24.7166 20.9767 24.7166C20.8913 24.7166 20.8125 24.7284 20.7414 24.752C20.6703 24.7762 20.6107 24.8211 20.5633 24.8879C20.4968 24.9545 20.4447 25.0634 20.4062 25.2162C20.3677 25.3682 20.3488 25.5867 20.3488 25.8718ZM36.706 18.8273L37.9036 21.0375V23.091H38.7594V21.0374L39.9574 18.8273H39.0303L38.3177 20.1678L37.6331 18.8273H36.706ZM35.843 22.963C36.0284 22.877 36.1827 22.7586 36.307 22.6064C36.4304 22.4539 36.528 22.2614 36.5989 22.0286C36.6702 21.796 36.706 21.5465 36.706 21.2799V20.5098C36.706 20.2719 36.6702 20.0485 36.5989 19.8395C36.528 19.6303 36.4304 19.4494 36.307 19.2977C36.1827 19.1458 36.0284 19.0289 35.843 18.9486C35.6576 18.8678 35.4557 18.8273 35.237 18.8273H33.8684V23.091H35.237C35.4557 23.091 35.6576 23.0484 35.843 22.963ZM34.7236 22.3062V19.6256H35.1374C35.2609 19.6256 35.3657 19.6442 35.4509 19.6827C35.5363 19.7207 35.6076 19.7774 35.6647 19.8539C35.7311 19.9393 35.7789 20.0393 35.8072 20.1529C35.8359 20.2672 35.8497 20.3957 35.8497 20.5379V21.2225C35.8497 21.4033 35.8355 21.5625 35.8072 21.7004C35.7789 21.8383 35.7309 21.9546 35.6647 22.0499C35.6076 22.1256 35.5363 22.1878 35.4509 22.2351C35.3657 22.2828 35.2609 22.3062 35.1374 22.3062H34.7236ZM24.9558 23.9611H22.788V28.2244H24.9558V27.4399H23.6435V26.4567H24.7558V25.6578H23.6435V24.7594H24.9558V23.9611ZM29.1619 20.7666L28.5346 23.091H27.836L27.1944 20.7666L26.9375 23.091H26.1387L26.6382 18.8273H27.4511L28.1926 21.508L28.9342 18.8273H29.7327L30.2172 23.091H29.433L29.1619 20.7666ZM24.8271 21.2083C24.8271 21.4747 24.8082 21.6837 24.77 21.8356C24.7324 21.9875 24.68 22.1021 24.6135 22.1778C24.5657 22.2446 24.5065 22.2944 24.4353 22.3277C24.364 22.3613 24.2902 22.3776 24.2138 22.3776C24.1191 22.3776 24.0333 22.3613 23.9575 22.3277C23.8811 22.2948 23.8196 22.2446 23.7719 22.1778C23.7051 22.1021 23.6534 21.9877 23.6152 21.8356C23.5768 21.6837 23.5578 21.4747 23.5578 21.2083V20.7231C23.5578 20.4571 23.5768 20.2458 23.6152 20.0888C23.6534 19.9322 23.7053 19.8154 23.7719 19.7392C23.8196 19.6827 23.8811 19.6395 23.9575 19.6113C24.033 19.583 24.1187 19.5688 24.2138 19.5688C24.2998 19.5688 24.376 19.583 24.4424 19.6113C24.5088 19.6398 24.5657 19.6827 24.6135 19.7392C24.6802 19.8157 24.7324 19.9322 24.77 20.0888C24.8082 20.2458 24.8271 20.4571 24.8271 20.7231V21.2083ZM21.5754 20.0249L22.3314 19.683C22.2074 19.3597 22.0247 19.1268 21.7824 18.9842C21.54 18.8419 21.2713 18.7705 20.9763 18.7705C20.7959 18.7705 20.6274 18.7967 20.4703 18.8491C20.3133 18.9015 20.1782 18.9703 20.0637 19.056C19.8831 19.2174 19.7429 19.4315 19.6435 19.6976C19.5432 19.9637 19.4933 20.2964 19.4933 20.6962V21.2092C19.4933 21.6178 19.5432 21.9602 19.6435 22.2357C19.7432 22.511 19.8831 22.7207 20.0637 22.863C20.1782 22.9583 20.3131 23.032 20.4703 23.0845C20.6274 23.1367 20.7959 23.1626 20.9763 23.1626C21.2901 23.1626 21.5638 23.0892 21.7961 22.9416C22.029 22.7942 22.2072 22.5689 22.3311 22.2642L21.5758 21.9357C21.5089 22.0974 21.424 22.2117 21.3192 22.2781C21.2146 22.3447 21.1007 22.3779 20.9767 22.3779C20.8913 22.3779 20.8128 22.3616 20.7414 22.328C20.6703 22.295 20.6107 22.245 20.5633 22.1781C20.4966 22.1024 20.4447 21.9881 20.4068 21.8358C20.3682 21.6841 20.3494 21.475 20.3494 21.2085V20.7237C20.3494 20.4577 20.3682 20.2463 20.4068 20.0891C20.4447 19.9326 20.4968 19.8159 20.5633 19.7395C20.6107 19.683 20.6703 19.6398 20.7414 19.6116C20.8125 19.5833 20.8913 19.5691 20.9767 19.5691C21.0913 19.5691 21.2026 19.5997 21.312 19.6618C21.4213 19.7232 21.5089 19.8445 21.5754 20.0249Z" fill="black"/>
<path fill-rule="evenodd" clip-rule="evenodd" d="M18.3279 23.5068H18.3275C18.3275 23.5107 18.327 23.5147 18.327 23.5187C18.327 23.5248 18.3279 23.5308 18.3279 23.5371V23.5068ZM16.7135 19.6185C16.2187 19.1195 15.6343 18.7247 14.9596 18.4349C14.2842 18.1453 13.566 18 12.8055 18C11.7787 18 10.8404 18.2612 9.98896 18.7839C9.13804 19.3069 8.47543 19.9917 7.99988 20.8377L9.15493 21.465C9.50693 20.8377 10.0109 20.3293 10.6668 19.9393C11.3228 19.5497 12.0357 19.3544 12.8055 19.3544C13.376 19.3544 13.918 19.4644 14.4316 19.6827C14.9448 19.9013 15.3893 20.1985 15.7644 20.5742C16.1403 20.9495 16.4396 21.3916 16.663 21.9003C16.8843 22.4048 16.9953 22.9444 16.9972 23.5187C16.9953 24.0937 16.8847 24.6334 16.663 25.1374C16.4396 25.6458 16.1403 26.0881 15.7644 26.4636C15.3893 26.8395 14.9448 27.1363 14.4316 27.3548C13.918 27.5735 13.376 27.683 12.8055 27.683C12.0357 27.683 11.3228 27.488 10.6668 27.0985C10.0109 26.7084 9.50693 26.2001 9.15493 25.5727L7.99988 26.2001C8.47543 27.0461 9.13804 27.7305 9.98896 28.2536C10.8401 28.7764 11.7787 29.0377 12.8052 29.0377C13.5661 29.0377 14.2842 28.8927 14.9592 28.6028C15.6343 28.3124 16.2187 27.9183 16.7131 27.4189C17.2072 26.9197 17.5996 26.3327 17.8894 25.6579C18.1778 24.9864 18.3223 24.272 18.3238 23.5157C18.3217 22.7615 18.1773 22.0493 17.8897 21.3797C17.6 20.7048 17.2075 20.1176 16.7135 19.6185ZM11.7577 22.4778C11.4677 22.7728 11.3228 23.1244 11.3228 23.5332C11.3228 23.9418 11.4677 24.2914 11.7577 24.5812C12.0475 24.8714 12.3973 25.0161 12.8055 25.0161C13.0815 25.0161 13.3355 24.9473 13.569 24.8094C13.8019 24.6715 13.9801 24.4883 14.1038 24.2606L15.2584 24.9173C15.0207 25.3354 14.6813 25.6776 14.2389 25.9439C13.7967 26.2098 13.3195 26.343 12.8055 26.343C12.4254 26.343 12.0641 26.2691 11.7219 26.1219C11.3797 25.9745 11.0825 25.7751 10.8306 25.5229C10.5788 25.2707 10.3792 24.9738 10.2316 24.6316C10.0843 24.2894 10.0105 23.9233 10.0105 23.5335C10.0105 23.1437 10.0843 22.7775 10.2316 22.4353C10.3792 22.0931 10.5791 21.7957 10.8306 21.5439C11.0829 21.2916 11.3797 21.0922 11.7219 20.945C12.0641 20.7976 12.4254 20.7238 12.8055 20.7238C13.3288 20.7238 13.8086 20.8547 14.2462 21.1158C14.6832 21.3774 15.0207 21.7223 15.2584 22.1498L14.1038 22.8058C13.9801 22.5872 13.8019 22.4044 13.569 22.2569C13.3355 22.1095 13.0815 22.0359 12.8055 22.0359C12.3971 22.0359 12.0475 22.1831 11.7577 22.4778Z" fill="#FDC600"/>
</svg>
