<svg width="48" height="48" viewBox="0 0 48 48" fill="none" xmlns="http://www.w3.org/2000/svg">
<rect x="1" y="1" width="46" height="46" rx="23" fill="white" stroke="#F8F8F8" stroke-width="2"/>
<rect x="35.9496" y="33.1868" width="1.47815" height="0.804768" rx="0.0149308" fill="#005CA4"/>
<path d="M35.3972 35.8743H33.3965C33.3635 35.8743 33.3368 35.8475 33.3368 35.8146V31.3652C33.3368 31.3493 33.3431 31.3342 33.3543 31.323C33.3655 31.3118 33.3807 31.3055 33.3965 31.3055H34.0535C34.0693 31.3055 34.0845 31.3118 34.0957 31.323C34.1069 31.3342 34.1132 31.3493 34.1132 31.3652V35.0232C34.1132 35.048 34.1332 35.068 34.158 35.068H35.3972C35.4302 35.068 35.457 35.0948 35.457 35.1277V35.7996C35.4617 35.8178 35.4575 35.8372 35.4458 35.8519C35.434 35.8666 35.416 35.8749 35.3972 35.8743Z" fill="#005CA4"/>
<path fill-rule="evenodd" clip-rule="evenodd" d="M31.1419 35.8295C31.2758 35.8788 31.4173 35.9041 31.56 35.9041C31.7067 35.9104 31.8534 35.8901 31.993 35.8444C32.1367 35.7908 32.2685 35.7096 32.3812 35.6055C32.4967 35.4961 32.5882 35.3639 32.6499 35.2173C32.7238 35.0427 32.7594 34.8544 32.7545 34.6649V32.4999C32.7569 32.3155 32.7213 32.1325 32.6499 31.9624C32.5882 31.8158 32.4967 31.6836 32.3812 31.5742C32.2685 31.4701 32.1367 31.389 31.993 31.3353C31.7189 31.2308 31.416 31.2308 31.1419 31.3353C30.9982 31.389 30.8664 31.4701 30.7537 31.5742C30.6383 31.6836 30.5467 31.8158 30.485 31.9624C30.4136 32.1325 30.378 32.3155 30.3805 32.4999V34.65C30.3755 34.8394 30.4111 35.0278 30.485 35.2024C30.5467 35.349 30.6383 35.4812 30.7537 35.5906C30.8664 35.6947 30.9982 35.7759 31.1419 35.8295ZM31.2518 32.18C31.33 32.0931 31.4432 32.0461 31.56 32.052V32.0669C31.6694 32.0613 31.7766 32.0988 31.8586 32.1714C31.9428 32.2593 31.9862 32.3785 31.9781 32.4999V34.6649C31.9881 34.7866 31.9445 34.9066 31.8586 34.9934C31.691 35.1367 31.4439 35.1367 31.2763 34.9934C31.1904 34.9066 31.1468 34.7866 31.1569 34.6649V32.4999C31.1387 32.3844 31.1736 32.2669 31.2518 32.18Z" fill="#005CA4"/>
<path fill-rule="evenodd" clip-rule="evenodd" d="M28.6186 35.8743H27.7079C27.6749 35.8743 27.6481 35.8475 27.6481 35.8146V31.3652C27.6481 31.3322 27.6749 31.3055 27.7079 31.3055H28.6784C28.8727 31.3006 29.0659 31.3362 29.2457 31.41C29.3944 31.4749 29.5269 31.5718 29.6339 31.6937C29.8102 31.9103 29.9145 32.1765 29.9325 32.4551C29.9624 32.8732 29.8728 33.2913 29.5294 33.5451H29.5145C29.6433 33.6238 29.7469 33.7378 29.8131 33.8736C29.9349 34.1555 29.9713 34.467 29.9176 34.7694C29.8936 35.0377 29.7896 35.2926 29.619 35.501C29.41 35.7399 29.0666 35.8743 28.6186 35.8743ZM28.4245 33.9631V35.0232C28.4245 35.048 28.4446 35.068 28.4693 35.068H28.6634C28.7663 35.0718 28.8686 35.0513 28.962 35.0083C29.2756 34.8441 29.2905 34.2767 29.0516 34.0378L29.0068 33.993C28.8843 33.9072 28.7216 33.912 28.5681 33.9164C28.5346 33.9174 28.5015 33.9184 28.4693 33.9184C28.4446 33.9184 28.4245 33.9384 28.4245 33.9631ZM28.4377 33.1886C28.4293 33.1802 28.4245 33.1688 28.4245 33.1569L28.4096 32.1117C28.4096 32.087 28.4297 32.0669 28.4544 32.0669H28.6485C28.8081 32.0474 28.9678 32.1025 29.0815 32.2162C29.2453 32.4694 29.2511 32.7936 29.0964 33.0524C29.0218 33.1569 28.8874 33.2017 28.6784 33.2017H28.4693C28.4574 33.2017 28.4461 33.197 28.4377 33.1886Z" fill="#005CA4"/>
<path d="M27.1405 35.8743H25.1547C25.1217 35.8743 25.095 35.8475 25.095 35.8146V31.3652C25.095 31.3322 25.1217 31.3055 25.1547 31.3055H27.1554C27.1713 31.3055 27.1864 31.3118 27.1976 31.323C27.2088 31.3342 27.2151 31.3493 27.2151 31.3652V32.0072C27.2151 32.0231 27.2088 32.0382 27.1976 32.0494C27.1864 32.0606 27.1713 32.0669 27.1554 32.0669H25.9162C25.8914 32.0669 25.8714 32.087 25.8714 32.1117V33.1419C25.8714 33.1667 25.8914 33.1867 25.9162 33.1867H26.9762C26.9921 33.1867 27.0073 33.193 27.0185 33.2042C27.0297 33.2154 27.036 33.2306 27.036 33.2465V33.8885C27.036 33.9215 27.0092 33.9482 26.9762 33.9482H25.9162C25.8914 33.9482 25.8714 33.9683 25.8714 33.993V35.0232C25.8714 35.048 25.8914 35.068 25.9162 35.068H27.1554C27.1884 35.068 27.2151 35.0948 27.2151 35.1277V35.7996C27.2217 35.8208 27.2159 35.8438 27.2003 35.8594C27.1846 35.8751 27.1616 35.8808 27.1405 35.8743Z" fill="#005CA4"/>
<path d="M24.438 35.8743H23.7811C23.7481 35.8743 23.7213 35.8475 23.7213 35.8146V33.6048C23.7159 33.5903 23.7034 33.5796 23.6882 33.5766C23.673 33.5735 23.6573 33.5786 23.6467 33.5899L23.139 35.1725L23.0942 35.2024H22.7359L22.6911 35.1725L22.1984 33.5899C22.1878 33.5786 22.1721 33.5735 22.1569 33.5766C22.1417 33.5796 22.1292 33.5903 22.1238 33.6048V35.7996C22.1238 35.8326 22.097 35.8594 22.064 35.8594H21.4071C21.3741 35.8594 21.3474 35.8326 21.3474 35.7996V31.3652C21.3474 31.3322 21.3741 31.3055 21.4071 31.3055H22.0342C22.0621 31.3046 22.0869 31.3232 22.0939 31.3503L22.8852 33.4854C22.8935 33.4979 22.9075 33.5054 22.9225 33.5054C22.9376 33.5054 22.9516 33.4979 22.9599 33.4854L23.7363 31.3353C23.7432 31.3083 23.7681 31.2897 23.796 31.2905H24.438C24.471 31.2905 24.4977 31.3173 24.4977 31.3503V35.7847C24.5094 35.8045 24.5088 35.8292 24.4961 35.8483C24.4833 35.8674 24.4608 35.8775 24.438 35.8743Z" fill="#005CA4"/>
<path d="M20.6904 35.8743H20.0783C20.0503 35.8752 20.0255 35.8566 20.0185 35.8295L19.1525 33.5749C19.142 33.5636 19.1263 33.5586 19.1111 33.5616C19.0959 33.5647 19.0833 33.5754 19.0779 33.5899V35.7996C19.0779 35.8326 19.0512 35.8593 19.0182 35.8593H18.3463C18.3133 35.8593 18.2866 35.8326 18.2866 35.7996V31.3652C18.2866 31.3322 18.3133 31.3055 18.3463 31.3055H18.9734C19.0013 31.3046 19.0261 31.3232 19.0331 31.3503L19.8842 33.6048C19.8947 33.6161 19.9104 33.6211 19.9256 33.6181C19.9408 33.6151 19.9534 33.6044 19.9588 33.5899V31.3652C19.9588 31.3493 19.9651 31.3342 19.9763 31.323C19.9875 31.3118 20.0027 31.3055 20.0185 31.3055H20.6755C20.6913 31.3055 20.7065 31.3118 20.7177 31.323C20.7289 31.3342 20.7352 31.3493 20.7352 31.3652V35.7996C20.7397 35.8155 20.7374 35.8325 20.729 35.8466C20.7205 35.8608 20.7065 35.8708 20.6904 35.8743Z" fill="#005CA4"/>
<path fill-rule="evenodd" clip-rule="evenodd" d="M16.2112 35.8295C16.3451 35.8788 16.4866 35.9041 16.6293 35.9041C16.776 35.9104 16.9227 35.8901 17.0623 35.8444C17.206 35.7908 17.3378 35.7096 17.4505 35.6055C17.5659 35.4961 17.6574 35.3639 17.7192 35.2173C17.7931 35.0427 17.8287 34.8544 17.8237 34.6649V32.4999C17.8261 32.3155 17.7906 32.1325 17.7192 31.9624C17.6574 31.8158 17.5659 31.6836 17.4505 31.5742C17.3378 31.4701 17.206 31.389 17.0623 31.3353C16.7882 31.2308 16.4853 31.2308 16.2112 31.3353C16.0675 31.389 15.9356 31.4701 15.823 31.5742C15.7075 31.6836 15.616 31.8158 15.5543 31.9624C15.4829 32.1325 15.4473 32.3155 15.4497 32.4999V34.65C15.4448 34.8394 15.4804 35.0278 15.5543 35.2024C15.616 35.349 15.7075 35.4812 15.823 35.5906C15.9356 35.6947 16.0675 35.7759 16.2112 35.8295ZM16.3211 32.18C16.3993 32.0931 16.5125 32.0461 16.6293 32.052V32.0669C16.7387 32.0613 16.8459 32.0988 16.9279 32.1714C17.0121 32.2593 17.0554 32.3785 17.0473 32.4999V34.6649C17.0574 34.7866 17.0138 34.9066 16.9279 34.9934C16.7603 35.1367 16.5132 35.1367 16.3456 34.9934C16.2597 34.9066 16.2161 34.7866 16.2261 34.6649V32.4999C16.208 32.3844 16.2429 32.2669 16.3211 32.18Z" fill="#005CA4"/>
<path d="M13.8522 35.9041C13.7157 35.9024 13.5801 35.8823 13.449 35.8444C13.3121 35.8073 13.1848 35.7411 13.0758 35.6503C12.9599 35.5471 12.8682 35.4196 12.807 35.2771C12.7303 35.0928 12.6946 34.8941 12.7025 34.6948V32.4402C12.7035 32.2817 12.7339 32.1248 12.7921 31.9774C12.896 31.6948 13.1122 31.4678 13.3893 31.3503C13.6816 31.2331 14.0078 31.2331 14.3001 31.3503C14.4355 31.4097 14.5574 31.496 14.6584 31.6041C14.7628 31.7165 14.844 31.8484 14.8973 31.9923C14.9574 32.1496 14.9878 32.3166 14.9869 32.485V32.7538C14.9869 32.7696 14.9806 32.7848 14.9694 32.796C14.9582 32.8072 14.943 32.8135 14.9272 32.8135H14.2553C14.2223 32.8135 14.1956 32.7867 14.1956 32.7538V32.5298C14.1989 32.4116 14.162 32.2958 14.091 32.2013C14.0302 32.1137 13.9289 32.0631 13.8223 32.0669C13.7099 32.0544 13.6001 32.1064 13.5386 32.2013C13.4831 32.3229 13.4575 32.456 13.464 32.5895V34.6649C13.4576 34.7792 13.4835 34.893 13.5386 34.9934C13.6038 35.0826 13.7129 35.1286 13.8223 35.1128H13.9567L14.0761 35.0382C14.1162 35.0011 14.1469 34.9551 14.1657 34.9038C14.1902 34.8318 14.2003 34.7557 14.1956 34.6798V34.4559C14.1956 34.4229 14.2223 34.3961 14.2553 34.3961H14.9122C14.9452 34.3961 14.972 34.4229 14.972 34.4559V34.7395C14.9701 35.0449 14.8527 35.3383 14.6435 35.5607C14.5407 35.6668 14.4193 35.7528 14.2851 35.8146C14.149 35.8754 14.0013 35.906 13.8522 35.9041Z" fill="#005CA4"/>
<rect x="10" y="33.1868" width="1.47815" height="0.804768" rx="0.0149308" fill="#005CA4"/>
<path d="M23.7214 14.7323C22.8114 14.7312 21.9044 14.8364 21.0189 15.0459C20.1615 15.248 19.3336 15.5591 18.5553 15.9716C18.4403 16.0302 18.362 16.1421 18.3463 16.2702C18.3164 16.524 18.2866 16.7629 18.2716 17.0018C18.2567 17.2407 18.2418 17.4945 18.2418 17.7334C18.2407 19.5989 18.7298 21.4319 19.6602 23.0488C20.5843 24.6573 21.9187 25.9917 23.5273 26.9158C23.6427 26.9825 23.785 26.9825 23.9005 26.9158C25.5145 25.9938 26.8543 24.6592 27.7825 23.0488C28.7129 21.4319 29.202 19.5989 29.2009 17.7334C29.2009 17.4945 29.186 17.2556 29.1711 17.0018C29.1561 16.748 29.1263 16.5091 29.0964 16.2702C29.0807 16.1421 29.0024 16.0302 28.8874 15.9716C28.109 15.5593 27.2811 15.2482 26.4238 15.0459C25.5383 14.8365 24.6313 14.7313 23.7214 14.7323Z" fill="url(#paint0_linear_920_2729)"/>
<path fill-rule="evenodd" clip-rule="evenodd" d="M25.7221 13.9261L25.0801 12.2538C24.1751 12.108 23.2527 12.108 22.3478 12.2538L21.7057 13.941C23.0367 13.7368 24.3911 13.7368 25.7221 13.941V13.9261ZM20.3022 14.2396L20.6307 12.7167C19.4222 13.1846 18.335 13.9196 17.4505 14.8667L19.0033 14.6726C19.4274 14.5031 19.8612 14.3585 20.3022 14.2396ZM30.0841 16.7905L30.0819 16.748L30.0968 16.7629C30.0894 16.6957 30.0819 16.6323 30.0744 16.5688L30.0744 16.5688L30.0744 16.5688C30.067 16.5053 30.0595 16.4419 30.052 16.3747L31.0822 16.3299C31.5454 17.103 31.883 17.9446 32.0826 18.8234L29.7086 20.615C29.9741 19.6214 30.1096 18.5976 30.1117 17.5692C30.1117 17.3139 30.0983 17.0586 30.0841 16.7906L30.0841 16.7905ZM16.047 24.5568L17.1518 22.0484C17.2073 21.9203 17.1554 21.7711 17.0324 21.705L15.1213 20.7196C15.1167 22.051 15.4235 23.365 16.0171 24.5568H16.047ZM29.9624 14.8667L28.4096 14.6726H28.4246C28.0004 14.503 27.5667 14.3584 27.1256 14.2396L26.8121 12.7167C28.0099 13.1885 29.0865 13.9233 29.9624 14.8667ZM17.3437 16.7905L17.3437 16.7906C17.3296 17.0586 17.3161 17.3139 17.3161 17.5692C17.317 18.6026 17.4525 19.6315 17.7192 20.63L15.3452 18.8383C15.5433 17.9543 15.881 17.1076 16.3456 16.3299L17.3907 16.3747C17.3859 16.4132 17.3811 16.4362 17.3763 16.4592C17.3662 16.5075 17.3561 16.5558 17.3459 16.748L17.3437 16.7905ZM32.3066 20.7046L30.3954 21.705C30.2725 21.7711 30.2206 21.9203 30.276 22.0484L31.3809 24.5568H31.4107C32.0044 23.365 32.3111 22.051 32.3066 20.7196V20.7046ZM18.4508 22.6307C18.5852 22.9144 18.7196 23.1981 18.8838 23.4818C19.6648 24.8405 20.7108 26.0286 21.9596 26.9755L19.9738 28.4686C18.8326 27.9134 17.8282 27.113 17.0324 26.1245L18.4508 22.6307ZM23.4377 28.0207L21.9596 29.1405C23.1168 29.3804 24.311 29.3804 25.4683 29.1405L23.9901 28.0207C23.8309 27.9013 23.6119 27.9013 23.4526 28.0207H23.4377ZM25.4534 26.9755C26.7019 26.0283 27.7477 24.8403 28.5291 23.4818H28.544C28.7083 23.213 28.8426 22.9293 28.9471 22.6456L30.3656 26.1394C29.5697 27.1279 28.5653 27.9284 27.4242 28.4836L25.4534 26.9755Z" fill="url(#paint1_linear_920_2729)"/>
<path fill-rule="evenodd" clip-rule="evenodd" d="M20.5859 16.6584V16.6882L20.7203 16.7928H20.78C21.2477 16.4231 21.7655 16.1214 22.3178 15.8969C22.3367 15.8903 22.3488 15.872 22.3477 15.8521C22.3488 15.8322 22.3367 15.814 22.3178 15.8073L22.0939 15.7327H22.0342C21.5198 15.9683 21.038 16.2694 20.6008 16.6285L20.5859 16.6584ZM20.4963 17.6438H20.4515L20.4216 17.614L20.3918 17.4199C20.3879 17.3987 20.3934 17.377 20.4067 17.3601C21.1148 16.6659 21.9806 16.1536 22.93 15.8671C22.9558 15.858 22.9844 15.8637 23.0047 15.882L23.1092 16.0014C23.1223 16.0123 23.128 16.0297 23.1241 16.0462L23.0942 16.0761C22.1058 16.3618 21.2098 16.9025 20.4963 17.6438ZM21.855 17.0764C22.432 16.7194 23.0697 16.4714 23.7363 16.3448L23.7661 16.315C23.7701 16.2984 23.7643 16.2811 23.7512 16.2702L23.6019 16.1358H23.5422C22.8978 16.2743 22.2818 16.5217 21.7206 16.8674C21.1929 17.1893 20.7234 17.5982 20.3321 18.0768C20.3187 18.0936 20.3133 18.1154 20.3171 18.1365L20.347 18.3456L20.3768 18.3754H20.4216C20.8128 17.8514 21.299 17.4057 21.855 17.0615V17.0764ZM23.4974 16.8226C23.1251 16.9164 22.7645 17.0516 22.4224 17.2258C21.7836 17.5622 21.2277 18.0365 20.7949 18.6143H20.7352L20.5859 18.5546L20.556 18.5247C20.548 18.5109 20.548 18.4938 20.556 18.4799C21.0194 17.8618 21.6166 17.3564 22.3029 17.0018C22.6636 16.8152 23.0443 16.6699 23.4377 16.5688C23.7946 16.4781 24.1597 16.423 24.5276 16.4046C24.5562 16.3991 24.5853 16.4108 24.6023 16.4344L24.6918 16.5837C24.6998 16.5976 24.6998 16.6147 24.6918 16.6285L24.647 16.6584C24.259 16.6709 23.8734 16.7259 23.4974 16.8226ZM24.7665 17.0615H24.7217C23.2683 17.0825 21.911 17.7916 21.0637 18.9727H21.0189L20.989 18.9428L20.9144 18.7935C20.9053 18.7677 20.911 18.7391 20.9293 18.7188C21.3579 18.1544 21.9094 17.6949 22.5418 17.3751C23.1915 17.0468 23.9047 16.8634 24.6321 16.8376C24.664 16.8349 24.6941 16.853 24.7068 16.8823L24.7665 17.0167C24.7745 17.0306 24.7745 17.0477 24.7665 17.0615ZM27.0957 17.823C26.4022 17.4193 25.6137 17.208 24.8113 17.2108H24.7516C24.0053 17.2166 23.2719 17.4064 22.6165 17.7633C22.0302 18.0838 21.5286 18.5393 21.1532 19.0921C21.1399 19.1152 21.1399 19.1437 21.1532 19.1668L21.2578 19.2862H21.3324C21.6865 18.7446 22.1685 18.2984 22.7359 17.9872C23.3502 17.6523 24.0371 17.4729 24.7366 17.4646H24.7964C25.5686 17.4609 26.3273 17.6673 26.9912 18.0619H27.036L27.0658 18.032L27.1106 17.8678C27.1146 17.8512 27.1088 17.8339 27.0957 17.823ZM22.7508 18.1515C23.3559 17.8055 24.0396 17.6204 24.7366 17.614H24.7964H24.8113C25.583 17.61 26.3395 17.8277 26.9912 18.241V18.2709C26.9951 18.2875 26.9893 18.3048 26.9762 18.3157L26.8568 18.4202H26.7971C26.1905 18.0502 25.4919 17.8587 24.7814 17.8678H24.7366C24.0813 17.8742 23.4386 18.049 22.8703 18.3754C22.3473 18.6719 21.91 19.0989 21.6012 19.6147H21.5265L21.4369 19.4952C21.4195 19.4734 21.4195 19.4424 21.4369 19.4206C21.7635 18.8956 22.2149 18.4597 22.7508 18.1515ZM26.8419 18.6591C26.2411 18.2422 25.5276 18.0183 24.7964 18.0171H24.7516C24.1266 18.0242 23.5142 18.194 22.9748 18.5098C22.4779 18.8017 22.066 19.2187 21.7803 19.7192C21.7723 19.7331 21.7723 19.7501 21.7803 19.764L21.8251 19.7938H21.9894L22.0491 19.764C22.313 19.3391 22.677 18.9854 23.1092 18.7338C23.6074 18.4401 24.1733 18.2806 24.7516 18.2709H24.7964C25.5238 18.2676 26.232 18.5037 26.812 18.9428H26.8568C26.8756 18.9362 26.8878 18.9179 26.8867 18.898V18.7188C26.8835 18.6924 26.8664 18.6696 26.8419 18.6591ZM24.7814 18.4202C25.5405 18.4159 26.2744 18.6924 26.8419 19.1966H26.8568C26.8651 19.2157 26.8651 19.2373 26.8568 19.2563V19.4803C26.8579 19.5002 26.8458 19.5185 26.8269 19.5251H26.7821C26.2471 18.9928 25.5212 18.6971 24.7665 18.7039H24.7217C24.2348 18.7096 23.7573 18.838 23.3331 19.0772C22.9427 19.295 22.6139 19.6084 22.3776 19.9879H22.3178L22.1835 19.9133V19.8536C22.1801 19.8439 22.1801 19.8334 22.1835 19.8237C22.4416 19.4072 22.8012 19.063 23.2286 18.8233C23.6895 18.5646 24.2081 18.426 24.7366 18.4202H24.7814ZM26.7374 19.7491C26.7526 19.7321 26.7526 19.7063 26.7374 19.6893C26.4991 19.4286 26.2093 19.2202 25.8863 19.0772C25.5393 18.9197 25.1625 18.8382 24.7814 18.8383H24.7516C24.2171 18.8438 23.6968 19.0103 23.2585 19.3161C23.0526 19.4663 22.8713 19.6477 22.721 19.8536C22.6364 19.9612 22.5614 20.0761 22.497 20.197C22.4851 20.2145 22.4799 20.2357 22.4821 20.2567L22.5418 20.5105L22.5717 20.5404L22.6165 20.5105C22.7787 20.1077 23.06 19.7639 23.4227 19.5251C23.8168 19.2487 24.2852 19.0978 24.7665 19.0921H24.7964C25.1409 19.0893 25.4821 19.1606 25.7967 19.3011C26.0942 19.4374 26.359 19.636 26.5731 19.8834H26.6328L26.7374 19.7491ZM25.7669 17.1511C26.2042 17.2396 26.6266 17.3904 27.021 17.599H27.0658C27.0789 17.5881 27.0847 17.5708 27.0808 17.5542L27.036 17.3601C27.0284 17.3393 27.012 17.3229 26.9912 17.3153C26.6716 17.1602 26.3362 17.04 25.9908 16.957H25.9311L25.7519 17.0764C25.7388 17.0873 25.7331 17.1047 25.737 17.1212L25.7669 17.1511ZM20.5262 16.4792H20.4814L20.4515 16.4643L20.4216 16.3001C20.4162 16.2715 20.4279 16.2423 20.4515 16.2254L20.9591 15.8671H21.0189L21.213 15.9268L21.2428 15.9566C21.2468 15.9732 21.241 15.9906 21.2279 16.0014C20.9841 16.1457 20.7498 16.3053 20.5262 16.4792ZM24.9905 20.9584C24.9304 20.9121 24.8572 20.8859 24.7814 20.8838C24.6917 20.8797 24.6043 20.9125 24.5394 20.9746C24.4746 21.0366 24.4379 21.1225 24.438 21.2123C24.4452 21.297 24.4822 21.3763 24.5425 21.4362L25.0651 21.914H25.1248L25.2741 21.8244V21.7946C25.2781 21.778 25.2723 21.7607 25.2592 21.7498C25.0502 21.5706 24.7068 21.2571 24.7068 21.2571L24.6769 21.1973C24.6843 21.1538 24.7223 21.1221 24.7665 21.1227H24.8262L25.304 21.5407H25.3488L25.3787 21.5109L25.4384 21.3466C25.4423 21.3301 25.4365 21.3127 25.4234 21.3019L24.9905 20.9584ZM24.7814 20.4657C24.9797 20.4695 25.1702 20.5435 25.3189 20.6748L25.7519 21.0779C25.7606 21.0856 25.7659 21.0962 25.7669 21.1078V21.1376L25.6325 21.2421H25.5728L25.1547 20.8689C25.0527 20.7752 24.9199 20.7221 24.7814 20.7196H24.7516C24.6128 20.7207 24.4795 20.774 24.3783 20.8689C24.2824 20.9572 24.2282 21.0819 24.229 21.2123C24.2311 21.3159 24.2679 21.4158 24.3335 21.496C24.5573 21.7591 24.825 21.9813 25.1248 22.1529V22.1828L25.1846 22.4067C25.1885 22.4233 25.1827 22.4406 25.1696 22.4515H25.1248C24.7467 22.2499 24.4119 21.976 24.1394 21.6453C24.0372 21.5237 23.9793 21.371 23.9752 21.2123C23.9746 21.0146 24.0556 20.8256 24.1991 20.6897C24.3479 20.5472 24.5456 20.4671 24.7516 20.4657H24.7814ZM25.6026 20.3612C25.5308 20.2959 25.4504 20.2407 25.3637 20.197C25.1827 20.1075 24.9833 20.0615 24.7814 20.0626H24.7665C24.4447 20.0632 24.1352 20.1859 23.9005 20.406C23.676 20.6195 23.5514 20.9174 23.5571 21.2272C23.5624 21.4665 23.6464 21.6973 23.796 21.8842C24.032 22.1854 24.3142 22.4475 24.6321 22.6606H24.6769L24.8561 22.5859L24.8859 22.556C24.8899 22.5395 24.8841 22.5221 24.871 22.5112C24.5399 22.304 24.247 22.0414 24.005 21.7348C23.891 21.59 23.828 21.4115 23.8259 21.2272C23.8237 20.9823 23.927 20.7484 24.1095 20.5852C24.2967 20.4127 24.5418 20.3168 24.7964 20.3164H24.8113C24.9715 20.3153 25.1299 20.3511 25.2741 20.4209L25.4533 20.5553L25.9012 20.9734H25.946C25.9603 20.969 25.9715 20.9578 25.9759 20.9435V20.7196C25.9797 20.6984 25.9743 20.6767 25.961 20.6598L25.6026 20.3612ZM24.7516 19.6595H24.7814C25.2355 19.6636 25.6698 19.8459 25.9908 20.1671C26.0065 20.1827 26.0122 20.2057 26.0057 20.2268L25.9162 20.3612H25.8415C25.5642 20.0734 25.1811 19.9115 24.7814 19.9133H24.7516C24.3861 19.9151 24.0346 20.0536 23.7661 20.3015C23.5064 20.5389 23.3599 20.8754 23.363 21.2272C23.3662 21.4921 23.4553 21.7488 23.6168 21.9588C23.8506 22.2569 24.1273 22.5185 24.438 22.7352C24.4511 22.7461 24.4569 22.7634 24.4529 22.78L24.4082 22.9442L24.3783 22.9741H24.3335C23.9867 22.7346 23.6794 22.4425 23.4227 22.1081C23.2256 21.8561 23.1156 21.547 23.1092 21.2272C23.1063 20.8082 23.2797 20.4073 23.587 20.1223C23.903 19.8268 24.3189 19.6615 24.7516 19.6595ZM24.7814 19.2563H24.7516C24.2008 19.2602 23.6722 19.4737 23.2734 19.8536C22.8851 20.2161 22.6682 20.7259 22.6762 21.2571C22.6794 21.6628 22.8158 22.0562 23.0644 22.3769C23.4261 22.8313 23.8723 23.2115 24.3783 23.4967H24.438L24.5575 23.3772C24.5705 23.3663 24.5763 23.349 24.5724 23.3324V23.3026C24.0789 23.0177 23.6474 22.637 23.3033 22.1828C23.0858 21.9055 22.9652 21.5646 22.9599 21.2123C22.9558 20.7535 23.1456 20.3143 23.4824 20.0029C23.8337 19.6706 24.2979 19.4839 24.7814 19.4803C25.2675 19.479 25.7364 19.6602 26.0953 19.9879H26.1551L26.3044 19.8984V19.8685C26.3083 19.8519 26.3025 19.8346 26.2894 19.8237C25.88 19.4435 25.3401 19.2351 24.7814 19.2414V19.2563ZM24.2738 23.8998H24.2141C23.6732 23.5966 23.1924 23.1968 22.7956 22.7203C22.7823 22.7034 22.7769 22.6817 22.7807 22.6606L22.8255 22.4665L22.8554 22.4366H22.9001C23.2874 22.952 23.775 23.3837 24.3335 23.7057C24.3535 23.7185 24.3601 23.7447 24.3484 23.7654L24.2738 23.8998ZM24.4828 24.497H24.4977V24.2731C24.4989 24.2532 24.4867 24.2349 24.4679 24.2283C23.9357 23.9676 23.4512 23.6194 23.0345 23.1981H22.9897C22.9709 23.2047 22.9587 23.2229 22.9599 23.2429V23.4668C22.9599 23.4903 22.9709 23.5124 22.9897 23.5265C23.422 23.9307 23.9159 24.2633 24.4529 24.512L24.4828 24.497ZM23.363 24.1088L23.3929 24.079L23.4377 24.0939C23.706 24.2919 23.9907 24.4667 24.2887 24.6165C24.3075 24.6231 24.3197 24.6414 24.3186 24.6613V24.8703H24.2738C23.9559 24.7223 23.6512 24.5475 23.363 24.3477C23.3394 24.3308 23.3277 24.3017 23.3331 24.2731L23.363 24.1088ZM24.7516 25.4974C24.7596 25.4835 24.7596 25.4665 24.7516 25.4526L24.6172 25.2286H24.5873C24.1681 25.0624 23.7677 24.8522 23.3929 24.6016H23.3481C23.335 24.6124 23.3292 24.6298 23.3331 24.6463V24.8404C23.3331 24.8639 23.3442 24.8861 23.363 24.9002C23.7807 25.1629 24.2264 25.3782 24.6918 25.5422L24.7217 25.4974H24.7516ZM23.6616 25.2286H23.7064L23.6915 25.2436C24.102 25.4502 24.5322 25.6152 24.9755 25.7363C24.988 25.7446 24.9956 25.7586 24.9956 25.7736C24.9956 25.7886 24.988 25.8026 24.9755 25.8109L24.7665 25.9155H24.7068C24.3844 25.8085 24.0701 25.6787 23.7661 25.5273L23.7213 25.4825L23.6467 25.2734C23.6427 25.2569 23.6485 25.2395 23.6616 25.2286Z" fill="white"/>
<path fill-rule="evenodd" clip-rule="evenodd" d="M27.3932 22.6854C27.437 22.6446 27.4594 22.5858 27.4541 22.5262C27.4614 22.4711 27.4403 22.4161 27.3981 22.3799C27.356 22.3438 27.2984 22.3314 27.245 22.347L27.1405 22.3769C27.1856 22.286 27.278 22.2283 27.3794 22.2276C27.3827 22.1856 27.3722 22.1436 27.3496 22.1081C27.1528 22.131 27.0048 22.2983 27.0062 22.4963C26.9968 22.5594 27.0168 22.6233 27.0604 22.6699C27.1041 22.7164 27.1665 22.7405 27.2301 22.7352C27.2892 22.7447 27.3494 22.7263 27.3932 22.6854ZM27.3078 22.4673C27.3252 22.4818 27.3351 22.5035 27.3346 22.5262V22.5411C27.3319 22.5647 27.3181 22.5857 27.2975 22.5974C27.2769 22.6092 27.2518 22.6105 27.2301 22.6008C27.1853 22.6008 27.1405 22.556 27.1405 22.4814L27.245 22.4515C27.2673 22.447 27.2904 22.4528 27.3078 22.4673Z" fill="white"/>
<path d="M26.9166 22.138V22.7203H26.7822V22.2873L26.6777 22.3321C26.6486 22.2991 26.6326 22.2566 26.6329 22.2126L26.812 22.138H26.9166Z" fill="white"/>
<path fill-rule="evenodd" clip-rule="evenodd" d="M26.2298 22.7352C26.4537 22.7352 26.5881 22.6456 26.5881 22.4067C26.5881 22.2425 26.5134 22.123 26.3641 22.123C26.2487 22.123 26.1551 22.2166 26.1551 22.3321C26.1505 22.3848 26.1694 22.4369 26.2069 22.4744C26.2443 22.5118 26.2964 22.5308 26.3492 22.5262C26.3886 22.5256 26.4261 22.5095 26.4537 22.4814C26.4388 22.6008 26.3492 22.6158 26.2148 22.6158C26.2131 22.6306 26.2131 22.6457 26.2148 22.6606C26.2133 22.6863 26.2184 22.712 26.2298 22.7352ZM26.4686 22.3769L26.3641 22.4067V22.4217C26.3355 22.4309 26.3042 22.422 26.2846 22.3992C26.265 22.3763 26.2611 22.344 26.2745 22.3171C26.2687 22.292 26.2763 22.2657 26.2945 22.2475C26.3127 22.2293 26.339 22.2217 26.3641 22.2276C26.4239 22.2276 26.4686 22.2873 26.4686 22.3769Z" fill="white"/>
<path d="M26.0655 22.138V22.7203H25.9311V22.2873L25.8266 22.3321C25.7975 22.2991 25.7816 22.2566 25.7818 22.2126L25.961 22.138H26.0655Z" fill="white"/>
<defs>
<linearGradient id="paint0_linear_920_2729" x1="21.3843" y1="10.9725" x2="14.3204" y2="20.7911" gradientUnits="userSpaceOnUse">
<stop stop-color="#8CBAE4"/>
<stop offset="0.11" stop-color="#6DACDF"/>
<stop offset="0.54" stop-color="#005CA4"/>
<stop offset="1" stop-color="#005CA4"/>
</linearGradient>
<linearGradient id="paint1_linear_920_2729" x1="20.5624" y1="9.00426" x2="11.9813" y2="23.8824" gradientUnits="userSpaceOnUse">
<stop offset="0.05" stop-color="#8CBAE4"/>
<stop offset="0.54" stop-color="#005CA4"/>
<stop offset="1" stop-color="#005CA4"/>
</linearGradient>
</defs>
</svg>
