<svg width="48" height="48" viewBox="0 0 48 48" fill="none" xmlns="http://www.w3.org/2000/svg">
<rect x="1" y="1" width="46" height="46" rx="23" fill="white" stroke="#F8F8F8" stroke-width="2"/>
<path fill-rule="evenodd" clip-rule="evenodd" d="M15.2909 33.6468L15.2449 33.6009L14.8581 33.2146L14.8121 33.1456L14.743 33.2146C14.605 33.3526 14.4645 33.4445 14.3218 33.518C14.1837 33.587 14.0203 33.6331 13.8246 33.6331C13.5115 33.6246 13.2745 33.5181 13.0834 33.3043C12.8993 33.0973 12.7864 32.8352 12.7795 32.5133C12.7795 32.5124 12.7795 32.5115 12.7796 32.5106C12.7796 32.5088 12.7797 32.507 12.7795 32.505C12.7797 32.5031 12.7796 32.5013 12.7796 32.4994C12.7795 32.4985 12.7795 32.4975 12.7795 32.4965C12.7869 32.1769 12.8946 31.9125 13.0742 31.7056C13.2584 31.4986 13.5115 31.3929 13.8246 31.386C14.0087 31.3879 14.1629 31.432 14.3057 31.501C14.4437 31.57 14.5888 31.6619 14.7177 31.7884L14.7868 31.8573L14.8558 31.7884L15.2425 31.3423L15.2886 31.2734L15.2425 31.2273C15.0814 31.0663 14.888 30.9307 14.6693 30.8318C14.4391 30.7398 14.1768 30.6709 13.8591 30.6709H13.8506L13.8276 30.6755C13.2867 30.6888 12.8469 30.8824 12.5132 31.2227C12.1817 31.5676 12.0069 31.9976 12 32.5103V32.5189V32.5271C12.0104 33.0422 12.184 33.4836 12.5132 33.8239C12.8469 34.1665 13.2798 34.3413 13.8022 34.3551H13.8108C14.133 34.3532 14.407 34.2861 14.6372 34.1711C14.8674 34.0561 15.0653 33.909 15.2449 33.7159L15.2909 33.6468ZM33.9364 30.7619L35.428 34.1803L35.4741 34.2953H35.3589H34.7351H34.6661L34.6493 34.2493L34.3202 33.4744H32.8285L32.4925 34.2493L32.4754 34.2953H32.4295H31.8148H31.6997L31.7458 34.1803L33.2465 30.7619L33.2633 30.7159H33.2643H33.3103H33.8673H33.9134L33.9364 30.7619ZM33.5834 31.7185L33.1276 32.7784H34.046L33.5834 31.7185ZM30.636 32.9554C30.8432 32.8865 31.025 32.7946 31.1585 32.6359C31.3196 32.4519 31.4071 32.2035 31.4117 31.9116V31.9034V31.8948C31.4111 31.7339 31.3886 31.5913 31.3196 31.4579C31.2735 31.32 31.1815 31.2119 31.0894 31.113V31.1045C30.9743 30.9895 30.8248 30.8976 30.6521 30.8447C30.468 30.7757 30.2746 30.7527 30.0537 30.7527H28.5459H28.4538L28.4423 30.733V30.8249V34.2178V34.3098H28.5345H29.1237H29.2158V34.2178V33.1141H29.8396L30.6498 34.2683L30.6729 34.2914H30.7188H31.4279H31.5889L31.4969 34.1764L30.636 32.9554ZM30.6176 31.9392C30.6155 32.1001 30.5715 32.2059 30.4564 32.2933C30.3413 32.3853 30.2056 32.4312 30.0007 32.4312H29.2089V31.4539L29.1997 31.4389H29.9846C30.1918 31.4401 30.3528 31.4848 30.4564 31.5768C30.5485 31.6457 30.6176 31.7608 30.6176 31.9309V31.9392ZM27.8658 30.7346H27.7737H27.1753H27.1062V30.8265V32.7809C27.1037 33.0821 27.0372 33.2984 26.8991 33.4386C26.761 33.5765 26.586 33.6454 26.3351 33.6454C26.0819 33.6442 25.8955 33.5535 25.762 33.4155C25.6239 33.2776 25.5548 33.0546 25.5548 32.7511V30.8219V30.73H25.4857H24.8873H24.7952L24.7907 30.7346V30.8265V32.7809C24.796 33.2868 24.9287 33.6892 25.2118 33.9605C25.4857 34.2273 25.8632 34.356 26.3236 34.356C26.7885 34.3558 27.1684 34.218 27.4446 33.9513C27.7232 33.6777 27.8612 33.2753 27.8658 32.7557V30.8265V30.7346ZM24.2544 30.7346H24.3464V30.8265V31.3831V31.4519H24.2544H23.26V34.2136V34.3057H23.1909H22.5832H22.4912V34.2136V31.4519H21.4969H21.4277V31.3831V30.8265V30.7346H21.4278H21.4291H21.4982H24.2544ZM22.0356 33.5896H21.9436H20.2402V30.8196V30.7277H20.1481H19.5589H19.4667L19.4746 30.7346V30.8265V34.2196V34.3117H19.5667H21.9436H22.0356V34.2196V33.6816V33.5896ZM18.6904 30.7346H18.7824V30.8265V32.7557C18.7778 33.2753 18.6396 33.6777 18.3611 33.9513C18.0849 34.218 17.7051 34.3558 17.2402 34.356C16.7798 34.356 16.4023 34.2273 16.1284 33.9605C15.8453 33.6892 15.7122 33.2868 15.7071 32.7809V30.8265V30.7346L15.7117 30.73H15.8038H16.4023H16.4713V30.8219V32.7511C16.4713 33.0546 16.5404 33.2776 16.6784 33.4155C16.812 33.5535 16.9985 33.6442 17.2517 33.6454C17.5026 33.6454 17.6774 33.5765 17.8155 33.4386C17.9536 33.2984 18.0203 33.0821 18.0228 32.7809V30.8265V30.7346H18.0918H18.6904Z" fill="#39409E"/>
<path fill-rule="evenodd" clip-rule="evenodd" d="M27.1717 20.48C27.114 20.4783 27.0557 20.4768 26.9979 20.4764C26.94 20.476 26.8827 20.477 26.8267 20.48C25.1468 20.573 23.8979 21.7232 24.0092 23.804V29.2485H26.8957V23.3799L32.9102 23.357V20.48H27.1717ZM20.5372 20.4787C20.4803 20.478 20.4229 20.4784 20.3651 20.48H14.6265V23.357L20.6411 23.3799V29.2485H23.5277V23.804C23.6427 21.6539 22.3015 20.5015 20.5372 20.4787ZM20.8747 19.8959H26.6367V14H20.8747V19.8959Z" fill="#27BA59"/>
</svg>
