<svg width="48" height="48" viewBox="0 0 48 48" fill="none" xmlns="http://www.w3.org/2000/svg">
<rect x="1" y="1" width="46" height="46" rx="23" fill="white" stroke="#F8F8F8" stroke-width="2"/>
<path fill-rule="evenodd" clip-rule="evenodd" d="M37.62 28.1629H39.9689V27.0946H37.62V28.1629Z" fill="black"/>
<path fill-rule="evenodd" clip-rule="evenodd" d="M37.5105 21.5921L38.0956 25.9237H39.4713L39.9396 21.68V20.0409H37.5396L37.5105 21.5921Z" fill="black"/>
<path fill-rule="evenodd" clip-rule="evenodd" d="M30.6908 28.1481C29.5421 26.8775 29.9811 24.5653 32.0079 23.9335C32.1223 23.8908 32.2354 23.8494 32.3464 23.8087C33.6375 23.3355 34.6482 22.9651 34.1445 21.9432C33.4986 21.4047 32.7254 21.7169 32.6153 22.792H30.3031C30.2986 20.8777 31.5083 19.9802 33.4347 20.0115C35.4229 19.8892 36.6718 20.7477 36.6543 22.3237L36.6542 28.1188H34.4481L34.4482 27.9212L34.2396 27.9248L33.9982 28.148L30.6908 28.1481ZM34.2762 25.8066V24.4603C32.4705 25.0486 31.9779 26.1315 32.6811 26.9773C33.5791 27.3383 34.2522 26.8505 34.2762 25.8066Z" fill="black"/>
<path fill-rule="evenodd" clip-rule="evenodd" d="M27.1716 22.9969V26.5383C27.1142 28.0495 28.1093 28.5861 29.718 28.0602V26.9773C29.1359 26.9978 28.8725 26.7929 28.8399 26.2748V23.0554H29.7472V21.7969H28.8399V20.0408H27.1716V21.7969H26.4399V22.9969H27.1716Z" fill="black"/>
<path fill-rule="evenodd" clip-rule="evenodd" d="M22.1374 20.2458L22.1082 28.2067H24.5374V24.0214C24.528 23.0404 25.1426 22.6209 26.3813 22.7628V20.0995C25.8021 19.9846 25.0313 20.4432 24.3325 21.475V20.2458H22.1374Z" fill="black"/>
<path fill-rule="evenodd" clip-rule="evenodd" d="M14.6741 20.0701V26.4797C14.6591 27.4182 14.6688 28.2182 15.1717 28.1773H21.2301V20.0993H18.7716V25.9236C18.8336 27.6602 17.019 27.7187 17.1619 26.07V20.0701H14.6741Z" fill="black"/>
<path fill-rule="evenodd" clip-rule="evenodd" d="M10.3424 22.6749C10.403 20.7801 12.1202 20.907 11.9814 23.0554H14.2058C14.2389 21.1306 13.6438 20.1452 12.7132 20.07H9.61072C8.53893 20.039 7.9731 21.522 8.00098 23.6407V25.3968C8.05555 27.1973 8.59211 28.1827 9.34734 28.1772H12.7132C13.7483 28.253 14.4117 27.0433 14.2058 25.1627H11.9814C12.0836 27.4003 10.4216 27.5895 10.3424 25.6016V22.6749Z" fill="black"/>
</svg>
