<svg width="48" height="48" viewBox="0 0 48 48" fill="none" xmlns="http://www.w3.org/2000/svg">
<rect x="1" y="1" width="46" height="46" rx="23" fill="white" stroke="#F8F8F8" stroke-width="2"/>
<path d="M12.332 32.2608C12.3324 32.5041 12.283 32.7448 12.1868 32.9683C12.0905 33.1917 11.9494 33.393 11.7723 33.5598C11.5952 33.7265 11.3857 33.8552 11.1569 33.9378C10.9281 34.0204 10.6848 34.0553 10.442 34.0401H9.36328C9.58168 33.8951 9.76363 33.7016 9.89495 33.4747H10.442C10.6059 33.4829 10.7698 33.4578 10.9237 33.4008C11.0776 33.3437 11.2183 33.256 11.3373 33.1429C11.4562 33.0298 11.551 32.8937 11.6157 32.7428C11.6804 32.592 11.7138 32.4295 11.7138 32.2654C11.7138 32.1012 11.6804 31.9388 11.6157 31.788C11.551 31.6371 11.4562 31.501 11.3373 31.3879C11.2183 31.2748 11.0776 31.1871 10.9237 31.13C10.7698 31.073 10.6059 31.0478 10.442 31.0561H9.74436V31.5785C9.63983 31.4515 9.51892 31.3388 9.3848 31.2436C9.30056 31.186 9.21103 31.1366 9.11743 31.096V30.4814H10.442C11.5545 30.4876 12.332 31.2559 12.332 32.2608ZM12.6885 34.0617H13.3031V31.3819H12.6885V34.0617ZM15.5834 32.7341C15.5 32.6742 15.4104 32.6237 15.316 32.5835C15.2157 32.5428 15.1131 32.5079 15.0087 32.479L14.7844 32.4021C14.718 32.3801 14.6533 32.3534 14.5907 32.3222C14.5403 32.2989 14.4945 32.2666 14.4555 32.227C14.4394 32.2103 14.4267 32.1905 14.4183 32.1689C14.4099 32.1473 14.4058 32.1242 14.4064 32.101C14.4058 32.0632 14.4145 32.0258 14.4317 31.992C14.4488 31.9583 14.4739 31.9293 14.5047 31.9074C14.5864 31.8532 14.6835 31.8273 14.7813 31.8336C14.9061 31.8355 15.0297 31.8584 15.147 31.9012C15.2835 31.9481 15.4144 32.0099 15.5373 32.0856L15.7801 31.6492C15.6347 31.5526 15.4764 31.477 15.3099 31.4249C15.1437 31.3731 14.9707 31.3462 14.7967 31.345C14.6696 31.3439 14.5431 31.3626 14.4217 31.4003C14.3097 31.4342 14.2053 31.4895 14.1144 31.5632C14.0253 31.635 13.954 31.7265 13.906 31.8304C13.858 31.9344 13.8347 32.048 13.8378 32.1624C13.8336 32.276 13.8601 32.3885 13.9146 32.4882C13.963 32.5747 14.029 32.65 14.1083 32.7095C14.1911 32.7702 14.2822 32.8188 14.3787 32.8539C14.4794 32.8911 14.582 32.9229 14.686 32.9492L14.9104 33.0199C14.9775 33.0382 15.0425 33.064 15.104 33.0967C15.1537 33.121 15.1985 33.1544 15.2361 33.195C15.2694 33.2308 15.287 33.2783 15.2853 33.3272C15.2868 33.3686 15.2774 33.4098 15.2579 33.4465C15.2385 33.4831 15.2098 33.5141 15.1746 33.5361C15.0831 33.5944 14.9756 33.6224 14.8673 33.616C14.7191 33.6142 14.5724 33.5861 14.434 33.5331C14.2748 33.4721 14.1249 33.3894 13.9884 33.2872L13.7149 33.7021C13.8804 33.8353 14.0675 33.9392 14.2681 34.0094C14.4557 34.0756 14.653 34.1098 14.852 34.1108C14.9848 34.1111 15.1171 34.0935 15.2453 34.0586C15.3561 34.0232 15.46 33.9691 15.5526 33.8988C15.6425 33.8299 15.7142 33.7403 15.7616 33.6376C15.8157 33.5223 15.842 33.396 15.8385 33.2688C15.8418 33.1612 15.8152 33.0548 15.7616 32.9615C15.7164 32.8738 15.6536 32.7964 15.5772 32.7341H15.5834ZM21.5115 32.1747C21.5845 32.3456 21.6211 32.5298 21.6191 32.7156C21.6209 32.9004 21.5842 33.0835 21.5115 33.2534C21.4381 33.4191 21.3338 33.5693 21.2042 33.696C21.0753 33.8272 20.9218 33.9316 20.7525 34.0033C20.5701 34.0779 20.3748 34.1155 20.1778 34.1139C19.9831 34.1151 19.79 34.0785 19.6092 34.0063C19.4407 33.9332 19.2874 33.8289 19.1575 33.699C18.8993 33.4381 18.7546 33.0858 18.7549 32.7187C18.754 32.532 18.7906 32.347 18.8625 32.1747C18.9367 32.0086 19.0408 31.8575 19.1698 31.7291C19.2987 31.598 19.4522 31.4936 19.6215 31.4218C19.8027 31.3468 19.9971 31.3092 20.1931 31.3112C20.3888 31.3098 20.5829 31.3463 20.7647 31.4187C20.9346 31.4894 21.0883 31.594 21.2165 31.726C21.3431 31.8538 21.4415 32.0066 21.5054 32.1747H21.5115ZM21.0045 32.7279C21.0043 32.6137 20.9846 32.5004 20.9461 32.3929C20.906 32.2919 20.8477 32.1992 20.774 32.1194C20.701 32.0406 20.6133 31.9769 20.5158 31.932C20.4115 31.8854 20.2982 31.8623 20.1839 31.8643C20.0687 31.8624 19.9544 31.8854 19.8489 31.932C19.7527 31.9762 19.666 32.0388 19.5939 32.1163C19.5217 32.1932 19.4662 32.2843 19.431 32.3837C19.3937 32.4904 19.375 32.6026 19.3757 32.7156C19.3744 32.8282 19.3953 32.9399 19.4371 33.0444C19.4742 33.1461 19.531 33.2395 19.6044 33.3191C19.6777 33.3988 19.766 33.4631 19.8643 33.5085C19.9676 33.5554 20.0797 33.5795 20.1931 33.5792C20.3096 33.5804 20.425 33.5563 20.5312 33.5085C20.6274 33.4643 20.7141 33.4016 20.7863 33.3241C20.8596 33.2457 20.9151 33.1524 20.9491 33.0506C20.9867 32.9461 21.0054 32.8358 21.0045 32.7248V32.7279ZM23.0266 33.3425L22.3044 31.3726H21.6437L22.7469 34.074H23.3001L24.3972 31.3726H23.7519L23.0266 33.3425ZM26.9725 32.2055C27.0259 32.385 27.0528 32.5713 27.0525 32.7586C27.054 32.7863 27.054 32.814 27.0525 32.8416C27.054 32.8713 27.054 32.901 27.0525 32.9307H25.0795C25.1026 33.1264 25.1966 33.3068 25.3438 33.4378C25.4876 33.5546 25.6687 33.6157 25.8539 33.6099C25.9904 33.6141 26.1261 33.5868 26.2504 33.53C26.3722 33.4684 26.4833 33.3875 26.5792 33.2903L26.9418 33.5976C26.8143 33.7493 26.6575 33.8737 26.4808 33.9633C26.282 34.0602 26.0627 34.1076 25.8416 34.1016C25.6565 34.1027 25.4729 34.0683 25.3007 34.0002C25.1371 33.9349 24.9882 33.8373 24.8631 33.7132C24.738 33.5891 24.6391 33.4411 24.5724 33.278C24.5007 33.0971 24.4652 32.904 24.4679 32.7095C24.466 32.5238 24.4983 32.3394 24.5632 32.1655C24.6238 32.0012 24.7168 31.8507 24.8367 31.723C24.9512 31.5931 25.0914 31.4885 25.2485 31.4157C25.4152 31.343 25.5953 31.3063 25.7771 31.3081C25.9701 31.3026 26.1617 31.3426 26.3364 31.4249C26.4921 31.4956 26.6298 31.6006 26.739 31.7322C26.8452 31.8769 26.9224 32.0407 26.9664 32.2147L26.9725 32.2055ZM26.444 32.4605C26.4345 32.3863 26.4116 32.3145 26.3764 32.2485C26.3443 32.1657 26.2986 32.0888 26.2411 32.0211C26.1829 31.958 26.113 31.9068 26.0352 31.8705C25.9485 31.835 25.8555 31.8172 25.7617 31.8182C25.6738 31.8155 25.5864 31.8316 25.5053 31.8656C25.4242 31.8995 25.3513 31.9504 25.2915 32.0149C25.1657 32.1318 25.0861 32.2899 25.0672 32.4605H26.444ZM17.5318 33.5792C17.4213 33.5777 17.3123 33.5538 17.2114 33.5089C17.1105 33.4641 17.0197 33.3991 16.9447 33.318C16.8697 33.237 16.8119 33.1415 16.7749 33.0374C16.738 32.9333 16.7226 32.8228 16.7297 32.7125C16.7222 32.605 16.7364 32.4971 16.7713 32.3952C16.8063 32.2933 16.8614 32.1994 16.9334 32.1191C17.0053 32.0389 17.0926 31.9739 17.1901 31.928C17.2876 31.8822 17.3934 31.8563 17.501 31.852C17.6347 31.8529 17.7665 31.8837 17.8867 31.9422C18.0069 32.0007 18.1124 32.0854 18.1956 32.1901L18.5767 31.7752C18.444 31.6238 18.279 31.504 18.0939 31.4248C17.9089 31.3455 17.7083 31.3088 17.5072 31.3173C17.1363 31.3173 16.7807 31.4646 16.5184 31.7269C16.2562 31.9891 16.1089 32.3448 16.1089 32.7156C16.1089 33.0865 16.2562 33.4421 16.5184 33.7044C16.7807 33.9666 17.1363 34.1139 17.5072 34.1139C17.7165 34.1202 17.9245 34.0779 18.1148 33.9905C18.3051 33.9031 18.4727 33.7728 18.6043 33.6099L18.2325 33.2442C18.1506 33.3462 18.048 33.4297 17.9315 33.4891C17.8149 33.5484 17.687 33.5823 17.5564 33.5884L17.5318 33.5792ZM28.1096 31.8152V31.3726H27.495V34.0524H28.1096V33.0321C28.1043 32.8737 28.1272 32.7155 28.1772 32.565C28.2649 32.3782 28.4008 32.2182 28.571 32.1015C28.7412 31.9848 28.9394 31.9156 29.1453 31.9012L28.9332 31.388C28.6191 31.4338 28.331 31.5882 28.1188 31.8244L28.1096 31.8152ZM31.3211 31.3726L30.6327 33.3364L29.9904 31.3726H29.3358L30.3315 34.034V34.0524C30.2478 34.2996 30.1185 34.5289 29.9505 34.7285C29.7582 34.7855 29.5568 34.8043 29.3573 34.7839V35.2879C29.6565 35.312 29.9576 35.2808 30.2455 35.1957C30.4303 35.093 30.5704 34.9255 30.6388 34.7255C30.7925 34.4181 31.9665 31.3726 31.9665 31.3726H31.3211Z" fill="#A19E9C"/>
<path d="M9.83961 32.648C9.83961 32.3671 9.75626 32.0924 9.60011 31.8589C9.44397 31.6253 9.22204 31.4433 8.96243 31.336C8.70281 31.2286 8.41718 31.2007 8.14168 31.2557C7.86618 31.3107 7.6132 31.4463 7.41476 31.6451C7.21632 31.844 7.08134 32.0973 7.02691 32.3729C6.97247 32.6485 7.00103 32.9341 7.10896 33.1935C7.21689 33.4528 7.39935 33.6744 7.63324 33.83C7.86713 33.9857 8.14194 34.0684 8.42288 34.0678C8.60918 34.0678 8.79366 34.0311 8.96575 33.9597C9.13784 33.8883 9.29415 33.7836 9.42575 33.6518C9.55734 33.5199 9.66164 33.3633 9.73265 33.1911C9.80367 33.0189 9.84001 32.8343 9.83961 32.648Z" fill="#A19E9C"/>
<path d="M39.7907 31.9688C39.9326 32.0071 40.0661 32.0717 40.1841 32.1594C40.2955 32.2463 40.3867 32.3564 40.4515 32.4821C40.5194 32.625 40.5531 32.7817 40.5498 32.94C40.5546 33.1171 40.5211 33.2933 40.4515 33.4562C40.389 33.5902 40.2951 33.7072 40.1779 33.7974C40.0561 33.8867 39.9168 33.9495 39.7692 33.9818C39.6018 34.0197 39.4307 34.0383 39.2591 34.0371H38.8473V31.9043H39.3144C39.4754 31.9035 39.6357 31.9253 39.7907 31.9688Z" fill="#F18E00"/>
<path fill-rule="evenodd" clip-rule="evenodd" d="M34.1269 30.5644H41.3058C41.376 30.5623 41.446 30.5742 41.5116 30.5992C41.5773 30.6242 41.6374 30.6618 41.6885 30.7101C41.7396 30.7583 41.7807 30.8161 41.8094 30.8803C41.8381 30.9444 41.8539 31.0135 41.8559 31.0838V34.7716C41.8539 34.8418 41.8381 34.9109 41.8094 34.9751C41.7807 35.0392 41.7396 35.097 41.6885 35.1452C41.6374 35.1935 41.5773 35.2312 41.5116 35.2562C41.446 35.2812 41.376 35.293 41.3058 35.2909H34.1269C34.0566 35.293 33.9867 35.2812 33.921 35.2562C33.8554 35.2312 33.7953 35.1935 33.7442 35.1452C33.6931 35.097 33.652 35.0392 33.6233 34.9751C33.5946 34.9109 33.5788 34.8418 33.5768 34.7716V31.0838C33.5788 31.0135 33.5946 30.9444 33.6233 30.8803C33.652 30.8161 33.6931 30.7583 33.7442 30.7101C33.7953 30.6618 33.8554 30.6242 33.921 30.5992C33.9867 30.5742 34.0566 30.5623 34.1269 30.5644ZM36.7391 34.7685H37.5319V31.1637H36.7391V32.5066H35.2025V31.1637H34.4096V34.7593H35.2025V33.2073H36.7391V34.7685ZM40.7741 34.3106C40.9616 34.1588 41.1137 33.9679 41.2198 33.7513C41.3294 33.5094 41.381 33.2452 41.3703 32.9799C41.3792 32.691 41.3214 32.4039 41.2013 32.1409C41.0949 31.9201 40.9381 31.7275 40.7434 31.5785C40.539 31.4331 40.3084 31.3288 40.0642 31.2712C39.7958 31.205 39.5202 31.172 39.2437 31.1729H38.0544V34.7685H39.3636C39.6232 34.7707 39.8816 34.7313 40.1288 34.6517C40.3638 34.5806 40.583 34.4648 40.7741 34.3106Z" fill="#F18E00"/>
<path d="M40.9616 27.1685C40.3193 27.1685 40.2763 26.6061 40.2763 26.3419V22.694C40.2763 20.4598 39.465 18.3424 36.524 18.324C34.1361 18.324 33.1435 19.8605 33.1435 19.8605V14.04H30.562V26.9841C28.6997 27.1439 27.9345 26.2619 27.9345 26.2619C28.9855 25.0511 29.2406 23.5944 29.4157 21.9595H27.1723C27.1723 23.6928 26.4378 24.5932 26.4378 24.5932C25.4667 23.3639 25.3131 23.1703 24.3358 21.8581C26.152 21.0068 26.9971 19.9005 26.908 18.453C26.7882 16.5692 25.187 15.4567 23.4999 15.5612C23.0625 15.5842 22.6341 15.694 22.2395 15.8841C21.845 16.0742 21.4922 16.3409 21.2016 16.6686C20.9111 16.9964 20.6886 17.3786 20.5471 17.7931C20.4057 18.2076 20.348 18.646 20.3775 19.083C20.4382 19.8234 20.6741 20.5386 21.0659 21.1697C20.2078 21.5282 19.4715 22.1268 18.9454 22.8938C18.4468 23.647 18.2093 24.5431 18.2693 25.4445C18.2941 25.8073 18.3643 26.1656 18.4783 26.5109L18.4261 26.4279C18.2571 26.7352 17.9313 27.1562 17.4642 27.1562C16.8157 27.1562 16.7758 26.5908 16.7758 26.3265V22.6786C16.7758 20.4414 15.9614 18.3209 13.0142 18.3024C10.6233 18.3024 9.61837 19.839 9.61837 19.839V14H7.03076V29.1477H9.71364V23.6159C9.71364 22.4942 9.92876 21.6829 10.3529 21.142C10.5734 20.8771 10.8534 20.668 11.1701 20.5318C11.4868 20.3956 11.8312 20.3362 12.1753 20.3584C12.4788 20.3352 12.7827 20.3993 13.0511 20.543C13.3195 20.6868 13.5413 20.9042 13.6903 21.1697C13.9823 21.6921 14.0745 22.399 14.0775 23.3209V26.938C14.0775 27.8999 14.5324 29.4304 16.7604 29.4304C17.275 29.4211 17.7813 29.2987 18.2434 29.0719C18.7054 28.8452 19.1119 28.5195 19.4341 28.1181C19.9281 28.5922 20.5193 28.9531 21.1667 29.176C21.8141 29.3989 22.5022 29.4783 23.1833 29.4089C24.3615 29.3814 25.4848 28.9054 26.3241 28.0782C27.1743 28.7906 28.2513 29.1754 29.3604 29.163H33.2295V23.6313C33.2295 22.5158 33.4447 21.7044 33.8688 21.1728C34.0874 20.9055 34.3663 20.6937 34.6825 20.5548C34.9987 20.416 35.3433 20.3539 35.6881 20.3738H35.7065C36.0105 20.3508 36.3147 20.4149 36.5836 20.5585C36.8525 20.7022 37.0749 20.9196 37.2247 21.1851C37.5135 21.7075 37.6057 22.4143 37.6088 23.3363V26.9503C37.6088 27.9092 38.0667 29.4365 40.2855 29.4365C40.8633 29.4391 41.4343 29.3131 41.9573 29.0678V26.8766C41.6589 27.0643 41.3142 27.1654 40.9616 27.1685ZM23.6351 17.5526C23.7721 17.5443 23.9095 17.5633 24.0391 17.6086C24.1687 17.6539 24.288 17.7244 24.3901 17.8162C24.4922 17.908 24.575 18.0192 24.6337 18.1433C24.6925 18.2674 24.726 18.4019 24.7322 18.5391C24.7875 19.3903 24.1698 19.7284 23.1956 20.2478C22.9067 19.794 22.7181 19.2837 22.6425 18.7511C22.6241 18.6064 22.6357 18.4595 22.6764 18.3194C22.7171 18.1793 22.7861 18.0491 22.8791 17.9368C22.9721 17.8244 23.0872 17.7324 23.2173 17.6663C23.3473 17.6002 23.4895 17.5615 23.6351 17.5526ZM23.1311 27.2177C22.8368 27.2535 22.5384 27.23 22.2533 27.1485C21.9683 27.067 21.7025 26.9292 21.4716 26.7433C21.2407 26.5574 21.0494 26.3271 20.909 26.066C20.7686 25.8049 20.6819 25.5184 20.6541 25.2232C20.605 24.4303 21.0229 23.7696 22.2675 23.0136C23.4231 24.5932 23.7027 24.9528 24.9535 26.4863C24.4414 26.9213 23.8018 27.178 23.1311 27.2177Z" fill="#F18E00"/>
</svg>
