<svg width="48" height="48" viewBox="0 0 48 48" fill="none" xmlns="http://www.w3.org/2000/svg">
<rect x="1" y="1" width="46" height="46" rx="23" fill="white" stroke="#F8F8F8" stroke-width="2"/>
<path fill-rule="evenodd" clip-rule="evenodd" d="M20.1151 20C20.9581 20 21.5397 20.5537 21.5397 21.28C21.5397 22.0073 20.9581 22.568 20.1151 22.568H19.4111C19.2303 22.7016 19.0041 22.7806 18.7587 22.7806C18.1642 22.7806 17.6818 22.3139 17.6818 21.7387C17.6818 21.1635 18.1642 20.6953 18.7587 20.6953C19.3538 20.6953 19.8357 21.1635 19.8357 21.7387C19.8357 21.8877 19.8031 22.0293 19.7448 22.1578L20.1151 22.1573C20.6781 22.1573 21.0464 21.7942 21.0464 21.2875C21.0464 20.7808 20.6781 20.4112 20.1151 20.4112H19.5883V20.7878C19.5108 20.6963 19.4194 20.6132 19.3186 20.5472C19.2551 20.5042 19.188 20.4687 19.1177 20.4397V20H20.1151ZM30.681 21.6216C30.681 21.7702 30.7074 21.9077 30.7611 22.0308C30.8138 22.1543 30.8882 22.2609 30.9806 22.3474C31.0741 22.4359 31.1836 22.5055 31.3096 22.5545C31.4362 22.6025 31.5731 22.628 31.7182 22.628C31.9041 22.628 32.0648 22.594 32.1991 22.5285C32.3323 22.463 32.4486 22.3739 32.5457 22.2639L32.2729 22.0328C32.1913 22.1083 32.1082 22.1663 32.0245 22.2054C31.9398 22.2444 31.8411 22.2639 31.7254 22.2639C31.5751 22.2639 31.4475 22.2219 31.3411 22.1378C31.2353 22.0523 31.1691 21.9313 31.1433 21.7717H32.6293L32.6355 21.7077C32.6361 21.6872 32.6366 21.6666 32.6366 21.6476C32.6366 21.5081 32.6164 21.3755 32.5761 21.2485C32.5353 21.1224 32.4744 21.0119 32.3938 20.9164C32.3132 20.8208 32.2125 20.7448 32.0906 20.6893C31.9708 20.6322 31.8298 20.6047 31.6691 20.6047C31.523 20.6047 31.3897 20.6317 31.2699 20.6833C31.15 20.7363 31.0467 20.8078 30.9584 20.9004C30.8701 20.9919 30.8024 21.0984 30.7528 21.221C30.7048 21.343 30.681 21.4751 30.681 21.6146V21.6216ZM10.2796 25.7742C9.35654 25.6622 8.92008 25.5527 8.9299 25.0445C8.9299 24.6243 9.3772 24.4372 9.64373 24.3597C9.85808 24.3007 10.0936 24.2707 10.3224 24.2707C10.6003 24.2707 11.0642 24.3187 11.3705 24.6038C11.465 24.6973 11.6106 24.7403 11.7263 24.6748L12.0776 24.4757C12.1953 24.4072 12.2398 24.2612 12.1649 24.1521C11.6912 23.4769 10.7253 23.3993 10.3033 23.3993C9.99238 23.3993 9.67885 23.4378 9.40096 23.5129C8.53373 23.7595 8.02961 24.3162 8.01773 25.0445C8.00636 26.388 9.13702 26.5295 10.1339 26.6526L10.1571 26.6551C11.0807 26.7691 11.514 26.8787 11.5073 27.3869C11.5073 27.807 11.0079 27.9826 10.7935 28.0396C10.5884 28.0941 10.3457 28.1267 10.1127 28.1267C9.76614 28.1267 9.17938 28.0531 8.85914 27.627C8.78372 27.5264 8.64736 27.4714 8.53166 27.5309L8.14066 27.732C8.02031 27.7935 7.96143 27.9326 8.02754 28.0491C8.41648 28.7469 9.34673 29 10.136 29C10.4516 29 10.7625 28.9615 11.0337 28.8885C11.903 28.6539 12.4071 28.1082 12.419 27.3894C12.4309 26.0479 11.2387 25.8953 10.2796 25.7742ZM27.4311 23.4018H27.4667C28.5576 23.4018 29.6578 23.908 29.6578 25.0445V28.7084C29.6578 28.8314 29.5514 28.9365 29.4223 28.9365H28.9744C28.8448 28.9365 28.7363 28.8314 28.7363 28.7084V25.0325C28.7363 24.5288 28.086 24.2612 27.443 24.2612C26.7927 24.2612 26.1377 24.5263 26.1377 25.117V28.7084C26.1377 28.8314 26.0318 28.9365 25.9022 28.9365H25.4549C25.3227 28.9365 25.2168 28.8314 25.2168 28.7084V23.6939C25.2168 23.5679 25.3227 23.4633 25.4549 23.4633H25.9471C26.053 23.4633 26.1377 23.5479 26.1377 23.6479C26.1377 23.6889 26.1847 23.7094 26.2204 23.6889C26.5551 23.4994 26.9667 23.4018 27.4311 23.4018ZM38.3395 28.9455C38.9639 28.8519 39.421 28.6284 39.7294 28.2702C39.812 28.1747 39.7764 28.0286 39.6659 27.9621L39.296 27.739C39.1803 27.67 39.0347 27.702 38.9329 27.7885C38.7516 27.9416 38.5068 28.0371 38.2005 28.0761C37.9226 28.1267 37.6866 28.1267 37.4066 28.0761C37.058 28.0191 36.7749 27.8756 36.6241 27.6815C36.5533 27.5834 36.5254 27.4899 36.5254 27.3439V27.1068C36.5254 27.0452 36.5817 26.9947 36.6453 26.9972C36.6995 26.9972 36.7563 26.9992 36.8152 27.0017C37.0084 27.0087 37.2109 27.0152 37.4231 27.0152C37.9082 27.0152 38.5326 26.9832 39.0368 26.7186C39.6964 26.3855 40.0641 25.7422 39.9908 25.0445C39.9179 24.3187 39.4092 23.737 38.6643 23.5224C38.3937 23.4513 38.1112 23.4153 37.826 23.4153C37.543 23.4153 37.2604 23.4513 36.9919 23.5224C36.1107 23.755 35.604 24.2937 35.604 24.9914V27.3028C35.604 27.6565 35.6933 27.9396 35.8798 28.1992C36.1814 28.5848 36.7114 28.8614 37.3333 28.9545C37.4893 28.9775 37.6375 28.991 37.793 28.991C37.9624 28.991 38.139 28.975 38.3395 28.9455ZM36.6453 26.1779C36.5797 26.1779 36.5254 26.1254 36.5254 26.0619V24.9914C36.5254 24.5923 37.0177 24.4167 37.2274 24.3597C37.5993 24.2682 38.0543 24.2682 38.4247 24.3597C38.8105 24.4647 39.0791 24.7729 39.1122 25.147C39.1426 25.5006 38.9541 25.8038 38.6101 25.9568C38.1768 26.1574 37.5647 26.1824 37.0791 26.1824C37.0184 26.1824 36.9582 26.1817 36.8999 26.1811H36.8999H36.8999H36.8999H36.8998H36.8998H36.8998H36.8998H36.8997H36.8997H36.8997H36.8997H36.8996C36.8451 26.1805 36.7923 26.1799 36.7424 26.1799H36.7424C36.7093 26.1799 36.6763 26.1799 36.6453 26.1779ZM32.0488 24.3732C32.2564 24.3187 32.4542 24.2937 32.6521 24.2937C32.8504 24.2937 33.0596 24.3212 33.2461 24.3732C33.4181 24.4167 33.7688 24.5378 33.9031 24.7909C33.9645 24.9069 34.0632 25.0119 34.1954 25.0119H34.6334C34.7631 25.0119 34.8715 24.9094 34.8504 24.7864C34.7558 24.1931 34.2729 23.741 33.4935 23.5339C33.1892 23.4588 32.9067 23.4223 32.6521 23.4223C32.3881 23.4223 32.1056 23.4588 31.8112 23.5339C30.9512 23.762 30.4398 24.3142 30.4398 25.0119V27.3964C30.4398 28.1132 30.9512 28.6744 31.8158 28.9C32.0844 28.966 32.3669 28.998 32.6521 28.998C32.9418 28.998 33.2223 28.966 33.5028 28.8955L33.5782 28.8679L33.5895 28.8634C34.2987 28.6559 34.7538 28.2107 34.8504 27.6475C34.8715 27.5219 34.7631 27.4169 34.6334 27.4169H34.1954C34.0632 27.4169 33.9645 27.5219 33.9057 27.638C33.776 27.8911 33.4392 28.0101 33.2833 28.0531L33.2461 28.0601C32.8902 28.1542 32.4047 28.1517 32.0539 28.0601C31.79 27.9876 31.3494 27.8045 31.3494 27.3964V25.0235C31.3494 24.5993 31.8396 24.4257 32.0488 24.3732ZM21.0252 27.1068V27.3439C21.0252 27.4899 21.051 27.5834 21.1218 27.6815C21.2726 27.8756 21.5578 28.0191 21.9043 28.0761C22.1848 28.1267 22.4224 28.1267 22.6982 28.0761C23.0045 28.0371 23.2494 27.9416 23.4307 27.7885C23.5324 27.702 23.6781 27.67 23.7938 27.739L24.1636 27.9621C24.2746 28.0286 24.3098 28.1747 24.2271 28.2702C23.9162 28.6284 23.4616 28.8519 22.8372 28.9455C22.6393 28.975 22.4601 28.991 22.2907 28.991C22.1347 28.991 21.9865 28.9775 21.8315 28.9545C21.207 28.8614 20.6766 28.5848 20.3775 28.1992C20.189 27.9396 20.1017 27.6565 20.1017 27.3028V24.9914C20.1017 24.2937 20.6058 23.755 21.487 23.5224C21.7561 23.4513 22.0407 23.4153 22.3238 23.4153C22.6084 23.4153 22.8914 23.4513 23.16 23.5224C23.9069 23.737 24.4157 24.3187 24.489 25.0445C24.5618 25.7422 24.1941 26.3855 23.5345 26.7186C23.0278 26.9832 22.4059 27.0152 21.9204 27.0152C21.7086 27.0152 21.5061 27.0087 21.3129 27.0017C21.2535 26.9992 21.1972 26.9972 21.1435 26.9972C21.0774 26.9947 21.0252 27.0452 21.0252 27.1068ZM21.1435 26.1779C21.0774 26.1779 21.0252 26.1254 21.0252 26.0619V24.9914C21.0252 24.5923 21.5128 24.4167 21.7251 24.3597C22.0975 24.2682 22.5521 24.2682 22.9219 24.3597C23.3062 24.4647 23.5768 24.7729 23.6099 25.147C23.6383 25.5006 23.4518 25.8038 23.1078 25.9568C22.6719 26.1574 22.0619 26.1824 21.5789 26.1824C21.5148 26.1824 21.4533 26.1817 21.3946 26.1811H21.3946H21.3945H21.3944H21.3944H21.3943H21.3943H21.3942H21.3942H21.3941C21.341 26.1805 21.2902 26.1799 21.2422 26.1799H21.2421C21.207 26.1799 21.176 26.1799 21.1435 26.1779ZM18.9617 23.4633H18.5139C18.3822 23.4633 18.2758 23.5679 18.2758 23.6939V28.7059C18.2758 28.8314 18.3822 28.934 18.5139 28.934H18.9617C19.0934 28.934 19.1993 28.8314 19.1993 28.7059V23.6939C19.1993 23.5679 19.0934 23.4633 18.9617 23.4633ZM15.1849 24.2937C14.9845 24.2937 14.7867 24.3187 14.5796 24.3732C14.3699 24.4257 13.8797 24.5993 13.8797 25.0235V27.3964C13.8797 27.8045 14.3224 27.9876 14.5816 28.0601C14.9349 28.1517 15.4231 28.1517 15.7784 28.0601L15.8141 28.0531C15.9695 28.0101 16.3063 27.8911 16.436 27.6405C16.4948 27.5219 16.5961 27.4169 16.7257 27.4169H17.1637C17.2934 27.4169 17.4018 27.5219 17.3807 27.6475C17.2841 28.2107 16.827 28.6559 16.1224 28.8634L16.1105 28.8679L16.0331 28.8955C15.7552 28.966 15.4701 28.998 15.1849 28.998C14.8978 28.998 14.6147 28.966 14.3487 28.9C13.484 28.6744 12.968 28.1132 12.968 27.3964V25.0119C12.968 24.3142 13.4815 23.762 14.3435 23.5339C14.6359 23.4588 14.9189 23.4223 15.1849 23.4223C15.4396 23.4223 15.7221 23.4588 16.0238 23.5339C16.8037 23.741 17.2867 24.1931 17.3807 24.7864C17.4018 24.9094 17.2934 25.0119 17.1637 25.0119H16.7257C16.5935 25.0119 16.4948 24.9069 16.4334 24.7909C16.297 24.5378 15.9484 24.4167 15.7764 24.3732C15.5904 24.3212 15.3807 24.2937 15.1849 24.2937ZM35.3478 22.0663L35.8664 20.6448H36.3488C36.3488 20.6448 35.463 22.8451 35.3478 23.0702C35.2414 23.2753 35.2068 23.3158 35.0518 23.4098C34.9599 23.4663 34.7207 23.4749 34.5384 23.4759H34.3824V23.1122C34.4759 23.1182 34.7212 23.1227 34.8276 23.0707C34.9511 22.9852 35.0859 22.6575 35.1117 22.593L35.1159 22.582L35.1215 22.5705L34.37 20.6448H34.8643L35.3478 22.0663ZM33.4491 21.7512L33.4465 21.8452V22.5835H32.9832V20.6448H33.4465V20.9654C33.5994 20.7833 33.8354 20.7033 34.0012 20.6678L34.0673 20.6553L34.2259 21.0269C34.0245 21.0549 33.636 21.1544 33.4961 21.5081C33.4682 21.5781 33.4542 21.6596 33.4491 21.7512ZM31.1397 21.4311H32.1774C32.1715 21.3772 32.1607 21.3528 32.1447 21.3164C32.1397 21.3051 32.1343 21.2928 32.1283 21.278C32.102 21.216 32.0674 21.1605 32.0245 21.1144C31.9811 21.0689 31.9284 21.0319 31.8701 21.0069C31.8091 20.9809 31.7404 20.9684 31.6645 20.9684C31.5214 20.9684 31.4042 21.0144 31.3096 21.1094C31.2172 21.204 31.1598 21.28 31.1397 21.4311ZM29.6015 22.0698L30.149 20.6448H30.6361L29.8086 22.598H29.3918L28.5602 20.6448H29.0586L29.6015 22.0698ZM26.4662 22.0148C26.4125 21.8917 26.3862 21.7622 26.3862 21.6251V21.6176C26.3862 21.4781 26.4135 21.3465 26.4678 21.225C26.5231 21.1034 26.5995 20.9964 26.6945 20.9034C26.7901 20.8113 26.9037 20.7393 27.036 20.6848C27.1666 20.6317 27.3097 20.6047 27.4652 20.6047C27.6217 20.6047 27.7653 20.6317 27.897 20.6833C28.0282 20.7363 28.1418 20.8078 28.2374 20.9004C28.334 20.9919 28.4078 21.0984 28.4605 21.219C28.5158 21.3405 28.5421 21.4706 28.5421 21.6101V21.6176C28.5421 21.7552 28.5147 21.8842 28.459 22.0073C28.4047 22.1298 28.3288 22.2369 28.2338 22.3279C28.1377 22.4199 28.023 22.4925 27.8908 22.5475C27.7591 22.6 27.6134 22.628 27.458 22.628C27.3051 22.628 27.1625 22.601 27.0313 22.5485C26.8996 22.496 26.7865 22.4249 26.6904 22.3334C26.5948 22.2429 26.5205 22.1373 26.4662 22.0148ZM26.8495 21.6176C26.8495 21.7017 26.865 21.7812 26.8955 21.8567C26.9254 21.9333 26.9683 21.9988 27.0241 22.0563C27.0783 22.1143 27.1434 22.1593 27.2178 22.1929C27.2942 22.2249 27.3769 22.2424 27.4652 22.2424C27.5597 22.2424 27.6444 22.2249 27.7203 22.1929C27.7952 22.1593 27.8598 22.1143 27.914 22.0578C27.9672 22.0028 28.0075 21.9363 28.0359 21.8617C28.0638 21.7867 28.0778 21.7087 28.0778 21.6251V21.6176C28.0778 21.5321 28.0623 21.4511 28.0318 21.3755C28.0018 21.2995 27.9579 21.2335 27.9047 21.178C27.849 21.1199 27.7839 21.0759 27.709 21.0429C27.6346 21.0094 27.5504 20.9939 27.458 20.9939C27.3655 20.9939 27.2829 21.0094 27.2074 21.0429C27.132 21.0759 27.0675 21.1199 27.0143 21.1755C26.9611 21.231 26.9192 21.296 26.8913 21.3695C26.8629 21.4456 26.8495 21.5251 26.8495 21.6101V21.6176ZM25.9957 21.9988L26.2751 22.2634C26.0768 22.476 25.8423 22.6265 25.4487 22.6265C24.8469 22.6265 24.4033 22.1748 24.4033 21.6211C24.4033 21.0664 24.8469 20.6047 25.4523 20.6047C25.7917 20.6047 26.0179 20.7123 26.1956 20.8743L26.2601 20.9374L25.9724 21.236C25.8299 21.0909 25.6816 20.9929 25.4487 20.9929C25.1109 20.9929 24.8666 21.272 24.8666 21.6131C24.8666 21.9628 25.1145 22.2404 25.4709 22.2404C25.6579 22.2404 25.803 22.1683 25.9322 22.0573L25.9957 21.9988ZM23.7654 22.1033C23.7545 22.1468 23.7287 22.1823 23.6874 22.2109C23.6326 22.2484 23.5556 22.2679 23.456 22.2679C23.3506 22.2679 23.2416 22.2479 23.1285 22.2064C23.0149 22.1663 22.9038 22.1073 22.7938 22.0288L22.5872 22.3304L22.6848 22.3974C22.784 22.4605 22.8899 22.51 23.0025 22.5475C23.1512 22.5955 23.2984 22.6195 23.4446 22.6195C23.5479 22.6195 23.6471 22.6075 23.739 22.582C23.832 22.555 23.9105 22.517 23.9792 22.4675C24.0463 22.4174 24.099 22.3549 24.1372 22.2794C24.1765 22.2024 24.1956 22.1128 24.1956 22.0108V22.0033L24.192 21.9398C24.1848 21.8787 24.1667 21.8247 24.1372 21.7792C24.099 21.7177 24.0494 21.6656 23.99 21.6236C23.9301 21.5806 23.864 21.5441 23.7886 21.5146C23.7153 21.4851 23.6409 21.4596 23.5665 21.4381C23.5331 21.427 23.5005 21.4164 23.4686 21.406L23.4685 21.406L23.3966 21.3825C23.3413 21.3655 23.2933 21.346 23.2514 21.3255C23.2091 21.3055 23.1745 21.282 23.1497 21.2555C23.1249 21.231 23.112 21.2005 23.112 21.166V21.159L23.1166 21.1189C23.1259 21.0804 23.1486 21.0469 23.1863 21.0184C23.2359 20.9829 23.3046 20.9649 23.3955 20.9649C23.4787 20.9649 23.5701 20.9809 23.6703 21.0134C23.77 21.0464 23.8676 21.0909 23.9642 21.1484L24.1486 20.8318L24.0381 20.7683C23.9616 20.7293 23.88 20.6963 23.7932 20.6708C23.6626 20.6317 23.5334 20.6112 23.4059 20.6112C23.3067 20.6112 23.2132 20.6257 23.1249 20.6528C23.036 20.6793 22.9601 20.7183 22.895 20.7703C22.8294 20.8208 22.7783 20.8828 22.7416 20.9549C22.7044 21.0274 22.6863 21.1104 22.6863 21.203V21.21L22.69 21.2775C22.6972 21.341 22.7148 21.3975 22.7437 21.4456C22.7824 21.5091 22.8305 21.5621 22.8909 21.6051C22.9513 21.6476 23.0185 21.6827 23.0944 21.7092C23.1698 21.7367 23.2437 21.7597 23.3181 21.7792C23.3555 21.7907 23.3925 21.8013 23.4287 21.8115L23.4287 21.8116C23.4489 21.8173 23.4689 21.823 23.4885 21.8287C23.5443 21.8452 23.5913 21.8632 23.6331 21.8837C23.6765 21.9042 23.7085 21.9288 23.7338 21.9553C23.7581 21.9823 23.77 22.0148 23.77 22.0513V22.0578L23.7654 22.1033ZM22.2705 22.5835H21.8077V20.6448H22.2705V22.5835Z" fill="black"/>
</svg>
