<svg width="48" height="48" viewBox="0 0 48 48" fill="none" xmlns="http://www.w3.org/2000/svg">
<rect x="1" y="1" width="46" height="46" rx="23" fill="white" stroke="#F8F8F8" stroke-width="2"/>
<path fill-rule="evenodd" clip-rule="evenodd" d="M22.9999 35.0149C25.0783 35.0149 26.7808 33.327 26.8057 31.2542L29.4876 33.932C30.936 35.3781 33.3033 35.3755 34.7485 33.9267C36.1941 32.4779 36.1915 30.1098 34.7433 28.664L31.4763 25.4014L34.6833 22.1998C36.1133 20.7718 36.1159 18.4332 34.6885 17.0026C33.2614 15.572 30.9237 15.5696 29.4937 16.9973L26.8063 19.6806V17.0992C26.8063 15.0056 25.0935 13.2925 22.9999 13.2925C20.9064 13.2925 19.1936 15.0056 19.1936 17.0992V31.2085C19.1936 33.3018 20.9064 35.0149 22.9999 35.0149Z" fill="#013B53"/>
<path fill-rule="evenodd" clip-rule="evenodd" d="M22.9999 34.1014C24.5801 34.1014 26.5208 32.6693 25.8731 31.2281L24.249 27.6138L30.1779 33.2822C31.2804 34.3364 33.0204 34.3569 34.099 33.2781H34.0993C35.1763 32.1984 35.1749 30.4335 34.0955 29.3555L30.1685 25.4347L34.1967 21.4124C35.2761 20.335 35.2779 18.5699 34.2005 17.4899C33.1232 16.4102 31.3589 16.4084 30.2792 17.4861L25.8731 21.8854V17.0795C25.8731 15.499 24.5801 14.206 22.9999 14.206C21.4197 14.206 20.1266 15.499 20.1266 17.0795V31.2281C20.1266 32.8086 21.4197 34.1014 22.9999 34.1014Z" fill="#42DF70"/>
<path fill-rule="evenodd" clip-rule="evenodd" d="M16.8746 25.665C17.7465 25.665 18.5669 25.4327 19.2773 25.0273L21.2254 25.6598C21.485 25.7224 21.6325 25.6498 21.5663 25.3188L21.0304 23.33C21.4861 22.5892 21.7496 21.7191 21.7496 20.7901C21.7496 18.1089 19.5559 15.9152 16.8746 15.9152C14.1934 15.9152 12 18.1089 12 20.7901C12 23.4714 14.1934 25.665 16.8746 25.665Z" fill="#013B53"/>
<path fill-rule="evenodd" clip-rule="evenodd" d="M17.3121 17.4622H14.9943C14.4321 17.4622 13.9723 17.9141 13.9723 18.4661V23.279C13.9723 23.8313 14.4321 24.2829 14.9943 24.2829H17.3121C18.9286 24.2829 20.4435 22.427 20.4435 20.8725C20.4435 19.3181 18.9286 17.4622 17.3121 17.4622ZM16.7299 19.2183H15.9078V22.5271H16.7299C17.6563 22.5271 18.4143 21.7825 18.4143 20.8725C18.4143 19.9626 17.6563 19.2183 16.7299 19.2183Z" fill="#FFF847"/>
</svg>
