<svg width="48" height="48" viewBox="0 0 48 48" fill="none" xmlns="http://www.w3.org/2000/svg">
<rect x="1" y="1" width="46" height="46" rx="23" fill="white" stroke="#F8F8F8" stroke-width="2"/>
<path fill-rule="evenodd" clip-rule="evenodd" d="M40 18V27.2374C39.9251 27.2283 39.7773 27.2097 39.5737 27.1843L39.5735 27.1842L39.5732 27.1842L39.573 27.1842C38.2994 27.0247 34.8491 26.5927 33.4436 26.4789C33.3078 26.3134 33.2058 26.0826 33.1382 25.8852C32.968 25.4563 32.9004 24.9939 32.9004 24.4661C32.9023 23.9805 32.9944 23.4993 33.1724 23.0473C33.3418 22.5857 33.5796 22.2226 33.8852 21.8932C34.1912 21.5629 34.531 21.2988 34.9048 21.134C35.3128 20.9693 35.6858 20.8706 36.1274 20.8706C36.6712 20.8706 37.1128 21.002 37.4866 21.2335C37.8598 21.4642 38.1316 21.7277 38.3018 22.0246V18H40ZM34.0136 28.7426C34.074 28.8979 34.074 29.0531 34.074 29.2075C34.074 29.3628 34.0442 29.5179 34.0136 29.6723C33.9539 29.8275 33.8927 29.9442 33.8031 30.0599C33.7263 30.1696 33.6212 30.2508 33.5016 30.2925C33.3807 30.3704 33.2599 30.3704 33.1106 30.3704H32.5075V28.0454H33.1098C33.2568 28.0454 33.3747 28.0828 33.4919 28.1199L33.5009 28.1227C33.6218 28.2006 33.7129 28.2779 33.8031 28.355C33.8935 28.4717 33.9539 28.5882 34.0136 28.7426ZM34.0136 29.2469C34.0114 29.115 33.9914 28.9844 33.9539 28.8593C33.9242 28.7373 33.8609 28.6287 33.7725 28.5488C33.6943 28.4556 33.6027 28.377 33.5016 28.3163C33.3864 28.2657 33.2637 28.2395 33.1398 28.2392H32.6576V30.2925H33.1398V30.2537H33.1404C33.2593 30.2537 33.3782 30.2159 33.4979 30.1778L33.5016 30.1766C33.592 30.1372 33.6824 30.0599 33.7725 29.9442C33.8331 29.8661 33.8935 29.7504 33.9539 29.6337C33.9838 29.5179 34.0136 29.3628 34.0136 29.2469ZM30.6693 29.1303H31.8441V28.0454H31.9948V30.4091H31.8441V29.2855H30.6693V30.4091H30.5186V28.0454H30.6693V29.1303ZM29.3018 28.8066L29.6822 29.9032L30.0968 28.8066L30.4764 28.8385C30.4764 28.8385 29.7854 30.5157 29.6822 30.6776C29.6647 30.7048 29.6501 30.7282 29.6373 30.7488C29.5743 30.8505 29.5549 30.8817 29.44 30.9352C29.3368 31 29.0604 31 28.9222 31V30.7097C28.9912 30.7097 29.1986 30.7097 29.2678 30.6776C29.4058 30.5803 29.5092 30.29 29.5092 30.29L28.9222 28.8066H29.3018ZM28.1964 28.8066V29.0642C28.3194 28.9254 28.4944 28.8438 28.68 28.8385L28.8182 29.1288C28.6458 29.1288 28.3346 29.2261 28.2314 29.4837C28.1964 29.5483 28.1964 29.6448 28.1964 29.7421V30.29H27.8168V28.8066H28.1964ZM27.5054 29.2907C27.5404 29.3872 27.5404 29.4837 27.5404 29.581V29.6775H26.3658C26.4 29.8067 26.435 29.9032 26.504 29.9678C26.5732 30.0324 26.6764 30.0645 26.8146 30.0645C26.9186 30.0645 26.9876 30.0645 27.0568 30.0324L27.0573 30.0322C27.1261 29.9996 27.1951 29.9669 27.264 29.9032L27.4712 30.0645C27.4025 30.1569 27.3056 30.225 27.195 30.2581C27.091 30.3227 26.9528 30.3227 26.8146 30.3227C26.7114 30.3227 26.6074 30.29 26.504 30.2573C26.4 30.2254 26.331 30.1616 26.262 30.097C26.1857 30.0249 26.1267 29.9365 26.0894 29.8386C26.0467 29.7363 26.0234 29.6271 26.0204 29.5164C26.0204 29.4191 26.0546 29.3226 26.0894 29.2261C26.1136 29.1573 26.1552 29.1049 26.2019 29.0461C26.2213 29.0216 26.2416 28.996 26.262 28.9677C26.331 28.9031 26.4 28.8385 26.504 28.8066C26.6074 28.7739 26.7114 28.742 26.8146 28.742C26.9528 28.742 27.0568 28.7739 27.16 28.8066C27.264 28.8385 27.3332 28.9031 27.4022 28.9677C27.4022 29.0587 27.4365 29.1336 27.4687 29.2039C27.4822 29.2333 27.4953 29.262 27.5054 29.2907ZM27.1903 29.3872H27.195V29.4191C27.195 29.4056 27.1928 29.3963 27.1903 29.3872ZM27.1903 29.3872H26.3658C26.4 29.258 26.435 29.1942 26.504 29.1288C26.581 29.0636 26.6795 29.0291 26.7804 29.0323C26.8496 29.0323 26.9186 29.0323 26.9528 29.0642C27.0042 29.0881 27.0511 29.121 27.091 29.1615C27.1086 29.1776 27.1173 29.202 27.126 29.2265C27.1345 29.2505 27.1431 29.2745 27.16 29.2907C27.16 29.3226 27.1685 29.3391 27.1771 29.3555C27.182 29.3651 27.187 29.3746 27.1903 29.3872ZM25.1564 29.9032L24.7418 28.8066H24.3622L25.0182 30.29H25.3294L25.9854 28.8066H25.6052L25.1564 29.9032ZM24.2582 29.258C24.3274 29.3545 24.3274 29.4518 24.3274 29.5483C24.3274 29.6448 24.2932 29.7421 24.2582 29.8386C24.2338 29.9058 24.193 29.9575 24.1471 30.0156L24.147 30.0157L24.147 30.0157L24.1469 30.0158C24.127 30.0411 24.1061 30.0675 24.0852 30.097C24.0055 30.1696 23.9112 30.2245 23.8088 30.2581L23.8036 30.2597C23.7021 30.2911 23.5999 30.3227 23.464 30.3227C23.3462 30.3168 23.2296 30.2947 23.1178 30.2573C22.9114 30.1943 22.7457 30.0394 22.6692 29.8378C22.63 29.7458 22.6066 29.6479 22.6 29.5483C22.6 29.4523 22.6344 29.3556 22.6686 29.2596L22.6686 29.2596L22.6692 29.258C22.693 29.1905 22.7344 29.1386 22.7807 29.0805L22.7807 29.0805C22.8006 29.0555 22.8214 29.0294 22.8422 29.0004C22.9114 28.935 23.0146 28.8712 23.1186 28.8385L23.1224 28.8373C23.2244 28.8058 23.3275 28.7739 23.464 28.7739C23.6017 28.7739 23.7049 28.8063 23.8084 28.8389L23.8094 28.8393C23.9128 28.8712 24.0168 28.9358 24.0858 29.0004C24.1062 29.0288 24.1266 29.0545 24.1461 29.0791C24.1927 29.1378 24.2341 29.1899 24.2582 29.258ZM23.9478 29.3545C23.9818 29.4191 23.9818 29.4837 23.9818 29.5483C23.9818 29.6013 23.9716 29.6348 23.9623 29.6651C23.9547 29.69 23.9478 29.7127 23.9478 29.7421C23.9206 29.8003 23.8856 29.8546 23.8438 29.9032L23.8427 29.9042C23.8087 29.9358 23.7739 29.9681 23.7056 29.9997C23.6364 30.0324 23.5674 30.0324 23.4982 30.0324C23.4276 30.0374 23.3567 30.0261 23.291 29.9997C23.2737 29.9836 23.2476 29.9673 23.2214 29.951L23.2214 29.951C23.1957 29.935 23.17 29.919 23.1528 29.9032C23.1357 29.871 23.1185 29.8469 23.1013 29.8229C23.084 29.7987 23.0666 29.7745 23.0496 29.7421C23.0146 29.6775 23.0146 29.6129 23.0146 29.5483C23.0146 29.4837 23.0146 29.4199 23.0496 29.3545C23.0836 29.2907 23.1186 29.2261 23.1528 29.1934L23.1569 29.1896C23.1904 29.1589 23.2245 29.1275 23.291 29.0969C23.36 29.0642 23.429 29.0642 23.4982 29.0642C23.5674 29.0642 23.6364 29.0642 23.7056 29.0969C23.7229 29.1127 23.7486 29.1287 23.7743 29.1448C23.8004 29.161 23.8265 29.1773 23.8438 29.1934C23.8615 29.2262 23.879 29.2508 23.8966 29.2754C23.9135 29.2992 23.9306 29.3231 23.9478 29.3545ZM22.3586 29.8386L22.5658 30.0324C22.3928 30.1935 22.2204 30.3227 21.909 30.3227C21.4254 30.3227 21.08 29.9678 21.08 29.5483C21.08 29.1296 21.4254 28.7739 21.909 28.7739C22.1854 28.7739 22.3928 28.8712 22.531 29.0323L22.2894 29.258C22.1854 29.1296 22.0472 29.0642 21.875 29.0642C21.6328 29.0642 21.4254 29.2907 21.4254 29.5483C21.4253 29.6766 21.4761 29.7995 21.5667 29.8904C21.6576 29.9811 21.7807 30.0322 21.909 30.0324C22.0822 30.0324 22.2204 29.9678 22.3586 29.8386ZM20.1476 29.1288C20.1818 29.0969 20.251 29.0969 20.32 29.0969C20.3892 29.0969 20.4582 29.0969 20.5272 29.1288L20.5281 29.1292C20.597 29.1617 20.6658 29.1943 20.7694 29.2261L20.9076 29.0004C20.8389 28.9353 20.7355 28.9033 20.6326 28.8716L20.6312 28.8712C20.4932 28.8058 20.3892 28.8058 20.2858 28.8058C20.2152 28.8008 20.1443 28.812 20.0786 28.8385L20.0776 28.8389L20.0776 28.8389C20.0089 28.8715 19.9402 28.904 19.9056 28.9358C19.8712 28.9677 19.8022 29.0323 19.8022 29.0642C19.7674 29.1296 19.7674 29.1934 19.7674 29.258C19.7674 29.3226 19.7674 29.3872 19.8022 29.4518C19.8352 29.5141 19.8687 29.546 19.9019 29.5775L19.9056 29.581C19.954 29.6217 20.0152 29.6442 20.0786 29.6448C20.1131 29.6612 20.139 29.6693 20.1648 29.6775C20.1906 29.6857 20.2164 29.6939 20.251 29.7102C20.2685 29.7102 20.2946 29.7182 20.3207 29.7262L20.3207 29.7262C20.3465 29.7342 20.3722 29.7421 20.3892 29.7421C20.4066 29.7421 20.4238 29.7501 20.4411 29.758C20.4584 29.766 20.4757 29.774 20.4932 29.774C20.5272 29.774 20.5622 29.8067 20.5622 29.8394C20.5821 29.8579 20.5904 29.8657 20.5939 29.8752C20.5964 29.8821 20.5964 29.8899 20.5964 29.9032C20.5964 29.9678 20.5622 29.9997 20.5273 30.0323L20.5272 30.0324C20.4932 30.0645 20.424 30.0645 20.355 30.0645C20.2858 30.0645 20.1818 30.0645 20.1128 30.0324C20.0149 30.0028 19.9219 29.9594 19.8364 29.9032L19.664 30.097C19.7674 30.1616 19.8712 30.2254 19.9746 30.2581C20.0786 30.29 20.2168 30.3227 20.32 30.3227C20.3892 30.3227 20.4932 30.3227 20.5622 30.29C20.6312 30.2581 20.7004 30.2254 20.7346 30.1935L20.8728 30.0645C20.9076 29.9997 20.9076 29.9351 20.9076 29.8713C20.9076 29.8059 20.9076 29.7421 20.8728 29.7094C20.8466 29.6608 20.8115 29.6171 20.7694 29.581C20.7346 29.5483 20.6654 29.5156 20.5964 29.4837C20.5624 29.468 20.5367 29.46 20.5112 29.4521C20.4847 29.4439 20.4584 29.4357 20.4232 29.4191C20.4063 29.4191 20.3807 29.4112 20.355 29.4033C20.3289 29.3953 20.3026 29.3872 20.285 29.3872C20.268 29.3872 20.2508 29.379 20.2335 29.3709C20.2162 29.3627 20.1989 29.3545 20.1818 29.3545C20.147 29.3545 20.1128 29.3226 20.1128 29.2907C20.0924 29.2717 20.0839 29.2637 20.0804 29.2539C20.0778 29.2469 20.0778 29.239 20.0778 29.2253C20.0778 29.1943 20.1109 29.1632 20.1447 29.1315L20.1476 29.1288ZM19.4218 30.29H19.0422V28.8072H19.4218V30.29ZM17.6946 28.2905H16.9004V28.6128C16.9694 28.6447 17.0386 28.6774 17.0728 28.7099L17.28 28.9031V28.6128H17.6946C18.144 28.6128 18.4204 28.9031 18.4204 29.2907C18.4204 29.6775 18.144 29.9678 17.6946 29.9678H17.384C17.315 30.097 17.211 30.2254 17.0728 30.29H17.7294C18.3856 30.29 18.835 29.8386 18.835 29.2907H18.8342C18.8342 28.742 18.3856 28.3224 17.6946 28.2905ZM15.7037 29.8181C15.7037 29.4917 15.9691 29.2272 16.2963 29.2272C16.6237 29.2272 16.8889 29.4917 16.8889 29.8181C16.8889 30.1444 16.6237 30.4091 16.2963 30.4091C15.9691 30.4091 15.7037 30.1444 15.7037 29.8181ZM38.1316 23.5757C38.2334 23.8391 38.2678 24.1367 38.2678 24.4661C38.2678 24.7963 38.2334 25.0932 38.1316 25.3241C38.0305 25.5865 37.8956 25.783 37.7605 25.9799L37.7605 25.9799L37.7578 25.9839C37.5875 26.1451 37.3926 26.2787 37.1804 26.3794C36.955 26.4738 36.712 26.5188 36.4678 26.5114C36.2292 26.5114 35.9912 26.4789 35.7534 26.3794C35.5366 26.2871 35.3404 26.1526 35.176 25.9839C34.994 25.8016 34.8649 25.5733 34.803 25.3235C34.7012 25.0599 34.667 24.763 34.667 24.4669C34.667 24.1367 34.7004 23.8391 34.803 23.5757C34.9048 23.3115 35.04 23.0806 35.176 22.9151L35.1789 22.9123C35.3481 22.7485 35.517 22.5851 35.7534 22.4868C35.9912 22.3873 36.1956 22.3548 36.467 22.3548C36.7048 22.3548 36.9426 22.3873 37.1804 22.4868C37.4182 22.5857 37.5876 22.7177 37.7578 22.9151C37.928 23.0806 38.0632 23.3115 38.1316 23.5757ZM30.5906 26.2815C31.168 26.314 31.7456 26.3467 32.2888 26.3794V18H30.5906V26.2815ZM30.0808 22.5857C29.2996 22.4543 28.6872 22.5857 28.28 22.8826C27.8728 23.2126 27.6692 23.6744 27.6692 24.3014H27.6698V26.182C27.0582 26.1486 26.48 26.1486 25.8692 26.1486V21.0353H27.5666V22.19C27.7026 21.9258 27.8386 21.695 28.0422 21.5303C28.2369 21.3674 28.4544 21.2338 28.688 21.134C28.9162 21.0376 29.1561 20.971 29.4016 20.9358C29.4821 20.9358 29.5627 20.932 29.6419 20.9284C29.7965 20.9211 29.9461 20.9142 30.0808 20.9358V22.5857ZM22.4372 22.4868C22.675 22.5857 22.8444 22.7177 23.0146 22.9151C23.1848 23.0806 23.32 23.3115 23.3884 23.5757C23.4902 23.8391 23.5244 24.1367 23.5244 24.4661C23.5244 24.7963 23.4902 25.0932 23.3884 25.3241C23.2873 25.5865 23.1524 25.783 23.0173 25.9799L23.0146 25.9839L23.0075 25.9907L23.0075 25.9908C22.9422 26.0539 22.8758 26.1182 22.7768 26.182C23.4902 26.1486 24.1702 26.1486 24.883 26.1486C24.9001 26.0992 24.9255 26.058 24.951 26.0169L24.951 26.0168C24.9764 25.9757 25.0019 25.9345 25.019 25.8852C25.2226 25.4563 25.291 24.9612 25.291 24.4661C25.291 23.9385 25.1892 23.4762 25.019 23.0479C24.8152 22.619 24.5774 22.2226 24.2378 21.8932C23.8982 21.5629 23.5252 21.3322 23.1172 21.134C22.6729 20.961 22.2005 20.8717 21.7236 20.8706C21.2488 20.8706 20.7732 20.9693 20.331 21.134C19.9027 21.2956 19.5187 21.5557 19.2102 21.8932C18.8706 22.2226 18.6328 22.5857 18.429 23.0473C18.2256 23.4762 18.1572 23.9711 18.1572 24.4661C18.1572 24.9939 18.259 25.4563 18.429 25.8852C18.4968 26.0499 18.5986 26.2147 18.7004 26.3794C19.0403 26.3631 19.3885 26.3384 19.7367 26.3137L19.7368 26.3137L19.7369 26.3137C20.0851 26.2891 20.4332 26.2644 20.7732 26.248C20.6521 26.1705 20.5384 26.0821 20.4334 25.9839C20.2511 25.8016 20.1219 25.5733 20.0596 25.3235C19.9578 25.0599 19.9236 24.763 19.9236 24.4669C19.9236 24.1367 19.9578 23.8391 20.0596 23.5757C20.1614 23.3115 20.2976 23.0806 20.4334 22.9151C20.603 22.7504 20.7732 22.5857 21.011 22.4868C21.2488 22.3873 21.4524 22.3548 21.7236 22.3548C21.9614 22.3548 22.1994 22.3873 22.4372 22.4868ZM16.6968 21.0026H18.429L16.7302 26.5114C16.3349 26.5597 15.9395 26.6001 15.5481 26.64C15.1323 26.6825 14.7209 26.7245 14.3186 26.775L13.4692 24.1694L13.3672 23.8725C13.3515 23.8114 13.343 23.7574 13.3351 23.7072C13.326 23.6489 13.3176 23.5956 13.2996 23.5422C13.2839 23.4968 13.2754 23.4514 13.2675 23.4091C13.2582 23.3594 13.2498 23.3141 13.2314 23.2788C13.197 23.1793 13.197 23.1466 13.197 23.1133C13.197 23.1133 13.197 23.1801 13.1638 23.2453C13.1451 23.2812 13.1366 23.3269 13.1273 23.3769C13.1194 23.4191 13.1109 23.4644 13.0954 23.5095C13.0954 23.6083 13.0618 23.7404 13.0276 23.8391C12.9936 23.9711 12.96 24.0706 12.9258 24.1694L12.0422 27.1052C11.66 27.1585 11.2876 27.2211 10.9199 27.283C10.6012 27.3366 10.286 27.3896 9.97098 27.4354L8 21.0353H9.8342L10.7178 24.631C10.7355 24.6833 10.7439 24.7448 10.7528 24.8105C10.7608 24.8694 10.7693 24.9317 10.7854 24.9939C10.8014 25.0558 10.81 25.1177 10.818 25.1761C10.8271 25.2424 10.8356 25.3043 10.8538 25.3568C10.855 25.3603 10.8562 25.3638 10.8573 25.3673C10.8896 25.4632 10.9216 25.5583 10.9216 25.6537C10.9556 25.753 10.9556 25.7857 10.9556 25.819C10.9556 25.7857 10.9556 25.753 10.9892 25.6543C11.0063 25.6044 11.0149 25.5548 11.0234 25.5052C11.0319 25.4558 11.0404 25.4064 11.0574 25.3568C11.0957 25.237 11.1297 25.1159 11.1594 24.9939C11.1889 24.8717 11.2229 24.7507 11.2612 24.631L12.416 21.0359H13.9782L15.2698 24.5967C15.2877 24.6676 15.3057 24.7288 15.3238 24.7904C15.3397 24.8444 15.3556 24.8987 15.3716 24.9598C15.3878 25.0226 15.3963 25.0851 15.4043 25.1441C15.4133 25.2098 15.4216 25.271 15.4392 25.3227C15.4543 25.381 15.4628 25.4265 15.4704 25.4675C15.4801 25.5198 15.4885 25.5649 15.5076 25.6202C15.5412 25.7197 15.5412 25.7524 15.5412 25.785V25.6202C15.5412 25.5215 15.5412 25.422 15.5754 25.3235C15.5754 25.2246 15.6094 25.0926 15.6436 24.9604C15.6466 24.8367 15.6695 24.7141 15.7114 24.5975L16.6968 21.0026Z" fill="black"/>
</svg>
