<svg width="48" height="48" viewBox="0 0 48 48" fill="none" xmlns="http://www.w3.org/2000/svg">
<rect x="1" y="1" width="46" height="46" rx="23" fill="white" stroke="#F8F8F8" stroke-width="2"/>
<path fill-rule="evenodd" clip-rule="evenodd" d="M12.3489 19C12.9575 19 13.3774 19.3994 13.3774 19.9232C13.3774 20.4472 12.9575 20.8518 12.3489 20.8518H11.8406C11.71 20.9481 11.5467 21.0053 11.3696 21.0053C10.9404 21.0053 10.592 20.6687 10.592 20.2539C10.592 19.8389 10.9404 19.5014 11.3696 19.5014C11.7992 19.5014 12.1471 19.8389 12.1471 20.2539C12.1471 20.3615 12.1236 20.4637 12.0816 20.5563L12.3489 20.556C12.7553 20.556 13.0212 20.2938 13.0212 19.9284C13.0212 19.5634 12.7553 19.2966 12.3489 19.2966H11.9686V19.5684C11.9126 19.5024 11.8466 19.4424 11.774 19.3946C11.7282 19.3638 11.6794 19.3381 11.6287 19.3171V19H12.3489ZM20.1942 20.693C20.1274 20.6303 20.0737 20.5535 20.0356 20.4644C19.9967 20.3758 19.9779 20.2767 19.9779 20.1694V20.1644C19.9779 20.0639 19.995 19.9689 20.03 19.8808C20.0653 19.7923 20.1144 19.7153 20.1784 19.6493C20.2417 19.5828 20.3164 19.5308 20.4031 19.493C20.4896 19.4556 20.5859 19.4361 20.6913 19.4361C20.8074 19.4361 20.9092 19.456 20.9958 19.4973C21.0836 19.5373 21.1564 19.5921 21.2146 19.6611C21.2728 19.73 21.3167 19.8095 21.346 19.9005C21.3752 19.9918 21.39 20.0875 21.39 20.188C21.39 20.199 21.3896 20.2108 21.3892 20.2227L21.3889 20.2315L21.3848 20.2778H20.3118C20.3304 20.3927 20.378 20.4801 20.4543 20.5419C20.5313 20.6022 20.6234 20.6327 20.7321 20.6327C20.8158 20.6327 20.8869 20.6183 20.9478 20.5906C21.0083 20.5623 21.0682 20.5203 21.1274 20.466L21.3242 20.6327C21.2541 20.7118 21.17 20.7759 21.0739 20.8231C20.9769 20.8709 20.861 20.8949 20.7266 20.8949C20.6218 20.8949 20.5231 20.8768 20.4315 20.8422C20.3409 20.8067 20.2613 20.7565 20.1942 20.693ZM23.1801 20.8621L23.1768 20.87C23.1583 20.9166 23.0609 21.1528 22.9719 21.2142C22.8951 21.2517 22.7178 21.2485 22.6502 21.2441V21.5067L22.763 21.5065C22.8947 21.5058 23.0673 21.4997 23.1338 21.459C23.2456 21.3911 23.2707 21.3618 23.3475 21.2139C23.4304 21.052 24.07 19.4653 24.07 19.4653H23.7217L23.3475 20.49L22.9984 19.4653H22.6414L23.1838 20.8535L23.1801 20.8621ZM29.0645 21.6829C28.3784 21.6829 27.6924 21.9041 27.1867 22.3971V19.7213H25.2729V23.4651H31.9395C31.4234 22.3404 30.3857 21.6829 29.0645 21.6829ZM36.5153 29C37.7926 29 38.9595 28.4056 39.5647 27.2112H33.4596C34.0911 28.4204 35.3027 29 36.5153 29ZM39.7821 23.9028L37.606 23.9032C37.8899 24.1939 38.0496 24.6327 38.0496 25.2054C38.0496 25.96 37.866 26.4613 37.5732 26.7717H39.7509C39.9104 26.3186 40 25.7967 40 25.2054C40 24.7382 39.9228 24.3008 39.7821 23.9028ZM34.9622 25.3413C34.9625 24.6493 35.1365 24.1914 35.4113 23.9038H33.235C33.0913 24.3054 33.0125 24.7477 33.0125 25.2221C33.0125 25.8087 33.1043 26.3239 33.2662 26.7706H35.4306C35.1423 26.4697 34.9622 26.0015 34.9622 25.3413ZM33.4265 23.4651C34.0152 22.336 35.1705 21.6314 36.5153 21.6314C37.8717 21.6314 39.0135 22.3431 39.5923 23.4651H33.4265ZM27.1867 28.7448H25.2729V27.2112H31.9134C31.3569 28.3982 30.2425 28.9149 28.9016 28.9149C28.288 28.9149 27.638 28.6933 27.1867 28.1831V28.7448ZM29.8869 23.9038C30.1795 24.1945 30.3451 24.6329 30.3451 25.2054C30.3451 25.96 30.1547 26.4613 29.8536 26.772L32.0845 26.7717C32.2221 26.3351 32.2963 25.8262 32.2963 25.2391C32.2963 24.7518 32.2303 24.3051 32.1064 23.9038H29.8869ZM27.6237 23.9038C27.3402 24.1914 27.1609 24.6493 27.1609 25.3413C27.1609 26.0023 27.3467 26.4707 27.645 26.7717L25.2729 26.7706V23.9038H27.6237ZM22.139 28.7448H20.1352V27.2112H22.139V28.7448ZM20.1352 26.772H22.139V24.9672C22.139 24.5099 22.298 24.1757 22.6676 23.9035L20.1352 23.9038V26.772ZM22.1211 21.9377V22.6185C22.717 21.921 23.5112 21.7336 24.3413 21.8359V23.4651H20.1352V21.9377H22.1211ZM15.3763 28.9149C16.1889 28.9149 16.7846 28.6933 17.2543 28.1661V28.7448H19.2042V27.2112H12.8543C13.2513 28.3246 14.2973 28.9149 15.3763 28.9149ZM16.8696 26.772C17.1195 26.5502 17.2543 26.237 17.2543 25.8515V23.9038H19.2042V26.7715L16.8696 26.772ZM14.6361 25.9363V23.9038H12.6864V26.1922C12.6864 26.3965 12.7045 26.5897 12.7379 26.772L14.8696 26.7709C14.7267 26.5815 14.6361 26.3104 14.6361 25.9363ZM19.2042 23.4651H17.2543V21.9378H19.2042V23.4651ZM12.6864 23.4651H14.6361V21.9378H12.6864V23.4651ZM8 27.2133V27.2112H11.6312L12.0264 28.6083C11.4125 28.7958 10.6544 28.9322 9.85976 28.9322C8.68596 28.9322 8 28.2847 8 27.2133ZM9.93192 26.4967V23.9038H8V26.7717L10.0311 26.7712C9.97255 26.7134 9.93192 26.6613 9.93192 26.4967ZM9.93224 21.9377H11.7555V23.4651H8V20.3002L9.93224 19.7213V21.9377ZM21.9763 20.2627L21.9744 20.331V20.863H21.6402V19.4653H21.9744V19.696C22.085 19.5652 22.2554 19.5073 22.3751 19.4818L22.4229 19.4727L22.5371 19.7403C22.392 19.7609 22.1114 19.8327 22.0105 20.0875C21.9904 20.1382 21.9801 20.1971 21.9763 20.2627ZM21.058 20.0323H20.309C20.3236 19.9232 20.365 19.8685 20.4315 19.8001C20.5001 19.7316 20.5848 19.6987 20.6877 19.6987C20.7427 19.6987 20.7923 19.7074 20.8361 19.7259C20.8787 19.7442 20.9165 19.7708 20.9478 19.804C20.979 19.8369 21.0038 19.877 21.0227 19.9216C21.0269 19.9318 21.0308 19.9405 21.0343 19.9484C21.0461 19.9752 21.0539 19.9928 21.058 20.0323ZM19.1986 20.4927L18.8063 19.4653H18.4466L19.0471 20.8735H19.3478L19.9456 19.4653H19.5939L19.1986 20.4927ZM16.8767 20.172C16.8767 20.2709 16.8958 20.3642 16.9344 20.453C16.9736 20.5414 17.0276 20.6176 17.0963 20.6828C17.1658 20.7486 17.2475 20.7999 17.3427 20.8377C17.4373 20.8755 17.5404 20.8949 17.6507 20.8949C17.7631 20.8949 17.8681 20.8752 17.9633 20.8371C18.0587 20.7976 18.1415 20.7448 18.2108 20.679C18.2797 20.6129 18.3343 20.5356 18.3732 20.4472C18.4135 20.3591 18.4334 20.2658 18.4334 20.1666V20.161C18.4334 20.0607 18.4144 19.9668 18.3746 19.8791C18.3368 19.7923 18.2831 19.7153 18.2135 19.6493C18.1443 19.5828 18.0623 19.5308 17.9677 19.493C17.8726 19.4556 17.7691 19.4361 17.656 19.4361C17.5438 19.4361 17.4403 19.4556 17.3457 19.4938C17.2505 19.5332 17.1685 19.5853 17.0996 19.6517C17.0307 19.7186 16.9757 19.7955 16.9358 19.8835C16.8963 19.9712 16.8767 20.066 16.8767 20.1666V20.172ZM17.2113 20.1666C17.2113 20.2271 17.2224 20.2844 17.2445 20.3389C17.2664 20.3941 17.2974 20.4414 17.3374 20.483C17.3766 20.5247 17.4235 20.5573 17.4773 20.581C17.5324 20.6045 17.592 20.617 17.656 20.617C17.7242 20.617 17.7854 20.6045 17.8402 20.581C17.8944 20.5573 17.9409 20.5247 17.9799 20.4839C18.0187 20.4442 18.0475 20.3964 18.0679 20.3424C18.088 20.2887 18.0984 20.2319 18.0984 20.172V20.1666C18.0984 20.105 18.0869 20.0467 18.0651 19.9921C18.0435 19.9373 18.0119 19.8894 17.9733 19.8497C17.9332 19.8078 17.886 19.7761 17.832 19.7521C17.778 19.728 17.7175 19.7169 17.6507 19.7169C17.5842 19.7169 17.5242 19.728 17.4698 19.7521C17.4152 19.7761 17.3686 19.8078 17.3304 19.8481C17.2919 19.8877 17.2616 19.9343 17.2414 19.9877C17.2212 20.0422 17.2113 20.0998 17.2113 20.161V20.1666ZM16.7965 20.6321C16.6533 20.7856 16.4839 20.8941 16.2 20.8941C15.7653 20.8941 15.445 20.5683 15.445 20.1691C15.445 19.769 15.7653 19.4361 16.2025 19.4361C16.4477 19.4361 16.6107 19.5137 16.7391 19.6305L16.7857 19.6761L16.578 19.8911C16.4753 19.787 16.368 19.716 16.2 19.716C15.9558 19.716 15.7796 19.9172 15.7796 20.1634C15.7796 20.4152 15.9589 20.6157 16.2158 20.6157C16.3512 20.6157 16.4557 20.5637 16.549 20.4836L16.5948 20.4414L16.7965 20.6321ZM14.9881 20.4839V20.4794C14.9881 20.453 14.9795 20.4295 14.9619 20.4102C14.9437 20.3909 14.9203 20.3735 14.8891 20.3585C14.859 20.3438 14.8249 20.3307 14.7845 20.3189C14.7658 20.3133 14.7468 20.3079 14.7275 20.3024L14.7275 20.3024L14.7275 20.3024C14.7058 20.2962 14.6838 20.29 14.6615 20.2832C14.6077 20.269 14.5545 20.2524 14.5002 20.2326C14.4452 20.2134 14.3967 20.188 14.3531 20.1575C14.3095 20.1267 14.2748 20.0883 14.2469 20.0423C14.226 20.0077 14.2132 19.9674 14.2082 19.921L14.2055 19.8726V19.8676C14.2055 19.8008 14.2185 19.7409 14.2455 19.6887C14.2717 19.6364 14.3087 19.5921 14.3561 19.5554C14.403 19.5181 14.4579 19.49 14.522 19.4707C14.5857 19.4513 14.6532 19.4408 14.7249 19.4408C14.8173 19.4408 14.9104 19.4556 15.0047 19.4838C15.0675 19.5023 15.1261 19.5259 15.1812 19.5542L15.2612 19.6L15.1283 19.8283C15.0582 19.787 14.9881 19.7544 14.9158 19.731C14.8433 19.7074 14.7774 19.6957 14.7176 19.6957C14.6519 19.6957 14.6024 19.7087 14.5664 19.7345C14.5395 19.755 14.5227 19.7791 14.5161 19.8069L14.5128 19.8362V19.841C14.5128 19.8657 14.522 19.8877 14.5401 19.9055C14.5576 19.9248 14.5827 19.9414 14.6136 19.956C14.6435 19.971 14.6784 19.9847 14.7183 19.997L14.8411 20.0369C14.8947 20.0526 14.9482 20.0708 15.0014 20.0922C15.0555 20.1136 15.1034 20.14 15.1467 20.1708C15.1898 20.2013 15.2253 20.2388 15.2532 20.2832C15.274 20.316 15.2871 20.3547 15.2924 20.3987L15.2951 20.4446V20.4501C15.2951 20.5237 15.2811 20.5884 15.2532 20.6434C15.2253 20.6981 15.1873 20.7433 15.139 20.7796C15.0894 20.8151 15.0325 20.8427 14.9658 20.8621C14.8993 20.8803 14.8276 20.8891 14.7526 20.8891C14.6475 20.8891 14.5412 20.8717 14.4334 20.8371C14.3525 20.8102 14.2761 20.7743 14.2042 20.7289L14.1338 20.6804L14.2828 20.4631C14.3624 20.5196 14.4425 20.5623 14.5247 20.5912C14.6064 20.6211 14.6852 20.6355 14.7611 20.6355C14.8331 20.6355 14.8886 20.6212 14.928 20.5941C14.9583 20.5737 14.9768 20.5479 14.9843 20.5168L14.9881 20.4839ZM13.5711 20.8632H13.9054V19.4653H13.5711V20.8632Z" fill="black"/>
</svg>
