<svg width="48" height="48" viewBox="0 0 48 48" fill="none" xmlns="http://www.w3.org/2000/svg">
<rect x="1" y="1" width="46" height="46" rx="23" fill="white" stroke="#F8F8F8" stroke-width="2"/>
<path fill-rule="evenodd" clip-rule="evenodd" d="M38.5246 21.7629C37.2852 21.316 36.3633 21.5998 35.6791 22.2224L35.6781 22.2186L35.6609 22.1803C35.0628 21.6952 34.5671 21.6952 34.5671 21.6952C33.2703 21.6346 31.4435 22.2288 31.4435 22.2288C31.4435 22.2288 30.7641 21.0683 30.0038 21.1593C29.2435 21.2503 29.3853 22.4936 29.3853 22.4936C27.6314 20.9978 23.166 22.0873 23.1658 22.0873C23.197 22.076 23.2275 22.0624 23.2566 22.0464C24.1995 21.5309 24.4733 20.9775 24.4733 20.9775C24.6711 21.0381 25.918 20.8638 26.0017 19.8025C26.0853 18.7413 25.1956 18.2334 24.6406 18.1879C24.0855 18.1424 23.6369 18.4381 23.6369 18.4381C23.3708 17.1418 22.1009 17.3388 22.1009 17.3388C20.3445 17.6876 21.0287 19.2188 21.0287 19.2188C20.238 19.9391 20.2836 20.6136 20.2836 20.6136C15.6935 16.3887 10.4976 17.0356 10.4976 17.0356C9.06056 17.0734 7.92754 17.8544 8.00362 18.7184C8.0797 19.5827 9.04534 19.5827 9.04534 19.5827C10.0191 19.5827 10.0819 18.9156 10.0819 18.9156C12.1603 18.8145 13.4174 19.2795 13.4174 19.2795C13.0322 20.0374 12.9104 21.8974 12.9104 21.8974C12.9104 21.8974 9.76754 22.4633 9.88927 23.9794C10.011 25.4955 12.87 26.9309 12.87 26.9309C12.8802 27.2139 13.1962 28.1336 13.9953 28.1336C14.7944 28.1336 14.974 27.6486 14.974 27.6486C15.5095 27.8283 16.5548 27.7697 16.5548 27.7697V28.394C16.64 29.8774 18.1621 29.9217 18.1621 29.9217H34.069C34.1908 30.1342 34.737 30.9083 35.3782 30.9083C36.0196 30.9083 36.1752 30.1007 36.1854 29.8478C36.1955 29.5951 36.918 27.2117 36.918 27.2117L36.9177 27.2065C36.9387 27.2007 36.9595 27.1935 36.9807 27.1874C38.625 26.7041 40 25.5672 40 23.9841C40 22.401 38.5246 21.7629 38.5246 21.7629Z" fill="#003A7B"/>
<path d="M26.32 27.2843C26.328 27.1717 26.4154 27.093 26.5304 27.0922C26.6422 27.0919 26.7366 27.1733 26.7457 27.2817C26.7484 27.3111 26.7459 27.3411 26.7435 27.371L26.7421 27.3882C26.7382 27.4426 26.7337 27.497 26.7293 27.5514C26.7206 27.6565 26.7119 27.7616 26.7075 27.8669C26.7002 28.0488 26.6951 28.2307 26.6899 28.4125C26.6864 28.5398 26.6828 28.6671 26.6784 28.7944C26.6748 28.8939 26.6662 28.993 26.657 29.092C26.6496 29.1722 26.6138 29.2424 26.5647 29.3064C26.4803 29.4178 26.3323 29.4476 26.211 29.373C26.1652 29.3446 26.1238 29.3068 26.0877 29.2671C26.0148 29.1869 25.9443 29.1046 25.877 29.0199C25.7746 28.8905 25.6728 28.7607 25.571 28.6309C25.4904 28.5281 25.4096 28.425 25.3286 28.3224C25.3238 28.3163 25.3193 28.3098 25.3147 28.3033C25.2992 28.2813 25.2834 28.2589 25.2566 28.2484C25.2364 28.2597 25.2375 28.2751 25.2385 28.2893C25.2387 28.2922 25.2389 28.2952 25.2389 28.298C25.2413 28.4436 25.2447 28.5893 25.2482 28.735L25.2519 28.909C25.2551 29.0643 25.2584 29.2199 25.2629 29.3751C25.2654 29.4523 25.2348 29.5144 25.1781 29.5642C25.1195 29.6148 25.0512 29.6357 24.9732 29.6078C24.9054 29.5836 24.862 29.5377 24.8493 29.4693C24.8421 29.4308 24.8403 29.3913 24.8395 29.3524L24.8345 29.0582C24.8295 28.7723 24.8244 28.4865 24.8224 28.2004C24.8216 28.0839 24.8271 27.9674 24.8325 27.851C24.8346 27.8077 24.8366 27.7641 24.8383 27.7207C24.8387 27.7085 24.8411 27.6963 24.8435 27.6841C24.8459 27.6717 24.8483 27.6593 24.8486 27.6468C24.8521 27.5028 25.073 27.4018 25.205 27.5126C25.2631 27.5613 25.3175 27.6158 25.365 27.674C25.4672 27.7985 25.5662 27.9255 25.6652 28.0523L25.7275 28.1322C25.861 28.3025 25.9933 28.4737 26.1255 28.645C26.1402 28.6638 26.1539 28.6834 26.1676 28.7031C26.1787 28.7189 26.1897 28.7347 26.2013 28.75C26.2073 28.7579 26.2148 28.7649 26.2256 28.775C26.2326 28.7814 26.241 28.7892 26.2512 28.7993C26.2525 28.785 26.2537 28.7741 26.2547 28.7653C26.2563 28.751 26.2573 28.7423 26.2573 28.7337C26.257 28.4303 26.2736 28.1275 26.2902 27.8249C26.2952 27.7335 26.3003 27.6419 26.3048 27.5505C26.309 27.4617 26.3139 27.373 26.32 27.2843Z" fill="white"/>
<path d="M28.6049 27.2169C28.5371 27.2205 28.4758 27.2624 28.4391 27.3367C28.4157 27.3844 28.409 27.434 28.4144 27.486L28.4217 27.5535C28.4306 27.6363 28.4396 27.7199 28.4482 27.8028C28.4797 28.105 28.5111 28.4071 28.5418 28.7094C28.5438 28.7302 28.5434 28.7512 28.5429 28.7779C28.5426 28.792 28.5423 28.8077 28.5423 28.8258C28.5308 28.8164 28.5215 28.8092 28.5137 28.8031C28.5007 28.793 28.492 28.7862 28.4844 28.7783L28.415 28.7072C28.3187 28.6087 28.2226 28.5103 28.1277 28.4103C28.0509 28.3293 27.9746 28.2478 27.8983 28.1664C27.813 28.0753 27.7277 27.9843 27.6417 27.8939C27.582 27.8305 27.5197 27.7693 27.4552 27.7105C27.4207 27.679 27.3821 27.6498 27.3412 27.628C27.2204 27.5643 27.0752 27.6321 27.0443 27.7654C27.0352 27.8045 27.03 27.8451 27.0289 27.885L27.0281 27.911C27.0256 27.9902 27.0231 28.0698 27.0275 28.1486C27.0487 28.5174 27.072 28.8858 27.0953 29.2544L27.1003 29.3326C27.102 29.3617 27.1065 29.3913 27.1142 29.4194C27.139 29.5075 27.2094 29.5595 27.299 29.5582C27.4086 29.5566 27.5057 29.462 27.5122 29.3499C27.5137 29.3207 27.5122 29.2914 27.51 29.2622C27.4982 29.094 27.4864 28.9262 27.4733 28.7582C27.4692 28.7049 27.464 28.6518 27.4589 28.5986C27.4542 28.55 27.4494 28.5007 27.4455 28.452C27.4437 28.4291 27.4442 28.4059 27.4447 28.3789C27.4449 28.365 27.4452 28.3501 27.4452 28.3337C27.4534 28.3393 27.4604 28.3435 27.4663 28.3471C27.4761 28.353 27.4831 28.3573 27.4886 28.3631C27.5291 28.4046 27.5693 28.4473 27.6086 28.4901C27.8234 28.7223 28.0391 28.954 28.2753 29.1643C28.3431 29.2246 28.4135 29.282 28.4863 29.3358C28.5266 29.3656 28.5726 29.3896 28.6187 29.4095C28.821 29.4959 29.0005 29.3148 29.0006 29.1615C29.0006 29.1251 29.0006 29.0884 28.9981 29.0519C28.9958 29.0171 28.9922 28.9825 28.9887 28.948L28.9837 28.8986L28.9676 28.7258C28.9561 28.6012 28.9446 28.4766 28.9323 28.3519C28.9177 28.206 28.9026 28.0601 28.8874 27.9142L28.8739 27.7841C28.8679 27.7271 28.8614 27.6701 28.855 27.6131C28.8479 27.5503 28.8408 27.4869 28.8342 27.4241C28.8261 27.3499 28.7917 27.293 28.7301 27.2531C28.6885 27.2264 28.6455 27.2147 28.6049 27.2169Z" fill="white"/>
<path d="M31.621 27.268C31.6493 27.241 31.6844 27.2296 31.7224 27.2307C31.7351 27.231 31.7479 27.2329 31.7613 27.2359C31.8799 27.2636 31.9473 27.3471 31.95 27.478C31.9544 27.6869 31.9583 27.8958 31.9622 28.1047L31.9623 28.108C31.9658 28.2945 31.9694 28.481 31.9732 28.6675C31.9751 28.7656 31.9794 28.8633 31.9838 28.9612C31.9843 28.9735 31.9867 28.9867 31.9889 28.9983L31.9914 29.012C32.0275 29.0267 32.0587 29.0195 32.0887 29.0125L32.1012 29.0097C32.3525 28.9546 32.6068 28.9275 32.8634 28.9267C33.0165 28.9264 33.1696 28.9271 33.3225 28.9311C33.3834 28.9325 33.4442 28.939 33.5049 28.9456L33.5457 28.9499C33.6002 28.9555 33.6483 28.9791 33.6907 29.0139C33.7956 29.1006 33.7892 29.284 33.6651 29.3452C33.6052 29.3745 33.5481 29.3879 33.4813 29.3827C33.1045 29.354 32.7275 29.3493 32.3526 29.4093C32.2885 29.4197 32.2246 29.4323 32.1608 29.4448C32.1233 29.4522 32.0859 29.4595 32.0485 29.4664C31.9776 29.4795 31.9072 29.4818 31.8364 29.4653C31.6769 29.4283 31.5754 29.3177 31.5519 29.1516C31.5468 29.1155 31.545 29.0791 31.5442 29.0429C31.5337 28.5523 31.5236 28.0614 31.5135 27.5707L31.5128 27.5367C31.5127 27.5319 31.5127 27.527 31.5128 27.5221C31.5129 27.5123 31.513 27.5026 31.5119 27.493C31.5009 27.394 31.5581 27.3279 31.621 27.268Z" fill="white"/>
<path d="M30.7682 27.3961C30.803 27.3923 30.8378 27.3886 30.8728 27.3882C30.985 27.3875 31.0708 27.4528 31.0998 27.5526C31.1197 27.6206 31.1015 27.679 31.0519 27.7281C30.9991 27.7806 30.9352 27.8104 30.8587 27.8147C30.8135 27.8173 30.7684 27.8206 30.7232 27.8239C30.6489 27.8294 30.5745 27.8348 30.4999 27.8374C30.3547 27.8426 30.2094 27.8464 30.0641 27.8502C29.9734 27.8526 29.8827 27.8549 29.792 27.8577C29.7751 27.8581 29.7583 27.8605 29.7409 27.8629C29.7332 27.864 29.7254 27.8652 29.7173 27.8661C29.7055 27.9109 29.7105 27.9521 29.7153 27.9922C29.7164 28.0009 29.7174 28.0095 29.7183 28.0181C29.722 28.054 29.7301 28.0896 29.7382 28.1251L29.7446 28.1535C29.7497 28.1767 29.7663 28.1899 29.7906 28.1911C29.8085 28.1924 29.827 28.1926 29.845 28.1911C30.1021 28.1719 30.3591 28.1522 30.616 28.1319C30.6506 28.1291 30.6851 28.1236 30.7194 28.1182L30.7451 28.1141C30.8212 28.1022 30.9355 28.1656 30.9592 28.2755C30.9723 28.3386 30.9575 28.3949 30.9067 28.4401C30.8568 28.4846 30.8002 28.5108 30.733 28.5218C30.5247 28.5557 30.3155 28.5761 30.1051 28.5871C30.0336 28.5906 29.962 28.5949 29.8864 28.5994L29.8021 28.6043C29.7945 28.7087 29.8178 28.7979 29.8417 28.8895C29.8457 28.9046 29.8496 28.9199 29.8535 28.9353C29.8629 28.9363 29.8723 28.9378 29.8815 28.9392C29.9009 28.9422 29.9201 28.9451 29.9388 28.9441C29.9667 28.9424 29.9946 28.9409 30.0225 28.9394C30.1251 28.9338 30.2278 28.9282 30.3293 28.9148C30.4519 28.8986 30.5739 28.8779 30.6959 28.8573C30.7599 28.8464 30.8241 28.8356 30.8883 28.8253L30.9009 28.8233C30.9434 28.8164 30.9862 28.8094 31.0286 28.8084C31.123 28.8064 31.1909 28.8536 31.2218 28.9359C31.2565 29.0285 31.2344 29.1199 31.1614 29.1767C31.1067 29.2194 31.0463 29.2528 30.9774 29.2663L30.9644 29.2688C30.8833 29.2845 30.8019 29.3002 30.72 29.3071C30.629 29.3148 30.5375 29.3187 30.4461 29.3226C30.3995 29.3245 30.3529 29.3265 30.3064 29.329C30.205 29.3347 30.1034 29.341 30.0021 29.3472C29.8933 29.3541 29.7851 29.3595 29.6767 29.3367C29.5621 29.3127 29.4871 29.2511 29.4612 29.1384L29.4448 29.068C29.4251 28.9843 29.4053 28.9005 29.3912 28.8159C29.3392 28.5008 29.3115 28.1831 29.2838 27.8653L29.2791 27.8106C29.2719 27.7265 29.2855 27.6497 29.3324 27.5772C29.374 27.5132 29.4298 27.4713 29.5035 27.4551C29.56 27.4424 29.6181 27.4351 29.6758 27.4316C29.7142 27.4293 29.7529 27.4298 29.7915 27.4303C29.8219 27.4306 29.8523 27.431 29.8825 27.43C30.1475 27.422 30.4126 27.4136 30.6773 27.4037C30.7077 27.4026 30.738 27.3993 30.7682 27.3961Z" fill="white"/>
<path fill-rule="evenodd" clip-rule="evenodd" d="M23.3712 27.1532C23.342 27.1532 23.3119 27.158 23.2813 27.1681C23.2226 27.1872 23.1788 27.2252 23.1514 27.2773C23.1075 27.3607 23.0642 27.4446 23.0301 27.5322C22.9317 27.785 22.8607 28.0467 22.7898 28.3081L22.7663 28.3948C22.7602 28.4171 22.7539 28.4393 22.7474 28.462L22.7335 28.5115L22.6889 28.5291C22.6554 28.5422 22.6228 28.555 22.5908 28.5692L22.5861 28.5712C22.5545 28.585 22.5223 28.599 22.4944 28.6188C22.4411 28.6566 22.4091 28.7111 22.4166 28.777C22.4276 28.8748 22.4593 28.9621 22.5688 28.9927C22.5777 28.995 22.5861 28.9997 22.596 29.0051C22.6007 29.0077 22.6057 29.0105 22.6113 29.0133C22.6103 29.0205 22.6096 29.0277 22.6089 29.0347C22.6074 29.0494 22.6059 29.0636 22.6025 29.0773C22.5865 29.1403 22.5699 29.2037 22.5519 29.2663C22.5329 29.3315 22.5377 29.3954 22.5592 29.4588C22.5792 29.5174 22.6198 29.5533 22.6778 29.5767C22.7643 29.6115 22.8924 29.553 22.9346 29.4482C22.9456 29.421 22.9524 29.3919 22.9593 29.3628L22.9613 29.3543L22.9799 29.2761C23.0091 29.1541 23.0383 29.032 23.0656 28.9096C23.0767 28.8586 23.1012 28.8269 23.1515 28.8092C23.2735 28.7662 23.3951 28.7223 23.5167 28.6785C23.6097 28.645 23.7027 28.6115 23.7959 28.5783C23.8087 28.5738 23.8227 28.573 23.8371 28.5723C23.8442 28.5719 23.8515 28.5716 23.8587 28.5708L23.8756 28.5995C23.8897 28.6234 23.9028 28.6458 23.9147 28.6688C24.025 28.8812 24.1349 29.0937 24.2447 29.3061C24.2494 29.3151 24.2539 29.3243 24.2583 29.3334C24.2666 29.3504 24.2749 29.3673 24.2847 29.3835C24.3644 29.5133 24.534 29.5179 24.6179 29.3908C24.673 29.3072 24.6899 29.2199 24.6381 29.1246C24.598 29.0504 24.5604 28.9748 24.5229 28.8992C24.5008 28.8547 24.4787 28.8102 24.456 28.7659C24.4116 28.679 24.3668 28.5922 24.3199 28.5015L24.2502 28.3665L24.2557 28.3489C24.2609 28.3328 24.2664 28.3153 24.2708 28.2975C24.2919 28.2095 24.2579 28.1301 24.1798 28.085L24.1737 28.0813C24.163 28.0748 24.1521 28.0682 24.1406 28.0668C24.0912 28.0602 24.0673 28.0268 24.0452 27.9871L24.0337 27.9663C23.9833 27.8748 23.9328 27.7832 23.8775 27.6948C23.8005 27.572 23.721 27.4508 23.6369 27.3328C23.6017 27.2835 23.5556 27.2399 23.5079 27.2021C23.4661 27.1692 23.4199 27.1537 23.3712 27.1532ZM23.6326 28.1783C23.603 28.0813 23.4615 27.841 23.4003 27.7833C23.3564 27.8457 23.3224 27.9483 23.2433 28.2631C23.2405 28.2738 23.2405 28.285 23.2405 28.2972C23.2406 28.3027 23.2406 28.3083 23.2403 28.3141C23.4265 28.268 23.5666 28.2192 23.6326 28.1783Z" fill="white"/>
<path d="M21.7928 27.154C21.7793 27.154 21.7652 27.1549 21.7509 27.1568C21.6243 27.1753 21.5569 27.2495 21.5584 27.369C21.5584 27.38 21.5595 27.3909 21.5605 27.4018C21.5612 27.4091 21.5618 27.4164 21.5622 27.4238L21.5677 27.5317C21.5758 27.6896 21.5839 27.8473 21.5911 28.0051C21.5918 28.0219 21.5892 28.0389 21.5864 28.0565C21.5852 28.0645 21.5839 28.0726 21.5829 28.0809C21.484 28.1006 21.3887 28.1295 21.2943 28.1581C21.1997 28.1868 21.1058 28.2152 21.0099 28.234C20.989 28.2031 20.9902 28.173 20.9913 28.1439C20.9916 28.1366 20.9919 28.1293 20.9919 28.1221C20.9915 28.0551 20.9915 27.9879 20.9914 27.9208C20.9913 27.8269 20.9913 27.7329 20.9904 27.639C20.9898 27.5952 20.9842 27.5513 20.9752 27.5086C20.9632 27.4517 20.9261 27.4117 20.8756 27.3838C20.7247 27.3005 20.5373 27.4075 20.5349 27.5799C20.5346 27.6085 20.5371 27.6371 20.5397 27.6657C20.542 27.6918 20.5443 27.7179 20.5445 27.7441C20.5461 27.9344 20.5459 28.1248 20.5453 28.3152C20.5453 28.3322 20.5423 28.3491 20.5395 28.3652C20.5382 28.3725 20.5369 28.3797 20.536 28.3866C20.5131 28.3937 20.4908 28.4005 20.4688 28.4071C20.4216 28.4213 20.3763 28.4349 20.3316 28.4508C20.2653 28.4741 20.2201 28.521 20.2024 28.59C20.1647 28.735 20.3004 28.8824 20.4483 28.8581C20.4666 28.8552 20.4847 28.8515 20.5022 28.8479L20.529 28.8424C20.5478 28.8754 20.547 28.9058 20.5462 28.935C20.546 28.9424 20.5458 28.9498 20.5459 28.9571C20.5472 29.045 20.5476 29.133 20.547 29.2208C20.5464 29.2738 20.5619 29.3218 20.5893 29.3664C20.6384 29.447 20.7304 29.4802 20.8181 29.4457C20.9184 29.4062 20.9832 29.3366 20.9829 29.223C20.9829 29.1406 20.9809 29.0582 20.9789 28.9758L20.9768 28.8829C20.976 28.8514 20.9748 28.8198 20.9736 28.7883L20.9723 28.7513C20.9713 28.7173 20.9886 28.6966 21.0207 28.6873C21.0278 28.6852 21.0347 28.6828 21.0417 28.6803C21.0486 28.6779 21.0555 28.6755 21.0626 28.6733L21.188 28.6362C21.3008 28.6028 21.4136 28.5694 21.5266 28.5366C21.5426 28.5319 21.559 28.5291 21.5778 28.5259C21.5873 28.5244 21.5974 28.5227 21.6083 28.5206L21.6126 28.5565C21.6159 28.583 21.6189 28.6078 21.6203 28.6326C21.6322 28.8556 21.6433 29.0787 21.6535 29.3019C21.6555 29.3499 21.6618 29.3963 21.6814 29.4407C21.723 29.5351 21.8187 29.5786 21.9172 29.5469C22.0314 29.5104 22.0938 29.4188 22.0879 29.2964C22.0865 29.2675 22.0846 29.2388 22.0827 29.21C22.0803 29.173 22.0779 29.136 22.0766 29.0989L22.0737 29.0175C22.0673 28.8287 22.0608 28.64 22.0352 28.4526C22.0338 28.4425 22.0348 28.432 22.0357 28.4234L22.0364 28.4147C22.0385 28.4121 22.04 28.4099 22.0413 28.408C22.0437 28.4046 22.0452 28.4025 22.0472 28.4018C22.0706 28.3929 22.0943 28.3839 22.1181 28.3764C22.1757 28.3585 22.2229 28.3281 22.2637 28.2823C22.3448 28.1911 22.317 27.9869 22.1493 27.951C22.1266 27.9461 22.1033 27.9431 22.0789 27.94C22.0657 27.9383 22.0522 27.9366 22.0383 27.9345C22.0373 27.9285 22.0363 27.9226 22.0352 27.9168C22.033 27.9042 22.0308 27.8922 22.0301 27.8801L22.0235 27.7374C22.0187 27.6351 22.014 27.5327 22.0083 27.4304C22.006 27.3869 22.003 27.342 21.9911 27.3003C21.9643 27.2081 21.8882 27.1546 21.7928 27.154Z" fill="white"/>
<path d="M19.0072 27.3678C19.1013 27.3491 19.1959 27.3326 19.2924 27.3336C19.3061 27.3337 19.3199 27.334 19.3338 27.3348C19.4272 27.3402 19.5131 27.3671 19.5911 27.4191C19.67 27.4719 19.7252 27.5436 19.752 27.6343C19.7749 27.7124 19.7668 27.7868 19.7045 27.8471C19.6399 27.91 19.5625 27.9342 19.4736 27.9174C19.4242 27.9082 19.3831 27.8815 19.3624 27.8362C19.3297 27.7642 19.2734 27.7607 19.2069 27.7682C19.0708 27.7836 18.9428 27.825 18.8193 27.8821C18.6861 27.9439 18.5584 28.0155 18.4405 28.1022C18.293 28.2101 18.1487 28.3226 18.0057 28.4362C17.934 28.4931 17.8684 28.5579 17.8198 28.6363C17.7368 28.77 17.7685 28.7911 17.8717 28.8548C17.9602 28.9093 18.059 28.937 18.1641 28.9364C18.1961 28.9362 18.2281 28.9363 18.2601 28.9363C18.3562 28.9363 18.4524 28.9363 18.5483 28.9319C18.9173 28.9146 19.2864 28.8937 19.653 28.8459C19.715 28.8378 19.7762 28.8246 19.8374 28.8114C19.8656 28.8053 19.8938 28.7992 19.9221 28.7937C19.929 28.7923 19.9359 28.7907 19.9429 28.7892C19.9572 28.7859 19.9715 28.7827 19.9861 28.7814C20.0744 28.7736 20.1701 28.8205 20.2008 28.9303C20.2279 29.0283 20.2043 29.1129 20.1152 29.1656C20.0687 29.1929 20.0155 29.2119 19.9632 29.2252C19.8891 29.2442 19.8129 29.2572 19.737 29.2675C19.6173 29.284 19.4976 29.2999 19.3773 29.3093C19.1977 29.3234 19.0179 29.3355 18.8381 29.3476C18.7551 29.3532 18.672 29.3588 18.5889 29.3646V29.3588C18.5484 29.36 18.5079 29.3614 18.4675 29.3628C18.3909 29.3654 18.3143 29.368 18.2377 29.3693C18.0905 29.3722 17.9454 29.3599 17.8053 29.3094C17.6643 29.2591 17.5424 29.1814 17.4475 29.065C17.3159 28.9041 17.2832 28.727 17.3646 28.5326C17.3989 28.4512 17.446 28.377 17.5037 28.3107C17.5493 28.2584 17.5964 28.207 17.6483 28.161C17.8839 27.9516 18.1338 27.7612 18.4077 27.6043C18.5958 27.4964 18.793 27.4101 19.0072 27.3678Z" fill="white"/>
<path d="M30.1207 21.674C29.9875 21.674 29.9623 21.8147 29.9623 21.963C29.9623 22.1739 30.098 22.6239 30.2432 23.1054C30.4102 23.6593 30.5897 24.2548 30.5897 24.576C30.5897 24.698 30.5798 24.919 30.4818 24.9501C30.4262 24.9661 30.2113 24.649 29.9355 24.2422C29.4689 23.5538 28.828 22.6083 28.4892 22.5829C27.9329 22.5402 27.6333 24.9076 27.6362 25.4906C27.6362 26.0685 27.7413 26.4616 28.1761 26.4593C28.5686 26.4593 28.5965 25.5741 28.6183 24.8871C28.6321 24.4513 28.6433 24.0952 28.7435 24.0952C28.8134 24.0952 28.997 24.3817 29.2304 24.746C29.6381 25.3826 30.198 26.2566 30.5701 26.2552C31.2029 26.253 31.5781 25.3275 31.577 24.7261C31.5725 23.351 30.6536 21.6698 30.1207 21.674Z" fill="white"/>
<path fill-rule="evenodd" clip-rule="evenodd" d="M36.5135 22.1779C36.5411 22.1557 36.5681 22.1465 36.5937 22.1481C36.7312 22.1567 36.8244 22.4775 36.7061 22.7269C36.6712 22.8019 36.5963 22.9355 36.5048 23.0986C36.2466 23.5592 35.8559 24.256 35.857 24.5402C35.857 24.6191 35.8818 24.7084 35.9268 24.8008C36.6338 23.8991 37.8451 22.5604 38.476 22.5266C38.6999 22.5113 39.4161 22.8008 39.4209 24.0133C39.4236 25.2216 37.9642 26.6282 36.6501 26.6332C36.5846 26.6332 36.5243 26.628 36.4639 26.6216C36.3355 27.1673 35.9613 28.4466 35.7304 29.147C35.6532 29.3679 35.6061 29.637 35.5657 29.8675C35.5174 30.1433 35.4787 30.3637 35.41 30.3801C35.0774 30.4478 34.5251 29.9112 34.5141 29.365C34.4982 28.4295 34.9572 26.9557 35.2284 26.0848L35.2294 26.0818C35.2645 25.969 35.2965 25.8663 35.3239 25.7763C35.1745 25.4764 35.1049 25.1504 35.1049 24.8811C35.1027 23.7109 36.1784 22.4533 36.5135 22.1779ZM38.8172 23.8864C38.8172 23.5896 38.7413 23.3863 38.5424 23.3863C38.2588 23.3816 37.4882 24.5987 36.9585 25.5182C37.7351 25.5306 38.8172 24.7857 38.8172 23.8864Z" fill="white"/>
<path d="M34.358 22.2069C34.3199 22.2061 34.281 22.208 34.2418 22.212C33.9831 22.2402 33.706 22.2613 33.4343 22.282C32.5722 22.3476 31.7637 22.4091 31.7637 22.6795C31.7637 22.9006 32.0537 23.0341 32.2533 23.126C32.3542 23.1724 32.432 23.2082 32.4376 23.2393C32.4548 23.3278 32.353 23.674 32.3143 23.7826C32.3003 23.8243 32.2302 23.8557 32.1448 23.8938C31.9937 23.9613 31.7947 24.0502 31.775 24.2563C31.7721 24.2905 31.7955 24.3327 31.8201 24.3774C31.8504 24.4321 31.8827 24.4906 31.871 24.5422C31.8475 24.6278 31.8092 24.7422 31.7677 24.8661C31.6772 25.1365 31.5715 25.4522 31.5717 25.6116C31.5717 25.9733 31.8384 26.7763 32.5695 26.7488C33.7292 26.7132 34.766 25.9002 34.7839 25.7567C34.8081 25.5443 34.4909 25.2946 34.2685 25.2946C34.1796 25.2946 33.9257 25.3393 33.6477 25.3884C33.2305 25.4619 32.7591 25.5451 32.7096 25.5008C32.6263 25.4237 32.7838 24.696 32.9398 24.6477C33.05 24.6138 33.5634 24.6098 33.9151 24.607C34.0658 24.6058 34.1868 24.6048 34.2337 24.6019C34.6892 24.5758 34.6032 23.9575 34.3217 23.9346C34.2862 23.9312 34.2051 23.9285 34.1024 23.9251C33.7912 23.9149 33.2817 23.898 33.2434 23.8362C33.1971 23.7567 33.2597 23.3433 33.3563 23.3007C33.4902 23.2439 34.1169 23.2102 34.5599 23.1864C34.7912 23.1739 34.9724 23.1642 35.0073 23.1553C35.175 23.1112 35.2972 23.0221 35.3375 22.8784C35.3751 22.7424 34.9314 22.2169 34.358 22.2069Z" fill="white"/>
<path d="M23.0476 23.6312C23.0454 22.3286 25.3417 22.2768 25.7946 22.2731L25.8066 22.2731C26.4127 22.2724 27.4711 22.2713 27.4711 22.6884C27.4711 23.0697 26.4731 23.1351 25.551 23.1956C24.7608 23.2475 24.0263 23.2957 24.0236 23.5358C24.0213 23.6693 24.5696 23.7138 25.1646 23.762C25.2637 23.77 25.3641 23.7781 25.4635 23.7868C26.3913 23.8681 27.4564 23.9997 27.4589 25.1375C27.4613 25.6053 27.0624 26.5121 25.4854 26.5195C23.8864 26.5267 23.3168 25.6916 23.3168 25.3377C23.3133 24.6564 23.9554 24.4709 24.4034 24.4677C24.8299 24.4677 26.2048 24.6335 26.2048 24.9802C26.2048 25.1691 25.8588 25.3537 25.4465 25.3571C25.2194 25.3577 24.9379 25.2459 24.6814 25.144C24.4667 25.0588 24.2695 24.9805 24.1367 24.981C23.8426 24.981 23.713 25.1785 23.713 25.2963C23.713 25.4139 23.7286 25.643 24.5113 25.6384C24.8881 25.6384 26.7293 25.4329 26.7293 24.9151C26.7245 24.6853 25.882 24.4525 25.1891 24.3826C25.0037 24.3636 24.7979 24.3589 24.5892 24.3541C23.8375 24.337 23.0492 24.319 23.0476 23.6312Z" fill="white"/>
<path d="M21.7465 24.6958L21.7449 24.7844C21.7146 26.3131 21.9389 26.4919 22.342 26.4919C22.7022 26.4919 22.825 26.4477 22.7941 25.1677C22.7377 22.7371 22.5748 22.2701 22.2211 22.2701C21.7899 22.2749 21.7596 23.9648 21.7465 24.6958Z" fill="white"/>
<path fill-rule="evenodd" clip-rule="evenodd" d="M21.3348 18.5368C21.3348 18.0952 21.7337 17.7374 22.2257 17.7374C22.7558 17.7582 23.1173 18.0666 23.1163 18.5368C23.1013 18.7052 23.0387 18.8823 22.9474 19.032C23.1899 19.0527 23.4081 19.144 23.6001 19.3079C23.6253 19.3294 23.6509 19.3487 23.6777 19.365C23.7309 18.97 24.0081 18.6695 24.4647 18.6342C24.9002 18.6375 25.3874 18.9044 25.4705 19.4293C25.5304 19.928 25.2959 20.3449 24.6818 20.4395C24.5071 20.4605 24.338 20.4295 24.1896 20.359C24.1248 20.4878 24.039 20.6037 23.9397 20.7104C23.5853 21.091 23.1617 21.3647 22.6605 21.5168C22.5116 21.562 22.3593 21.5866 22.134 21.5815C22.0337 21.5777 21.8655 21.5633 21.7013 21.5212L21.6935 21.5194L21.6848 21.5175L21.6825 21.5171C21.6815 21.5169 21.6805 21.5167 21.6796 21.5167C21.4067 21.4654 21.1704 21.3115 21.0122 21.0968L21.0084 21.091C20.8879 20.9234 20.8271 20.7363 20.8288 20.5288C20.8299 20.4097 20.8598 20.299 20.9083 20.192C21.038 19.9043 21.2432 19.6771 21.4917 19.4872C21.516 19.4687 21.5406 19.451 21.5653 19.4337C21.6591 19.3677 21.7557 19.3098 21.8553 19.2602C21.5982 19.1165 21.3348 18.8227 21.3348 18.5368ZM23.7929 20.0862C23.7929 20.0041 23.7449 19.7884 23.4752 19.7884C23.2151 19.7895 22.7864 20.0836 22.4172 20.3989C22.3548 20.4519 22.2936 20.5063 22.2332 20.5619L22.2266 20.568C22.2199 20.5742 22.2132 20.5805 22.2064 20.5866C22.1868 20.605 22.1673 20.6233 22.1479 20.6419C22.1312 20.6575 22.1149 20.6732 22.0991 20.6888C22.0537 20.7328 22.0089 20.7772 21.9646 20.8224L21.953 20.8339C21.94 20.8467 21.9267 20.8597 21.9165 20.8753C21.9013 20.8916 21.8867 20.9076 21.8729 20.923C22.0024 20.9637 22.1538 20.9882 22.3344 20.9882C22.7736 20.9865 23.7929 20.5805 23.7929 20.0862ZM22.3929 19.6684C22.1359 19.8213 21.8741 20.0136 21.6508 20.219C21.5838 20.2819 21.518 20.3476 21.4529 20.4158C21.425 20.4462 21.3979 20.4767 21.3722 20.5071C21.3657 20.4853 21.3606 20.4632 21.3571 20.4415C21.3511 20.4179 21.3505 20.3948 21.3533 20.3727C21.3692 20.1349 21.7168 19.7786 22.3929 19.6684Z" fill="white"/>
<path fill-rule="evenodd" clip-rule="evenodd" d="M11.4884 17.571C11.5601 17.5691 11.6319 17.568 11.7039 17.568C16.2385 17.5614 21.3428 21.2434 21.3488 23.82C21.3568 25.7702 19.2203 27.194 16.562 27.2009C15.8804 27.2034 15.2371 27.1135 14.6443 26.962C14.6045 27.2553 14.4777 27.5342 14.098 27.5342C13.574 27.5371 13.4633 27.1333 13.4305 26.543C11.5991 25.7466 10.4642 24.4384 10.4642 23.9181C10.4619 23.2817 11.8697 22.6379 13.455 22.3939C13.4862 21.6519 13.593 20.2957 13.9588 20.2936C14.4065 20.2928 14.5193 21.5215 14.5452 22.3044H14.6688C17.4937 22.293 18.3587 23.1143 18.3621 23.8102C18.3629 24.3371 17.7682 24.6717 17.7144 24.6655C17.6489 24.66 17.5808 24.6573 17.5148 24.6547C17.2886 24.6458 17.0855 24.6377 17.0831 24.5214C17.0831 24.4221 17.173 24.3359 17.264 24.2487C17.3573 24.1593 17.4517 24.0688 17.4517 23.962C17.4506 23.7168 16.0677 23.3437 15.0133 23.3455C14.9258 23.3455 14.8274 23.3474 14.7225 23.3494C14.6717 23.3503 14.6193 23.3513 14.5659 23.3521C14.5819 24.1909 14.618 25.5137 14.6418 26.1444C15.1064 26.2354 15.5952 26.2877 16.1017 26.285C17.5228 26.285 20.1006 25.839 20.0942 23.8582C20.0862 21.3051 15.0922 18.2964 10.7552 18.3117C10.2498 18.3117 9.23569 18.3539 9.23569 18.5405C9.23569 18.6241 9.30319 18.657 9.36999 18.6895C9.43541 18.7213 9.50016 18.7528 9.50016 18.8313C9.50283 18.9498 9.32118 18.9669 9.1273 18.9669C8.93044 18.9692 8.60322 18.9435 8.61028 18.6659C8.6141 18.4407 8.76784 18.2866 8.92707 18.127C8.97043 18.0835 9.0142 18.0397 9.05546 17.9939C9.27663 17.7575 10.2624 17.6066 11.4884 17.571ZM13.418 25.8135C13.4158 25.1247 13.4255 24.1005 13.4332 23.3848C12.1543 23.4497 10.774 23.6268 10.774 24.0809C10.774 24.3753 11.8448 25.258 13.418 25.8135Z" fill="white"/>
</svg>
