<svg width="48" height="48" viewBox="0 0 48 48" fill="none" xmlns="http://www.w3.org/2000/svg">
<rect x="1" y="1" width="46" height="46" rx="23" fill="white" stroke="#F8F8F8" stroke-width="2"/>
<path fill-rule="evenodd" clip-rule="evenodd" d="M31.6001 29.08L32.6456 28.9645L33.7652 32.142L35.0027 28.9619L35.9829 29.0817L33.7639 34.2786L31.6001 29.08Z" fill="#FF6308"/>
<path fill-rule="evenodd" clip-rule="evenodd" d="M28.8201 34.2V30.02H27.4454L27.68 29.08H31.0601V30.02H29.7901V34.14L28.8201 34.2Z" fill="#FF6308"/>
<path fill-rule="evenodd" clip-rule="evenodd" d="M24.73 32.1901L25.09 31.1201H27.3V33.74C26.8613 34.0021 26.0148 34.2612 25.1674 34.2612C23.6783 34.2612 22.4579 33.0755 22.4579 31.6154C22.4579 30.0792 23.7422 28.9594 25.1648 28.9594C25.9723 28.9594 26.689 29.2698 27.1505 29.6707L26.4111 30.5823C26.2191 30.3983 25.8079 30.1177 25.2205 30.1177C24.4657 30.1177 23.711 30.6395 23.711 31.6127C23.711 32.4624 24.3411 33.109 25.3214 33.109C25.8583 33.109 26.04 32.9301 26.04 32.9301V32.1901H24.73Z" fill="#3C1C00"/>
<path fill-rule="evenodd" clip-rule="evenodd" d="M16.7196 31.6151C16.7196 30.1657 17.9101 28.962 19.4241 28.962C20.9044 28.962 22.1207 30.1387 22.1207 31.6259C22.1207 33.0397 20.9396 34.2636 19.419 34.2636C17.9059 34.2636 16.7196 33.0453 16.7196 31.6151ZM20.8668 31.6151C20.8668 30.8331 20.2204 30.1163 19.4204 30.1163C18.6764 30.1163 17.9778 30.7757 17.9778 31.619C17.9778 32.3582 18.6056 33.1102 19.419 33.1102C20.2536 33.1102 20.8668 32.3393 20.8668 31.6151Z" fill="#3C1C00"/>
<path fill-rule="evenodd" clip-rule="evenodd" d="M12.02 34.1403V29.0801H13.76C15.2596 29.0801 16.3779 30.2183 16.3779 31.6189C16.3779 33.1084 15.114 34.1403 13.85 34.1403H12.02ZM13.67 30.1501H13.28V33.0701H13.66C14.4322 33.0701 15.12 32.4386 15.12 31.6101C15.12 30.7669 14.4051 30.1501 13.67 30.1501Z" fill="#3C1C00"/>
<path fill-rule="evenodd" clip-rule="evenodd" d="M12 26.54V13H36V26.54H31.4542C31.4542 26.54 31.5052 26.2291 31.5052 25.7525C31.5052 24.9503 31.3208 24.4149 30.9855 24.0857C30.6431 23.7565 30.2649 23.7188 30.0389 23.7188C29.9531 23.7188 29.87 23.73 29.87 23.73L29.4 23.41L29.62 22.76C30.1978 22.3817 30.4094 21.7932 30.4094 21.0102C30.4094 20.1865 30.1665 19.2583 29.8725 18.5395C29.8725 18.5395 30.2128 18.7522 30.726 18.7522C31.266 18.7522 31.5543 18.5089 31.74 18.1766C31.9283 17.8971 32.1698 17.7602 32.7558 17.5018C32.9155 17.4188 32.9777 17.3375 32.9777 17.2388C32.9777 17.1468 32.9314 17.0097 32.8806 16.8708C32.4594 15.6923 31.4391 15.0686 30.3451 14.9045C29.4512 15.0946 28.5166 15.7982 28.5702 16.822C28.3105 16.6463 27.952 16.5897 27.5017 16.5806C26.6835 16.5806 25.8715 16.7982 25.0252 17.0574C24.1617 17.3637 23.5025 17.7812 23.3242 18.1798C23.0788 17.7114 22.5489 17.2462 21.6625 17.2462C21.2335 17.2462 20.8443 17.3509 20.8443 17.3509C20.0606 17.9542 19.5302 18.8445 19.5302 19.856C19.5302 20.0372 19.5642 20.3143 19.6125 20.528C19.6571 20.718 19.7032 20.7997 19.9666 20.7997C20.1766 20.7997 20.3742 20.7569 20.5775 20.76C20.8449 20.76 21.0491 20.8135 21.2792 20.9428C21.4322 21.026 21.5903 21.0805 21.7883 21.0805C22.3498 21.0805 22.8772 20.5606 23.0091 20.316C23.2171 21.8575 23.8022 23.4788 24.9 23.81L25.55 24.1852L25.14 24.76C24.3102 24.8526 23.6171 25.4589 23.53 26.54H12Z" fill="#FF6308"/>
<path fill-rule="evenodd" clip-rule="evenodd" d="M25.1401 24.7599L24.8999 23.8099L29.6201 22.7599L29.8701 23.7301L25.1401 24.7599Z" fill="#3C1C00"/>
</svg>
