<svg width="48" height="48" viewBox="0 0 48 48" fill="none" xmlns="http://www.w3.org/2000/svg">
<rect x="1" y="1" width="46" height="46" rx="23" fill="white" stroke="#F8F8F8" stroke-width="2"/>
<path fill-rule="evenodd" clip-rule="evenodd" d="M24 19.3425C25.2583 17.9052 27.09 17 29.1292 17C32.9238 17 36 20.134 36 23.9999C36 27.8659 32.9238 31 29.1292 31C27.09 31 25.2583 30.0948 24 28.6575C22.7415 30.0948 20.9098 31 18.8708 31C15.0762 31 12 27.8659 12 23.9999C12 20.134 15.0762 17 18.8708 17C20.9098 17 22.7415 17.9052 24 19.3425ZM30.2668 26.5073H31.6282L33.1148 21.7191H31.5297L30.8163 24.2415L29.9254 21.7191H28.72L27.8291 24.2302L27.1155 21.7191H25.5305L27.0171 26.5073H28.3546L29.3171 24.1709L30.2668 26.5073ZM18.8708 29.4687C15.9063 29.4687 13.5031 27.0203 13.5031 23.9999C13.5031 20.9797 15.9063 18.5313 18.8708 18.5313C21.8354 18.5313 24.2386 20.9797 24.2386 23.9999C24.2386 27.0203 21.8354 29.4687 18.8708 29.4687ZM15.9542 21.3424H19.4837C21.0331 21.3424 22.3651 22.3546 22.3651 24.0463C22.3651 25.738 21.0928 26.7504 19.4837 26.7504H15.9542V21.3424ZM17.6362 25.175H19.2592C20.1155 25.175 20.5757 24.7875 20.5757 24.0584C20.5757 23.3241 20.086 22.9056 19.2352 22.9056H17.6362V25.175Z" fill="#012D5B"/>
</svg>
