<svg width="629" height="120" viewBox="0 0 629 120" fill="none" xmlns="http://www.w3.org/2000/svg">
<path d="M454.882 0.00506069H368.857L364.781 33.6693H479.127C479.127 33.6693 479.264 32.4527 479.772 28.4886C482.554 6.39279 468.474 0.00506069 454.882 0.00506069Z" fill="#FF2925"/>
<path d="M357.519 27.4046C359.267 13.0327 353.236 0.0027025 331.301 0.0027025C331.301 0.0027025 166.162 0.0123429 156.739 0.000774421C138.864 -0.0223625 127.027 9.51585 125.361 23.7836C124.972 27.0807 124.573 30.3757 124.161 33.6689H356.74C356.74 33.6689 357.178 30.1945 357.519 27.4046Z" fill="#FF2925"/>
<path d="M120.259 0.0065835H14.7996L10.7188 33.6689H116.192L120.259 0.0065835Z" fill="#FF2925"/>
<path d="M429.227 119.957L438.149 46.4879L477.592 46.5014L468.676 119.946L429.227 119.957Z" fill="#FF2925"/>
<path d="M363.207 46.4879L354.297 119.957L393.747 119.946L402.665 46.5014L363.207 46.4879Z" fill="#FF2925"/>
<path d="M236.484 119.962L245.394 46.4998H355.199C354.837 49.8161 354.433 53.1247 353.984 56.4294C352.584 66.6965 345.034 74.3413 330.988 74.3413H281.464L275.911 119.962H236.484Z" fill="#FF2925"/>
<path d="M233.867 78.1699L233.866 78.1739C233.061 84.9876 231.445 98.6736 229.655 103.027C223.275 118.551 205.035 119.685 201.085 119.93L201.082 119.93C200.915 119.941 200.773 119.949 200.659 119.958C197.271 119.987 113.709 119.958 113.709 119.958L117.576 88.0885L194.327 88.0827L195.994 74.3201C195.994 74.3201 149.939 74.3394 142.632 74.3394C129.198 74.3394 119.72 65.6727 122.613 46.4998C130.482 46.4998 156.399 46.5071 177.95 46.5131C193.286 46.5174 206.411 46.521 209.247 46.521C221.619 46.521 237.329 51.9968 234.256 74.9718C234.165 75.6491 234.033 76.7628 233.867 78.1699Z" fill="#FF2925"/>
<path d="M114.632 46.4998L111.25 74.3413H45.2353L43.5672 88.0847L109.607 88.0924L105.72 119.962H0.25293L9.1839 46.4998H114.632Z" fill="#FF2925"/>
<path d="M506.865 119.901C506.86 119.934 506.856 119.968 506.852 120.001L506.753 119.901H506.865Z" fill="#FF2925"/>
<path d="M506.865 119.901H592.633C597.988 119.901 603.244 118.906 608.203 116.817C616.831 113.235 622.582 107.165 624.268 97.7122C624.863 94.3291 625.458 90.8465 625.855 87.4634C625.999 86.2512 626.15 85.0389 626.301 83.8266C626.979 78.3722 627.658 72.9178 627.739 67.4634C627.938 58.5082 622.781 51.2445 614.252 48.4584C610.186 47.1649 605.823 46.3689 601.558 46.3689C590.473 46.2196 579.332 46.2383 568.219 46.257C564.519 46.2632 560.822 46.2694 557.131 46.2694H554.453C554.6 45.018 554.774 43.8075 554.945 42.6177C555.236 40.5908 555.518 38.624 555.643 36.6176C555.811 33.505 556.191 33.5219 557.983 33.6014C558.31 33.6159 558.685 33.6326 559.114 33.6326H620.797C622.88 33.6326 623.376 32.9361 623.574 31.0455C624.05 26.8067 624.633 22.5679 625.216 18.3291C625.605 15.5032 625.994 12.6773 626.351 9.85148L627.541 0.000732422H520.637C520.24 3.28431 519.843 6.5679 519.447 9.75198C518.97 13.6928 518.463 17.6335 517.955 21.5743C517.193 27.4843 516.432 33.3943 515.777 39.3042C515.629 40.5986 515.454 41.893 515.279 43.1884C514.633 47.9672 513.984 52.7591 514.686 57.6127C515.777 65.3739 520.637 71.4435 528.173 73.3341C530.851 74.0306 533.727 74.3291 536.504 74.3291H588.766C588.564 75.9517 588.361 77.5169 588.163 79.0519C587.778 82.0353 587.407 84.905 587.08 87.8614H512.901C511.017 87.8614 510.521 88.4584 510.323 90.2495C509.827 95.6226 509.133 100.996 508.439 106.369C507.946 110.815 507.454 115.164 506.865 119.901Z" fill="#FF2925"/>
</svg>
