<svg width="48" height="48" viewBox="0 0 48 48" fill="none" xmlns="http://www.w3.org/2000/svg">
<rect x="1" y="1" width="46" height="46" rx="23" fill="white" stroke="#F8F8F8" stroke-width="2"/>
<path fill-rule="evenodd" clip-rule="evenodd" d="M32.58 20.0003H38.3165C39.223 20.0003 40.1619 20.4262 39.9763 21.8997C39.9424 22.164 39.9333 22.2451 39.9333 22.2451H32.3083L32.58 20.0003ZM30.0757 20.0001C31.5384 20.0001 31.9405 20.869 31.824 21.8274C31.8012 22.0134 31.772 22.2451 31.772 22.2451H16.2627C16.2902 22.0255 16.3168 21.8058 16.3427 21.5859C16.4538 20.6345 17.2432 19.9985 18.4352 20C19.0635 20.0008 30.0757 20.0003 30.0757 20.0003V20.0001ZM8.97003 20.0004H16.0025L15.7313 22.2451H8.6979L8.97003 20.0003V20.0004ZM37.2007 23.0999L36.6058 27.9991L39.2364 27.9984L39.831 23.1008L37.2007 23.0998V23.0999ZM31.6091 27.9991L32.2033 23.0999V23.0998L34.8345 23.1008L34.2398 27.9984L31.6091 27.9991ZM24.347 23.1007L23.7529 27.9994H26.3821L26.7524 24.9572H30.0548C30.9915 24.9572 31.495 24.4475 31.5883 23.7628C31.6183 23.5424 31.6452 23.3218 31.6693 23.1007H24.347ZM23.5783 25.2128C23.5894 25.1189 23.5982 25.0445 23.6043 24.9993C23.8093 23.4672 22.7616 23.1021 21.9366 23.1021C21.7475 23.1021 20.8723 23.1018 19.8496 23.1015C18.4125 23.1011 16.6842 23.1007 16.1595 23.1007C15.9666 24.3792 16.5986 24.9571 17.4945 24.9571C17.9817 24.9571 21.0528 24.9558 21.0528 24.9558L20.9417 25.8736L15.8236 25.874L15.5657 27.9991C15.5657 27.9991 21.138 28.0011 21.3639 27.9991C21.3716 27.9986 21.3811 27.998 21.3924 27.9973C21.6557 27.9809 22.872 27.9054 23.2975 26.8701C23.4168 26.5798 23.5246 25.6672 23.5783 25.2128ZM15.4018 24.9572L15.6273 23.1007H8.59555H8.59517L8 27.9994H15.033L15.2922 25.8742L10.8884 25.8737L10.9996 24.9572H15.4018Z" fill="#FF2925"/>
</svg>
