<svg width="48" height="48" viewBox="0 0 48 48" fill="none" xmlns="http://www.w3.org/2000/svg">
<rect x="1" y="1" width="46" height="46" rx="23" fill="white" stroke="#F8F8F8" stroke-width="2"/>
<path fill-rule="evenodd" clip-rule="evenodd" d="M27.2391 20.0003H32.4293C33.2493 20.0003 34.0988 20.3857 33.931 21.7188C33.9003 21.9579 33.892 22.0313 33.892 22.0313H26.9932L27.2391 20.0003ZM24.9732 20.0001C26.2966 20.0001 26.6605 20.7863 26.555 21.6534C26.5345 21.8217 26.508 22.0313 26.508 22.0313H12.4758C12.5006 21.8326 12.5247 21.6338 12.5482 21.4349C12.6487 20.5741 13.3629 19.9986 14.4413 20C15.0098 20.0007 24.9732 20.0002 24.9732 20.0002V20.0001ZM5.87765 20.0004H12.2404L11.995 22.0313H5.63144L5.87765 20.0002V20.0004ZM31.4197 22.8047L30.8815 27.2374L33.2615 27.2367L33.7994 22.8055L31.4197 22.8046V22.8047ZM26.3606 27.2374L26.8982 22.8047V22.8046L29.2789 22.8055L28.7408 27.2367L26.3606 27.2374ZM19.7902 22.8054L19.2526 27.2376H21.6314L21.9664 24.4852H24.9544C25.8018 24.4852 26.2573 24.024 26.3418 23.4045C26.3689 23.2051 26.3932 23.0055 26.4151 22.8054H19.7902ZM19.0947 24.7164C19.1047 24.6314 19.1127 24.5642 19.1182 24.5233C19.3036 23.1371 18.3558 22.8067 17.6093 22.8067C17.4382 22.8067 16.6463 22.8065 15.721 22.8062C14.4208 22.8059 12.8572 22.8054 12.3824 22.8054C12.2079 23.9622 12.7797 24.4851 13.5902 24.4851C14.0311 24.4851 16.8097 24.4839 16.8097 24.4839L16.7092 25.3143L12.0785 25.3146L11.8452 27.2374C11.8452 27.2374 16.8868 27.2392 17.0912 27.2374C17.0981 27.2369 17.1067 27.2364 17.1169 27.2357C17.3552 27.2209 18.4556 27.1526 18.8406 26.2159C18.9486 25.9533 19.0461 25.1275 19.0947 24.7164ZM11.6968 24.4852L11.9009 22.8054H5.53884H5.53849L5 27.2376H11.3632L11.5977 25.3149L7.61329 25.3144L7.71394 24.4852H11.6968Z" fill="#FF2925"/>
<path d="M40.8825 20.0154L40.5381 22.822H38.3949L38.4791 22.1049L38.7623 20H36.3589L36.1752 21.6886L36.0297 22.822C35.8613 23.9631 36.4278 24.4874 37.2314 24.4874H40.3314L39.9946 27.24H42.3598L43.24 20.0077L40.8825 20.0154Z" fill="#FF2925"/>
</svg>
