<svg width="630" height="120" viewBox="0 0 630 120" fill="none" xmlns="http://www.w3.org/2000/svg">
<path d="M454.882 0.00506069H368.857L364.781 33.6693H479.127C479.127 33.6693 479.264 32.4527 479.772 28.4886C482.554 6.39279 468.474 0.00506069 454.882 0.00506069Z" fill="#FF2925"/>
<path d="M357.519 27.4046C359.267 13.0327 353.236 0.0027025 331.301 0.0027025C331.301 0.0027025 166.162 0.0123429 156.739 0.000774421C138.864 -0.0223625 127.027 9.51585 125.361 23.7836C124.972 27.0807 124.573 30.3757 124.161 33.6689H356.74C356.74 33.6689 357.178 30.1945 357.519 27.4046Z" fill="#FF2925"/>
<path d="M120.259 0.0065835H14.7996L10.7188 33.6689H116.192L120.259 0.0065835Z" fill="#FF2925"/>
<path d="M429.227 119.957L438.149 46.4879L477.592 46.5014L468.676 119.946L429.227 119.957Z" fill="#FF2925"/>
<path d="M363.207 46.4879L354.297 119.957L393.747 119.946L402.665 46.5014L363.207 46.4879Z" fill="#FF2925"/>
<path d="M236.484 119.962L245.394 46.4998H355.199C354.837 49.8161 354.433 53.1247 353.984 56.4294C352.584 66.6965 345.034 74.3413 330.988 74.3413H281.464L275.911 119.962H236.484Z" fill="#FF2925"/>
<path d="M233.867 78.1699L233.866 78.1739C233.061 84.9876 231.445 98.6736 229.655 103.027C223.275 118.551 205.035 119.685 201.085 119.93L201.082 119.93C200.915 119.941 200.773 119.949 200.659 119.958C197.271 119.987 113.709 119.958 113.709 119.958L117.576 88.0885L194.327 88.0827L195.994 74.3201C195.994 74.3201 149.939 74.3394 142.632 74.3394C129.198 74.3394 119.72 65.6727 122.613 46.4998C130.482 46.4998 156.399 46.5071 177.95 46.5131C193.286 46.5174 206.411 46.521 209.247 46.521C221.619 46.521 237.329 51.9968 234.256 74.9718C234.165 75.6491 234.033 76.7628 233.867 78.1699Z" fill="#FF2925"/>
<path d="M114.632 46.4998L111.25 74.3413H45.2353L43.5672 88.0847L109.607 88.0924L105.72 119.962H0.25293L9.1839 46.4998H114.632Z" fill="#FF2925"/>
<path fill-rule="evenodd" clip-rule="evenodd" d="M611.115 47.1738C620.181 48.2697 626.657 54.6458 628.052 63.6122V63.9111C628.948 69.2909 628.251 74.6707 627.553 80.0505C627.22 82.239 626.969 84.4274 626.718 86.6107C626.296 90.2916 625.876 93.9578 625.063 97.5848C622.273 109.839 614.403 116.514 602.547 119.004C598.562 119.801 594.378 120.001 590.293 120.001L589.998 119.999C572.065 119.9 554.23 119.801 536.296 119.801C532.908 119.801 529.521 119.303 526.233 118.506C517.267 116.315 510.393 107.647 509.994 98.3818C509.763 92.2125 510.546 86.1028 511.328 80.0067C511.556 78.2273 511.784 76.449 511.987 74.6707C513.083 64.7081 514.278 54.7454 515.673 44.7828C516.028 42.331 516.278 39.8582 516.529 37.3815C517.053 32.2098 517.578 27.0208 519.06 21.9684C523.045 7.92103 534.204 0.449051 547.553 0.249798C567.357 -0.0491277 587.217 -0.0117091 607.049 0.0256566C613.656 0.0381041 620.259 0.0505456 626.856 0.0505456C627.119 0.0505456 627.354 0.0783052 627.576 0.104518C627.775 0.127964 627.963 0.150172 628.151 0.150172C627.99 1.38428 627.828 2.61705 627.667 3.84864C626.435 13.2553 625.212 22.5932 624.067 31.931C623.879 33.4354 623.069 33.4312 622.058 33.426C621.997 33.4257 621.936 33.4254 621.875 33.4254H557.018C555.225 33.4254 554.129 33.6246 554.129 35.8164C553.93 38.7056 553.431 41.6944 552.933 44.5835C552.634 46.1776 553.033 46.5761 554.727 46.5761H589.895C591.309 46.5761 592.724 46.5641 594.139 46.5522C599.798 46.5043 605.456 46.4565 611.115 47.1738ZM590.144 81.1963C590.368 79.4777 590.592 77.7591 590.791 76.0655C590.941 74.7676 591.016 74.12 590.727 73.7969C590.44 73.4752 589.792 73.4752 588.5 73.4752H550.841C550.714 73.4752 550.585 73.4676 550.456 73.4601C549.779 73.4204 549.132 73.3826 549.048 74.4715C548.649 78.5562 548.251 82.5412 547.653 86.5263C547.454 87.6222 548.052 87.6222 548.849 87.6222H588.002C588.998 87.6222 589.397 87.3233 589.496 86.327C589.695 84.6334 589.92 82.9148 590.144 81.1963Z" fill="#FF2925"/>
</svg>
