<svg width="48" height="48" viewBox="0 0 48 48" fill="none" xmlns="http://www.w3.org/2000/svg">
<rect x="1" y="1" width="46" height="46" rx="23" fill="white" stroke="#F8F8F8" stroke-width="2"/>
<path fill-rule="evenodd" clip-rule="evenodd" d="M31.2731 28H33.8765L34.4367 23.0683H31.7621L31.2731 28ZM33.5332 20H27.1835L26.9566 22.2638H34.5704L34.5762 20.9154C34.4961 20.3697 34.1216 20.0555 33.5332 20ZM42.9162 20.0926H37.5486L37.3147 22.1741H41.2839L41.2154 23.0972H38.0461C37.151 23.0972 37.1016 24.1513 37.1016 24.1513L36.6926 27.8026H43.3525L43.549 25.7743H39.5424L39.6282 24.8418H42.8245C43.6175 24.8418 43.7164 23.9666 43.7164 23.9666L43.9959 21.0405C44.0776 20.0326 42.9162 20.0926 42.9162 20.0926ZM26.3598 28H28.9516L29.5176 23.0683H26.8487L26.3598 28ZM11.6235 20H4.7977L4.57358 22.2638H11.3703L11.6235 20ZM19.3738 23.068L18.8812 28H21.4962L21.7858 24.9152H25.3646C26.1926 24.7842 26.5504 23.7949 26.5695 23.0674L19.3738 23.068ZM11.0388 25.0711L11.2716 23.0674H4.48606L4 27.9991H10.7107L10.9611 25.7306H6.93297L7.032 25.0711H11.0388ZM18.2587 23.0682L11.5925 23.0683C11.5561 23.2717 11.5328 23.7031 11.6638 24.2304C11.8704 25.024 12.6664 24.9793 12.6664 24.9793L16.3255 24.9329L16.1945 25.733L11.3347 25.753L11.1193 27.9999H17.2844C17.7616 27.9999 18.3933 27.5961 18.6975 26.6484C18.7484 26.4541 18.9609 24.3782 18.9565 24.2395C18.9331 23.7033 18.6524 23.2716 18.2587 23.0682ZM26.6936 22.2638H11.6783C11.7024 21.9311 11.7853 21.0557 12.0662 20.6949C12.4138 20.2297 12.6787 20.0462 13.16 20H25.6347C26.1429 20.0555 26.4183 20.3096 26.6484 20.7365C26.8129 21.0449 26.7329 21.9311 26.6936 22.2638Z" fill="#FF2925"/>
</svg>
