<svg width="48" height="48" viewBox="0 0 48 48" fill="none" xmlns="http://www.w3.org/2000/svg">
<rect x="1" y="1" width="46" height="46" rx="23" fill="white" stroke="#F8F8F8" stroke-width="2"/>
<path fill-rule="evenodd" clip-rule="evenodd" d="M27.2391 20.0003H32.4293C33.2493 20.0003 34.0988 20.3857 33.931 21.7188C33.9003 21.958 33.892 22.0314 33.892 22.0314H26.9932L27.2391 20.0003ZM24.9732 20.0001C26.2966 20.0001 26.6605 20.7863 26.555 21.6534C26.5345 21.8217 26.508 22.0313 26.508 22.0313H12.4758C12.5006 21.8326 12.5247 21.6338 12.5482 21.4349C12.6487 20.5741 13.3629 19.9986 14.4413 20C15.0098 20.0007 24.9732 20.0003 24.9732 20.0003V20.0001ZM5.87765 20.0004H12.2404L11.995 22.0313H5.63144L5.87765 20.0003V20.0004ZM31.4197 22.8048L30.8815 27.2374L33.2615 27.2367L33.7994 22.8056L31.4197 22.8046V22.8048ZM26.3606 27.2374L26.8982 22.8048V22.8046L29.2789 22.8056L28.7408 27.2367L26.3606 27.2374ZM19.7902 22.8055L19.2526 27.2377H21.6314L21.9664 24.4852H24.9544C25.8018 24.4852 26.2573 24.024 26.3418 23.4046C26.3689 23.2052 26.3932 23.0056 26.4151 22.8055H19.7902ZM19.0947 24.7165C19.1047 24.6315 19.1127 24.5642 19.1182 24.5233C19.3036 23.1371 18.3558 22.8067 17.6093 22.8067C17.4382 22.8067 16.6463 22.8065 15.721 22.8063C14.4208 22.8059 12.8572 22.8055 12.3824 22.8055C12.2079 23.9622 12.7797 24.4851 13.5902 24.4851C14.0311 24.4851 16.8097 24.484 16.8097 24.484L16.7092 25.3143L12.0785 25.3147L11.8452 27.2374C11.8452 27.2374 16.8868 27.2392 17.0912 27.2374C17.0981 27.2369 17.1067 27.2364 17.1169 27.2358C17.3552 27.221 18.4556 27.1526 18.8406 26.216C18.9486 25.9533 19.0461 25.1276 19.0947 24.7165ZM11.6968 24.4852L11.9009 22.8055H5.53884H5.53849L5 27.2377H11.3632L11.5977 25.3149L7.61329 25.3144L7.71394 24.4852H11.6968Z" fill="#FF2925"/>
<path d="M35.9947 25.2924H40.4177L40.5196 24.4285H36.9331L37.115 22.7707H40.7015L40.8033 21.9924H36.3584L36.5839 20H41.2107C41.96 20 42.2219 20.0467 42.5056 20.2257C42.8912 20.4748 43.0512 20.9106 42.9857 21.4943L42.8693 22.4983C42.7966 23.0976 42.5784 23.3856 41.9818 23.7047C42.5202 24.0393 42.6511 24.3351 42.5711 25.0433L42.4911 25.7049C42.3601 26.7867 41.7418 27.2381 40.4105 27.2381H35.7619L35.9947 25.2924Z" fill="#FF2925"/>
</svg>
