<svg width="48" height="48" viewBox="0 0 48 48" fill="none" xmlns="http://www.w3.org/2000/svg">
<rect x="1" y="1" width="46" height="46" rx="23" fill="white" stroke="#F8F8F8" stroke-width="2"/>
<path fill-rule="evenodd" clip-rule="evenodd" d="M9.51563 19H15.9742C16.8077 19 17.4898 19.7187 17.4898 20.5969V23.1953C17.4898 23.9944 16.7239 24.8038 15.9684 24.8038H13.0829V22.6929L12.4304 22.6922V25.0938C12.4304 25.2201 12.5517 25.3445 12.6723 25.3445L17.4895 25.3441V28.9993H9.51563C8.68213 28.9993 8 28.2807 8 27.4023V20.5973C8 19.7189 8.68181 19.0002 9.51563 19.0002V19ZM19.0843 25.0869H22.7591V23.8698H19.6189C19.4113 23.8698 19.2083 23.7253 19.2083 23.4279V22.6526H22.7588V21.4355H19.2083V20.6638C19.2083 20.2986 19.4891 20.2186 19.6182 20.2186H22.7588V19.0019L19.0839 19.0016C18.4638 19.0016 17.9795 19.5334 17.9795 20.1599V23.9285C17.9795 24.8798 18.8033 25.0869 19.0843 25.0869ZM34.4393 20.1602V23.9305C34.4393 24.6385 34.9885 25.0869 35.5209 25.0869H38.7996C39.5493 25.0869 39.9012 24.4266 39.9012 23.8886V20.1602C39.9012 19.6659 39.5511 19.0019 38.7996 19.0019H35.541C34.8589 19.0019 34.4393 19.5809 34.4393 20.1602ZM38.3321 28.0095V25.4173H37.6171V25.4176V28.3385C37.6171 28.6839 37.8947 28.9997 38.2446 28.9997H39.8815V28.2497H38.5609C38.4409 28.2497 38.3321 28.1576 38.3321 28.0095ZM39.9171 26.4935C39.9726 26.3899 40 26.2811 40 26.1669C40 26.0519 39.9717 25.9422 39.9156 25.8372C39.8592 25.732 39.7818 25.6516 39.6831 25.5953C39.5843 25.5391 39.4816 25.5109 39.3743 25.5109C39.2674 25.5109 39.1644 25.5391 39.0659 25.5953C38.9671 25.6516 38.8897 25.7323 38.8334 25.8372C38.7773 25.9422 38.749 26.0519 38.749 26.1669C38.749 26.2812 38.7764 26.3899 38.8319 26.4935C38.887 26.597 38.9638 26.6781 39.0629 26.7361C39.1619 26.7938 39.2655 26.823 39.3743 26.823C39.4834 26.823 39.5871 26.7938 39.6858 26.7361C39.7849 26.6781 39.862 26.5974 39.9171 26.4935ZM39.8105 25.9014C39.8559 25.9861 39.8787 26.0743 39.8787 26.1669C39.8787 26.2586 39.8564 26.3464 39.8117 26.43C39.7671 26.5134 39.7051 26.5781 39.626 26.6252C39.5466 26.6719 39.4634 26.6955 39.3756 26.6955C39.2884 26.6955 39.2052 26.6722 39.1257 26.6252C39.0461 26.5785 38.9842 26.5134 38.9397 26.43C38.8953 26.3464 38.873 26.259 38.873 26.1669C38.873 26.0743 38.8959 25.9861 38.9412 25.9014C38.9867 25.817 39.0492 25.7521 39.1278 25.7072C39.2067 25.662 39.2893 25.6394 39.3753 25.6394C39.4614 25.6394 39.5438 25.662 39.6234 25.7072C39.7026 25.7521 39.765 25.817 39.8105 25.9014ZM39.5922 26.3782L39.6705 26.5184H39.5039L39.4481 26.4054C39.4106 26.3292 39.3798 26.2812 39.3551 26.2619C39.3308 26.2421 39.2996 26.2321 39.2622 26.2321H39.2269V26.5181H39.0921V25.8225C39.0921 25.8225 39.424 25.8231 39.4393 25.8241C39.4837 25.8283 39.5185 25.8376 39.5435 25.8522C39.5681 25.8665 39.5889 25.8892 39.6053 25.919C39.6221 25.9491 39.6303 25.9819 39.6303 26.0186C39.6303 26.0688 39.6148 26.112 39.5834 26.1473C39.552 26.1832 39.5082 26.2053 39.4514 26.2139C39.4719 26.2215 39.4871 26.2304 39.498 26.2397C39.5087 26.2493 39.5239 26.2672 39.5431 26.2935C39.5477 26.3001 39.5645 26.3285 39.5922 26.3782ZM39.4875 26.0267C39.4875 26.0465 39.4819 26.0644 39.4713 26.0804C39.4603 26.096 39.4453 26.1069 39.4268 26.1132C39.4078 26.1193 39.3594 26.1225 39.2817 26.1225H39.2269V25.9324H39.2817C39.3585 25.9324 39.4066 25.9356 39.4261 25.9422C39.4457 25.9491 39.4609 25.9598 39.4713 25.9749C39.4819 25.9902 39.4875 26.0074 39.4875 26.0267ZM35.463 26.1666C35.3018 26.1666 35.2323 26.313 35.2323 26.4069V26.8747H37.298V27.5831H35.2323V28.0509C35.2323 28.1402 35.2798 28.2912 35.4642 28.2912H37.2977V28.9997H35.1844C34.8196 28.9997 34.5566 28.6856 34.5566 28.3402V26.1189C34.5566 25.8118 34.809 25.4173 35.1844 25.4173V25.4166H37.2977V26.1666H35.463ZM31.245 25.4173H33.5134C33.8925 25.4173 34.1443 25.702 34.1443 26.0838V28.9997H33.4297V26.4075C33.4297 26.3142 33.4076 26.1673 33.198 26.1673H31.9201V28.9997H31.245V25.4173ZM27.918 25.4173H30.1866C30.5654 25.4173 30.8175 25.702 30.8175 26.0838V28.9997H30.1025V26.4075C30.1025 26.3142 30.0805 26.1673 29.8708 26.1673H28.593V28.9997H27.918V25.4173ZM27.4821 26.0755V28.9997H26.7671V27.6668H25.2576V28.9997H24.5829V25.4176H26.8189C27.2166 25.4176 27.4821 25.7528 27.4821 26.0755ZM26.5392 26.1669C26.7001 26.1669 26.7675 26.2763 26.7675 26.4071V27.0415H25.2579V26.1669H26.5392ZM23.4961 25.4173H24.2111V28.9997H23.4961V27.5835H21.9866V28.9997H21.2714V25.4173H21.9866V26.8338H23.4961V25.4173ZM18.0919 26.0174V28.4164C18.0919 28.7743 18.3687 29 18.6479 29H20.9123V28.2912H18.9935C18.878 28.2912 18.767 28.1845 18.767 28.0436V26.4082C18.767 26.2896 18.8435 26.1673 18.9971 26.1673H20.9123V25.4173H18.6479C18.2767 25.4173 18.0919 25.787 18.0919 26.0174ZM35.6004 23.4406C35.6004 23.7979 35.8802 23.8698 36.0128 23.8698H38.3184C38.623 23.8698 38.7405 23.6441 38.7405 23.44V20.6482C38.7405 20.4398 38.592 20.2186 38.3311 20.2186H36.0217C35.7315 20.2186 35.6004 20.4696 35.6004 20.6638V23.4406ZM28.7703 25.1584H29.9315V22.796H31.5175C31.8634 22.796 32.7344 23.0776 32.7344 24.0783C32.7344 24.8681 32.7321 25.0395 32.7312 25.1117C32.7309 25.1311 32.7308 25.1433 32.7308 25.1584H34.0242V23.7196C34.0242 22.8032 33.2282 22.4804 32.9441 22.4804C32.8228 22.4804 32.8591 22.3835 32.9441 22.3835C33.3814 22.3835 34.0275 21.8739 34.0275 21.1163V20.2823C34.0275 19.9004 33.6386 19.0022 32.8081 19.0022H28.7703V25.1584ZM29.9315 21.7221H32.3066C32.447 21.7221 32.7308 21.6275 32.7308 21.2755V20.6638C32.7308 20.4257 32.5546 20.2186 32.3066 20.2186H29.9315V21.7221ZM27.0622 19.0019H28.2227V25.1584H24.3412C23.4753 25.1584 23.2383 24.3481 23.2383 24.0002V19.0019H24.4674V23.4279C24.4674 23.7483 24.7091 23.8698 24.8913 23.8698H27.0622V19.0019Z" fill="#1EB8EC"/>
</svg>
