<svg width="48" height="48" viewBox="0 0 48 48" fill="none" xmlns="http://www.w3.org/2000/svg">
<rect x="1" y="1" width="46" height="46" rx="23" fill="white" stroke="#F8F8F8" stroke-width="2"/>
<path fill-rule="evenodd" clip-rule="evenodd" d="M19.2381 27.254H44V19H19.2381V27.254Z" fill="#DD1D54"/>
<path fill-rule="evenodd" clip-rule="evenodd" d="M42.254 24.6897C42.254 25.7332 41.2121 26.1151 40.3128 26.1151C39.2215 26.1151 38.4045 25.6225 38.388 24.5874H39.3422V24.5902C39.3943 25.1491 39.8138 25.3541 40.3265 25.3541C40.6885 25.3541 41.319 25.2766 41.2943 24.7755C41.2733 24.3402 40.7593 24.2325 40.1757 24.1101L40.1756 24.1101C40.0765 24.0893 39.9753 24.0681 39.8742 24.0448C39.1667 23.8926 38.4785 23.638 38.4785 22.7467C38.4785 21.7893 39.5039 21.4902 40.2936 21.4902C41.1874 21.4902 41.9935 21.8638 42.1115 22.8381H41.1107C41.0257 22.3787 40.6473 22.2541 40.2278 22.2541C39.9481 22.2541 39.4355 22.3207 39.4355 22.7052C39.4355 23.1125 39.9532 23.2201 40.5457 23.3431C40.6458 23.3639 40.748 23.3852 40.8502 23.4083C41.5493 23.5689 42.254 23.8235 42.254 24.6897ZM36.9815 21.6093H37.8479V22.3316H36.9815V24.6731C36.9815 25.0717 37.0144 25.2766 37.4422 25.2766C37.5766 25.2766 37.7108 25.2766 37.8452 25.2433V25.9907C37.7718 25.9965 37.6991 26.0047 37.6265 26.0129C37.4929 26.028 37.3596 26.0431 37.2228 26.0431C36.2219 26.0431 36.0355 25.653 36.0192 24.9222V22.3343H35.2951V21.6093H35.298H36.0219V20.2946H36.9815V21.6093ZM34.5385 21.4929C34.7037 21.4929 34.7779 21.5026 34.8415 21.5109C34.8614 21.5135 34.8802 21.516 34.9004 21.5179V22.4507C34.8699 22.4469 34.839 22.4427 34.8078 22.4385C34.7016 22.424 34.5924 22.4092 34.4864 22.4092C33.8312 22.4092 33.3101 22.9433 33.3101 23.912V25.999H32.3505V21.6093H32.3534H33.2526V22.4589H33.269C33.3787 21.994 33.949 21.4929 34.5385 21.4929ZM31.402 25.0218V22.7634C31.402 21.839 30.5107 21.4902 29.6608 21.4902C28.6985 21.4902 27.7497 21.8225 27.6839 22.9517H28.6408C28.6847 22.4756 29.063 22.2541 29.6004 22.2541C29.9871 22.2541 30.4999 22.3483 30.4999 22.8492C30.4999 23.2982 30.1191 23.3456 29.6212 23.4077C29.4868 23.4244 29.3438 23.4422 29.1974 23.4693C28.3913 23.5633 27.5249 23.7404 27.5249 24.8365C27.5249 25.6945 28.2323 26.118 29.0136 26.118C29.5264 26.118 30.1405 25.9546 30.5162 25.5837C30.5931 25.9823 30.87 26.118 31.2566 26.118C31.4155 26.118 31.72 26.0571 31.8625 26.0072V25.3374C31.7639 25.3541 31.687 25.3541 31.6268 25.3541C31.4539 25.3541 31.402 25.26 31.402 25.0218ZM30.4449 24.5209C30.4449 25.1299 29.7896 25.3512 29.3703 25.3512C29.0329 25.3512 28.4874 25.224 28.4874 24.7922C28.4874 24.2829 28.8575 24.1307 29.2688 24.0615C29.3905 24.039 29.5159 24.0237 29.6398 24.0087C29.9428 23.9718 30.2367 23.9361 30.4449 23.7985V24.5209ZM24.5583 23.0429H25.9456C25.8606 23.5605 25.6247 24.103 25.2382 24.5098L26.4665 25.9961H24.498L24.1607 25.5726C23.6151 26.0045 23.1105 26.1429 22.4443 26.1429C21.2955 26.1429 20.4016 25.3541 20.4016 24.1721C20.4016 23.3668 21.0817 22.8049 21.7396 22.4672C21.4626 22.1629 21.2707 21.7893 21.2707 21.3629C21.2707 20.3942 22.1592 19.7937 23.053 19.7937C24.1717 19.7937 24.9777 20.2863 24.9777 21.3629C24.9777 22.0521 24.4486 22.6194 23.8783 22.9239L24.3389 23.5025C24.4486 23.3585 24.5335 23.198 24.5583 23.0429ZM22.0029 24.2303C22.0029 24.5624 22.2882 24.8004 22.5758 24.8004C22.8445 24.8004 23.0804 24.6206 23.2807 24.4351L22.5814 23.577C22.3374 23.7044 22.0029 23.9258 22.0029 24.2303ZM23.0221 21.9029L23.0219 21.9028C22.8766 21.7347 22.6993 21.5296 22.6993 21.338C22.6993 21.075 22.9352 20.9229 23.1463 20.9229C23.382 20.9229 23.5493 21.1084 23.5493 21.3297C23.5493 21.6093 23.3053 21.8473 23.0694 21.9579C23.0542 21.9401 23.0383 21.9218 23.0221 21.9029ZM18.115 23.0706C18.115 22.7772 18.0738 22.5254 17.9917 22.3178C17.9092 22.1103 17.7969 21.9414 17.6516 21.8114C17.5062 21.6812 17.3307 21.5899 17.1279 21.529C16.925 21.471 16.7028 21.4405 16.4643 21.4405C16.149 21.4405 15.8775 21.5179 15.6474 21.6701C15.417 21.8225 15.2361 21.9995 15.1017 22.1988C14.9783 21.9166 14.8 21.72 14.5641 21.6093C14.3284 21.4958 14.0679 21.4405 13.7829 21.4405C13.4866 21.4405 13.2236 21.5041 12.9933 21.6342C12.7629 21.7615 12.5655 21.9442 12.4038 22.1794H12.3872V21.5622H11.2248V26.118H12.4641V23.4747C12.4641 23.2506 12.4941 23.0706 12.5599 22.9323C12.6231 22.7939 12.6999 22.686 12.7902 22.614C12.8808 22.5392 12.974 22.4921 13.07 22.4645C13.1659 22.4397 13.2427 22.4257 13.3002 22.4257C13.4978 22.4257 13.6485 22.4618 13.7499 22.5282C13.8542 22.5946 13.9254 22.686 13.9692 22.7966C14.0132 22.9074 14.0379 23.0291 14.0433 23.162C14.0488 23.2948 14.0515 23.4276 14.0515 23.5633V26.118H15.2909V23.5799C15.2909 23.4388 15.3019 23.3003 15.3211 23.162C15.343 23.0235 15.3841 22.8991 15.4443 22.7911C15.5047 22.6831 15.5898 22.5946 15.6966 22.5282C15.8035 22.4589 15.9462 22.4257 16.119 22.4257C16.2917 22.4257 16.4314 22.4562 16.533 22.5144C16.6316 22.5724 16.7112 22.6528 16.7631 22.7523C16.8152 22.8521 16.8481 22.9682 16.8592 23.1038C16.8702 23.2395 16.8756 23.3833 16.8756 23.5357V26.118H18.115V23.0706ZM9.31376 26.118H10.5531V19.8268H9.31376V26.118ZM8.65294 26.118H7.41357V21.5622H8.65294V26.118ZM7.41087 20.8565H8.65008V19.8268H7.41087V20.8565ZM6.90366 19.86C6.79945 19.8546 6.68968 19.8463 6.58008 19.8379C6.47031 19.8296 6.358 19.8241 6.24839 19.8241C5.74372 19.8241 5.36533 19.9542 5.11594 20.2115C4.86654 20.4718 4.74041 20.8039 4.74041 21.208V21.5622H4V22.3981H4.74041V26.118H5.97946V22.3952H6.83233V21.5595H5.97691V21.2854C5.97691 21.0972 6.0125 20.9644 6.08652 20.8842C6.15785 20.8039 6.28127 20.7651 6.44855 20.7651C6.60756 20.7651 6.75831 20.7761 6.90366 20.7928V19.86Z" fill="#1E120D"/>
</svg>
