<svg width="395" height="120" viewBox="0 0 395 120" fill="none" xmlns="http://www.w3.org/2000/svg">
<path d="M59.5179 77.0871L48.4442 88.1615V108.331C48.4442 114.961 53.9773 120.303 60.6804 119.987C66.9567 119.692 71.7762 114.284 71.7762 108.007V88.1688L60.7025 77.0944C60.3787 76.7706 59.849 76.7706 59.5252 77.0944M71.7835 72.5028V88.1688L86.0358 102.429C90.5904 106.984 97.9777 106.984 102.532 102.429C107.087 97.882 107.087 90.4867 102.532 85.9319L88.2726 71.6713H72.6076C72.1441 71.6713 71.7762 72.0465 71.7762 72.5028M43.0214 59.4121L31.9477 48.3377H11.7796C8.56421 48.3377 5.65047 49.6475 3.53139 51.752C1.41966 53.8639 0.102594 56.7999 0.11731 60.0376C0.139383 66.5204 5.64311 71.6639 12.1328 71.6639H31.9477L43.0214 60.5895C43.3451 60.2657 43.3451 59.7359 43.0214 59.4121ZM60.6951 42.9146L71.7688 31.8402V11.6634C71.7688 8.44039 70.4591 5.5191 68.3547 3.41459C66.0591 1.12613 62.8142 -0.220464 59.275 0.0297225C53.1165 0.463869 48.4442 5.80608 48.4442 11.9798V31.8254L59.5179 42.8999C59.8416 43.2236 60.3714 43.2236 60.6951 42.8999M48.4442 47.4915V31.8254L34.1845 17.5648C31.9109 15.2837 28.9162 14.1505 25.9363 14.1505C22.9563 14.1505 19.9616 15.2837 17.688 17.5648C13.1335 22.127 13.1335 29.5075 17.688 34.0624L31.9477 48.3157H47.6127C48.0763 48.3157 48.4442 47.9404 48.4442 47.4841M72.6076 48.3157H88.2726L102.297 34.2905C106.741 29.846 107.146 22.6053 102.915 17.9622C98.3971 13.0026 90.7228 12.8702 86.0358 17.5575L71.7835 31.8181V47.4841C71.7835 47.9477 72.1588 48.3157 72.615 48.3157M47.6201 71.6492H31.9551L17.6954 85.9098C15.4218 88.1909 14.2813 91.1784 14.2813 94.1586C14.2813 97.1387 15.4218 100.134 17.6954 102.407C22.2426 106.962 29.6373 106.962 34.1919 102.407L48.4515 88.1468V72.4807C48.4515 72.0171 48.0763 71.6492 47.6201 71.6492ZM279.255 43.7166C274.524 43.7166 270.558 45.49 267.475 47.7932V25.9166H251.648V99.5597H267.475V58.9854C269.425 57.5725 271.853 56.7778 274.612 56.7778C280.315 56.7778 281.779 61.1046 281.779 66.2775V99.5597H297.613V64.931C297.613 51.0015 291.175 43.7166 279.255 43.7166ZM320.047 80.3468V57.7565H334.072V45.4091H320.047V25.9093H304.743L304.426 80.6633C304.426 82.5617 304.632 84.3572 304.743 86.0423C305.905 97.124 314.029 101.031 322.365 101.031C328.59 101.031 333.446 99.7657 335.764 98.6031V85.6228C333.446 86.7855 330.061 87.8377 326.787 87.8377C323.307 87.8377 320.04 85.9392 320.04 80.3468M228.139 66.9472C222.386 65.2106 219.67 63.7978 219.67 61.0825C219.67 58.691 221.951 57.6093 224.232 57.1752C225.755 56.8514 227.492 56.8514 229.228 56.9618C234.004 57.3959 239.426 59.1325 243.01 60.9795V47.0868C239.758 45.674 233.246 43.724 225.424 43.724C212.835 43.724 204.8 50.2362 204.8 60.3319C204.8 70.4277 211.967 75.0929 222.062 77.9186C228.25 79.7655 231.509 80.9576 231.509 83.8862C231.509 87.146 227.816 88.2277 223.806 88.2277C218.486 88.2277 210.672 85.9466 205.573 83.2313V97.4552C209.48 99.1918 215.778 101.039 224.026 101.039C237.815 101.039 246.387 94.9607 246.387 84.5338C246.387 74.7618 240.523 70.4203 228.147 66.9472M377.461 45.4091L365.048 76.8222L352.621 45.4091H336.161L359.861 99.5523H370.339L393.928 45.4091H377.469H377.461ZM146.761 42.0389V99.5597H162.485V57.7639H174.199V45.4164H161.852V43.8417C161.852 38.3524 165.332 35.4016 170.718 35.4016C173.249 35.4016 175.258 35.8211 176.097 36.1375V22.7304C175.148 22.517 172.403 22.0976 169.129 22.0976C154.987 22.0976 146.753 30.0153 146.753 42.0463M190.018 21.0454C185.184 21.0454 181.262 24.9674 181.262 29.8019C181.262 34.6364 185.184 38.5584 190.018 38.5584C194.852 38.5584 198.774 34.6364 198.774 29.8019C198.774 24.9674 194.852 21.0454 190.018 21.0454ZM108.426 48.3304H88.2653L77.1916 59.4048C76.8678 59.7286 76.8678 60.2584 77.1916 60.5821L88.2653 71.6565H108.095C114.379 71.6565 119.779 66.8294 120.074 60.5601C120.39 53.8639 115.048 48.323 108.419 48.323M182.101 99.5523H197.928V45.4164H182.101V99.5597V99.5523Z" fill="#2262E9"/>
</svg>
