<svg width="48" height="48" viewBox="0 0 48 48" fill="none" xmlns="http://www.w3.org/2000/svg">
<rect x="1" y="1" width="46" height="46" rx="23" fill="white" stroke="#F8F8F8" stroke-width="2"/>
<path fill-rule="evenodd" clip-rule="evenodd" d="M13.6323 16.7522L13.501 17.6881L14.9005 17.6832L14.3236 19.6549L13.179 19.6479L12.1224 25.5798L11.8493 27.0206C11.7856 27.362 11.7304 27.6472 11.6493 27.9449C11.5478 28.3201 11.4345 28.6472 11.3029 28.9437C11.1639 29.2524 11.0064 29.5272 10.8209 29.7813C10.6292 30.045 10.4138 30.2819 10.162 30.5075C9.97804 30.6716 9.77961 30.8217 9.57286 30.9548C9.39498 31.0696 9.20549 31.1723 9.00863 31.2625C8.64016 30.6921 8.30306 30.0989 8 29.4858C8.31671 29.3405 8.59294 29.1103 8.79906 28.8118L8.8651 28.7098L8.87655 28.694C8.87929 28.6891 8.88241 28.6845 8.8856 28.6798C8.88824 28.6758 8.89093 28.6718 8.89349 28.6676C8.99639 28.5051 9.08047 28.3276 9.152 28.1277C9.21835 27.9459 9.27765 27.7372 9.33333 27.4915C9.33726 27.4707 9.67781 25.5997 10.0257 23.6883C10.3589 21.8577 10.6988 19.9901 10.7562 19.6754L10.7608 19.6498L9.59153 19.651L10.1661 17.6904L11.0825 17.6866L11.1801 17.1763L11.1961 17.0721L11.2136 16.9666L11.2424 16.8022C11.2966 16.4879 11.3584 16.1313 11.4205 15.8795C11.4706 15.6692 11.5191 15.4969 11.5724 15.3371C11.6493 15.0961 11.728 14.8844 11.8141 14.6902C11.952 14.3837 12.1064 14.1157 12.2863 13.8684C12.4762 13.6088 12.6875 13.3769 12.9332 13.1576C13.11 12.9992 13.3045 12.8511 13.5109 12.7193C13.7289 12.577 13.966 12.4536 14.2163 12.3492C14.4878 12.2375 14.7685 12.1526 15.0505 12.0942C15.298 12.0438 15.5525 12.0139 15.8089 12.0038L16.0014 12H16.0424C16.3603 12 16.6612 12.0301 16.9366 12.0903C17.0099 12.1056 17.0792 12.1239 17.1462 12.1435L17.2449 12.1735L17.2615 12.1783L16.6213 14.2524L16.5948 14.2363C16.5887 14.2332 16.5827 14.2299 16.5765 14.2265C16.5695 14.2227 16.5623 14.2188 16.5548 14.2149C16.4576 14.1692 16.3503 14.1339 16.2369 14.1101C16.1475 14.0908 16.0527 14.0782 15.9537 14.0733L15.8536 14.0706L15.8408 14.0714C15.6991 14.0714 15.5613 14.0856 15.4281 14.112C15.3496 14.1275 15.2726 14.1485 15.1945 14.1751L15.0764 14.2192L15.0612 14.224C15.0546 14.2256 15.0478 14.2277 15.0417 14.2304C14.9531 14.2643 14.8676 14.3061 14.7805 14.3593C14.6969 14.412 14.6157 14.4721 14.5398 14.538C14.4011 14.6559 14.2824 14.7944 14.1765 14.9604C14.0762 15.1202 13.9936 15.294 13.9231 15.4901C13.8582 15.6677 13.8 15.8713 13.7451 16.1133C13.7405 16.1344 13.723 16.2345 13.7031 16.3482C13.6956 16.3912 13.6878 16.436 13.6802 16.4793C13.6612 16.5906 13.6431 16.6935 13.6353 16.7361L13.6323 16.7522ZM39.9018 14.4773L40 14.4555L39.8555 14.1284C39.6097 13.5864 39.338 13.0593 39.042 12.5485C38.3126 12.6815 37.7901 13.0832 37.4402 13.4738C37.331 13.5898 37.2303 13.7153 37.1396 13.8515C37.0905 13.9269 37.0444 14.0058 36.9998 14.0854C36.9795 14.1214 36.9622 14.1542 36.9464 14.1845L36.9406 14.1949L36.9378 14.2002L36.9341 14.2067C36.9119 14.2511 36.8959 14.2851 36.8844 14.3094L36.8843 14.3095L36.8819 14.3147C36.8414 14.4007 36.8019 14.4878 36.7649 14.579C36.6566 14.8438 36.5628 15.1334 36.4756 15.4383C36.3914 15.7428 36.3125 16.067 36.235 16.4096C36.1572 16.7456 36.0856 17.0727 36.0298 17.3842C36.0075 17.5078 35.99 17.6284 35.9736 17.7476C35.8825 17.6091 35.784 17.4872 35.6737 17.3842C35.5496 17.2696 35.414 17.174 35.2654 17.0995C35.1161 17.0235 34.9526 16.9661 34.7763 16.9263C34.6008 16.8841 34.4091 16.8592 34.2047 16.8474C34.0071 16.8361 33.81 16.8425 33.6169 16.8656C33.4245 16.8913 33.235 16.9296 33.0532 16.987C32.8717 17.0428 32.698 17.1135 32.5344 17.1984C32.3716 17.2849 32.2191 17.3827 32.0827 17.4944C31.834 17.6913 31.6275 17.9317 31.4554 18.1991C31.2816 18.4653 31.1409 18.7608 31.0232 19.0724C30.9049 19.3834 30.8096 19.7089 30.7271 20.0379C30.6453 20.3654 30.5758 20.6981 30.5095 21.0173C30.4431 21.339 30.376 21.6715 30.3217 22.0052C30.2698 22.339 30.2292 22.6726 30.2182 22.996C30.2093 23.3208 30.2276 23.632 30.2897 23.9173C30.3514 24.2044 30.4587 24.4685 30.6242 24.6933C30.7161 24.817 30.8285 24.9309 30.9575 25.0309C31.0874 25.1319 31.2336 25.2219 31.395 25.2957C31.5548 25.3706 31.7307 25.4282 31.9155 25.4717C32.1002 25.5146 32.2946 25.5391 32.4963 25.5469C32.715 25.5547 32.9189 25.5461 33.1144 25.5191C33.3079 25.4918 33.4924 25.4459 33.6701 25.3806C33.8482 25.3135 34.0207 25.2264 34.1915 25.1155C34.2869 25.054 34.3818 24.9846 34.4769 24.9081C34.5092 24.8824 34.5418 24.8563 34.5736 24.8284C34.5754 24.828 34.5757 24.8264 34.5768 24.8256C34.6077 24.8002 34.6373 24.773 34.6674 24.7446C34.6792 24.7344 34.6915 24.7234 34.7042 24.7131L34.71 24.7031L34.8005 24.6126L34.8885 24.5168C35.0188 24.3642 35.1274 24.206 35.2173 24.0459C35.2908 24.3019 35.4002 24.538 35.5586 24.7403C35.6569 24.8638 35.7762 24.9782 35.9125 25.0784C36.0024 25.1439 36.1016 25.2007 36.2052 25.2551C36.2147 25.2608 36.224 25.2668 36.2333 25.2728C36.25 25.2835 36.2666 25.2942 36.2841 25.3035C36.432 25.3809 36.5934 25.4384 36.7691 25.4811C36.9464 25.5243 37.1396 25.5492 37.3503 25.5568C37.3904 25.5577 37.4301 25.5568 37.4698 25.5558C37.4879 25.5554 37.5061 25.555 37.5242 25.5547L38.0825 23.7473L38.0629 23.744L38.0438 23.7405C37.9671 23.7244 37.8966 23.7016 37.8317 23.6696C37.7688 23.6379 37.7101 23.5993 37.6588 23.5531C37.6067 23.5068 37.5614 23.4534 37.5206 23.3948C37.4519 23.2861 37.4074 23.1588 37.3815 23.0177C37.362 22.9093 37.358 22.7905 37.3591 22.6667L37.3575 22.6573C37.3568 22.6536 37.356 22.65 37.355 22.6462C37.355 22.6462 37.3594 22.5518 37.362 22.5045C37.3644 22.4698 37.3689 22.4228 37.3754 22.3693C37.387 22.2501 37.4014 22.1276 37.4232 21.9997L37.4281 21.973C37.4319 21.9526 37.4358 21.9315 37.4394 21.9109C37.4486 21.8518 37.4557 21.811 37.4557 21.811C37.4557 21.811 37.7325 20.2177 37.7333 20.2177C37.9373 18.9894 38.1925 17.4753 38.2226 17.3173C38.2722 17.0522 38.3242 16.8001 38.3793 16.5626C38.438 16.3251 38.5018 16.0993 38.5777 15.8932C38.6529 15.6845 38.7415 15.4947 38.8455 15.3228C38.9504 15.1512 39.0714 14.9981 39.216 14.8683C39.2938 14.7961 39.3746 14.7311 39.4562 14.6774C39.5399 14.622 39.6264 14.5766 39.7169 14.5382C39.7762 14.5143 39.8376 14.4939 39.9018 14.4773ZM33.266 27.9049H33.8932L33.1498 28.7514L33.9489 30.0053H33.306L32.7948 29.1301L32.5749 29.3799V30.0053H32.0562V27.1343H32.5749V28.7635L33.266 27.9049ZM23.6413 34.8614C23.5398 34.9504 23.4259 35.0086 23.2786 35.0086C22.9981 35.0086 22.8027 34.7848 22.8027 34.5048C22.8027 34.2308 22.9948 34.007 23.2605 34.007C23.4438 34.007 23.5609 34.086 23.6728 34.2013L23.8993 33.9621L23.8536 33.9163C23.7128 33.7835 23.5343 33.6952 23.2638 33.6952C22.7875 33.6952 22.4386 34.0656 22.4386 34.5112C22.4386 34.956 22.7875 35.3178 23.2605 35.3178C23.5705 35.3178 23.755 35.1971 23.9111 35.0266L23.6913 34.8144L23.6413 34.8614ZM25.6306 34.1884C25.6737 34.2861 25.6946 34.3906 25.6946 34.5024V34.5085C25.6946 34.6187 25.6726 34.7226 25.6292 34.8208C25.5867 34.9191 25.5267 35.0051 25.4521 35.0785C25.3765 35.1523 25.2861 35.2106 25.1823 35.2546C25.0783 35.2973 24.9641 35.3193 24.8417 35.3193C24.7213 35.3193 24.6091 35.2976 24.5062 35.2557C24.4025 35.2133 24.3129 35.1561 24.2376 35.0833C24.1627 35.0105 24.1037 34.9254 24.0613 34.8273C24.0193 34.7284 23.9983 34.6246 23.9983 34.5142V34.5085C23.9983 34.3963 24.0198 34.291 24.0627 34.1929C24.1062 34.0952 24.1661 34.0097 24.2413 33.9351C24.3164 33.8612 24.4056 33.8031 24.5095 33.7596C24.6127 33.7166 24.7253 33.6952 24.8478 33.6952C24.9707 33.6952 25.0836 33.7166 25.1871 33.7586C25.29 33.8007 25.3796 33.8587 25.4549 33.9326C25.5307 34.006 25.5893 34.0916 25.6306 34.1884ZM28.9164 34.5321C28.9164 34.4204 28.9001 34.3135 28.8682 34.212C28.8361 34.111 28.7884 34.022 28.7249 33.9456C28.6615 33.8687 28.5824 33.8082 28.4869 33.7632C28.392 33.7172 28.2811 33.6952 28.1547 33.6952C28.0402 33.6952 27.9351 33.7166 27.8409 33.7586C27.7467 33.8007 27.6651 33.8587 27.5961 33.9326C27.5261 34.006 27.4728 34.0916 27.4342 34.19C27.3964 34.2882 27.3776 34.3938 27.3776 34.506V34.5117C27.3776 34.6309 27.398 34.7414 27.4403 34.84C27.4824 34.9391 27.5402 35.0244 27.613 35.0945C27.6863 35.1652 27.7732 35.2208 27.872 35.2603C27.9718 35.299 28.0791 35.3193 28.1934 35.3193C28.3398 35.3193 28.4662 35.2922 28.5718 35.2393C28.6764 35.1869 28.7682 35.1153 28.8445 35.0271L28.63 34.8416C28.5655 34.9022 28.5002 34.9487 28.4347 34.9801C28.368 35.0113 28.2907 35.0271 28.1994 35.0271C28.0808 35.0271 27.9804 34.9935 27.8966 34.9259C27.8135 34.8574 27.7616 34.7599 27.7415 34.6321H28.9103L28.9119 34.6151L28.9119 34.6151L28.9128 34.6059C28.9136 34.5976 28.9144 34.5891 28.9148 34.5804C28.9158 34.5641 28.9164 34.5477 28.9164 34.5321ZM29.9896 33.7462C29.8593 33.7744 29.6734 33.8389 29.5531 33.9847V33.7275H29.1889V35.2837H29.5531V34.6916L29.555 34.6156C29.5594 34.5421 29.5705 34.4766 29.5923 34.4204C29.7023 34.137 30.0082 34.0567 30.1664 34.0337L30.0416 33.7361L29.9896 33.7462ZM31.0493 34.8686L30.6686 33.7275H30.28L30.8712 35.2729L30.8668 35.2824L30.8638 35.2898C30.8452 35.3379 30.7379 35.6057 30.64 35.6744C30.5564 35.7163 30.3633 35.7129 30.2896 35.708V36L30.4122 35.9998C30.5558 35.999 30.7437 35.9924 30.8162 35.9471C30.9384 35.8714 30.9655 35.8391 31.0493 35.6742C31.1395 35.494 31.8364 33.7275 31.8364 33.7275H31.4569L31.0493 34.8686ZM28.5545 34.3589C28.5498 34.3146 28.5413 34.2952 28.5283 34.2651C28.5245 34.2565 28.5203 34.2469 28.5158 34.2356C28.4954 34.1861 28.4681 34.1411 28.4347 34.1046C28.4002 34.0677 28.3589 34.0385 28.3128 34.0178C28.2651 33.9973 28.2108 33.9872 28.1511 33.9872C28.0387 33.9872 27.9464 34.0243 27.872 34.1003C27.7992 34.1765 27.7544 34.2375 27.7382 34.3589H28.5545ZM26.1009 33.7275L26.528 34.8706L26.9591 33.7275H27.3421L26.6911 35.2952H26.3633L25.7087 33.7275H26.1009ZM25.2933 34.314C25.3172 34.375 25.3297 34.4395 25.3297 34.5085V34.5142C25.3297 34.5813 25.3184 34.6442 25.2965 34.7043C25.2739 34.7644 25.2427 34.8174 25.2003 34.8619C25.1581 34.9073 25.1073 34.9433 25.0482 34.9699C24.9885 34.996 24.9216 35.01 24.8478 35.01C24.7779 35.01 24.7128 34.996 24.6529 34.9699C24.5942 34.9433 24.5429 34.9073 24.5001 34.8607C24.4568 34.8144 24.4227 34.7617 24.3989 34.7003C24.3749 34.6395 24.3628 34.5756 24.3628 34.5085V34.5024C24.3628 34.4336 24.3735 34.3697 24.3958 34.309C24.4179 34.2496 24.4505 34.1978 24.4925 34.1536C24.5344 34.1093 24.5849 34.0739 24.6447 34.0468C24.7038 34.02 24.7691 34.0078 24.8417 34.0078C24.9142 34.0078 24.9801 34.02 25.0392 34.0468C25.0982 34.0739 25.1492 34.1093 25.1933 34.1555C25.2351 34.2002 25.2696 34.2531 25.2933 34.314ZM22.1131 34.5128C22.1603 34.5469 22.1989 34.5886 22.2292 34.6382C22.2521 34.6747 22.2664 34.7177 22.2722 34.7668L22.2748 34.8179V34.8241C22.2748 34.9058 22.2598 34.9777 22.2292 35.0389C22.1989 35.1 22.157 35.1504 22.1051 35.1905C22.0508 35.2304 21.9887 35.2611 21.9162 35.2825C21.8438 35.3025 21.7655 35.3129 21.6842 35.3129C21.5693 35.3129 21.4533 35.2931 21.3363 35.2546C21.248 35.2249 21.1645 35.185 21.0861 35.1344L21.0094 35.0804L21.1719 34.8384C21.2587 34.9012 21.3456 34.9487 21.4355 34.9812C21.5245 35.0142 21.6104 35.0304 21.6929 35.0304C21.7713 35.0304 21.8322 35.0143 21.875 34.9841C21.9078 34.9616 21.928 34.9329 21.936 34.8983L21.9399 34.8619V34.8564C21.9399 34.8273 21.931 34.801 21.9118 34.7795C21.8919 34.7582 21.8667 34.7387 21.8326 34.7221C21.7995 34.7054 21.7624 34.6912 21.7187 34.6779L21.663 34.6615L21.663 34.6615L21.663 34.6615L21.663 34.6615C21.6371 34.6539 21.6108 34.6463 21.5843 34.6382C21.5261 34.6224 21.4679 34.6038 21.4085 34.5819C21.3489 34.5606 21.296 34.5326 21.2486 34.4983C21.2013 34.4641 21.1631 34.421 21.1327 34.3701C21.11 34.3317 21.0962 34.2867 21.0905 34.235L21.0878 34.181V34.1755C21.0878 34.1015 21.1021 34.0344 21.1311 33.9764C21.1597 33.9182 21.2005 33.8687 21.2518 33.8276C21.3031 33.7868 21.3628 33.7551 21.4325 33.7334C21.502 33.7121 21.5755 33.7005 21.6535 33.7005C21.7542 33.7005 21.8558 33.7166 21.9583 33.7483C22.0355 33.7715 22.1067 33.8021 22.1733 33.8387L22.2384 33.8775L22.0933 34.1316C22.0173 34.086 21.9399 34.0497 21.8615 34.0234C21.7829 33.9973 21.7109 33.9842 21.6456 33.9842C21.5743 33.9842 21.5198 33.9985 21.4806 34.0275C21.4513 34.05 21.4333 34.0769 21.426 34.108L21.4226 34.1405V34.1459C21.4226 34.1736 21.4325 34.1978 21.4519 34.2176C21.4715 34.2393 21.4988 34.2577 21.5322 34.2738C21.5649 34.2906 21.6027 34.306 21.6461 34.3199L21.6544 34.3226C21.6947 34.3358 21.7368 34.3496 21.7802 34.3642C21.8387 34.3815 21.8971 34.4016 21.955 34.4258C22.0138 34.4494 22.066 34.4789 22.1131 34.5128ZM20.3965 35.2837H20.7608V33.7274H20.3965V35.2837ZM19.0646 35.2711C19.728 35.2711 20.1854 34.8208 20.1854 34.2375C20.1854 33.6543 19.728 33.2096 19.0646 33.2096H18.2797V33.5625C18.3349 33.5862 18.3881 33.6146 18.4378 33.6485C18.5175 33.7024 18.5892 33.769 18.6499 33.8424V33.5397H19.0646C19.5075 33.5397 19.797 33.8368 19.797 34.2432C19.797 34.65 19.5075 34.9418 19.0646 34.9418H18.739C18.6618 35.0744 18.5542 35.187 18.4245 35.2711H19.0646ZM30.5934 28.3625C30.7214 28.3625 30.789 28.4071 30.8692 28.4879L31.2601 28.0885C31.1167 27.9437 30.9732 27.8911 30.7694 27.8911C30.5456 27.8911 30.3459 27.9958 30.2461 28.1167V27.9156H29.739V30.0162H30.2579V28.7504C30.2579 28.4839 30.4334 28.3625 30.5934 28.3625ZM28.8424 28.9633C28.8424 28.5851 28.795 28.3459 28.6067 28.1492C28.4789 28.0125 28.2671 27.8911 27.9605 27.8911C27.6522 27.8911 27.4449 28.0125 27.3169 28.1492C27.1294 28.3459 27.0813 28.5851 27.0813 28.9633C27.0813 29.3459 27.1294 29.5843 27.3169 29.7826C27.4449 29.9193 27.6522 30.0399 27.9605 30.0399C28.2671 30.0399 28.4789 29.9193 28.6067 29.7826C28.795 29.5843 28.8424 29.3459 28.8424 28.9633ZM28.3236 28.9633C28.3236 28.746 28.3112 28.5653 28.2038 28.4555C28.144 28.3948 28.064 28.3625 27.9605 28.3625C27.8563 28.3625 27.7801 28.3948 27.7203 28.4555C27.6119 28.5653 27.6005 28.746 27.6005 28.9633C27.6005 29.1809 27.6119 29.3665 27.7203 29.4755C27.7801 29.5362 27.8563 29.5687 27.9605 29.5687C28.064 29.5687 28.144 29.5362 28.2038 29.4755C28.3112 29.3665 28.3236 29.1809 28.3236 28.9633ZM25.451 29.1887L25.7862 27.8911H26.3338L25.6988 29.9916H25.2712L24.8364 28.6733L24.4008 29.9916H23.9733L23.3332 27.8911H23.8855L24.2209 29.1887L24.6442 27.8911H25.024L25.451 29.1887ZM21.6444 27.3408V27.9621H21.4249V28.3612H21.6444V29.4012C21.6444 29.6999 21.8243 30.0023 22.2472 30.0023H22.531V29.5581H22.3432C22.2198 29.5581 22.1636 29.4895 22.1636 29.3686V28.3612H22.531V27.9621H22.1636V27.3408H21.6444ZM19.3465 29.129H20.6486V28.8946C20.6486 28.3182 20.3211 27.8911 19.7418 27.8911C19.2028 27.8911 18.8355 28.2787 18.8355 28.9633C18.8355 29.8143 19.307 30.0399 19.7978 30.0399C20.1733 30.0399 20.3769 29.9227 20.5889 29.7093L20.2733 29.3988C20.1416 29.5322 20.0295 29.5969 19.8025 29.5969C19.5103 29.5969 19.3465 29.3988 19.3465 29.129ZM20.1374 28.7694C20.1335 28.6776 20.1217 28.6204 20.0893 28.5433C20.0336 28.4197 19.9181 28.327 19.7418 28.327C19.5669 28.327 19.4505 28.4197 19.3945 28.5433C19.3628 28.6204 19.3511 28.6776 19.3465 28.7694H20.1374ZM17.3876 30.0162V28.746C17.3876 28.4595 17.2078 28.3625 17.0445 28.3625C16.8809 28.3625 16.6965 28.4595 16.6965 28.746V30.0162H16.1777V27.9156H16.6849V28.1085C16.8209 27.9642 17.0125 27.8911 17.2042 27.8911C17.4115 27.8911 17.579 27.9593 17.6951 28.0773C17.8627 28.2457 17.9068 28.4433 17.9068 28.673V30.0162H17.3876ZM18.7112 34.4636C18.7112 34.0095 18.3349 33.6407 17.8701 33.6407C17.406 33.6407 17.029 34.0095 17.029 34.4636C17.029 34.9178 17.406 35.286 17.8701 35.286C18.3349 35.286 18.7112 34.9178 18.7112 34.4636ZM35.5917 19.7925C35.5964 19.5948 35.5834 19.4119 35.5481 19.2509C35.5139 19.0869 35.4574 18.941 35.3722 18.8164C35.3233 18.7468 35.2671 18.6869 35.2038 18.6337C35.1415 18.5817 35.07 18.5379 34.9931 18.5037C34.9161 18.4672 34.8304 18.4404 34.739 18.424C34.6472 18.4057 34.549 18.3968 34.4427 18.396C34.3355 18.3968 34.2353 18.4054 34.1384 18.424C34.043 18.4404 33.9526 18.4683 33.8659 18.5021C33.7799 18.5387 33.6971 18.583 33.6166 18.6343C33.5373 18.6874 33.4602 18.7493 33.3849 18.8191C33.2461 18.9437 33.1294 19.0904 33.0285 19.2545C32.9277 19.4207 32.843 19.6031 32.7702 19.8029C32.6969 20.0014 32.6353 20.2177 32.5795 20.4463C32.5252 20.6737 32.4753 20.9157 32.4267 21.1706C32.3779 21.4221 32.3333 21.6656 32.3005 21.8975C32.267 22.1276 32.246 22.3465 32.24 22.5502C32.234 22.7526 32.2467 22.9387 32.2798 23.1082C32.315 23.275 32.371 23.4238 32.4551 23.5504C32.5056 23.62 32.5611 23.6819 32.6251 23.7346C32.6866 23.7891 32.7564 23.8334 32.8326 23.8679C32.9109 23.9046 32.9948 23.9297 33.0871 23.9481C33.1793 23.9654 33.2803 23.9732 33.3884 23.9721C33.4955 23.9696 33.5989 23.9587 33.696 23.9393C33.7948 23.9197 33.8874 23.8904 33.9776 23.8538C34.0668 23.8162 34.1528 23.7693 34.2353 23.7131C34.3165 23.6584 34.3955 23.5958 34.4706 23.5233C34.6082 23.3948 34.7241 23.2449 34.8227 23.0773C34.9224 22.9082 35.005 22.721 35.0772 22.5192C35.1165 22.4099 35.152 22.2949 35.1853 22.1763C35.2267 22.0451 35.2642 21.9093 35.2969 21.7666C35.3443 21.5646 35.3848 21.3524 35.4237 21.1323C35.4433 21.0204 35.4623 20.9109 35.4783 20.804C35.5001 20.6767 35.5202 20.5512 35.5366 20.4303C35.5675 20.2023 35.5879 19.9902 35.5917 19.7925ZM20.9498 23.7449C21.1112 23.5174 21.2474 23.2729 21.3625 23.0059C21.4786 22.7397 21.5751 22.4497 21.6576 22.1328C21.7396 21.816 21.81 21.469 21.8733 21.0877C21.9377 20.7089 21.9849 20.3668 22.0089 20.0536C22.0336 19.7412 22.0362 19.4565 22.01 19.197C21.9854 18.9353 21.9325 18.6985 21.8496 18.475C21.7655 18.2516 21.6502 18.0466 21.4993 17.85C21.3978 17.7146 21.2751 17.5835 21.1283 17.4613C20.9823 17.3407 20.8122 17.2279 20.6162 17.1328C20.4199 17.0385 20.2002 16.9588 19.9509 16.9048C19.7035 16.8476 19.4281 16.8157 19.1238 16.8148C18.8177 16.8103 18.5305 16.838 18.262 16.8903C17.9936 16.9414 17.7432 17.0184 17.5128 17.11C17.2819 17.2034 17.07 17.312 16.8769 17.4334C16.6845 17.5548 16.5104 17.6866 16.3559 17.821C16.1305 18.0182 15.9379 18.2271 15.7704 18.4509C15.6033 18.6757 15.4626 18.9182 15.3396 19.1825C15.2185 19.4487 15.1162 19.7368 15.0262 20.0565C14.936 20.3737 14.8585 20.7226 14.787 21.1091C14.7165 21.4977 14.6646 21.8488 14.6361 22.173C14.6066 22.4951 14.6022 22.7884 14.624 23.0585C14.6471 23.3287 14.6977 23.5751 14.781 23.8052C14.8656 24.0338 14.9824 24.2474 15.1373 24.4489C15.243 24.5874 15.3696 24.722 15.52 24.8472C15.6704 24.9717 15.8441 25.0829 16.0447 25.177C16.2438 25.2729 16.4714 25.3502 16.7261 25.4015C16.9795 25.4533 17.2626 25.4808 17.5762 25.476C17.8885 25.4727 18.1827 25.4354 18.4563 25.3785C18.7289 25.317 18.9823 25.2355 19.216 25.1353C19.4497 25.0371 19.6624 24.9183 19.856 24.7932C20.0491 24.6651 20.2218 24.5296 20.3757 24.3894C20.5981 24.1867 20.7871 23.9726 20.9498 23.7449ZM19.979 19.7673C19.9837 19.5709 19.9711 19.391 19.9354 19.2301C19.9023 19.0689 19.8453 18.9241 19.7617 18.8005C19.7129 18.7309 19.6569 18.6724 19.5955 18.6204C19.5335 18.568 19.4624 18.5258 19.3859 18.4903C19.3089 18.4557 19.226 18.4285 19.1352 18.4106C19.0444 18.3944 18.9464 18.3861 18.8414 18.3855C18.7355 18.3855 18.6356 18.3936 18.5398 18.4114C18.4464 18.4285 18.3558 18.4551 18.2701 18.4897C18.1842 18.5258 18.1027 18.5696 18.0243 18.6209C17.9457 18.6732 17.8689 18.734 17.7934 18.8019C17.6569 18.927 17.5405 19.0711 17.4409 19.2349C17.3409 19.3987 17.2565 19.5789 17.1857 19.7777C17.1126 19.9727 17.0515 20.1879 16.9961 20.4143C16.9418 20.6399 16.8925 20.8797 16.8456 21.132C16.7965 21.3806 16.7528 21.6224 16.7198 21.8502C16.6875 22.0793 16.6657 22.2968 16.6609 22.4977C16.6546 22.6984 16.6657 22.8827 16.6991 23.0486C16.7343 23.2144 16.7895 23.3621 16.8737 23.4883C16.9231 23.556 16.9785 23.6175 17.0408 23.6701C17.1016 23.7238 17.1716 23.7679 17.2475 23.8029C17.3247 23.8377 17.4085 23.8636 17.4987 23.8819C17.5901 23.8985 17.6902 23.9068 17.7973 23.9055C17.9024 23.903 18.0047 23.8917 18.1021 23.874C18.1986 23.8534 18.2921 23.8249 18.3812 23.7878C18.469 23.7505 18.5544 23.7048 18.6348 23.6492C18.7159 23.5939 18.7945 23.5319 18.8685 23.461C19.0047 23.3342 19.1189 23.1861 19.2171 23.0189C19.3159 22.8518 19.3981 22.6667 19.4692 22.4668C19.509 22.3567 19.5442 22.2415 19.5773 22.1225C19.618 21.9942 19.6555 21.8611 19.6872 21.7209C19.7333 21.5222 19.7735 21.3122 19.8125 21.0941C19.8318 20.9836 19.8502 20.8757 19.8665 20.7715C19.8882 20.6441 19.9081 20.5196 19.9244 20.3984C19.9556 20.1731 19.9755 19.9619 19.979 19.7673ZM22.4736 22.173C22.4433 22.4951 22.4392 22.7884 22.4612 23.0596C22.4845 23.3287 22.5351 23.5751 22.6185 23.8052C22.7042 24.0352 22.8195 24.246 22.9743 24.4489C23.0802 24.5866 23.2074 24.7217 23.358 24.8472C23.5076 24.9717 23.6831 25.0829 23.8824 25.1778C24.0822 25.2721 24.3093 25.3494 24.5645 25.4012C24.819 25.4533 25.101 25.4808 25.414 25.4752C25.7271 25.4727 26.0205 25.4362 26.2949 25.3785C26.5678 25.3163 26.8202 25.2352 27.0546 25.1353C27.2877 25.0371 27.5013 24.9183 27.694 24.7926C27.8875 24.6651 28.0605 24.5289 28.2146 24.3894C28.4364 24.1867 28.6259 23.9726 28.7878 23.7441C28.9495 23.5166 29.0852 23.2729 29.2011 23.0059C29.3173 22.7397 29.413 22.4497 29.4965 22.1328C29.5791 21.8156 29.6483 21.469 29.7122 21.0877C29.7763 20.7089 29.8235 20.3668 29.8475 20.0536C29.8723 19.7412 29.8742 19.4568 29.8486 19.1962C29.8235 18.9345 29.7722 18.6977 29.6878 18.475C29.6045 18.2524 29.4889 18.0466 29.3377 17.85C29.2369 17.7146 29.1137 17.5835 28.9672 17.4613C28.8205 17.3397 28.6502 17.2265 28.4544 17.1328C28.259 17.0385 28.038 16.9588 27.7895 16.9043C27.5424 16.8476 27.2667 16.8157 26.9625 16.8148C26.6565 16.8103 26.3691 16.838 26.0999 16.8909C25.8314 16.9414 25.5818 17.0184 25.3512 17.109C25.1209 17.2034 24.9096 17.312 24.7161 17.4334C24.5227 17.554 24.349 17.6862 24.1948 17.821C23.9685 18.0182 23.7766 18.2271 23.6082 18.4509C23.4403 18.6765 23.3002 18.9182 23.1768 19.1825C23.0555 19.4487 22.9537 19.7368 22.8629 20.056C22.7733 20.3737 22.6947 20.7226 22.6237 21.1083C22.554 21.4977 22.502 21.8488 22.4736 22.173ZM24.4988 22.4975C24.4933 22.6984 24.5046 22.8827 24.5384 23.0497C24.5722 23.2144 24.6282 23.3613 24.7111 23.4883C24.7617 23.556 24.8163 23.6175 24.8797 23.6701C24.9413 23.7238 25.0104 23.7679 25.0855 23.8029C25.1625 23.8377 25.2467 23.8636 25.3369 23.8815C25.4284 23.8985 25.528 23.9068 25.6356 23.9055C25.742 23.9027 25.8444 23.8923 25.9399 23.8733C26.038 23.8534 26.1302 23.8243 26.2191 23.7878C26.3076 23.7505 26.3928 23.7048 26.4739 23.6484C26.5542 23.5939 26.6329 23.5319 26.7073 23.461C26.8433 23.3342 26.9581 23.1857 27.0562 23.0189C27.1555 22.8518 27.2365 22.6661 27.3079 22.466C27.3471 22.3581 27.3818 22.2447 27.4146 22.1273C27.4558 21.9977 27.493 21.8626 27.5255 21.7209C27.5724 21.5222 27.6125 21.3122 27.6513 21.0938C27.6704 20.9824 27.6888 20.8747 27.7045 20.7693C27.7269 20.6421 27.7464 20.5185 27.763 20.3984C27.7936 20.1728 27.8138 19.9627 27.8171 19.7673C27.8221 19.5709 27.8094 19.391 27.7744 19.2301C27.7405 19.0689 27.6845 18.9241 27.5997 18.8005C27.5517 18.7309 27.4955 18.6724 27.4333 18.6204C27.3713 18.568 27.3005 18.5245 27.2251 18.4903C27.1481 18.4551 27.0638 18.4285 26.9735 18.4114C26.8824 18.3936 26.7846 18.3855 26.6795 18.3855C26.5738 18.3855 26.4742 18.3936 26.3779 18.4114C26.2839 18.4285 26.194 18.4557 26.1081 18.4897C26.0234 18.5258 25.9409 18.5691 25.8621 18.6208C25.7829 18.6732 25.7068 18.7336 25.6325 18.803C25.4949 18.927 25.3793 19.0711 25.2795 19.2349C25.1799 19.3987 25.0955 19.5789 25.0232 19.7777C24.9509 19.9727 24.8904 20.1883 24.8344 20.4143C24.7805 20.6399 24.7311 20.8797 24.6836 21.132C24.6353 21.3806 24.5911 21.6218 24.5586 21.851C24.525 22.079 24.5046 22.2968 24.4988 22.4975Z" fill="#C7003A"/>
</svg>
