<svg width="100" height="120" viewBox="0 0 100 120" fill="none" xmlns="http://www.w3.org/2000/svg">
<rect x="0.0498047" width="99.0697" height="99.0697" fill="white"/>
<path d="M8.72352 113.81L11.9029 114.267C11.531 115.222 10.8495 116.026 9.96731 116.548C8.95371 117.102 7.8095 117.371 6.65544 117.328C4.56283 117.328 3.01116 116.742 2.00043 115.569C1.18373 114.568 0.759889 113.303 0.808155 112.011C0.808155 110.294 1.33069 108.953 2.37577 107.989C3.45607 107.005 4.8787 106.483 6.33897 106.535C8.13474 106.535 9.55026 107.042 10.5855 108.055C11.6208 109.068 12.1114 110.624 12.0575 112.721H4.09794C4.0885 113.073 4.15232 113.423 4.28536 113.748C4.4184 114.074 4.61774 114.368 4.87071 114.613C5.37425 115.066 6.03344 115.307 6.71064 115.286C7.15817 115.297 7.59801 115.168 7.96915 114.918C8.33456 114.641 8.59945 114.252 8.72352 113.81ZM8.90383 111.047C8.91619 110.713 8.85912 110.381 8.73623 110.07C8.61334 109.76 8.42731 109.478 8.18994 109.244C7.73794 108.832 7.14492 108.611 6.534 108.625C6.217 108.615 5.90096 108.666 5.60412 108.778C5.30727 108.89 5.0355 109.059 4.80447 109.277C4.57386 109.508 4.39491 109.785 4.27945 110.09C4.16399 110.395 4.11467 110.721 4.13474 111.047H8.90383Z" fill="#00A7E3"/>
<path d="M13.6654 114.149L16.6093 113.733C16.7047 114.218 16.9777 114.65 17.3747 114.944C17.8553 115.244 18.4171 115.388 18.9828 115.356C19.5814 115.397 20.1789 115.261 20.7013 114.966C20.8202 114.885 20.9164 114.774 20.9807 114.646C21.0451 114.517 21.0756 114.374 21.0693 114.23C21.0719 114.134 21.0546 114.039 21.0185 113.95C20.9824 113.862 20.9282 113.781 20.8595 113.715C20.5623 113.523 20.2272 113.397 19.877 113.347C17.5023 112.856 15.9984 112.412 15.3655 112.015C14.9571 111.781 14.6193 111.442 14.3874 111.033C14.1556 110.623 14.0384 110.159 14.0481 109.689C14.0469 109.25 14.1496 108.816 14.3479 108.424C14.5462 108.032 14.8343 107.693 15.1889 107.433C15.9469 106.825 17.1257 106.521 18.7252 106.521C20.2462 106.521 21.3759 106.75 22.1144 107.209C22.8603 107.676 23.406 108.404 23.6452 109.251L20.8706 109.729C20.7684 109.349 20.5284 109.019 20.1972 108.806C19.7633 108.567 19.2709 108.456 18.7767 108.486C18.2057 108.444 17.6334 108.548 17.1134 108.787C17.0132 108.841 16.9293 108.92 16.8703 109.017C16.8114 109.115 16.7797 109.226 16.7786 109.339C16.7815 109.44 16.8101 109.539 16.8616 109.626C16.9131 109.713 16.9858 109.785 17.073 109.836C17.3379 110.018 18.253 110.274 19.8181 110.605C21.3833 110.936 22.4774 111.341 23.1006 111.82C23.4046 112.061 23.6466 112.372 23.8066 112.726C23.9666 113.08 24.0399 113.467 24.0205 113.855C24.0145 114.333 23.8957 114.803 23.6738 115.227C23.4519 115.651 23.1333 116.017 22.7436 116.294C21.8923 116.976 20.6326 117.316 18.9644 117.314C17.4532 117.314 16.256 117.029 15.3729 116.46C14.5344 115.93 13.9251 115.106 13.6654 114.149Z" fill="#00A7E3"/>
<path d="M25.4412 106.767H28.1643V108.283C28.5353 107.752 29.0304 107.318 29.6068 107.021C30.2293 106.694 30.9237 106.527 31.627 106.535C32.2432 106.525 32.8547 106.645 33.4211 106.888C33.9874 107.131 34.496 107.491 34.9131 107.945C35.8135 108.882 36.2637 110.192 36.2637 111.875C36.2637 113.592 35.8098 114.933 34.9021 115.897C34.4839 116.358 33.972 116.724 33.4009 116.971C32.8297 117.218 32.2124 117.34 31.5902 117.328C31.0166 117.338 30.4478 117.222 29.9233 116.99C29.3335 116.697 28.8003 116.302 28.3483 115.823V120H25.4412V106.767ZM28.3483 111.757C28.3483 112.916 28.5985 113.774 29.0843 114.333C29.3035 114.598 29.5784 114.811 29.8895 114.957C30.2005 115.103 30.54 115.179 30.8837 115.179C31.2067 115.185 31.527 115.12 31.822 114.988C32.1171 114.857 32.3796 114.662 32.5912 114.418C33.0426 113.907 33.2695 113.072 33.2719 111.912C33.2719 110.83 33.0377 110.025 32.5691 109.498C32.3555 109.247 32.089 109.046 31.7887 108.91C31.4885 108.774 31.1618 108.705 30.8322 108.71C30.4956 108.702 30.1612 108.767 29.8524 108.901C29.5435 109.035 29.2676 109.235 29.0438 109.487C28.5679 109.99 28.3299 110.746 28.3299 111.757H28.3483Z" fill="#00A7E3"/>
<path d="M40.7936 109.917L38.1257 109.472C38.3616 108.574 38.9112 107.791 39.6749 107.264C40.4109 106.786 41.4989 106.546 42.9389 106.546C44.2526 106.546 45.2278 106.69 45.8828 106.977C46.4378 107.195 46.9111 107.581 47.237 108.081C47.4983 108.526 47.6271 109.339 47.6271 110.528L47.5976 113.718C47.5799 114.39 47.6268 115.061 47.7375 115.724C47.8523 116.208 48.0305 116.674 48.2674 117.111H45.3566C45.2793 116.931 45.1873 116.662 45.0769 116.305C45.0254 116.143 44.9923 116.037 44.9702 115.981C44.4996 116.418 43.9534 116.764 43.3584 117.004C42.7727 117.235 42.1479 117.35 41.5185 117.343C40.541 117.399 39.5775 117.091 38.8138 116.478C38.2973 116.016 37.9602 115.387 37.862 114.701C37.7637 114.015 37.9105 113.317 38.2766 112.728C38.5863 112.263 39.0249 111.899 39.5387 111.68C40.2899 111.376 41.0742 111.163 41.8755 111.043C42.8464 110.903 43.8032 110.678 44.7347 110.37V110.097C44.7521 109.894 44.7235 109.689 44.6509 109.498C44.5782 109.306 44.4635 109.134 44.3152 108.993C44.0355 108.769 43.5093 108.659 42.7329 108.659C42.3064 108.634 41.882 108.734 41.5112 108.946C41.1776 109.188 40.927 109.527 40.7936 109.917ZM44.731 112.125C44.3508 112.243 43.7534 112.383 42.9389 112.544C42.385 112.623 41.8456 112.783 41.3382 113.019C41.1666 113.116 41.0232 113.255 40.9225 113.425C40.8218 113.594 40.7672 113.786 40.7641 113.983C40.7636 114.172 40.8045 114.359 40.884 114.531C40.9635 114.703 41.0796 114.855 41.2241 114.977C41.5468 115.26 41.9655 115.408 42.3943 115.393C42.9384 115.388 43.4684 115.219 43.9141 114.907C44.2433 114.693 44.4899 114.374 44.6133 114.002C44.7125 113.565 44.7521 113.117 44.731 112.67V112.125Z" fill="#00A7E3"/>
<path d="M60.6241 117.097H57.6802V111.827C57.7214 111.099 57.6582 110.369 57.4925 109.66C57.3773 109.346 57.1628 109.078 56.8816 108.898C56.574 108.71 56.2188 108.616 55.8587 108.626C55.374 108.618 54.8979 108.754 54.4898 109.016C54.1015 109.252 53.8075 109.616 53.6581 110.046C53.4673 110.822 53.3904 111.621 53.43 112.419V117.097H50.4861V106.767H53.2202V108.283C53.656 107.727 54.2154 107.279 54.854 106.975C55.4927 106.672 56.1931 106.521 56.9 106.535C57.5079 106.527 58.1115 106.637 58.6774 106.859C59.1474 107.031 59.5673 107.316 59.8991 107.691C60.1734 108.026 60.3695 108.418 60.4732 108.839C60.5976 109.444 60.652 110.061 60.6351 110.679L60.6241 117.097ZM53.2901 105.376H51.9359C51.9359 105.229 51.9359 105.111 51.9359 105.027C51.9171 104.742 51.9545 104.457 52.0461 104.188C52.1377 103.918 52.2816 103.669 52.4695 103.455C52.6475 103.274 52.8611 103.132 53.0966 103.038C53.3322 102.944 53.5848 102.899 53.8384 102.907C54.0675 102.904 54.2961 102.929 54.5192 102.981C54.9108 103.093 55.2944 103.232 55.6673 103.396C56.0762 103.592 56.518 103.709 56.97 103.742C57.1742 103.75 57.3738 103.68 57.5293 103.547C57.7018 103.373 57.804 103.141 57.8163 102.896H59.1779C59.1779 103.772 59.0012 104.397 58.648 104.773C58.4793 104.958 58.2727 105.104 58.0421 105.202C57.8115 105.3 57.5625 105.347 57.3122 105.339C57.0774 105.338 56.8434 105.315 56.613 105.269C56.4511 105.233 56.05 105.097 55.4097 104.872C54.9622 104.688 54.4895 104.573 54.0077 104.53C53.9121 104.524 53.8163 104.538 53.7263 104.571C53.6364 104.604 53.5543 104.655 53.4852 104.721C53.3411 104.908 53.2716 105.141 53.2901 105.376Z" fill="#00A7E3"/>
<path d="M62.9278 111.787C62.9368 110.859 63.1907 109.95 63.6638 109.152C64.1344 108.312 64.8475 107.633 65.7098 107.205C66.624 106.751 67.6332 106.522 68.6537 106.535C70.1788 106.477 71.6652 107.023 72.7898 108.055C73.3129 108.547 73.7254 109.145 74.0001 109.809C74.2748 110.472 74.4054 111.186 74.3832 111.904C74.4008 112.63 74.2646 113.352 73.9836 114.022C73.7027 114.691 73.2833 115.294 72.7531 115.79C71.6457 116.826 70.1725 117.379 68.6574 117.328C67.6507 117.331 66.6557 117.113 65.7429 116.688C64.8608 116.297 64.1233 115.64 63.6344 114.808C63.1342 113.881 62.8903 112.839 62.9278 111.787ZM65.9417 111.934C65.8836 112.79 66.1652 113.635 66.7255 114.285C66.9768 114.544 67.2775 114.749 67.6096 114.889C67.9418 115.03 68.2987 115.102 68.6592 115.102C69.0198 115.102 69.3767 115.03 69.7088 114.889C70.041 114.749 70.3416 114.544 70.593 114.285C71.1131 113.741 71.3731 112.949 71.3731 111.912C71.4289 111.062 71.1487 110.224 70.593 109.579C70.3416 109.32 70.041 109.115 69.7088 108.974C69.3767 108.834 69.0198 108.762 68.6592 108.762C68.2987 108.762 67.9418 108.834 67.6096 108.974C67.2775 109.115 66.9768 109.32 66.7255 109.579C66.2029 110.123 65.9417 110.908 65.9417 111.934Z" fill="#00A7E3"/>
<path d="M76.6977 117.097V102.837H79.6416V117.097H76.6977Z" fill="#00A7E3"/>
<path d="M99.4059 99.356V94.4986C94.4307 96.3385 89.7168 97.9503 85.2495 99.356H99.4059Z" fill="#00A7E3"/>
<path d="M47.023 64.4784C49.2825 66.0019 55.4867 65.9688 62.1104 64.3975C70.3312 62.4435 76.6091 58.8078 76.0939 56.2687C75.9707 55.8066 75.6724 55.4106 75.2622 55.1647C72.9844 53.6376 66.7986 53.6707 60.1748 55.2457C53.5511 56.8206 47.9393 59.5805 46.5042 61.9798C46.2266 62.3812 46.1146 62.8741 46.1914 63.3561C46.3142 63.8204 46.6159 64.2173 47.0304 64.46" fill="#00A7E3"/>
<path d="M40.9919 21.1482L42.2541 16.4085L43.5714 21.1482H40.9919Z" fill="#00A7E3"/>
<path d="M29.945 18.1196H27.5751V15.4554H29.9302C30.7435 15.4554 31.1483 15.9007 31.1483 16.7839C31.1483 17.667 30.7435 18.1049 29.9302 18.1049L29.945 18.1196Z" fill="#00A7E3"/>
<path d="M35.6338 42.506H41.1536V35.816L35.6338 42.506Z" fill="#00A7E3"/>
<path fill-rule="evenodd" clip-rule="evenodd" d="M67.2844 89.0083C47.2329 93.7663 28.6459 93.5235 21.025 88.4048C19.185 87.1499 18.0406 85.6449 17.6763 83.9117C17.0986 81.1702 18.5337 77.9908 21.8309 74.712C21.8541 74.6961 21.8817 74.6875 21.91 74.6875C21.9382 74.6875 21.9658 74.6961 21.9891 74.712C22.0096 74.7354 22.0224 74.7646 22.0257 74.7956C22.029 74.8266 22.0226 74.8578 22.0075 74.885C20.3773 77.0303 19.7481 79.0469 20.1344 80.8611C20.4399 82.333 21.415 83.6283 23.0268 84.7028C30.0185 89.4131 47.4757 89.5492 66.4491 85.0708C79.8069 81.8841 91.7738 76.931 99.3985 71.4554V0H0.0498047V99.356H9.19056C8.50381 98.4168 8.02236 97.3435 7.77749 96.2061C7.66015 95.6432 7.60096 95.0699 7.60086 94.4949C7.60086 92.0405 8.6533 89.4131 10.7361 86.6605C10.7559 86.6416 10.7823 86.6311 10.8097 86.6311C10.8371 86.6311 10.8634 86.6416 10.8833 86.6605L10.9238 86.8114C9.75357 88.9678 9.36351 91.0027 9.75358 92.8684C10.3203 95.551 12.4583 97.7222 15.8253 99.3597H67.3911C67.6216 99.3081 67.8516 99.2577 68.0817 99.2074C68.5242 99.1105 68.9672 99.0136 69.415 98.9071C80.3442 96.3054 90.6735 92.7102 99.4095 88.4747V76.3533C91.2108 81.5345 79.8584 86.0313 67.2917 89.0083H67.2844ZM59.9983 54.4618C70.0259 52.0809 78.7655 52.8942 79.5015 56.3017C79.6175 57.029 79.4503 57.7732 79.0342 58.3809C77.1648 61.4977 70.5705 64.8537 62.5963 66.7599C52.565 69.126 43.829 68.3201 43.1114 64.942C42.3939 61.5639 49.9633 56.8464 60.0093 54.4802L59.9983 54.4618ZM35.5714 64.5777C35.5826 64.5694 35.5955 64.5634 35.6091 64.5602C35.6227 64.557 35.6368 64.5566 35.6506 64.559C35.6643 64.5614 35.6775 64.5666 35.6892 64.5742C35.7009 64.5819 35.7109 64.5918 35.7186 64.6035C35.7383 64.6252 35.7492 64.6534 35.7492 64.6826C35.7492 64.7119 35.7383 64.7401 35.7186 64.7617C33.1427 66.9696 31.9688 69.0635 32.3405 70.8224C32.5319 71.7571 33.1574 72.5814 34.1804 73.2732C38.7986 76.3827 51.0599 76.4158 63.9872 73.3431C80.3147 69.4535 92.7158 62.0276 91.5861 56.7507C91.1998 54.9991 89.3046 53.6228 86.0921 52.8096C86.061 52.7994 86.035 52.7777 86.0192 52.749C86.0035 52.7203 85.9993 52.6867 86.0075 52.655C86.017 52.6279 86.0351 52.6047 86.059 52.5887C86.0829 52.5728 86.1113 52.5651 86.1399 52.5667C91.4095 53.4241 94.5042 55.2493 95.0489 57.8546C95.3028 59.0138 95.0121 60.287 94.2099 61.6228C90.8502 67.2456 78.9753 73.31 64.6643 76.7102C50.3534 80.1104 37.1869 79.9926 31.8768 76.4232C30.6147 75.5658 29.8566 74.5612 29.6101 73.3799C29.0691 70.7672 31.1151 67.7277 35.553 64.5777H35.5714ZM40.2154 12.4306L35.7444 25.6523H39.7554L40.2154 23.9191H44.2633L44.7527 25.6707H48.8226L44.37 12.4306H40.2154ZM12.462 25.6523H16.5613V21.1813H21.025V18.0828H16.5613V15.5069H22.1878V12.4122H12.462V25.6523ZM86.9827 15.4996V12.4122H76.6791V25.6597H86.9827V22.5723H80.7821V20.5704H85.9339V17.4941H80.7821V15.4996H86.9827ZM34.784 16.8906C34.784 14.0129 33.1427 12.4306 30.1657 12.4306H23.7922V25.6523H27.5751V21.1555H28.8852C29.0581 21.5051 31.0931 25.6523 31.0931 25.6523H35.1593C35.1593 25.6523 32.8557 21.0893 32.5061 20.449C33.1964 20.1493 33.7818 19.6508 34.1875 19.017C34.5932 18.3832 34.8008 17.6429 34.784 16.8906ZM69.1648 22.6679C67.3838 22.6679 66.7913 20.828 66.7913 19.0396C66.7913 17.2512 67.3838 15.4039 69.1648 15.4039C70.7545 15.4039 71.1078 16.8759 71.1851 17.3542H74.9238C74.5926 14.0424 72.7159 12.1252 69.2752 12.1178C65.4298 12.1178 62.9385 14.874 62.9385 19.0396C62.9385 22.955 65.2311 25.9651 69.2752 25.9651C70.0133 25.9892 70.7486 25.865 71.4378 25.5998C72.127 25.3346 72.756 24.9339 73.2875 24.4212C73.819 23.9086 74.2422 23.2945 74.5321 22.6154C74.822 21.9362 74.9727 21.2058 74.9753 20.4674H71.1924C70.9606 21.7075 70.4565 22.6753 69.1648 22.6753V22.6679ZM57.4555 19.5033H57.4187L53.783 12.4416H49.8493V25.6523H53.496V18.4251H53.5254L57.3635 25.6523H61.1059V12.4306H57.4555V19.5033ZM47.8951 29.1849V42.506H50.9383V48.3386H47.8877V53.0966H41.1536V48.3386H31.5492V53.0966H12.0055C11.8667 50.9996 12.4369 48.9169 13.6246 47.1831C15.2783 44.746 17.9433 43.057 20.5197 41.4242C20.8959 41.1857 21.2703 40.9485 21.6393 40.7102C21.7764 40.6205 21.9238 40.528 22.0772 40.4318C23.2136 39.7193 24.6789 38.8005 24.6789 37.2475C24.6789 35.0911 23.4682 34.3331 21.9632 34.3331C19.3615 34.3331 18.482 36.3275 18.5556 39.2493H12.4581C12.1122 32.6808 15.965 28.9126 22.0257 28.9126C27.505 28.9126 31.2254 31.345 31.2254 36.4232C31.2254 41.4521 27.4279 43.649 23.7161 45.7963C22.9083 46.2636 22.1046 46.7286 21.345 47.2199V47.2567H31.1444V41.8988L41.448 29.1849H47.8951Z" fill="#00A7E3"/>
</svg>
