<svg width="306" height="120" viewBox="0 0 306 120" fill="none" xmlns="http://www.w3.org/2000/svg">
<path d="M147.377 59.4421H164.669L163.759 63.8637H147.377V77.4545H142.108V42.5454H165.196L166.108 46.967H147.377V59.4421Z" fill="#46B854"/>
<path d="M195.562 51.2803V77.9738H190.512L190.993 73.6927C188.972 76.7978 185.701 78.5454 181.277 78.5454C175.41 78.5454 171.562 75.0048 171.562 69.1775V51.2803H176.753V68.1249C176.753 72.1037 178.774 74.141 182.477 74.141C187.143 74.141 190.317 70.55 190.317 64.8713V51.2727L195.562 51.2803Z" fill="#46B854"/>
<path d="M218.262 72.3705C219.933 72.3436 221.576 71.9382 223.064 71.1853L222.247 77.1213C219.99 78.107 218.013 78.5456 215.911 78.5456C209.862 78.5456 206.448 74.6523 206.448 67.8587V57.3148H201.078L199.925 51.7582H206.455V45.5363L213.366 43.6365V51.768H223.925L222.822 57.3246H213.359V66.777C213.373 70.6136 214.957 72.3705 218.262 72.3705Z" fill="#46B854"/>
<path d="M252.29 51.2727V77.868H246.346L246.666 73.7106C244.745 76.8042 241.686 78.5454 237.616 78.5454C231.855 78.5454 228.29 74.9199 228.29 69.0665V51.2727H234.871V67.6665C234.871 71.0034 236.517 72.7923 239.442 72.7923C243 72.7923 245.661 69.8919 245.661 64.6205V51.2727H252.29Z" fill="#46B854"/>
<path d="M277.381 59.7511H275.757C271.068 59.7511 268.746 62.117 268.746 66.7503V77.4545H259.926V51.9682H267.354L266.935 57.8998C268.096 53.8123 271.16 51.2276 275.989 51.2733L277.381 59.7511Z" fill="#46B854"/>
<path d="M304.653 61.6704V77.8429H297.615L298.163 73.94C296.519 76.8062 293.686 78.5454 289.799 78.5454C283.994 78.5454 279.562 74.6913 279.562 69.1907C279.562 64.0682 283.034 61.9948 291.217 61.9948H296.197C295.922 59.5555 293.866 58.3359 289.794 58.3359C287.068 58.3646 284.36 58.7925 281.751 59.6067L283.349 52.3181C286.288 51.5984 289.301 51.2478 292.322 51.2741C300.776 51.2741 304.653 54.7574 304.653 61.6704ZM296.199 67.3588H291.765C289.434 67.3588 288.246 67.9711 288.246 69.5225C288.246 71.2617 289.799 72.5301 291.947 72.5301C294.513 72.5301 296.206 70.6958 296.206 67.3588H296.199Z" fill="#46B854"/>
<path d="M60.2896 120C27.206 120 0.289551 93.0819 0.289551 59.9964C0.289551 26.9108 27.206 0 60.2896 0C93.3731 0 120.29 26.9084 120.29 59.9964C120.29 93.0843 93.3731 120 60.2896 120ZM60.2896 14.2943C35.0921 14.2943 14.5903 34.7949 14.5903 59.9964C14.5903 85.1978 35.0921 105.698 60.2896 105.698C85.487 105.698 105.989 85.1954 105.989 59.9964C105.989 34.7974 85.487 14.2943 60.2896 14.2943Z" fill="#46B854"/>
<path d="M93.0166 92.7275C120.683 92.7275 120.289 60.0002 120.289 60.0002H106.062C106.062 60.0002 105.152 80.3719 93.0166 92.7275Z" fill="#22942C"/>
<path d="M93.5617 86.1815C88.2756 86.1815 83.1082 84.646 78.7129 81.7691C74.3176 78.8922 70.8919 74.8031 68.869 70.019C66.846 65.2349 66.3168 59.9706 67.348 54.8919C68.3793 49.8131 70.9248 45.1479 74.6627 41.4864C78.4006 37.8248 83.1629 35.3312 88.3475 34.321C93.5321 33.3107 98.9061 33.8292 103.79 35.8109C108.674 37.7925 112.848 41.1483 115.785 45.4539C118.721 49.7594 120.289 54.8214 120.289 59.9997C120.281 66.9412 117.463 73.5963 112.452 78.5047C107.442 83.4131 100.648 86.1739 93.5617 86.1815ZM93.5617 47.8664C91.112 47.8664 88.7173 48.578 86.6804 49.9113C84.6436 51.2445 83.056 53.1394 82.1185 55.3565C81.1811 57.5736 80.9358 60.0132 81.4137 62.3668C81.8916 64.7204 83.0713 66.8824 84.8035 68.5792C86.5357 70.2761 88.7427 71.4317 91.1454 71.8998C93.548 72.368 96.0384 72.1277 98.3017 71.2094C100.565 70.291 102.499 68.7359 103.86 66.7406C105.221 64.7453 105.948 62.3994 105.948 59.9997C105.944 56.7829 104.638 53.699 102.316 51.4244C99.9937 49.1498 96.8455 47.8702 93.5617 47.8664Z" fill="#46B854"/>
<path d="M106.107 59.9997C106.107 43.6197 97.1327 34.0903 97.1327 34.0903C92.4206 33.4239 87.6093 33.9853 83.1982 35.716C83.1982 35.716 104.932 46.1247 106.107 59.9997Z" fill="#22942C"/>
</svg>
