<svg width="48" height="48" viewBox="0 0 48 48" fill="none" xmlns="http://www.w3.org/2000/svg">
<rect x="1" y="1" width="46" height="46" rx="23" fill="white" stroke="#F8F8F8" stroke-width="2"/>
<path fill-rule="evenodd" clip-rule="evenodd" d="M36.6512 22.1905H35.2287L33.5115 26.6349H34.7032L34.9852 25.7769H36.9204L37.228 26.6349H38.3492L36.6512 22.1905ZM35.2979 24.93L35.9361 23.2777L36.5973 24.93H35.2979ZM32.9315 26.6285L32.9297 22.982H34.3674V22.1943H30.4999V22.9933H31.8838V26.6285H32.9315ZM30.1408 22.196H26.4038V26.6147L30.1254 26.6138L30.1178 25.8003H27.411V24.7473H29.695V24.0021H27.3956V23.0262H30.1408V22.196ZM24.4274 22.9837L21.8978 22.976V22.2115L25.8807 22.2151V22.9606L23.1896 25.7887L25.8655 25.7878L25.8654 26.6264H21.052L20.7675 25.7733H18.7933L18.4993 26.634L17.9048 25.1449L18.9991 22.215L20.4599 22.2146L21.7633 25.6966H21.9401L24.4274 22.9837ZM19.7274 23.2777L19.0892 24.93H20.3887L19.7274 23.2777Z" fill="#7B7B7B"/>
<path fill-rule="evenodd" clip-rule="evenodd" d="M35.4933 18H38.3867L40 29.8095L35.4933 18ZM15.2051 26.6479C15.64 26.6622 16.1327 26.4466 16.4884 25.9856C16.8519 25.5141 17.0737 24.788 17.0404 23.98L18.6514 28.3199L12.1393 28.3162C11.9669 28.3198 11.621 28.124 11.3558 27.6987C11.1792 27.4157 10.9552 26.8384 10.9159 26.4604C10.9415 26.4989 11.1277 26.6447 11.3163 26.6479H15.2051ZM11.5403 24.7887L11.5401 22.3983C11.5388 22.2854 11.6156 22.0613 11.8569 22.0558H16.3257L16.5253 22.5991H12.8305C12.5755 22.578 12.4579 22.6852 12.4772 22.9206V24.1907C12.4773 24.3391 12.583 24.437 12.7106 24.4356H15.2733V24.8336C15.2611 25.0013 15.1714 25.0881 15.0043 25.0938H11.8703C11.7149 25.0954 11.5394 24.9616 11.5403 24.7887ZM9.86768 22.1811L9.8659 23.7198L8 18.8256H14.4653C14.9048 18.7941 15.2629 19.071 15.4516 19.5061C15.518 19.6594 15.6819 20.2583 15.7328 20.5423L11.8009 20.5636C11.1484 20.4913 9.86108 21.0216 9.86768 22.1811Z" fill="#E9A01D"/>
</svg>
