<svg width="520" height="120" viewBox="0 0 520 120" fill="none" xmlns="http://www.w3.org/2000/svg">
<path d="M60.5453 0C44.5335 0.0311241 29.1868 6.35718 17.8672 17.5924C6.54761 28.8275 0.178034 44.0558 0.153809 59.9412C0.153809 93.1081 27.2761 120 60.5723 120C93.8685 120 121.109 93.092 121.109 59.9412C121.082 26.908 93.8415 0 60.5453 0ZM101.833 88.2668C88.6382 89.7111 74.3329 90.0695 60.5453 90.0695C46.7577 90.0695 32.4579 89.7111 19.1394 88.2668C15.3649 87.9083 13.4453 86.9454 12.96 82.9815C12.2375 75.4173 12.2375 67.7247 12.2375 59.9198C12.2375 52.2325 12.2375 44.5453 12.96 36.9757C13.4453 33.0118 15.3865 32.0489 19.1394 31.6904C32.4579 30.2514 46.7416 29.8877 60.5453 29.8877C74.3491 29.8877 88.6382 30.2514 101.833 31.6904C105.71 32.0489 107.645 33.0118 108.131 36.9757C108.735 44.5453 108.735 52.2325 108.735 59.9198C108.735 67.7247 108.735 75.4333 108.131 82.9815C107.645 86.9668 105.737 87.9297 101.833 88.2882V88.2668Z" fill="#E52E2E"/>
<path d="M36.0867 59.9401C36.1101 55.146 37.5645 50.4662 40.2662 46.4913C42.968 42.5164 46.796 39.4245 51.2672 37.606C55.7385 35.7874 60.6525 35.3236 65.3892 36.2732C70.1258 37.2227 74.4728 39.543 77.8815 42.9412C81.2903 46.3394 83.608 50.6632 84.5422 55.367C85.4763 60.0708 84.9851 64.9437 83.1304 69.3708C81.2758 73.7978 78.1409 77.5806 74.1213 80.2417C70.1017 82.9029 65.3776 84.3231 60.5452 84.3232C57.3207 84.3325 54.1262 83.7072 51.1468 82.4837C48.1674 81.2602 45.4621 79.4626 43.1875 77.195C40.9129 74.9275 39.1141 72.2349 37.8953 69.2731C36.6764 66.3113 36.0617 63.1392 36.0867 59.9401Z" fill="#E52E2E"/>
<path d="M210.969 51.5317V99.9019C210.969 102.78 209.228 104.508 206.327 104.508H192.011C189.11 104.508 187.368 102.78 187.368 99.9019V55.3727C187.368 42.7051 182.515 36.1787 172.081 36.1787C161.249 36.1787 155.253 43.668 155.253 56.1377V99.9019C155.253 102.78 153.511 104.508 150.61 104.508H136.294C133.393 104.508 131.651 102.78 131.651 99.9019V20.0553C131.651 17.1773 133.393 15.4494 136.294 15.4494H149.235C152.136 15.4494 153.878 17.1773 153.878 20.0553V25.041C159.318 18.7126 168.021 13.9141 178.854 13.9141C198.972 13.9141 210.969 27.9298 210.969 51.5317Z" fill="#E52E2E"/>
<path d="M309.774 62.0917V62.2842C309.774 65.1623 308.032 66.8902 305.131 66.8902H244.201C246.525 78.2151 255.422 85.699 267.219 85.699C274.768 85.699 280.16 83.586 283.859 78.7875C285.407 76.6744 286.955 75.7168 289.467 75.7168H304.166C307.455 75.7168 308.809 77.8566 307.844 80.7079C302.451 97.0186 286.949 106.043 266.249 106.043C240.518 106.043 220.416 86.6566 220.416 59.9786C220.416 33.8784 240.534 13.9141 264.912 13.9141C292.94 13.9141 309.774 35.2051 309.774 62.0917ZM244.384 49.2529H284.62C282.107 39.2707 274.375 33.7072 265.472 33.7072C254.634 33.6858 246.897 40.2122 244.384 49.2315V49.2529Z" fill="#E52E2E"/>
<path d="M435.194 15.4497C438.483 15.4497 440.047 17.5895 439.066 20.6334L413.529 100.667C412.752 103.165 410.833 104.508 408.11 104.508H394.182C391.486 104.508 389.733 103.165 388.957 100.667L374.258 47.7072L359.942 100.667C359.165 103.165 357.424 104.508 354.717 104.508H340.789C338.093 104.508 336.147 103.165 335.397 100.667L309.45 20.6334C308.48 17.5521 310.027 15.4497 313.333 15.4497H330.744C333.44 15.4497 335.192 16.7978 335.775 19.4832L347.961 70.3409L362.083 19.4832C362.859 16.9904 364.407 15.4497 367.113 15.4497H382.589C385.285 15.4497 386.849 16.7978 387.62 19.4832L401.742 70.7261L413.739 19.4832C414.316 16.8085 416.058 15.4497 418.764 15.4497H435.194Z" fill="#E52E2E"/>
<path d="M444.059 80.7079C443.088 77.6373 444.83 75.7169 448.119 75.7169H463.217C465.541 75.7169 466.894 76.6744 468.248 78.7875C470.572 82.4358 473.861 85.3139 483.146 85.3139C490.695 85.3139 495.914 83.2008 495.914 78.98C495.914 71.6887 485.465 70.7258 473.861 68.6181C459.739 65.9433 443.87 61.5139 443.87 40.9772C443.87 24.8538 457.997 13.9141 480.434 13.9141C500.751 13.9141 513.131 23.8962 517.58 39.0567C518.545 42.3199 516.809 44.2404 513.52 44.2404H498.222C495.904 44.2404 494.933 43.4754 493.369 40.9772C490.873 37.1416 487.195 34.6701 478.104 34.6701C470.755 34.6701 466.883 37.7407 466.883 41.1965C466.883 48.1081 479.07 48.3007 491.649 50.7935C505.189 53.4683 519.311 58.4701 519.311 77.2789C519.311 94.745 503.447 106.07 481.97 106.07C458.952 106.043 448.313 93.948 444.059 80.7079Z" fill="#E52E2E"/>
</svg>
