<svg width="48" height="48" viewBox="0 0 48 48" fill="none" xmlns="http://www.w3.org/2000/svg">
<rect x="1" y="1" width="46" height="46" rx="23" fill="white" stroke="#F8F8F8" stroke-width="2"/>
<path fill-rule="evenodd" clip-rule="evenodd" d="M23.9937 12C17.3733 12 12 17.3924 12 23.9932C12 30.6069 17.3733 36 23.9937 36C30.6274 36 36 30.6069 36 23.9932C36 17.3924 30.6274 12 23.9937 12ZM23.9937 29.9902C21.3068 29.9902 18.4145 29.9391 15.8178 29.6567C15.0594 29.5795 14.6607 29.3996 14.571 28.5776C14.4296 27.0883 14.4168 25.5603 14.4168 23.9932C14.4168 22.4397 14.4296 20.9115 14.571 19.4219C14.6607 18.6006 15.0594 18.4205 15.8178 18.3436C18.0898 18.0966 20.5885 18.0159 22.9777 18.0085C23.3191 18.0076 23.658 18.0081 23.9937 18.0098C26.6932 17.9962 29.5855 18.0612 32.1817 18.3436C32.9409 18.4205 33.3385 18.6006 33.4293 19.4219C33.5699 20.9115 33.5834 22.4397 33.5834 23.9932C33.5834 25.5603 33.5696 27.0883 33.4293 28.5776C33.3385 29.3996 32.9409 29.5795 32.1817 29.6567C29.5855 29.9391 26.6932 29.9902 23.9937 29.9902ZM19.1214 23.9932C19.1214 21.3225 21.2942 19.1395 23.9937 19.1395C26.706 19.1395 28.8784 21.3225 28.8784 23.9932C28.8784 26.6773 26.706 28.8474 23.9937 28.8474C21.2942 28.8474 19.1214 26.6773 19.1214 23.9932Z" fill="#00AEEF"/>
</svg>
