<svg width="48" height="48" viewBox="0 0 48 48" fill="none" xmlns="http://www.w3.org/2000/svg">
<rect x="1" y="1" width="46" height="46" rx="23" fill="white" stroke="#F8F8F8" stroke-width="2"/>
<path fill-rule="evenodd" clip-rule="evenodd" d="M33.9202 27.5199C35.0739 27.5199 35.9999 26.5484 35.9999 25.3795C35.9999 24.2561 35.0589 23.3301 33.9202 23.3301C32.7818 23.3301 31.8406 24.241 31.8406 25.3795C31.8255 26.5484 32.7513 27.5199 33.9202 27.5199ZM33.9202 24.9544C34.1935 24.9544 34.3909 25.1518 34.3909 25.425C34.3909 25.6982 34.1784 25.8956 33.9202 25.8956C33.647 25.8956 33.4496 25.6982 33.4496 25.425C33.4496 25.1518 33.6622 24.9544 33.9202 24.9544ZM30.0038 26.0172C29.8822 26.0172 29.7761 26.0322 29.6698 26.0322L29.7913 25.3492C29.8064 25.2276 29.8216 25.1062 29.8216 24.9999C29.8216 24.3168 29.4269 23.8615 28.6982 23.8615C28.1215 23.8615 27.757 24.2713 27.6356 24.9696L26.8615 29.3719C26.8462 29.4933 26.831 29.6147 26.831 29.721C26.831 30.4042 27.2258 30.8596 27.9544 30.8596C28.5313 30.8596 28.9107 30.4498 29.0322 29.7515L29.2447 28.5067C29.2902 28.2485 29.4724 28.0967 29.685 28.0967C29.9582 28.0967 30.1101 28.2788 30.1101 28.537C30.1101 28.5825 30.1101 28.6281 30.0949 28.6736L29.8822 29.9184C29.8672 30.0399 29.8519 30.1613 29.8519 30.2827C29.8519 30.8747 30.1556 31.2845 30.7476 31.3908C30.8235 31.4061 30.8995 31.4061 30.9753 31.4061C31.537 31.4061 31.9316 30.9962 32.0532 30.2979L32.2809 28.9772C32.3112 28.795 32.3264 28.6128 32.3264 28.4459C32.3264 27.0493 31.3093 26.0172 30.0038 26.0172ZM26.3606 28.2788C26.3756 28.4004 26.3909 28.5218 26.3909 28.6281C26.3909 29.3112 25.9962 29.7665 25.2675 29.7665C24.6907 29.7665 24.3112 29.3567 24.1898 28.6584L23.9772 27.4136C23.9316 27.1404 23.7798 26.9887 23.5673 26.9887C23.2486 26.9887 23.0512 27.2467 23.1119 27.5655L23.3244 28.8102C23.3396 28.9316 23.3549 29.0532 23.3549 29.1745C23.3549 29.8425 22.9753 30.2979 22.2315 30.2979C21.6698 30.2979 21.2752 29.8881 21.1536 29.1898L20.9412 27.9905C20.9107 27.7932 20.8956 27.5958 20.8956 27.4136C20.8956 25.8653 22.0796 24.8027 23.5826 24.8027C24.8121 24.8027 25.8899 25.6072 26.1479 27.0796L26.3606 28.2788Z" fill="#E73458"/>
<path fill-rule="evenodd" clip-rule="evenodd" d="M18.2239 25.6072C18.2239 24.9696 18.6945 24.499 19.3321 24.499C19.9698 24.499 20.4402 24.9696 20.4402 25.6072C20.4402 26.2449 19.9696 26.7153 19.3321 26.7153C18.6945 26.7153 18.2239 26.2449 18.2239 25.6072ZM20.4099 28.461V30.0247C20.4099 30.8141 20.0304 31.315 19.3018 31.3301C18.6034 31.3301 18.2087 30.8292 18.2087 30.0247V28.461C18.2087 27.6566 18.5882 27.1556 19.3168 27.1556C20.0153 27.1556 20.4099 27.6566 20.4099 28.461ZM15.0665 24.7116C15.1879 24.6964 15.3245 24.6812 15.4459 24.6812C16.5238 24.6812 17.5408 25.501 17.7685 26.8369C17.7988 26.9887 17.8141 27.1404 17.7988 27.2618C17.7988 28.6584 16.6756 29.9032 15.1727 29.9032C13.9279 29.9032 12.8045 29.0076 12.5768 27.7324L12.0304 24.6509L12.03 24.6477C12.015 24.5274 12.0001 24.4069 12.0001 24.2866C12.0001 23.6186 12.3796 23.1632 13.1234 23.1632C13.685 23.1632 14.0798 23.573 14.2011 24.2713L14.3227 24.9544C14.5048 24.8633 14.7476 24.7723 15.0665 24.7116ZM14.687 27.277C14.687 27.5807 14.8994 27.7629 15.1574 27.7629C15.4459 27.7629 15.6585 27.5655 15.6433 27.2923C15.6433 26.9887 15.4308 26.8064 15.1727 26.8064C14.8994 26.8064 14.687 27.0038 14.687 27.277Z" fill="#00A75D"/>
<path fill-rule="evenodd" clip-rule="evenodd" d="M33.9203 20.8406C33.9203 22.3131 32.7514 23.5123 31.2789 23.5123C29.8064 23.5123 28.6375 22.3131 28.6375 20.8406C28.6375 19.4137 29.8367 18.2448 31.2789 18.2448C32.721 18.2448 33.9203 19.3985 33.9203 20.8406ZM31.7495 20.8862C31.7495 20.613 31.537 20.4156 31.2789 20.4156C31.0209 20.4156 30.8083 20.5977 30.8083 20.8862C30.8083 21.1594 31.0057 21.3568 31.2789 21.3568C31.5521 21.3568 31.7495 21.1594 31.7495 20.8862ZM26.1935 24.332C27.3472 24.332 28.2732 23.3605 28.2732 22.1916C28.2884 21.0683 27.3321 20.1423 26.1935 20.1423C25.055 20.1423 24.1138 21.0531 24.1138 22.1916C24.1138 23.3605 25.0398 24.332 26.1935 24.332ZM26.1935 21.7666C26.4669 21.7666 26.6641 21.9639 26.6641 22.2373C26.6794 22.5105 26.4669 22.7077 26.1935 22.7077C25.9203 22.7077 25.723 22.5105 25.723 22.2373C25.723 21.9488 25.9355 21.7666 26.1935 21.7666ZM24.1441 18.594C24.1441 17.9108 23.7495 17.4554 23.0209 17.4554C22.444 17.4554 22.0644 17.8653 21.943 18.5636L21.1689 22.9811C21.1537 23.1025 21.1386 23.2239 21.1386 23.3302C21.1386 24.0133 21.5332 24.4686 22.2618 24.4686C22.8387 24.4686 23.2181 24.0588 23.3397 23.3605L24.1138 18.9431C24.129 18.8217 24.1441 18.7002 24.1441 18.594ZM20.6375 19.4288C20.8349 19.8691 20.9412 20.3397 20.9412 20.8102C20.9412 22.1006 20.1821 23.391 18.816 24.0285C18.2998 24.2713 17.7381 24.3928 17.2069 24.3928C15.8558 24.3928 14.5958 23.649 13.943 22.2523C13.7003 21.7211 13.5787 21.1746 13.5787 20.628C13.5787 19.2771 14.3226 18.0019 15.7343 17.3491C16.2504 17.1063 16.6755 17 17.0701 17C17.556 17 17.9355 17.167 18.1329 17.5768C18.2238 17.759 18.2543 17.926 18.2543 18.093C18.2543 18.5028 18.0266 18.852 17.6926 19.0039C17.3586 19.1708 17.055 19.11 16.6452 19.3074C16.1441 19.5503 15.8406 20.036 15.8406 20.5977C15.8406 20.8406 15.8861 21.0836 16.0077 21.3416C16.296 21.9488 16.8274 22.2373 17.3738 22.2373C17.6015 22.2373 17.8292 22.1916 18.0417 22.0854C18.6794 21.7817 18.8918 21.3871 18.8463 20.8862L18.4515 21.0683C18.2695 21.1594 18.1177 21.1897 17.9658 21.1897C17.647 21.1897 17.4041 21.0076 17.2827 20.7343C17.222 20.5977 17.1917 20.4611 17.1917 20.3397C17.1917 20.0513 17.3586 19.7933 17.7686 19.5959L19.2258 18.9126C19.408 18.8368 19.5749 18.7913 19.7267 18.7913C20.1214 18.7913 20.4403 19.019 20.6375 19.4288Z" fill="#007FC8"/>
</svg>
