<svg width="48" height="48" viewBox="0 0 48 48" fill="none" xmlns="http://www.w3.org/2000/svg">
<rect x="1" y="1" width="46" height="46" rx="23" fill="white" stroke="#F8F8F8" stroke-width="2"/>
<path fill-rule="evenodd" clip-rule="evenodd" d="M38.0662 22.906C39.0225 23.4444 39.7327 24.3818 39.941 25.5284C40.3102 27.5891 38.909 29.5573 36.8022 29.9194C35.8694 30.0818 34.9604 29.9007 34.1982 29.4691L30.8508 27.5754L33.3568 23.3204C33.1924 23.5981 32.9769 23.8529 32.7115 24.0709C31.4851 25.0782 29.653 24.9205 28.6255 23.7182C27.5982 22.516 27.759 20.7198 28.9854 19.7125C30.2117 18.7054 32.0439 18.863 33.0713 20.0653C33.8734 21.0074 33.9511 22.3062 33.3631 23.3097L35.8836 19.0301L38.568 20.548L37.3985 22.53L38.0662 22.906ZM35.7557 26.8233C35.9025 26.9069 36.0825 26.944 36.2622 26.9116C36.6742 26.842 36.9441 26.4567 36.8731 26.0574C36.8351 25.8346 36.6931 25.6538 36.5085 25.5469L35.8407 25.171L35.0881 26.4473L35.7557 26.8233ZM30.4152 21.3833C30.6993 21.1467 31.13 21.1837 31.3714 21.4668C31.613 21.7501 31.575 22.1676 31.2862 22.4045C30.9975 22.6367 30.5666 22.5995 30.3298 22.321C30.0884 22.0425 30.1262 21.6202 30.4152 21.3833ZM21.9468 25.0997C22.1531 24.4026 22.5655 23.7558 23.176 23.254C24.8141 21.9081 27.2525 22.1167 28.6254 23.7229C29.9986 25.3288 29.7854 27.7191 28.1473 29.0653C26.5091 30.4114 24.0707 30.2025 22.6977 28.5966C22.0282 27.8132 21.7368 26.8434 21.8031 25.8992L21.0657 30L18.0117 29.4722L18.6927 25.6854C18.3316 27.2253 17.2778 28.5916 15.7051 29.3112C12.9921 30.5505 9.77254 29.3993 8.50854 26.7444C7.24439 24.0849 8.41866 20.9284 11.1269 19.6896C12.4809 19.0723 13.963 19.0491 15.2649 19.5133L14.1997 22.3863C13.6456 22.1869 13.016 22.1961 12.443 22.4608C11.2925 22.9852 10.7954 24.3265 11.3305 25.4545C11.8654 26.5823 13.2337 27.0696 14.3841 26.5451C15.1512 26.1971 15.6245 25.4823 15.7002 24.7117L13.9012 25.5332L12.9211 23.4723L17.7125 21.2814C17.9445 21.5783 18.1481 21.9033 18.3234 22.2561C18.7678 23.1909 18.9096 24.1871 18.7907 25.1398L19.8947 19L22.9487 19.5278L21.9468 25.0997ZM25.0841 26.6331C25.3493 26.9488 25.8274 26.9857 26.1446 26.7259C26.4666 26.4659 26.5044 25.997 26.2393 25.6861C25.9741 25.3751 25.4961 25.3334 25.1788 25.5933C24.8568 25.8534 24.819 26.3221 25.0841 26.6331Z" fill="#BFF932"/>
</svg>
