<svg width="48" height="48" viewBox="0 0 48 48" fill="none" xmlns="http://www.w3.org/2000/svg">
<rect x="1" y="1" width="46" height="46" rx="23" fill="white" stroke="#F8F8F8" stroke-width="2"/>
<path fill-rule="evenodd" clip-rule="evenodd" d="M39.9722 27.7704V26.8799C39.9331 26.8799 39.8919 26.88 39.8488 26.8801C39.2165 26.8819 38.18 26.8847 37.6068 26.5459C36.5869 25.934 36.5951 24.7847 36.6036 23.5904C36.6043 23.4813 36.6051 23.3719 36.6051 23.2625V20.5078H39.8608V19.6173H36.6051V16.0001H33.8225V23.5687C33.8225 26.4068 35.353 27.7982 38.9704 27.7982C39.3043 27.7982 39.6103 27.7982 39.9722 27.7704ZM32.7653 27.4644V23.7077C32.7653 19.2682 29.1487 19.2775 27.023 19.283C26.9504 19.2832 26.8794 19.2834 26.8104 19.2834H21.2451V27.4365H24.1113V20.1739C24.1113 20.1739 25.3913 20.0904 26.1425 20.0904C28.8696 20.0904 29.927 20.9809 29.927 23.2904V27.4644H32.7653ZM7.99994 23.4575C7.99994 19.8121 11.6174 19.2834 13.7043 19.2834V19.2556H19.9374V27.1304V27.1304C19.9374 28.0487 19.9374 28.6051 19.8539 29.1059C19.2696 32.6677 15.4574 32.9182 11.2834 32.5287V31.7496C11.2834 31.7496 12.1739 31.833 12.6748 31.833C13.7322 31.833 15.513 31.833 16.3755 30.7756C16.8208 30.219 16.9879 29.579 17.0713 28.5773C17.1268 27.993 17.0992 27.2418 17.0992 27.2418C16.0139 27.5757 14.9843 27.687 13.7043 27.659C12.146 27.6313 7.99994 27.1026 7.99994 23.4575ZM17.1268 20.1739C17.1268 20.1739 16.5148 20.0904 15.8468 20.0625C15.1791 20.0347 14.3443 20.0904 13.7599 20.1739C12.2572 20.4244 11.033 21.593 11.033 23.4575C11.033 25.2382 12.2851 26.4904 14.1774 26.6852C15.7913 26.8521 17.0992 26.3235 17.0992 26.2399H17.1268V20.1739Z" fill="#8D207A"/>
</svg>
