<svg width="48" height="48" viewBox="0 0 48 48" fill="none" xmlns="http://www.w3.org/2000/svg">
<rect x="1" y="1" width="46" height="46" rx="23" fill="white" stroke="#F8F8F8" stroke-width="2"/>
<path fill-rule="evenodd" clip-rule="evenodd" d="M37.2784 30.7419V30.5862H37.9391V30.7419H37.6669V31.403H37.5114V30.7419H37.2784ZM38.2893 30.586L38.4837 31.1692L38.6782 30.586H38.9112V31.4028H38.7557V30.7417L38.561 31.4028H38.4445L38.2113 30.7417V31.4028H38.0558V30.586H38.2893Z" fill="#CD543C"/>
<path fill-rule="evenodd" clip-rule="evenodd" d="M33.4288 33.4247C33.8565 32.7635 34.362 31.9469 34.362 31.9469L32.4567 27.5533L33.5845 27.2809L34.9843 30.7028C34.9843 30.7028 35.2563 30.0417 35.4898 29.2253C35.8395 28.0587 35.9174 27.2809 35.9174 27.2809L37.0448 27.5533C37.0448 27.5533 36.5006 30.1974 35.6065 31.9857C34.7901 33.6577 33.5455 35.0965 33.5455 35.0965L32.6126 34.5133C32.6124 34.5133 32.9234 34.2025 33.4288 33.4247Z" fill="#CD543C"/>
<path fill-rule="evenodd" clip-rule="evenodd" d="M30.4738 31.5973H31.6404V25.2595H30.4738V31.5973Z" fill="#DA8F35"/>
<path fill-rule="evenodd" clip-rule="evenodd" d="M27.9079 31.5973H29.0354V27.3589H27.9079V31.5973ZM29.1518 26.0371C29.1518 26.3868 28.8408 26.6982 28.4519 26.6982C28.1021 26.6982 27.7911 26.3868 27.7911 26.0371C27.7911 25.6869 28.1021 25.4151 28.4519 25.4151C28.8408 25.4151 29.1518 25.6869 29.1518 26.0371Z" fill="#F3D23D"/>
<path fill-rule="evenodd" clip-rule="evenodd" d="M23.7472 27.8644C23.7472 27.8644 24.4083 27.2037 25.0692 27.2037C25.8469 27.2037 26.5468 27.7091 26.5468 28.4865V31.5975H25.4194V28.9924C25.4194 28.681 25.4194 28.3312 24.9525 28.3312C24.4858 28.3312 24.0583 29.0311 24.0583 29.0311V31.5975H22.9308V28.9926C22.9308 28.6812 22.9308 28.3315 22.5031 28.3315C21.9976 28.3315 21.6087 29.0314 21.6087 29.0314V31.5977H20.4811V29.1866C20.4811 28.5647 20.2479 28.176 19.7037 27.787L20.6756 27.2814C20.9478 27.4759 21.259 27.904 21.259 27.904C21.259 27.904 21.9589 27.2041 22.5808 27.2041C23.3584 27.2037 23.7084 27.8258 23.7472 27.8644Z" fill="#ACC74D"/>
<path fill-rule="evenodd" clip-rule="evenodd" d="M19.6646 31.1694C19.1592 30.7805 18.9259 30.392 18.9259 29.7696H18.9263V28.8753C18.9263 27.9424 18.304 27.2425 17.0597 27.2425C16.321 27.2425 15.8543 27.5926 15.8543 27.5926L16.282 28.409C16.5155 28.2533 16.8652 28.1754 17.0597 28.1754C17.5261 28.1754 17.7983 28.4478 17.7983 28.8367H17.2539C16.2043 28.8367 15.3099 29.3809 15.3099 30.3143C15.3099 31.1309 16.1263 31.7141 16.9819 31.7141C17.7594 31.7141 18.2258 31.1694 18.2258 31.1694C18.3038 31.2862 18.537 31.5582 18.7313 31.6749L19.6646 31.1694ZM17.2539 29.6529H17.7983C17.7983 30.0031 17.8369 30.3528 17.8369 30.3528C17.8369 30.3528 17.4872 30.7417 17.0205 30.7417C16.7483 30.7417 16.4373 30.5861 16.4373 30.3141C16.4373 30.0418 16.554 29.6529 17.2539 29.6529Z" fill="#4B9EDA"/>
<path fill-rule="evenodd" clip-rule="evenodd" d="M12.977 30.392C13.1325 31.1307 13.288 31.5973 13.288 31.5973H12.0827C12.0827 31.5973 11.655 30.5863 11.655 28.4478C11.655 26.5426 12.3161 25.5317 12.3161 25.5317H16.0098V26.5038H13.1715C13.1715 26.5038 12.9383 27.126 12.8603 27.67C12.8215 27.9811 12.8603 28.0981 12.8603 28.0981H14.8823V28.9532L12.8603 28.9924C12.8603 28.9922 12.8993 29.7697 12.977 30.392Z" fill="#3165AA"/>
<path fill-rule="evenodd" clip-rule="evenodd" d="M23.9805 24.0541C30.4349 24.0541 36.1895 24.7152 40 25.7261C36.7725 24.0153 30.8238 22.81 23.9805 22.81C17.1762 22.81 11.2273 24.0153 8 25.7261C11.8107 24.7152 17.5651 24.0541 23.9805 24.0541Z" fill="#F3D23D"/>
<path fill-rule="evenodd" clip-rule="evenodd" d="M31.1735 21.3323C33.7399 21.3323 35.8394 19.1938 35.8394 16.6277C35.8394 14.0225 33.7399 12.0006 31.1735 12.0006C28.6076 11.9618 27.2853 13.867 26.9744 14.6055C26.9744 13.4779 25.8468 12.1171 24.5249 12.1171H20.2866V21.2933H24.2525C25.8468 21.2933 26.9744 19.8935 26.9744 18.7271C27.3633 19.466 28.6076 21.3323 31.1735 21.3323ZM31.1735 14.2947C32.4568 14.2947 33.5069 15.3446 33.5069 16.6279C33.5069 17.9109 32.4568 18.9606 31.1735 18.9606C29.8907 18.9606 28.8408 17.9107 28.8408 16.6279C28.8408 15.3446 29.8909 14.2947 31.1735 14.2947ZM31.1735 14.8002C30.1625 14.8002 29.346 15.6168 29.346 16.6279C29.346 17.6387 30.1627 18.4551 31.1735 18.4551C32.1844 18.4551 33.0012 17.6385 33.0012 16.6279C33.0012 15.6168 32.1846 14.8002 31.1735 14.8002ZM25.6137 16.6279C25.8855 16.5887 26.3522 16.2779 26.5467 16.0445C26.4687 16.3169 26.4687 17.0943 26.5467 17.3278C26.3524 17.0554 25.8855 16.6666 25.6137 16.6279ZM24.5637 14.9557C24.5637 14.528 24.2919 14.178 23.9417 14.178V14.1778H22.6587V15.7331H23.9417C24.2919 15.7331 24.5637 15.3444 24.5637 14.9557ZM23.9417 17.5998C24.2919 17.5998 24.5637 17.9497 24.5637 18.3774C24.5637 18.8049 24.2919 19.1548 23.9417 19.1548H22.6587V17.5996H23.9417V17.5998ZM17.2927 12.1173H19.7809V21.2935H17.2929V17.7552H15.6989V21.2937H13.1325V12.1173H15.6987V15.5388H17.2927V12.1173Z" fill="black"/>
</svg>
