<svg width="48" height="48" viewBox="0 0 48 48" fill="none" xmlns="http://www.w3.org/2000/svg">
<rect x="1" y="1" width="46" height="46" rx="23" fill="white" stroke="#F8F8F8" stroke-width="2"/>
<path fill-rule="evenodd" clip-rule="evenodd" d="M39.9703 25.2017H37.8611V23.0927H36.9909V25.2017H34.882V26.0718H36.9909V28.1808H37.8611V26.0718H39.9703V25.2017Z" fill="#543CE6"/>
<path fill-rule="evenodd" clip-rule="evenodd" d="M32.8578 24.0939C32.8578 26.9206 30.5788 29.2442 27.7859 29.2442C24.96 29.2442 23.5748 27.1883 23.1841 26.3727C23.1841 27.6909 21.943 29.1996 20.1778 29.1996H15.8437V19.1675H20.5021C21.943 19.1675 23.1841 20.6529 23.1841 21.8932C23.5295 21.055 24.96 19 27.7859 19C30.5788 19 32.8578 21.2226 32.8578 24.0939ZM22.714 23.4797C22.5134 23.703 21.9875 24.0709 21.6647 24.0939C21.9875 24.1495 22.4906 24.541 22.714 24.8649C22.6356 24.5961 22.6356 23.7474 22.714 23.4797ZM19.8323 25.1658C20.2342 25.1658 20.5579 25.5573 20.5579 26.004C20.5579 26.4739 20.2342 26.864 19.8323 26.864H18.4456V25.1658H19.8323ZM20.5579 22.2402C20.5579 21.7927 20.2342 21.402 19.8323 21.402H18.4456V23.0784H19.8323C20.2342 23.0784 20.5579 22.686 20.5579 22.2402ZM25.2383 24.0939C25.2383 22.686 26.3782 21.5469 27.7859 21.5469C29.1944 21.5469 30.3328 22.686 30.3328 24.0939C30.3328 25.5121 29.1944 26.6527 27.7859 26.6527C26.3782 26.6527 25.2383 25.5121 25.2383 24.0939ZM29.7866 24.0937C29.7866 25.211 28.8694 26.105 27.7859 26.105C26.6694 26.105 25.7747 25.211 25.7747 24.0937C25.7747 22.9764 26.6694 22.0938 27.7859 22.0938C28.8694 22.0938 29.7866 22.9764 29.7866 24.0937ZM12.5596 29.1995H15.2861V19.1674H12.5596V22.9092H10.7935V19.1674H8V29.1995H10.7935V25.3112H12.5596V29.1995Z" fill="#34283F"/>
</svg>
