<svg width="48" height="48" viewBox="0 0 48 48" fill="none" xmlns="http://www.w3.org/2000/svg">
<rect x="1" y="1" width="46" height="46" rx="23" fill="white" stroke="#F8F8F8" stroke-width="2"/>
<path fill-rule="evenodd" clip-rule="evenodd" d="M30.9846 27.6306C30.9846 27.6149 30.9685 27.5992 30.9524 27.5992H30.3094C30.2934 27.5992 30.2773 27.6149 30.2773 27.6306V31.9057C30.2773 31.9214 30.2934 31.9371 30.3094 31.9371H30.9524C30.9846 31.9371 31.0007 31.9214 30.9846 31.9057V27.6306ZM29.9879 29.7682C29.9879 31.0255 29.1038 31.9371 27.866 31.9371H26.4032H26.3871L26.3711 31.9214L24.0723 28.7937V31.9057C24.0723 31.9214 24.0563 31.9371 24.0402 31.9371H23.3972C23.3811 31.9371 23.365 31.9214 23.365 31.9057V27.6306C23.365 27.6149 23.3811 27.5992 23.3972 27.5992H24.0402C24.0563 27.5992 24.0723 27.5992 24.0723 27.6149L26.3711 30.7426V27.6306C26.3711 27.6149 26.3871 27.5992 26.4032 27.5992H27.866C29.1038 27.5992 29.9879 28.5108 29.9879 29.7682ZM29.2806 29.7367C29.2806 28.8409 28.718 28.2279 27.866 28.2279H27.0944V31.2456H27.866C28.718 31.2456 29.2806 30.6483 29.2806 29.7367ZM22.3202 27.5992H22.9632C22.9792 27.5992 22.9953 27.6149 22.9953 27.6306V30.1139C23.0114 31.3556 22.4166 32 21.2592 32C20.1018 32 19.491 31.3399 19.491 30.1139V28.8723L18.0764 31.0884C18.0764 31.1041 18.0603 31.1041 18.0442 31.1041H17.7709C17.7641 31.1041 17.7601 31.1041 17.7566 31.1029C17.7519 31.1013 17.748 31.0974 17.7388 31.0884L16.3403 28.888V31.9057C16.3403 31.9214 16.3242 31.9371 16.3081 31.9371H15.6651C15.649 31.9371 15.633 31.9214 15.633 31.9057V27.6306C15.633 27.6149 15.649 27.5992 15.6651 27.5992H16.3081C16.315 27.5992 16.3189 27.5992 16.3224 27.6004C16.3271 27.6021 16.331 27.6059 16.3403 27.6149L17.9156 30.0825L19.491 27.6149C19.491 27.5992 19.507 27.5992 19.5231 27.5992H20.1661C20.1822 27.5992 20.1983 27.6149 20.1983 27.6306V30.1139C20.1983 30.947 20.5358 31.3399 21.2431 31.3399C21.9504 31.3399 22.288 30.947 22.288 30.1139V27.6306C22.288 27.6149 22.3041 27.5992 22.3202 27.5992ZM31.081 25.666C33.7977 25.666 36 23.4656 36 20.8094C36 18.1061 33.7977 16 31.081 16C28.3804 16 26.998 17.9489 26.6443 18.7348C26.6443 17.556 25.4548 16.1572 24.0723 16.1572H19.5874V25.6189H23.7669C25.4548 25.6189 26.6443 24.1886 26.6604 22.9627C27.0462 23.7328 28.3804 25.666 31.081 25.666ZM31.081 18.4047C32.4474 18.4047 33.5405 19.4892 33.5405 20.8094C33.5405 22.1454 32.4313 23.2141 31.081 23.2141C29.7147 23.2141 28.6216 22.1454 28.6216 20.8094C28.6216 19.4735 29.7307 18.4047 31.081 18.4047ZM31.081 18.9234C30.0201 18.9234 29.152 19.7721 29.152 20.8094C29.152 21.8625 30.0201 22.6955 31.081 22.6955C32.142 22.6955 33.01 21.8468 33.01 20.8094C33.01 19.7721 32.142 18.9234 31.081 18.9234ZM25.1976 20.8094C25.503 20.778 26.0174 20.4322 26.1942 20.2122C26.1299 20.4794 26.1299 21.2652 26.1942 21.5324C25.9853 21.2338 25.503 20.8409 25.1976 20.8094ZM24.1206 19.0648C24.1206 18.6405 23.8151 18.2633 23.4293 18.2633H22.0951V19.8664H23.4293C23.8151 19.8664 24.1206 19.4892 24.1206 19.0648ZM23.4133 21.8153C23.7991 21.8153 24.1045 22.1925 24.1045 22.6169C24.1045 23.0413 23.7991 23.4185 23.4133 23.4185H22.079V21.8153H23.4133ZM16.4206 21.9411H14.7006V25.6031H12.0161L12 16.1572H14.7006V19.6778H16.4046V16.1572H19.0248V25.6189H16.4206V21.9411Z" fill="black"/>
</svg>
