<svg width="48" height="48" viewBox="0 0 48 48" fill="none" xmlns="http://www.w3.org/2000/svg">
<rect x="1" y="1" width="46" height="46" rx="23" fill="white" stroke="#F8F8F8" stroke-width="2"/>
<path fill-rule="evenodd" clip-rule="evenodd" d="M12.8132 32L15.1893 29.438L14.3282 27.6777H14.2963H14.2644H14.2007H14.1847H14.1528L14.982 29.438L12.5899 32H12.606H12.6379H12.7654H12.7813H12.8132ZM20.3721 28.4322H19.3355L18.7934 31.4183H17.9003L18.4426 28.4322H17.3581L16.4332 29.4694L17.3581 31.4183H16.3376L15.7794 30.0826L15.7634 30.0981L14.2007 32H13.0365L14.7748 30.0826L15.3489 29.438L14.5036 27.6777H15.5083L15.9867 28.8565L16.9595 27.6777H17.5175H18.0438H20.5156L20.3721 28.4322ZM30.5781 27.6777L29.9084 31.4183H29.5255L30.1156 28.1807H30.0997L28.1542 31.4183H27.9468L27.1496 28.1807H27.1336L26.5595 31.4183H26.1928L26.8625 27.6777H27.4366L28.1542 30.7739L30.004 27.6777H30.5781ZM31.1522 27.6777H33.4326L33.3848 28.0077H31.4712L31.2479 29.3124H33.0658L33.0021 29.6424H31.1841L30.9289 31.0883H32.9702L32.9063 31.4183H30.4825L31.1522 27.6777ZM25.9376 29.2651H24.1993L24.4067 28.1336H26.2246L26.3043 27.6777H23.9602L23.2903 31.4183H25.7782L25.8579 30.9626H23.8963L24.1196 29.7052H25.8579L25.9376 29.2651ZM23.3063 28.6523C23.3063 28.9509 23.2106 29.1865 23.0352 29.3752C22.8598 29.5637 22.6206 29.6895 22.3335 29.7524L23.115 31.4183H22.3654L21.6478 29.8311H21.1375L20.8506 31.434H20.1966L20.8664 27.6934H21.9987C22.4292 27.6934 22.7483 27.7719 22.9714 27.9449C23.1947 28.1179 23.3063 28.3536 23.3063 28.6523ZM21.4245 28.2278L21.2333 29.2965H21.7116C21.9987 29.2965 22.222 29.2495 22.3813 29.1551C22.5409 29.0609 22.6206 28.9193 22.6206 28.7149C22.6206 28.5422 22.5568 28.4006 22.4292 28.3378C22.3017 28.2592 22.1262 28.2278 21.903 28.2278H21.4245ZM31.0883 16C28.3775 16 26.99 17.9646 26.6551 18.7505C26.6551 17.5717 25.475 16.1571 24.0718 16.1571H19.5906V25.6974H23.7688C25.4593 25.6974 26.6551 24.2514 26.6551 23.0255C27.0538 23.7955 28.3775 25.7446 31.0883 25.7446C33.7993 25.7446 36 23.5283 36 20.8566C36 18.1218 33.7993 16 31.0883 16ZM31.1044 23.277C29.7329 23.277 28.6325 22.1925 28.6325 20.8566C28.6325 19.5207 29.7329 18.4361 31.0883 18.4361C32.4439 18.4361 33.5601 19.5207 33.5601 20.8566C33.5601 22.1925 32.4599 23.277 31.1044 23.277ZM31.0883 22.7583C32.1569 22.7583 33.018 21.9095 33.018 20.8566C33.018 19.8034 32.1569 18.9548 31.0883 18.9548C30.02 18.9548 29.1588 19.8034 29.1588 20.8566C29.1588 21.9095 30.02 22.7583 31.0883 22.7583ZM26.1928 21.5952C26.0013 21.2652 25.5069 20.888 25.2041 20.8566C25.5069 20.8252 26.0173 20.4794 26.1928 20.2593C26.129 20.5265 26.129 21.3123 26.1928 21.5952ZM22.1102 19.882H23.4338C23.8166 19.882 24.1196 19.5048 24.1196 19.0805C24.1196 18.6562 23.8166 18.2789 23.4338 18.2789H22.1102V19.882ZM23.418 23.4655H22.0943V21.8624H23.418C23.8007 21.8624 24.1037 22.2396 24.1037 22.664C24.1037 23.0883 23.8007 23.4655 23.418 23.4655ZM12.0159 25.6974H14.7109V22.0038H16.4172V25.6974H19.0486V16.1571H16.4172V19.7092H14.7109V16.1571H12L12.0159 25.6974Z" fill="black"/>
</svg>
