<svg width="48" height="48" viewBox="0 0 48 48" fill="none" xmlns="http://www.w3.org/2000/svg">
<rect x="1" y="1" width="46" height="46" rx="23" fill="white" stroke="#F8F8F8" stroke-width="2"/>
<path fill-rule="evenodd" clip-rule="evenodd" d="M35.2081 19C33.4416 19 31.8997 19.9567 31.0686 21.3791C31.5202 22.1256 31.7582 22.9815 31.7568 23.8539C31.7568 24.7336 31.5185 25.557 31.1039 26.2667C31.9434 27.6547 33.4672 28.583 35.2081 28.583C37.8546 28.583 40.0001 26.4387 40.0001 23.7923C40.0001 21.1459 37.8546 19 35.2081 19Z" fill="#4F86BE"/>
<path fill-rule="evenodd" clip-rule="evenodd" d="M32.6088 22.6392C32.6166 22.5104 32.6273 22.3909 32.6439 22.2613C32.9206 20.6894 34.0788 19.8342 35.8634 20.0555C36.019 20.0827 36.1755 20.1097 36.3228 20.1555C37.8683 20.616 38.4199 22.3442 37.417 23.6228C37.2698 23.816 37.1145 23.9817 36.9573 24.1093L36.4149 24.5236L35.5413 25.1953H37.8868V26.785H32.6166V25.6268L34.6315 23.9167C34.7131 23.8337 34.8053 23.76 34.8885 23.6686C35.403 23.1628 35.6057 22.905 35.6885 22.7126C35.8174 22.4085 35.8174 22.2701 35.6885 22.0686C35.6058 21.9211 35.4306 21.8295 35.2108 21.8204C34.8604 21.8204 34.6403 22.0686 34.6403 22.528C34.6403 22.565 34.6497 22.6019 34.6497 22.6386H32.6086V22.6392H32.6088Z" fill="white"/>
<path fill-rule="evenodd" clip-rule="evenodd" d="M30.7435 19.9808C30.6737 20.0512 30.5887 20.0851 30.4902 20.0851C30.3948 20.087 30.3029 20.0492 30.2362 19.9808C30.1675 19.9147 30.1296 19.8228 30.1313 19.7274C30.1313 19.6267 30.1661 19.542 30.2362 19.471C30.3067 19.4019 30.391 19.3659 30.4902 19.3659C30.5887 19.3659 30.6737 19.4019 30.7435 19.471C30.8147 19.542 30.8494 19.6267 30.8494 19.7274C30.8494 19.8269 30.8147 19.9117 30.7435 19.9808ZM30.4896 19.4449C30.4139 19.4449 30.3499 19.4738 30.2963 19.5295C30.2447 19.5823 30.2158 19.6535 30.2163 19.7274C30.2163 19.8027 30.243 19.8694 30.2963 19.9251C30.3501 19.9825 30.4139 20.0117 30.4896 20.0117C30.5652 20.0117 30.6304 19.9826 30.6839 19.9251C30.7376 19.8694 30.7647 19.8027 30.7647 19.7274C30.7647 19.6528 30.7376 19.5861 30.6839 19.5295C30.634 19.475 30.5634 19.4444 30.4896 19.4449Z" fill="black"/>
<path fill-rule="evenodd" clip-rule="evenodd" d="M30.4784 19.7475H30.4527V19.9144H30.3606V19.5315H30.5095C30.5498 19.5315 30.5797 19.5385 30.5998 19.5545C30.6189 19.5685 30.6298 19.5906 30.6293 19.6141V19.6472C30.6302 19.6656 30.6243 19.6836 30.6127 19.6977C30.6022 19.7115 30.5871 19.7211 30.5703 19.7249C30.5945 19.7366 30.6136 19.7567 30.6244 19.7815C30.634 19.8066 30.6392 19.8301 30.6392 19.8515V19.9144H30.5353V19.8463C30.5358 19.822 30.5306 19.798 30.5201 19.776C30.5096 19.7572 30.4958 19.7475 30.4784 19.7475ZM30.5077 19.5936H30.4528V19.6951H30.5077C30.5209 19.6951 30.53 19.6916 30.5368 19.6841C30.5422 19.6772 30.5451 19.6664 30.5451 19.6502V19.6438V19.6366C30.5451 19.624 30.5421 19.614 30.5344 19.6061C30.528 19.598 30.5181 19.5934 30.5077 19.5936Z" fill="black"/>
<path fill-rule="evenodd" clip-rule="evenodd" d="M26.9176 19.0721C24.9565 19.0721 23.2508 20.2112 22.4829 21.865C22.4961 21.5177 22.4348 21.2057 22.3372 20.8946C21.9838 19.8633 20.8751 19.2273 19.7913 19.18H15.5769V28.6037H19.2434H19.2434C19.791 28.6037 20.3391 28.6037 20.8144 28.411C21.8014 28.0401 22.4469 27.0923 22.5077 25.9058C23.288 27.5364 24.9681 28.6636 26.9176 28.6636C29.6089 28.6636 31.7898 26.5168 31.7898 23.8677C31.7898 21.2175 29.6089 19.0721 26.9176 19.0721ZM26.9176 26.2299C25.5898 26.2299 24.5182 25.1743 24.5182 23.8675C24.5182 22.5599 25.5898 21.4935 26.9176 21.4935C28.2451 21.4935 29.3175 22.5602 29.3175 23.8675C29.3175 25.1743 28.2451 26.2299 26.9176 26.2299ZM21.0455 23.8794C21.4727 23.9629 21.8621 24.2752 22.0814 24.659C22.0086 24.1787 22.0207 23.6995 22.0814 23.2317C21.8373 23.567 21.448 23.8073 21.0455 23.8794ZM19.8649 26.1445C19.7303 26.337 19.548 26.4451 19.316 26.4451H18.0371V24.9342H19.3888C19.608 24.9577 19.8163 25.1025 19.9251 25.3064C20.0589 25.5572 20.0222 25.9174 19.8649 26.1445ZM19.3281 21.3488H18.0373V22.8481H19.1212C19.389 22.8606 19.6451 22.8247 19.8033 22.6088C20.0106 22.3568 20.0106 21.9488 19.8651 21.6735C19.7673 21.4937 19.5484 21.3616 19.3281 21.3488Z" fill="black"/>
<path fill-rule="evenodd" clip-rule="evenodd" d="M26.9046 22.1052C25.9066 22.1052 25.0898 22.8962 25.0898 23.892C25.0898 24.8738 25.9068 25.6777 26.9046 25.6777C27.9159 25.6777 28.72 24.8738 28.72 23.892C28.72 22.8962 27.9159 22.1052 26.9046 22.1052Z" fill="black"/>
<path fill-rule="evenodd" clip-rule="evenodd" d="M12.3489 22.7164H10.6429V19.18H7.99988V28.6036H10.6429V25.0429H12.3489V28.6036H14.9917V19.18H12.3489V22.7164Z" fill="black"/>
</svg>
