<svg width="48" height="48" viewBox="0 0 48 48" fill="none" xmlns="http://www.w3.org/2000/svg">
<rect x="1" y="1" width="46" height="46" rx="23" fill="white" stroke="#F8F8F8" stroke-width="2"/>
<path fill-rule="evenodd" clip-rule="evenodd" d="M9.88095 29.1753C9.88095 28.5002 10.7914 27.8625 12.0739 27.8625C12.811 27.8625 13.2269 28.118 13.2269 28.4856C13.2269 28.8901 12.6463 29.2351 11.7358 29.2351C11.6145 29.2351 11.5192 29.2277 11.4324 29.2202L11.3891 29.1901V29.1301L11.4238 29.0926C12.2299 29.0926 12.6636 28.8526 12.6636 28.493C12.6636 28.2227 12.3773 28.0427 11.8832 28.0427C11.0598 28.0427 10.4356 28.5079 10.4356 29.0105C10.4356 29.3252 10.644 29.5953 11.0251 29.9328L11.797 30.6077C12.1695 30.9303 12.3516 31.2825 12.3516 31.6279C12.3516 31.958 12.135 32.3404 11.7446 32.6328C11.2072 33.0376 10.4878 33.2553 9.69029 33.2553C8.61562 33.2553 8 32.8802 8 32.3627C8 31.7105 8.89257 31.3355 10.6181 31.3652L10.6699 31.3955L10.6785 31.47L10.6352 31.5151C9.31771 31.5151 8.64171 31.8303 8.64171 32.4305C8.64171 32.813 9.07467 33.098 9.80324 33.098C10.9648 33.098 11.7884 32.4526 11.7884 31.7926C11.7884 31.4928 11.6145 31.1776 11.259 30.8703L10.5139 30.2252C10.0888 29.8574 9.88095 29.4978 9.88095 29.1753ZM39.4733 32.2412L39.6621 31.7063H39.8787V32.4534H39.7411V31.8507L39.5375 32.4534H39.4122L39.2057 31.8507V32.4534H39.068V31.7063H39.2846L39.4733 32.2412ZM38.5491 31.8328H38.3044V31.7063H38.9415V31.8328H38.6973V32.4534H38.5491V31.8328ZM37.6423 32.3399C37.6634 32.254 37.6968 31.9629 37.6968 31.8642C37.6968 31.821 37.6968 31.7871 37.6634 31.7871C37.6343 31.7871 37.6257 31.8044 37.6177 31.8513C37.5888 32.0271 37.5381 32.1172 37.4303 32.1682C37.3215 32.2195 37.1465 32.2195 37.0385 32.2195C36.6135 32.2195 36.5469 32.1553 36.5383 31.8599C36.5352 31.7714 36.5365 31.5473 36.5375 31.3725V31.3721C36.5379 31.3008 36.5383 31.2377 36.5383 31.1955V30.8568C36.5383 30.8309 36.5425 30.8143 36.5629 30.8143C36.6634 30.8143 37.076 30.8185 37.155 30.8265C37.3093 30.8439 37.368 30.9086 37.3882 30.9938C37.3978 31.0353 37.4003 31.0764 37.4025 31.1125C37.4032 31.1252 37.404 31.1373 37.405 31.1486C37.405 31.1696 37.4135 31.1869 37.4425 31.1869C37.4802 31.1869 37.4802 31.14 37.4802 31.1054C37.4802 31.0753 37.4882 30.9044 37.4968 30.8185C37.5054 30.6649 37.5183 30.5854 37.5253 30.5427L37.5253 30.5426C37.5282 30.5244 37.5301 30.5129 37.5301 30.5052C37.5301 30.48 37.5177 30.4713 37.5011 30.4713C37.4818 30.4713 37.4662 30.4896 37.441 30.5193L37.4345 30.5269C37.3968 30.57 37.3339 30.5829 37.2339 30.5911C37.1383 30.5995 36.659 30.5995 36.567 30.5995C36.5425 30.5995 36.5383 30.5829 36.5383 30.5526V29.4682C36.5383 29.4387 36.5469 29.4256 36.567 29.4256C36.6505 29.4256 37.0884 29.4343 37.1594 29.4429C37.368 29.4682 37.4091 29.52 37.4383 29.5972C37.4592 29.6484 37.4636 29.7212 37.4636 29.7513C37.4636 29.7896 37.4716 29.8113 37.5011 29.8113C37.5301 29.8113 37.5381 29.7854 37.5425 29.7644C37.5479 29.7316 37.5531 29.644 37.5573 29.5733C37.5597 29.5322 37.5618 29.4969 37.5634 29.4812C37.5718 29.3482 37.5841 29.2814 37.5912 29.2429C37.5946 29.2245 37.5968 29.2125 37.5968 29.2029C37.5968 29.1814 37.5924 29.164 37.572 29.164C37.5591 29.164 37.5446 29.1689 37.5305 29.1737C37.5216 29.1767 37.5129 29.1797 37.5048 29.1814C37.4716 29.1901 37.405 29.1987 37.3259 29.2067C37.247 29.2109 36.4173 29.2109 36.284 29.2109C36.2349 29.2109 36.16 29.2087 36.0731 29.2062C35.9536 29.2028 35.8117 29.1987 35.6838 29.1987C35.6215 29.1987 35.5918 29.2067 35.5918 29.237C35.5918 29.2671 35.6171 29.2759 35.6629 29.2759C35.7215 29.2759 35.7924 29.28 35.8257 29.288C35.9632 29.3183 35.9966 29.3869 36.0046 29.5324C36.0131 29.67 36.0131 29.7896 36.0131 30.441V31.1955C36.0131 31.5898 36.0131 31.9284 35.9922 32.1084C35.9756 32.2324 35.9547 32.3269 35.8714 32.3442C35.8337 32.3528 35.7838 32.3614 35.7215 32.3614C35.7137 32.3614 35.7076 32.3621 35.7016 32.3627L35.6985 32.3631L35.6962 32.3627C35.692 32.3621 35.6878 32.3614 35.6825 32.3614C35.6493 32.3614 35.6116 32.3572 35.5659 32.3484L35.5613 32.3475C35.495 32.334 35.3268 32.2996 35.099 32.0566C34.8863 31.8276 34.643 31.5116 34.3418 31.1204L34.1947 30.9296C34.6154 30.5787 34.745 30.2869 34.745 29.9698C34.745 29.6829 34.5777 29.464 34.4611 29.3825C34.236 29.2239 33.9571 29.1987 33.6943 29.1987C33.6315 29.1987 33.5239 29.2016 33.4137 29.2046L33.4136 29.2046L33.4135 29.2046C33.2978 29.2077 33.1792 29.2109 33.1065 29.2109C33.0729 29.2109 33.0133 29.2091 32.94 29.2069L32.9399 29.2069C32.8231 29.2033 32.6716 29.1987 32.5358 29.1987C32.4735 29.1987 32.4438 29.2067 32.4438 29.237C32.4438 29.2671 32.4691 29.2759 32.5149 29.2759C32.5735 29.2759 32.6444 29.28 32.6777 29.288C32.8152 29.3183 32.8486 29.3869 32.8566 29.5324C32.8653 29.67 32.8653 29.7896 32.8653 30.441V31.1955C32.8653 31.5898 32.8653 31.9284 32.8444 32.1084C32.8276 32.2324 32.8067 32.3269 32.7234 32.3442C32.6857 32.3528 32.6358 32.3614 32.5735 32.3614C32.5234 32.3614 32.5069 32.3738 32.5069 32.3953C32.5069 32.4256 32.5358 32.4385 32.5901 32.4385C32.6888 32.4385 32.8212 32.434 32.9291 32.4303C33.0035 32.4277 33.0662 32.4256 33.0985 32.4256C33.1194 32.4256 33.1683 32.427 33.2331 32.429C33.3608 32.4328 33.5506 32.4385 33.711 32.4385C33.7653 32.4385 33.7943 32.4256 33.7943 32.3953C33.7943 32.3738 33.7775 32.3614 33.7444 32.3614C33.6943 32.3614 33.6025 32.3528 33.5402 32.3442C33.4149 32.3269 33.3903 32.2324 33.3779 32.1084C33.357 31.9284 33.357 31.5898 33.357 31.1911V31.1313C33.357 31.1054 33.3691 31.0968 33.3903 31.0968L33.753 31.1054C33.7819 31.1054 33.8067 31.1098 33.8276 31.1357C33.8595 31.1733 33.9386 31.289 34.0322 31.4259L34.0322 31.426C34.0982 31.5225 34.1715 31.6296 34.2404 31.7273C34.4735 32.0566 34.632 32.2583 34.8116 32.3572C34.9194 32.4168 35.0236 32.4385 35.2575 32.4385H35.6535C35.6705 32.4385 35.6842 32.4368 35.696 32.4341C35.7078 32.4368 35.7213 32.4385 35.7381 32.4385C35.8328 32.4385 35.9587 32.4343 36.0672 32.4307L36.0673 32.4307C36.1495 32.428 36.2218 32.4256 36.263 32.4256C36.3577 32.4256 36.4572 32.4294 36.5797 32.4341C36.7756 32.4417 37.0303 32.4515 37.4179 32.4515C37.5758 32.4515 37.6135 32.4515 37.6423 32.3399ZM33.6154 29.3999C33.861 29.3999 34.2528 29.5755 34.2528 30.1839C34.2528 30.5355 34.1324 30.7328 34.0072 30.8265C33.932 30.8827 33.8775 30.9 33.711 30.9C33.6067 30.9 33.4821 30.8871 33.3945 30.8568C33.365 30.8439 33.357 30.8265 33.357 30.7797V29.4768C33.357 29.4429 33.365 29.4256 33.3945 29.417C33.4358 29.404 33.5112 29.3999 33.6154 29.3999ZM31.9634 29.1987C31.8591 29.1987 31.7133 29.2038 31.6091 29.2073C31.5513 29.2093 31.5063 29.2109 31.4884 29.2109L31.4752 29.2104C31.419 29.208 31.1952 29.1987 31.0091 29.1987C30.9505 29.1987 30.9215 29.2067 30.9215 29.237C30.9215 29.2671 30.9469 29.2759 30.9924 29.2759C31.0381 29.2759 31.109 29.28 31.1423 29.288C31.28 29.3183 31.3131 29.3869 31.3219 29.5324C31.3299 29.67 31.3299 29.7896 31.3299 30.441V30.9772C31.3299 31.4181 31.3175 31.8044 31.088 32.04C30.9215 32.2109 30.6964 32.2713 30.5131 32.2713C30.3712 32.2713 30.18 32.254 29.9924 32.0955C29.7876 31.924 29.6667 31.6625 29.6667 31.0412V30.441C29.6667 29.7896 29.6667 29.67 29.6754 29.5324C29.684 29.3825 29.7173 29.3096 29.8295 29.288L29.833 29.2875C29.8808 29.2799 29.9058 29.2759 29.9505 29.2759C29.9924 29.2759 30.0171 29.2671 30.0171 29.237C30.0171 29.2067 29.9882 29.1987 29.9251 29.1987C29.8427 29.1987 29.7264 29.2024 29.6217 29.2057L29.6217 29.2057C29.5359 29.2084 29.4579 29.2109 29.4126 29.2109C29.3591 29.2109 29.2803 29.2087 29.1902 29.2061L29.1902 29.2061H29.1901C29.0702 29.2027 28.9304 29.1987 28.8044 29.1987C28.7421 29.1987 28.7124 29.2067 28.7124 29.237C28.7124 29.2671 28.7377 29.2759 28.7834 29.2759C28.8419 29.2759 28.913 29.28 28.9463 29.288C29.0838 29.3183 29.1171 29.3869 29.1251 29.5324C29.1337 29.67 29.1337 29.7896 29.1337 30.441V31.0673C29.1337 31.6884 29.2916 32.0054 29.5046 32.2029C29.8088 32.4854 30.209 32.4983 30.4299 32.4983C30.7006 32.4983 31.0011 32.4515 31.2966 32.19C31.6469 31.8814 31.6926 31.3757 31.6926 30.9V30.441C31.6926 29.7896 31.6926 29.67 31.7013 29.5324C31.7093 29.3825 31.7425 29.3096 31.8554 29.288L31.8596 29.2874C31.9068 29.2798 31.9314 29.2759 31.9764 29.2759C32.0263 29.2759 32.051 29.2671 32.051 29.237C32.051 29.2067 32.0221 29.1987 31.9634 29.1987ZM28.4442 29.1803L28.4442 29.1803L28.3985 29.1901C28.3362 29.1987 28.2442 29.2109 28.1109 29.2109H26.4608C26.3227 29.2109 26.1648 29.2029 26.0438 29.1901C25.9797 29.1848 25.9391 29.1664 25.9096 29.153C25.8912 29.1447 25.8771 29.1383 25.8644 29.1383C25.8396 29.1383 25.8272 29.164 25.8143 29.2197C25.8063 29.2541 25.7267 29.644 25.7267 29.7126C25.7267 29.76 25.7354 29.781 25.7644 29.781C25.7895 29.781 25.8019 29.7644 25.8099 29.7298C25.8187 29.6953 25.8396 29.644 25.881 29.5799C25.9438 29.4856 26.0438 29.464 26.2855 29.4553L26.9063 29.4387V31.1955C26.9063 31.5898 26.9063 31.9284 26.8859 32.1084C26.873 32.2324 26.8482 32.3269 26.765 32.3442C26.7272 32.3528 26.6773 32.3614 26.6145 32.3614C26.5644 32.3614 26.5478 32.3738 26.5478 32.3953C26.5478 32.4256 26.5773 32.4385 26.6316 32.4385C26.7263 32.4385 26.8517 32.4343 26.9601 32.4307H26.9601C27.0426 32.428 27.1151 32.4256 27.1568 32.4256C27.2027 32.4256 27.2713 32.4276 27.3545 32.43C27.4823 32.4338 27.6442 32.4385 27.8105 32.4385C27.8568 32.4385 27.8901 32.4256 27.8901 32.3953C27.8901 32.3738 27.8691 32.3614 27.8234 32.3614C27.7613 32.3614 27.6693 32.3528 27.6107 32.3442C27.4855 32.3269 27.4608 32.2324 27.4484 32.1128C27.4274 31.9284 27.4274 31.5898 27.4274 31.1955V29.4387L27.9524 29.4509C28.3238 29.4597 28.436 29.5799 28.444 29.6915L28.4484 29.7383C28.4528 29.8025 28.4613 29.8242 28.4941 29.8242C28.5192 29.8242 28.528 29.7983 28.5316 29.7557C28.5316 29.6969 28.5352 29.5871 28.5386 29.4832L28.5386 29.483C28.5417 29.3897 28.5446 29.3011 28.5446 29.2585C28.5446 29.1943 28.5404 29.1684 28.5112 29.1684C28.4989 29.1684 28.4783 29.1729 28.4442 29.1803ZM25.913 32.3953C25.913 32.43 25.8754 32.4385 25.7211 32.4385C25.5712 32.4385 25.2672 32.4385 24.9333 32.43L24.9151 32.4289C24.8508 32.4254 24.8088 32.423 24.8088 32.3953C24.8088 32.37 24.8255 32.3614 24.8669 32.3572C24.8958 32.3484 24.9253 32.3096 24.9044 32.2583L24.5712 31.3498C24.5627 31.3282 24.5503 31.32 24.5293 31.32H23.5996C23.5794 31.32 23.5709 31.3282 23.5627 31.354L23.3375 31.9667C23.2956 32.074 23.2747 32.177 23.2747 32.2282C23.2747 32.3054 23.3124 32.3614 23.4417 32.3614H23.504C23.5541 32.3614 23.5665 32.37 23.5665 32.3953C23.5665 32.43 23.5417 32.4385 23.4954 32.4385C23.4284 32.4385 23.3497 32.4352 23.2716 32.432L23.2716 32.432L23.2716 32.432C23.1945 32.4288 23.118 32.4256 23.0537 32.4256C23.0394 32.4256 23.0069 32.4269 22.9624 32.4286C22.8652 32.4324 22.7106 32.4385 22.5621 32.4385C22.5078 32.4385 22.4832 32.43 22.4832 32.3953C22.4832 32.37 22.4998 32.3614 22.5331 32.3614C22.5709 32.3614 22.6288 32.3572 22.6621 32.3528C22.8539 32.3269 22.9328 32.1814 23.0162 31.9667L24.0625 29.2759C24.1124 29.1511 24.1377 29.1042 24.1789 29.1042C24.2166 29.1042 24.2419 29.1425 24.2832 29.2412C24.3268 29.3439 24.4781 29.7341 24.657 30.1956C24.8886 30.7929 25.1665 31.5097 25.3171 31.8772C25.4756 32.2627 25.5966 32.3225 25.6836 32.3442C25.7465 32.3572 25.8088 32.3614 25.8587 32.3614C25.892 32.3614 25.913 32.3658 25.913 32.3953ZM24.4709 31.0795L24.0956 30.021L24.0954 30.02C24.0918 30.0034 24.0874 29.9827 24.0749 29.9827C24.0625 29.9827 24.0545 30.0042 24.0501 30.021L23.6663 31.0753C23.6627 31.0924 23.6663 31.1054 23.683 31.1054H24.4505C24.4709 31.1054 24.475 31.0924 24.4709 31.0795ZM22.4067 29.1987C22.461 29.1987 22.5023 29.2029 22.5023 29.237C22.5023 29.2627 22.4777 29.2759 22.4276 29.2759C22.3857 29.2759 22.3524 29.2759 22.3025 29.288C22.1859 29.3227 22.1526 29.4126 22.1482 29.6526L22.1025 32.3572C22.1025 32.4515 22.0859 32.4898 22.0482 32.4898C22.0027 32.4898 21.952 32.4429 21.9065 32.3953C21.7514 32.2436 21.5022 31.9859 21.2348 31.7095C21.0491 31.5175 20.8547 31.3165 20.677 31.1357C20.3175 30.7689 19.9526 30.357 19.7789 30.1608C19.7331 30.1092 19.7006 30.0725 19.685 30.0555H19.6728L19.7183 31.8557C19.7269 32.19 19.7806 32.301 19.8644 32.3311C19.9349 32.3572 20.0145 32.3614 20.081 32.3614C20.1267 32.3614 20.152 32.37 20.152 32.3953C20.152 32.43 20.1145 32.4385 20.0558 32.4385C19.88 32.4385 19.7481 32.4331 19.6556 32.4292C19.6056 32.4272 19.5672 32.4256 19.5394 32.4256C19.5283 32.4256 19.5035 32.4267 19.4684 32.4283C19.3844 32.4321 19.2418 32.4385 19.0891 32.4385C19.0349 32.4385 18.9971 32.4341 18.9971 32.3953C18.9971 32.37 19.0225 32.3614 19.0638 32.3614C19.1181 32.3614 19.1933 32.3572 19.2512 32.3399C19.36 32.3054 19.3766 32.1814 19.3808 31.8088L19.4185 29.2715C19.4185 29.1858 19.4309 29.1252 19.4722 29.1252C19.5092 29.1252 19.5406 29.1612 19.5877 29.215C19.5995 29.2285 19.6122 29.2431 19.6263 29.2585C19.6297 29.2623 19.6358 29.2689 19.6443 29.2783C19.7622 29.4078 20.351 30.0549 20.9189 30.6341C21.08 30.7999 21.3318 31.0715 21.5318 31.2873C21.6832 31.4505 21.8049 31.5818 21.8354 31.6113H21.8564L21.8145 29.6873C21.8109 29.4256 21.7731 29.3442 21.6731 29.3012C21.6103 29.2759 21.5103 29.2759 21.4524 29.2759C21.4025 29.2759 21.3857 29.2627 21.3857 29.237C21.3857 29.2029 21.4314 29.1987 21.4937 29.1987C21.6265 29.1987 21.7528 29.2033 21.8509 29.2068C21.9133 29.2091 21.9642 29.2109 21.9983 29.2109C22.013 29.2109 22.0393 29.2096 22.075 29.2079C22.1505 29.2043 22.2681 29.1987 22.4067 29.1987ZM18.315 30.8375C18.4049 30.8342 18.4962 30.8309 18.5661 30.8309C18.6202 30.8309 18.6493 30.8397 18.6493 30.8741C18.6493 30.9 18.6246 30.9086 18.5949 30.9086C18.5617 30.9086 18.5326 30.9124 18.4827 30.921C18.3697 30.9425 18.3286 31.0155 18.3242 31.1654C18.3198 31.2941 18.3198 31.4658 18.3198 31.6797V32.1511C18.3198 32.2671 18.3162 32.2757 18.2655 32.3054C17.9949 32.4515 17.5865 32.4983 17.2613 32.4983C16.2404 32.4983 15.336 32.0012 15.336 30.8185C15.336 30.1326 15.6821 29.6526 16.0608 29.417C16.4611 29.1684 16.832 29.1383 17.1823 29.1383C17.4697 29.1383 17.8368 29.1901 17.92 29.2067C18.0076 29.224 18.1533 29.25 18.2495 29.2541C18.2994 29.2585 18.3074 29.2759 18.3074 29.3054C18.3074 29.3163 18.3059 29.331 18.3035 29.3537C18.2957 29.4299 18.2785 29.5957 18.2785 30.0086C18.2785 30.0772 18.2655 30.0987 18.233 30.0987C18.2032 30.0987 18.1952 30.0772 18.1909 30.0425C18.1785 29.9439 18.1577 29.8069 18.049 29.6873C17.9244 29.5498 17.5907 29.353 17.12 29.353C16.8905 29.353 16.5865 29.3701 16.2947 29.6187C16.0608 29.8199 15.9109 30.1412 15.9109 30.668C15.9109 31.5898 16.4821 32.28 17.3611 32.28C17.4697 32.28 17.616 32.28 17.716 32.2324C17.7783 32.2029 17.7949 32.1467 17.7949 32.074V31.6711C17.7949 31.457 17.7949 31.2941 17.7905 31.1654C17.7869 31.0197 17.7493 30.9513 17.6116 30.921C17.5785 30.9124 17.5074 30.9086 17.4488 30.9086C17.4112 30.9086 17.3865 30.9 17.3865 30.8741C17.3865 30.8397 17.4156 30.8309 17.4741 30.8309C17.5972 30.8309 17.7352 30.8351 17.8543 30.8387C17.9447 30.8414 18.0243 30.8439 18.0781 30.8439C18.1419 30.8439 18.2277 30.8407 18.315 30.8375ZM14.6057 32.3442C14.6642 32.3528 14.7562 32.3614 14.8185 32.3614C14.8642 32.3614 14.885 32.3738 14.885 32.3953C14.885 32.4256 14.8518 32.4385 14.8061 32.4385C14.6383 32.4385 14.475 32.4337 14.3477 32.4299C14.2663 32.4275 14.1996 32.4256 14.1558 32.4256C14.1143 32.4256 14.042 32.428 13.9597 32.4307C13.8512 32.4343 13.7254 32.4385 13.6303 32.4385C13.5766 32.4385 13.547 32.4256 13.547 32.3953C13.547 32.3738 13.5636 32.3614 13.6137 32.3614C13.6766 32.3614 13.7265 32.3528 13.7642 32.3442C13.8474 32.3269 13.8722 32.254 13.8851 32.1301C13.9055 31.95 13.9055 31.6113 13.9055 31.1955V30.441H13.9053C13.9053 29.7896 13.9053 29.67 13.8973 29.5324C13.8888 29.3869 13.8474 29.314 13.7556 29.2924C13.7099 29.28 13.6556 29.2759 13.6057 29.2759C13.5636 29.2759 13.539 29.2671 13.539 29.2326C13.539 29.2067 13.5724 29.1987 13.6389 29.1987C13.7236 29.1987 13.8378 29.2022 13.9442 29.2054C14.0371 29.2083 14.1242 29.2109 14.1806 29.2109C14.2273 29.2109 14.3025 29.2085 14.3856 29.2058C14.4879 29.2024 14.602 29.1987 14.6895 29.1987C14.7432 29.1987 14.7766 29.2067 14.7766 29.2326C14.7766 29.2671 14.7518 29.2759 14.7099 29.2759C14.6686 29.2759 14.6352 29.28 14.5853 29.288C14.4724 29.3096 14.439 29.3825 14.431 29.5324C14.4225 29.67 14.4225 29.7896 14.4225 30.441V31.1955C14.4225 31.6113 14.4225 31.95 14.439 32.1345C14.4514 32.2498 14.481 32.3269 14.6057 32.3442ZM23.5208 26.184C17.5389 26.184 12.1905 26.7922 8.636 27.7477C11.633 26.1218 17.1768 25.0292 23.5208 25.0292C29.8648 25.0292 35.4086 26.1218 38.4055 27.7477C34.8516 26.7922 29.5032 26.184 23.5208 26.184Z" fill="#B73722"/>
<path fill-rule="evenodd" clip-rule="evenodd" d="M30.0504 23.6985C32.436 23.6973 34.3773 21.716 34.3767 19.3299C34.376 16.8937 32.436 15.0019 30.0504 15C27.668 14.9981 26.4502 16.7518 26.1499 17.46C26.1523 16.3971 25.1049 15.143 23.8798 15.1411H19.9323V23.6554L23.6127 23.6566C25.0969 23.6566 26.1523 22.371 26.1542 21.2686C26.4929 21.9627 27.668 23.6992 30.0504 23.6985ZM30.0518 17.1646C31.2491 17.1646 32.2194 18.1349 32.2194 19.3316C32.2194 20.5284 31.2491 21.4987 30.0518 21.4987C28.8548 21.4987 27.8845 20.5284 27.8845 19.3316C27.8845 18.1349 28.8548 17.1646 30.0518 17.1646ZM30.0518 17.6278C29.111 17.6278 28.3478 18.391 28.3478 19.3316C28.3478 20.2724 29.111 21.0354 30.0518 21.0354C30.9931 21.0354 31.7554 20.2724 31.7554 19.3316C31.7554 18.391 30.9931 17.6278 30.0518 17.6278ZM25.7396 18.795C25.6841 19.0379 25.6798 19.7406 25.7445 19.983C25.5651 19.7061 25.1396 19.3655 24.8668 19.3316C25.1352 19.2977 25.5817 18.991 25.7396 18.795ZM23.9175 17.7568C23.9175 17.3737 23.6491 17.0375 23.3085 17.0375H22.1384V18.476H23.3085C23.6491 18.476 23.9175 18.1398 23.9175 17.7568ZM23.3041 20.2341C23.6447 20.2341 23.9131 20.5703 23.9131 20.9535C23.9131 21.3366 23.6447 21.6733 23.3041 21.6733H22.1341V20.2341H23.3041ZM17.1379 15.1425H19.4512V23.6585H17.1379V20.3545H15.6363V23.6585H13.2615L13.2535 15.1425H15.6363V18.3101H17.1379V15.1425Z" fill="black"/>
</svg>
