<svg width="48" height="48" viewBox="0 0 48 48" fill="none" xmlns="http://www.w3.org/2000/svg">
<rect x="1" y="1" width="46" height="46" rx="23" fill="white" stroke="#F8F8F8" stroke-width="2"/>
<path fill-rule="evenodd" clip-rule="evenodd" d="M17.9244 27.4646H19.2214C19.7314 27.4646 20.1531 27.6306 20.4995 27.9504C20.8457 28.2703 21.0156 28.6823 21.0093 29.1744C21.0093 29.6788 20.8394 30.0908 20.4932 30.4107C20.1468 30.7367 19.7251 30.8967 19.2151 30.8967H18.5478V32.3481V32.3727C18.5478 32.7171 18.2582 33 17.9057 33C17.553 33 17.2634 32.7232 17.2634 32.3727V28.1472V28.0919V28.0366C17.2885 27.7228 17.5593 27.4708 17.8866 27.4646H17.9057H17.9244ZM28.5645 27.4646H27.2675H27.2486H27.2298C26.9024 27.4708 26.6317 27.7228 26.6065 28.0366V28.0919V28.1472V32.3727C26.6065 32.7232 26.8961 33 27.2486 33C27.6012 33 27.8908 32.7171 27.8908 32.3727V32.3481V30.8967H28.5582C29.0682 30.8967 29.49 30.7367 29.8362 30.4107C30.1824 30.0908 30.3525 29.6788 30.3525 29.1744C30.3588 28.6823 30.1887 28.2703 29.8425 27.9504C29.4963 27.6306 29.0745 27.4646 28.5645 27.4646ZM28.9296 29.562C28.829 29.6603 28.7094 29.7094 28.5645 29.7094H27.8971V28.6639H28.5645C28.7094 28.6639 28.829 28.7131 28.9296 28.8053C29.0305 28.9038 29.0745 29.0267 29.0745 29.1806C29.0745 29.3405 29.0305 29.4635 28.9296 29.562ZM19.5866 29.562C19.4858 29.6603 19.3661 29.7094 19.2214 29.7094H18.5541V28.6639H19.2214C19.3661 28.6639 19.4858 28.7131 19.5866 28.8053C19.6873 28.9038 19.7314 29.0267 19.7314 29.1806C19.7314 29.3405 19.681 29.4635 19.5866 29.562ZM21.1479 30.0477C21.1479 28.6332 22.3252 27.4829 23.7797 27.4829C25.234 27.4829 26.4113 28.627 26.4113 30.0477V30.0539C26.4113 31.4686 25.234 32.6124 23.7797 32.6124C22.3315 32.6124 21.1542 31.4686 21.1479 30.0539V30.0477ZM23.7797 31.5854C22.9109 31.5854 22.1994 30.8967 22.1994 30.0539H25.3598C25.3536 30.8967 24.6485 31.5854 23.7797 31.5854ZM26.6506 18.7308C26.9905 17.9435 28.3756 16 31.0829 16C33.7964 16 36 18.0974 36 20.8036C36 23.4483 33.7901 25.6502 31.0829 25.6502C28.3756 25.6502 27.0408 23.7251 26.6569 22.9563C26.6506 24.1801 25.4544 25.6072 23.7671 25.6072H19.5866V16.16H24.0693C25.4607 16.16 26.6506 17.55 26.6506 18.7308ZM28.6212 20.8036C28.6212 22.1321 29.7292 23.2084 31.0829 23.2084C32.4428 23.2084 33.5446 22.1321 33.5446 20.8036C33.5446 19.4751 32.4428 18.3987 31.0829 18.3987C29.7229 18.3987 28.6212 19.4751 28.6212 20.8036ZM33.022 20.8036C33.022 21.843 32.1532 22.6918 31.0829 22.6918C30.0188 22.6918 29.15 21.8492 29.15 20.8036C29.15 19.7641 30.0125 18.9154 31.0829 18.9154C32.1532 18.9154 33.022 19.758 33.022 20.8036ZM26.1846 20.207C26.0083 20.4285 25.4984 20.7667 25.1962 20.8036C25.5047 20.8405 25.9896 21.2157 26.1909 21.5231C26.1154 21.2588 26.1217 20.4776 26.1846 20.207ZM23.427 19.8565H22.0985V18.2573H23.427C23.8112 18.2573 24.1196 18.6325 24.1196 19.0567C24.1196 19.4812 23.8174 19.8565 23.427 19.8565ZM22.0922 23.4051H23.4207C23.8112 23.4051 24.1133 23.03 24.1133 22.6057C24.1133 22.1813 23.8112 21.8062 23.4207 21.8062H22.0922V23.4051ZM16.4134 25.6072V21.9352H14.7073V25.6008H12.0126L12 16.1538H14.7073V19.6719H16.4134V16.1538H19.0389V25.6072H16.4134Z" fill="black"/>
</svg>
