<svg width="48" height="48" viewBox="0 0 48 48" fill="none" xmlns="http://www.w3.org/2000/svg">
<rect x="1" y="1" width="46" height="46" rx="23" fill="white" stroke="#F8F8F8" stroke-width="2"/>
<path fill-rule="evenodd" clip-rule="evenodd" d="M31.0848 19C29.1063 19 27.3855 20.1877 26.6109 21.9119C26.6242 21.55 26.5625 21.2245 26.464 20.9004C26.1075 19.8249 24.9887 19.1621 23.8955 19.1125H19.6438V28.9377H23.3427C23.8953 28.9377 24.4481 28.9377 24.9276 28.737C25.9234 28.3501 26.5745 27.3619 26.6359 26.1249C27.423 27.8249 29.118 29 31.0848 29C33.8 29 36 26.7619 36 24.0001C36 21.237 33.8 19 31.0848 19ZM31.0848 26.4628C29.7452 26.4628 28.6642 25.3623 28.6642 23.9998C28.6642 22.6366 29.7452 21.5247 31.0848 21.5247C32.4242 21.5247 33.5058 22.6368 33.5058 23.9998C33.5058 25.3623 32.4242 26.4628 31.0848 26.4628ZM31.0716 25.8872C32.092 25.8872 32.9032 25.0491 32.9032 24.0253C32.9032 22.9872 32.092 22.1623 31.0716 22.1623C30.0647 22.1623 29.2407 22.9872 29.2407 24.0253C29.2407 25.0491 30.065 25.8872 31.0716 25.8872ZM26.2059 24.825C25.9845 24.4248 25.5918 24.0994 25.1607 24.0122C25.5669 23.937 25.9595 23.6866 26.2059 23.3369C26.1445 23.8246 26.1323 24.3242 26.2059 24.825ZM23.416 26.6871C23.65 26.6871 23.8339 26.5743 23.9697 26.3739C24.1284 26.137 24.1655 25.7615 24.0305 25.5001C23.9206 25.2873 23.7105 25.1364 23.4896 25.1119H22.1258V26.6871H23.416ZM22.1259 21.3739H23.4282C23.6503 21.3871 23.8713 21.5248 23.9699 21.7122C24.1169 21.9993 24.1169 22.4246 23.9075 22.6875C23.7478 22.9123 23.4897 22.95 23.2194 22.9369H22.1259V21.3739ZM19.0535 19.1125H16.3873V22.7997H14.6662V19.1125H12V28.9377H14.6662V25.2252H16.3873V28.9377H19.0535V19.1125Z" fill="black"/>
</svg>
