<svg width="376" height="120" viewBox="0 0 376 120" fill="none" xmlns="http://www.w3.org/2000/svg">
<path fill-rule="evenodd" clip-rule="evenodd" d="M375.092 72.6469H350.385V47.9424H340.192V72.6469H315.487V82.8404H340.192V107.545H350.385V82.8404H375.092V72.6469Z" fill="#543CE6"/>
<path d="M255.801 59.6669C255.801 72.7552 245.056 83.2273 232.365 83.2273C219.286 83.2273 208.806 72.7552 208.806 59.6669C208.806 46.5787 219.286 36.24 232.365 36.24C245.056 36.24 255.801 46.5787 255.801 59.6669Z" fill="#34283F"/>
<path fill-rule="evenodd" clip-rule="evenodd" d="M291.776 59.6693C291.776 92.7814 265.079 120 232.364 120C199.261 120 183.035 95.9176 178.458 86.3639C178.458 101.805 163.92 119.478 143.242 119.478H92.4732V1.96255H147.042C163.92 1.96255 178.458 19.3625 178.458 33.8912C182.505 24.0726 199.261 0 232.364 0C265.079 0 291.776 26.0352 291.776 59.6693ZM172.952 52.4753C170.603 55.0914 164.442 59.4012 160.661 59.67C164.442 60.3216 170.336 64.9081 172.952 68.7017C172.034 65.5538 172.034 55.6115 172.952 52.4753ZM139.195 72.2256C143.903 72.2256 147.694 76.8121 147.694 82.0442C147.694 87.5492 143.903 92.118 139.195 92.118H122.951V72.2256H139.195ZM147.694 37.9567C147.694 32.7148 143.903 28.1381 139.195 28.1381H122.951V47.7754H139.195C143.903 47.7754 147.694 43.1791 147.694 37.9567ZM202.52 59.6686C202.52 43.1774 215.874 29.834 232.363 29.834C248.862 29.834 262.198 43.1774 262.198 59.6686C262.198 76.2816 248.862 89.6426 232.363 89.6426C215.874 89.6426 202.52 76.2816 202.52 59.6686Z" fill="#34283F"/>
<path d="M54.0025 119.477H85.941V1.96186H54.0025V45.7934H33.3153V1.96186H0.591797V119.477H33.3153V73.9305H54.0025V119.477Z" fill="#34283F"/>
</svg>
