<svg width="48" height="48" viewBox="0 0 48 48" fill="none" xmlns="http://www.w3.org/2000/svg">
<rect x="1" y="1" width="46" height="46" rx="23" fill="white" stroke="#F8F8F8" stroke-width="2"/>
<path fill-rule="evenodd" clip-rule="evenodd" d="M40 25.4731V27.4214C39.5688 27.6167 39.0616 27.7501 38.4701 27.7501C36.4918 27.7501 36.0406 26.4621 36.0171 25.6046L36.016 25.532V22.3101C36.0146 21.506 35.9308 20.863 35.6651 20.3986C35.422 19.9654 34.9978 19.711 34.4083 19.679L34.2795 19.6756H34.2629C33.5686 19.6742 32.9873 19.8896 32.5983 20.3741C32.2348 20.8234 32.0405 21.4829 32.016 22.3786L32.0135 22.5742V27.5055H28.4709C27.0062 27.5055 26.1655 26.887 25.7923 26.6125L25.7922 26.6124C25.7528 26.5835 25.7187 26.5584 25.6896 26.5382L25.6713 26.5544C25.2368 26.9382 24.4597 27.6247 22.8119 27.7253C21.4242 27.81 20.2776 27.3952 19.4858 26.6787L19.3751 26.5745C18.9176 27.1021 18.1112 27.7501 16.9291 27.7501C14.9443 27.7501 14.4936 26.458 14.4707 25.5986L14.4698 25.528V22.2992C14.4681 21.4941 14.384 20.8498 14.1176 20.3842C13.8742 19.9501 13.4493 19.6957 12.8584 19.6636L12.7293 19.6601H12.7133C12.0176 19.6583 11.4351 19.8747 11.045 20.3593C10.6806 20.8098 10.4858 21.4705 10.4615 22.368L10.4588 22.5638V27.5055H8V14H10.3702V19.1981L10.3804 19.1837C10.4866 19.0371 11.4249 17.8275 13.4842 17.8275C16.125 17.843 16.8965 19.6563 16.9282 21.6033L16.9291 21.7305V24.9912C16.9291 25.2259 16.9667 25.7283 17.5589 25.7283C17.9558 25.7283 18.24 25.4027 18.4039 25.1429L18.4425 25.0794L18.4889 25.1536C18.387 24.8521 18.3197 24.5347 18.2985 24.2046C18.2731 23.7979 18.2689 22.893 18.9183 21.9304C19.5167 21.0422 20.2943 20.6571 20.861 20.3921L20.8546 20.3808C20.6282 19.9865 20.2857 19.3898 20.2304 18.5316C20.1187 16.7995 21.4751 15.4924 23.0915 15.3929C24.6353 15.299 26.1038 16.2915 26.2121 17.9709C26.2955 19.2611 25.52 20.2484 23.8552 21.0073L23.9969 21.1922L23.9969 21.1922L23.997 21.1923L23.997 21.1923C24.7691 22.2001 24.9403 22.4236 25.7818 23.4448C25.7818 23.4448 26.4056 22.7 26.4519 21.2664L26.4544 21.0981H28.5112C28.3489 22.5446 28.1145 23.8452 27.1533 24.923C27.1533 24.923 27.8064 25.658 29.3867 25.5807L29.5595 25.5692V14.0273H31.925V19.2154C31.925 19.2154 32.8447 17.8473 35.0323 17.8473C37.6673 17.8628 38.4375 19.6724 38.4692 21.6153L38.4701 21.7421V24.9966C38.4701 25.2309 38.5078 25.7316 39.0979 25.7316C39.4 25.7316 39.6729 25.6465 39.9035 25.5266L40 25.4731ZM24.4309 25.1246C23.2847 23.7576 23.0275 23.4362 21.9694 22.0276C20.8281 22.7009 20.4467 23.2925 20.4919 23.999C20.5457 24.8299 21.3057 25.8656 22.7592 25.7771C23.6306 25.7236 24.1526 25.3368 24.4309 25.1246ZM22.8141 19.5622C22.5682 19.1518 22.3349 18.6514 22.3075 18.2274C22.2598 17.4847 22.8242 17.1842 23.2235 17.1596L23.2863 17.1583L23.3523 17.1618C23.7131 17.1937 24.1904 17.442 24.2292 18.0394C24.2781 18.7986 23.7136 19.0993 22.8141 19.5622ZM32.579 32.4793L32.0853 30.9461H31.5816L32.3479 33.0228L32.3424 33.036L32.3387 33.0458C32.3145 33.1104 32.1754 33.4701 32.0485 33.5625C31.9398 33.6187 31.6896 33.6143 31.594 33.6075V33.9998L31.7531 34C31.9393 33.9991 32.1831 33.9897 32.2767 33.9289C32.4353 33.8274 32.4706 33.7839 32.579 33.5622C32.6962 33.3198 33.6 30.9461 33.6 30.9461H33.1078L32.579 32.4793ZM30.6392 31.2916C30.7951 31.0957 31.0361 31.009 31.2052 30.9712L31.2728 30.9577L31.4342 31.3577C31.2293 31.3886 30.8323 31.496 30.6899 31.8771C30.6616 31.953 30.6472 32.0409 30.6419 32.1395L30.6392 32.2414V33.0377H30.1669V30.9461H30.6392V31.2916ZM29.7512 31.5974C29.7923 31.7337 29.8132 31.8771 29.8132 32.0276C29.8132 32.0447 29.8126 32.0628 29.8121 32.081L29.8118 32.0922C29.8108 32.1073 29.8094 32.1217 29.808 32.1363L29.8056 32.1618H28.2899C28.3161 32.3338 28.3832 32.4648 28.4914 32.5568C28.6002 32.647 28.73 32.6925 28.8839 32.6925C29.0022 32.6925 29.1024 32.6714 29.1889 32.6296C29.274 32.5875 29.3587 32.525 29.4422 32.4435L29.7203 32.6925C29.6213 32.8111 29.5026 32.9073 29.3669 32.9776C29.2298 33.0489 29.066 33.0853 28.8764 33.0853C28.7277 33.0853 28.5889 33.0584 28.459 33.0063C28.331 32.953 28.2187 32.8782 28.1236 32.7831C28.0292 32.689 27.9536 32.5744 27.8996 32.4415C27.8445 32.3087 27.8182 32.1604 27.8182 32V31.9923C27.8182 31.8416 27.8427 31.6997 27.8918 31.5677C27.9418 31.4355 28.0108 31.3206 28.1016 31.2216C28.1909 31.1221 28.2966 31.0446 28.419 30.988C28.5412 30.9318 28.6775 30.9027 28.8256 30.9027C28.9898 30.9027 29.1336 30.9323 29.2565 30.9938C29.3804 31.0544 29.4833 31.1362 29.5653 31.2393C29.6474 31.342 29.7093 31.4615 29.7512 31.5974ZM29.3109 31.6696C29.3276 31.7095 29.3385 31.7357 29.3445 31.7946H28.2861C28.3068 31.6317 28.3647 31.5492 28.459 31.4471C28.5561 31.3451 28.6756 31.2949 28.8212 31.2949C28.8988 31.2949 28.9688 31.3085 29.0311 31.3362C29.0908 31.364 29.1443 31.4032 29.1889 31.453C29.2323 31.5023 29.2676 31.5623 29.2944 31.6291C29.3004 31.6447 29.3059 31.6577 29.3109 31.6696ZM26.717 32.4833L26.1628 30.9461H25.6543L26.5029 33.053H26.9282L27.7725 30.9461H27.2756L26.717 32.4833ZM25.6358 31.9874C25.6358 31.837 25.6089 31.6968 25.5531 31.5657C25.4996 31.4355 25.4237 31.3206 25.325 31.2216C25.2278 31.1221 25.1114 31.0446 24.9779 30.988C24.8438 30.9318 24.6971 30.9027 24.5377 30.9027C24.3794 30.9027 24.2329 30.9318 24.0993 30.9894C23.9649 31.0479 23.8488 31.1257 23.7517 31.2252C23.654 31.325 23.5766 31.4405 23.52 31.5718C23.4643 31.7034 23.4367 31.845 23.4367 31.9955V32.0035C23.4367 32.1516 23.464 32.2912 23.5183 32.4237C23.5733 32.5564 23.6497 32.6702 23.7468 32.7679C23.8444 32.866 23.9603 32.9433 24.0947 32.9992C24.2285 33.0561 24.374 33.0853 24.5302 33.0853C24.6888 33.0853 24.8369 33.0556 24.9719 32.9982C25.1064 32.9395 25.2235 32.8606 25.3216 32.7621C25.4184 32.6631 25.4958 32.5473 25.5512 32.4151C25.6078 32.2835 25.6358 32.144 25.6358 31.9955V31.9874ZM25.1159 31.7344C25.1464 31.8162 25.1628 31.9032 25.1628 31.9955V32.0035C25.1628 32.0933 25.1482 32.178 25.1197 32.2587C25.091 32.3391 25.05 32.4107 24.995 32.4706C24.9404 32.5315 24.8745 32.5801 24.7981 32.6153C24.7206 32.6509 24.6339 32.6694 24.5377 32.6694C24.4471 32.6694 24.3628 32.6509 24.2852 32.6153C24.2094 32.5801 24.1429 32.5315 24.0869 32.469C24.0312 32.4069 23.9868 32.3358 23.9562 32.2532C23.925 32.1719 23.9092 32.0859 23.9092 31.9955V31.9874C23.9092 31.8954 23.9231 31.8094 23.952 31.7278C23.9805 31.648 24.0227 31.5784 24.0773 31.5188C24.1316 31.4592 24.1973 31.4113 24.2744 31.3751C24.3512 31.3391 24.4361 31.3229 24.5302 31.3229C24.624 31.3229 24.7098 31.3391 24.7864 31.3751C24.8626 31.4113 24.9291 31.4592 24.986 31.5211C25.0406 31.5809 25.085 31.6523 25.1159 31.7344ZM23.0383 32.4068L23.3236 32.6918C23.1211 32.9213 22.8816 33.0835 22.48 33.0835C21.8662 33.0835 21.4143 32.5966 21.4143 31.9995C21.4143 31.4007 21.8662 30.9027 22.4841 30.9027C22.8348 30.9027 23.0665 31.0216 23.2489 31.1999L23.3081 31.2615L23.0144 31.5833C22.8696 31.428 22.7176 31.3215 22.48 31.3215C22.1355 31.3215 21.8864 31.6227 21.8864 31.9908C21.8864 32.3672 22.1398 32.6676 22.5032 32.6676C22.6982 32.6676 22.8482 32.5861 22.9818 32.4623L23.0383 32.4068ZM21.1426 32.1697C21.1032 32.1034 21.0533 32.0475 20.992 32.0018C20.9308 31.9557 20.8635 31.9163 20.7871 31.8846C20.712 31.8522 20.6364 31.8252 20.5606 31.8018L20.3868 31.7419C20.3302 31.7236 20.2811 31.7026 20.2387 31.6806C20.1953 31.6587 20.1603 31.6336 20.1347 31.6048C20.1095 31.5784 20.0966 31.5456 20.0966 31.5086V31.5009L20.1013 31.4574C20.1107 31.4157 20.134 31.3796 20.1721 31.3492C20.2229 31.3103 20.2932 31.2912 20.3859 31.2912C20.4706 31.2912 20.5638 31.3085 20.666 31.3439C20.7677 31.3791 20.8678 31.428 20.9664 31.4891L21.1542 31.148L21.07 31.0957C20.9838 31.0462 20.8915 31.005 20.7915 30.9741C20.6585 30.9318 20.5267 30.9101 20.3961 30.9101C20.2952 30.9101 20.1995 30.9254 20.1095 30.9542C20.0193 30.9831 19.9418 31.0256 19.8751 31.081C19.8086 31.1362 19.7556 31.2028 19.7191 31.2808C19.6809 31.3584 19.6623 31.4487 19.6623 31.5484V31.5556L19.6659 31.6282C19.6733 31.6976 19.6913 31.7578 19.7209 31.8097C19.7603 31.8785 19.8096 31.9361 19.8711 31.9819C19.9324 32.0277 20.0011 32.0659 20.0786 32.0943C20.1551 32.1236 20.2306 32.149 20.3065 32.1697C20.3386 32.18 20.3706 32.1897 20.402 32.1993L20.4022 32.1994C20.4288 32.2075 20.4551 32.2156 20.4806 32.2236C20.5373 32.2409 20.5856 32.2606 20.6282 32.2829C20.6723 32.3051 20.7054 32.331 20.7311 32.3598C20.7559 32.3891 20.7677 32.4237 20.7677 32.4634V32.4706L20.7625 32.5194C20.7522 32.566 20.7261 32.6045 20.6835 32.6349C20.6278 32.6757 20.549 32.6976 20.4474 32.6976C20.3404 32.6976 20.2289 32.6752 20.1133 32.631C19.9967 32.5875 19.8839 32.5236 19.7719 32.4392L19.5609 32.7642L19.6605 32.8368C19.7622 32.9046 19.8706 32.9585 19.9849 32.9982C20.1365 33.0502 20.2869 33.0766 20.4359 33.0766C20.5415 33.0766 20.6428 33.0626 20.7366 33.036C20.8307 33.0072 20.9109 32.9658 20.9816 32.9124C21.0491 32.8586 21.1032 32.7909 21.1426 32.7085C21.1821 32.6264 21.2019 32.5297 21.2019 32.4199V32.4114L21.1981 32.3427C21.1907 32.2765 21.1722 32.219 21.1426 32.1697ZM19.2381 33.0377H18.766V30.9461H19.2381V33.0377ZM17.0397 30.2501H16.0216V30.7244C16.0932 30.7561 16.1622 30.7944 16.2265 30.8402C16.3297 30.9124 16.4226 31.0018 16.5016 31.1006V30.6938H17.0397C17.6135 30.6938 17.989 31.0933 17.989 31.6392C17.989 32.186 17.6135 32.578 17.0397 32.578H16.6169C16.5169 32.756 16.3773 32.9078 16.2091 33.0205H17.0397C17.8993 33.0205 18.4922 32.4151 18.4922 31.6317C18.4922 30.8476 17.8993 30.2501 17.0397 30.2501ZM15.4905 30.8293C16.093 30.8293 16.581 31.325 16.581 31.9353C16.581 32.5455 16.093 33.0403 15.4905 33.0403C14.8886 33.0403 14.4 32.5455 14.4 31.9353C14.4 31.325 14.8886 30.8293 15.4905 30.8293Z" fill="#F54A00"/>
</svg>
