<svg width="48" height="48" viewBox="0 0 48 48" fill="none" xmlns="http://www.w3.org/2000/svg">
<rect x="1" y="1" width="46" height="46" rx="23" fill="white" stroke="#F8F8F8" stroke-width="2"/>
<path fill-rule="evenodd" clip-rule="evenodd" d="M8.00016 23.0463H30.136L19.0386 16L8.00016 23.0463ZM25.0273 26.9739H20.976V28.8794H22.4438V29.457C22.2678 29.573 21.9741 29.6884 21.5045 29.6884C20.4475 29.6884 19.5669 28.9377 19.5669 27.7825C19.5669 26.6851 20.2714 25.9343 21.387 25.9343C22.0916 25.9343 22.7374 26.1075 23.2659 26.569L24.8513 24.7207C23.9705 23.9127 22.7374 23.4508 21.2695 23.4508C18.6273 23.4508 16.6311 25.2984 16.6311 27.7825C16.6311 30.3232 18.686 32.056 21.2695 31.9986C22.7374 31.9986 24.088 31.5366 25.0273 30.7852V26.9739ZM40 23.6239L36.5945 31.883H33.8932L31.427 25.9343H30.136V31.883H27.3763V25.9343H25.1451V23.6239H33.6588L35.2436 28.2443L36.8882 23.6239H40ZM37.9448 31.1899C37.71 31.1899 37.5338 31.3632 37.5338 31.5942C37.5338 31.8252 37.71 31.9985 37.9448 31.9985C38.1798 31.9985 38.3558 31.8252 38.3558 31.5942C38.3558 31.3632 38.1798 31.1899 37.9448 31.1899ZM37.9448 31.9406C37.71 31.9406 37.5926 31.7675 37.5926 31.5942C37.5926 31.4209 37.7688 31.2476 37.9448 31.2476C38.1798 31.2476 38.2971 31.4209 38.2971 31.5942C38.2971 31.7675 38.1209 31.9406 37.9448 31.9406ZM38.0036 31.3632C38.1209 31.3632 38.1798 31.4209 38.1798 31.4786C38.1798 31.5363 38.1209 31.5942 38.0623 31.5942L38.1798 31.7675H38.0623L37.9448 31.6519H37.8861V31.7675H37.8275V31.3632H38.0036ZM37.8861 31.5942H38.0036C38.0331 31.5942 38.0477 31.5942 38.055 31.5869C38.0623 31.5796 38.0623 31.5651 38.0623 31.5363C38.0623 31.4786 38.0036 31.4786 38.0036 31.4786H37.8861V31.5942ZM13.4605 23.6239H16.2202V31.883H13.4605V28.9376H10.8184V31.883H8V23.6239H10.8184V26.5118H13.4605V23.6239Z" fill="black"/>
</svg>
