<svg width="48" height="48" viewBox="0 0 48 48" fill="none" xmlns="http://www.w3.org/2000/svg">
<rect x="1" y="1" width="46" height="46" rx="23" fill="white" stroke="#F8F8F8" stroke-width="2"/>
<path d="M29.5298 28.1513H29.1934V20.1458H18.9484V28.1513H18.6119V12.8765H18.9484V19.8096H29.1934V12.8765H29.5298V28.1513ZM30.3879 29.8018H32.9228V29.5003L32.7535 29.4981C32.7535 29.4981 32.3978 29.519 31.9807 29.256C31.429 28.9401 31.4548 28.1993 31.4548 28.1993V27.9243V27.9265V13.0434C31.4616 12.8638 31.5201 12.3085 31.9797 12.0455C32.3968 11.7842 32.7526 11.8035 32.7526 11.8035L32.9218 11.7992V11.5H25.8096V11.7992L25.9785 11.8035C25.9785 11.8035 26.3342 11.7829 26.7517 12.0455C27.2139 12.3101 27.2704 12.8719 27.2766 13.0473V13.3655V13.5203L27.2701 18.0075H20.8824L20.8759 13.5203V13.3655V13.0473C20.8821 12.8719 20.9386 12.3101 21.4012 12.0455C21.8183 11.7842 22.174 11.8035 22.174 11.8035L22.3432 11.7992V11.5H15.2308V11.7992L15.3996 11.8035C15.3996 11.8035 15.7557 11.7829 16.1728 12.0455C16.6301 12.3068 16.6906 12.8621 16.6977 13.0434V27.9269V27.9246V28.1996C16.6977 28.1996 16.7239 28.9405 16.1722 29.2563C15.755 29.5177 15.399 29.4984 15.399 29.4984L15.2301 29.5007V29.8022H22.3439V29.5007L22.1747 29.4984C22.1747 29.4984 21.819 29.5193 21.4018 29.2563C20.9736 29.0114 20.8936 28.5122 20.8792 28.2999L20.8766 21.9541H27.2766L27.2743 28.2999C27.2596 28.5122 27.1796 29.0114 26.7517 29.2563C26.3342 29.5177 25.9785 29.5007 25.9785 29.5007H25.8096V29.8022L30.3879 29.8018Z" fill="#FFC42C"/>
<path d="M13.2751 32.7128H14.0767V34.1501H15.5632V32.7128H16.3648V36.4291H15.5642V34.9161H14.0776V36.4291H13.2751V32.7128Z" fill="#010101"/>
<path d="M17.8704 32.7128V36.4291H17.0688V32.7128H17.8704Z" fill="#010101"/>
<path d="M19.1022 35.2189C19.2296 35.5374 19.4941 35.7497 19.8188 35.7497C20.0801 35.7497 20.2967 35.6171 20.2967 35.378C20.2967 35.1977 20.1749 35.0755 19.9093 34.9798L19.4631 34.8207C18.9218 34.6247 18.5766 34.2951 18.5766 33.7588C18.5766 33.0846 19.0917 32.6439 19.7924 32.6439C20.3447 32.6439 20.8278 32.9464 21.0558 33.4455L20.3924 33.8293C20.2807 33.5798 20.0844 33.3835 19.8084 33.3835C19.564 33.3835 19.3942 33.5161 19.3942 33.7127C19.3942 33.8878 19.5268 33.994 19.7551 34.0789L20.2382 34.2648C20.8331 34.4879 21.1202 34.8276 21.1202 35.3264C21.1202 36.0698 20.4996 36.5 19.8087 36.5C19.193 36.5 18.6514 36.176 18.4178 35.5854L19.1022 35.2189Z" fill="#010101"/>
<path d="M21.4364 32.7128H24.1972V33.456H23.2202V36.4285H22.4186V33.456H21.4364V32.7128Z" fill="#010101"/>
<path d="M26.3244 36.4984C25.2464 36.4984 24.3811 35.6435 24.3811 34.5712C24.3811 33.4988 25.2464 32.6439 26.3244 32.6439C27.4023 32.6439 28.2673 33.4984 28.2673 34.5712C28.2673 35.6439 27.402 36.4984 26.3244 36.4984ZM26.3244 33.4191C25.6926 33.4191 25.1987 33.9286 25.1987 34.5712C25.1987 35.2137 25.6926 35.7239 26.3244 35.7239C26.9561 35.7239 27.4497 35.2143 27.4497 34.5721C27.4497 33.9299 26.9561 33.4191 26.3244 33.4191Z" fill="#010101"/>
<path d="M29.5863 36.4291H28.7952V32.7128H30.0322C30.8338 32.7128 31.3914 33.143 31.3914 33.9022C31.3914 34.433 31.0729 34.8047 30.627 34.9746L31.6514 36.4291H30.7119L29.7973 35.0703H29.585L29.5863 36.4291ZM29.5863 34.4117H30.0374C30.3559 34.4117 30.5894 34.2259 30.5894 33.9182C30.5894 33.6049 30.3559 33.4282 30.0374 33.4282H29.5863V34.4117Z" fill="#010101"/>
<path d="M33.6639 36.4291H32.8619V34.8152L31.5348 32.7128H32.4494L33.2722 34.072L34.095 32.7128H34.9924L33.6652 34.8152L33.6639 36.4291Z" fill="#010101"/>
<path d="M34.9917 31.425H13.15V31.0889H34.9917V31.425Z" fill="#EE2726"/>
</svg>
