<svg width="48" height="48" viewBox="0 0 48 48" fill="none" xmlns="http://www.w3.org/2000/svg">
<rect x="1" y="1" width="46" height="46" rx="23" fill="white" stroke="#F8F8F8" stroke-width="2"/>
<path d="M26.7017 26.5568H26.3974V19.5582H17.1325V26.5568H16.8283V13.2034H17.1325V19.2644H26.3974V13.2034H26.7017V26.5568ZM27.4777 27.9997H29.77V27.7361L29.617 27.7341C29.617 27.7341 29.2953 27.7524 28.9181 27.5225C28.4191 27.2464 28.4425 26.5988 28.4425 26.5988V26.3583V26.3603V13.3493C28.4487 13.1922 28.5015 12.7068 28.9172 12.4769C29.2944 12.2484 29.6161 12.2653 29.6161 12.2653L29.7691 12.2616V12H23.3374V12.2616L23.4901 12.2653C23.4901 12.2653 23.8118 12.2473 24.1893 12.4769C24.6073 12.7082 24.6584 13.1994 24.664 13.3527V13.6308V13.7662L24.6581 17.689H18.8816L18.8757 13.7662V13.6308V13.3527C18.8813 13.1994 18.9324 12.7082 19.3507 12.4769C19.7279 12.2484 20.0496 12.2653 20.0496 12.2653L20.2026 12.2616V12H13.7706V12.2616L13.9233 12.2653C13.9233 12.2653 14.2453 12.2473 14.6225 12.4769C15.0361 12.7053 15.0907 13.1908 15.0972 13.3493V26.3606V26.3586V26.599C15.0972 26.599 15.1208 27.2467 14.6219 27.5228C14.2447 27.7513 13.9227 27.7344 13.9227 27.7344L13.77 27.7364V28H20.2032V27.7364L20.0502 27.7344C20.0502 27.7344 19.7285 27.7527 19.3513 27.5228C18.964 27.3087 18.8916 26.8723 18.8786 26.6867L18.8763 21.1391H24.664L24.6619 26.6867C24.6487 26.8723 24.5763 27.3087 24.1893 27.5228C23.8118 27.7513 23.4901 27.7364 23.4901 27.7364H23.3374V28L27.4777 27.9997Z" fill="#FFC42C"/>
<path fill-rule="evenodd" clip-rule="evenodd" d="M29.4103 12.4066C30.4294 12.4066 33.9154 12.7855 33.9849 16.4709C33.9849 20.7162 28.958 24.2464 28.4073 24.6331C28.3766 24.6547 28.3598 24.6665 28.3586 24.6681V21.8669C31.2076 18.0208 30.2904 15.2195 27.4415 14.8291C24.604 14.4387 23.608 17.0334 23.608 17.0334H22.9942C23.8513 12.4181 28.3795 12.4066 29.4103 12.4066ZM28.3586 24.6683C28.3585 24.6683 28.3585 24.6682 28.3586 24.6681V24.6683ZM34.7699 23.9019V28.5H21.4242L24.1191 26.0851H28.2084H32.3679L34.3716 23.9019H34.7699Z" fill="#E3262E"/>
<path d="M11.77 31.7583H12.6678V33.3681H14.3327V31.7583H15.2305V35.9206H14.3338V34.226H12.6689V35.9206H11.77V31.7583Z" fill="#010101"/>
<path d="M16.9167 31.7583V35.9206H16.0189V31.7583H16.9167Z" fill="#010101"/>
<path d="M18.2963 34.5651C18.439 34.9218 18.7353 35.1596 19.099 35.1596C19.3917 35.1596 19.6342 35.0111 19.6342 34.7433C19.6342 34.5413 19.4978 34.4045 19.2003 34.2973L18.7006 34.1192C18.0944 33.8996 17.7077 33.5305 17.7077 32.9298C17.7077 32.1747 18.2846 31.6812 19.0694 31.6812C19.688 31.6812 20.2291 32.0199 20.4845 32.5789L19.7414 33.0088C19.6163 32.7293 19.3964 32.5094 19.0873 32.5094C18.8136 32.5094 18.6234 32.658 18.6234 32.8782C18.6234 33.0743 18.7719 33.1932 19.0277 33.2883L19.5687 33.4965C20.235 33.7464 20.5565 34.1268 20.5565 34.6855C20.5565 35.5182 19.8614 36 19.0877 36C18.398 36 17.7915 35.6371 17.5299 34.9756L18.2963 34.5651Z" fill="#010101"/>
<path d="M20.9107 31.7583H24.0028V32.5906H22.9086V35.9198H22.0108V32.5906H20.9107V31.7583Z" fill="#010101"/>
<path d="M26.3852 35.9981C25.1779 35.9981 24.2088 35.0407 24.2088 33.8396C24.2088 32.6386 25.1779 31.6812 26.3852 31.6812C27.5925 31.6812 28.5613 32.6382 28.5613 33.8396C28.5613 35.0411 27.5921 35.9981 26.3852 35.9981ZM26.3852 32.5493C25.6777 32.5493 25.1245 33.12 25.1245 33.8396C25.1245 34.5593 25.6777 35.1307 26.3852 35.1307C27.0927 35.1307 27.6455 34.56 27.6455 33.8407C27.6455 33.1215 27.0927 32.5493 26.3852 32.5493Z" fill="#010101"/>
<path d="M30.0385 35.9206H29.1525V31.7583H30.5379C31.4357 31.7583 32.0602 32.2402 32.0602 33.0904C32.0602 33.6849 31.7035 34.1012 31.2041 34.2915L32.3514 35.9206H31.2993L30.2749 34.3987H30.0371L30.0385 35.9206ZM30.0385 33.6611H30.5438C30.9005 33.6611 31.1621 33.4529 31.1621 33.1083C31.1621 32.7575 30.9005 32.5595 30.5438 32.5595H30.0385V33.6611Z" fill="#010101"/>
<path d="M34.6054 35.9206H33.7073V34.1129L32.2208 31.7583H33.2452L34.1668 33.2806L35.0883 31.7583H36.0933L34.6069 34.1129L34.6054 35.9206Z" fill="#010101"/>
<path d="M36.2327 30.316H11.77V29.9396H36.2327V30.316Z" fill="#EE2726"/>
</svg>
