<svg width="48" height="48" viewBox="0 0 48 48" fill="none" xmlns="http://www.w3.org/2000/svg">
<rect x="1" y="1" width="46" height="46" rx="23" fill="white" stroke="#F8F8F8" stroke-width="2"/>
<path fill-rule="evenodd" clip-rule="evenodd" d="M20.1809 15.8554C20.1809 15.3701 19.8084 15.0001 19.2684 15.0001H18.6292V15.2936C18.6741 15.3133 18.7175 15.3371 18.7579 15.3654C18.8227 15.4102 18.881 15.4654 18.9307 15.5267V15.2748H19.2684C19.6289 15.2748 19.8647 15.5221 19.8647 15.8604C19.8647 16.199 19.6289 16.4416 19.2684 16.4416H19.003C18.9402 16.5521 18.8526 16.6459 18.7469 16.7159H19.2684C19.8084 16.7159 20.1809 16.341 20.1809 15.8554ZM26.0882 16.357C26.0538 16.2748 26.037 16.183 26.037 16.0838V16.079C26.037 15.9856 26.0524 15.8978 26.0833 15.8161C26.1147 15.7339 26.1579 15.6628 26.2152 15.6018C26.2713 15.5402 26.3376 15.4919 26.4144 15.4571C26.4912 15.4222 26.5767 15.4042 26.6698 15.4042C26.7732 15.4042 26.8632 15.4225 26.9404 15.4608C27.0181 15.4981 27.0829 15.5487 27.1342 15.6127C27.1858 15.6762 27.2249 15.7504 27.251 15.8344C27.277 15.9188 27.2902 16.0078 27.2902 16.1007C27.2902 16.1136 27.2898 16.1271 27.289 16.141C27.2883 16.1518 27.2873 16.1622 27.2863 16.1728L27.2852 16.1839H26.3333C26.3499 16.2904 26.3922 16.3713 26.4598 16.4287C26.5281 16.4847 26.6098 16.5127 26.7064 16.5127C26.7806 16.5127 26.8435 16.4996 26.8979 16.4736C26.9515 16.4474 27.0044 16.4087 27.0569 16.3584L27.2318 16.5127C27.1695 16.5861 27.0949 16.6454 27.0095 16.6891C26.9238 16.7333 26.8206 16.7559 26.7016 16.7559C26.6084 16.7559 26.521 16.7391 26.4398 16.707C26.3593 16.6741 26.2886 16.6278 26.2289 16.5687C26.1696 16.5104 26.1222 16.4394 26.0882 16.357ZM28.8782 16.7254C28.8782 16.7254 28.7815 16.9885 28.6938 17.0514C28.6255 17.0862 28.4682 17.0834 28.4082 17.0793V17.3225L28.4475 17.3225C28.5649 17.3227 28.7673 17.323 28.837 17.2782C28.9366 17.2154 28.9586 17.1884 29.027 17.0513C29.1002 16.901 29.6681 15.4311 29.6681 15.4311H29.3589L29.027 16.3805L28.717 15.4311H28.4006L28.8818 16.7173L28.8782 16.7254ZM31.5364 32.6278C34.5816 31.5344 35.9999 28.9479 35.9999 25.991C35.9999 22.0705 33.5067 18.7999 28.033 18.7999H19.5981V29.8951L31.5364 32.6278ZM27.4895 22.7358C29.4267 22.7358 30.1236 24.3554 30.1573 25.991C30.1236 27.6265 29.4267 29.2462 27.4895 29.2462H25.1686V22.7358H27.4895ZM11.9999 18.7999H17.5706V29.4313L11.9999 28.1561V18.7999ZM27.8406 16.0078C27.8169 16.0702 27.8087 16.1462 27.8087 16.2334V16.7264H27.5121V15.4311H27.8087V15.645C27.9207 15.5064 28.1022 15.4562 28.2066 15.4382L28.3081 15.6859C28.1792 15.7051 27.9301 15.7718 27.8406 16.0078ZM26.9956 15.9567H26.3309C26.3439 15.8554 26.3806 15.8047 26.4398 15.7413C26.5004 15.6781 26.5756 15.6473 26.667 15.6473C26.7158 15.6473 26.7598 15.6556 26.7987 15.6727C26.8364 15.6898 26.8699 15.7142 26.8979 15.745C26.9253 15.7753 26.9473 15.8128 26.9641 15.8542C26.9678 15.8634 26.9711 15.8712 26.9742 15.8783C26.9849 15.9034 26.9918 15.9195 26.9956 15.9567ZM25.4781 16.7359L26.0084 15.4311H25.6964L25.3458 16.383L24.9976 15.4311H24.6782L25.2113 16.7359H25.4781ZM23.2856 16.0859C23.2856 16.1776 23.3027 16.2642 23.3369 16.3464C23.3715 16.4282 23.4195 16.4988 23.4806 16.5593C23.5418 16.6201 23.6146 16.6678 23.699 16.7027C23.7829 16.7379 23.8744 16.7559 23.9722 16.7559C24.0721 16.7559 24.165 16.7376 24.2498 16.7019C24.3342 16.6656 24.4076 16.6168 24.4693 16.5556C24.5301 16.4945 24.5787 16.4228 24.6136 16.341C24.649 16.2591 24.6667 16.1728 24.6667 16.081V16.0759C24.6667 15.9828 24.6499 15.8959 24.6147 15.8147C24.581 15.7339 24.5335 15.6628 24.4715 15.6018C24.4104 15.5402 24.3373 15.4919 24.2536 15.4571C24.1695 15.4222 24.0772 15.4042 23.9772 15.4042C23.8776 15.4042 23.7856 15.4222 23.7016 15.4578C23.6173 15.4942 23.5446 15.5424 23.4836 15.6039C23.4221 15.6658 23.3736 15.7371 23.3379 15.8184C23.3032 15.9001 23.2856 15.9878 23.2856 16.081V16.0859ZM23.5824 16.081C23.5824 16.137 23.5924 16.1901 23.6119 16.2407C23.6312 16.2916 23.6589 16.3358 23.6942 16.3742C23.729 16.4128 23.7707 16.443 23.8187 16.465C23.8673 16.4868 23.9202 16.4984 23.9772 16.4984C24.0373 16.4984 24.0919 16.4868 24.1406 16.465C24.1887 16.443 24.2299 16.4128 24.2644 16.3751C24.2987 16.3381 24.3244 16.2939 24.3427 16.2439C24.3607 16.1942 24.3696 16.1418 24.3696 16.0859V16.081C24.3696 16.0239 24.3595 15.9699 24.3402 15.9191C24.3207 15.8684 24.2927 15.8242 24.2586 15.7873C24.2229 15.7488 24.1812 15.7194 24.1333 15.6968C24.0852 15.6747 24.0313 15.6644 23.9722 15.6644C23.9133 15.6644 23.8601 15.6747 23.8116 15.6968C23.7635 15.7194 23.7221 15.7488 23.6879 15.7858C23.6538 15.8227 23.6272 15.8658 23.6093 15.9151C23.5912 15.9656 23.5824 16.019 23.5824 16.0759V16.081ZM23.2146 16.5124C23.0875 16.6544 22.9372 16.7547 22.685 16.7547C22.2996 16.7547 22.0156 16.4533 22.0156 16.0834C22.0156 15.7125 22.2996 15.4042 22.6875 15.4042C22.9321 15.4042 23.0844 15.495 23.2049 15.6264L23.0206 15.8256C22.9295 15.7296 22.8341 15.6634 22.685 15.6634C22.4686 15.6634 22.3121 15.8499 22.3121 16.0781C22.3121 16.311 22.4712 16.4971 22.6995 16.4971C22.8395 16.4971 22.9422 16.4314 23.0355 16.3358L23.2146 16.5124ZM21.5566 16.477C21.5218 16.5021 21.4722 16.5154 21.4084 16.5154C21.3412 16.5154 21.2713 16.5019 21.1989 16.4745C21.1255 16.4474 21.0546 16.4079 20.9841 16.3558L20.8518 16.5571C20.9333 16.6208 21.0222 16.669 21.1181 16.7019C21.2133 16.7341 21.3076 16.7505 21.4012 16.7505C21.4675 16.7505 21.5312 16.7419 21.5902 16.7254C21.6492 16.7073 21.6998 16.6818 21.7439 16.6488C21.7866 16.6153 21.8202 16.5733 21.845 16.5225C21.8699 16.4718 21.8821 16.4118 21.8821 16.3436V16.3387C21.8821 16.2794 21.8699 16.2296 21.845 16.189C21.8202 16.1478 21.789 16.1131 21.7504 16.0848C21.7122 16.0562 21.6696 16.0319 21.6219 16.0122C21.5746 15.9922 21.5272 15.9754 21.4795 15.9608L21.3704 15.9239C21.3349 15.9125 21.3041 15.8996 21.2775 15.8859C21.2502 15.8725 21.2281 15.857 21.2124 15.839C21.1962 15.8227 21.1882 15.8024 21.1882 15.7793V15.7747C21.1882 15.7371 21.2038 15.7058 21.2356 15.6808C21.2675 15.6565 21.3116 15.6447 21.3699 15.6447C21.4232 15.6447 21.4816 15.6556 21.5459 15.6771C21.6096 15.6993 21.6722 15.7296 21.7344 15.7673L21.8522 15.5559C21.7835 15.5107 21.7082 15.4741 21.6246 15.4485C21.5412 15.4222 21.4582 15.4087 21.3761 15.4087C21.3129 15.4087 21.253 15.4182 21.1962 15.4361C21.1395 15.4539 21.0909 15.4802 21.0492 15.5145C21.0073 15.5487 20.9742 15.5899 20.9512 15.6382C20.9272 15.6865 20.9155 15.7422 20.9155 15.8038V15.8085C20.9155 15.8708 20.9275 15.9233 20.9522 15.9658C20.9772 16.0085 21.0081 16.0441 21.0467 16.0725C21.0853 16.1008 21.1282 16.1245 21.1767 16.1422C21.2252 16.1604 21.2724 16.1761 21.3199 16.189C21.3419 16.1958 21.3636 16.2023 21.385 16.2087L21.3851 16.2087L21.3851 16.2087L21.3852 16.2087L21.4295 16.2221C21.4649 16.233 21.4953 16.245 21.5222 16.2588C21.5498 16.2727 21.5704 16.2888 21.5864 16.3065C21.6022 16.3247 21.6096 16.3464 21.6096 16.3707V16.3751C21.6096 16.4178 21.5924 16.4518 21.5566 16.477ZM20.6493 16.7265H20.3527V15.4311H20.6493V16.7265ZM18.2955 15.3587C18.6741 15.3587 18.9806 15.6659 18.9806 16.0438C18.9806 16.4216 18.6741 16.7281 18.2955 16.7281C17.9176 16.7281 17.6109 16.4216 17.6109 16.0438C17.6109 15.6659 17.9176 15.3587 18.2955 15.3587Z" fill="black"/>
</svg>
