<svg width="677" height="120" viewBox="0 0 677 120" fill="none" xmlns="http://www.w3.org/2000/svg">
<path fill-rule="evenodd" clip-rule="evenodd" d="M110.28 0.129347H41.5631C38.968 0.129347 37.5823 1.38449 36.9868 2.55475C36.1615 4.15855 36.7301 5.82147 36.7301 5.82147L69.9452 82.1081C73.166 89.8663 73.4076 96.036 70.6296 100.532C67.9456 105.027 64.0453 107.67 59.2644 108.728C54.4868 109.743 49.7025 108.906 44.7303 106.658C39.951 104.188 37.1395 99.2906 36.2923 93.9638C35.5626 89.3752 36.7805 83.7376 42.2442 77.9652C47.7079 72.2336 50.875 65.8381 51.5092 58.665C52.0007 54.9602 50.875 51.4797 48.1457 48.3934C45.4113 45.5284 41.9993 43.2803 37.9027 42.0479C33.6719 40.7409 29.1542 40.3769 24.7341 40.9868C19.9549 41.6038 15.8584 43.676 12.2047 46.9806C6.98256 51.9178 3.37252 58.6635 1.27393 67.4753C-0.72568 76.3326 -0.286168 85.1883 2.88604 93.9622C4.93094 99.5103 9.5173 104.801 16.7894 109.956C23.8568 114.85 31.5147 117.358 39.9527 117.358H109.503C114.742 117.358 114.23 112.73 114.23 112.73C114.23 112.73 114.279 6.78254 114.23 4.00848C114.23 -0.251139 110.28 0.129347 110.28 0.129347Z" fill="#C52127"/>
<path fill-rule="evenodd" clip-rule="evenodd" d="M131.037 117.351H199.755C202.351 117.351 203.735 116.098 204.33 114.934C205.152 113.328 204.582 111.665 204.582 111.665L171.367 35.3788C168.149 27.6206 167.903 21.4524 170.684 16.9564C173.368 12.4618 177.27 9.81657 182.047 8.76C186.827 7.74588 191.609 8.58264 196.58 10.8292C201.361 13.2985 204.171 18.1963 205.016 23.5231C205.749 28.1102 204.53 33.7462 199.069 39.5202C193.606 45.2533 190.437 51.6472 189.799 58.8264C189.313 62.5252 190.437 66.0102 193.17 69.0935C195.899 71.96 199.311 74.208 203.402 75.4389C207.632 76.7452 212.149 77.1092 216.568 76.5001C221.349 75.8831 225.445 73.8109 229.104 70.5048C234.323 65.5691 237.931 58.8325 240.026 50.0101C242.029 41.1543 241.586 32.294 238.419 23.5247C236.371 17.972 231.785 12.6831 224.519 7.52759C217.453 2.63433 209.802 0.122523 201.364 0.122523H131.816C126.575 0.122523 127.083 4.75353 127.083 4.75353C127.083 4.75353 127.038 110.698 127.083 113.475C127.155 117.354 131.037 117.351 131.037 117.351Z" fill="#C52127"/>
<path d="M269.622 0V84.9605C269.622 104.312 286.983 120 308.398 120H676.427V0H269.622ZM380.57 84.9074C380.568 87.1066 379.6 89.215 377.879 90.7701C376.158 92.3252 373.825 93.1999 371.391 93.2023H370.394C369.147 93.1995 367.913 92.9681 366.767 92.522C365.621 92.076 364.587 91.4245 363.728 90.6071L321.394 50.1619V93.2023H303.713V33.2463C303.715 31.0471 304.683 28.9386 306.404 27.3835C308.125 25.8285 310.458 24.9538 312.892 24.9514H313.885C315.133 24.9531 316.368 25.1838 317.514 25.6297C318.66 26.0755 319.694 26.7272 320.553 27.545L362.891 67.9917L362.913 24.9514H380.564L380.57 84.9074ZM463.395 39.7342H413.891V51.6915L462.637 51.6809L462.6 66.4683H413.891V78.4301H463.396V93.2068H405.391C402.957 93.204 400.624 92.3292 398.904 90.7742C397.183 89.2192 396.215 87.111 396.212 84.912V24.9514H463.396L463.395 39.7342ZM553.129 87.7633C552.479 89.3577 551.304 90.734 549.763 91.7077C548.222 92.6813 546.389 93.2055 544.508 93.2099H542.97C541.033 93.2126 539.145 92.6598 537.577 91.6313C536.01 90.6027 534.844 89.1513 534.247 87.4859L524.586 60.717L514.521 87.5738C513.905 89.2139 512.737 90.6386 511.18 91.648C509.622 92.6575 507.754 93.201 505.838 93.2023H504.39C502.507 93.199 500.671 92.674 499.128 91.6983C497.585 90.7225 496.411 89.3428 495.763 87.7451L470.516 24.9514H489.423L489.633 25.5319L505.234 68.3965L515.48 37.7757C516.04 36.0751 517.192 34.583 518.765 33.521C520.338 32.459 522.248 31.8837 524.212 31.8804H524.264C526.214 31.871 528.117 32.4247 529.694 33.4609C531.272 34.4971 532.442 35.9615 533.034 37.6408L543.965 68.4768L559.624 24.9453H578.55L553.129 87.7633ZM626.754 93.2099H582.935V78.4255H625.613C629.695 78.4255 632.231 76.135 632.231 72.4454C632.231 68.7557 629.695 66.4637 625.613 66.4637H604.753C591.442 66.4637 581.781 57.7353 581.781 45.7083C581.781 34.0694 591.873 24.9514 604.753 24.9514H643.84V39.7388L640.59 39.7266H605.889C601.809 39.7266 599.274 42.0202 599.274 45.7083C599.274 49.3964 601.809 51.6915 605.889 51.6915H626.754C640.063 51.6915 649.724 60.4214 649.724 72.4499C649.724 82.6487 641.132 93.2023 626.754 93.2023V93.2099Z" fill="#C52127"/>
</svg>
