<svg width="242" height="120" viewBox="0 0 242 120" fill="none" xmlns="http://www.w3.org/2000/svg">
<g clip-path="url(#clip0_2505_10469)">
<path d="M23.8683 0V62.3661C23.8683 64.4136 25.5337 66.0693 27.5714 66.0693H57.089V89.4541H27.5714C12.6216 89.4541 0.473633 77.3159 0.473633 62.3563V0H23.8585H23.8683Z" fill="#FF6100"/>
<path d="M90.1529 0H66.7681V56.3803H90.1529V0Z" fill="#FF6100"/>
<path d="M204.588 89.5815C189.639 89.5815 177.5 77.4433 177.5 62.4837V27.088C177.5 12.1382 189.639 0 204.588 0H241.013V23.3848H204.588C202.541 23.3848 200.885 25.0405 200.885 27.088V33.0934H241.013V56.4783H200.885V62.4837C200.885 64.5312 202.551 66.1868 204.588 66.1868H241.013V89.5717H204.588V89.5815Z" fill="#FF6100"/>
<path d="M99.8418 0H123.227V89.4541H99.8418V0ZM139.989 29.9095L149.315 0H173.729L162.864 35.1409C161.591 39.1086 159.671 42.175 155.967 44.0854C159.671 46.1329 161.718 49.1993 162.864 53.1572L173.984 89.4541H149.57L139.989 58.3984C135.874 46.6129 127.243 48.1412 127.243 44.2911C127.243 40.441 136.021 41.4207 139.989 29.8997" fill="#FF6100"/>
<path d="M90.1725 66.0596H66.7681V89.464H90.1725V66.0596Z" fill="#FF6100"/>
<path d="M7.54708 113.73L6.99846 111.624C6.99846 111.624 6.95928 111.565 6.91029 111.565H2.89362C2.83484 111.565 2.80545 111.585 2.80545 111.624L2.27643 113.73C2.26663 113.838 2.19806 113.897 2.08049 113.897H0.659964C0.601184 113.897 0.5522 113.877 0.52281 113.838C0.49342 113.799 0.483623 113.75 0.49342 113.691L3.85371 101.347C3.8733 101.239 3.94188 101.181 4.04964 101.181H5.75428C5.86204 101.181 5.93062 101.239 5.95021 101.347L9.33009 113.691L9.34968 113.75C9.34968 113.848 9.2909 113.897 9.16354 113.897H7.73322C7.62545 113.897 7.55688 113.838 7.53728 113.73H7.54708ZM3.19732 110.164C3.19732 110.164 3.23651 110.194 3.2561 110.194H6.53801C6.53801 110.194 6.587 110.194 6.60659 110.164C6.62619 110.145 6.62619 110.135 6.60659 110.115L4.92155 103.542C4.92155 103.542 4.90196 103.502 4.88236 103.502C4.86277 103.502 4.85297 103.512 4.84318 103.542L3.16793 110.115C3.16793 110.115 3.16793 110.145 3.16793 110.164H3.19732Z" fill="#1B1C20"/>
<path d="M20.6351 104.649H22.0164C22.134 104.649 22.2025 104.708 22.2025 104.835V113.535C22.2025 116.219 20.7624 117.561 17.8822 117.561C17.6275 117.561 17.4315 117.561 17.3042 117.541C17.1866 117.532 17.118 117.463 17.118 117.345L17.1572 116.131C17.1572 116.072 17.1768 116.023 17.216 115.994C17.2552 115.964 17.2944 115.954 17.3434 115.964C18.4798 116.013 19.2831 115.837 19.7632 115.435C20.2334 115.033 20.4685 114.357 20.4685 113.397V113.054C20.4685 113.054 20.4685 113.015 20.4391 112.996C20.4195 112.986 20.3999 112.996 20.3803 113.015C19.9101 113.593 19.2439 113.887 18.4014 113.887C17.6177 113.887 16.9515 113.652 16.4127 113.192C15.8738 112.731 15.5408 112.075 15.4232 111.242C15.3546 110.85 15.3154 110.194 15.3154 109.263C15.3154 108.254 15.3546 107.559 15.4428 107.157C15.5506 106.344 15.864 105.697 16.3735 105.227C16.8829 104.747 17.5393 104.512 18.323 104.512C19.1949 104.512 19.8807 104.796 20.3706 105.364C20.3901 105.384 20.4195 105.393 20.4293 105.384C20.4489 105.374 20.4587 105.354 20.4587 105.325V104.835C20.4587 104.717 20.5175 104.649 20.6449 104.649H20.6351ZM20.4587 109.244C20.4587 108.568 20.4391 107.99 20.3999 107.519C20.351 107.088 20.1844 106.726 19.8905 106.442C19.5966 106.158 19.2341 106.011 18.7835 106.011C18.3328 106.011 17.9801 106.158 17.6862 106.442C17.3923 106.726 17.2062 107.088 17.1474 107.519C17.0788 107.99 17.0397 108.568 17.0397 109.244C17.0397 109.871 17.069 110.429 17.1278 110.919C17.1866 111.369 17.3727 111.732 17.6764 112.006C17.9801 112.281 18.3524 112.427 18.8031 112.427C19.2537 112.427 19.6162 112.29 19.9101 112.006C20.204 111.732 20.3706 111.369 20.4195 110.938C20.4391 110.311 20.4587 109.743 20.4587 109.253V109.244Z" fill="#1B1C20"/>
<path d="M29.2368 112.232C29.5209 112.036 29.7364 111.761 29.8834 111.409C29.9226 111.301 29.9911 111.262 30.0989 111.281L31.3333 111.556C31.4509 111.595 31.4998 111.663 31.4607 111.771C31.2353 112.486 30.8337 113.045 30.2655 113.437C29.6972 113.838 29.0017 114.034 28.1787 114.034C27.2383 114.034 26.4741 113.799 25.8863 113.329C25.3083 112.859 24.936 112.212 24.7793 111.389C24.7205 111.046 24.6813 110.693 24.6617 110.311C24.6421 109.929 24.6323 109.42 24.6323 108.793C24.6323 108.166 24.6617 107.686 24.7205 107.323C24.8283 106.481 25.1907 105.795 25.7883 105.276C26.3957 104.766 27.1599 104.502 28.0808 104.502C29.0898 104.502 29.8932 104.786 30.5104 105.354C31.1276 105.922 31.4705 106.677 31.5488 107.608C31.588 108.019 31.6076 108.773 31.6076 109.88C31.6076 109.998 31.5488 110.067 31.4215 110.067H26.4447C26.4447 110.067 26.3761 110.096 26.3761 110.135C26.3761 110.478 26.3957 110.772 26.4349 111.027C26.4937 111.477 26.6798 111.84 26.9933 112.114C27.3068 112.388 27.7085 112.535 28.1885 112.535C28.6 112.535 28.9527 112.437 29.2368 112.232ZM26.964 106.432C26.67 106.706 26.4839 107.078 26.4251 107.519C26.3859 107.843 26.3663 108.205 26.3663 108.587C26.3663 108.636 26.3859 108.656 26.4349 108.656H29.7756C29.7756 108.656 29.8442 108.636 29.8442 108.587C29.8148 108.107 29.7952 107.754 29.7756 107.539C29.7168 107.088 29.5307 106.726 29.227 106.442C28.9233 106.158 28.5412 106.011 28.0808 106.011C27.6203 106.011 27.2383 106.148 26.9444 106.432H26.964Z" fill="#1B1C20"/>
<path d="M39.9839 105.344C40.4737 105.893 40.7186 106.638 40.7186 107.598V113.721C40.7186 113.838 40.6598 113.907 40.5325 113.907H39.1511C39.0336 113.907 38.965 113.848 38.965 113.721V107.852C38.965 107.294 38.818 106.853 38.5339 106.53C38.2498 106.207 37.8678 106.04 37.3779 106.04C36.8881 106.04 36.4864 106.207 36.1925 106.54C35.8986 106.873 35.7517 107.314 35.7517 107.872V113.721C35.7517 113.838 35.6929 113.907 35.5655 113.907H34.1842C34.0666 113.907 33.998 113.848 33.998 113.721V104.845C33.998 104.727 34.0568 104.659 34.1842 104.659H35.5655C35.6831 104.659 35.7517 104.717 35.7517 104.845V105.403C35.7517 105.403 35.7517 105.462 35.7811 105.462C35.8104 105.462 35.8202 105.462 35.8398 105.413C36.3101 104.815 37.0057 104.521 37.907 104.521C38.8083 104.521 39.4744 104.796 39.9643 105.335L39.9839 105.344Z" fill="#1B1C20"/>
<path d="M47.2922 105.991H45.6757C45.6757 105.991 45.6072 106.011 45.6072 106.06V111.036C45.6072 111.536 45.7051 111.879 45.9109 112.085C46.1166 112.29 46.4203 112.388 46.8416 112.388H47.1844C47.302 112.388 47.3706 112.447 47.3706 112.575V113.721C47.3706 113.838 47.3118 113.907 47.1844 113.907L46.4791 113.927C45.6366 113.927 44.99 113.77 44.5589 113.446C44.1279 113.123 43.9123 112.526 43.9123 111.654V106.079C43.9123 106.079 43.8927 106.011 43.8438 106.011H42.9523C42.8347 106.011 42.7661 105.952 42.7661 105.825V104.845C42.7661 104.727 42.8249 104.659 42.9523 104.659H43.8438C43.8438 104.659 43.9123 104.639 43.9123 104.59V102.504C43.9123 102.386 43.9711 102.317 44.0985 102.317H45.421C45.5386 102.317 45.6072 102.376 45.6072 102.504V104.59C45.6072 104.59 45.6268 104.659 45.6757 104.659H47.2922C47.4098 104.659 47.4784 104.718 47.4784 104.845V105.825C47.4784 105.942 47.4196 106.011 47.2922 106.011V105.991Z" fill="#1B1C20"/>
<path d="M54.062 112.232C54.3461 112.036 54.5616 111.761 54.7086 111.409C54.7478 111.301 54.8163 111.262 54.9241 111.281L56.1585 111.556C56.2761 111.595 56.325 111.663 56.2859 111.771C56.0605 112.486 55.6589 113.045 55.0906 113.437C54.5224 113.838 53.8269 114.034 53.0039 114.034C52.0635 114.034 51.2993 113.799 50.7115 113.329C50.1335 112.859 49.7612 112.212 49.6045 111.389C49.5457 111.046 49.5065 110.693 49.4869 110.311C49.4673 109.929 49.4575 109.42 49.4575 108.793C49.4575 108.166 49.4869 107.686 49.5457 107.323C49.6535 106.481 50.0159 105.795 50.6135 105.276C51.2209 104.766 51.9851 104.502 52.906 104.502C53.915 104.502 54.7184 104.786 55.3356 105.354C55.9528 105.922 56.2956 106.677 56.374 107.608C56.4132 108.019 56.4328 108.773 56.4328 109.88C56.4328 109.998 56.374 110.067 56.2467 110.067H51.2699C51.2699 110.067 51.2013 110.096 51.2013 110.135C51.2013 110.478 51.2209 110.772 51.2601 111.027C51.3189 111.477 51.505 111.84 51.8185 112.114C52.132 112.388 52.5337 112.535 53.0137 112.535C53.4252 112.535 53.7779 112.437 54.062 112.232ZM51.7891 106.432C51.4952 106.706 51.3091 107.078 51.2503 107.519C51.2111 107.843 51.1915 108.205 51.1915 108.587C51.1915 108.636 51.2111 108.656 51.2601 108.656H54.6008C54.6008 108.656 54.6694 108.636 54.6694 108.587C54.64 108.107 54.6204 107.754 54.6008 107.539C54.542 107.088 54.3559 106.726 54.0522 106.442C53.7485 106.158 53.3664 106.011 52.906 106.011C52.4455 106.011 52.0635 106.148 51.7695 106.432H51.7891Z" fill="#1B1C20"/>
<path d="M67.7577 104.776C67.8459 104.815 67.8753 104.884 67.8459 104.992L67.5716 106.373C67.5618 106.49 67.4834 106.53 67.3561 106.481C67.1699 106.422 66.974 106.393 66.7585 106.393C66.6017 106.393 66.4842 106.393 66.4156 106.412C65.9453 106.451 65.5535 106.667 65.24 107.059C64.9265 107.451 64.7697 107.921 64.7697 108.469V113.72C64.7697 113.838 64.7109 113.907 64.5836 113.907H63.2022C63.0847 113.907 63.0161 113.848 63.0161 113.72V104.845C63.0161 104.727 63.0749 104.658 63.2022 104.658H64.5836C64.7012 104.658 64.7697 104.717 64.7697 104.845V106.01C64.7697 106.01 64.7697 106.069 64.7991 106.069C64.8285 106.069 64.8285 106.069 64.8481 106.04C65.2792 105.06 65.9453 104.57 66.8466 104.57C67.2091 104.57 67.5226 104.639 67.7773 104.786L67.7577 104.776Z" fill="#1B1C20"/>
<path d="M73.998 112.232C74.2821 112.036 74.4977 111.761 74.6446 111.409C74.6838 111.301 74.7524 111.262 74.8601 111.281L76.0945 111.556C76.2121 111.595 76.2611 111.663 76.2219 111.771C75.9966 112.486 75.5949 113.045 75.0267 113.437C74.4585 113.838 73.7629 114.034 72.94 114.034C71.9995 114.034 71.2353 113.799 70.6475 113.329C70.0695 112.859 69.6973 112.212 69.5405 111.389C69.4817 111.046 69.4425 110.693 69.423 110.311C69.4034 109.929 69.3936 109.42 69.3936 108.793C69.3936 108.166 69.4229 107.686 69.4817 107.323C69.5895 106.481 69.952 105.795 70.5496 105.276C71.157 104.766 71.9211 104.502 72.842 104.502C73.8511 104.502 74.6544 104.786 75.2716 105.354C75.8888 105.922 76.2317 106.677 76.3101 107.608C76.3493 108.019 76.3688 108.773 76.3688 109.88C76.3688 109.998 76.3101 110.067 76.1827 110.067H71.206C71.206 110.067 71.1374 110.096 71.1374 110.135C71.1374 110.478 71.157 110.772 71.1962 111.027C71.2549 111.477 71.4411 111.84 71.7546 112.114C72.0681 112.388 72.4697 112.535 72.9498 112.535C73.3612 112.535 73.7139 112.437 73.998 112.232ZM71.7252 106.432C71.4313 106.706 71.2451 107.078 71.1864 107.519C71.1472 107.843 71.1276 108.205 71.1276 108.587C71.1276 108.636 71.1472 108.656 71.1962 108.656H74.5368C74.5368 108.656 74.6054 108.636 74.6054 108.587C74.576 108.107 74.5564 107.754 74.5368 107.539C74.4781 107.088 74.2919 106.726 73.9882 106.442C73.6845 106.158 73.3025 106.011 72.842 106.011C72.3816 106.011 71.9995 106.148 71.7056 106.432H71.7252Z" fill="#1B1C20"/>
<path d="M79.7881 113.299C79.1905 112.81 78.8182 112.143 78.6908 111.291C78.6027 110.742 78.5635 110.067 78.5635 109.244C78.5635 108.528 78.6027 107.862 78.6908 107.225C78.828 106.403 79.1905 105.746 79.7979 105.247C80.4053 104.747 81.1694 104.502 82.0903 104.502C83.0112 104.502 83.746 104.737 84.3632 105.207C84.9804 105.678 85.3526 106.285 85.4702 107.02L85.5388 107.451C85.5388 107.559 85.48 107.627 85.3526 107.647L83.9909 107.754H83.9517C83.8831 107.754 83.8341 107.715 83.8047 107.627L83.7851 107.559L83.746 107.343C83.6872 106.971 83.501 106.647 83.1973 106.393C82.8936 106.128 82.5116 106.001 82.0511 106.001C81.5907 106.001 81.2086 106.138 80.9147 106.422C80.6208 106.696 80.4347 107.069 80.3759 107.529C80.3171 108.039 80.2877 108.617 80.2877 109.253C80.2877 109.969 80.3269 110.556 80.3955 111.017C80.4543 111.477 80.6306 111.84 80.9245 112.114C81.2184 112.388 81.5907 112.525 82.0511 112.525C82.5116 112.525 82.9132 112.398 83.2169 112.134C83.5206 111.869 83.697 111.546 83.746 111.164L83.7656 110.978C83.7754 110.86 83.8439 110.801 83.9615 110.811L85.3232 110.899C85.4408 110.899 85.5094 110.968 85.5094 111.095L85.4506 111.399C85.3526 112.173 84.9999 112.8 84.3827 113.29C83.7656 113.77 83.0014 114.015 82.0805 114.015C81.1596 114.015 80.3857 113.77 79.7881 113.28V113.299Z" fill="#1B1C20"/>
<path d="M88.8208 113.299C88.2134 112.81 87.8509 112.143 87.7334 111.291C87.6354 110.684 87.5864 110.008 87.5864 109.253C87.5864 108.499 87.6354 107.823 87.7334 107.235C87.8509 106.403 88.2134 105.736 88.8208 105.237C89.4282 104.737 90.2022 104.492 91.1426 104.492C92.0831 104.492 92.8473 104.737 93.4449 105.237C94.0425 105.736 94.4148 106.393 94.5323 107.216C94.6303 107.735 94.6793 108.411 94.6793 109.253C94.6793 110.096 94.6303 110.762 94.5323 111.291C94.4148 112.134 94.0523 112.81 93.4547 113.299C92.8571 113.789 92.0831 114.034 91.1426 114.034C90.2022 114.034 89.4282 113.789 88.8208 113.299ZM92.2791 112.114C92.5926 111.84 92.7787 111.467 92.8473 111.007C92.9061 110.458 92.9354 109.88 92.9354 109.263C92.9354 108.646 92.9061 108.058 92.8473 107.539C92.7787 107.079 92.5828 106.706 92.2791 106.432C91.9656 106.158 91.5835 106.011 91.123 106.011C90.6626 106.011 90.3001 106.148 89.9866 106.432C89.6731 106.706 89.487 107.079 89.4184 107.539C89.3694 107.96 89.3498 108.538 89.3498 109.263C89.3498 109.988 89.3694 110.586 89.4184 111.007C89.487 111.467 89.6829 111.84 89.9866 112.114C90.3001 112.388 90.6822 112.535 91.1426 112.535C91.6031 112.535 91.9656 112.398 92.2791 112.114Z" fill="#1B1C20"/>
<path d="M107.875 105.344C108.346 105.893 108.571 106.647 108.571 107.617V113.721C108.571 113.838 108.512 113.907 108.385 113.907H107.023C106.905 113.907 106.837 113.848 106.837 113.721V107.872C106.837 107.304 106.7 106.853 106.425 106.53C106.151 106.206 105.779 106.04 105.309 106.04C104.838 106.04 104.456 106.197 104.172 106.52C103.888 106.843 103.741 107.284 103.741 107.833V113.721C103.741 113.838 103.682 113.907 103.555 113.907H102.193C102.076 113.907 102.007 113.848 102.007 113.721V107.872C102.007 107.304 101.87 106.853 101.586 106.53C101.311 106.206 100.939 106.04 100.479 106.04C100.018 106.04 99.6264 106.197 99.3423 106.52C99.0582 106.843 98.9113 107.284 98.9113 107.833V113.721C98.9113 113.838 98.8525 113.907 98.7251 113.907H97.3634C97.2458 113.907 97.1772 113.848 97.1772 113.721V104.845C97.1772 104.727 97.236 104.659 97.3634 104.659H98.7251C98.8427 104.659 98.9113 104.717 98.9113 104.845V105.393C98.9113 105.393 98.9113 105.433 98.9407 105.452C98.9603 105.462 98.9798 105.452 98.9994 105.433C99.4991 104.835 100.185 104.541 101.067 104.541C101.596 104.541 102.056 104.649 102.448 104.864C102.84 105.08 103.134 105.403 103.339 105.824C103.379 105.873 103.408 105.864 103.447 105.805C103.712 105.374 104.064 105.05 104.495 104.845C104.926 104.639 105.387 104.531 105.867 104.531C106.709 104.531 107.376 104.806 107.836 105.344H107.875Z" fill="#1B1C20"/>
<path d="M115.576 112.232C115.86 112.036 116.075 111.761 116.222 111.409C116.261 111.301 116.33 111.262 116.438 111.281L117.672 111.556C117.79 111.595 117.839 111.663 117.8 111.771C117.574 112.486 117.173 113.045 116.604 113.437C116.036 113.838 115.341 114.034 114.518 114.034C113.577 114.034 112.813 113.799 112.225 113.329C111.647 112.859 111.275 112.212 111.118 111.389C111.059 111.046 111.02 110.693 111.001 110.311C110.981 109.929 110.971 109.42 110.971 108.793C110.971 108.166 111.001 107.686 111.059 107.323C111.167 106.481 111.53 105.795 112.127 105.276C112.735 104.766 113.499 104.502 114.42 104.502C115.429 104.502 116.232 104.786 116.849 105.354C117.466 105.922 117.809 106.677 117.888 107.608C117.927 108.019 117.946 108.773 117.946 109.88C117.946 109.998 117.888 110.067 117.76 110.067H112.784C112.784 110.067 112.715 110.096 112.715 110.135C112.715 110.478 112.735 110.772 112.774 111.027C112.833 111.477 113.019 111.84 113.332 112.114C113.646 112.388 114.047 112.535 114.527 112.535C114.939 112.535 115.292 112.437 115.576 112.232ZM113.303 106.432C113.009 106.706 112.823 107.078 112.764 107.519C112.725 107.843 112.705 108.205 112.705 108.587C112.705 108.636 112.725 108.656 112.774 108.656H116.114C116.114 108.656 116.183 108.636 116.183 108.587C116.154 108.107 116.134 107.754 116.114 107.539C116.056 107.088 115.87 106.726 115.566 106.442C115.262 106.158 114.88 106.011 114.42 106.011C113.959 106.011 113.577 106.148 113.283 106.432H113.303Z" fill="#1B1C20"/>
<path d="M126.323 105.344C126.813 105.893 127.057 106.638 127.057 107.598V113.721C127.057 113.838 126.999 113.907 126.871 113.907H125.49C125.372 113.907 125.304 113.848 125.304 113.721V107.852C125.304 107.294 125.157 106.853 124.873 106.53C124.589 106.207 124.207 106.04 123.717 106.04C123.227 106.04 122.825 106.207 122.531 106.54C122.237 106.873 122.091 107.314 122.091 107.872V113.721C122.091 113.838 122.032 113.907 121.904 113.907H120.523C120.405 113.907 120.337 113.848 120.337 113.721V104.845C120.337 104.727 120.396 104.659 120.523 104.659H121.904C122.022 104.659 122.091 104.717 122.091 104.845V105.403C122.091 105.403 122.091 105.462 122.12 105.462C122.149 105.462 122.159 105.462 122.179 105.413C122.649 104.815 123.345 104.521 124.246 104.521C125.147 104.521 125.813 104.796 126.303 105.335L126.323 105.344Z" fill="#1B1C20"/>
<path d="M134.797 101.181H136.178C136.296 101.181 136.364 101.239 136.364 101.367V113.711C136.364 113.828 136.306 113.897 136.178 113.897H134.797C134.679 113.897 134.611 113.838 134.611 113.711V113.094C134.611 113.094 134.601 113.054 134.572 113.035C134.542 113.015 134.532 113.035 134.513 113.054C134.082 113.711 133.396 114.034 132.465 114.034C131.711 114.034 131.113 113.819 130.653 113.378C130.192 112.947 129.85 112.271 129.634 111.36C129.487 110.733 129.418 110.037 129.418 109.292C129.418 108.548 129.477 107.833 129.605 107.225C129.967 105.413 130.957 104.502 132.563 104.502C133.033 104.502 133.425 104.58 133.739 104.737C134.052 104.894 134.317 105.129 134.523 105.442C134.542 105.472 134.572 105.481 134.581 105.481C134.591 105.481 134.611 105.462 134.611 105.423V101.357C134.611 101.239 134.67 101.171 134.797 101.171V101.181ZM134.601 109.263C134.601 108.352 134.513 107.666 134.346 107.196C134.238 106.804 134.072 106.51 133.847 106.314C133.621 106.118 133.327 106.01 132.965 106.01C132.25 106.01 131.75 106.393 131.476 107.157C131.28 107.705 131.182 108.401 131.182 109.263C131.182 110.125 131.26 110.811 131.417 111.281C131.672 112.114 132.181 112.535 132.945 112.535C133.651 112.535 134.121 112.133 134.366 111.32C134.523 110.84 134.601 110.155 134.601 109.273V109.263Z" fill="#1B1C20"/>
<path d="M144.711 105.354C145.319 105.922 145.622 106.657 145.622 107.559V113.711C145.622 113.828 145.563 113.897 145.436 113.897H144.055C143.937 113.897 143.869 113.838 143.869 113.711V113.182C143.869 113.182 143.869 113.143 143.839 113.133C143.81 113.123 143.8 113.133 143.78 113.162C143.232 113.74 142.477 114.034 141.508 114.034C140.724 114.034 140.048 113.819 139.489 113.388C138.931 112.957 138.657 112.261 138.657 111.311C138.657 110.36 138.98 109.567 139.627 109.048C140.273 108.528 141.155 108.274 142.272 108.274H143.8C143.8 108.274 143.869 108.254 143.869 108.205V107.696C143.869 107.176 143.731 106.765 143.457 106.461C143.183 106.158 142.791 106.011 142.282 106.011C141.88 106.011 141.557 106.109 141.292 106.314C141.028 106.51 140.871 106.785 140.812 107.118C140.802 107.225 140.734 107.284 140.616 107.284L139.127 107.196C139.127 107.196 139.039 107.176 139 107.147C138.96 107.118 138.951 107.078 138.96 107.029C139.029 106.275 139.372 105.668 139.989 105.207C140.596 104.737 141.37 104.512 142.282 104.512C143.291 104.512 144.094 104.796 144.701 105.354H144.711ZM143.281 112.094C143.673 111.791 143.869 111.389 143.869 110.88V109.714C143.869 109.714 143.849 109.645 143.8 109.645H142.399C141.802 109.645 141.331 109.782 140.979 110.047C140.626 110.311 140.44 110.703 140.44 111.213C140.44 111.663 140.577 111.996 140.841 112.222C141.106 112.447 141.459 112.555 141.89 112.555C142.419 112.555 142.889 112.408 143.281 112.104V112.094Z" fill="#1B1C20"/>
<path d="M148.326 113.564C148.111 113.348 148.003 113.064 148.003 112.731C148.003 112.398 148.111 112.114 148.326 111.898C148.542 111.683 148.826 111.575 149.159 111.575C149.492 111.575 149.776 111.683 149.992 111.898C150.207 112.114 150.315 112.398 150.315 112.731C150.315 113.064 150.207 113.348 149.992 113.564C149.776 113.779 149.492 113.887 149.159 113.887C148.826 113.887 148.542 113.779 148.326 113.564Z" fill="#1B1C20"/>
<path d="M159.838 113.73L156.585 101.386L156.565 101.328C156.565 101.23 156.624 101.181 156.752 101.181H158.241C158.358 101.181 158.427 101.239 158.437 101.347L160.798 111.075C160.798 111.075 160.817 111.134 160.837 111.134C160.856 111.134 160.856 111.115 160.876 111.075L163.237 101.347C163.257 101.239 163.325 101.181 163.433 101.181H164.863C164.922 101.181 164.971 101.2 165 101.239C165.03 101.279 165.04 101.328 165.03 101.386L161.748 113.73C161.728 113.838 161.66 113.897 161.552 113.897H160.043C159.935 113.897 159.867 113.838 159.847 113.73H159.838Z" fill="#1B1C20"/>
<path d="M167.41 113.299C166.803 112.81 166.44 112.143 166.323 111.291C166.225 110.684 166.176 110.008 166.176 109.253C166.176 108.499 166.225 107.823 166.323 107.235C166.44 106.403 166.803 105.736 167.41 105.237C168.018 104.737 168.792 104.492 169.732 104.492C170.672 104.492 171.437 104.737 172.034 105.237C172.632 105.736 173.004 106.393 173.122 107.216C173.22 107.735 173.269 108.411 173.269 109.253C173.269 110.096 173.22 110.762 173.122 111.291C173.004 112.134 172.642 112.81 172.044 113.299C171.446 113.789 170.672 114.034 169.732 114.034C168.792 114.034 168.018 113.789 167.41 113.299ZM170.868 112.114C171.182 111.84 171.368 111.467 171.437 111.007C171.495 110.458 171.525 109.88 171.525 109.263C171.525 108.646 171.495 108.058 171.437 107.539C171.368 107.079 171.172 106.706 170.868 106.432C170.555 106.158 170.173 106.011 169.712 106.011C169.252 106.011 168.889 106.148 168.576 106.432C168.262 106.706 168.076 107.079 168.008 107.539C167.959 107.96 167.939 108.538 167.939 109.263C167.939 109.988 167.959 110.586 168.008 111.007C168.076 111.467 168.272 111.84 168.576 112.114C168.889 112.388 169.272 112.535 169.732 112.535C170.192 112.535 170.555 112.398 170.868 112.114Z" fill="#1B1C20"/>
<path d="M176.825 113.299C176.227 112.81 175.855 112.143 175.727 111.291C175.639 110.742 175.6 110.067 175.6 109.244C175.6 108.528 175.639 107.862 175.727 107.225C175.865 106.403 176.227 105.746 176.834 105.247C177.442 104.747 178.206 104.502 179.127 104.502C180.048 104.502 180.783 104.737 181.4 105.207C182.017 105.678 182.389 106.285 182.507 107.02L182.575 107.451C182.575 107.559 182.517 107.627 182.389 107.647L181.027 107.754H180.988C180.92 107.754 180.871 107.715 180.841 107.627L180.822 107.559L180.783 107.343C180.724 106.971 180.538 106.647 180.234 106.393C179.93 106.128 179.548 106.001 179.088 106.001C178.627 106.001 178.245 106.138 177.951 106.422C177.657 106.696 177.471 107.069 177.413 107.529C177.354 108.039 177.324 108.617 177.324 109.253C177.324 109.969 177.364 110.556 177.432 111.017C177.491 111.477 177.667 111.84 177.961 112.114C178.255 112.388 178.627 112.525 179.088 112.525C179.548 112.525 179.95 112.398 180.254 112.134C180.557 111.869 180.734 111.546 180.783 111.164L180.802 110.978C180.812 110.86 180.881 110.801 180.998 110.811L182.36 110.899C182.477 110.899 182.546 110.968 182.546 111.095L182.487 111.399C182.389 112.173 182.037 112.8 181.419 113.29C180.802 113.77 180.038 114.015 179.117 114.015C178.196 114.015 177.422 113.77 176.825 113.28V113.299Z" fill="#1B1C20"/>
<path d="M189.237 112.231C189.521 112.035 189.737 111.761 189.884 111.408C189.923 111.301 189.992 111.262 190.099 111.281L191.334 111.555C191.451 111.595 191.5 111.663 191.461 111.771C191.236 112.486 190.834 113.045 190.266 113.436C189.698 113.838 189.002 114.034 188.179 114.034C187.239 114.034 186.475 113.799 185.887 113.329C185.309 112.858 184.937 112.212 184.78 111.389C184.721 111.046 184.682 110.693 184.662 110.311C184.643 109.929 184.633 109.42 184.633 108.793C184.633 108.166 184.662 107.686 184.721 107.323C184.829 106.481 185.191 105.795 185.789 105.276C186.396 104.766 187.16 104.502 188.081 104.502C189.09 104.502 189.894 104.786 190.511 105.354C191.128 105.922 191.471 106.677 191.549 107.607C191.589 108.019 191.608 108.773 191.608 109.88C191.608 109.998 191.549 110.066 191.422 110.066H186.445C186.445 110.066 186.377 110.096 186.377 110.135C186.377 110.478 186.396 110.772 186.435 111.026C186.494 111.477 186.68 111.84 186.994 112.114C187.307 112.388 187.709 112.535 188.189 112.535C188.601 112.535 188.953 112.437 189.237 112.231ZM185.691 103.385C185.691 103.385 185.671 103.287 185.71 103.228L187.033 101.288C187.082 101.22 187.151 101.181 187.249 101.181H188.796C188.894 101.181 188.963 101.22 189.012 101.288L190.374 103.228C190.374 103.228 190.413 103.287 190.413 103.316C190.413 103.405 190.354 103.444 190.246 103.444H189.159C189.071 103.444 189.002 103.405 188.943 103.316L188.111 102.013C188.111 102.013 188.081 101.974 188.052 101.974C188.022 101.974 188.013 101.984 187.993 102.013L187.141 103.316C187.082 103.405 187.004 103.444 186.925 103.444H185.838C185.769 103.444 185.72 103.424 185.691 103.385ZM186.974 106.432C186.68 106.706 186.494 107.078 186.435 107.519C186.396 107.842 186.377 108.205 186.377 108.587C186.377 108.636 186.396 108.656 186.445 108.656H189.786C189.786 108.656 189.854 108.636 189.854 108.587C189.825 108.107 189.805 107.754 189.786 107.539C189.727 107.088 189.541 106.726 189.237 106.442C188.934 106.157 188.552 106.01 188.091 106.01C187.631 106.01 187.249 106.148 186.955 106.432H186.974Z" fill="#1B1C20"/>
<path d="M199.191 113.299C198.593 112.81 198.221 112.143 198.094 111.291C198.006 110.742 197.966 110.067 197.966 109.244C197.966 108.528 198.006 107.862 198.094 107.225C198.231 106.403 198.593 105.746 199.201 105.247C199.808 104.747 200.572 104.502 201.493 104.502C202.414 104.502 203.149 104.737 203.766 105.207C204.383 105.678 204.755 106.285 204.873 107.02L204.942 107.451C204.942 107.559 204.883 107.627 204.755 107.647L203.394 107.754H203.355C203.286 107.754 203.237 107.715 203.208 107.627L203.188 107.559L203.149 107.343C203.09 106.971 202.904 106.647 202.6 106.393C202.296 106.128 201.914 106.001 201.454 106.001C200.994 106.001 200.611 106.138 200.318 106.422C200.024 106.696 199.837 107.069 199.779 107.529C199.72 108.039 199.691 108.617 199.691 109.253C199.691 109.969 199.73 110.556 199.798 111.017C199.857 111.477 200.033 111.84 200.327 112.114C200.621 112.388 200.994 112.525 201.454 112.525C201.914 112.525 202.316 112.398 202.62 112.134C202.923 111.869 203.1 111.546 203.149 111.164L203.168 110.978C203.178 110.86 203.247 110.801 203.364 110.811L204.726 110.899C204.844 110.899 204.912 110.968 204.912 111.095L204.853 111.399C204.755 112.173 204.403 112.8 203.786 113.29C203.168 113.77 202.404 114.015 201.483 114.015C200.562 114.015 199.789 113.77 199.191 113.28V113.299Z" fill="#1B1C20"/>
<path d="M212.279 104.648H213.66C213.778 104.648 213.846 104.707 213.846 104.835V113.71C213.846 113.828 213.788 113.897 213.66 113.897H212.279C212.161 113.897 212.093 113.838 212.093 113.71V113.142C212.093 113.142 212.093 113.103 212.063 113.093C212.044 113.083 212.024 113.093 212.005 113.113C211.583 113.72 210.917 114.024 210.006 114.024C209.183 114.024 208.497 113.779 207.959 113.299C207.42 112.819 207.155 112.114 207.155 111.193V104.835C207.155 104.717 207.214 104.648 207.341 104.648H208.703C208.821 104.648 208.889 104.707 208.889 104.835V110.722C208.889 111.291 209.026 111.731 209.301 112.045C209.575 112.358 209.967 112.515 210.476 112.515C210.986 112.515 211.368 112.349 211.662 112.016C211.956 111.682 212.103 111.232 212.103 110.664V104.835C212.103 104.717 212.161 104.648 212.289 104.648H212.279Z" fill="#1B1C20"/>
<path d="M221.331 104.776C221.42 104.815 221.449 104.884 221.42 104.992L221.145 106.373C221.136 106.49 221.057 106.53 220.93 106.481C220.744 106.422 220.548 106.393 220.332 106.393C220.175 106.393 220.058 106.393 219.989 106.412C219.519 106.451 219.127 106.667 218.814 107.059C218.5 107.451 218.343 107.921 218.343 108.469V113.72C218.343 113.838 218.285 113.907 218.157 113.907H216.776C216.658 113.907 216.59 113.848 216.59 113.72V104.845C216.59 104.727 216.649 104.658 216.776 104.658H218.157C218.275 104.658 218.343 104.717 218.343 104.845V106.01C218.343 106.01 218.343 106.069 218.373 106.069C218.402 106.069 218.402 106.069 218.422 106.04C218.853 105.06 219.519 104.57 220.42 104.57C220.783 104.57 221.096 104.639 221.351 104.786L221.331 104.776Z" fill="#1B1C20"/>
<path d="M227.307 105.991H225.691C225.691 105.991 225.622 106.011 225.622 106.06V111.036C225.622 111.536 225.72 111.879 225.926 112.085C226.132 112.29 226.435 112.388 226.857 112.388H227.2C227.317 112.388 227.386 112.447 227.386 112.575V113.721C227.386 113.838 227.327 113.907 227.2 113.907L226.494 113.927C225.652 113.927 225.005 113.77 224.574 113.446C224.143 113.123 223.927 112.526 223.927 111.654V106.079C223.927 106.079 223.908 106.011 223.859 106.011H222.967C222.85 106.011 222.781 105.952 222.781 105.825V104.845C222.781 104.727 222.84 104.659 222.967 104.659H223.859C223.859 104.659 223.927 104.639 223.927 104.59V102.504C223.927 102.386 223.986 102.317 224.114 102.317H225.436C225.554 102.317 225.622 102.376 225.622 102.504V104.59C225.622 104.59 225.642 104.659 225.691 104.659H227.307C227.425 104.659 227.493 104.718 227.493 104.845V105.825C227.493 105.942 227.435 106.011 227.307 106.011V105.991Z" fill="#1B1C20"/>
<path d="M234.077 112.232C234.361 112.036 234.577 111.761 234.724 111.409C234.763 111.301 234.831 111.262 234.939 111.281L236.174 111.556C236.291 111.595 236.34 111.663 236.301 111.771C236.076 112.486 235.674 113.045 235.106 113.437C234.538 113.838 233.842 114.034 233.019 114.034C232.079 114.034 231.314 113.799 230.727 113.329C230.149 112.859 229.776 112.212 229.62 111.389C229.561 111.046 229.522 110.693 229.502 110.311C229.482 109.929 229.473 109.42 229.473 108.793C229.473 108.166 229.502 107.686 229.561 107.323C229.669 106.481 230.031 105.795 230.629 105.276C231.236 104.766 232 104.502 232.921 104.502C233.93 104.502 234.734 104.786 235.351 105.354C235.968 105.922 236.311 106.677 236.389 107.608C236.428 108.019 236.448 108.773 236.448 109.88C236.448 109.998 236.389 110.067 236.262 110.067H231.285C231.285 110.067 231.216 110.096 231.216 110.135C231.216 110.478 231.236 110.772 231.275 111.027C231.334 111.477 231.52 111.84 231.834 112.114C232.147 112.388 232.549 112.535 233.029 112.535C233.44 112.535 233.793 112.437 234.077 112.232ZM231.804 106.432C231.51 106.706 231.324 107.078 231.265 107.519C231.226 107.843 231.207 108.205 231.207 108.587C231.207 108.636 231.226 108.656 231.275 108.656H234.616C234.616 108.656 234.685 108.636 234.685 108.587C234.655 108.107 234.636 107.754 234.616 107.539C234.557 107.088 234.371 106.726 234.067 106.442C233.764 106.158 233.382 106.011 232.921 106.011C232.461 106.011 232.079 106.148 231.785 106.432H231.804Z" fill="#1B1C20"/>
<path d="M238.818 113.564C238.603 113.348 238.495 113.064 238.495 112.731C238.495 112.398 238.603 112.114 238.818 111.898C239.034 111.683 239.318 111.575 239.651 111.575C239.984 111.575 240.268 111.683 240.484 111.898C240.699 112.114 240.807 112.398 240.807 112.731C240.807 113.064 240.699 113.348 240.484 113.564C240.268 113.779 239.984 113.887 239.651 113.887C239.318 113.887 239.034 113.779 238.818 113.564Z" fill="#1B1C20"/>
</g>
<defs>
<clipPath id="clip0_2505_10469">
<rect width="241" height="117.561" fill="white" transform="translate(0.483398)"/>
</clipPath>
</defs>
</svg>
