<svg width="48" height="48" viewBox="0 0 48 48" fill="none" xmlns="http://www.w3.org/2000/svg">
<rect x="1" y="1" width="46" height="46" rx="23" fill="white" stroke="#F8F8F8" stroke-width="2"/>
<path fill-rule="evenodd" clip-rule="evenodd" d="M28.8944 20.6829H28.8867C28.25 20.6829 27.7986 20.1913 27.7986 19.5523C27.787 18.856 28.3117 18.2826 28.9678 18.2744C28.9792 18.2744 28.987 18.2744 28.9986 18.2785C29.639 18.2785 30.0865 18.7699 30.0865 19.4088C30.0865 20.1095 29.5541 20.6786 28.8944 20.6829ZM40.7319 24.8685C40.6933 25.1185 40.6741 25.3723 40.6702 25.6264C40.6702 26.6913 41.1448 27.2072 41.8084 27.2072C42.3717 27.2072 42.7614 26.9164 43.236 26.249H43.3094C42.7846 27.5392 41.8817 28.1779 40.7937 28.1779C39.5589 28.1779 38.6792 27.3425 38.6792 25.7451C38.6792 23.6317 40.319 21.3175 42.4605 21.3175C43.4868 21.3175 44 21.8748 44 22.661C44 24.1519 42.4837 24.7867 40.7319 24.8685ZM40.7705 24.672C41.824 24.3282 42.611 23.0379 42.611 21.9852C42.611 21.7191 42.5222 21.5593 42.3602 21.5593C41.8006 21.5593 41.0368 23.1936 40.7705 24.672ZM35.4073 22.9763C35.8819 21.9279 36.4838 21.3298 37.3365 21.3298C38.1776 21.3298 38.5251 21.9034 38.5251 22.661C38.5211 22.9108 38.4903 23.1608 38.4362 23.4066L37.6298 26.8387C37.6065 26.9207 37.5913 27.0068 37.5913 27.0927C37.5913 27.318 37.6916 27.4653 37.9037 27.4653C38.0157 27.4614 38.1236 27.4245 38.2162 27.3588V27.3835C37.8421 27.9569 37.3521 28.1822 36.8157 28.1822C35.99 28.1822 35.6273 27.6619 35.6273 26.9576C35.6273 26.7831 35.6604 26.6122 35.6959 26.4287L35.6959 26.4286L35.7044 26.3842L36.4183 23.341C36.4646 23.1812 36.4916 23.0173 36.4954 22.8494C36.4954 22.6364 36.4183 22.5055 36.2214 22.5055C35.8317 22.5055 35.4305 23.0502 35.1565 24.1682L34.2537 28.051H32.2357L33.3394 23.345C33.3856 23.1936 33.4127 23.0379 33.4163 22.8781C33.4163 22.6529 33.3276 22.5055 33.1154 22.5055C32.7257 22.5055 32.34 23.0502 32.0622 24.2051L31.1632 28.0471H29.1335L30.3373 22.9151C30.3521 22.844 30.3662 22.7776 30.3794 22.7156C30.4451 22.4062 30.4879 22.2044 30.4879 22.0507C30.4879 21.8132 30.4106 21.6534 30.2371 21.4937V21.4651H32.7063L32.3438 22.9928C32.8068 21.9444 33.3816 21.3298 34.246 21.3298C35.0717 21.3298 35.4344 21.9279 35.4344 22.6978C35.4305 22.7921 35.4229 22.8863 35.4073 22.9763ZM28.3117 26.8387C28.2964 26.9207 28.2886 27.0068 28.2848 27.0927C28.2848 27.318 28.3851 27.4653 28.5857 27.4653C28.7014 27.4614 28.8133 27.4245 28.9097 27.3588V27.3835C28.52 27.9569 28.034 28.1822 27.4937 28.1822C26.6797 28.1822 26.3286 27.6619 26.3286 26.9576C26.3246 26.765 26.3479 26.5726 26.3902 26.3842L27.1929 22.9151L27.2045 22.8658C27.2979 22.4692 27.3548 22.2279 27.3548 22.0507C27.3548 21.8132 27.2776 21.6534 27.0925 21.4937V21.4651H29.5735L28.3117 26.8387ZM25.1056 27.3384C24.8044 27.3384 24.5652 27.1131 24.5652 26.7281C24.5652 26.6338 24.5768 26.5397 24.6038 26.4496L25.6919 21.7928H26.8186L26.9575 21.461H25.7806L26.3208 19.1468H26.209C25.4063 20.4903 24.5652 21.2645 23.2649 21.6206L23.2265 21.7928H23.6778L22.663 26.1014C22.609 26.3145 22.5821 26.5316 22.5743 26.7528C22.5743 27.6169 23.0489 28.174 23.9517 28.174C24.7427 28.174 25.3563 27.7849 25.8194 27.0025L25.8076 26.978C25.5686 27.2196 25.306 27.3384 25.1056 27.3384ZM19.4181 24.8685C19.3795 25.1185 19.3603 25.3723 19.3565 25.6264C19.3565 26.6913 19.831 27.2072 20.4948 27.2072C21.0581 27.2072 21.4478 26.9164 21.9222 26.249H21.9994C21.4748 27.5392 20.5717 28.1779 19.4838 28.1779C18.2413 28.1779 17.3656 27.3425 17.3656 25.7451C17.3656 23.6317 19.0054 21.3175 21.1467 21.3175C22.173 21.3175 22.6862 21.8748 22.6862 22.661C22.6862 24.1519 21.17 24.7867 19.4181 24.8685ZM19.4568 24.672C20.51 24.3282 21.2971 23.0379 21.2971 21.9852C21.2971 21.7191 21.2084 21.5593 21.0463 21.5593C20.483 21.5593 19.719 23.1936 19.4568 24.672ZM17.3384 21.4651H18.28L18.1294 21.7969H17.2767L15.8724 27.8341C15.359 30.054 14.4563 30.9712 12.6043 31V30.9755C13.2678 30.4962 13.5573 29.3412 14.1322 26.6791L15.1971 21.8009H14.6222L14.6608 21.6536L15.2975 21.3626L15.4094 20.9898C15.8606 19.0895 17.2111 18 18.6427 18C19.4335 18 20.0702 18.4138 20.0702 19.1019C20.0702 19.8883 19.5302 20.3264 18.9049 20.3264C18.4921 20.3264 18.2027 20.0887 18.1411 19.8063C18.5152 19.7408 18.9321 19.3927 18.9321 18.635C18.9321 18.3808 18.8086 18.2089 18.5808 18.2089C18.1294 18.2089 17.7552 18.8723 17.5159 20.4289L17.3384 21.4651ZM13.5843 27.3588V27.3835C13.1944 27.9569 12.7084 28.1822 12.1683 28.1822C11.3541 28.1822 11.003 27.6619 11.003 26.9576C10.999 26.765 11.0222 26.5726 11.0648 26.3842L11.8673 22.9151C11.8716 22.897 11.8757 22.8793 11.8798 22.8619C11.9727 22.4676 12.0294 22.2273 12.0294 22.0507C12.0294 21.8132 11.956 21.6534 11.7668 21.4937V21.4651H14.2479L12.9824 26.8387C12.967 26.9207 12.9592 27.0068 12.9592 27.0927C12.9592 27.318 13.0595 27.4653 13.2602 27.4653C13.3759 27.4614 13.4878 27.4245 13.5843 27.3588ZM13.5689 20.6868H13.5573C12.9167 20.6868 12.4692 20.1953 12.4692 19.5565C12.4576 18.8601 12.9824 18.2867 13.6383 18.2785C13.646 18.2743 13.6575 18.2743 13.6692 18.2785C14.3097 18.2785 14.7571 18.7699 14.7571 19.4088C14.7611 20.1095 14.2286 20.6829 13.5689 20.6868ZM10.787 24.9342H10.81L9.87254 28.0471H4V28.0224C4.56333 27.6784 4.70238 27.3588 4.90286 26.4824L6.35365 20.3099C6.44222 19.9251 6.49254 19.6465 6.49254 19.4335C6.49254 19.1427 6.41921 18.9544 6.18 18.7699V18.7454H9.4981V18.7699C8.93492 19.1141 8.79603 19.4335 8.5954 20.3142L6.85524 27.7275H7.16778C8.5954 27.7275 9.4981 26.9164 10.787 24.9342Z" fill="#F51A50"/>
</svg>
