<svg width="48" height="48" viewBox="0 0 48 48" fill="none" xmlns="http://www.w3.org/2000/svg">
<rect x="1" y="1" width="46" height="46" rx="23" fill="white" stroke="#F8F8F8" stroke-width="2"/>
<path fill-rule="evenodd" clip-rule="evenodd" d="M43.8835 19.0972C43.7438 18.8753 43.5373 18.7579 43.2848 18.7579H43.2768C42.9719 18.7579 42.7368 18.9202 42.6144 19.2131L41.5138 21.8863C41.3755 21.5551 41.0151 20.6762 40.4163 19.2146C40.2971 18.9202 40.0636 18.7579 39.7571 18.7579H39.7444C39.7349 18.7579 39.727 18.7595 39.7174 18.7595V18.7579H38.3675V17.7482C38.3675 17.5464 38.2944 17.3626 38.153 17.2152C38.0148 17.0744 37.8401 17 37.6511 17H37.6384C37.4462 17 37.2763 17.0729 37.1333 17.2169C36.9952 17.3609 36.9205 17.5446 36.9205 17.7465V22.5747C36.9205 23.0035 37.0681 23.3775 37.3636 23.6887C37.659 23.995 38.0195 24.149 38.4341 24.149H38.7628C38.9535 24.149 39.1267 24.0728 39.2648 23.9303C39.4046 23.7912 39.4792 23.6093 39.4792 23.4023V23.3941C39.4792 23.1921 39.4062 23.0085 39.2663 22.8644C39.1282 22.7205 38.9535 22.6426 38.7613 22.6426H38.4325C38.4024 22.6426 38.3913 22.6343 38.3817 22.6245C38.3706 22.6128 38.3643 22.6012 38.3643 22.5764V20.2642L39.2648 20.2543C39.6746 21.2489 40.6054 23.5117 40.6054 23.5117C40.7625 23.9303 41.0754 24.1505 41.5106 24.1505C41.9411 24.1505 42.2524 23.9303 42.4127 23.5117L43.936 19.8023C43.9789 19.7013 43.9994 19.6004 43.9994 19.4995C44.0059 19.3587 43.9628 19.2212 43.8835 19.0972ZM34.8811 23.288C34.8811 22.7453 34.7033 22.2934 34.3363 21.9078C33.9711 21.522 33.5438 21.3349 33.0276 21.3349C32.5098 21.3349 32.0809 21.522 31.7157 21.9078C31.3536 22.2934 31.1773 22.7453 31.1773 23.288C31.1773 23.836 31.3536 24.2895 31.7173 24.6769C32.0809 25.056 32.5114 25.2413 33.0292 25.2413C33.547 25.2413 33.9743 25.056 34.3363 24.6752C34.7033 24.2895 34.8811 23.836 34.8811 23.288ZM35.5927 20.5919C36.2978 21.3334 36.6536 22.2404 36.6536 23.288V26.1815C36.6536 26.4329 36.5632 26.6582 36.3932 26.8319C36.2232 27.0091 36.0103 27.1034 35.7752 27.1034H35.7579C35.5229 27.1034 35.3084 27.0091 35.14 26.8319C35.0527 26.7426 34.9876 26.6417 34.943 26.529C34.3729 26.9097 33.7313 27.1034 33.0276 27.1034C32.0302 27.1034 31.1678 26.7275 30.4625 25.9845C29.7573 25.2429 29.4 24.3358 29.4 23.288C29.4 22.2404 29.7573 21.3334 30.4625 20.5919C31.1678 19.8487 32.0302 19.4728 33.0276 19.4728C34.0251 19.4728 34.8875 19.8487 35.5927 20.5919ZM27.3987 23.2948C27.3908 22.7569 27.2097 22.3149 26.8444 21.9409C26.4792 21.5601 26.0551 21.3765 25.5452 21.3765C25.0275 21.3765 24.5986 21.5634 24.2333 21.9491C23.8711 22.3347 23.6949 22.7866 23.6949 23.3295C23.6949 23.8774 23.8711 24.331 24.2348 24.7182C24.5986 25.0974 25.029 25.2826 25.5468 25.2826C26.0646 25.2826 26.4917 25.0974 26.854 24.7166C27.2208 24.331 27.3987 23.8774 27.3987 23.3295V23.2948ZM28.1055 20.6233C28.8108 21.3599 29.1697 22.2652 29.1744 23.313V25.9415C29.1744 26.971 28.7916 28.1214 28.0355 28.8844C27.3051 29.6242 26.4679 30 25.5452 30C24.1379 30 23.069 29.4156 22.3686 28.2638C22.2194 28.0221 22.186 27.7457 22.2733 27.4709C22.3606 27.1929 22.5481 26.9925 22.8117 26.8931C22.8149 26.8916 22.8371 26.8832 22.8371 26.8832C22.9451 26.8452 23.0532 26.8237 23.1563 26.8237C23.3549 26.8237 23.6376 26.8964 23.8616 27.2456C23.8632 27.2475 23.8632 27.2475 23.8648 27.2491C24.2379 27.8466 24.7876 28.1362 25.5468 28.1362C26.0136 28.1362 26.4267 27.9475 26.8095 27.5586C27 27.3682 27.2113 27.0471 27.24 26.7046C26.7268 26.9942 26.1598 27.1414 25.5468 27.1414C24.5494 27.1414 23.6868 26.7658 22.9817 26.0225C22.2765 25.281 21.9206 24.374 21.9206 23.3262C21.9206 22.2785 22.2781 21.3715 22.9817 20.6299C23.6868 19.8867 24.5494 19.511 25.5468 19.511C26.5394 19.511 27.4003 19.885 28.1055 20.6233ZM16.4649 23.1193L19.4049 21.7207C19.0952 21.4707 18.7346 21.3482 18.3089 21.3482C17.7911 21.3482 17.3624 21.5353 16.997 21.921C16.6778 22.2603 16.5014 22.6541 16.4649 23.1193ZM21.6221 23.7136C21.7936 23.9667 21.8302 24.2582 21.7302 24.5545C21.484 25.3041 21.0456 25.92 20.4278 26.385C19.7987 26.8617 19.0856 27.1034 18.3089 27.1034C17.3116 27.1034 16.449 26.7275 15.7438 25.9845C15.0387 25.2429 14.6829 24.3358 14.6829 23.288C14.6829 22.2404 15.0403 21.3334 15.7438 20.5919C16.449 19.8487 17.3116 19.4728 18.3089 19.4728C19.0284 19.4728 19.6956 19.6831 20.2911 20.0969C20.8756 20.4992 21.3171 21.0405 21.6046 21.7025C21.7046 21.926 21.7143 22.1693 21.6332 22.4058C21.5506 22.6409 21.3902 22.8214 21.1711 22.9256C20.6057 23.1937 19.8656 23.5447 18.9475 23.9818L17.1479 24.839C17.4687 25.122 17.8516 25.2611 18.3089 25.2611C18.7124 25.2611 19.0665 25.1387 19.3954 24.8888C19.713 24.6454 19.9306 24.3376 20.0576 23.9469C20.1943 23.5429 20.4929 23.3213 20.9009 23.3213C21.1981 23.3213 21.4475 23.4571 21.6221 23.7136ZM13.5441 20.4147C14.1365 21.0438 14.4367 21.8067 14.4367 22.6841V26.1815C14.4367 26.4313 14.3494 26.6566 14.1843 26.8304C14.0143 27.0091 13.7983 27.1034 13.5584 27.1034H13.5505C13.3106 27.1034 13.0962 27.0091 12.9294 26.8304C12.7611 26.6566 12.6705 26.4329 12.6705 26.1815V22.6841C12.6705 22.3082 12.5483 21.9954 12.2941 21.729C12.0416 21.4641 11.7446 21.3349 11.3871 21.3349C11.033 21.3349 10.7376 21.4641 10.4851 21.729C10.2325 21.9954 10.1086 22.3066 10.1086 22.6841V26.1815C10.1086 26.4313 10.0197 26.6566 9.84968 26.8304C9.6846 27.0091 9.47016 27.1034 9.22873 27.1034H9.21603C8.97778 27.1034 8.76174 27.0091 8.5919 26.8319C8.4219 26.6582 8.33127 26.4329 8.33127 26.1815V22.6841C8.33127 22.3082 8.20905 21.9954 7.95492 21.729C7.70238 21.4641 7.40857 21.3349 7.0527 21.3349C6.69857 21.3349 6.40317 21.4641 6.15063 21.729C5.89809 21.9954 5.77429 22.3066 5.77429 22.6841V26.1815C5.77429 26.4329 5.68365 26.6582 5.51381 26.8319C5.34381 27.0091 5.13095 27.1034 4.89587 27.1034H4.87841C4.64333 27.1034 4.42889 27.0091 4.26048 26.8319C4.09063 26.6582 4 26.4329 4 26.1815V22.6841C4 21.805 4.30016 21.042 4.89111 20.4147C5.48508 19.7891 6.21254 19.4728 7.0527 19.4728C7.91682 19.4728 8.64428 19.7908 9.22079 20.418C9.79254 19.7908 10.5184 19.4728 11.384 19.4728C12.2243 19.4728 12.9516 19.7891 13.5441 20.4147Z" fill="#D70020"/>
</svg>
