<svg width="48" height="48" viewBox="0 0 48 48" fill="none" xmlns="http://www.w3.org/2000/svg">
<rect x="1" y="1" width="46" height="46" rx="23" fill="white" stroke="#F8F8F8" stroke-width="2"/>
<path fill-rule="evenodd" clip-rule="evenodd" d="M43.8979 21.1837H42.5306L41.5918 22.7143L40.6326 21.1837H39.2857L40.7959 23.4694L39.1632 25.8776H40.5306L41.5918 24.2449L42.6326 25.8776H44L42.3673 23.4694L43.8979 21.1837ZM37.551 25.8572H38.6938V21.1837H37.551V25.8572ZM36.8775 22.1225C36.9387 22.3062 36.9796 22.5102 36.9796 22.7143C36.9796 22.9184 36.9387 23.1225 36.8775 23.3062C36.8163 23.4898 36.7142 23.6531 36.5714 23.796C36.4285 23.9388 36.2653 24.0409 36.0612 24.1225C35.8571 24.2041 35.6326 24.2449 35.3673 24.2449H34.1836V25.8368H33.0204V21.1837H35.3673C35.6326 21.1837 35.8571 21.2245 36.0612 21.3062C36.2653 21.3878 36.4285 21.4898 36.5714 21.6327C36.7142 21.7756 36.8163 21.9388 36.8775 22.1225ZM35.7959 22.7347C35.7959 22.5511 35.7347 22.4286 35.6122 22.3266C35.4898 22.2245 35.3469 22.1837 35.1836 22.1837H34.1632V23.2858H35.1836C35.3673 23.2858 35.5102 23.2449 35.6122 23.1429C35.7347 23.0409 35.7959 22.9184 35.7959 22.7347ZM32.551 25.8776L30.7755 21.2041H29.2857L27.5306 25.8776H28.8367L29.0816 25.1837H31L31.2449 25.8776H32.551ZM30.0408 22.2653L30.6938 24.2041H29.3877L30.0408 22.2653ZM25.0816 24.2449H26.1428V24.6735L26.1224 24.6939C26.0204 24.7756 25.8979 24.8368 25.7347 24.898C25.5714 24.9388 25.4081 24.9796 25.2245 24.9796C25.0204 24.9796 24.8367 24.9592 24.6734 24.8776C24.5102 24.796 24.3673 24.6939 24.2449 24.5715C24.1224 24.449 24.0204 24.2858 23.9591 24.1225C23.8979 23.9592 23.8571 23.7756 23.8571 23.5715C23.8571 23.3674 23.8979 23.1837 23.9591 23.0204C24.0204 22.8572 24.1224 22.6939 24.2449 22.5715C24.3673 22.449 24.5102 22.347 24.6734 22.2653C24.8367 22.2041 25.0204 22.1633 25.2245 22.1633C25.4693 22.1633 25.6734 22.2245 25.8571 22.347C26.0204 22.4694 26.1632 22.6123 26.2449 22.7551L27.204 22.2449C27.1224 22.1225 27.0204 21.9796 26.9183 21.8572C26.7959 21.7143 26.653 21.5919 26.4898 21.4898C26.3469 21.3878 26.1428 21.3062 25.9387 21.2449C25.7347 21.1837 25.4898 21.1429 25.2245 21.1429C24.8775 21.1429 24.551 21.2041 24.2449 21.3062C23.9387 21.4286 23.6734 21.5919 23.4489 21.796C23.204 22 23.0408 22.2449 22.8979 22.5511C22.7551 22.8368 22.6938 23.1837 22.6938 23.5511C22.6938 23.9184 22.7551 24.2653 22.8979 24.5511C23.0408 24.8368 23.2245 25.1021 23.4489 25.3062C23.6734 25.5307 23.9387 25.6939 24.2449 25.796C24.551 25.898 24.8775 25.9592 25.2245 25.9592C25.653 25.9592 26.0612 25.8776 26.4285 25.7143C26.7551 25.5511 27.0612 25.347 27.3061 25.0613V23.2245H25.0816V24.2449ZM18.6734 25.8776H22.0816V24.8776H19.8367V24H22.0408V23H19.8367V22.1837H22.0816V21.1837H18.6734V25.8776ZM16.0612 21.1837H17.6938V25.8776H16.551V22.6123L15.2857 25.8776H14.7959L13.5306 22.6123V25.8776H12.3673V21.1837H14.0204L15.0408 23.8368L16.0612 21.1837Z" fill="#4D2868"/>
<path fill-rule="evenodd" clip-rule="evenodd" d="M11.0613 23.5306L7.53064 20V23.5306H11.0613Z" fill="#AECD60"/>
<path fill-rule="evenodd" clip-rule="evenodd" d="M7.53061 20L4 23.5307H7.53061V20Z" fill="#DBE283"/>
<path fill-rule="evenodd" clip-rule="evenodd" d="M4 23.5306L7.53061 27.0612V23.5306H4Z" fill="#A2C62C"/>
<path fill-rule="evenodd" clip-rule="evenodd" d="M7.53064 23.5306V27.0612L11.0613 23.5306H7.53064Z" fill="#86BC25"/>
</svg>
