<svg width="267" height="120" viewBox="0 0 267 120" fill="none" xmlns="http://www.w3.org/2000/svg">
<path d="M75.2035 34.3405C75.2035 22.4715 84.6587 13.0723 96.4615 13.0723C108.264 13.0723 117.716 22.4747 117.716 34.3405C117.716 46.128 108.261 55.5273 96.4615 55.5273C84.6617 55.5273 75.2035 46.128 75.2035 34.3405ZM108.584 34.3405C108.584 27.1696 103.332 21.8949 96.4615 21.8949C89.5906 21.8949 84.336 27.1696 84.336 34.3405C84.336 41.4331 89.5906 46.7078 96.4615 46.7078C103.332 46.7078 108.584 41.4331 108.584 34.3405Z" fill="black"/>
<path d="M122.909 34.3409C122.909 22.5535 130.425 13.0727 141.417 13.0727C146.831 13.0727 151.6 15.2979 154.753 19.0902V0.460938H163.722V54.7034H155.155V49.5917C151.923 53.384 146.994 55.5277 141.417 55.5277C130.425 55.5277 122.909 46.0469 122.909 34.3409ZM154.753 34.3409C154.753 27.17 150.064 21.8953 143.691 21.8953C136.9 21.8953 132.047 27.17 132.047 34.3409C132.047 41.5118 136.9 46.7082 143.691 46.7082C149.984 46.7082 154.756 41.5965 154.756 34.3409H154.753Z" fill="black"/>
<path d="M169.378 34.3405C169.378 22.4715 178.833 13.0723 190.633 13.0723C202.433 13.0723 211.888 22.4747 211.888 34.3405C211.888 46.128 202.433 55.5273 190.633 55.5273C178.833 55.5273 169.378 46.128 169.378 34.3405ZM202.759 34.3405C202.759 27.1696 197.504 21.8949 190.633 21.8949C183.762 21.8949 178.508 27.1696 178.508 34.3405C178.508 41.4331 183.762 46.7078 190.633 46.7078C197.504 46.7078 202.759 41.4331 202.759 34.3405Z" fill="black"/>
<path d="M0.811646 66.4912H9.78438L17.9459 87.1013C20.0477 92.376 21.664 98.0708 21.664 98.0708C21.664 98.0708 23.3633 92.2914 25.3945 87.1828L33.4761 66.4975H42.4488L25.9476 107.379H17.3006L0.811646 66.4912Z" fill="black"/>
<path d="M61.5732 86.9352C61.5732 75.1478 69.0895 65.667 80.0811 65.667C85.4954 65.667 90.2645 67.8922 93.4173 71.6845V66.4913H102.39V107.298H93.4173V102.186C90.2645 105.978 85.4954 108.122 80.0811 108.122C69.0895 108.122 61.5732 98.6412 61.5732 86.9352ZM93.4173 86.9352C93.4173 79.7643 88.7281 74.4896 82.355 74.4896C75.564 74.4896 70.715 79.7643 70.715 86.9352C70.715 94.1061 75.564 99.3025 82.355 99.3025C88.6482 99.3025 93.4173 94.1876 93.4173 86.9352Z" fill="black"/>
<path d="M111.846 113.973L115.324 108.203C118.474 111.005 123.163 112.406 127.284 112.406C135.851 112.406 140.054 106.803 140.054 98.4782V98.146C138.435 101.446 134.155 105.154 126.878 105.154C115.816 105.154 108.533 96.4129 108.533 85.4528C108.533 74.4927 115.807 65.667 126.878 65.667C132.941 65.667 138.355 68.5504 140.46 72.5903V66.4913H149.024V97.9799C149.024 112.243 139.652 119.414 128.172 119.414C121.301 119.414 115.564 117.365 111.846 113.973ZM140.054 85.1206C140.054 78.6078 135.123 73.6653 128.817 73.6653C122.512 73.6653 117.666 78.6799 117.666 85.4528C117.666 92.2256 122.515 97.1556 128.817 97.1556C135.285 97.1556 140.054 92.21 140.054 85.1206Z" fill="black"/>
<path d="M155.034 86.9352C155.034 75.2324 164.004 65.667 175.644 65.667C186.309 65.667 194.88 75.1478 194.88 86.603C194.867 87.7896 194.785 88.9743 194.634 90.1509H164.326C165.62 96.6636 170.779 100.042 176.771 100.042C180.815 100.042 185.016 98.7885 188.251 96.4975L191.807 103.261C187.33 106.389 182.041 108.082 176.615 108.125C165.208 108.122 155.034 100.371 155.034 86.9352ZM186.15 83.3905C185.262 77.536 180.652 73.6747 175.155 73.6747C169.986 73.6747 165.46 77.5454 164.246 83.3905H186.15Z" fill="black"/>
<path d="M46.5771 66.4727H55.5468V107.279H46.5771V66.4727Z" fill="black"/>
<path d="M47.5209 51.3971C47.5191 50.393 47.9051 49.4285 48.5951 48.7124C49.2852 47.9962 50.2239 47.586 51.2083 47.5703C52.2002 47.5809 53.1485 47.9875 53.8498 48.7029C54.5512 49.4182 54.9499 50.3855 54.9603 51.3971C54.9449 52.4011 54.5427 53.3586 53.8405 54.0624C53.1384 54.7662 52.1928 55.1598 51.2083 55.1581C50.2303 55.1581 49.2924 54.7618 48.6009 54.0565C47.9094 53.3512 47.5209 52.3946 47.5209 51.3971Z" fill="black"/>
<path d="M201.227 66.47H210.077V72.4875C212.305 68.6952 217.541 65.6426 222.765 65.6426C229.445 65.6426 233.901 68.4445 236.125 73.3933C238.962 68.6137 244.957 65.652 250.024 65.652C260.647 65.652 265.923 72.7633 265.923 83.7892V107.295H257.012V85.0429C257.012 79.3544 254.984 74.4464 247.885 74.4902C241.804 74.5247 238.144 78.6963 238.018 84.6292V107.302H229.107V85.0492C229.107 79.3607 227.512 74.4965 220.061 74.4965C213.721 74.4965 210.181 79.8245 210.114 85.2121V107.308H201.227V66.47Z" fill="black"/>
<path d="M4.96216 13.8965H13.8243V19.9141C16.0521 16.1312 21.2852 13.0723 26.5121 13.0723C33.1925 13.0723 37.6451 15.8742 39.8729 20.823C42.6999 16.0403 48.695 13.0723 53.7499 13.0723C64.3727 13.0723 69.6488 20.1836 69.6488 31.2095V54.7155H60.7345V32.4632C60.7345 26.7747 58.7033 21.8667 51.6081 21.9105C45.5269 21.945 41.8641 26.1165 41.7412 32.0495V54.7218H32.8299V32.4694C32.8299 26.781 31.2351 21.9168 23.7834 21.9168C17.4441 21.9168 13.9042 27.2448 13.8366 32.6324V54.7281H4.96216V13.8965Z" fill="black"/>
</svg>
