<svg width="48" height="48" viewBox="0 0 48 48" fill="none" xmlns="http://www.w3.org/2000/svg">
<rect x="1" y="1" width="46" height="46" rx="23" fill="black" stroke="#F8F8F8" stroke-width="2"/>
<path d="M26.1005 10.9859L23.2606 13.8259L20.4206 10.9859H12.1287V25.5463H20.5126V20.5273L23.2606 23.2753L26.0086 20.5273L26.0098 25.5463H34.3924V10.9859H26.1005Z" fill="#EDE416"/>
<path d="M34.9516 10.9859V25.5487H36.2134V11.8332L34.9516 10.9859Z" fill="#03ABCE"/>
<path d="M24.2281 12.0613L21.2177 10.9859L23.2606 13.0288L24.2281 12.0613Z" fill="#03ABCE"/>
<path d="M28.9344 23.0965C28.9344 22.8194 28.9724 21.7023 28.9724 20.8022C28.9724 20.0444 28.7517 18.6747 28.7517 17.9414C28.7517 17.5012 28.7517 16.9923 28.7333 16.7728C29.084 16.5447 29.4335 16.3105 30.4194 15.7538C30.7713 15.5539 31.4715 15.2363 31.4715 14.6894C31.4715 14.3215 31.1319 13.8016 30.596 13.9168C30.1141 14.0198 30.1263 14.3975 29.3526 14.8758C28.7223 15.2645 28.3863 15.4521 28.2563 15.5244C28.0678 15.4233 27.8571 15.3711 27.6432 15.3724C27.2827 15.3724 26.8621 15.5355 26.8621 16.0039C26.8621 16.2197 26.9307 16.4515 26.6426 16.6023C26.4819 16.7041 25.4825 17.2902 24.6463 17.7942C23.9412 18.2197 23.6138 18.1854 23.3158 18.3644C23.2106 18.4235 23.1231 18.5095 23.0621 18.6136C23.0011 18.7177 22.9689 18.8361 22.9688 18.9567C22.9788 19.101 23.0256 19.2403 23.1049 19.3614C23.2949 19.6066 23.4642 19.7354 23.7621 19.7354C24.2673 19.7354 24.6879 19.2939 25.4678 18.7384C25.9583 18.3926 26.6144 17.896 26.8756 17.896C27.1098 17.896 27.2716 18.0726 27.2716 18.7973C27.2716 21.2191 27.1245 21.6311 27.1245 23.3111C27.1245 23.614 27.1355 24.1695 27.1453 24.4049C27.1564 24.7115 27.1368 25.5858 27.1208 25.9107C27.1098 26.1781 27.3562 27.1039 28.1276 26.9788C28.9307 26.8476 29.1159 26.3718 29.1245 26.0444C29.1331 25.717 29.0669 24.8488 29.0252 24.4049C28.9704 23.9708 28.9397 23.534 28.9332 23.0965" fill="#E84343"/>
<path d="M37.7573 13.2791C37.3722 12.8978 36.8081 12.9603 36.4758 13.1455C35.9853 13.4189 35.604 14.086 35.3722 14.3313C32.8584 16.9616 32.184 19.4386 31.9461 19.9524C31.9264 20.0088 31.8903 20.0581 31.8425 20.0939C31.7947 20.1297 31.7372 20.1505 31.6775 20.1535C31.5709 20.1535 31.4715 20.0922 31.4323 19.9229C31.3256 19.4177 31.2582 18.5508 31.176 17.4398C31.1319 16.8487 30.6941 16.5814 30.1545 16.72C29.6346 16.8549 29.3979 17.1872 29.4421 17.7733C29.4764 18.2307 29.5819 18.6808 29.8541 19.9168C29.9203 20.2197 30.4905 22.769 30.9872 23.4839C31.5905 24.3521 32.6794 24.0492 32.6965 23.2841C32.7016 22.8644 32.7618 22.4471 32.8756 22.0431C33.3207 20.503 33.9056 19.4925 34.363 18.5814C35.3967 16.5213 36.5703 15.5673 36.5703 15.5673C37.6273 15.2178 37.859 14.6783 37.9191 14.5054C37.9927 14.3129 38.1165 13.647 37.7499 13.2791" fill="#E84343"/>
<path d="M21.0717 25.5478H22.3335V23.1456L21.0717 21.8826V25.5478Z" fill="#05ABCE"/>
<path d="M25.4409 23.2755V21.8923L24.0577 23.2755H25.4409Z" fill="#05ABCE"/>
<path d="M36.1828 28.1779H12V37.3502H36.1828V28.1779Z" fill="#EDE416"/>
<path d="M22.6279 30.1938H23.6714V35.2986H22.6279V32.9884H20.5641V35.2986H19.5218V30.1938H20.5641V32.0184H22.6279V30.1938Z" fill="#010101"/>
<path d="M26.4513 30.1938C28.081 30.1938 29.0264 31.1417 29.0264 32.7419C29.0264 34.3422 28.0847 35.2986 26.4513 35.2986H24.7064V30.1938H26.4513ZM26.4513 34.3716C27.4433 34.3716 27.9069 33.7928 27.9069 32.7419C27.9069 31.691 27.4433 31.1208 26.4513 31.1208H25.7499V34.3777L26.4513 34.3716Z" fill="#010101"/>
</svg>
