<svg width="125" height="120" viewBox="0 0 125 120" fill="none" xmlns="http://www.w3.org/2000/svg">
<path fill-rule="evenodd" clip-rule="evenodd" d="M57.3657 65.8302L43.8385 54.6244V75.9653H0.000314394V0H42.6782L57.3657 15.203L72.0532 0H114.955V32.4822C113.599 34.5426 109.451 41.5252 106.66 48.6535C106.523 49.0016 106.398 49.3354 106.28 49.6512L106.279 49.6517C105.605 51.4486 105.147 52.6664 104.124 52.6664C102.829 52.6664 102.697 51.4364 102.575 50.3021L102.568 50.2333C102.298 47.7387 101.729 43.0726 101.466 41.355C100.954 38.0323 100.283 34.5158 96.5115 34.5158C93.7175 34.5158 90.7848 36.0199 90.7848 40.1337C90.7848 42.4612 91.9851 46.5088 94.0348 51.8288C94.477 52.9773 95.9631 56.8112 97.32 60.3118C98.4439 63.2114 99.4792 65.8823 99.7591 66.6087C100.893 69.5516 102.471 70.3529 104.924 70.3529C108.066 70.3529 109.153 69.2175 110.443 64.8855C111.543 61.1909 113.407 55.1712 114.955 51.4002V75.9653H88.1998C87.9707 74.0719 87.6942 71.3355 87.6942 68.9276C87.6942 68.3948 87.7206 67.2868 87.7545 65.862C87.8155 63.2957 87.901 59.7014 87.901 56.5887C87.901 54.5315 87.6726 51.667 87.4461 48.8268L87.4461 48.8265C87.2235 46.034 87.0027 43.2651 87.0027 41.3101C87.0023 40.6269 87.0168 39.8735 87.0313 39.1199C87.0672 37.2607 87.1031 35.4008 86.9138 34.5946C87.8226 34.0172 88.677 33.5371 89.8856 32.8581C91.2332 32.101 93.0212 31.0965 95.816 29.4337C95.9597 29.3481 96.1144 29.2576 96.2771 29.1624C98.0579 28.12 100.808 26.5104 100.808 24.6045C100.808 23.6826 100.561 23.0807 99.2247 22.0028C98.2944 21.2708 97.2952 21.0596 96.1646 21.0596C94.4391 21.0596 93.3167 22.1473 92.1395 23.2881C91.4754 23.9316 90.794 24.592 89.9771 25.0836C86.5276 27.1582 84.695 28.1856 83.9867 28.5709C83.9555 28.5572 83.9137 28.5367 83.8614 28.5111C83.4365 28.303 82.3217 27.757 80.6365 27.757C78.6638 27.757 76.3657 28.63 76.3657 31.1498C76.3654 31.338 76.3751 31.5285 76.3848 31.7191L76.3848 31.7194C76.4348 32.7043 76.4849 33.6918 75.1678 34.3724C74.8008 34.6013 73.8381 35.1551 72.5084 35.92C70.6532 36.9872 68.0837 38.4652 65.421 40.0454C63.0793 41.4345 61.4971 41.9129 60.2517 42.2895C59.4456 42.5333 58.7806 42.7343 58.1421 43.112C56.6397 44.0048 56.2479 45.1157 56.2479 46.0786C56.2479 46.9358 56.7952 48.0113 56.9899 48.2532C58.0236 49.5549 58.9538 50.2632 60.5861 50.2632C62.6803 50.2632 64.5077 48.8957 67.1293 46.9339C67.9642 46.3091 68.8796 45.6241 69.9098 44.9038C70.3329 44.6078 70.7503 44.31 71.159 44.0185L71.1592 44.0183L71.1595 44.0182C73.3232 42.4748 75.2401 41.1076 76.441 41.1076C77.7191 41.1076 78.6053 42.0539 78.6053 45.9494C78.6053 53.0565 78.3659 56.9013 78.1482 60.3957C77.9669 63.3066 77.8008 65.9745 77.8008 70.0827C77.8008 71.7082 77.8609 74.7133 77.9202 75.9653H70.8929V54.6244L57.3657 65.8302ZM117.946 28.1817V0L124.999 4.16733V19.6067C123.265 21.3803 119.642 25.7178 117.946 28.1817ZM124.999 75.9665H117.946V45.12C119.453 41.914 123.089 36.2835 124.999 33.8086V75.9665ZM67.9041 64.9856V60.9553L61.7239 66.0705H66.5876L67.9041 64.9856ZM52.6376 65.7572V75.9655H46.8275V60.9477L52.6376 65.7572ZM57.3657 10.9387L46.8457 0.052003L60.1974 5.82039L61.2535 6.91482L57.3657 10.9387ZM-0.000488281 120H124.993V78.9074H-0.000488281V120ZM97.8769 110.416H107.022C108.135 110.416 109.136 110.335 110.026 110.17C110.915 110.005 111.762 109.738 112.562 109.366C113.542 108.905 114.437 108.31 115.248 107.577C116.062 106.846 116.751 106.002 117.318 105.05C117.885 104.097 118.325 103.06 118.637 101.931C118.949 100.806 119.104 99.64 119.104 98.4369C119.104 96.9721 118.916 95.6303 118.536 94.4161C118.159 93.2019 117.568 92.1587 116.768 91.2818C115.967 90.4079 114.943 89.7288 113.698 89.2489C112.451 88.7659 110.961 88.5256 109.225 88.5256H101.415L97.8769 110.416ZM74.1373 110.416H80.1461L81.546 101.849H88.8224C88.9578 101.849 89.1454 101.828 89.3897 101.785L89.2215 102.276C89.2006 102.388 89.1678 102.572 89.1237 102.834L87.9218 110.416H93.9282L97.4683 88.5256H91.4595L90.1245 96.7318H82.8152C82.7038 96.7318 82.526 96.7531 82.2816 96.7964L82.4146 96.3032C82.4586 96.1937 82.5035 96.0093 82.5476 95.7469L83.7167 88.5256H77.675L74.1373 110.416ZM53.2455 110.416L56.784 88.5256H69.7006L68.8978 93.547H62.0901L61.5556 96.5017C61.5324 96.6113 61.4883 96.7854 61.4226 97.0257C61.667 96.9824 61.8441 96.9595 61.957 96.9595H68.3328L67.4643 101.849H60.7207L60.2888 104.41L60.1886 104.968C60.1646 105.078 60.1205 105.242 60.0532 105.461C60.2992 105.416 60.4763 105.394 60.5877 105.394H66.8953L66.0949 110.416H53.2455ZM32.2663 88.5256L38.2078 110.416H43.4803L55.2279 88.5256H48.4202L44.082 98.2076C43.792 98.8427 43.5508 99.384 43.3633 99.8315C43.1758 100.281 43.0027 100.707 42.8457 101.112C42.6902 101.515 42.534 101.937 42.3785 102.377C42.2223 102.812 42.0452 103.34 41.8457 103.951L41.679 103.918C41.5893 103.262 41.5179 102.711 41.4619 102.26C41.4066 101.812 41.3393 101.373 41.2607 100.947L41.2262 100.759C41.1582 100.389 41.0874 100.003 41.0107 99.6022C40.9218 99.1311 40.7992 98.5464 40.6429 97.8452L38.675 88.5256H32.2663ZM27.3064 110.416H21.2992L24.8369 88.5256H30.8777L27.3064 110.416ZM6.67259 110.416H19.2864L20.1213 105.263H13.9819C13.8681 105.263 13.6918 105.285 13.4474 105.328C13.5131 105.111 13.558 104.947 13.5804 104.837C13.6021 104.727 13.6349 104.541 13.6806 104.279L16.2503 88.5256H10.2086L6.67259 110.416ZM112.58 101.489C112.212 102.518 111.705 103.349 111.061 103.984C110.548 104.488 109.933 104.849 109.208 105.065C108.487 105.286 107.556 105.395 106.422 105.395H105.12C105.03 105.395 104.887 105.416 104.686 105.462C104.754 105.243 104.797 105.078 104.819 104.966L104.919 104.411L106.723 93.4493H108.391C109.925 93.4493 111.1 93.8433 111.913 94.6304C112.725 95.4176 113.131 96.5656 113.131 98.0776C113.131 99.3233 112.947 100.462 112.58 101.489Z" fill="#51F639"/>
</svg>
