<svg width="48" height="48" viewBox="0 0 48 48" fill="none" xmlns="http://www.w3.org/2000/svg">
<rect x="1" y="1" width="46" height="46" rx="23" fill="black" stroke="#F8F8F8" stroke-width="2"/>
<path d="M26.2015 15L22.9083 18.2932L19.6151 15H10V31.8841H19.7218V26.0641L22.9083 29.2506L26.0949 26.0641L26.0963 31.8841H35.8167V15H26.2015Z" fill="#EDE416"/>
<path d="M36.4651 15V31.8869H37.9283V15.9826L36.4651 15Z" fill="#03ABCE"/>
<path d="M24.0302 16.247L20.5394 15L22.9083 17.3689L24.0302 16.247Z" fill="#03ABCE"/>
<path d="M29.4877 29.0431C29.4877 28.7218 29.5317 27.4264 29.5317 26.3827C29.5317 25.5039 29.2758 23.9156 29.2758 23.0653C29.2758 22.5548 29.2758 21.9647 29.2545 21.7102C29.6611 21.4457 30.0664 21.1741 31.2096 20.5286C31.6177 20.2968 32.4297 19.9285 32.4297 19.2943C32.4297 18.8678 32.0358 18.2649 31.4144 18.3985C30.8556 18.518 30.8698 18.9559 29.9725 19.5105C29.2417 19.9612 28.8521 20.1788 28.7013 20.2627C28.4828 20.1454 28.2384 20.0848 27.9904 20.0864C27.5723 20.0864 27.0846 20.2755 27.0846 20.8187C27.0846 21.0689 27.1642 21.3377 26.8301 21.5126C26.6438 21.6306 25.4849 22.3103 24.5152 22.8947C23.6975 23.3881 23.3179 23.3483 22.9724 23.5559C22.8504 23.6244 22.7489 23.7241 22.6782 23.8448C22.6075 23.9655 22.5701 24.1028 22.5699 24.2427C22.5816 24.41 22.6359 24.5716 22.7278 24.7119C22.9482 24.9963 23.1444 25.1456 23.4899 25.1456C24.0758 25.1456 24.5635 24.6337 25.4678 23.9896C26.0366 23.5886 26.7974 23.0127 27.1002 23.0127C27.3718 23.0127 27.5595 23.2175 27.5595 24.0578C27.5595 26.8661 27.3889 27.3439 27.3889 29.292C27.3889 29.6432 27.4017 30.2873 27.4131 30.5603C27.4259 30.9158 27.4031 31.9297 27.3846 32.3065C27.3718 32.6165 27.6576 33.69 28.552 33.545C29.4834 33.3928 29.6981 32.8411 29.7081 32.4615C29.718 32.0818 29.6412 31.0751 29.5929 30.5603C29.5294 30.057 29.4938 29.5504 29.4862 29.0431" fill="#E84343"/>
<path d="M39.7185 17.6591C39.272 17.2169 38.6179 17.2894 38.2326 17.5041C37.6638 17.8212 37.2216 18.5947 36.9528 18.8791C34.0379 21.9292 33.2558 24.8015 32.9799 25.3973C32.9571 25.4627 32.9153 25.5198 32.8598 25.5614C32.8044 25.6029 32.7378 25.627 32.6685 25.6305C32.5448 25.6305 32.4297 25.5594 32.3842 25.3631C32.2604 24.7773 32.1822 23.772 32.087 22.4837C32.0358 21.7983 31.5281 21.4884 30.9025 21.649C30.2996 21.8055 30.0252 22.1908 30.0763 22.8705C30.1162 23.4009 30.2384 23.9227 30.5541 25.356C30.6309 25.7072 31.2921 28.6635 31.868 29.4924C32.5676 30.4992 33.8303 30.148 33.8502 29.2607C33.8561 28.774 33.9259 28.2902 34.0578 27.8217C34.5739 26.0357 35.2522 24.864 35.7826 23.8075C36.9813 21.4187 38.3421 20.3124 38.3421 20.3124C39.5678 19.9072 39.8365 19.2815 39.9062 19.081C39.9915 18.8578 40.1351 18.0857 39.71 17.6591" fill="#E84343"/>
<path d="M20.3702 31.8857H21.8334V29.1001L20.3702 27.6355V31.8857Z" fill="#05ABCE"/>
<path d="M25.4366 29.2508V27.6468L23.8326 29.2508H25.4366Z" fill="#05ABCE"/>
</svg>
