<svg width="48" height="48" viewBox="0 0 48 48" fill="none" xmlns="http://www.w3.org/2000/svg">
<rect x="1" y="1" width="46" height="46" rx="23" fill="white" stroke="#F8F8F8" stroke-width="2"/>
<path fill-rule="evenodd" clip-rule="evenodd" d="M35.952 23.5201H34.1556V18H35.952V23.5201ZM34.1317 27V24.312H36V29.9521H34.0359L32.8383 28.0321L31.6406 29.9521H29.7963V24.312H31.5688V27L32.8622 25.08L34.1317 27ZM29.2454 27.1201V27.096C29.2454 25.5121 27.9521 24.24 26.2514 24.24C24.5748 24.24 23.2575 25.536 23.2575 27.1441C23.2575 28.7281 24.5508 30 26.2514 30C27.9281 30 29.2454 28.7281 29.2454 27.1201ZM26.2514 25.8721C26.9461 25.8721 27.4011 26.472 27.4011 27.1441C27.4011 27.792 26.9699 28.368 26.2754 28.368C25.5808 28.368 25.1258 27.7682 25.1258 27.1201V27.096C25.1258 26.448 25.5568 25.8721 26.2514 25.8721ZM21.0059 26.2561H19.1856V24.312H17.4132V29.9521H19.1856V28.008H21.0059V29.9521H22.7305V24.312H21.0059V26.2561ZM14.4911 25.704C14.8981 25.704 15.2815 25.8482 15.7366 26.0641L16.9341 24.984C16.3114 24.5041 15.4731 24.2641 14.4192 24.2641C12.8863 24.2641 12 25.08 12 26.16C12 27.1201 12.7666 27.5281 13.7006 27.792C13.8443 27.8161 14.1797 27.8881 14.1797 27.8881C14.7784 28.008 14.9221 28.1041 14.9221 28.248V28.2721C14.9221 28.4161 14.7544 28.536 14.4911 28.536C14.0838 28.536 13.6768 28.392 13.2455 28.176L12.024 29.2799C12.6468 29.7601 13.4611 30 14.4911 30C16.024 30 16.8863 29.1841 16.8863 28.1041V28.08C16.8863 27.1201 16.1437 26.712 15.2095 26.448C15.0658 26.4241 14.7784 26.3521 14.7784 26.3521C14.1797 26.232 14.0838 26.1361 14.0838 25.992V25.9681C14.0838 25.824 14.2035 25.704 14.4911 25.704ZM30.2036 23.5201H32V19.56H33.5568V18H28.6467V19.56H30.2036V23.5201ZM29.485 21.9601H26.8502V18H25.0538V23.5201H29.485V21.9601ZM21.7246 23.64C23.3772 23.64 24.503 22.8961 24.503 21V18H22.515V20.9761C22.515 21.696 22.2036 21.9601 21.7246 21.9601C21.2455 21.9601 20.9341 21.6481 20.9341 20.928V18H18.9701V21.024C18.9701 22.8721 20.0718 23.64 21.7246 23.64ZM15.2575 22.8001L13.9641 20.8801V23.472H12.1437V18H14.0598L15.2575 19.92L16.455 18H18.2993V23.472H16.5749V20.8801L15.2575 22.8001Z" fill="#EF4E75"/>
</svg>
