<svg width="48" height="48" viewBox="0 0 48 48" fill="none" xmlns="http://www.w3.org/2000/svg">
<rect x="1" y="1" width="46" height="46" rx="23" fill="white" stroke="#F8F8F8" stroke-width="2"/>
<path d="M12.0222 23.0379C12.1022 23.5552 12.3316 23.9889 12.7132 24.349C13.0845 24.6989 13.5383 24.9145 14.0333 24.9779C14.1906 24.9982 16.0933 25.0032 20.6465 24.9982C26.6306 24.9906 27.0508 24.9855 27.2055 24.9449C28.1028 24.704 28.7267 24.0852 28.9536 23.2129C28.9974 23.0481 29 22.6601 29 16.4953L29 9.95264L28.9433 9.73709C28.8634 9.44293 28.6622 9.0524 28.4792 8.83685C28.1518 8.45392 27.7083 8.18005 27.221 8.05832L26.989 8L20.4918 8L13.9946 8L13.7471 8.06593C13.1489 8.23077 12.6565 8.59086 12.3368 9.10058C12.195 9.32881 12.0609 9.69145 12.0222 9.95518C11.9939 10.1631 11.9913 22.8426 12.0222 23.0379ZM15.7736 15.557C15.9876 13.9518 16.6089 12.6128 17.6299 11.5655C18.0811 11.1039 18.4962 10.7819 19.0428 10.475C19.4347 10.2519 20.0818 9.98815 20.4325 9.90446L20.5047 9.88925L20.5047 10.153L20.5047 10.4167L20.4325 10.4345C20.2675 10.475 19.8498 10.6424 19.5662 10.7819C17.8646 11.6137 16.6786 13.2696 16.3305 15.2907C16.1629 16.262 16.199 17.3778 16.4285 18.2958C16.8745 20.081 17.9651 21.458 19.5327 22.2137C19.726 22.3101 20.0251 22.4293 20.1953 22.4825L20.5021 22.5814L20.5047 22.8401C20.5047 22.9847 20.4944 23.1013 20.4841 23.1013C20.4376 23.1013 20.0122 22.9694 19.7828 22.8807C17.8981 22.1706 16.5007 20.5933 15.967 18.5696C15.8432 18.1005 15.7994 17.8342 15.7246 17.0785C15.7014 16.8579 15.7349 15.8436 15.7736 15.557ZM17.9625 15.8613C18.1378 15.0802 18.5684 14.4184 19.2027 13.9568C20.1386 13.2772 21.3968 13.1504 22.4616 13.6322C23.0803 13.9112 23.6733 14.4767 23.9802 15.0752C24.2096 15.524 24.305 15.9475 24.305 16.4953C24.305 16.9441 24.2689 17.1724 24.1348 17.5477C23.926 18.136 23.5367 18.6559 23.0185 19.0388C22.771 19.2214 22.2708 19.4598 21.982 19.5358C21.0358 19.7818 20.0612 19.622 19.2749 19.0895C19.017 18.9171 18.6483 18.5544 18.473 18.3008C18.2023 17.9154 18.0167 17.4564 17.9367 16.9771C17.8929 16.7235 17.9084 16.1073 17.9625 15.8613Z" fill="#664797"/>
<path d="M18.4576 16.9746C18.5633 17.5021 18.803 17.9509 19.1846 18.3389C20.2133 19.3862 21.8763 19.4192 22.9566 18.4175C23.8126 17.6212 24.0446 16.3888 23.5341 15.3516C23.1861 14.6466 22.5518 14.1344 21.7706 13.9264C21.5566 13.8706 21.4689 13.863 21.1106 13.8605C20.7367 13.858 20.6748 13.8656 20.4428 13.929C19.4012 14.213 18.6535 15.0042 18.455 16.0338C18.4086 16.2772 18.4086 16.7362 18.4576 16.9746ZM19.3084 16.0591C19.329 15.978 19.3986 15.803 19.4656 15.6711C19.6874 15.2223 20.1463 14.8571 20.6491 14.7328C21.0667 14.6263 21.5772 14.6821 21.9459 14.8723C22.8483 15.3389 23.2144 16.3913 22.7838 17.284C22.5544 17.7607 22.1006 18.136 21.5875 18.273C21.3607 18.3313 20.8631 18.3313 20.6336 18.273C19.9194 18.0878 19.3883 17.4944 19.2645 16.7489C19.2388 16.5866 19.2594 16.2442 19.3084 16.0591Z" fill="#664797"/>
<path d="M13.5031 28.1179C12.7862 28.3028 12.3376 28.7237 12.0971 29.4498C12.0046 29.718 12 29.8337 12 31.3783V33.0201H12.962L12.9805 31.5032C13.0036 30.1019 13.0128 29.9724 13.1007 29.7412C13.2903 29.2556 13.6233 29.0659 14.2893 29.0659C14.9552 29.0659 15.2882 29.2556 15.4778 29.7412C15.5657 29.9724 15.575 30.1065 15.5981 31.5032L15.6212 33.0201H16.6155L16.634 31.4801C16.6572 29.7828 16.671 29.6764 16.9578 29.3804C17.1705 29.1631 17.4573 29.0659 17.8966 29.0659C18.3868 29.0659 18.6782 29.1538 18.8956 29.3712C19.1731 29.6487 19.1869 29.7273 19.2008 31.457L19.2193 33.0201H20.2876L20.2645 31.4338C20.246 30.1389 20.2275 29.8013 20.1628 29.5747C19.8853 28.5896 19.2286 28.0947 18.1186 28.0392C17.3601 27.9976 16.7265 28.178 16.3103 28.5526L16.1207 28.7237L15.871 28.5202C15.3114 28.067 14.3309 27.8959 13.5031 28.1179Z" fill="#664797"/>
<path d="M20.986 29.5839C20.9998 30.8419 21.0183 31.2072 21.0831 31.4431C21.356 32.4975 22.1052 33.0201 23.3307 33.0201C24.1123 33.0201 24.7274 32.7981 25.0974 32.3773C25.3286 32.1137 25.4211 31.9379 25.5553 31.494C25.6524 31.1656 25.657 31.0731 25.6616 29.5978L25.6663 28.0485L24.6257 28.0207V29.4313C24.6257 30.8835 24.5979 31.1795 24.4361 31.5032C24.2603 31.8454 23.7701 32.0351 23.1689 31.9888C22.6185 31.9472 22.3364 31.7853 22.1607 31.4015C22.0682 31.2072 22.0635 31.1008 22.045 29.607L22.0265 28.0254H20.9628L20.986 29.5839Z" fill="#664797"/>
<path d="M27.7011 28.0716C26.7993 28.252 26.3831 28.7237 26.3831 29.5654C26.3877 30.5366 26.9519 30.9529 28.418 31.0546C29.0007 31.0962 29.2597 31.1702 29.3337 31.3275C29.4123 31.4801 29.3753 31.7298 29.2597 31.8316C29.2181 31.8686 29.0978 31.9241 28.9961 31.9518C28.7556 32.0166 28.0526 32.0166 27.789 31.9518C27.5716 31.8963 27.4005 31.7298 27.4005 31.5818C27.4005 31.5032 27.3589 31.494 26.8918 31.494H26.3831V31.7113C26.3877 32.0998 26.6421 32.516 27.0167 32.7473C27.5855 33.0988 29.0886 33.1219 29.7083 32.7889C29.8979 32.6872 30.18 32.405 30.2818 32.2154C30.4205 31.9426 30.4483 31.2951 30.3373 30.9945C30.0968 30.3655 29.699 30.1528 28.5475 30.0325C27.678 29.9446 27.5161 29.8984 27.4468 29.7319C27.382 29.5839 27.419 29.3111 27.5069 29.2324C27.6133 29.1492 28.1035 29.0428 28.3949 29.0428C28.6862 29.0428 29.1764 29.1492 29.2782 29.2324C29.3106 29.2602 29.3522 29.3434 29.3661 29.4174L29.3984 29.5515H30.4066V29.3758C30.4066 29.1261 30.291 28.8116 30.1245 28.6127C29.81 28.2289 29.1857 28.0207 28.3764 28.03C28.1081 28.0346 27.8029 28.0531 27.7011 28.0716Z" fill="#664797"/>
<path d="M30.9617 33.0201H32.0254V28.0254H30.9617V33.0201Z" fill="#664797"/>
<path d="M34.2129 28.1132C33.1769 28.3953 32.6728 29.1816 32.6728 30.5227C32.6728 32.1923 33.4498 33.0201 35.0084 33.0201C36.0166 33.0201 36.6825 32.6687 37.0433 31.9472C37.293 31.4385 37.2976 31.4477 36.6872 31.4477H36.1646L36.0304 31.6142C35.8501 31.8408 35.5587 31.9611 35.1286 31.9888C34.3933 32.0397 33.903 31.7483 33.7782 31.1841C33.6995 30.8419 33.6995 30.1528 33.7782 29.8429C33.9077 29.3296 34.31 29.0706 34.9852 29.0659C35.4708 29.0659 35.7483 29.1584 35.9888 29.3989L36.1923 29.5978H36.6964C37.293 29.5978 37.2976 29.5932 37.0664 29.1307C36.6918 28.3953 36.1183 28.0762 35.1009 28.0439C34.6523 28.03 34.4811 28.0439 34.2129 28.1132Z" fill="#664797"/>
<path d="M12 36.1091C12 38.1995 12 38.2087 12.3931 38.6018C12.6891 38.8932 12.9573 38.9857 13.5262 38.9857C14.0442 38.9857 14.3355 38.8978 14.6084 38.6573C14.9645 38.3428 15.0986 37.9775 15.0986 37.3208C15.0986 36.664 14.9645 36.2987 14.6084 35.9842C14.3124 35.7252 14.0442 35.6512 13.3088 35.6235L12.6983 35.5957L12.6706 34.3378L12 34.31V36.1091ZM14.0673 36.4698C14.3124 36.6548 14.3725 36.8213 14.3725 37.3161C14.3725 37.9081 14.2661 38.1162 13.9008 38.2411C13.5123 38.3706 13.0313 38.2688 12.8417 38.0191C12.7215 37.8665 12.7168 37.8341 12.6937 37.0988L12.6706 36.3403L13.3042 36.3588C13.8592 36.3727 13.9517 36.3866 14.0673 36.4698Z" fill="#664797"/>
<path d="M22.1838 36.1049C22.2023 38.1722 22.2023 38.1814 22.6185 38.5976C22.7943 38.778 22.9099 38.852 23.1087 38.9121C23.4371 39.0046 24.0707 39.0092 24.3806 38.9168C24.695 38.8243 25.0419 38.5098 25.1853 38.1907C25.287 37.9733 25.2963 37.8808 25.2963 37.3212C25.2963 36.7616 25.287 36.6691 25.1853 36.4517C25.0419 36.1373 24.695 35.8181 24.3806 35.721C24.2326 35.6748 23.895 35.6378 23.5065 35.6239L22.8683 35.5961V34.3151H22.1699L22.1838 36.1049ZM24.2881 36.4702C24.3574 36.5211 24.4546 36.6367 24.4962 36.7246C24.6812 37.09 24.6396 37.7929 24.4176 38.0519C24.2326 38.2739 23.7608 38.3572 23.3724 38.2415C23.0024 38.1305 22.9099 37.8993 22.8821 37.0067L22.8544 36.3407L23.5065 36.3592C24.0753 36.3731 24.1724 36.387 24.2881 36.4702Z" fill="#664797"/>
<path d="M35.5171 38.1305L35.6327 38.3387C35.7668 38.5745 36.0675 38.8196 36.3172 38.8936C36.4097 38.926 36.6502 38.9584 36.849 38.9722L37.2052 39V38.2924H37.0664C36.8074 38.2924 36.4513 38.1907 36.3403 38.0797L36.2339 37.9733V34.3151H35.4894L35.5171 38.1305Z" fill="#664797"/>
<path d="M16.4537 35.6748C16.2964 35.7118 16.1253 35.7673 16.0698 35.795C15.8987 35.8875 15.6073 36.1743 15.5287 36.3222C15.2605 36.8356 15.2651 37.8068 15.5287 38.3202C15.6443 38.5468 16.0097 38.8381 16.2687 38.9168C16.5693 39.0046 17.2353 39.0046 17.5313 38.9168C17.7902 38.8428 18.0955 38.6023 18.2435 38.3618C18.5441 37.8762 18.5441 36.7662 18.2435 36.2806C17.9244 35.7626 17.1844 35.5129 16.4537 35.6748ZM17.4434 36.4702C17.6839 36.6506 17.7394 36.831 17.7255 37.3721C17.7116 37.8207 17.7024 37.8762 17.5868 38.0242C17.3833 38.2924 16.7913 38.3803 16.4213 38.1953C16.1438 38.0612 16.0929 37.927 16.0929 37.3258C16.0929 36.8032 16.0976 36.7755 16.2224 36.6136C16.3797 36.4055 16.5508 36.35 16.9855 36.3685C17.2306 36.3777 17.3555 36.4055 17.4434 36.4702Z" fill="#664797"/>
<path d="M18.7522 35.6378C18.7522 35.6563 18.9927 36.0309 19.2841 36.4749C19.5847 36.9327 19.8021 37.3073 19.7836 37.3397C19.7651 37.3674 19.52 37.7328 19.2378 38.1537C18.9604 38.5745 18.7245 38.9306 18.7152 38.9491C18.706 38.9722 18.891 38.9861 19.1315 38.9861H19.5616L19.9084 38.4589L20.2507 37.9363L20.6022 38.4589L20.949 38.9861H21.8046L21.5364 38.5791C21.3884 38.3572 21.1386 37.9872 20.9814 37.7513C20.8241 37.5154 20.6947 37.3119 20.6947 37.2934C20.6947 37.275 20.9351 36.9003 21.2265 36.461C21.5179 36.0216 21.7584 35.647 21.7584 35.6331C21.7584 35.6193 21.5734 35.61 21.3421 35.61H20.9259L20.5883 36.1188L20.246 36.6275L19.9131 36.1188L19.5755 35.61H19.1638C18.9372 35.61 18.7522 35.6239 18.7522 35.6378Z" fill="#664797"/>
<path d="M26.8919 35.6563C26.2629 35.7626 25.9438 35.9476 25.7634 36.3084L25.6432 36.5535V38.9861H26.3276L26.3461 37.8392C26.3554 37.2102 26.3785 36.6599 26.4016 36.6182C26.4571 36.498 26.7207 36.3962 27.0537 36.3639L27.3543 36.3361V35.61L27.2295 35.6146C27.1555 35.6193 27.0075 35.6378 26.8919 35.6563Z" fill="#664797"/>
<path d="M28.7418 35.6378C28.062 35.758 27.7428 36.0078 27.655 36.498L27.6226 36.6737H27.9926C28.3441 36.6737 28.3672 36.6691 28.3811 36.5674C28.3996 36.4379 28.6262 36.3546 28.9962 36.3546C29.3893 36.35 29.6113 36.4194 29.6483 36.5581C29.7223 36.8495 29.5743 36.9281 28.8852 36.9697C28.2007 37.0113 27.84 37.2287 27.6827 37.6866C27.5209 38.1768 27.7891 38.6994 28.3071 38.8936C28.4967 38.963 28.6678 38.9861 29.01 38.9861C29.7176 38.9861 30.083 38.8335 30.2819 38.4635C30.3744 38.2878 30.3836 38.1907 30.3975 37.4599C30.4206 36.461 30.379 36.2297 30.1292 35.98C30.0136 35.8644 29.8656 35.7765 29.7176 35.7303C29.4679 35.6563 28.9268 35.6054 28.7418 35.6378ZM29.6668 37.8484C29.6668 38.0103 29.6436 38.1259 29.5974 38.1722C29.5049 38.26 29.1673 38.3109 28.8343 38.2785C28.4643 38.2462 28.3718 38.186 28.3718 37.9872C28.3718 37.8531 28.3949 37.8207 28.5244 37.7606C28.6031 37.7282 28.8805 37.6773 29.1349 37.6542C29.3893 37.6311 29.6113 37.6079 29.6344 37.6079C29.6529 37.6033 29.6668 37.7097 29.6668 37.8484Z" fill="#664797"/>
<path d="M30.8229 36.35H33.2324L33.2047 36.4517C33.1076 36.7847 32.8532 36.9327 32.3028 36.979C31.7525 37.0206 31.475 37.1362 31.2206 37.4183C30.957 37.7097 30.8645 37.9779 30.8368 38.5329L30.809 38.9861H33.9678V38.2924L32.7653 38.2832L31.5675 38.2693L31.6554 38.075C31.771 37.8114 31.9837 37.7097 32.511 37.6727C33.5007 37.5987 33.9678 37.0761 33.9678 36.0494V35.61H30.8229V36.35Z" fill="#664797"/>
<path d="M34.3378 38.9861H35.0315V35.61H34.3378V38.9861Z" fill="#664797"/>
<path d="M30.9617 27.1004H32.0254V26.0829H30.9617V27.1004Z" fill="#664797"/>
<path d="M34.3378 35.055H35.0315V34.3151H34.3378V35.055Z" fill="#664797"/>
</svg>
