<svg width="48" height="48" viewBox="0 0 48 48" fill="none" xmlns="http://www.w3.org/2000/svg">
<rect x="1" y="1" width="46" height="46" rx="23" fill="white" stroke="#F8F8F8" stroke-width="2"/>
<path fill-rule="evenodd" clip-rule="evenodd" d="M26.2779 18.9258C25.2557 18.9258 24.5017 19.8567 24.5017 21.0265C24.5046 22.2742 25.186 23.2483 26.2779 23.2483C27.37 23.2483 28.0516 22.2742 28.0516 21.0265C28.0516 19.8567 27.3003 18.9258 26.2779 18.9258ZM36.1036 22.6151H37.5176V23.1758H35.39V18.9954H35.3925H36.1036V22.6151ZM23.1762 26.4358C23.1762 27.6834 22.4947 28.6573 21.4028 28.6573C20.3081 28.6573 19.6265 27.6834 19.6292 26.4358C19.6292 25.2632 20.3804 24.3321 21.4028 24.3321C22.425 24.3321 23.1762 25.2659 23.1762 26.4358ZM25.3952 28.0591C25.5857 28.0591 25.7468 28.0377 25.897 27.957V26.6746H26.6135V28.3999C26.2296 28.55 25.8327 28.6573 25.4247 28.6573C24.1958 28.6573 23.4177 27.7023 23.4177 26.4707C23.4177 25.3304 24.1958 24.3323 25.4489 24.3323C25.8379 24.3323 26.2244 24.477 26.463 24.6542L26.2296 25.1505C26.0392 25.0324 25.7414 24.9307 25.4677 24.9307C24.703 24.9307 24.1823 25.5342 24.1823 26.4842C24.1823 27.4742 24.7808 28.0591 25.3952 28.0591ZM43.0555 28.0591C42.3633 28.0591 41.7784 27.4742 41.7784 26.4842C41.7784 25.5342 42.307 24.9307 43.0366 24.9307C43.3131 24.9307 43.5976 25.0567 43.7719 25.1638L44 24.6542C43.7531 24.4878 43.407 24.3323 43.0366 24.3323C41.789 24.3323 41.0192 25.3304 41.0192 26.4707C41.0192 27.7023 41.7944 28.6573 43.026 28.6573C43.3722 28.6573 43.7531 28.5205 43.9704 28.3704L43.7719 27.8497C43.5573 27.9867 43.3104 28.0591 43.0555 28.0591ZM39.8357 28.585H40.5466V24.4046H39.8357V28.585ZM36.946 26.0118H38.4352V24.418H39.1516V28.585H38.4352V26.5726H36.946V28.585H36.2376V24.4046H36.946V26.0118ZM34.4562 27.0073C35.312 27.0073 35.8298 26.315 35.8298 25.6094C35.8298 24.7989 35.3335 24.4046 34.5339 24.4046H33.4177V28.585H34.1343V27.0073H34.4562ZM35.1135 25.6389C35.1135 25.2096 34.8747 24.9654 34.4562 24.9654H34.1343V26.4867L34.1887 26.4844H34.1887L34.1888 26.4844L34.1889 26.4844C34.2628 26.4814 34.3775 26.4768 34.4347 26.4707C34.7755 26.4519 35.1135 26.2023 35.1135 25.6389ZM33.1896 28.585L31.8562 24.4046H31.2606L29.8144 28.585H30.4341L30.799 27.4445H32.0601L32.3874 28.585H33.1896ZM31.9527 26.9321C31.9141 26.795 31.8758 26.6607 31.8375 26.5264C31.7216 26.1194 31.6057 25.7125 31.4806 25.2284H31.4698C31.347 25.7568 31.2134 26.192 31.0779 26.6336L31.0779 26.6337C31.0476 26.7325 31.0172 26.8316 30.9868 26.9321H31.9527ZM29.8036 28.585L28.9611 26.8543C29.4198 26.6102 29.6855 26.1138 29.6855 25.6121C29.6855 24.7989 29.1892 24.4046 28.3895 24.4046H27.2735V28.585H27.9925V27.0073H28.3144L28.9879 28.585H29.8036ZM28.969 25.6389C28.969 25.2096 28.7304 24.9654 28.3065 24.9654H27.9898V26.4867C28.0149 26.4844 28.0592 26.4822 28.1075 26.4797L28.1076 26.4797L28.1076 26.4797C28.1731 26.4763 28.2459 26.4726 28.2877 26.468C28.6284 26.4492 28.969 26.1997 28.969 25.6389ZM21.4028 24.9307C22.1138 24.9307 22.4116 25.6656 22.4116 26.4358C22.4089 27.2353 22.146 28.0591 21.4028 28.0591C20.6543 28.0591 20.3911 27.2353 20.3911 26.4358C20.3911 25.6656 20.689 24.9307 21.4028 24.9307ZM17.9952 26.6718H19.165V26.1111H17.9952V24.9654H19.1892V24.4046H17.276V28.585H19.4038V28.0215H17.9952V26.6718ZM15.9104 27.957C15.7601 28.0377 15.5992 28.0591 15.4087 28.0591C14.7943 28.0591 14.1958 27.4742 14.1958 26.4842C14.1958 25.5342 14.7163 24.9307 15.4811 24.9307C15.7547 24.9307 16.0552 25.0324 16.2457 25.1505L16.4792 24.6542C16.2404 24.477 15.8514 24.3323 15.4649 24.3323C14.2093 24.3323 13.4338 25.3304 13.4338 26.4707C13.4338 27.7023 14.2092 28.6573 15.4409 28.6573C15.846 28.6573 16.2457 28.55 16.6295 28.3999V26.6746H15.9104V27.957ZM32.4303 23.1758H31.8079L33.2541 18.9954H33.8471L35.1804 23.1758H34.3809L34.0538 22.0354H32.7925L32.4303 23.1758ZM33.949 21.5231H32.9804C33.0063 21.4389 33.032 21.3558 33.0577 21.273L33.0579 21.2725L33.058 21.2721L33.0581 21.2717L33.0582 21.2714L33.0583 21.2711L33.0584 21.2707L33.0585 21.2703L33.0586 21.27L33.0587 21.2699C33.2005 20.8126 33.339 20.3658 33.4662 19.8191H33.4768C33.6051 20.3179 33.7238 20.7336 33.8428 21.15L33.8428 21.1501C33.8781 21.2736 33.9134 21.3972 33.949 21.5231ZM29.0604 23.1784H28.4889V18.9954H29.0093C29.6909 19.9507 30.3644 20.9005 31.0325 21.9764H31.0458V18.9954H31.6201L31.6174 23.1784H31.097L31.0872 23.1646L31.0871 23.1645L31.087 23.1644C30.4088 22.2058 29.7359 21.2548 29.0657 20.1788H29.0604V23.1784ZM25.2692 21.0238C25.2692 21.8262 25.5295 22.6499 26.2779 22.6499C27.0239 22.6499 27.2868 21.8262 27.2868 21.0238C27.2868 20.2538 26.989 19.5188 26.2779 19.5188C25.567 19.5188 25.2692 20.2538 25.2692 21.0238ZM24.0671 23.1758H23.3562V18.9954H24.0671V23.1758ZM21.3089 23.1784L22.0252 23.1758V19.5562H23.1225V18.9954H20.2087V19.5562H21.3089V23.1784ZM19.5057 22.0354L19.8331 23.1758H20.6354L19.3019 18.9954H18.7062L17.2627 23.1758H17.8825L18.2447 22.0354H19.5057ZM19.4011 21.5231C19.3657 21.3978 19.3305 21.2748 19.2954 21.1519L19.2954 21.1519C19.1763 20.7348 19.0574 20.3187 18.929 19.8191H18.9155C18.7928 20.3472 18.6594 20.7821 18.524 21.2234L18.524 21.2234L18.524 21.2235C18.4935 21.3227 18.463 21.4221 18.4325 21.5231H19.4011ZM16.4927 21.9764V18.9954H17.0668L17.0695 23.1784H16.5517L16.5419 23.1646C15.8636 22.206 15.1907 21.2549 14.5204 20.1788H14.5152V23.1784H13.9411V18.9954H14.4587C15.1403 19.9507 15.8138 20.9005 16.482 21.9764H16.4927Z" fill="#241F21"/>
<path fill-rule="evenodd" clip-rule="evenodd" d="M12.189 29.7306H4V18H12.189V29.7306ZM11.0003 28.55H5.17794V19.1806H11.0003V28.55Z" fill="#FFCC00"/>
</svg>
