<svg width="48" height="48" viewBox="0 0 48 48" fill="none" xmlns="http://www.w3.org/2000/svg">
<rect x="1" y="1" width="46" height="46" rx="23" fill="white" stroke="#F8F8F8" stroke-width="2"/>
<path fill-rule="evenodd" clip-rule="evenodd" d="M39.7265 20.6567C39.2843 20.0772 38.4453 19.9577 37.8525 20.39C37.8486 20.3928 37.8449 20.3955 37.8412 20.3983L34.0395 23.2307L34.4358 21.8297C34.6755 21.1398 34.2975 20.3906 33.5918 20.1564C32.8859 19.9223 32.1194 20.2919 31.8801 20.9819C31.8663 21.0213 31.8544 21.0615 31.8446 21.1021L30.0602 27.2703C29.8542 27.9724 30.2678 28.7053 30.9853 28.9092C31.1066 28.9426 31.2318 28.9598 31.3576 28.9603C31.9599 28.9567 32.4874 28.5645 32.6515 27.998L33.4238 25.3389C33.4368 25.3533 33.4507 25.3669 33.4655 25.3797C33.4829 25.4001 33.4934 25.4238 33.5107 25.4409L36.4326 28.5352C36.9322 29.0682 37.7792 29.1046 38.3245 28.6162C38.3281 28.6131 38.3315 28.6099 38.3351 28.6067C38.8815 28.1071 38.9127 27.2699 38.4046 26.7329L36.502 24.7132L39.4657 22.5098C40.0594 22.0676 40.1759 21.2394 39.7265 20.6567ZM28.3635 20.1828C28.361 20.1821 28.3583 20.1813 28.3558 20.1807C27.641 19.981 26.8959 20.3859 26.6918 21.0846C26.691 21.0871 26.6904 21.0895 26.6898 21.0918L26.0532 23.2919H23.0167L23.4445 21.8297C23.7326 21.1578 23.409 20.3848 22.7216 20.1029C22.0343 19.8212 21.2434 20.1376 20.9552 20.8097C20.9163 20.9003 20.8877 20.9951 20.8705 21.0918L19.0548 27.2703C18.8415 27.9704 19.2493 28.7071 19.9654 28.9155C20.091 28.952 20.2212 28.9705 20.3522 28.9704C20.9554 28.9693 21.484 28.5761 21.646 28.0082L22.286 25.8115H25.3227L24.8948 27.2703C24.689 27.9724 25.1025 28.7053 25.8201 28.9092C25.9408 28.9462 26.066 28.9667 26.1924 28.9704C26.7921 28.9639 27.316 28.5723 27.4793 28.0082L29.281 21.8297C29.4929 21.1273 29.0821 20.3898 28.3635 20.1828ZM18.2791 21.8297L16.4912 28.0388C16.401 28.3564 16.1917 28.6292 15.905 28.8029C15.2747 29.1848 14.4471 28.9949 14.0565 28.3788L11.6215 24.6384L10.6443 28.0082C10.48 28.5748 9.95252 28.967 9.35032 28.9704C9.22389 28.9667 9.09871 28.9462 8.97809 28.9092C8.26044 28.7053 7.84695 27.9724 8.05291 27.2703L9.84758 21.0918C9.98875 20.5878 10.4189 20.2113 10.9467 20.1296C11.4739 20.058 11.9946 20.2965 12.2755 20.7382L14.7103 24.4616L15.6877 21.0918C15.6879 21.0917 15.6879 21.0914 15.6881 21.0911C15.8909 20.39 16.6368 19.9824 17.3539 20.1807C17.3565 20.1813 17.359 20.1821 17.3615 20.1828C18.0802 20.3898 18.491 21.1273 18.2791 21.8297Z" fill="#808080"/>
</svg>
