<svg width="48" height="48" viewBox="0 0 48 48" fill="none" xmlns="http://www.w3.org/2000/svg">
<rect x="1" y="1" width="46" height="46" rx="23" fill="white" stroke="#F8F8F8" stroke-width="2"/>
<path fill-rule="evenodd" clip-rule="evenodd" d="M42.0095 22.9512C42.5604 22.9512 43.03 23.1484 43.418 23.5426C43.806 23.9318 44 24.4076 44 24.9701V26.8269H42.4913V25.0002C42.4913 24.7842 42.4444 24.5997 42.3505 24.4465C42.2565 24.2934 42.1429 24.2167 42.0096 24.2167C41.8785 24.2167 41.7661 24.2934 41.6721 24.4465C41.5783 24.5997 41.5313 24.7842 41.5313 25.0002V26.8269H40.0228V24.9701C40.0228 24.4076 40.2167 23.9318 40.6047 23.5426C40.99 23.1484 41.4583 22.9512 42.0095 22.9512ZM39.8463 24.9736C39.8463 24.4163 39.6523 23.9403 39.2644 23.5461C38.8764 23.1494 38.4069 22.951 37.8559 22.951C37.3048 22.951 36.8351 23.1495 36.4473 23.5461C36.0593 23.9405 35.8652 24.4163 35.8652 24.9736C35.8652 25.5336 36.0593 26.0107 36.4473 26.4048C36.5016 26.4627 36.5411 26.499 36.5659 26.514C36.9365 26.8354 37.3628 26.9962 37.8448 26.9962H37.8633C38.3473 26.9962 38.7764 26.8366 39.1495 26.5177C39.1495 26.5154 39.1641 26.5002 39.1939 26.4726C39.2285 26.4399 39.2519 26.4174 39.2644 26.4047C39.6523 26.0106 39.8463 25.5334 39.8463 24.9736ZM38.1931 24.3332C38.2895 24.5115 38.3376 24.725 38.3376 24.9736C38.3376 25.2248 38.2895 25.4394 38.1931 25.6177C38.0991 25.796 37.9867 25.8851 37.8557 25.8851C37.7248 25.8851 37.6111 25.7961 37.5148 25.6177C37.4233 25.4368 37.3776 25.2221 37.3776 24.9736C37.3776 24.7275 37.4233 24.5141 37.5148 24.3332C37.6111 24.1551 37.7248 24.0659 37.8557 24.0659C37.9868 24.0659 38.0991 24.1551 38.1931 24.3332ZM35.6584 24.6234C35.6708 24.7288 35.6769 24.8268 35.6769 24.9171C35.6769 25.0175 35.6695 25.108 35.6547 25.1884H33.3157C33.3355 25.3465 33.3775 25.4847 33.4417 25.6028C33.5357 25.7784 33.6481 25.8675 33.7791 25.8702C33.9124 25.8702 34.0373 25.7911 34.1535 25.6329C34.2103 25.5525 34.2547 25.4722 34.2868 25.3919H35.6324C35.6176 25.7383 35.4716 26.0722 35.1951 26.3937C34.8021 26.7954 34.3337 26.9965 33.7901 26.9965C33.2341 26.9965 32.7621 26.7992 32.3741 26.405C31.9863 26.0133 31.7921 25.5376 31.7921 24.9776C31.7921 24.4202 31.9863 23.9444 32.3741 23.5503C32.7621 23.1582 33.2304 22.9623 33.7791 22.9623C34.3204 22.9623 34.7873 23.1633 35.1803 23.565C35.4472 23.8361 35.6065 24.1889 35.6584 24.6234ZM34.2165 24.6196C34.1893 24.4915 34.1571 24.3935 34.1201 24.3258C34.0212 24.145 33.9075 24.0545 33.7791 24.0545C33.6357 24.0545 33.5233 24.1425 33.4417 24.3182C33.3997 24.4085 33.3664 24.5091 33.3417 24.6195L34.2165 24.6196ZM31.6199 21.7645C31.6173 21.5537 31.5433 21.3742 31.3975 21.226C31.2491 21.0755 31.0713 21 30.8637 21C30.6561 21 30.4781 21.0755 30.3299 21.2258C30.1817 21.3742 30.1075 21.5549 30.1075 21.7683V23.0227C29.9517 22.9826 29.7924 22.9623 29.6293 22.9623C29.0783 22.9623 28.61 23.1596 28.2245 23.5537C27.8367 23.9479 27.6425 24.4237 27.6425 24.9811C27.6425 25.5384 27.8367 26.0144 28.2245 26.4086C28.61 26.8027 29.0783 27 29.6293 27C30.1803 27 30.6487 26.8027 31.0343 26.4086C31.4245 26.0144 31.6199 25.5386 31.6199 24.9811V21.7645ZM29.9667 24.337C30.0604 24.5129 30.1075 24.7262 30.1075 24.9773C30.1075 25.231 30.0605 25.4458 29.9667 25.6215C29.8728 25.7998 29.7603 25.8888 29.6293 25.8888C29.4959 25.8888 29.3835 25.7998 29.292 25.6215C29.1981 25.4431 29.1512 25.2285 29.1512 24.9773C29.1512 24.7262 29.198 24.5129 29.292 24.337C29.3835 24.1587 29.4959 24.0697 29.6293 24.0697C29.7603 24.0697 29.8727 24.1587 29.9667 24.337ZM26.8988 23.5461C27.2868 23.9403 27.4808 24.4163 27.4808 24.9736C27.4808 25.5334 27.2868 26.0106 26.8988 26.4047C26.8863 26.4174 26.8629 26.4399 26.8284 26.4726C26.7987 26.5002 26.784 26.5154 26.784 26.5177C26.4108 26.8366 25.982 26.9962 25.4977 26.9962H25.4792C24.9973 26.9962 24.5709 26.8354 24.2004 26.514C24.1756 26.499 24.1361 26.4627 24.0817 26.4048C23.6939 26.0107 23.4997 25.5336 23.4997 24.9736C23.4997 24.4163 23.6939 23.9405 24.0817 23.5461C24.4697 23.1495 24.9391 22.951 25.4904 22.951C26.0413 22.951 26.5109 23.1494 26.8988 23.5461ZM25.9721 24.9736C25.9721 24.725 25.9239 24.5115 25.8276 24.3332C25.7336 24.1551 25.6212 24.0659 25.4903 24.0659C25.3592 24.0659 25.2457 24.1551 25.1492 24.3332C25.0579 24.5141 25.0121 24.7275 25.0121 24.9736C25.0121 25.2221 25.0579 25.4368 25.1492 25.6177C25.2457 25.7961 25.3592 25.8851 25.4903 25.8851C25.6212 25.8851 25.7336 25.796 25.8276 25.6177C25.9239 25.4394 25.9721 25.2248 25.9721 24.9736ZM22.0073 21.2261C22.1557 21.0756 22.3336 21.0001 22.5412 21.0001C22.7512 21.0001 22.9291 21.0756 23.0749 21.2263C23.2232 21.3743 23.2973 21.5552 23.2973 21.7687V26.827H21.7887V21.7686C21.7887 21.5552 21.8615 21.3743 22.0073 21.2261ZM21.6201 24.9171C21.6201 24.8268 21.614 24.7288 21.6016 24.6234C21.5497 24.1889 21.3904 23.8361 21.1235 23.565C20.7305 23.1633 20.2635 22.9623 19.7223 22.9623C19.1737 22.9623 18.7053 23.1582 18.3175 23.5503C17.9295 23.9444 17.7355 24.4202 17.7355 24.9776C17.7355 25.5376 17.9295 26.0133 18.3175 26.405C18.7053 26.7992 19.1773 26.9965 19.7335 26.9965C20.2769 26.9965 20.7453 26.7954 21.1381 26.3937C21.4149 26.0722 21.5608 25.7383 21.5757 25.3919H20.23C20.198 25.4722 20.1536 25.5525 20.0967 25.6329C19.9805 25.7911 19.8559 25.8702 19.7224 25.8702C19.5913 25.8675 19.4789 25.7784 19.3849 25.6028C19.3208 25.4847 19.2788 25.3465 19.2589 25.1884H21.598C21.6127 25.108 21.6201 25.0175 21.6201 24.9171ZM20.0633 24.3258C20.1004 24.3935 20.1325 24.4915 20.1597 24.6196L19.2848 24.6195C19.3096 24.5091 19.3431 24.4085 19.3849 24.3182C19.4665 24.1425 19.5791 24.0545 19.7223 24.0545C19.8508 24.0545 19.9644 24.145 20.0633 24.3258ZM17.1004 25.1396L17.6749 24.0811C17.7467 23.9605 17.7824 23.8337 17.7824 23.7007C17.7824 23.6355 17.7737 23.5702 17.7565 23.5048C17.7047 23.299 17.5884 23.1407 17.4081 23.0303C17.2895 22.96 17.1648 22.9248 17.0337 22.9248C16.9695 22.9248 16.9041 22.9336 16.8373 22.9512C16.6347 23.0039 16.4801 23.1219 16.374 23.3053L15.6919 24.5446V23.7158C15.6919 23.5048 15.6177 23.324 15.4695 23.1732C15.3236 23.0252 15.1457 22.951 14.9357 22.951C14.7281 22.951 14.5513 23.0252 14.4057 23.1732C14.2573 23.324 14.1832 23.5049 14.1832 23.7158V26.8232H15.6919V25.6028L16.4777 26.8269H17.7232C17.8368 26.8269 17.9109 26.7779 17.9456 26.68C17.9555 26.6524 17.9604 26.6221 17.9604 26.5896C17.9604 26.5119 17.9283 26.4239 17.864 26.3259L17.1004 25.1396ZM11.9628 24.0734C12.0939 24.0734 12.2075 24.1613 12.304 24.337C12.3707 24.4652 12.4139 24.6157 12.4337 24.789H13.9387C13.8965 24.3069 13.7064 23.8952 13.3679 23.5537C12.9797 23.1596 12.5116 22.9623 11.9629 22.9623C11.412 22.9623 10.9436 23.1596 10.5581 23.5537C10.1701 23.9428 9.97613 24.4149 9.97613 24.9698V24.9887C9.97613 25.5436 10.1701 26.0156 10.5581 26.4048V26.4086C10.9436 26.8027 11.4095 27 11.9556 27H11.974C12.5177 27 12.9823 26.8027 13.3679 26.4086V26.4048C13.7064 26.0659 13.8965 25.654 13.9387 25.1694H12.4337C12.4139 25.3428 12.3707 25.4932 12.304 25.6214C12.2076 25.7972 12.0939 25.8864 11.9628 25.8888C11.8319 25.8865 11.7195 25.7972 11.6256 25.6215C11.5317 25.4431 11.4847 25.2297 11.4847 24.9811C11.4847 24.73 11.5317 24.5154 11.6256 24.337C11.7195 24.1613 11.8319 24.0734 11.9628 24.0734ZM9.4296 22.6462L9.61133 22.4578C9.7768 22.2945 9.85973 22.0936 9.85973 21.855C9.85973 21.6191 9.7768 21.4182 9.61133 21.2525C9.45067 21.0867 9.25307 21.0038 9.01827 21.0038C8.78587 21.0038 8.58947 21.0879 8.42893 21.2562C8.2632 21.4194 8.18053 21.6191 8.18053 21.855C8.18053 22.0913 8.2632 22.2921 8.42893 22.4578L8.61053 22.6461C8.76867 22.8068 8.85133 22.9248 8.85893 23.0002V23.0077C8.85893 23.0906 8.7896 23.2024 8.65133 23.343L8.48067 23.5123C8.3324 23.6631 8.25827 23.8463 8.25827 24.0623V26.827H9.78187V24.0624C9.78187 23.8491 9.7076 23.6658 9.55947 23.5126L9.39267 23.343C9.25173 23.2025 9.18133 23.0919 9.18133 23.0116V23.004C9.18627 22.9261 9.26893 22.8069 9.4296 22.6462ZM7.39533 23.5426C7.78333 23.9318 7.97733 24.4076 7.97733 24.9701V26.8269H6.46867V25.0002C6.46867 24.7842 6.42173 24.5997 6.32787 24.4465C6.23387 24.2934 6.12027 24.2167 5.9868 24.2167C5.85573 24.2167 5.74333 24.2934 5.64947 24.4465C5.55547 24.5997 5.50853 24.7842 5.50853 25.0002V26.8269H4V24.9701C4 24.4076 4.194 23.9318 4.582 23.5426C4.96747 23.1484 5.43573 22.9512 5.9868 22.9512C6.53787 22.9512 7.00733 23.1484 7.39533 23.5426Z" fill="#FD6821"/>
</svg>
