<svg width="48" height="48" viewBox="0 0 48 48" fill="none" xmlns="http://www.w3.org/2000/svg">
<rect x="1" y="1" width="46" height="46" rx="23" fill="white" stroke="#F8F8F8" stroke-width="2"/>
<path fill-rule="evenodd" clip-rule="evenodd" d="M32.4477 21.3398C32.4477 21.9293 31.9708 22.4071 31.3813 22.4071C30.7917 22.4071 30.314 21.9293 30.314 21.3398C30.314 20.7503 30.7917 20.2733 31.3813 20.2733C31.9708 20.2733 32.4477 20.7503 32.4477 21.3398ZM39.9775 23.0808L39.6293 23.4733L39.2778 23.0808H39.256V23.8174H39.3879V23.3614L39.6172 23.6315H39.6412L39.8681 23.3614V23.8174H40V23.0808H39.9775ZM38.5299 23.2053H38.7487V23.8174H38.8804V23.2053H39.1001V23.0927H38.5299V23.2053ZM35.9157 27.1765C35.9157 26.587 36.3943 26.1101 36.983 26.1101C37.5725 26.1101 38.0495 26.587 38.0495 27.1765C38.0495 27.7661 37.5725 28.2438 36.983 28.2438C36.3943 28.2438 35.9157 27.7661 35.9157 27.1765ZM37.0985 22.7915C37.6833 22.9001 38.0701 23.4623 37.9615 24.0471C37.8538 24.6317 37.1573 25.0828 36.2629 24.7418C36.233 24.7307 36.2038 24.7195 36.1749 24.7084C35.9412 24.6188 35.738 24.5409 35.5175 24.626C35.2746 24.7202 35.1435 25.0733 35.1435 25.2831V28.1849H32.9888V23.8226C32.9888 23.2282 33.4714 22.7457 34.0665 22.7457C34.5474 22.7457 34.9553 23.0618 35.0936 23.4977C35.1062 23.4873 35.1263 23.47 35.1493 23.4504C35.197 23.4096 35.2567 23.3585 35.285 23.3368C35.2858 23.3368 35.2858 23.336 35.2866 23.336C35.8737 22.8833 36.3804 22.6573 37.0985 22.7915ZM32.4557 26.2232L32.4588 23.8232C32.4588 23.2281 31.9763 22.7464 31.3812 22.7456C30.786 22.7456 30.3027 23.2273 30.3027 24.0099L30.3019 26.6293C30.3019 26.9848 30.0977 27.0347 30.0301 26.6494C29.837 25.5484 28.5325 25.6649 28.1603 26.2979C27.7581 26.9799 28.1562 27.6257 28.7666 28.019C29.1181 28.245 29.6811 28.3875 30.2183 28.3875H30.2778C31.8155 28.3875 32.4557 27.5382 32.4557 26.2232Z" fill="#27BBC9"/>
<path fill-rule="evenodd" clip-rule="evenodd" d="M27.8667 27.6101L26.6852 25.823L27.5033 24.3376C27.8056 23.8244 27.635 23.1634 27.1219 22.8609C26.6088 22.5585 25.9478 22.729 25.6446 23.2421L24.6681 24.9881V23.8244C24.6681 23.2285 24.1848 22.7452 23.5889 22.7452C22.9938 22.7452 22.5105 23.2285 22.5105 23.8244V28.1834H24.6681V26.4769L25.8062 28.1827L27.5483 28.1819C27.7557 28.1819 27.9238 28.0139 27.9238 27.8063C27.9238 27.734 27.9022 27.6672 27.8667 27.6101ZM19.3869 24.3124C19.5792 24.313 19.7431 24.4523 19.871 24.6863C19.9643 24.8633 20.0286 25.0772 20.0561 25.3232H22.2162C22.1527 24.6468 21.8503 24.0332 21.3966 23.5805C20.8852 23.0681 20.1677 22.748 19.3869 22.748C18.6059 22.748 17.8885 23.0681 17.377 23.5805C16.8647 24.092 16.5437 24.8093 16.5447 25.5903C16.5437 26.372 16.8647 27.0895 17.377 27.6001C17.7712 27.9933 18.4564 28.4333 19.3869 28.4325C20.0865 28.4333 20.734 28.1759 21.2286 27.7544C21.5897 27.4481 22.1246 26.8336 22.2162 25.8573H20.0561C20.0286 26.1034 19.9643 26.3182 19.871 26.4942C19.7431 26.7292 19.5792 26.8683 19.3869 26.8683C19.1946 26.8683 19.0305 26.7292 18.9026 26.4942C18.7773 26.257 18.7033 25.9499 18.7025 25.5903C18.7033 25.2316 18.7773 24.9243 18.9026 24.6863C19.0305 24.4523 19.1946 24.313 19.3869 24.3124ZM16.006 22.0468C16.2231 21.8297 16.3574 21.5296 16.3574 21.1983C16.3574 20.867 16.2231 20.5678 16.006 20.3507C15.7889 20.1334 15.4888 19.9999 15.1576 19.9999C14.827 19.9999 14.527 20.1334 14.3099 20.3507C14.0928 20.5678 13.9583 20.867 13.9583 21.1983C13.9583 21.5296 14.0928 21.8297 14.3099 22.0468L14.5745 22.3122C15.0168 22.7538 15.0482 22.8711 14.6275 23.2918L14.387 23.5323C14.1892 23.7301 14.0678 24.0027 14.0678 24.3036V28.1833H16.2481V24.3036C16.2481 24.0027 16.1259 23.7301 15.9288 23.5323L15.6884 23.2918C15.2677 22.8711 15.299 22.7538 15.7414 22.3114L16.006 22.0468ZM12.8521 23.5778C13.3643 24.0885 13.6845 24.8059 13.6845 25.5875V28.1838H11.5266V25.6319C11.5259 25.3205 11.4518 25.0551 11.3265 24.8493C11.1994 24.6459 11.0344 24.526 10.8423 24.5252C10.6501 24.526 10.4851 24.6459 10.358 24.8493C10.2327 25.0551 10.1586 25.3205 10.1579 25.6319V27.0473V28.1838H8.00006V25.5875C8.00006 24.8059 8.32006 24.0885 8.83237 23.5778C9.3439 23.0655 10.0605 22.7445 10.8423 22.7453C11.6241 22.7445 12.3406 23.0655 12.8521 23.5778Z" fill="#FD6821"/>
</svg>
