<svg width="521" height="121" viewBox="0 0 521 121" fill="none" xmlns="http://www.w3.org/2000/svg">
<path d="M133.096 30.8204C133.096 10.1846 111.22 0.25 85.2309 0.25C57.43 0.25 31.9198 12.5729 22.5568 31.68C19.9779 36.7449 18.6396 42.3813 18.6396 48.1152C18.5467 53.0825 19.8849 57.9569 22.5568 62.0645C26.5668 67.989 33.732 71.7156 44.2427 71.7156C57.1419 71.7156 67.3645 64.6434 67.3645 52.3205C67.3645 52.3205 67.555 48.8819 63.5403 48.8819C60.2923 48.8819 59.4327 51.1727 59.5256 52.3205C60.0042 61.9716 54.2702 69.7083 44.0476 69.7083C32.5843 69.7083 27.8028 59.9642 27.8028 49.5511C27.8028 28.2415 43.8571 14.1017 60.5757 7.99134C68.41 5.03141 76.63 3.5956 85.0358 3.68853C103.952 3.68853 119.43 10.9513 119.43 30.444C119.43 46.6841 105.769 60.5358 89.4315 61.7811L90.1006 59.5832C93.4462 47.6413 97.5539 34.5516 104.24 24.9005C104.621 24.3243 105.291 23.3718 106.057 22.4146L105.105 21.2668C103.669 22.1265 102.335 23.0837 100.992 24.1338C69.6553 48.5939 68.7028 117.383 26.9479 117.383C25.5167 117.383 24.0809 117.29 22.6497 117.095C13.9558 115.659 9.36954 109.832 9.36954 101.714C9.36954 100.093 9.94108 97.8903 9.94108 96.6543C10.0387 94.3588 8.12889 92.3561 5.83343 92.3561H5.35948C1.63285 92.3514 0.104102 95.3114 0.0065224 99.5166C-0.276924 111.649 8.70042 118.717 22.5568 120.059C24.0855 120.152 25.6143 120.25 27.236 120.25C59.8137 120.25 79.785 95.5995 88.2884 65.6982C92.5866 65.2243 96.8894 64.2624 100.992 63.0264C116.089 58.8165 133.096 48.6961 133.096 30.825V30.8204Z" fill="#0064FF"/>
<path d="M443.419 37.9855H431.955L429.372 44.003L424.883 54.128H419.535L417.909 57.5666H423.452L416.761 72.3755C411.984 82.7886 404.536 93.0113 400.233 93.0113C399.275 93.0113 398.704 92.6302 398.704 91.673C398.704 90.7158 398.992 89.8562 400.042 87.1797C401.38 84.0293 403.578 79.4384 405.2 76.0974C407.588 71.2277 411.413 63.6769 411.413 59.9503C411.413 56.2237 409.024 53.2591 404.34 53.2591C399.085 53.2591 394.308 56.4142 389.912 60.9958L392.779 54.1187H381.981L373.194 74.183C369.658 81.2552 362.493 93.0066 358.004 93.0066C357.047 93.0066 356.666 92.4304 356.666 91.4779C356.763 90.6182 356.954 89.8515 357.335 88.9919C357.716 88.1323 362.971 75.8093 362.971 75.8093L372.529 53.9282H360.871L351.605 75.2332C348.738 81.8268 341.476 93.0066 336.792 93.0066C336.03 93.0996 335.263 92.528 335.17 91.6684V91.2827C335.17 90.1396 336.03 88.0347 336.699 86.506L341.573 75.8047L351.605 53.9236H340.044L337.749 58.8909C336.03 62.2318 333.163 66.1489 328.577 66.1489C326.379 66.1489 325.328 65.2893 324.85 64.4297C324.181 57.074 319.497 53.1569 312.62 53.1569C303.066 53.1569 296.278 58.7933 291.789 65.675C288.829 70.4517 286.534 75.512 284.912 80.8649C280.804 87.649 276.506 92.9044 273.068 92.9044C272.208 92.9044 271.632 92.4258 271.632 91.2781C271.632 90.1303 272.779 87.5515 273.16 86.5942L280.707 70.5447C282.807 65.5774 284.243 62.3294 284.243 59.0814C284.243 55.6428 281.854 53.1569 277.937 53.1569C272.491 53.1569 266.567 56.312 261.883 61.4697C262.074 60.6101 262.074 59.8434 262.074 58.9838C262.074 55.1642 260.164 53.1569 256.247 53.1569C251.279 53.1569 246.122 56.1214 241.438 61.4697L244.495 54.0119H233.984L225.1 74.0761C220.895 83.5367 214.111 92.8998 210.291 92.8998C209.432 92.8998 208.86 92.4212 208.86 91.2734C208.86 89.4612 210.867 84.9679 211.629 83.1511L223.381 56.4978C224.24 54.4951 218.604 53.2498 211.434 53.2498C204.264 53.2498 196.528 56.8835 190.989 61.5627C187.072 64.8107 184.205 66.437 182.769 66.437C182.007 66.437 181.719 66.056 181.719 65.5774C181.719 63.9511 185.636 59.3648 185.636 55.8287C185.636 54.207 184.776 53.1522 182.578 53.1522C178.378 53.1522 173.406 57.1669 169.777 61.3675L172.834 54.0119H162.514L153.63 74.0761C149.425 83.5367 142.45 93.3784 138.63 93.3784C137.766 93.3784 137.199 92.8998 137.199 91.752C137.199 89.9352 139.109 85.5441 140.159 83.2486L151.911 56.4978C152.77 54.4951 147.134 53.2498 139.964 53.2498C129.36 53.2498 119.04 60.415 113.594 67.7753C107.577 75.7025 103.469 84.1129 103.371 90.99C103.279 96.5288 106.141 99.972 111.875 99.972C118.278 99.972 123.436 94.9118 126.396 91.0876C126.205 91.8543 126.108 92.6163 126.015 93.383C126.015 97.2026 127.543 99.9766 132.223 99.9766C136.33 99.9766 141.776 96.5381 146.172 91.0922L142.636 99.2146H153.811L164.8 74.2806C168.434 66.1536 172.542 61.953 173.685 61.953C174.07 61.953 174.261 62.1435 174.261 62.4316C174.261 63.2912 172.542 65.5867 172.542 67.687C172.542 69.7873 173.685 71.4136 176.747 71.4136C179.135 71.4136 181.807 70.2659 184.2 68.7371C178.564 76.3809 174.74 84.4057 174.74 91.0039C174.647 96.5427 177.514 99.9859 183.243 99.9859C189.26 99.9859 194.897 94.2519 197.954 90.4324C197.857 91.292 197.764 92.1516 197.764 93.1089C197.764 96.8355 199.864 99.9906 204.167 99.9906C208.944 99.9906 212.763 97.026 217.545 91.2037L214.008 99.2285H225.472L235.983 75.4376C240.569 65.1174 246.777 59.5786 249.834 59.5786C250.601 59.481 251.27 60.0572 251.363 60.8239V61.1073C251.265 62.255 250.889 63.4028 250.406 64.4483L235.309 99.3214H247.06L257.761 75.0519C262.343 64.6388 267.413 59.5739 271.232 59.5739C272.38 59.5739 272.858 60.1501 272.858 61.3908C272.761 62.729 272.38 64.0672 271.808 65.215L261.488 87.189C260.531 89.2893 259.959 91.5848 259.769 93.8756C259.769 97.2212 261.581 100.181 266.743 100.181C273.435 100.181 278.495 95.1162 284.224 87.57V89.1917C284.703 95.2091 288.048 100.465 296.933 100.465C307.439 100.465 315.947 93.2064 321.105 81.6455C323.019 77.5332 324.353 73.2351 324.836 68.7418C325.984 69.318 327.317 69.606 328.563 69.5085C330.282 69.5085 332.001 69.1274 333.53 68.2632L331.713 72.1803C329.613 76.576 327.317 81.4504 325.505 85.558C324.357 87.9464 323.693 90.6182 323.498 93.2947C323.498 97.4024 325.793 100.367 330.472 100.367C335.152 100.367 341.555 95.9712 346.141 89.7633H346.238C345.95 91.0039 345.76 92.3422 345.76 93.6804C345.76 97.1189 346.815 100.372 351.591 100.372C357.13 100.372 361.428 96.3569 365.634 91.292L362.098 99.3168H373.658L382.929 78.2999C388.184 66.451 393.439 59.2858 398.309 59.2858C399.169 59.2858 399.838 59.8574 399.935 60.717V61.0004C399.935 63.0078 397.068 68.4537 394.489 73.8996C392.096 78.8668 390.284 82.691 389.044 85.6556C387.896 88.1369 387.227 90.8134 387.036 93.5828C387.036 97.2119 389.044 99.9813 393.532 99.9813C400.219 99.9813 407.003 93.4852 410.632 88.6109C409.772 91.0039 409.391 93.3923 409.294 95.8736C409.294 102.565 413.308 105.906 418.94 105.906C422.667 105.906 426.296 104.665 429.358 102.467C433.754 99.4097 437.29 94.8235 440.25 90.6182L438.242 88.7038C435.473 92.6256 432.415 96.3476 429.26 98.643C427.541 100.079 425.534 100.841 423.336 100.938C420.948 100.938 419.419 99.6932 419.419 96.6403C419.419 93.5875 420.85 89.4752 423.052 83.9317C423.145 83.8388 426.296 76.7666 429.26 69.9824C431.742 64.2485 434.228 58.7096 434.706 57.5619H442.252L443.781 54.1234H436.328L443.4 37.9762L443.419 37.9855ZM117.525 93.1135C115.904 93.1135 114.756 92.542 114.756 90.437C114.849 84.8006 119.533 74.7685 125.364 66.7437C129.472 61.2002 134.82 57.0926 140.554 57.0926L133.291 73.3327C127.845 85.5673 121.921 93.1089 117.53 93.1089L117.525 93.1135ZM188.991 93.1135C187.369 93.1135 186.221 92.542 186.129 90.437C186.221 84.8006 190.905 74.7685 196.732 66.7437C200.835 61.2002 206.188 57.0926 211.922 57.0926L204.659 73.3327C199.121 85.8508 193.484 93.1089 188.991 93.1089V93.1135ZM315.873 61.493C315.589 67.7009 310.139 82.7003 303.74 91.6823C301.161 95.3114 298.963 96.3615 297.049 96.3615C294.372 96.3615 293.61 94.1636 293.991 90.9156C294.563 85.2792 299.247 72.0967 305.743 63.0171C308.703 58.9094 310.715 57.1902 313.006 57.1902C315.296 57.1902 315.965 59.1 315.868 61.493H315.873Z" fill="#0064FF"/>
<path d="M494.193 54.1327L504.708 29.8306H492.255L481.735 54.1327H455.263L450.853 64.3228H477.325L466.805 88.6248H479.258L489.778 64.3228H516.25L520.66 54.1327H494.193Z" fill="#0064FF"/>
</svg>
