<svg width="48" height="48" viewBox="0 0 48 48" fill="none" xmlns="http://www.w3.org/2000/svg">
<rect x="1" y="1" width="46" height="46" rx="23" fill="white" stroke="#F8F8F8" stroke-width="2"/>
<path fill-rule="evenodd" clip-rule="evenodd" d="M18.1695 32.7191C18.5696 33.0936 18.6555 33.0936 18.6155 32.7191C18.5955 32.5795 18.5696 32.0817 18.5496 31.6165C18.5331 31.1558 18.5037 30.7813 18.4884 30.7813C18.4778 30.7813 18.1801 30.9325 17.8306 31.1117L17.1976 31.4466L16.914 31.3326C16.7575 31.2675 16.428 31.121 16.1797 31.0023C15.6738 30.7557 15.6432 30.7464 15.6432 30.8674C15.6385 31.1372 15.8762 32.5493 15.9268 32.5679C15.9573 32.5795 16.215 32.4632 16.4986 32.3027C16.7822 32.1468 17.0705 32.0235 17.1364 32.0166C17.2929 32.0166 17.7695 32.3376 18.1695 32.7191ZM22.0384 31.221C22.089 31.1628 22.1243 31.0419 22.1243 30.9255C22.1243 30.8265 22.1243 30.7776 22.0999 30.7545C22.0762 30.7319 22.0294 30.7337 21.9372 30.7371C21.8313 30.7371 21.6642 30.7604 21.5677 30.7906C21.0511 30.9325 19.152 31.5513 19.1014 31.5932C19.0249 31.6513 19.0108 32.1329 19.0861 32.1329C19.1167 32.1329 19.7697 31.9538 20.544 31.7281C21.5218 31.442 21.9725 31.2908 22.0384 31.221ZM24.8942 30.13C25.1273 29.995 25.2285 29.7647 25.2025 29.4693C25.152 28.9692 24.6261 28.683 24.1648 28.9087C23.6835 29.1436 23.6741 29.9113 24.1448 30.1556C24.3519 30.2602 24.6967 30.2509 24.8942 30.13ZM35.9034 24.5585L36 24.3236L35.0573 24.3329L34.116 24.3492L33.4477 26.1358C33.083 27.1174 32.7688 27.934 32.7534 27.9479C32.7382 27.9619 32.4592 27.2361 32.1309 26.3358C32.0459 26.1068 31.9629 25.8829 31.8857 25.6746C31.6593 25.0641 31.4827 24.5878 31.4521 24.5097L31.3815 24.3236H30.4495H29.5175L29.6294 24.6097C29.6906 24.7702 30.1964 26.0916 30.7637 27.5525L31.7863 30.2067L32.7429 30.2207L33.7054 30.23L34.7585 27.5176C35.0471 26.7706 35.3204 26.0653 35.528 25.5297C35.7361 24.9927 35.8781 24.6261 35.9034 24.5585ZM29.0623 24.3236H28.4291H27.7962V23.7327V23.1465L27.0972 22.9069C26.7172 22.7766 26.3277 22.6719 26.2418 22.6719H26.0747V23.4978V24.3236H25.5687H25.0616V25.0238V25.7263H25.5675H26.0735V27.1616C26.0735 28.7528 26.1135 29.1646 26.3018 29.5251C26.4642 29.8462 26.8137 30.1416 27.1478 30.2509C27.5172 30.3719 28.1504 30.3998 28.6056 30.3207L28.9858 30.2556L29.0011 29.6089C29.0117 29.1599 28.9964 28.9482 28.9552 28.925C28.9247 28.9087 28.8129 28.9133 28.7176 28.9389C28.4338 29.018 28.1092 28.9599 27.9527 28.8086L27.8208 28.6784L27.8056 27.2012L27.7903 25.7263H28.4281H29.0623V25.0238V24.3236ZM23.4917 15.2139C23.7447 15.0069 23.8259 14.9627 23.8377 15.0278C23.8683 15.1883 23.7471 18.5475 23.6965 19.0174C23.6153 19.7222 23.4176 20.6434 23.2352 21.1506C22.9257 22.0206 22.4398 22.8278 21.7714 23.5769L21.569 23.8141L21.6855 23.9537C22.1315 24.4888 22.5774 25.3355 22.7139 25.9055C22.7798 26.18 22.7892 26.4219 22.7692 27.1268C22.7281 28.4481 22.5104 29.3995 22.1762 29.7298C21.9126 29.9904 20.5853 30.5952 19.3298 31.0372C19.0521 31.1326 19.0215 31.0768 19.0721 30.6115C19.1274 30.1416 19.0968 30.0695 18.8744 30.1951C18.8066 30.2355 18.5149 30.3872 18.1735 30.5649C18.0821 30.6124 17.9871 30.6619 17.8918 30.7115L17.0658 31.1372L16.954 30.9209C16.8022 30.6301 16.7716 30.13 16.8834 29.8299C16.9444 29.6653 16.9781 29.5778 16.9507 29.5187C16.9189 29.4499 16.8044 29.4194 16.5538 29.3507C15.9809 29.1855 15.1807 28.7947 14.8112 28.4946C14.2029 28.0084 13.9405 27.4524 13.9805 26.7615C14.0264 26.0101 14.3347 25.4053 15.0336 24.7237C15.2725 24.4888 15.5961 24.2096 15.7585 24.1026C16.3763 23.7025 17.3176 23.3931 18.2849 23.2628L18.7261 23.2023L18.26 23.0418C17.7236 22.8627 16.9999 22.5626 16.2703 22.2206C15.4196 21.8159 14.6948 21.2204 13.8393 20.2177C12.8462 19.0523 12.3602 18.0566 12.1272 16.7051C12.0307 16.1584 11.9754 15.614 12.0107 15.614C12.0519 15.614 13.7028 16.5236 14.2241 16.8353C14.7912 17.1703 15.2925 17.5495 16.0574 18.2125C17.0034 19.0267 17.5306 19.6129 18.6802 21.1203C19.2568 21.8764 19.8346 22.6324 19.9662 22.7929L20.1993 23.086V22.1509C20.1993 21.0552 20.2604 20.4434 20.4323 19.7222C20.8383 18.031 21.8561 16.5352 23.4917 15.2139ZM16.3162 25.9264C16.508 26.045 16.7104 26.0497 16.9081 25.9497C17.3941 25.7054 17.3941 25.0447 16.9093 24.7982C16.4939 24.5888 15.9821 24.9052 15.9821 25.3751C15.9821 25.61 16.0938 25.7961 16.3162 25.9264Z" fill="black"/>
</svg>
