<svg width="312" height="120" viewBox="0 0 312 120" fill="none" xmlns="http://www.w3.org/2000/svg">
<path fill-rule="evenodd" clip-rule="evenodd" d="M284.809 0.388823L240.215 8.32981H240.231C234.407 9.37986 224.054 12.4644 214.768 18.9123C208.533 23.2602 202.774 29.1175 199.197 36.8944L179.033 80.7175C178.032 82.8668 177.245 85.656 176.884 88.7077C176.392 92.7438 176.671 97.2557 178.246 101.292C179.837 105.344 182.741 108.938 187.499 111.136C189.583 112.088 192.028 112.777 194.882 113.121L250.322 119.717C262.266 121.128 272.783 117.108 281.216 111.136C294.013 102.063 302.004 88.4288 302.775 82.4894L310.913 20.4546C311.142 18.6826 311.093 16.9927 310.814 15.3848C310.076 11.2503 307.746 7.75556 304.481 5.13045C301.233 2.53814 297.065 0.815405 292.619 0.224753C290.076 -0.119793 287.418 -0.0705725 284.809 0.388823ZM237.541 21.078L287.565 49.4786L287.582 49.495C287.828 49.6426 288.107 49.7903 288.435 49.9544C289.813 50.6599 291.848 51.7263 292.602 53.0225C293.275 54.171 292.848 55.6476 289.731 57.4524L203.759 98.9128C202.807 99.3722 201.905 99.5855 201.183 99.5363C200.74 99.5035 200.362 99.3722 200.1 99.1425C199.837 98.9128 199.657 98.5683 199.608 98.1089C199.526 97.4362 199.706 96.5502 200.182 95.4181L230.321 24.6548C230.354 24.5563 230.404 24.4415 230.469 24.343C231.043 23.3258 232.29 22.2758 233.652 21.5867C234.981 20.914 236.408 20.5858 237.36 20.996C237.426 21.0124 237.541 21.078 237.541 21.078Z" fill="#3A39B0"/>
<path fill-rule="evenodd" clip-rule="evenodd" d="M18.5399 101.292H0V47.6738H17.6375L17.8836 50.627C19.0485 49.5278 20.64 48.691 22.3791 48.084C25.1027 47.1324 28.1872 46.7386 30.4022 46.7386C33.5031 46.7386 37.3915 47.2636 40.9519 48.3137C44.0036 49.1996 46.8092 50.4794 48.696 52.1201C50.5992 53.7936 52.4203 55.7624 53.7985 58.0594C54.7631 59.667 56.3 60.3555 57.4573 58.6337L57.3589 28.7237H76.1285V69.5279C76.1285 69.856 76.1941 70.1186 76.3089 70.299C76.4074 70.4795 76.555 70.5944 76.7191 70.6764C76.916 70.7584 77.1621 70.7912 77.4246 70.7912C77.9496 70.7912 78.5567 70.6272 79.0981 70.4139C79.2786 70.1678 79.4591 69.9381 79.6724 69.7248C80.5583 68.806 81.5428 67.8544 82.7077 67.0176C83.889 66.1645 85.2343 65.4098 86.875 64.9175C91.8792 63.4245 96.9818 63.4409 102.134 63.4737C106.892 63.5065 111.682 63.5229 116.391 62.3252C116.785 61.9643 117.08 61.5869 117.294 61.2096C117.556 60.7174 117.671 60.2087 117.622 59.7001C117.573 59.2079 117.343 58.6993 116.933 58.2399C116.588 57.8461 116.112 57.4852 115.505 57.157C114.045 56.3695 111.912 56.3695 107.86 56.3695H107.236C104.939 56.3695 103.266 56.5992 102.134 57.2883C101.051 57.9446 100.46 59.0602 100.296 60.865L100.263 61.2588H81.7561V60.8322C81.6412 58.2727 82.1991 55.9593 83.3311 54.0397C84.4468 52.1529 86.1367 50.6435 88.3517 49.6754C90.5502 48.7238 93.2574 48.0019 96.4895 47.5261C99.7053 47.0503 103.43 46.8206 107.696 46.8206C111.551 46.8206 114.931 46.9683 117.819 47.2472C120.723 47.5425 123.118 47.9691 125.021 48.5434C126.482 48.9863 127.778 49.495 128.893 50.0364C130.157 50.6435 131.223 51.2997 132.109 51.9724C132.208 52.038 132.306 52.0709 132.404 52.0709C132.536 52.0709 132.683 52.0052 132.831 51.8904C133.012 51.7755 133.176 51.5951 133.34 51.3654C133.701 50.8896 133.996 50.2333 134.144 49.5114L132.126 45.8362H152.47L152.585 46.1151L161.215 66.87L169.862 45.8362H189.566L166.597 91.3656C166.006 92.5469 165.579 93.3673 165.136 94.0236C164.677 94.7126 164.234 95.2213 163.578 95.7955C158.805 100.012 152.747 100.012 146.326 100.012H145.235C143.84 100.012 142.757 99.9629 141.674 99.848C140.608 99.7496 139.541 99.5855 138.196 99.3722L137.802 99.3066V98.9128C137.934 96.2713 137.605 94.4665 136.802 93.0227C135.998 91.5625 134.685 90.4304 132.864 89.1507H132.831L118.967 89.1343L118.934 83.9825C118.767 84.0891 118.603 84.1887 118.442 84.2861C118.257 84.3985 118.076 84.5081 117.901 84.6223C115.489 86.1154 113.011 87.6412 110.271 88.6913C108.614 89.3147 106.842 89.6593 105.005 89.8398C103.167 90.0202 101.28 90.053 99.3772 90.053C95.9973 90.053 92.962 89.7741 90.2877 89.1999C87.5969 88.6256 85.2507 87.7561 83.2983 86.6076C81.2967 85.4427 79.8036 84.1137 78.8028 82.6207L78.7044 82.4566C78.7044 82.4566 78.6059 82.4402 78.5567 82.4238C78.1629 82.3582 77.7691 82.4074 77.4246 82.5551C77.0801 82.7191 76.7683 82.9816 76.5386 83.3918C76.391 83.6379 76.2925 83.9497 76.2269 84.2942V88.8717H57.4573V77.5181C57.0307 76.9931 56.5877 76.7798 56.1447 76.7798C55.6361 76.7798 55.0947 77.0095 54.5697 77.3376C53.6345 79.7002 52.3383 81.8003 50.714 83.4902C47.3342 87.0342 43.4293 88.6913 39.6229 89.3968C35.8329 90.0859 32.1741 89.8234 29.2045 89.5116C25.2029 89.1016 22.2997 87.3803 20.4456 86.2809L20.4431 86.2794L20.256 86.1692C19.5182 85.7343 18.7824 85.3876 18.5399 85.3876V101.292ZM18.6712 67.8708C18.6712 69.4623 18.9009 70.8241 19.3438 71.989C19.7868 73.1374 20.4267 74.0726 21.2963 74.7946C22.1823 75.5493 23.1667 76.1071 24.2331 76.4845C25.2996 76.8618 26.4809 77.0423 27.777 77.0423C29.0732 77.0423 30.1232 76.8618 31.1405 76.5337C32.1577 76.1891 33.0601 75.6805 33.864 74.9914C34.6516 74.3187 35.2422 73.4328 35.6524 72.3335C36.0626 71.2014 36.2595 69.8396 36.2595 68.2482C36.2595 66.7715 36.0462 65.4918 35.636 64.4089C35.2258 63.3425 34.6024 62.4565 33.782 61.7674C32.9452 61.0619 32.0265 60.5369 30.9928 60.1759C29.9592 59.815 28.8271 59.6509 27.5802 59.6509C26.3332 59.6509 25.1027 59.8314 24.0362 60.1759C22.9698 60.5205 22.0182 61.0455 21.1814 61.7346C20.3611 62.4237 19.7376 63.2604 19.311 64.2777C18.8845 65.2949 18.6876 66.509 18.6876 67.8872L18.6712 67.8708ZM140.034 60.2415C139.82 60.2415 139.574 60.2087 139.328 60.1759L139.269 60.1706C137.799 60.0397 135.861 59.8671 135.489 61.2916C135.423 61.5377 135.456 61.8658 135.489 62.1776C135.505 62.3909 135.522 62.6206 135.522 62.8667C135.41 69.7696 136.043 76.489 136.162 83.2606L136.211 86.0498C136.537 86.143 136.952 86.3245 137.441 86.5385L137.523 86.5748C138.705 87.1162 140.329 87.8545 141.74 87.8709H142.347C145.12 87.953 146.826 87.9858 148.286 86.6404C149.041 85.9349 149.73 85.1638 150.337 84.2778C150.895 83.4574 151.387 82.5387 151.798 81.5542L140.034 60.2415ZM114.176 70.9225C112.7 71.1358 110.977 71.3655 108.992 71.5952C106.99 71.8413 105.349 72.071 104.07 72.3007C102.79 72.5304 101.855 72.7601 101.28 72.9898C100.411 73.3343 99.7545 73.7281 99.3279 74.1547C98.9342 74.5484 98.7537 74.9914 98.7537 75.4508C98.7537 75.9102 98.9178 76.3696 99.2295 76.7962C99.5741 77.2392 100.083 77.6494 100.788 78.0431C101.494 78.4369 102.314 78.7322 103.216 78.9291C104.135 79.126 105.169 79.2408 106.301 79.2408C107.581 79.2408 108.811 79.126 110.025 78.8799C111.239 78.6502 112.421 78.2892 113.553 77.8134C114.373 77.4689 115.046 77.0915 115.587 76.6649C116.112 76.2384 116.506 75.7954 116.752 75.3032C116.916 74.9914 117.031 74.532 117.13 73.9086C117.212 73.2687 117.261 72.4812 117.261 71.5132V70.4139C116.69 70.5223 114.595 70.8659 114.176 70.9225Z" fill="#3A39B0"/>
<path d="M170.354 43.7029H174.898V35.1713H180.739L184.611 43.7029H189.632L194.849 31.6602H190.272L187.384 38.4362L184.415 31.6602H165.432V35.1877H170.354V43.7029Z" fill="#949494"/>
</svg>
