<svg width="48" height="48" viewBox="0 0 48 48" fill="none" xmlns="http://www.w3.org/2000/svg">
<rect x="1" y="1" width="46" height="46" rx="23" fill="white" stroke="#F8F8F8" stroke-width="2"/>
<path fill-rule="evenodd" clip-rule="evenodd" d="M40 19H8V26.3326C8 26.3326 12.5699 28.9537 20.0296 27.6095C27.4893 26.2654 29.6397 25.5934 34.3441 26.6014C39.0484 27.6095 40 28.0968 40 28.0968V19Z" fill="#EE1C24"/>
<path fill-rule="evenodd" clip-rule="evenodd" d="M37.5511 20.2957H35.6969H35.6962V23.8939H36.8051V22.8051H37.4603C38.287 22.8051 38.8716 22.3971 38.8716 21.5255C38.8716 21.0115 38.5289 20.2957 37.5511 20.2957ZM37.2339 21.9482H36.8051V21.2177H37.2992C37.5712 21.2177 37.8233 21.2379 37.8233 21.5651C37.8233 21.928 37.5209 21.9482 37.2339 21.9482ZM31.162 22.094C31.1614 20.996 31.8925 20.2097 32.9859 20.2097C34.0792 20.2097 34.8098 20.996 34.8098 22.094C34.8098 23.1928 34.0792 23.9784 32.9859 23.9784C31.8925 23.9784 31.162 23.1922 31.162 22.094ZM32.2702 22.094C32.2702 22.8958 32.7036 23.0819 32.9859 23.0819C33.2682 23.0819 33.7017 22.8958 33.7017 22.094C33.7017 21.293 33.2682 21.1062 32.9859 21.1062C32.7036 21.1062 32.2702 21.2922 32.2702 22.094ZM29.1714 20.2957H30.2802V23.8939H29.1714V22.4677H28.1331V23.8939H27.0242V20.2957H28.1331V21.5457H29.1714V20.2957ZM26.2622 22.7398C26.2622 23.6775 25.4005 23.9798 24.5995 23.9798C24.1916 23.9798 23.0275 23.8339 23.0175 22.6847H24.127V22.6841C24.127 22.7749 24.1425 22.8555 24.1673 22.9207C24.248 23.1371 24.49 23.1828 24.6962 23.1828C24.8777 23.1828 25.1545 23.1223 25.1545 22.8555C25.1545 22.6694 24.9981 22.619 24.3784 22.4422L24.3164 22.4247C23.763 22.2689 23.1586 22.0988 23.1586 21.3991C23.1586 20.5678 23.8689 20.2097 24.6095 20.2097C25.3905 20.2097 26.0806 20.5067 26.1108 21.3838H25.0625C25.0828 21.2479 25.0222 21.1572 24.9314 21.0967C24.8407 21.0309 24.715 21.006 24.6042 21.006C24.4531 21.006 24.2063 21.0464 24.2063 21.2479C24.2221 21.4499 24.5438 21.5275 24.9281 21.6202L24.9281 21.6202C25.0322 21.6453 25.1409 21.6715 25.2494 21.7016C25.7581 21.8427 26.2622 22.0793 26.2622 22.7398ZM21.1492 23.8937H22.258V20.2957H21.1492V23.8937ZM18.6647 22.9717H20.2567V23.8939H17.5558V20.2957H18.6647V22.9717ZM14.8448 20.2097C13.7513 20.2097 13.0208 20.996 13.0216 22.0948C13.0216 23.1928 13.7521 23.9792 14.8454 23.9792C15.9389 23.9792 16.6693 23.1936 16.6693 22.0948C16.6693 20.996 15.9381 20.2097 14.8448 20.2097ZM14.8448 23.0819C14.5625 23.0819 14.1298 22.8958 14.129 22.094C14.129 21.2922 14.5625 21.1062 14.8448 21.1062C15.1271 21.1062 15.5605 21.293 15.5605 22.094C15.5605 22.8958 15.1271 23.0819 14.8448 23.0819ZM9.16061 20.2957H11.0147C11.9926 20.2957 12.3353 21.0115 12.3353 21.5255C12.3353 22.3971 11.7507 22.8051 10.9247 22.8051H10.2694V23.8939H9.16061V20.2957ZM10.2694 21.9482H10.6976C10.9846 21.9482 11.287 21.928 11.287 21.5651C11.287 21.2379 11.035 21.2177 10.7628 21.2177H10.2688V21.9482H10.2694Z" fill="white"/>
</svg>
