<svg width="378" height="120" viewBox="0 0 378 120" fill="none" xmlns="http://www.w3.org/2000/svg">
<path fill-rule="evenodd" clip-rule="evenodd" d="M357.41 20.3912H329.586C328.634 20.3912 328.253 20.9635 328.253 21.5345V25.9179H357.41V32.779H328.253V37.9233C328.253 38.6855 329.015 39.0666 329.586 39.0666H357.41V46.1189H329.586C323.869 46.1189 320.629 41.9255 320.629 37.9233V22.1056C320.629 18.6756 323.488 13.7213 329.015 13.7213H357.41V20.3912ZM304.051 46.1189L293.76 35.8266H280.991C280.229 35.8266 279.658 36.3989 279.658 37.1611V43.6411V46.3089H272.606V22.1068C272.606 17.5323 276.417 13.7213 280.991 13.7213H304.622C309.196 13.7213 313.007 17.5323 313.007 22.1068V27.4423C313.007 32.0155 309.196 35.8266 304.622 35.8266H303.668L314.151 46.1189H304.051ZM264.602 20.3912H236.779C235.826 20.3912 235.444 20.9635 235.444 21.5345V25.9179H264.602V32.779H235.444V37.9233C235.444 38.6855 236.207 39.0666 236.779 39.0666H264.602V46.1189H236.779C231.061 46.1189 227.822 41.9255 227.822 37.9233V22.1056C227.822 18.6756 230.68 13.7213 236.207 13.7213H264.602V20.3912ZM212.385 46.3068H220.008V13.528H212.385V46.3068ZM197.14 46.1189V23.059L186.658 42.3066H180.369L169.317 23.059V46.3089H161.884V13.7213H170.842L183.037 35.0656L195.615 13.7213H204.381V46.1189H197.14ZM154.262 20.3912H126.438C125.485 20.3912 125.104 20.9635 125.104 21.5345V25.9179H154.262V32.779H125.104V37.9233C125.104 38.6855 125.867 39.0666 126.438 39.0666H154.262V46.1189H126.438C120.721 46.1189 117.481 41.9255 117.481 37.9233V22.1056C117.481 18.6756 120.34 13.7213 125.867 13.7213H154.262V20.3912ZM100.902 46.1189L90.6099 35.8266H77.8423C77.08 35.8266 76.509 36.3989 76.509 37.1611V43.6411V46.3089H69.2668V22.1068C69.2668 17.5323 73.0778 13.7213 77.6523 13.7213H101.282C105.857 13.7213 109.668 17.5323 109.668 22.1068V27.4423C109.668 32.0155 105.857 35.8266 101.282 35.8266H100.52L111.002 46.1189H100.902ZM61.4535 27.4423C61.4535 32.0155 57.6425 35.8266 53.068 35.8266H29.6281C28.8659 35.8266 28.2936 36.3989 28.2936 37.1611V46.3089H21.2426V43.4499V22.1068C21.2426 17.5323 25.0536 13.7213 29.6281 13.7213H53.068C57.6425 13.7213 61.4535 17.5323 61.4535 22.1068V27.4423ZM372.275 0H6.37798C3.32915 0 0.660156 2.47655 0.660156 5.71657V54.3131C0.660156 57.3619 3.13797 60.0296 6.37798 60.0296H372.275C375.324 60.0296 377.992 57.5518 377.992 54.3131V5.71657C377.992 2.47655 375.515 0 372.275 0Z" fill="#338C2E"/>
<path fill-rule="evenodd" clip-rule="evenodd" d="M227.823 22.1061V37.9239C227.823 41.9248 231.063 46.1182 236.779 46.1182H264.602V39.0659H236.779C236.208 39.0659 235.446 38.6861 235.446 37.9239V32.7771H264.602V25.9172H235.446V21.5338C235.446 20.9628 235.826 20.3905 236.779 20.3905H264.602V13.7206H236.208C230.68 13.7206 227.823 18.6749 227.823 22.1061ZM212.386 46.3061H220.01V13.5273H212.386V46.3061ZM304.433 28.7731C305.195 28.7731 305.767 28.2008 305.767 27.4386V22.1031C305.767 21.3409 305.195 20.7686 304.433 20.7686H280.802C280.039 20.7686 279.468 21.3409 279.468 22.1031V28.963C279.848 28.963 280.42 28.7731 280.802 28.7731H304.433ZM303.67 35.8272L314.151 46.1182H304.051L293.76 35.8272H280.991C280.23 35.8272 279.657 36.3982 279.657 37.1616V43.6404V46.3082H272.606V22.1061C272.606 17.5316 276.417 13.7206 280.991 13.7206H304.623C309.196 13.7206 313.007 17.5316 313.007 22.1061V27.4416C313.007 32.0148 309.196 35.8272 304.623 35.8272H303.67ZM329.587 20.3905H357.41V13.7206H329.016C323.49 13.7206 320.631 18.6749 320.631 22.1061V37.9239C320.631 41.9248 323.869 46.1182 329.587 46.1182H357.41V39.0659H329.587C329.016 39.0659 328.253 38.6861 328.253 37.9239V32.7771H357.41V25.9172H328.253V21.5338C328.253 20.9628 328.634 20.3905 329.587 20.3905ZM183.038 35.0649L170.842 13.7206H161.885V46.3082H169.317V23.0583L180.369 42.3072H186.658L197.14 23.0583V46.1182H204.381V13.7206H195.616L183.038 35.0649ZM101.283 28.7731C102.045 28.7731 102.618 28.2008 102.618 27.4386V22.1031C102.618 21.3409 102.045 20.7686 101.283 20.7686H77.6521C76.8899 20.7686 76.3176 21.3409 76.3176 22.1031V28.963C76.6987 28.963 77.271 28.7731 77.6521 28.7731H101.283ZM100.521 35.8272L111.002 46.1182H100.902L90.6111 35.8272H77.8422C77.08 35.8272 76.509 36.3982 76.509 37.1616V43.6404V46.3082H69.2668V22.1061C69.2668 17.5316 73.0791 13.7206 77.6523 13.7206H101.283C105.857 13.7206 109.669 17.5316 109.669 22.1061V27.4416C109.669 32.0148 105.857 35.8272 101.283 35.8272H100.521ZM54.7833 22.1031C54.7833 21.3409 54.2123 20.7686 53.4488 20.7686H29.6279C28.8657 20.7686 28.2934 21.3409 28.2934 22.1031V28.963C28.6758 28.963 29.2468 28.7731 29.6279 28.7731H53.4488C54.2123 28.7731 54.7833 28.2008 54.7833 27.4386V22.1031ZM61.4535 22.1061V27.4416C61.4535 32.0148 57.6425 35.8272 53.0692 35.8272H29.6281C28.8659 35.8272 28.2936 36.3982 28.2936 37.1616V46.3082H21.2426V43.4492V22.1061C21.2426 17.5316 25.0549 13.7206 29.6281 13.7206H53.0692C57.6425 13.7206 61.4535 17.5316 61.4535 22.1061ZM125.867 13.7206H154.262V20.3905H126.439C125.486 20.3905 125.105 20.9628 125.105 21.5338V25.9172H154.262V32.7771H125.105V37.9239C125.105 38.6861 125.867 39.0659 126.439 39.0659H154.262V46.1182H126.439C120.723 46.1182 117.481 41.9248 117.481 37.9239V22.1061C117.481 18.6749 120.34 13.7206 125.867 13.7206Z" fill="white"/>
<path fill-rule="evenodd" clip-rule="evenodd" d="M305.766 27.4434V22.1079C305.766 21.3445 305.194 20.7734 304.431 20.7734H280.8C280.038 20.7734 279.467 21.3445 279.467 22.1079V28.9678C279.848 28.9678 280.419 28.7779 280.8 28.7779H304.431C305.194 28.7779 305.766 28.2056 305.766 27.4434Z" fill="#338C2E"/>
<path fill-rule="evenodd" clip-rule="evenodd" d="M102.616 27.4434V22.1079C102.616 21.3445 102.044 20.7734 101.282 20.7734H77.6509C76.8887 20.7734 76.3176 21.3445 76.3176 22.1079V28.9678C76.6987 28.9678 77.2698 28.7779 77.6509 28.7779H101.282C102.044 28.7779 102.616 28.2056 102.616 27.4434Z" fill="#338C2E"/>
<path fill-rule="evenodd" clip-rule="evenodd" d="M53.4486 20.7734H29.6277C28.8655 20.7734 28.2932 21.3457 28.2932 22.1079V28.9678C28.6743 28.9678 29.2466 28.7779 29.6277 28.7779H53.4486C54.2108 28.7779 54.7831 28.2056 54.7831 27.4434V22.1079C54.7831 21.3457 54.2108 20.7734 53.4486 20.7734Z" fill="#338C2E"/>
<path d="M22.0958 110.698H15.6929V106.66H22.0958C23.0853 106.66 23.8907 106.499 24.512 106.176C25.1333 105.843 25.5878 105.382 25.8754 104.796C26.1631 104.209 26.3069 103.547 26.3069 102.811C26.3069 102.063 26.1631 101.367 25.8754 100.723C25.5878 100.078 25.1333 99.5606 24.512 99.1694C23.8907 98.7782 23.0853 98.5826 22.0958 98.5826H17.4878V119.655H12.3102V94.5268H22.0958C24.0633 94.5268 25.7489 94.8835 27.1526 95.5968C28.5678 96.2987 29.6493 97.2709 30.3972 98.5135C31.145 99.7562 31.519 101.177 31.519 102.776C31.519 104.399 31.145 105.802 30.3972 106.988C29.6493 108.173 28.5678 109.087 27.1526 109.732C25.7489 110.376 24.0633 110.698 22.0958 110.698Z" fill="black"/>
<path d="M56.4397 106.504V107.695C56.4397 109.605 56.1808 111.319 55.663 112.838C55.1453 114.357 54.4146 115.651 53.4712 116.721C52.5277 117.78 51.4002 118.591 50.0885 119.155C48.7884 119.719 47.3444 120 45.7566 120C44.1803 120 42.7364 119.719 41.4247 119.155C40.1246 118.591 38.997 117.78 38.042 116.721C37.087 115.651 36.3449 114.357 35.8157 112.838C35.2979 111.319 35.039 109.605 35.039 107.695V106.504C35.039 104.583 35.2979 102.868 35.8157 101.361C36.3334 99.8425 37.064 98.5481 38.0075 97.478C38.9625 96.408 40.09 95.5911 41.3902 95.0273C42.7018 94.4635 44.1458 94.1816 45.7221 94.1816C47.3099 94.1816 48.7538 94.4635 50.054 95.0273C51.3656 95.5911 52.4932 96.408 53.4367 97.478C54.3916 98.5481 55.128 99.8425 55.6458 101.361C56.175 102.868 56.4397 104.583 56.4397 106.504ZM51.2103 107.695V106.47C51.2103 105.135 51.0895 103.961 50.8479 102.949C50.6063 101.936 50.2496 101.085 49.7778 100.395C49.3061 99.7044 48.7308 99.1866 48.052 98.8415C47.3731 98.4848 46.5965 98.3064 45.7221 98.3064C44.8476 98.3064 44.071 98.4848 43.3922 98.8415C42.7248 99.1866 42.1553 99.7044 41.6836 100.395C41.2234 101.085 40.8724 101.936 40.6308 102.949C40.3892 103.961 40.2684 105.135 40.2684 106.47V107.695C40.2684 109.018 40.3892 110.192 40.6308 111.216C40.8724 112.228 41.2291 113.086 41.7008 113.787C42.1726 114.478 42.7479 115.001 43.4267 115.358C44.1055 115.715 44.8822 115.893 45.7566 115.893C46.631 115.893 47.4077 115.715 48.0865 115.358C48.7653 115.001 49.3349 114.478 49.7951 113.787C50.2553 113.086 50.6063 112.228 50.8479 111.216C51.0895 110.192 51.2103 109.018 51.2103 107.695Z" fill="black"/>
<path d="M60.8744 94.5268H70.2458C72.1673 94.5268 73.8183 94.8145 75.199 95.3897C76.5912 95.965 77.6613 96.8164 78.4091 97.944C79.157 99.0716 79.5309 100.458 79.5309 102.103C79.5309 103.449 79.3008 104.606 78.8406 105.572C78.3919 106.527 77.7533 107.327 76.9249 107.971C76.108 108.604 75.1473 109.11 74.0427 109.49L72.4031 110.353H64.2571L64.2226 106.314H70.2803C71.1893 106.314 71.9429 106.153 72.5412 105.831C73.1395 105.509 73.5882 105.06 73.8874 104.485C74.198 103.91 74.3534 103.242 74.3534 102.483C74.3534 101.678 74.2038 100.982 73.9046 100.395C73.6055 99.8079 73.151 99.3592 72.5412 99.0486C71.9314 98.7379 71.1663 98.5826 70.2458 98.5826H66.052V119.655H60.8744V94.5268ZM74.9229 119.655L69.1931 108.454L74.664 108.42L80.4629 119.414V119.655H74.9229Z" fill="black"/>
<path d="M94.4244 94.5268V119.655H89.2641V94.5268H94.4244ZM102.156 94.5268V98.5826H81.653V94.5268H102.156Z" fill="black"/>
<path d="M114.168 98.8242L107.333 119.655H101.828L111.165 94.5268H114.668L114.168 98.8242ZM119.846 119.655L112.994 98.8242L112.442 94.5268H115.98L125.368 119.655H119.846ZM119.535 110.301V114.357H106.263V110.301H119.535Z" fill="black"/>
<path d="M144.559 115.617V119.655H131.909V115.617H144.559ZM133.583 94.5268V119.655H128.405V94.5268H133.583Z" fill="black"/>
<path d="M165.458 119.655H159.987L160.021 115.617H165.458C166.816 115.617 167.96 115.312 168.892 114.702C169.824 114.081 170.526 113.178 170.998 111.992C171.481 110.807 171.723 109.375 171.723 107.695V106.47C171.723 105.181 171.585 104.048 171.309 103.07C171.044 102.092 170.647 101.269 170.118 100.602C169.588 99.9345 168.938 99.434 168.167 99.1003C167.397 98.7552 166.511 98.5826 165.51 98.5826H159.883V94.5268H165.51C167.19 94.5268 168.726 94.8145 170.118 95.3897C171.521 95.9535 172.735 96.7647 173.759 97.8232C174.783 98.8817 175.571 100.147 176.124 101.62C176.687 103.081 176.969 104.709 176.969 106.504V107.695C176.969 109.478 176.687 111.107 176.124 112.579C175.571 114.052 174.783 115.318 173.759 116.376C172.747 117.423 171.533 118.234 170.118 118.81C168.714 119.373 167.161 119.655 165.458 119.655ZM162.921 94.5268V119.655H157.743V94.5268H162.921Z" fill="black"/>
<path d="M202.08 106.504V107.695C202.08 109.605 201.821 111.319 201.303 112.838C200.786 114.357 200.055 115.651 199.111 116.721C198.168 117.78 197.04 118.591 195.729 119.155C194.429 119.719 192.985 120 191.397 120C189.821 120 188.377 119.719 187.065 119.155C185.765 118.591 184.637 117.78 183.682 116.721C182.727 115.651 181.985 114.357 181.456 112.838C180.938 111.319 180.679 109.605 180.679 107.695V106.504C180.679 104.583 180.938 102.868 181.456 101.361C181.974 99.8425 182.704 98.5481 183.648 97.478C184.603 96.408 185.73 95.5911 187.03 95.0273C188.342 94.4635 189.786 94.1816 191.362 94.1816C192.95 94.1816 194.394 94.4635 195.694 95.0273C197.006 95.5911 198.133 96.408 199.077 97.478C200.032 98.5481 200.768 99.8425 201.286 101.361C201.815 102.868 202.08 104.583 202.08 106.504ZM196.851 107.695V106.47C196.851 105.135 196.73 103.961 196.488 102.949C196.247 101.936 195.89 101.085 195.418 100.395C194.946 99.7044 194.371 99.1866 193.692 98.8415C193.013 98.4848 192.237 98.3064 191.362 98.3064C190.488 98.3064 189.711 98.4848 189.032 98.8415C188.365 99.1866 187.796 99.7044 187.324 100.395C186.864 101.085 186.513 101.936 186.271 102.949C186.029 103.961 185.909 105.135 185.909 106.47V107.695C185.909 109.018 186.029 110.192 186.271 111.216C186.513 112.228 186.869 113.086 187.341 113.787C187.813 114.478 188.388 115.001 189.067 115.358C189.746 115.715 190.522 115.893 191.397 115.893C192.271 115.893 193.048 115.715 193.727 115.358C194.406 115.001 194.975 114.478 195.435 113.787C195.896 113.086 196.247 112.228 196.488 111.216C196.73 110.192 196.851 109.018 196.851 107.695Z" fill="black"/>
<path d="M221.201 94.5268V119.655H216.023V94.5268H221.201ZM231.211 105.262V109.3H219.786V105.262H231.211ZM232.419 94.5268V98.5826H219.786V94.5268H232.419Z" fill="black"/>
<path d="M250.005 94.5268H255.165V111.13C255.165 113.063 254.751 114.691 253.923 116.014C253.106 117.337 251.972 118.332 250.523 118.999C249.084 119.667 247.428 120 245.552 120C243.677 120 242.008 119.667 240.547 118.999C239.097 118.332 237.958 117.337 237.13 116.014C236.313 114.691 235.905 113.063 235.905 111.13V94.5268H241.082V111.13C241.082 112.257 241.261 113.178 241.617 113.891C241.974 114.604 242.486 115.128 243.153 115.461C243.832 115.795 244.632 115.962 245.552 115.962C246.496 115.962 247.295 115.795 247.951 115.461C248.618 115.128 249.125 114.604 249.47 113.891C249.827 113.178 250.005 112.257 250.005 111.13V94.5268Z" fill="black"/>
<path d="M271.37 94.5268V119.655H266.21V94.5268H271.37ZM279.102 94.5268V98.5826H258.599V94.5268H279.102Z" fill="black"/>
<path d="M299.622 115.617V119.655H286.246V115.617H299.622ZM287.938 94.5268V119.655H282.76V94.5268H287.938ZM297.879 104.761V108.696H286.246V104.761H297.879ZM299.605 94.5268V98.5826H286.246V94.5268H299.605Z" fill="black"/>
<path d="M313.186 108.627H306.732L306.697 105.072H312.116C313.071 105.072 313.854 104.951 314.464 104.709C315.073 104.456 315.528 104.094 315.827 103.622C316.138 103.139 316.293 102.552 316.293 101.862C316.293 101.079 316.143 100.447 315.844 99.9633C315.557 99.48 315.102 99.1291 314.481 98.9105C313.871 98.6919 313.083 98.5826 312.116 98.5826H308.527V119.655H303.349V94.5268H312.116C313.578 94.5268 314.883 94.6649 316.034 94.941C317.196 95.2172 318.18 95.6371 318.985 96.2009C319.791 96.7647 320.406 97.478 320.832 98.341C321.258 99.1924 321.471 100.205 321.471 101.378C321.471 102.414 321.235 103.369 320.763 104.243C320.303 105.118 319.572 105.831 318.571 106.383C317.582 106.936 316.287 107.241 314.688 107.298L313.186 108.627ZM312.962 119.655H305.317L307.336 115.617H312.962C313.871 115.617 314.613 115.473 315.188 115.185C315.764 114.886 316.189 114.483 316.466 113.977C316.742 113.471 316.88 112.89 316.88 112.234C316.88 111.498 316.753 110.859 316.5 110.318C316.258 109.778 315.867 109.363 315.326 109.076C314.786 108.777 314.072 108.627 313.186 108.627H308.199L308.233 105.072H314.446L315.637 106.47C317.167 106.447 318.398 106.717 319.33 107.281C320.274 107.833 320.958 108.552 321.384 109.438C321.821 110.324 322.04 111.273 322.04 112.286C322.04 113.897 321.689 115.254 320.987 116.359C320.285 117.452 319.256 118.275 317.898 118.827C316.552 119.379 314.907 119.655 312.962 119.655Z" fill="black"/>
<path d="M347.271 106.504V107.695C347.271 109.605 347.013 111.319 346.495 112.838C345.977 114.357 345.246 115.651 344.303 116.721C343.359 117.78 342.232 118.591 340.92 119.155C339.62 119.719 338.176 120 336.588 120C335.012 120 333.568 119.719 332.256 119.155C330.956 118.591 329.829 117.78 328.874 116.721C327.919 115.651 327.177 114.357 326.647 112.838C326.13 111.319 325.871 109.605 325.871 107.695V106.504C325.871 104.583 326.13 102.868 326.647 101.361C327.165 99.8425 327.896 98.5481 328.839 97.478C329.794 96.408 330.922 95.5911 332.222 95.0273C333.534 94.4635 334.978 94.1816 336.554 94.1816C338.142 94.1816 339.586 94.4635 340.886 95.0273C342.197 95.5911 343.325 96.408 344.268 97.478C345.223 98.5481 345.96 99.8425 346.478 101.361C347.007 102.868 347.271 104.583 347.271 106.504ZM342.042 107.695V106.47C342.042 105.135 341.921 103.961 341.68 102.949C341.438 101.936 341.081 101.085 340.61 100.395C340.138 99.7044 339.563 99.1866 338.884 98.8415C338.205 98.4848 337.428 98.3064 336.554 98.3064C335.679 98.3064 334.903 98.4848 334.224 98.8415C333.557 99.1866 332.987 99.7044 332.515 100.395C332.055 101.085 331.704 101.936 331.463 102.949C331.221 103.961 331.1 105.135 331.1 106.47V107.695C331.1 109.018 331.221 110.192 331.463 111.216C331.704 112.228 332.061 113.086 332.533 113.787C333.004 114.478 333.58 115.001 334.258 115.358C334.937 115.715 335.714 115.893 336.588 115.893C337.463 115.893 338.239 115.715 338.918 115.358C339.597 115.001 340.167 114.478 340.627 113.787C341.087 113.086 341.438 112.228 341.68 111.216C341.921 110.192 342.042 109.018 342.042 107.695Z" fill="black"/>
<path d="M367.86 115.617V119.655H355.21V115.617H367.86ZM356.884 94.5268V119.655H351.706V94.5268H356.884Z" fill="black"/>
</svg>
