<svg width="48" height="48" viewBox="0 0 48 48" fill="none" xmlns="http://www.w3.org/2000/svg">
<g clip-path="url(#clip0_1_34)">
<path d="M47 24C47 11.2975 36.7025 1 24 1C11.2975 1 1 11.2975 1 24C1 36.7025 11.2975 47 24 47C36.7025 47 47 36.7025 47 24Z" fill="#338C2E" stroke="#F8F8F8" stroke-width="2"/>
<path fill-rule="evenodd" clip-rule="evenodd" d="M32.1094 18.9872C32.1094 18.5336 31.7671 18.1931 31.3094 18.1931H17.0281C16.5711 18.1931 16.228 18.5336 16.228 18.9872V23.069C16.4572 23.069 16.7995 22.9559 17.0281 22.9559H31.3094C31.7671 22.9559 32.1094 22.6154 32.1094 22.1619V18.9872ZM36.1076 18.9896V22.1643C36.1076 24.8855 33.8227 27.154 31.081 27.154H17.0274C16.5704 27.154 16.2273 27.4937 16.2273 27.948V33.3904H12V31.6893V18.9896C12 16.2676 14.2856 14 17.0274 14H31.081C33.8227 14 36.1076 16.2676 36.1076 18.9896Z" fill="white"/>
</g>
<defs>
<clipPath id="clip0_1_34">
<rect width="48" height="48" fill="white"/>
</clipPath>
</defs>
</svg>
