<svg width="48" height="48" viewBox="0 0 48 48" fill="none" xmlns="http://www.w3.org/2000/svg">
<rect x="1" y="1" width="46" height="46" rx="23" fill="white" stroke="#F8F8F8" stroke-width="2"/>
<path d="M7.40813 18.0157C7.03686 18.0721 6.72565 18.2341 6.46722 18.5034C6.21607 18.7655 6.06137 19.0858 6.01587 19.4353C6.00131 19.5463 5.99767 20.8894 6.00131 24.1034C6.00677 28.3275 6.01041 28.6241 6.03953 28.7333C6.21243 29.3667 6.65649 29.8071 7.28255 29.9672C7.40085 29.9982 7.6793 30 12.1036 30H16.799L16.9537 29.96C17.1648 29.9035 17.4451 29.7616 17.5998 29.6324C17.8746 29.4012 18.0711 29.0882 18.1585 28.7442L18.2004 28.5804V23.9942V19.408L18.153 19.2332C18.0347 18.811 17.7763 18.4634 17.4105 18.2377C17.2467 18.1376 16.9865 18.043 16.7972 18.0157C16.648 17.9957 7.54826 17.9939 7.40813 18.0157ZM12.7769 20.6637C13.929 20.8148 14.8899 21.2534 15.6415 21.9741C15.9728 22.2926 16.2039 22.5856 16.4241 22.9714C16.5843 23.248 16.7735 23.7048 16.8336 23.9523L16.8445 24.0033H16.6552H16.466L16.4532 23.9523C16.4241 23.8359 16.304 23.541 16.2039 23.3408C15.607 22.1397 14.4185 21.3025 12.968 21.0568C12.271 20.9385 11.4702 20.964 10.8114 21.126C9.53017 21.4408 8.54195 22.2107 7.99961 23.3172C7.93045 23.4537 7.84491 23.6648 7.80669 23.7849L7.73571 24.0015L7.55008 24.0033C7.44634 24.0033 7.36263 23.996 7.36263 23.9887C7.36263 23.956 7.45726 23.6557 7.52096 23.4937C8.03054 22.1633 9.16255 21.1769 10.6149 20.8002C10.9515 20.7129 11.1426 20.6819 11.685 20.6291C11.8433 20.6128 12.5713 20.6364 12.7769 20.6637ZM12.5586 22.2088C13.1191 22.3326 13.5941 22.6365 13.9253 23.0842C14.4131 23.7449 14.5041 24.633 14.1583 25.3846C13.9581 25.8214 13.5522 26.24 13.1227 26.4566C12.8006 26.6186 12.4967 26.6859 12.1036 26.6859C11.7814 26.6859 11.6176 26.6604 11.3483 26.5658C10.9261 26.4184 10.553 26.1436 10.2782 25.7777C10.1471 25.603 9.97606 25.25 9.92146 25.0461C9.74493 24.3782 9.85958 23.6903 10.2418 23.1352C10.3655 22.9532 10.6258 22.6929 10.8078 22.5692C11.0844 22.3781 11.4138 22.2471 11.7578 22.1906C11.9398 22.1597 12.382 22.1706 12.5586 22.2088Z" fill="#2387C8"/>
<path d="M11.7595 22.5583C11.381 22.6329 11.0589 22.8021 10.7804 23.0715C10.0288 23.7977 10.0051 24.9715 10.724 25.7341C11.2954 26.3383 12.1799 26.5021 12.9243 26.1417C13.4302 25.896 13.7979 25.4483 13.9471 24.8969C13.9871 24.7458 13.9926 24.684 13.9944 24.431C13.9962 24.1671 13.9908 24.1234 13.9453 23.9596C13.7414 23.2244 13.1736 22.6966 12.4347 22.5565C12.26 22.5237 11.9306 22.5237 11.7595 22.5583ZM12.4165 23.1589C12.4748 23.1734 12.6003 23.2226 12.695 23.2699C13.0171 23.4264 13.2792 23.7503 13.3684 24.1052C13.4448 24.4001 13.4048 24.7604 13.2683 25.0207C12.9334 25.6576 12.1781 25.9161 11.5375 25.6121C11.1954 25.4502 10.926 25.1298 10.8277 24.7677C10.7859 24.6075 10.7859 24.2563 10.8277 24.0943C10.9606 23.5902 11.3864 23.2153 11.9215 23.1279C12.038 23.1097 12.2837 23.1243 12.4165 23.1589Z" fill="#2387C8"/>
<path d="M27.9069 18.8797H28.7875V18H27.9069V18.8797Z" fill="#2387C8"/>
<path d="M21.6603 19.4805C20.7797 19.5965 20.2403 20.0963 20.066 20.961C20.0037 21.2679 20 21.4195 20 23.207V25H20.8806V23.9706H21.6218C22.0455 23.9706 22.4253 23.9612 22.5079 23.95C22.983 23.8845 23.3444 23.7086 23.6178 23.411C23.9737 23.0235 24.1278 22.5144 24.1278 21.734C24.1296 21.3465 24.1076 21.1201 24.0452 20.8711C23.8397 20.0401 23.3206 19.589 22.44 19.4786C22.2584 19.4562 21.8437 19.458 21.6603 19.4805ZM22.5042 20.4032C22.7812 20.4799 22.9903 20.6409 23.0986 20.8599C23.194 21.0527 23.2307 21.2436 23.2417 21.6086C23.2655 22.3703 23.1188 22.754 22.728 22.9505C22.4932 23.0684 22.4235 23.0759 21.6089 23.0853L20.8769 23.0947L20.8861 22.2075C20.8916 21.4513 20.8989 21.3016 20.9246 21.1818C21.0329 20.7102 21.2567 20.4818 21.7061 20.3845C21.8694 20.3508 22.3537 20.362 22.5042 20.4032Z" fill="#2387C8"/>
<path d="M26.6283 19.4805C25.7587 19.5666 25.212 19.9016 24.9992 20.4799C24.9038 20.7364 24.8983 20.8393 24.8983 22.4676V23.9706H25.777L25.7825 22.4489C25.788 21.0059 25.7899 20.9235 25.8229 20.8356C25.8743 20.7008 26.032 20.5455 26.1733 20.4912C26.3512 20.4219 26.5971 20.377 26.8668 20.3639L27.1181 20.3527V19.4599L26.9493 19.4618C26.8557 19.4636 26.7108 19.4711 26.6283 19.4805Z" fill="#2387C8"/>
<path d="M27.9069 23.9706H28.7875V19.4599H27.9069V23.9706Z" fill="#2387C8"/>
<path d="M31.2734 19.4805C30.4625 19.5872 29.9433 20.0176 29.7323 20.7607C29.6241 21.1425 29.6259 21.1332 29.6186 22.608L29.6112 23.9706H30.4918L30.4992 22.6548C30.5065 21.2455 30.5083 21.2324 30.6056 20.9666C30.7138 20.6709 30.9156 20.493 31.2458 20.4013C31.4165 20.3527 31.9393 20.3545 32.1081 20.4013C32.3081 20.4575 32.4493 20.5361 32.5649 20.6521C32.6841 20.7757 32.7502 20.8992 32.8089 21.1163C32.8493 21.2642 32.8493 21.2866 32.8566 22.6174L32.8621 23.9706H33.7574L33.7647 22.6267C33.7702 21.3184 33.772 21.281 33.8106 21.1313C33.9151 20.7289 34.1224 20.508 34.493 20.4032C34.6636 20.3545 35.203 20.3545 35.3736 20.4032C35.7479 20.508 35.9662 20.7307 36.0597 21.0976C36.1166 21.3241 36.1258 21.5524 36.1258 22.7578V23.9706H37.0082L37.0027 22.608C36.9954 21.0864 36.9954 21.0882 36.8614 20.684C36.5918 19.8623 35.9588 19.4599 34.9333 19.4599C34.2655 19.4599 33.728 19.6602 33.3923 20.0326L33.3097 20.1243L33.2088 20.0139C32.9465 19.7313 32.519 19.5329 32.0457 19.4805C31.8421 19.4561 31.4568 19.458 31.2734 19.4805Z" fill="#2387C8"/>
<path d="M39.538 19.4805C38.9858 19.5535 38.5675 19.7687 38.296 20.1225C38.0924 20.3901 37.9401 20.8019 37.8887 21.2286C37.8594 21.4701 37.8649 22.0334 37.8961 22.2655C38.0355 23.265 38.5565 23.8152 39.4921 23.9519C39.5674 23.9612 40.1214 23.9706 40.8094 23.9706H41.9963V23.0928L40.8277 23.0853C39.7985 23.0797 39.6426 23.0741 39.5398 23.0479C39.1491 22.9412 38.8849 22.6717 38.7968 22.2898L38.7712 22.1738H42L41.9908 21.6909C41.9798 21.0508 41.9248 20.7663 41.7377 20.3957C41.4698 19.8604 41.0075 19.5647 40.3085 19.4786C40.1287 19.4561 39.7105 19.458 39.538 19.4805ZM40.4131 20.4219C40.5837 20.4781 40.7543 20.5885 40.8497 20.7008C40.936 20.8037 41.035 21.0115 41.068 21.1575L41.0937 21.2754H38.7712L38.7968 21.1575C38.8739 20.8225 39.0867 20.5604 39.3692 20.4519C39.5619 20.377 39.694 20.3583 39.9875 20.3658C40.2241 20.3714 40.2847 20.3789 40.4131 20.4219Z" fill="#2387C8"/>
<path d="M39.5231 26.5636H40.1102V26H39.5231V26.5636Z" fill="#2387C8"/>
<path d="M20.011 28.9364L20.0605 29.1127C20.1871 29.5709 20.444 29.8291 20.8917 29.9491C21.1082 30.0055 21.576 30.0055 21.8072 29.9491C22.2622 29.8364 22.5301 29.5655 22.6548 29.0909C22.7264 28.8164 22.7264 28.3164 22.6512 28.0182C22.5668 27.6818 22.3484 27.3964 22.0751 27.2691C21.8219 27.1491 21.7595 27.14 21.1449 27.1327L20.5889 27.1236V26H20L20.011 28.9364ZM21.6733 27.7418C21.8182 27.7891 21.9283 27.8655 21.9943 27.9636C22.1338 28.1727 22.1686 28.6782 22.064 29.0091C21.9797 29.2818 21.7411 29.4182 21.3503 29.4182C20.9596 29.4182 20.7357 29.2855 20.6403 29.0018C20.6018 28.8909 20.5999 28.84 20.5926 28.2836L20.5871 27.6873L21.0696 27.6945C21.499 27.7018 21.565 27.7073 21.6733 27.7418Z" fill="#2387C8"/>
<path d="M28.9184 27.3982C28.9184 28.5673 28.9221 28.8218 28.946 28.9564C29.0432 29.5109 29.3074 29.8145 29.8083 29.9491C30.0248 30.0055 30.4926 30.0073 30.7238 29.9491C30.9495 29.8927 31.1219 29.8 31.2669 29.6545C31.4724 29.4509 31.5806 29.1782 31.6155 28.7836C31.6888 27.9636 31.4118 27.3945 30.8485 27.2109C30.6302 27.14 30.5055 27.1273 29.9881 27.1273H29.5055V26H28.9184V27.3982ZM30.5899 27.7418C30.9183 27.8491 31.0375 28.0655 31.0357 28.5636C31.0357 28.7091 31.0265 28.8509 31.0118 28.9091C30.9238 29.2636 30.6981 29.4182 30.2669 29.4182C29.8762 29.4182 29.6523 29.2873 29.5569 29.0018C29.5184 28.8891 29.5147 28.8436 29.5092 28.2836L29.5037 27.6873L29.9862 27.6945C30.4156 27.7018 30.4816 27.7073 30.5899 27.7418Z" fill="#2387C8"/>
<path d="M40.5359 27.5764C40.5414 28.9964 40.5469 29.1655 40.5744 29.26C40.7029 29.6927 41.0423 29.9164 41.6698 29.9818C41.7652 29.9909 41.8789 30 41.9229 30H42V29.4182H41.8642C41.7248 29.4182 41.5028 29.3836 41.4037 29.3455C41.3065 29.3091 41.2184 29.2382 41.1725 29.1582L41.1285 29.0818L41.1175 26H40.5304L40.5359 27.5764Z" fill="#2387C8"/>
<path d="M23.8822 27.1636C23.4089 27.2636 23.1116 27.5545 22.9887 28.0455C22.9538 28.1873 22.9483 28.2582 22.9483 28.5636C22.9483 28.9691 22.9777 29.1364 23.0951 29.3764C23.1667 29.5255 23.3318 29.7127 23.4657 29.7982C23.8932 30.0691 24.7097 30.0636 25.1335 29.7873C25.3371 29.6545 25.5023 29.4164 25.5775 29.1455C25.6692 28.8255 25.6692 28.3018 25.5793 27.9818C25.4527 27.5345 25.1518 27.2564 24.6968 27.1636C24.4675 27.1164 24.1115 27.1164 23.8822 27.1636ZM24.4675 27.7091C24.8821 27.7691 25.0638 28.0291 25.0638 28.5636C25.0638 29.0055 24.939 29.2582 24.6638 29.3673C24.5739 29.4036 24.528 29.4073 24.295 29.4073C24.062 29.4073 24.0161 29.4036 23.9262 29.3673C23.7134 29.2836 23.5997 29.1291 23.552 28.8618C23.5024 28.5909 23.5299 28.2364 23.6125 28.0509C23.7318 27.78 24.0583 27.6509 24.4675 27.7091Z" fill="#2387C8"/>
<path d="M25.939 27.1491C25.9481 27.1618 26.1573 27.4782 26.4068 27.8527L26.8581 28.5327L26.3756 29.2545C26.1096 29.6527 25.8913 29.9836 25.8913 29.9891C25.8913 29.9945 26.0472 30 26.2398 30H26.5884L26.9003 29.5364C27.0728 29.2818 27.2159 29.0727 27.2196 29.0727C27.2196 29.0727 27.3645 29.2818 27.5352 29.5364L27.8452 30H28.192C28.4598 30 28.5351 29.9945 28.5277 29.9764C28.5241 29.9655 28.3076 29.6364 28.047 29.2491C27.7718 28.8364 27.581 28.5309 27.5865 28.5164C27.592 28.5018 27.7993 28.1873 28.047 27.8164C28.2947 27.4455 28.4965 27.14 28.4965 27.1345C28.4965 27.1309 28.3388 27.1273 28.1479 27.1273H27.7975L27.2177 28L26.6343 27.1273H26.2802C26.0013 27.1273 25.9279 27.1327 25.939 27.1491Z" fill="#2387C8"/>
<path d="M32.9274 27.1564C32.3916 27.2382 32.0907 27.46 31.9678 27.86C31.944 27.94 31.9384 28.1127 31.9329 28.9764L31.9256 30H32.5145V29.0618C32.5145 28.4091 32.5219 28.1 32.5366 28.04C32.5678 27.9164 32.6797 27.8127 32.8338 27.7655C32.9347 27.7345 33.2429 27.6909 33.3603 27.6909C33.3934 27.6909 33.3952 27.6727 33.3952 27.4091V27.1273L33.2448 27.1291C33.1604 27.1309 33.0191 27.1418 32.9274 27.1564Z" fill="#2387C8"/>
<path d="M34.4685 27.1527C33.9952 27.2455 33.7255 27.4945 33.6943 27.8709L33.6833 28H34.2759V27.9436C34.2759 27.86 34.3713 27.7745 34.5071 27.7345C34.586 27.7109 34.6795 27.7018 34.863 27.7018C35.1621 27.7018 35.296 27.7345 35.3896 27.8273C35.4409 27.8782 35.4501 27.9 35.4501 27.9782C35.4501 28.0418 35.4391 28.0818 35.4116 28.1164C35.329 28.22 35.2116 28.2491 34.7823 28.2727C34.3328 28.2964 34.1291 28.36 33.9273 28.54C33.7585 28.6909 33.6778 28.9127 33.6925 29.1891C33.709 29.4655 33.8136 29.6618 34.0209 29.7982C34.397 30.0473 35.2318 30.0691 35.6574 29.84C35.7804 29.7745 35.929 29.6109 35.9822 29.48C36.0262 29.3727 36.028 29.3691 36.0336 28.6218C36.0372 28.1309 36.0317 27.8382 36.0189 27.7764C35.9547 27.4673 35.751 27.2764 35.3804 27.1782C35.1969 27.1291 34.6649 27.1145 34.4685 27.1527ZM35.4464 29.0164C35.4409 29.2345 35.4373 29.2545 35.3969 29.2982C35.3143 29.3855 35.1988 29.4091 34.863 29.4091C34.408 29.4091 34.2942 29.3582 34.2796 29.1455C34.2722 29.0418 34.2741 29.0345 34.3346 28.9745C34.419 28.8909 34.4906 28.8745 34.863 28.8527C35.0391 28.8436 35.23 28.8236 35.285 28.8109C35.4666 28.7655 35.4538 28.7491 35.4464 29.0164Z" fill="#2387C8"/>
<path d="M36.4591 27.6909H38.5691L38.5581 27.74C38.5085 27.94 38.4094 28.0909 38.27 28.1727C38.1709 28.2291 37.9856 28.2727 37.8352 28.2727C37.5178 28.2727 37.204 28.3455 37.0096 28.4636C36.8921 28.5345 36.7417 28.6836 36.6701 28.8C36.5325 29.0182 36.4591 29.3545 36.4591 29.7582V30H39.1745V29.4182H37.0646L37.0756 29.3673C37.105 29.2418 37.1839 29.1036 37.2701 29.0273C37.4059 28.9073 37.5196 28.8727 37.8407 28.8527C38.1764 28.8327 38.3324 28.8 38.5324 28.7055C38.9709 28.4982 39.1745 28.0636 39.1745 27.3418V27.1273H36.4591V27.6909Z" fill="#2387C8"/>
<path d="M39.5231 30H40.1102V27.1273H39.5231V30Z" fill="#2387C8"/>
</svg>
