<svg width="48" height="48" viewBox="0 0 48 48" fill="none" xmlns="http://www.w3.org/2000/svg">
<rect x="1" y="1" width="46" height="46" rx="23" fill="white" stroke="#F8F8F8" stroke-width="2"/>
<path fill-rule="evenodd" clip-rule="evenodd" d="M36.5157 22.6709H37.8335V21.5665H36.5157V22.6709ZM44 22.9229V24.1276H43.4871V26.3035H43.9976V27.5152H42.1433V27.004C41.8273 27.3985 41.3857 27.5828 40.7827 27.5828C39.4721 27.5828 38.4937 26.5954 38.4937 25.2156C38.4937 23.8358 39.4721 22.8482 40.7827 22.8482C41.4119 22.8482 41.863 23.0397 42.2121 23.4926V22.9229H44ZM39.9065 25.2156C39.9065 25.8832 40.3814 26.3619 41.0297 26.3619C41.6754 26.3619 42.1527 25.8856 42.1527 25.2156C42.1527 24.5478 41.6754 24.0693 41.0297 24.0693C40.3838 24.0693 39.9065 24.5456 39.9065 25.2156ZM37.8335 26.3035H38.4202V27.5152H36.0148V26.3035H36.5135V24.1276H35.946V22.9229H37.8335V26.3035ZM35.5281 26.3035H34.9416V21.5665H33.0514V22.7712H33.6213V26.3035H33.0349V27.5152H35.5281V26.3035ZM29.3308 22.8482C29.96 22.8482 30.4111 23.0397 30.7602 23.4926V22.9229H32.5457V24.1276H32.0352V26.3035H32.5457V27.5152H30.6913V27.004C30.3779 27.3985 29.9362 27.5828 29.3308 27.5828C28.02 27.5828 27.0417 26.5954 27.0417 25.2156C27.0417 23.8358 28.02 22.8482 29.3308 22.8482ZM28.4544 25.2156C28.4544 25.8832 28.9317 26.3619 29.5778 26.3619C30.2235 26.3619 30.7008 25.8856 30.7008 25.2156C30.7008 24.5478 30.2235 24.0693 29.5778 24.0693C28.9317 24.0693 28.4544 24.5456 28.4544 25.2156ZM26.1346 22.9229H26.9278V24.1276H26.1346V26.3035H26.79V27.5152H24.7884V24.1276H24.2019V22.9229H24.7884V21.5689H26.1346V22.9229ZM21.1959 21.5665H23.8267V22.7898H23.2735V26.2848H23.8267V27.5174H21.1959V26.2848H21.7919V22.7898H21.1959V21.5665ZM4 32H19.2559V17H4V32ZM16.0337 27.4544H17.4749V23.4575H16.0337V27.4544ZM17.5629 21.9238C17.5629 21.4871 17.1997 21.13 16.7556 21.13C16.314 21.13 15.9483 21.4871 15.9483 21.9238C15.9483 22.3603 16.3116 22.7175 16.7556 22.7175C17.1997 22.7175 17.5629 22.3603 17.5629 21.9238ZM12.5029 23.3268C12.9708 23.3268 13.4622 23.4973 13.7638 23.8498V23.46H15.2051V27.4544H15.2027H13.7614V27.0108H13.7448C13.4908 27.4079 12.9921 27.5876 12.5171 27.5876C11.3133 27.5876 10.4657 26.5977 10.4657 25.4537C10.4657 24.3074 11.2968 23.3268 12.5029 23.3268ZM12.8829 24.5573C12.2963 24.5573 11.9568 24.9704 11.9568 25.4608C11.9568 25.9674 12.2963 26.3572 12.8829 26.3572C13.4694 26.3572 13.8089 25.9674 13.8089 25.4608C13.8089 24.9704 13.4694 24.5573 12.8829 24.5573ZM5.74778 21.5806H8.07C9.25 21.5806 10.1452 22.1339 10.1452 23.3875C10.1452 24.1977 9.68683 24.8981 8.83683 25.0475L10.7151 27.4544H8.78222L7.31714 25.1947H7.30063V27.4544H5.74778V21.5806ZM7.30063 24.2139H7.45016C7.95825 24.2139 8.5281 24.1206 8.5281 23.481C8.5281 22.8437 7.95825 22.7502 7.45254 22.7502H7.30063V24.2139Z" fill="#4144C5"/>
</svg>
