<svg width="48" height="48" viewBox="0 0 48 48" fill="none" xmlns="http://www.w3.org/2000/svg">
<rect x="1" y="1" width="46" height="46" rx="23" fill="white" stroke="#F8F8F8" stroke-width="2"/>
<path fill-rule="evenodd" clip-rule="evenodd" d="M37.8589 24.8634C38.1347 25.117 38.4164 25.376 38.8046 25.403C39.3657 25.4747 39.8794 25.032 39.9833 24.4951V20.2965C40.02 20.0885 39.9009 19.8939 39.7276 19.7826C39.4261 19.5902 38.9706 19.7753 38.908 20.1371C38.8906 20.8061 38.8909 21.4753 38.8911 22.1446C38.8913 22.746 38.8915 23.3473 38.879 23.9484C38.8709 23.9721 38.8742 24.0192 38.8774 24.0663C38.8838 24.1584 38.8902 24.2504 38.8115 24.1665C37.9607 23.4186 37.1231 22.6555 36.2856 21.8925C35.7593 21.4131 35.233 20.9336 34.7034 20.4579C34.6172 20.3878 34.5333 20.3083 34.4485 20.228C34.1768 19.9708 33.896 19.705 33.503 19.7095C33.4686 19.7055 33.4343 19.7037 33.4002 19.7037C32.8907 19.7037 32.4539 20.1306 32.3566 20.6208V24.8065C32.3114 25.0706 32.516 25.3266 32.7663 25.3957C33.0711 25.4644 33.3361 25.2758 33.4404 24.9969C33.4412 24.6467 33.4417 24.2965 33.4422 23.9464V23.9457C33.4434 23.1229 33.4446 22.3002 33.4495 21.4774C33.4668 21.4244 33.4592 21.3222 33.4515 21.2191C33.4385 21.0443 33.4253 20.8671 33.5332 20.9237C34.2813 21.5825 35.0128 22.26 35.7442 22.9375L35.7442 22.9376L35.7442 22.9376L35.7443 22.9376L35.7443 22.9376C36.3563 23.5046 36.9683 24.0715 37.5902 24.6275C37.6814 24.7003 37.7698 24.7816 37.8589 24.8634L37.8589 24.8634ZM39.9681 27.9428C39.9368 28.0209 39.8311 28.1103 39.7292 28.1451C39.6085 28.1864 39.4143 28.1942 39.2986 28.1627C39.1034 28.1097 38.9605 27.9586 38.9605 27.8052V27.7666H39.0881H39.2156L39.2405 27.8173C39.2772 27.8928 39.3582 27.9291 39.4884 27.9291C39.6164 27.9291 39.675 27.9026 39.7113 27.8286C39.7346 27.7806 39.7353 27.7706 39.7179 27.721C39.6929 27.6496 39.6437 27.6219 39.5083 27.603C39.2063 27.561 39.095 27.5135 39.022 27.3952C38.9845 27.3343 38.9808 27.3182 38.9809 27.2123C38.9811 27.0739 39.0118 26.9977 39.0984 26.9193C39.1704 26.8543 39.2457 26.822 39.3707 26.8026C39.4016 26.7979 39.4332 26.7955 39.4648 26.7952C39.6023 26.7942 39.7417 26.835 39.8358 26.9067C39.886 26.945 39.9433 27.0559 39.9565 27.1401L39.9654 27.1975H39.8288C39.7194 27.1975 39.692 27.1938 39.692 27.1784C39.692 27.1431 39.6266 27.0807 39.5728 27.0645C39.5434 27.0559 39.4948 27.0487 39.4644 27.0487C39.276 27.0487 39.1737 27.233 39.3146 27.3188C39.3384 27.3331 39.401 27.3514 39.4537 27.3594C39.694 27.3958 39.735 27.4051 39.8118 27.4416C39.8678 27.468 39.9066 27.4979 39.9343 27.5364C40.0068 27.6364 40.0212 27.8099 39.9681 27.9428ZM38.5811 26.8369C38.5811 26.8473 38.4807 27.1502 38.3577 27.5105C38.2347 27.8706 38.1342 28.1674 38.1342 28.1698C38.1342 28.1723 38.0961 28.1724 38.0496 28.1702L37.9649 28.1662L37.8466 27.8344C37.7817 27.6518 37.7235 27.491 37.7174 27.4771C37.7092 27.4586 37.6739 27.5458 37.5833 27.809L37.4603 28.1662L37.3739 28.1701L37.2874 28.174L37.0674 27.5312C36.9464 27.1778 36.8473 26.8727 36.8473 26.8534V26.8182H36.9889H37.1306L37.1974 27.0248C37.2343 27.1386 37.2904 27.3313 37.3223 27.4531L37.38 27.6747L37.4997 27.311C37.5654 27.1106 37.6256 26.9241 37.6333 26.8962C37.647 26.8476 37.6499 26.8454 37.7063 26.8454H37.7651L37.8967 27.2349C37.9692 27.4491 38.0328 27.6325 38.0385 27.6427C38.0446 27.6535 38.0719 27.5684 38.1058 27.4327C38.1372 27.3072 38.1903 27.1175 38.2241 27.0115L38.2854 26.8182H38.4333C38.5497 26.8182 38.5811 26.8222 38.5811 26.8369ZM36.163 27.902H36.4274V28.0308V28.1594H36.0209H35.6145V27.4888V26.8182H36.0142H36.4137V26.9469V27.0758H36.1563H35.899V27.2112V27.3466H36.1362H36.3731V27.4686V27.5905H36.1362H35.899V27.7462V27.902H36.163ZM35.0186 26.8182H34.8832H34.748L34.7444 27.1931L34.7408 27.568L34.3836 27.1931C34.0536 26.847 34.0228 26.8182 33.9805 26.8182H33.9346V27.4888V28.1594H34.0703H34.2057V27.7869C34.2057 27.582 34.2106 27.4143 34.2165 27.4143C34.2223 27.4143 34.3855 27.5814 34.5789 27.7858C34.8945 28.1193 34.9348 28.1572 34.9745 28.1583L35.0186 28.1594V27.4888V26.8182ZM32.3096 26.8821L32.2217 26.8386L31.8862 26.8342L31.5505 26.8297V27.4946V28.1594H31.819C31.9666 28.1594 32.1235 28.1528 32.1679 28.1447C32.3459 28.1117 32.4997 27.9985 32.5844 27.8372C32.6468 27.7185 32.6641 27.6411 32.6633 27.4821C32.6626 27.3259 32.6305 27.2107 32.5552 27.0943C32.4921 26.9968 32.4266 26.94 32.3096 26.8821ZM31.9602 27.9014C32.0296 27.9011 32.1086 27.8928 32.1368 27.8826C32.3053 27.8225 32.4007 27.6631 32.3874 27.4634C32.3789 27.3362 32.3361 27.2388 32.2581 27.1701C32.1819 27.1031 32.1328 27.0895 31.9671 27.0895L31.835 27.0893V27.4956V27.902L31.9602 27.9014ZM30.7786 27.6764C30.7786 27.6702 30.8001 27.6513 30.8259 27.6344C30.9381 27.5618 31.0029 27.4102 30.9924 27.2454C30.9808 27.0683 30.891 26.932 30.7389 26.8606C30.6648 26.8258 30.6568 26.825 30.3279 26.8206L29.9927 26.8159V27.4877V28.1594H30.1282H30.2636V27.9359V27.7124H30.3776H30.4915L30.6253 27.9326L30.759 28.1527L30.911 28.1564C31.038 28.1597 31.063 28.1569 31.063 28.1403C31.063 28.1291 30.999 28.023 30.9205 27.9039C30.8424 27.785 30.7784 27.6826 30.7786 27.6764ZM30.6156 27.4584C30.5792 27.4766 30.5342 27.4821 30.4161 27.4821H30.2636V27.279V27.0758H30.4297C30.6198 27.0758 30.6702 27.0945 30.7048 27.1771C30.7513 27.2887 30.713 27.4095 30.6156 27.4584ZM28.3397 26.9925C28.4639 26.8683 28.6319 26.8049 28.801 26.803C28.9699 26.8013 29.14 26.8611 29.2685 26.9825C29.3982 27.1051 29.4637 27.2775 29.4642 27.4962C29.4647 27.7797 29.3368 27.999 29.1041 28.1141C29.0043 28.1633 28.995 28.1652 28.8363 28.1695C28.6917 28.1734 28.6609 28.1701 28.5808 28.142C28.3102 28.0474 28.1511 27.8107 28.1505 27.5015C28.15 27.287 28.2121 27.1202 28.3397 26.9925ZM29.0725 27.8076C29.033 27.8471 28.985 27.8788 28.9434 27.8931C28.7405 27.9621 28.5351 27.871 28.4637 27.68C28.4278 27.584 28.4247 27.4215 28.4572 27.3211C28.5089 27.1607 28.6616 27.0661 28.8189 27.0688C28.8904 27.0699 28.9629 27.091 29.0274 27.1354C29.076 27.1685 29.1036 27.2024 29.1392 27.2719C29.1825 27.3563 29.1867 27.3742 29.1867 27.4807C29.1866 27.6358 29.1557 27.7243 29.0725 27.8076ZM27.7139 27.6717H27.5819H27.4496L27.4172 27.7346C27.3737 27.8193 27.3075 27.8695 27.2048 27.8957C27.1365 27.9131 27.1058 27.9146 27.0518 27.9031C26.9108 27.8728 26.8347 27.8115 26.7732 27.6785C26.7022 27.5246 26.7296 27.3155 26.8368 27.1938C26.9299 27.0877 27.0667 27.0468 27.2074 27.0829C27.3037 27.1075 27.367 27.1522 27.4087 27.2253L27.4391 27.2788L27.5714 27.279L27.5782 27.279H27.5782C27.6546 27.279 27.6887 27.279 27.6986 27.2635C27.7066 27.2509 27.6987 27.2282 27.6844 27.187L27.6827 27.1823C27.6027 26.9535 27.3787 26.8117 27.1006 26.8137C26.7952 26.8159 26.561 26.9913 26.4819 27.2769C26.4512 27.3872 26.4492 27.5814 26.4772 27.6895C26.5416 27.9367 26.723 28.1066 26.9787 28.159C27.3094 28.2267 27.635 28.0331 27.7014 27.7293L27.7139 27.6717ZM25.7357 27.899L25.9965 27.9026V28.0311V28.1594H25.5969H25.1972V27.4888V26.8182H25.59H25.983V26.9469V27.0758H25.7256H25.4683V27.2112V27.3466H25.7052H25.9423V27.4686V27.5905H25.7048H25.4674L25.4711 27.743L25.475 27.8953L25.7357 27.899ZM24.4376 27.6518C24.4233 27.6564 24.4115 27.6655 24.4115 27.6722C24.4115 27.679 24.4757 27.7814 24.5538 27.8995C24.6321 28.0178 24.6961 28.1246 24.6961 28.137C24.6961 28.1564 24.6768 28.1594 24.5481 28.1594H24.4005L24.2663 27.9393L24.132 27.7191H24.0178H23.9036L23.8998 27.9393L23.8961 28.1594H23.761H23.6259V27.4879V26.8162L23.9626 26.8208L24.2994 26.8251L24.3921 26.8725C24.5011 26.928 24.5725 27.0118 24.6084 27.1263C24.6402 27.2275 24.6311 27.3985 24.5894 27.4794C24.553 27.5499 24.4733 27.6404 24.4376 27.6518ZM24.2636 27.4528C24.2184 27.4782 24.1903 27.4821 24.054 27.4821H23.8967V27.279V27.0758H24.0628C24.2034 27.0758 24.2352 27.0799 24.2721 27.1023C24.3944 27.1768 24.3896 27.3822 24.2636 27.4528ZM30.7597 24.1149C30.435 23.8584 30.0928 23.6258 29.7497 23.395C30.521 23.4112 31.2401 22.7916 31.3202 22.0214C31.3216 21.9754 31.3232 21.9292 31.3248 21.8829C31.3369 21.5282 31.3493 21.1673 31.2703 20.8214C31.0992 20.2454 30.5651 19.772 29.9635 19.7131H24.0255C23.7666 19.8051 23.5965 20.0659 23.6344 20.3425C23.6209 21.8319 23.6197 23.3218 23.6355 24.8112C23.5874 25.1731 23.963 25.4928 24.313 25.3916C24.5586 25.318 24.761 25.068 24.7186 24.8054C24.7234 24.6788 24.7231 24.5514 24.7228 24.4239C24.7221 24.1626 24.7214 23.901 24.7648 23.646C24.8432 23.4556 25.0504 23.3591 25.2466 23.3913C25.3426 23.3915 25.4388 23.391 25.5351 23.3905H25.5351C26.1551 23.3872 26.7799 23.3839 27.3773 23.5724C28.5295 23.8877 29.5169 24.5914 30.4633 25.2934C30.7652 25.5558 31.2736 25.3335 31.323 24.9484C31.3948 24.6059 31.1149 24.3902 30.8696 24.201C30.8317 24.1718 30.7946 24.1432 30.7597 24.1149ZM26.111 22.258C27.1023 22.2568 28.0936 22.2555 29.0849 22.2521C29.1936 22.2438 29.3047 22.2469 29.416 22.2499C29.6273 22.2557 29.8391 22.2615 30.0355 22.1899C30.282 22.0566 30.2716 21.7895 30.2619 21.5396C30.2593 21.4738 30.2568 21.4092 30.259 21.3486C30.2983 21.1197 30.1176 20.8805 29.8865 20.856C29.0259 20.8443 28.1656 20.8426 27.305 20.8432C27.0289 20.8433 26.7528 20.8438 26.4768 20.8442C25.8922 20.8451 25.3076 20.846 24.7232 20.8443V22.26C25.1858 22.2592 25.6484 22.2586 26.111 22.258Z" fill="black"/>
<path fill-rule="evenodd" clip-rule="evenodd" d="M21.214 22.5C21.1506 23.9894 20.1145 25.2051 19.0891 26.1888C17.7299 27.5066 15.9937 28.5057 14.0836 28.687C13.4795 28.7177 12.4845 28.8644 12.5788 29.6762C12.702 30.4978 13.6251 30.7629 14.3329 30.8272C15.8855 30.9359 17.4577 30.4206 18.7112 29.5154C20.555 28.1778 21.4971 25.8614 21.3845 23.6173C21.4042 23.3911 21.2685 22.3753 21.2262 22.3753C21.2182 22.3753 21.2135 22.4126 21.214 22.5Z" fill="url(#paint0_linear_920_776)"/>
<path fill-rule="evenodd" clip-rule="evenodd" d="M14.579 16.9999C12.9424 17.0062 11.3101 17.6029 10.1531 18.786C10.4528 18.6087 11.1332 18.3377 11.6463 18.3466C14.0398 18.2834 16.323 19.4867 17.9501 21.1838C18.5609 21.7325 18.9504 22.5582 19.7311 22.8914C19.8175 22.9168 19.9096 22.9234 19.9987 22.9099C20.6943 22.7272 20.9626 21.8834 20.8139 21.2398C20.2986 19.9662 19.3741 18.8611 18.2357 18.0944C17.1818 17.3684 15.9049 17.0043 14.6277 16.9999H14.579Z" fill="url(#paint1_linear_920_776)"/>
<path fill-rule="evenodd" clip-rule="evenodd" d="M9.49944 19.6989C8.6949 20.6605 8.24501 21.8721 8.06839 23.1057C7.95325 23.7554 8.00548 24.4795 8.06541 25.0978C8.17019 25.5709 8.25395 26.0944 8.43858 26.5601C9.14086 28.5441 10.8737 30.0889 12.8902 30.658L12.9633 30.6702C12.5865 30.4272 12.2284 30.1443 11.9492 29.785C11.7087 29.4672 11.437 29.0578 11.3238 28.7149C10.922 27.8916 10.7212 26.9832 10.616 26.0699C10.3907 24.5454 10.6941 23.0048 11.1107 21.5494C11.2856 20.9441 11.6314 20.2489 11.2787 19.645C11.0773 19.4432 10.8082 19.3612 10.5278 19.3612C10.1616 19.3612 9.77646 19.5016 9.49944 19.6989Z" fill="url(#paint2_linear_920_776)"/>
<defs>
<linearGradient id="paint0_linear_920_776" x1="12.5725" y1="30.8417" x2="21.3936" y2="30.8417" gradientUnits="userSpaceOnUse">
<stop stop-color="#AFEDFF"/>
<stop offset="1" stop-color="#2856FB"/>
</linearGradient>
<linearGradient id="paint1_linear_920_776" x1="7.16057" y1="19.762" x2="12.556" y2="27.1379" gradientUnits="userSpaceOnUse">
<stop stop-color="#AFEDFF"/>
<stop offset="1" stop-color="#2856FB"/>
</linearGradient>
<linearGradient id="paint2_linear_920_776" x1="7.99999" y1="30.6702" x2="12.9632" y2="30.6702" gradientUnits="userSpaceOnUse">
<stop stop-color="#AFEDFF"/>
<stop offset="1" stop-color="#2856FB"/>
</linearGradient>
</defs>
</svg>
