<svg width="95" height="121" viewBox="0 0 95 121" fill="none" xmlns="http://www.w3.org/2000/svg">
<path d="M23.4978 84.5756C21.8343 82.912 20.5833 81.0334 19.5342 79.0143C16.9445 74.0323 15.6408 68.6641 15.0966 63.1291C13.7841 49.8118 15.7111 36.9377 20.7589 24.5509C22.3346 20.6839 24.3142 17.0187 26.7591 13.617C28.6509 10.9921 28.6158 10.1713 26.4694 7.71767C28.8968 7.10315 31.3109 6.91441 33.7558 7.0856C41.6918 7.63866 48.8772 10.5049 55.6588 14.4422C67.115 21.0877 76.719 29.7348 83.6366 41.1515C84.6506 42.8239 85.5153 44.5928 86.3493 46.3617C87.5388 48.89 88.6361 49.4562 91.4629 48.6793C91.3224 49.1709 91.2302 49.5967 91.081 50.0049C89.1585 55.2502 85.7172 59.4113 81.6043 63.0457C72.5798 71.0256 61.9926 76.0295 50.4486 79.1547C43.9172 80.9236 37.2717 81.7883 30.4945 81.4723C29.6912 81.4328 28.888 81.3406 28.0847 81.2748C25.2009 81.0422 24.1957 81.7444 23.4978 84.5712V84.5756Z" fill="#2400FF"/>
<path d="M21.7727 86.4058C12.9062 80.6864 6.37921 72.9962 3.02572 62.9929C-2.93943 45.2247 0.40088 29.1815 12.735 15.0609C14.6005 12.9277 16.6021 10.8822 19.4815 10.0658C21.1494 9.59613 22.835 9.31083 24.5556 9.72343C25.7758 10.0131 25.9865 10.5969 25.2623 11.5933C18.8933 20.3677 15.4652 30.3228 13.5734 40.8748C12.2215 48.4333 11.844 56.0401 12.735 63.682C13.5339 70.5294 15.1843 77.1135 19.0952 82.9338C19.9073 84.1452 20.8773 85.247 21.7771 86.4014L21.7727 86.4058Z" fill="#2400FF"/>
<path d="M25.8066 4.99645C28.2032 4.06152 30.5428 2.92906 33.0008 2.21798C50.2598 -2.77713 65.7017 0.659754 79.0849 12.6559C86.1649 19.0029 90.6026 27.0267 92.8411 36.2532C93.6093 39.4311 93.1528 42.4466 91.3575 45.2163C91.0942 45.6245 90.7738 46.0151 90.4051 46.3224C89.751 46.8623 89.1804 46.7174 88.8161 45.9405C81.2181 29.6955 68.603 18.4718 52.9944 10.312C47.4726 7.42378 41.6084 5.44417 35.3623 4.79893C32.4214 4.49607 29.4849 4.55313 26.5836 5.18959C26.3641 5.23787 26.1358 5.26421 25.9164 5.29932C25.8813 5.19837 25.8461 5.1018 25.811 5.00084L25.8066 4.99645Z" fill="#2400FF"/>
<path d="M94.0084 49.2808C93.6441 56.5803 91.8357 63.4321 88.2276 69.7133C80.4365 83.2896 68.7344 91.2256 53.2487 93.4949C46.6032 94.4694 40.0455 93.8548 33.6107 91.963C30.4679 91.0369 28.0888 89.1494 26.5745 86.2217C26.355 85.7916 26.1795 85.3175 26.0873 84.8479C25.9161 83.9393 26.3111 83.5047 27.2373 83.61C37.1792 84.7469 46.7832 83.0833 56.1764 79.9581C66.1052 76.6573 75.2526 71.8992 83.1184 64.8938C87.916 60.6229 91.8884 55.7463 93.7802 49.4519C93.7978 49.3993 93.8811 49.3685 94.0041 49.2764L94.0084 49.2808Z" fill="#2400FF"/>
<path d="M78.3735 119.546V102.647C78.4087 102.616 78.4569 102.528 78.5096 102.528C81.4461 102.568 84.4177 102.349 87.3147 102.73C91.7304 103.314 94.105 106.637 94.0216 111.448C93.947 115.661 91.0939 119.085 86.9153 119.493C84.1148 119.77 81.2617 119.546 78.3735 119.546ZM82.2274 106.119V116.166C83.7812 116.061 85.3 116.127 86.7397 115.824C89.0704 115.332 90.2775 113.313 90.1107 110.605C89.9527 108.055 88.4954 106.374 86.0857 106.137C84.8435 106.014 83.5749 106.115 82.2274 106.115V106.119Z" fill="#2400FF"/>
<path d="M52.6961 119.981C47.5868 119.959 44.0753 116.294 44.0973 111.009C44.1192 105.878 47.8107 102.182 52.9024 102.199C58.0116 102.217 61.488 105.803 61.4836 111.048C61.4792 116.28 57.8141 120.003 52.6961 119.981ZM48.0565 111.07C48.0565 115.113 51.331 117.518 54.7634 115.999C56.9186 115.047 57.9984 112.361 57.3663 109.525C56.7913 106.949 54.8468 105.535 52.2308 105.799C49.6893 106.053 48.0565 108.116 48.0565 111.066V111.07Z" fill="#2400FF"/>
<path d="M0.299805 102.669C3.25385 102.669 6.17279 102.471 9.04783 102.73C11.4576 102.95 13.2133 104.451 13.7225 106.926C14.2536 109.507 13.4065 111.623 11.0845 113.036C10.9967 113.089 10.9001 113.137 10.7641 113.212C12.1204 115.358 13.4196 117.417 14.8374 119.664C13.3538 119.664 12.0677 119.704 10.7904 119.634C10.5051 119.616 10.1671 119.243 9.98715 118.953C9.16634 117.61 8.36747 116.249 7.61689 114.867C7.29647 114.274 6.93215 113.98 6.22546 114.046C5.49682 114.116 4.75941 114.059 3.92104 114.059V119.599H0.299805V102.669ZM3.93421 110.723C5.23785 110.723 6.42737 110.798 7.60811 110.706C8.99515 110.596 9.89497 109.604 9.94765 108.327C10.0003 107.067 9.26291 106.044 7.86708 105.869C6.581 105.706 5.2598 105.833 3.93421 105.833V110.723Z" fill="#2400FF"/>
<path d="M66.5532 114.054V119.581H62.8223V102.629C62.9188 102.585 63.0066 102.506 63.0988 102.506C65.6183 102.506 68.1422 102.431 70.6617 102.532C73.6772 102.655 75.9597 104.569 76.4074 107.154C76.8288 109.608 75.9509 111.447 73.4226 113.256C74.7131 115.31 76.0123 117.368 77.4345 119.629C75.9026 119.629 74.5331 119.651 73.168 119.603C72.9837 119.594 72.7818 119.238 72.6457 119.01C71.8424 117.658 71.0128 116.315 70.2842 114.924C69.9199 114.23 69.4722 113.971 68.7128 114.041C68.0544 114.103 67.3872 114.054 66.562 114.054H66.5532ZM66.5927 110.727C67.8613 110.727 69.0464 110.802 70.2184 110.71C71.6274 110.596 72.4921 109.639 72.536 108.331C72.5798 107.027 71.8819 106.079 70.4729 105.868C69.2176 105.684 67.9271 105.728 66.5927 105.671V110.732V110.727Z" fill="#2400FF"/>
<path d="M19.5429 116.17H28.4139V119.598H15.7812V102.55H28.19V105.899H19.5737V109.283H27.1805V112.558H19.5473V116.17H19.5429Z" fill="#2400FF"/>
<path d="M41.5556 114.143C42.4642 114.841 43.285 115.473 44.0926 116.092C42.9207 118.945 39.4443 120.486 35.7045 119.867C31.4863 119.169 29.0502 116.298 28.7474 111.663C28.4665 107.392 30.8674 103.622 34.5413 102.559C38.5269 101.405 42.2227 102.674 44.0575 105.913C43.2279 106.554 42.3808 107.208 41.7004 107.73C40.6118 107.081 39.6901 106.229 38.6191 105.944C35.5158 105.118 32.9699 107.076 32.7329 110.337C32.6715 111.163 32.7329 112.032 32.9304 112.835C33.3299 114.499 34.278 115.758 36.0206 116.219C37.8114 116.693 39.4179 116.342 40.7699 115.03C41.042 114.766 41.2746 114.463 41.5556 114.147V114.143Z" fill="#2400FF"/>
</svg>
