<svg width="323" height="120" viewBox="0 0 323 120" fill="none" xmlns="http://www.w3.org/2000/svg">
<path d="M170.104 42.21H138.403V78.0008H170.104V42.21Z" fill="white"/>
<path d="M218.312 42.21H186.611V78.0008H218.312V42.21Z" fill="white"/>
<path d="M236.426 42.21H268.127V78.0008H236.426V42.21Z" fill="white"/>
<path d="M316.481 42.21H284.781V78.0008H316.481V42.21Z" fill="white"/>
<path fill-rule="evenodd" clip-rule="evenodd" d="M53.4549 0.293398C52.1694 0.438752 50.756 0.624576 50.3141 0.706384C47.8604 1.16085 47.137 1.31804 45.2741 1.80232C44.1493 2.09463 42.9989 2.42332 42.7177 2.53274C42.4364 2.64216 41.5161 2.94879 40.6725 3.21408C39.2271 3.6687 35.6959 5.10749 34.2447 5.83309C33.8832 6.0138 33.241 6.3346 32.8176 6.54599C32.2607 6.82384 32.1274 6.9429 32.3352 6.97591C32.4933 7.00104 32.7478 6.95459 32.9007 6.87278C33.9064 6.3346 39.0515 5.77028 41.9142 5.88437C45.0761 6.01029 47.9474 6.33358 49.5106 6.73969C49.832 6.82325 50.4236 6.94188 50.8254 7.00353C53.4082 7.39971 60.3313 9.68915 64.3382 11.4724C66.6852 12.5169 71.5234 15.0397 73.6877 16.3474C73.8082 16.4202 74.5642 16.8694 75.3677 17.3456C77.4108 18.5565 79.9194 20.2157 82.038 21.7578C82.5349 22.1194 83.2094 22.6048 83.537 22.8365C84.1237 23.2514 85.7352 24.5169 86.9389 25.5081C87.2771 25.7867 87.9386 26.3222 88.4088 26.6983C92.5595 30.0175 99.18 36.7036 102.539 40.968C102.855 41.3697 103.152 41.7313 103.198 41.7715C103.244 41.8116 103.607 42.2718 104.006 42.7941C104.405 43.3163 104.78 43.7655 104.84 43.7923C104.9 43.8191 104.95 43.9287 104.95 44.0358C104.95 44.1429 105 44.2524 105.062 44.2793C105.175 44.3282 105.94 45.3811 107.194 47.2127C108.846 49.6248 110.614 52.6227 111.826 55.0652C112.682 56.7906 113.569 58.7118 113.569 58.8408C113.569 59.0967 114.266 59.5938 114.626 59.5938C115.388 59.5938 116.388 58.6712 117.158 57.2565C117.312 56.9753 117.511 56.6466 117.601 56.5261C117.851 56.1909 118.48 54.401 118.817 53.0603C119.188 51.5879 119.242 48.3289 118.916 47.1261C118.803 46.7119 118.6 45.8801 118.463 45.2775C118.077 43.5654 116.579 38.913 116.326 38.6379C116.256 38.5617 116.198 38.4073 116.198 38.2948C116.198 38.1824 116.093 37.8504 115.964 37.5571C115.836 37.2637 115.677 36.8922 115.612 36.7315C115.003 35.2236 113.522 32.2483 112.231 29.9386C111.481 28.5977 109.057 24.9603 108.221 23.9203C107.788 23.3823 107.433 22.8783 107.433 22.8004C107.433 22.7224 107.376 22.6368 107.306 22.6099C107.236 22.5832 106.642 21.9207 105.986 21.1377C104.659 19.5554 101.151 15.9867 99.7027 14.7457C99.1868 14.3038 98.6938 13.872 98.607 13.7861C97.9001 13.0868 92.0343 8.93988 91.2179 8.56225C91.0974 8.50645 90.8015 8.33377 90.5605 8.17848C89.1721 7.28401 84.8283 5.12808 82.891 4.37224C82.4491 4.19986 81.8904 3.96992 81.6493 3.86138C81.4083 3.75284 80.5537 3.45542 79.7502 3.20035C78.9467 2.94543 78.0593 2.64625 77.7781 2.53567C77.0846 2.26292 73.4328 1.32403 72.0807 1.07087C69.7977 0.643274 69.311 0.57096 66.8217 0.289162C63.4015 -0.098109 56.8989 -0.096065 53.4549 0.293398ZM38.3351 8.94923C38.2949 8.99013 37.5718 9.10073 36.7282 9.1951C35.8845 9.28947 34.8077 9.48215 34.3352 9.62327L33.476 9.87994L34.0962 10.3042C34.4484 10.5451 34.9456 11.1016 35.2475 11.5925C35.7462 12.4038 35.7782 12.5285 35.7704 13.6377C35.7636 14.6536 35.7041 14.9247 35.3453 15.5759C35.116 15.9924 34.7906 16.4855 34.6223 16.6716C34.373 16.9475 33.0449 18.8529 32.4187 19.8334C31.863 20.7035 31.0143 22.1125 30.5997 22.8535C30.3301 23.3355 29.9795 23.9601 29.8207 24.2413C29.3544 25.0666 27.5248 28.7069 27.5248 28.8092C27.5248 28.8608 27.32 29.3496 27.0698 29.8955C26.3431 31.4808 26.2553 31.6862 25.6469 33.2255C24.9898 34.8878 23.4991 39.3012 22.9332 41.2602C22.7243 41.9833 22.4776 42.805 22.385 43.0862C22.2923 43.3674 22.1696 43.8276 22.1122 44.1088C22.0548 44.39 21.9001 45.0146 21.7685 45.4966C21.5299 46.3699 21.0915 48.3742 20.7137 50.3174C20.1507 53.2147 19.3887 58.3401 19.0437 61.5518C18.6477 65.2381 18.6477 76.205 19.0437 79.8266C19.2094 81.3421 19.4767 83.1416 19.7813 84.7935C19.8553 85.1952 19.957 85.8526 20.0071 86.2544C20.0571 86.6561 20.1513 87.182 20.2165 87.423C20.2815 87.6641 20.448 88.3872 20.5862 89.03C21.0955 91.3963 21.9059 94.072 22.8209 96.4073C23.4965 98.1318 24.494 100.4 24.748 100.79C24.8266 100.91 24.9882 101.206 25.1071 101.447C25.226 101.688 25.4896 102.148 25.6926 102.47C25.8958 102.791 26.1082 103.152 26.1648 103.271C26.5327 104.047 28.3008 106.375 29.3837 107.51C30.0297 108.187 30.151 108.263 30.1526 107.992C30.1587 106.906 30.864 105.378 31.6745 104.695C32.6737 103.853 33.7851 103.761 38.4812 104.133C42.1754 104.425 49.0588 104.18 52.1401 103.646C52.7829 103.534 53.7033 103.403 54.1853 103.353C54.6674 103.304 55.3577 103.205 55.7192 103.133C56.0808 103.062 56.8039 102.927 57.3262 102.833C59.5808 102.43 63.8398 101.434 65.9452 100.817C66.4674 100.664 67.2892 100.424 67.7712 100.283C69.2765 99.8433 73.2716 98.4992 74.4181 98.0468C75.0207 97.809 76.0396 97.4319 76.6824 97.2087C77.3252 96.9856 77.9168 96.7541 77.9972 96.6942C78.0775 96.6344 78.702 96.3547 79.385 96.0724C83.8746 94.218 89.5645 91.2104 94.5052 88.0804C95.9566 87.161 100.779 83.6996 101.006 83.4145C101.046 83.3639 101.276 83.1715 101.517 82.987C104.238 80.9031 107.86 77.349 110.489 74.1835C112.601 71.6396 115.188 67.3735 116.058 64.999C116.219 64.5571 116.413 64.064 116.487 63.9033C116.679 63.4883 117.075 62.2431 117.075 62.0554C117.075 61.9579 116.949 61.9781 116.746 62.108C115.732 62.7572 113.97 62.8093 112.799 62.2247C111.694 61.6723 111.201 61.029 110.337 59.0095C109.682 57.4781 108.061 54.3985 106.877 52.4357C106.223 51.351 105.571 50.2663 105.428 50.0253C105.286 49.7842 105.136 49.5541 105.096 49.514C105.056 49.4738 104.694 48.9482 104.292 48.346C103.891 47.7439 103.48 47.1638 103.379 47.0568C103.278 46.95 102.986 46.5552 102.73 46.1796C102.474 45.804 102.211 45.4747 102.146 45.448C102.081 45.4211 102.028 45.3115 102.028 45.2045C102.028 45.0974 101.979 44.9878 101.919 44.9609C101.858 44.9342 101.226 44.1892 100.514 43.3054C97.4229 39.4706 94.8164 36.6804 90.389 32.4666C90.2036 32.2903 89.5749 31.7357 88.9915 31.2342C88.4082 30.7327 87.8604 30.2525 87.7742 30.1671C87.688 30.0816 87.3003 29.7487 86.9126 29.4273C86.5249 29.1059 86.1353 28.7759 86.0468 28.6939C85.2711 27.9756 78.4182 22.8048 78.0488 22.659C77.9814 22.6324 77.0976 22.0573 76.0846 21.3808C75.0717 20.7044 74.218 20.1509 74.1876 20.1509C74.1571 20.1509 73.2925 19.6541 72.2664 19.0469C71.2403 18.4396 70.3022 17.8912 70.1816 17.8283C70.0611 17.7653 69.601 17.5145 69.159 17.2708C66.6261 15.8744 61.688 13.5772 59.6635 12.8538C59.3823 12.7533 59.0207 12.6138 58.8601 12.5437C58.0472 12.1893 53.8726 10.84 52.7245 10.5606C52.2424 10.4432 51.585 10.2839 51.2636 10.2064C50.9422 10.129 50.1766 9.97095 49.5622 9.8551C48.9478 9.73925 48.1589 9.57637 47.8092 9.49325C46.6411 9.21525 44.279 9.01541 41.3298 8.94485C39.7229 8.90643 38.3753 8.90847 38.3351 8.94923ZM27.1602 12.2683C25.3289 12.4763 23.0637 13.3144 21.3261 14.4268C20.468 14.9763 18.9335 16.3604 16.9829 18.3447C11.3804 24.0438 6.64766 31.5562 3.92711 39.0689C3.78161 39.4706 3.60018 39.8816 3.52378 39.9819C3.44752 40.0824 3.42765 40.1645 3.47966 40.1645C3.53181 40.1645 3.48141 40.3452 3.36776 40.5663C2.8214 41.6284 1.26427 47.8911 0.945078 50.3098C0.850268 51.0289 0.746698 51.6591 0.715143 51.7102C0.683443 51.7615 0.547439 52.7181 0.413041 53.8361C-0.03807 57.5852 0.10056 65.4096 0.669269 68.2859C0.748593 68.6876 0.903742 69.608 1.01404 70.3311C1.3455 72.506 2.38694 76.9318 2.83585 78.0736C2.89911 78.2343 3.11649 78.8588 3.31911 79.4614C3.96159 81.3722 4.29802 82.3031 4.43315 82.5435C4.50532 82.6721 4.80304 83.3623 5.09492 84.0774C5.63544 85.4021 6.93837 88.0272 7.68311 89.292C7.90998 89.6773 8.0955 90.018 8.0955 90.0492C8.0955 90.2517 10.7703 94.3709 11.6015 95.4482C11.8024 95.7086 12.0982 96.1037 12.2589 96.3263C13.8828 98.5763 17.8775 102.872 20.3541 105.031C20.9498 105.551 21.5086 106.045 21.5958 106.129C22.2954 106.804 28.2509 111.069 28.3525 110.967C28.3796 110.94 27.9374 110.431 27.3701 109.835C26.8027 109.239 26.015 108.324 25.6194 107.802C25.2238 107.28 24.8463 106.787 24.7803 106.706C24.6779 106.582 23.4469 104.672 22.8922 103.778C22.6844 103.443 20.9419 99.9281 20.6143 99.1829C19.873 97.4972 18.7864 94.2885 18.1656 91.9517C18.1014 91.7106 17.978 91.2505 17.8911 90.9291C17.5298 89.5927 16.8751 86.2824 16.6483 84.6474C16.5148 83.6833 16.3398 82.5328 16.2596 82.0909C16.1794 81.649 16.0548 80.3343 15.9825 79.1692C15.9103 78.0042 15.7746 75.9663 15.681 74.6406C15.5035 72.1265 15.58 67.1708 15.8333 64.7799C15.91 64.0567 15.9804 62.9063 15.9901 62.2234C15.9996 61.5404 16.0728 60.5543 16.1525 60.0321C16.2324 59.5098 16.3579 58.5566 16.4314 57.9139C16.7268 55.3337 17.2352 51.9266 17.3533 51.7354C17.3963 51.6658 17.5002 51.1541 17.5843 50.5981C17.7457 49.5314 18.2902 47.0164 18.7835 45.0584C18.9455 44.4156 19.1669 43.4926 19.2754 43.0074C19.3839 42.5221 19.5689 41.8318 19.6863 41.4735C19.8038 41.1151 20.0469 40.3289 20.2266 39.7263C21.2863 36.1717 23.2721 30.7511 24.2268 28.8072C24.4338 28.3857 24.6031 28.0079 24.6031 27.9676C24.6031 27.8912 25.406 26.0936 25.6197 25.6917C25.6868 25.5655 26.1386 24.7109 26.6238 23.7926C28.6954 19.8717 30.9279 16.2859 32.1572 14.9048C33.0319 13.9221 32.9438 13.1077 31.9074 12.5936C31.1213 12.2039 29.0047 12.0588 27.1602 12.2683ZM132.706 60.0321V81.3605H154.034H175.363V60.0321V38.7037H154.034H132.706V60.0321ZM181.645 60.0321V81.3605H202.973H224.301V60.0321V38.7037H202.973H181.645V60.0321ZM230.437 60.0321V81.3605H251.765H273.094V60.0321V38.7037H251.765H230.437V60.0321ZM279.229 60.0321V81.3605H300.558H321.886V60.0321V38.7037H300.558H279.229V60.0321ZM303.845 47.4736C304.166 47.5664 304.791 47.7425 305.232 47.8653C305.674 47.9881 306.43 48.2844 306.912 48.5238C308.111 49.1194 309.814 50.2641 309.665 50.3738C309.597 50.4232 309.032 51.2195 308.41 52.1435C306.723 54.6455 306.999 54.4459 306.058 53.8436C305.114 53.24 304.328 52.87 302.864 52.3403C301.996 52.0261 301.543 51.9549 300.407 51.954C299.198 51.9532 298.93 52.0003 298.362 52.3152C296.652 53.2635 296.595 55.1787 298.248 56.1383C299.041 56.5989 300.071 56.9366 303.406 57.8306C304.766 58.1948 304.762 58.1936 306.443 59.0018C308.859 60.1634 310.072 61.685 310.38 63.9399C310.727 66.4761 310.031 68.8174 308.47 70.371C307.439 71.3972 306.861 71.745 305.218 72.3275C303.855 72.8107 303.824 72.8145 301.215 72.8139C299.079 72.8135 298.421 72.763 297.709 72.545C297.227 72.3973 296.504 72.1802 296.102 72.0626C294.527 71.6014 290.77 69.4219 290.77 68.9696C290.77 68.903 291.464 68.0133 292.312 66.9927C293.294 65.8098 293.916 65.175 294.028 65.2415C294.124 65.2988 294.532 65.5892 294.933 65.8866C297.155 67.5317 300.329 68.4684 302.341 68.0725C303.415 67.8612 304.143 67.5143 304.648 66.9736C304.962 66.637 305.012 66.4514 305.003 65.645C304.994 64.8631 304.933 64.6447 304.637 64.3276C303.977 63.6194 302.749 63.1284 299.389 62.2294C295.649 61.2288 293.502 60.0575 292.607 58.5297C291.326 56.3436 291.332 53.2282 292.622 50.9756C293.665 49.1548 295.773 47.776 298.22 47.315C299.101 47.149 303.112 47.2622 303.845 47.4736ZM148.943 48.7546C149.396 49.3731 150.374 50.668 151.115 51.6322C151.856 52.5964 152.952 54.0426 153.55 54.8461C154.149 55.6495 154.741 56.4329 154.867 56.5867C154.993 56.7405 155.724 57.6937 156.492 58.7049C157.261 59.7161 158.304 61.0876 158.811 61.7527L159.732 62.962V55.2884V47.6149H162.434H165.137V59.9591V72.3032L162.763 72.3022L160.389 72.3012L159.049 70.5127C158.312 69.5289 157.227 68.0944 156.638 67.3248C156.05 66.5551 154.977 65.1417 154.254 64.184C153.531 63.2261 152.907 62.4096 152.866 62.3695C152.826 62.3293 152.269 61.6062 151.629 60.7625C150.989 59.9189 150.398 59.1527 150.314 59.0599C150.231 58.9671 149.805 58.3918 149.367 57.7817C148.929 57.1715 148.518 56.6721 148.454 56.6721C148.39 56.6721 148.337 60.222 148.337 64.5607V72.4493H145.708H143.078V60.0321V47.6149L145.598 47.6225L148.118 47.6302L148.943 48.7546ZM212.176 50.0253V52.4357H205.536H198.896L198.853 54.9923L198.809 57.5489L204.689 57.5488L210.569 57.5486V59.9591V62.3695H204.726H198.883V64.999V67.6285H205.602H212.322V70.0024V72.3763L202.9 72.3377L193.477 72.299V59.957V47.6149H202.827H212.176V50.0253ZM243.954 48.0166C243.999 48.2376 244.103 48.6699 244.185 48.9774C244.345 49.5796 244.836 51.8863 245.404 54.7036C245.599 55.6697 245.82 56.6229 245.895 56.8219C245.97 57.0207 246.077 57.5153 246.133 57.9209C246.267 58.9046 246.456 59.2088 246.578 58.6367C246.628 58.3999 246.729 57.9431 246.803 57.6217C246.877 57.3003 247.04 56.5772 247.165 56.0148C247.291 55.4523 247.488 54.6635 247.603 54.2617C247.718 53.86 248.126 52.2002 248.509 50.5731L249.205 47.6149H251.8C254.352 47.6149 254.395 47.62 254.395 47.9266C254.395 48.0981 254.459 48.476 254.538 48.7666C254.706 49.3876 255.122 51.0733 255.205 51.4709C255.237 51.6234 255.325 51.9521 255.401 52.2014C255.477 52.4507 255.581 52.9178 255.633 53.2391C255.685 53.5605 255.784 54.0207 255.853 54.2617C256.159 55.3279 256.428 56.3909 256.666 57.4756C257.048 59.2117 257.137 59.2199 257.452 57.5486C257.535 57.1067 257.704 56.3179 257.828 55.7956C257.952 55.2734 258.149 54.3859 258.266 53.8235C258.384 53.2611 258.547 52.5051 258.629 52.1435C258.711 51.7819 258.876 50.9931 258.996 50.3905C259.426 48.2349 259.504 47.8857 259.587 47.7512C259.687 47.5897 265.061 47.5634 265.054 47.7244C265.051 47.7846 264.916 48.3599 264.753 49.0027C264.59 49.6455 264.363 50.6315 264.247 51.194C264.132 51.7564 263.978 52.4795 263.905 52.8009C263.832 53.1223 263.7 53.7797 263.611 54.2617C263.522 54.7438 263.357 55.4998 263.244 55.9417C263.13 56.3836 262.93 57.2711 262.798 57.9139C262.357 60.0626 262.248 60.5394 262.046 61.1903C261.936 61.5461 261.845 62.0004 261.845 62.2C261.845 62.3995 261.75 62.8974 261.634 63.3062C261.518 63.7149 261.318 64.5753 261.19 65.2181C261.061 65.8609 260.861 66.7638 260.743 67.2246C260.626 67.6853 260.53 68.2159 260.53 68.4038C260.53 68.5915 260.44 69.0362 260.33 69.3921C260.142 69.9948 259.946 70.8317 259.722 71.9781L259.629 72.4563L257.2 72.4163L254.771 72.3763L254.656 71.938C254.594 71.697 254.245 70.2507 253.881 68.7242C253.518 67.1976 253.127 65.587 253.014 65.1451C252.901 64.7032 252.708 63.9143 252.586 63.3921C252.465 62.8698 252.263 62.011 252.138 61.4836C252.013 60.9562 251.911 60.4138 251.911 60.2784C251.911 59.8122 251.652 60.033 251.557 60.5799C251.504 60.8813 251.372 61.4564 251.263 61.8582C251.154 62.2599 250.85 63.5089 250.589 64.6338C250.327 65.7586 249.986 67.172 249.831 67.7746C249.676 68.3772 249.458 69.2975 249.346 69.8198C249.235 70.342 249.06 71.098 248.957 71.4998L248.771 72.2302H246.298H243.826L243.635 71.4267C243.53 70.9848 243.271 69.8015 243.059 68.7972C242.468 65.9986 242.328 65.3522 241.923 63.5381C241.716 62.6141 241.476 61.5295 241.389 61.1277C241.302 60.726 241.142 60.0029 241.033 59.5208C240.925 59.0387 240.723 58.1184 240.586 57.4756C240.448 56.8328 240.281 56.1097 240.215 55.8687C240.148 55.6276 240.049 55.1017 239.993 54.7C239.938 54.2983 239.83 53.8052 239.755 53.6044C239.679 53.4035 239.525 52.7461 239.412 52.1435C239.3 51.5409 239.073 50.4891 238.909 49.8061C238.744 49.1232 238.57 48.3507 238.522 48.0896L238.433 47.6149H241.152H243.871L243.954 48.0166ZM120.143 62.2881C120.143 62.62 119.184 65.4593 118.676 66.6351C117.964 68.2787 117.637 68.9386 117.04 69.932C116.738 70.4355 116.491 70.8827 116.491 70.9257C116.491 71.1912 113.514 75.3722 112.337 76.7588C111.295 77.9874 108.625 80.7398 107.093 82.164C104.881 84.2212 105.126 84.007 103.343 85.4541C101.965 86.5722 101.272 87.096 99.3256 88.4905C96.4052 90.5821 92.1918 93.1756 88.9536 94.8746C86.3248 96.2537 81.8198 98.4525 81.6229 98.4525C81.5872 98.4525 81.2172 98.6116 80.8003 98.806C80.3835 99.0004 79.2535 99.4645 78.2894 99.8373C77.3252 100.21 76.2353 100.64 75.8674 100.792C75.4994 100.944 74.7106 101.229 74.1144 101.425C73.5181 101.62 72.866 101.85 72.6651 101.935C72.2882 102.095 68.8407 103.208 68.0634 103.421C67.8224 103.487 66.9891 103.705 66.2116 103.903C65.4342 104.102 64.7347 104.304 64.6574 104.352C64.58 104.4 64.0329 104.546 63.4414 104.676C62.8499 104.806 62.136 104.965 61.8548 105.028C61.5736 105.092 60.9491 105.218 60.467 105.309C59.9849 105.399 59.196 105.567 58.714 105.682C58.2319 105.797 57.1472 105.994 56.3036 106.119C55.4599 106.244 54.3752 106.412 53.8932 106.492C52.8704 106.661 50.8302 106.865 47.7576 107.106C43.9023 107.409 38.1635 107.288 34.6077 106.831C34.1162 106.767 33.9536 106.818 33.6024 107.143C33.2115 107.506 33.189 107.587 33.2645 108.361C33.4502 110.264 35.6581 113.409 38.0776 115.217C39.8905 116.572 41.6111 117.293 45.247 118.222C50.7586 119.63 53.8615 120 60.1748 120C65.619 120 67.9131 119.789 72.3729 118.88C74.576 118.43 78.5587 117.337 79.4995 116.924C79.7634 116.808 80.0437 116.713 80.1226 116.713C80.2015 116.713 81.2346 116.326 82.4184 115.853C84.8373 114.887 88.1231 113.326 89.7326 112.377C90.3218 112.03 90.8293 111.746 90.8604 111.746C90.8917 111.746 91.1984 111.556 91.5423 111.324C91.8861 111.091 92.7591 110.52 93.4822 110.055C97.5723 107.42 102.649 102.987 105.68 99.402C106.019 99.0003 106.447 98.4999 106.629 98.2902C106.812 98.0804 107.498 97.1929 108.155 96.318C108.811 95.4431 109.438 94.6174 109.548 94.4832C109.658 94.3489 109.828 94.0901 109.925 93.908C110.023 93.726 110.16 93.5072 110.229 93.4217C110.406 93.206 111.385 91.662 111.903 90.783C112.139 90.3813 112.41 89.9211 112.505 89.7604C113.366 88.3 115.153 84.6508 115.617 83.4057C115.721 83.1245 115.862 82.8319 115.93 82.7556C115.997 82.6792 116.052 82.5193 116.052 82.4C116.052 82.2807 116.18 81.9159 116.335 81.5893C116.692 80.8409 117.658 77.9223 118.151 76.1015C118.826 73.6082 119.202 71.7873 119.689 68.6511C120.03 66.454 120.387 62.0773 120.225 62.0773C120.18 62.0773 120.143 62.1721 120.143 62.2881Z" fill="#005AFF"/>
</svg>
