<svg width="48" height="48" viewBox="0 0 48 48" fill="none" xmlns="http://www.w3.org/2000/svg">
<rect x="1" y="1" width="46" height="46" rx="23" fill="white" stroke="#F8F8F8" stroke-width="2"/>
<path d="M10.4422 21.7647H9.00612C8.43584 21.7647 8.39595 22.6041 8.39595 22.6041L8 25.5025H8.851L9.07261 24.0406H9.67466L10.174 25.5025H11.2592L10.6594 24.0406C10.6594 24.0406 11.4963 24.0406 11.4963 22.6041C11.4941 22.3149 11.5384 21.7647 10.4422 21.7647ZM10.0846 23.2938H9.24768L9.32155 22.6041H10.2752C10.2752 22.6041 10.5064 22.6041 10.4968 22.8774C10.4769 23.3169 10.0846 23.2938 10.0846 23.2938ZM12.9841 21.7647C12.4138 21.7647 12.3739 22.6041 12.3739 22.6041L11.978 25.5025H14.7363L14.8508 24.7448H12.9375L13.0491 24.0406H14.6484L14.7378 23.2938H13.1747L13.3135 22.6041H15.119L15.2335 21.7647H12.9841ZM20.6792 21.7647C20.1089 21.7647 20.0691 22.6041 20.0691 22.6041L19.6716 25.5025H22.43L22.5445 24.7448H20.632L20.7435 24.0406H22.3399L22.43 23.2938H20.8698L21.0087 22.6041H22.8141L22.9286 21.7647H20.6792ZM24.0965 21.7647C23.527 21.7647 23.4863 22.6041 23.4863 22.6041H24.5471L24.1778 25.5025H25.1905L25.4949 23.2938L25.5688 22.6041H26.6561L26.7699 21.7647H24.0965ZM16.996 21.7647H16.4294C16.3659 21.7647 16.1982 21.7944 16.1664 21.944C15.9781 22.8246 15.6087 25.5025 15.6087 25.5025H16.6429C17.9925 25.5025 18.3095 25.6232 18.7453 24.9378C19.0134 24.5156 19.1885 23.3025 19.0999 22.6048C18.995 21.7647 18.4055 21.7647 16.996 21.7647ZM17.7104 24.7448H16.6222C16.6098 24.7449 16.5975 24.7424 16.5861 24.7374C16.5747 24.7325 16.5646 24.7252 16.5563 24.7161C16.5481 24.707 16.5419 24.6963 16.5382 24.6846C16.5346 24.673 16.5335 24.6607 16.5351 24.6486L16.8402 22.7523C16.8459 22.712 16.8663 22.6752 16.8977 22.6486C16.9291 22.622 16.9693 22.6075 17.0108 22.6077H18.0864C18.5909 22.6041 18.342 24.773 17.7104 24.7448ZM30.883 21.7647H30.1259C30.0843 21.7651 30.0438 21.7769 30.0088 21.7987C29.9738 21.8206 29.9457 21.8516 29.9279 21.8883L28.9469 23.9777C28.9375 23.9976 28.9224 24.0144 28.9036 24.0262C28.8848 24.0379 28.8629 24.0442 28.8405 24.0442H28.74C28.7197 24.0443 28.7001 24.0369 28.6851 24.0236C28.67 24.0102 28.6606 23.9918 28.6588 23.9719L28.4017 21.8811C28.3979 21.8494 28.3823 21.8202 28.358 21.799C28.3336 21.7778 28.3021 21.7661 28.2695 21.7662H27.4325C27.4233 21.7663 27.4142 21.7683 27.4059 21.7721C27.3975 21.7759 27.3901 21.7815 27.3841 21.7883C27.3781 21.7951 27.3737 21.8031 27.371 21.8118C27.3684 21.8204 27.3677 21.8295 27.369 21.8385L27.9836 25.3629C27.9904 25.4017 28.0109 25.4369 28.0416 25.4623C28.0723 25.4877 28.1111 25.5016 28.1513 25.5018H29.0762C29.1093 25.5018 29.1418 25.4926 29.1698 25.4751C29.1978 25.4577 29.2202 25.4328 29.2342 25.4034L30.9384 21.8493C30.9426 21.8402 30.9444 21.8302 30.9437 21.8203C30.9429 21.8103 30.9396 21.8007 30.9341 21.7923C30.9286 21.7839 30.9211 21.777 30.9122 21.7722C30.9032 21.7674 30.8932 21.7648 30.883 21.7647Z" fill="url(#paint0_linear_2226_7769)"/>
<path d="M31.4408 33.2505C33.4027 33.2505 34.9932 31.6939 34.9932 29.7738C34.9932 27.8536 33.4027 26.297 31.4408 26.297C29.4788 26.297 27.8883 27.8536 27.8883 29.7738C27.8883 31.6939 29.4788 33.2505 31.4408 33.2505Z" fill="#00EABD"/>
<path d="M33.2706 25.574C33.2886 25.5842 33.3074 25.5932 33.3267 25.6008L33.2706 25.574Z" fill="url(#paint1_linear_2226_7769)"/>
<path d="M40.1214 20.318C40.5163 19.8388 40.789 19.2744 40.917 18.6716C41.045 18.0689 41.0247 17.4449 40.8577 16.8513C40.6908 16.2577 40.3819 15.7115 39.9567 15.2578C39.5315 14.8041 39.0021 14.4559 38.4122 14.2419C37.8223 14.028 37.1889 13.9544 36.5643 14.0273C35.9396 14.1002 35.3416 14.3175 34.8197 14.6612C34.2978 15.0049 33.8669 15.4651 33.5626 16.004C33.2583 16.5428 33.0893 17.1448 33.0696 17.7602V25.2292C33.0696 25.299 33.0884 25.3677 33.124 25.4282C33.1597 25.4888 33.211 25.539 33.2728 25.574C33.3777 25.6138 33.6192 25.6463 33.7049 25.574C33.7049 25.574 39.7971 20.7121 40.1221 20.318H40.1214Z" fill="url(#paint2_linear_2226_7769)"/>
<defs>
<linearGradient id="paint0_linear_2226_7769" x1="8" y1="23.6372" x2="30.9444" y2="23.6372" gradientUnits="userSpaceOnUse">
<stop stop-color="#0084D6"/>
<stop offset="1" stop-color="#00EABD"/>
</linearGradient>
<linearGradient id="paint1_linear_2226_7769" x1="52.4974" y1="29.856" x2="52.4974" y2="29.8659" gradientUnits="userSpaceOnUse">
<stop stop-color="#0084D6"/>
<stop offset="1" stop-color="#00EABD"/>
</linearGradient>
<linearGradient id="paint2_linear_2226_7769" x1="2885.54" y1="114.719" x2="3595.77" y2="1446.83" gradientUnits="userSpaceOnUse">
<stop stop-color="#0084D6"/>
<stop offset="1" stop-color="#00EABD"/>
</linearGradient>
</defs>
</svg>
