<svg width="48" height="48" viewBox="0 0 48 48" fill="none" xmlns="http://www.w3.org/2000/svg">
<rect x="1" y="1" width="46" height="46" rx="23" fill="white" stroke="#F8F8F8" stroke-width="2"/>
<path fill-rule="evenodd" clip-rule="evenodd" d="M29.542 29.9095C23.8001 34.5584 16.6652 35.2653 13.6043 31.4856C10.5434 27.7056 12.7177 20.8721 18.4592 16.2232C24.1997 11.5735 31.3372 10.8678 34.3954 14.6476C37.4564 18.4287 35.2832 25.2595 29.542 29.9095Z" fill="white"/>
<path fill-rule="evenodd" clip-rule="evenodd" d="M32.3291 16.321C34.2817 18.7333 33.0937 23.0207 29.7334 26.5467C29.7334 26.5467 29.7529 16.2136 29.7472 16.2136C28.8258 16.1904 27.3686 16.235 25.8288 16.3654V19.3079C25.8288 19.3079 26.0785 19.0253 27.0912 19.021L27.0886 28.8368C22.708 31.9087 17.7642 32.3894 15.6732 29.8085C13.6722 27.3374 14.9626 22.9147 18.5108 19.341C20.0509 18.0048 21.3011 19.8404 21.2457 21.4565C21.1955 22.9299 20.9555 24.081 19.31 26.3227C17.5751 28.6873 17.058 28.8356 16.9769 28.8428H16.9649C16.9649 28.8428 16.9688 28.8434 16.9769 28.8428L25.1542 28.841C25.1542 28.841 25.132 25.8862 25.1542 25.8862H23.2435C25.8258 18.5901 21.5938 16.851 21.5938 16.851C25.59 14.1959 30.3414 13.8642 32.3291 16.321ZM35.0628 21.887C34.1966 24.6107 32.2423 27.4439 29.4054 29.7413C26.5682 32.0387 23.3902 33.3616 20.5458 33.6428C17.7337 33.9208 15.2538 33.1784 13.7722 31.349C12.2912 29.5202 12.0808 26.9396 12.9377 24.2457C13.8042 21.5217 15.7588 18.6881 18.5958 16.391C21.4322 14.0936 24.61 12.7711 27.4543 12.4899C30.2665 12.2117 32.7463 12.9545 34.2265 14.7842H34.2274C35.7085 16.6136 35.9192 19.1937 35.0628 21.887ZM34.5634 14.5108H34.5643C32.9865 12.561 30.3683 11.7665 27.412 12.059C24.4878 12.3481 21.2268 13.7028 18.3228 16.055C15.4178 18.4071 13.4145 21.3151 12.5237 24.1151C11.6234 26.9453 11.8565 29.6711 13.4363 31.6221C15.0154 33.5721 17.6328 34.3661 20.5883 34.0739C23.5123 33.7847 26.7735 32.4294 29.6786 30.0773C32.5834 27.7248 34.5865 24.8173 35.4766 22.0174C36.3766 19.1881 36.1434 16.4625 34.5634 14.5108Z" fill="#ED1C24"/>
</svg>
