<svg width="121" height="120" viewBox="0 0 121 120" fill="none" xmlns="http://www.w3.org/2000/svg">
<path fill-rule="evenodd" clip-rule="evenodd" d="M112.642 106.882L113.208 107.805L120.688 120H115.548L114.675 118.447H107.224L106.351 120H101.212L108.692 107.805L109.257 106.882H112.642ZM110.95 111.821L108.939 115.397H112.96L110.95 111.821ZM96.5013 106.882C100.132 106.882 103.074 109.819 103.074 113.441C103.074 117.064 100.132 120 96.5013 120H86.4265V106.882H96.5013ZM84.8333 106.882V120H80.6938V106.882H84.8333ZM65.4397 106.882L69.9384 114.427L74.4369 106.882H79.5497L72.4946 118.714L71.7279 120H68.149L67.382 118.714L60.3271 106.882H65.4397ZM59.1883 106.882V109.023H50.1797V112.14H57.8863V114.28H50.1797V117.86H59.1883V120H47.3953V106.882H59.1883ZM96.0921 110.684H90.5659V116.198H96.0921V116.193L96.1972 116.198C97.7231 116.198 98.9603 114.964 98.9603 113.441C98.9603 111.918 97.7231 110.684 96.1972 110.684L96.0921 110.689V110.684ZM39.8821 106.882V106.889C39.9683 106.886 40.0546 106.882 40.1415 106.882C43.77 106.882 46.7112 109.817 46.7112 113.438C46.7112 117.059 43.77 119.994 40.1415 119.994C40.0546 119.994 39.9683 119.99 39.8821 119.987V120H30.385V106.882H39.8821ZM29.0365 106.882V109.023H20.0279V112.14H27.7342V114.28H20.0279V117.86H29.0365V120H17.2435V106.882H29.0365ZM11.6288 106.882C14.3032 106.882 16.4712 108.754 16.4712 111.062C16.4712 113.048 14.8659 114.71 12.7144 115.135L16.4712 120H12.8635L9.79441 116.026H3.47209V120H0.6875V106.882H11.6288ZM39.8052 109.281H33.1693V117.587H35.0551L35.0517 117.582H39.7149C39.7453 117.583 39.7746 117.587 39.8052 117.587C42.1037 117.587 43.9669 115.727 43.9669 113.434C43.9669 111.141 42.1037 109.281 39.8052 109.281ZM11.1413 109.467H3.47209V113.441H11.1413C12.2411 113.441 13.1326 112.552 13.1326 111.454C13.1326 110.357 12.2411 109.467 11.1413 109.467ZM62.4073 52.5545L100.487 74.8418L68.3039 63.3777L62.4073 98.9707V52.5545ZM58.8039 52.5545V98.9707L52.9075 63.3777L20.724 74.8418L58.8039 52.5545ZM20.204 27.8571L56.5109 49.4854L20.204 71.1138L44.3904 49.4854L20.204 27.8571ZM101.171 27.8571L76.9846 49.4854L101.171 71.1138L64.8643 49.4854L101.171 27.8571ZM58.8039 0V46.4164L20.724 24.1292L52.9075 35.593L58.8039 0ZM62.4073 0L68.3039 35.593L100.487 24.1292L62.4073 46.4164V0Z" fill="black"/>
</svg>
