<svg width="48" height="48" viewBox="0 0 48 48" fill="none" xmlns="http://www.w3.org/2000/svg">
<rect x="1" y="1" width="46" height="46" rx="23" fill="white" stroke="#F8F8F8" stroke-width="2"/>
<path d="M7 32.9028V29.0372H8.47279C8.84316 29.0372 9.11187 29.0724 9.27893 29.1427C9.44756 29.2113 9.58231 29.3343 9.68318 29.5119C9.78404 29.6894 9.83448 29.8924 9.83448 30.121C9.83448 30.411 9.75804 30.6509 9.60516 30.8408C9.45229 31.0289 9.22377 31.1475 8.9196 31.1968C9.07089 31.2952 9.1954 31.4033 9.29311 31.5211C9.3924 31.6389 9.52558 31.848 9.69263 32.1486L10.1158 32.9028H9.27893L8.77302 32.0616C8.59336 31.761 8.47043 31.5721 8.40424 31.4947C8.33804 31.4156 8.26791 31.362 8.19384 31.3339C8.11976 31.304 8.00235 31.289 7.8416 31.289H7.69975V32.9028H7ZM7.69975 30.672H8.21748C8.55317 30.672 8.76278 30.6562 8.84631 30.6246C8.92984 30.5929 8.99524 30.5384 9.04252 30.4611C9.08981 30.3838 9.11345 30.2871 9.11345 30.171C9.11345 30.041 9.08193 29.9364 9.01888 29.8573C8.95742 29.7764 8.86995 29.7254 8.75648 29.7043C8.69974 29.6955 8.52953 29.6912 8.24585 29.6912H7.69975V30.672Z" fill="#767676"/>
<path d="M10.448 32.9028V29.0372H13.0177V29.6912H11.1477V30.5481H12.8877V31.1994H11.1477V32.2515H13.0839V32.9028H10.448Z" fill="#767676"/>
<path d="M13.6265 29.0372H14.9054C15.1938 29.0372 15.4137 29.0618 15.565 29.1111C15.7683 29.1779 15.9424 29.2965 16.0874 29.467C16.2324 29.6375 16.3428 29.8467 16.4184 30.0946C16.4941 30.3407 16.5319 30.6448 16.5319 31.0069C16.5319 31.3251 16.4964 31.5993 16.4255 31.8296C16.3388 32.1108 16.2151 32.3385 16.0543 32.5125C15.933 32.6444 15.7691 32.7472 15.5626 32.821C15.4082 32.8755 15.2017 32.9028 14.9432 32.9028H13.6265V29.0372ZM14.3262 29.6912V32.2515H14.8487C15.0441 32.2515 15.1852 32.2392 15.2718 32.2146C15.3853 32.1829 15.4791 32.1293 15.5532 32.0537C15.6288 31.9781 15.6903 31.8542 15.7376 31.6819C15.7848 31.5079 15.8085 31.2715 15.8085 30.9726C15.8085 30.6738 15.7848 30.4444 15.7376 30.2844C15.6903 30.1245 15.6241 29.9997 15.539 29.91C15.4539 29.8204 15.3459 29.7597 15.2151 29.7281C15.1174 29.7035 14.9259 29.6912 14.6406 29.6912H14.3262Z" fill="#767676"/>
<path d="M17.0792 32.9028V29.0372H19.6489V29.6912H17.779V30.5481H19.5189V31.1994H17.779V32.2515H19.7151V32.9028H17.0792Z" fill="#767676"/>
<path d="M23.1714 31.4815V30.8302H24.6797V32.3701C24.5331 32.5283 24.3203 32.6681 24.0414 32.7894C23.764 32.9089 23.4827 32.9687 23.1974 32.9687C22.8349 32.9687 22.5189 32.8843 22.2494 32.7155C21.9799 32.545 21.7774 32.3024 21.6419 31.9878C21.5063 31.6714 21.4386 31.3277 21.4386 30.9568C21.4386 30.5543 21.5142 30.1965 21.6655 29.8836C21.8168 29.5707 22.0382 29.3308 22.3298 29.1638C22.552 29.0355 22.8286 28.9713 23.1596 28.9713C23.5898 28.9713 23.9255 29.0724 24.1667 29.2745C24.4094 29.4749 24.5654 29.7527 24.6347 30.1078L23.9397 30.2528C23.8909 30.0629 23.7987 29.9135 23.6631 29.8045C23.5292 29.6938 23.3613 29.6384 23.1596 29.6384C22.8538 29.6384 22.6103 29.7465 22.4291 29.9627C22.2494 30.179 22.1596 30.4998 22.1596 30.9252C22.1596 31.384 22.251 31.7285 22.4338 31.9588C22.6166 32.1873 22.8562 32.3016 23.1525 32.3016C23.2991 32.3016 23.4456 32.2699 23.5922 32.2066C23.7404 32.1416 23.8672 32.0634 23.9728 31.972V31.4815H23.1714Z" fill="#767676"/>
<path d="M25.1371 30.9937C25.1371 30.6 25.1899 30.2695 25.2955 30.0023C25.3743 29.8054 25.4815 29.6288 25.617 29.4723C25.7542 29.3159 25.9039 29.1998 26.0662 29.1242C26.2821 29.0223 26.5311 28.9713 26.8132 28.9713C27.3239 28.9713 27.7321 29.148 28.0378 29.5013C28.3451 29.8546 28.4988 30.346 28.4988 30.9753C28.4988 31.5993 28.3467 32.088 28.0425 32.4413C27.7384 32.7929 27.3318 32.9687 26.8227 32.9687C26.3073 32.9687 25.8976 32.7938 25.5934 32.444C25.2892 32.0924 25.1371 31.609 25.1371 30.9937ZM25.8582 30.9674C25.8582 31.4051 25.9488 31.7373 26.13 31.9641C26.3113 32.1891 26.5414 32.3016 26.8203 32.3016C27.0993 32.3016 27.3278 32.1899 27.5059 31.9667C27.6856 31.7417 27.7754 31.4051 27.7754 30.9568C27.7754 30.5138 27.6879 30.1834 27.513 29.9654C27.3396 29.7474 27.1088 29.6384 26.8203 29.6384C26.5319 29.6384 26.2995 29.7492 26.1229 29.9707C25.9464 30.1904 25.8582 30.5226 25.8582 30.9674Z" fill="#767676"/>
<path d="M28.8215 31.645L29.5024 31.5712C29.5434 31.8261 29.6261 32.0133 29.7506 32.1328C29.8767 32.2524 30.0461 32.3121 30.2589 32.3121C30.4842 32.3121 30.6537 32.2594 30.7671 32.1539C30.8822 32.0467 30.9397 31.9219 30.9397 31.7795C30.9397 31.6881 30.9153 31.6107 30.8664 31.5475C30.8191 31.4824 30.7356 31.4262 30.6158 31.3787C30.5339 31.3471 30.3471 31.2908 30.0556 31.2099C29.6805 31.1062 29.4173 30.9788 29.266 30.8276C29.0532 30.6149 28.9468 30.3556 28.9468 30.0498C28.9468 29.8529 28.9965 29.6692 29.0958 29.4987C29.1966 29.3264 29.3408 29.1954 29.5284 29.1058C29.7175 29.0161 29.9452 28.9713 30.2116 28.9713C30.6466 28.9713 30.9736 29.0777 31.1927 29.2904C31.4133 29.5031 31.5291 29.787 31.5402 30.142L30.8404 30.1763C30.8105 29.9777 30.7459 29.8353 30.6466 29.7492C30.5489 29.6613 30.4015 29.6173 30.2045 29.6173C30.0012 29.6173 29.842 29.6639 29.727 29.7571C29.6529 29.8168 29.6159 29.8968 29.6159 29.997C29.6159 30.0884 29.6505 30.1667 29.7199 30.2317C29.8081 30.3143 30.0225 30.4004 30.3629 30.4901C30.7033 30.5798 30.9547 30.6729 31.117 30.7696C31.2809 30.8645 31.4086 30.9955 31.5 31.1625C31.593 31.3277 31.6395 31.5325 31.6395 31.7769C31.6395 31.9983 31.5843 32.2058 31.474 32.3991C31.3637 32.5925 31.2076 32.7366 31.0059 32.8316C30.8042 32.9247 30.5528 32.9713 30.2518 32.9713C29.8136 32.9713 29.4772 32.8588 29.2423 32.6338C29.0075 32.407 28.8672 32.0774 28.8215 31.645Z" fill="#767676"/>
<path d="M32.1797 32.9028V29.0372H33.3026C33.7281 29.0372 34.0055 29.0566 34.1348 29.0952C34.3333 29.1533 34.4996 29.2798 34.6336 29.4749C34.7675 29.6683 34.8345 29.9188 34.8345 30.2264C34.8345 30.4637 34.7959 30.6632 34.7187 30.825C34.6414 30.9867 34.5429 31.1141 34.4232 31.2073C34.305 31.2987 34.1844 31.3594 34.0615 31.3892C33.8944 31.4262 33.6525 31.4446 33.3357 31.4446H32.8795V32.9028H32.1797ZM32.8795 29.6912V30.7881H33.2624C33.5382 30.7881 33.7226 30.7678 33.8156 30.7274C33.9086 30.687 33.9811 30.6237 34.0331 30.5376C34.0867 30.4514 34.1135 30.3512 34.1135 30.237C34.1135 30.0963 34.0764 29.9803 34.0024 29.8889C33.9283 29.7975 33.8345 29.7404 33.721 29.7175C33.6375 29.6999 33.4697 29.6912 33.2175 29.6912H32.8795Z" fill="#767676"/>
<path d="M35.3605 32.9028V29.0372H37.9303V29.6912H36.0603V30.5481H37.8002V31.1994H36.0603V32.2515H37.9964V32.9028H35.3605Z" fill="#767676"/>
<path d="M38.5603 32.9028V29.0689H39.2601V32.2515H41V32.9028H38.5603Z" fill="#767676"/>
<path d="M15.7172 18.5922C16.5455 19.7321 17.8676 20.417 18.4251 20.6169C18.9826 19.0047 21.3321 16.1551 25.5134 15.8176C28.8585 15.5477 31.6328 17.105 32.6018 17.9173C31.5664 16.7175 28.4921 14.3179 24.4781 14.3179C20.464 14.3179 16.965 17.1674 15.7172 18.5922Z" fill="url(#paint0_linear_2226_7753)"/>
<path d="M25.4337 14.7678C22.4391 15.0378 20.2834 17.4299 19.5799 18.5923C20.4162 17.5424 23.8807 15.6302 26.8275 15.7052C29.185 15.7652 31.7389 17.23 32.7212 17.9548C32.2831 17.4299 29.177 14.4304 25.4337 14.7678Z" fill="url(#paint1_linear_2226_7753)"/>
<path d="M18.5047 15.2385C16.657 15.8757 15.3986 17.3141 15.0004 17.9536C15.3986 14.3335 17.1906 11.4374 21.3719 10.6047C24.7169 9.93861 26.5089 11.1236 26.9868 11.7994C22.3037 11.307 19.3808 13.887 18.5047 15.2385Z" fill="url(#paint2_linear_2226_7753)"/>
<path d="M29.0179 14.9548C25.8003 9.53902 20.4561 10.5985 18.1863 11.8052C19.7659 10.5864 23.9286 8.67018 27.9427 10.7554C31.9567 12.8406 32.9868 16.427 33.0001 17.9595C32.2036 16.6563 30.0134 15.4133 29.0179 14.9548Z" fill="url(#paint3_linear_2226_7753)"/>
<path d="M29.4955 20.8762C31.3433 20.2391 32.6017 18.8007 32.9999 18.1611C32.6017 21.7813 30.8097 24.6774 26.6284 25.51C23.2833 26.1761 21.4913 24.9911 21.0134 24.3154C25.6965 24.8077 28.6195 22.2277 29.4955 20.8762Z" fill="url(#paint4_linear_2226_7753)"/>
<path d="M18.9825 21.16C22.2001 26.5757 27.5442 25.5162 29.8141 24.3095C28.2345 25.5283 24.0717 27.4446 20.0577 25.3594C16.0436 23.2741 15.0136 19.6878 15.0003 18.1552C15.7967 19.4585 17.9869 20.7014 18.9825 21.16Z" fill="url(#paint5_linear_2226_7753)"/>
<path d="M15.6375 17.576C16.4658 16.4755 17.7879 15.8142 18.3454 15.6211C18.9029 17.1778 21.2524 19.9291 25.4337 20.2549C28.7788 20.5156 31.5531 19.012 32.5221 18.2276C31.4867 19.3861 28.4124 21.703 24.3984 21.703C20.3843 21.703 16.8853 18.9517 15.6375 17.576Z" fill="url(#paint6_linear_2226_7753)"/>
<path d="M25.3541 21.2686C22.3595 21.0079 20.2038 18.6983 19.5003 17.576C20.3366 18.5897 23.8011 20.4359 26.7479 20.3635C29.1054 20.3056 31.6593 18.8913 32.6416 18.1914C32.2035 18.6983 29.0974 21.5944 25.3541 21.2686Z" fill="url(#paint7_linear_2226_7753)"/>
<defs>
<linearGradient id="paint0_linear_2226_7753" x1="27.0267" y1="16.7434" x2="11.9773" y2="22.3187" gradientUnits="userSpaceOnUse">
<stop stop-color="#DDE0F1"/>
<stop offset="1"/>
</linearGradient>
<linearGradient id="paint1_linear_2226_7753" x1="21.571" y1="17.1675" x2="30.5921" y2="15.9435" gradientUnits="userSpaceOnUse">
<stop stop-color="#4EFFFF"/>
<stop offset="1" stop-color="#4462FF"/>
</linearGradient>
<linearGradient id="paint2_linear_2226_7753" x1="22.3276" y1="9.17723" x2="16.5241" y2="17.4957" gradientUnits="userSpaceOnUse">
<stop stop-color="#4EFFFF"/>
<stop offset="1" stop-color="#4358FF"/>
</linearGradient>
<linearGradient id="paint3_linear_2226_7753" x1="19.9504" y1="8.57815" x2="32.4275" y2="19.5581" gradientUnits="userSpaceOnUse">
<stop stop-color="white"/>
<stop offset="1" stop-color="#484848"/>
</linearGradient>
<linearGradient id="paint4_linear_2226_7753" x1="25.6726" y1="26.9375" x2="31.4762" y2="18.619" gradientUnits="userSpaceOnUse">
<stop stop-color="#4EFFFF"/>
<stop offset="1" stop-color="#4358FF"/>
</linearGradient>
<linearGradient id="paint5_linear_2226_7753" x1="26.7001" y1="28.2139" x2="14.4833" y2="14.7753" gradientUnits="userSpaceOnUse">
<stop stop-color="white"/>
<stop offset="1" stop-color="#484848"/>
</linearGradient>
<linearGradient id="paint6_linear_2226_7753" x1="17.9074" y1="15.6211" x2="28.7651" y2="27.4456" gradientUnits="userSpaceOnUse">
<stop stop-color="#DDE0F1"/>
<stop offset="1"/>
</linearGradient>
<linearGradient id="paint7_linear_2226_7753" x1="21.4914" y1="18.9517" x2="30.5006" y2="20.2177" gradientUnits="userSpaceOnUse">
<stop stop-color="#4EFFFF"/>
<stop offset="1" stop-color="#4462FF"/>
</linearGradient>
</defs>
</svg>
