<svg width="451" height="120" viewBox="0 0 451 120" fill="none" xmlns="http://www.w3.org/2000/svg">
<path d="M256.623 29.7132C257.911 28.0357 261.632 20.5597 261.381 17.2103C261.123 13.8609 260.351 6.89938 252.129 6.25634C243.908 5.6133 237.735 11.5404 238.25 17.6017C238.765 23.6575 244.675 29.8474 261.123 42.2217C277.572 54.5959 292.089 62.2005 294.664 79.4731C297.238 96.7456 286.313 108.22 283.358 110.283C280.403 112.346 268.069 121.371 248.408 119.822C260.009 115.315 264.856 105.127 252.779 90.5613C252.779 90.5613 234.92 65.9413 230.806 57.3023C226.693 48.6632 221.169 35.2601 224.382 22.3714C227.594 9.48271 235.435 4.06442 240.315 1.74949C245.201 -0.571033 253.294 -0.956855 258.56 2.90696C263.826 6.77077 264.196 10.7576 263.826 15.4098C263.177 23.5289 256.623 29.7132 256.623 29.7132ZM294.014 53.869C295.682 52.6053 303.652 44.408 301.083 34.6953C298.514 24.9827 289.52 25.9948 287.075 26.8727C284.634 27.7561 279.362 31.1614 280.264 38.2237C281.165 45.2859 286.431 46.298 289 48.4396C291.569 50.5811 291.955 53.992 290.158 56.2622C290.164 56.2622 292.347 55.1271 294.014 53.869ZM205.096 70.5097C203.411 75.38 199.057 92.6302 216.02 104.434C232.983 116.232 251.615 99.7427 251.615 99.7427C251.615 99.7427 233.241 100.816 223.604 84.8578C213.966 68.9049 221.807 53.6174 223.089 52.5438C223.083 52.5438 209.08 58.9798 205.096 70.5097Z" fill="#F05A0A"/>
<path d="M349.298 74.278C346.046 83.2973 339.403 90.024 333.51 90.024C329.984 90.024 328.562 88.6652 328.562 85.2264C328.562 82.0783 330.118 75.9219 332.631 66.2596H332.289C329.648 74.921 326.665 81.0718 323.206 84.6504C319.747 88.2291 316.294 90.0184 312.769 90.0184C309.041 90.0184 307.211 87.7985 307.211 83.0065C307.211 66.405 317.173 52.6607 330.862 52.6607C334.181 52.6607 337.774 53.4492 340.959 54.6625L349.09 51.945C348.956 52.5881 348.48 54.3774 347.602 57.4584C346.723 60.5337 345.772 63.9726 344.753 67.6239C343.735 71.2753 342.856 74.8539 342.044 78.2145C341.233 81.5806 340.824 83.8676 340.824 85.0139C343.6 82.151 346.247 78.0691 347.87 74.3507L349.298 74.278ZM322.328 81.1445C324.158 81.1445 330.527 74.1326 334.187 57.4528C333.985 54.875 333.308 53.8014 331.679 53.8014C327.683 53.8014 321.242 66.472 321.242 79.4949C321.242 80.7195 321.51 81.1445 322.328 81.1445ZM387.427 85.2991C387.427 81.0774 391.832 66.3323 394.205 59.175H388.379L389.867 53.7343H396.035L398.883 46.7895L411.084 46.359L408.644 53.7287H416.44L414.951 59.1694H407.021C404.855 66.254 400.176 80.3561 399.835 85.2208C401.531 84.0745 403.293 82.2852 405.258 79.9255C407.155 77.5658 408.784 75.0608 410.205 72.4831L411.56 72.4104C407.424 81.5694 399.023 90.0184 392.514 90.0184C388.513 90.024 387.427 88.6596 387.427 85.2991ZM448.402 72.9863C443.998 82.0783 434.847 90.0184 424.409 90.0184C417.906 90.0184 414.923 86.4397 414.923 80.1436C414.923 64.6827 424.208 52.6607 439.459 52.6607C447.115 52.6607 450.372 55.2385 450.372 59.8907C450.372 67.2605 443.326 72.1308 428.887 72.9863C428.82 74.2053 428.752 75.4913 428.752 76.7103C428.752 80.4343 430.381 82.2237 433.358 82.2237C439.05 82.2237 442.71 79.6459 447.115 73.0646L448.402 72.9863ZM428.954 72.1979C434.92 70.7664 437.97 65.9688 437.97 59.8851C437.97 55.8759 437.36 54.3047 436.274 54.3047C433.358 54.3103 429.833 62.3958 428.954 72.1979ZM351.016 90.024C351.016 89.5934 351.956 87.0884 352.7 84.2982C353.445 81.5079 354.329 78.4269 355.275 74.9937C356.153 71.5604 357.038 68.1943 357.782 64.8281C358.526 61.5346 358.935 59.175 358.935 57.7435C355.952 60.5337 353.853 64.2578 352.157 68.3341L350.803 68.4068C354.055 59.3875 360.289 52.6607 366.457 52.6607C370.184 52.6607 371.404 54.0195 371.404 57.4584C371.404 60.6064 370.117 65.9017 367.61 75.564H367.878C369.977 68.4794 372.283 62.8934 374.79 58.8171C377.297 54.7352 379.603 52.6607 381.836 52.6607C384.276 52.6607 385.631 54.3774 385.631 58.9569C385.631 63.2513 383.532 67.3332 381.159 68.8317H381.025C380.146 67.1151 378.517 66.254 376.822 66.254C374.449 66.254 369.093 66.897 365.097 88.7267L351.016 90.024ZM0.37207 83.2413C0.37207 79.8752 3.64048 77.1521 8.26887 76.6488H8.34722C8.57668 83.5992 11.5373 88.257 16.1713 88.257C18.5274 88.257 19.893 87.2561 19.893 85.0307C19.893 82.7381 17.9174 79.8752 12.5279 74.9993C9.10836 71.8456 5.9183 68.1216 5.9183 63.4638C5.9183 57.3745 15.1079 52.644 24.2975 52.644C31.8921 52.644 34.321 54.8638 34.321 58.23C34.321 61.4564 30.9799 64.6045 26.6481 64.8952H26.5697C26.3403 59.3763 23.6091 54.4333 19.5852 54.4333C17.5368 54.4333 16.3951 55.5069 16.3951 57.5143C16.3951 59.449 17.9902 61.5962 23.458 66.4721C27.0287 69.6984 30.8232 73.4224 30.8232 78.0076C30.8232 84.958 20.5702 90.0407 11.1511 90.0407C3.18156 90.0463 0.37207 87.3232 0.37207 83.2413ZM78.0584 74.2836C74.8068 83.3084 68.1693 90.0463 62.276 90.0463C58.7558 90.0463 57.3342 88.6876 57.3342 85.2487C57.3342 82.0951 58.8901 75.9331 61.3974 66.2652H61.0616C58.42 74.9322 55.4426 81.0942 51.9839 84.6784C48.5308 88.2626 45.0777 90.0519 41.5518 90.0519C37.8245 90.0519 36 87.8321 36 83.0289C36 66.4105 45.9564 52.6552 59.6344 52.6552C62.9532 52.6552 66.5406 53.4436 69.7251 54.6625L77.8514 51.9394C77.717 52.5825 77.2413 54.3774 76.3627 57.4584C75.484 60.5393 74.5326 63.9782 73.5196 67.6295C72.501 71.2809 71.6224 74.8651 70.8108 78.2312C69.9993 81.5974 69.5908 83.89 69.5908 85.0362C72.3667 82.1733 75.0083 78.0859 76.6313 74.3618L78.0584 74.2836ZM51.1052 81.1613C52.9353 81.1613 59.2986 74.1382 62.9588 57.4472C62.7573 54.8694 62.0802 53.7958 60.4515 53.7958C56.4556 53.7958 50.0195 66.4776 50.0195 79.5173C50.0195 80.7363 50.2937 81.1613 51.1052 81.1613ZM79.3457 85.2487C79.3457 83.1015 84.1531 63.542 87.9476 45.7048L84.0188 41.908L84.086 41.7627L103.456 36.0312L101.357 45.414C99.7341 52.7223 96.8854 65.186 94.7195 73.6405H94.921C97.5626 65.9744 100.54 60.6008 103.859 57.3801C107.178 54.2264 110.496 52.6496 113.815 52.6496C117.542 52.6496 119.367 54.8694 119.367 59.6726C119.367 76.2909 109.343 90.0463 95.4583 90.0463C89.9792 90.0463 83.7502 88.1843 79.3457 85.2487ZM93.0965 81.1613C92.7551 82.8108 92.285 84.3149 92.0108 85.5339C92.2794 87.8992 93.0965 88.9001 94.6524 88.9001C98.8498 88.9001 105.353 76.2183 105.353 63.1786C105.353 61.9596 105.084 61.5291 104.267 61.5291C102.644 61.5347 96.891 67.4114 93.0965 81.1613ZM120.996 78.0132C120.996 64.9008 130.61 52.6552 144.361 52.6552C153.232 52.6552 157.295 56.6643 157.295 64.761C157.295 77.9405 147.54 90.0519 133.795 90.0519C124.919 90.0463 120.996 86.1042 120.996 78.0132ZM144.63 61.6073C144.63 56.6643 144.154 54.1593 142.867 54.1593C139.28 54.1593 133.588 68.1272 133.588 81.3122C133.588 86.1825 133.996 88.5478 135.284 88.5478C138.602 88.5422 144.63 74.7868 144.63 61.6073ZM159.276 90.0463C159.276 89.6158 160.25 87.1107 161.028 84.3149C161.8 81.5191 162.718 78.4381 163.703 74.9993C164.621 71.5604 165.533 68.1943 166.306 64.8281C167.078 61.5346 167.503 59.1694 167.503 57.7379C164.408 60.5337 162.226 64.2578 160.463 68.3397L159.052 68.4123C162.433 59.3875 168.908 52.6496 175.316 52.6496C179.189 52.6496 180.454 54.0083 180.454 57.4472C180.454 60.6008 179.116 65.9017 176.514 75.5752H176.794C178.976 68.485 181.372 62.8934 183.974 58.8115C186.576 54.7296 188.972 52.6496 191.294 52.6496C193.83 52.6496 195.234 54.3662 195.234 58.9513C195.234 63.2513 193.052 67.3332 190.589 68.8373H190.449C189.531 67.1207 187.847 66.2596 186.084 66.2596C183.621 66.2596 178.058 66.9026 173.906 88.7547L159.276 90.0463Z" fill="#828C46"/>
</svg>
