<svg width="48" height="48" viewBox="0 0 48 48" fill="none" xmlns="http://www.w3.org/2000/svg">
<rect x="1" y="1" width="46" height="46" rx="23" fill="white" stroke="#F8F8F8" stroke-width="2"/>
<path fill-rule="evenodd" clip-rule="evenodd" d="M36 24C36 30.6274 30.6274 36 24 36C17.3726 36 12 30.6274 12 24C12 17.3726 17.3726 12 24 12C30.6274 12 36 17.3726 36 24Z" fill="black"/>
<path fill-rule="evenodd" clip-rule="evenodd" d="M34.1281 22.0764C34.1281 22.1879 34.0558 22.2526 33.952 22.2526H32.4138V25.2169C32.4138 25.4984 32.4246 26.1132 32.7524 26.4301C33.0217 26.6929 33.5284 26.7484 33.9614 26.7484C34.0543 26.7484 34.1281 26.8155 34.1281 26.9153V28.6303C34.1281 28.7218 34.0734 28.8018 33.9575 28.8018H33.6981C32.3406 28.8018 31.5921 28.3176 31.1598 27.881C30.5641 27.2664 30.3057 26.5143 30.3057 25.2746V22.2526H29.0872C28.998 22.2526 28.9204 22.2007 28.9204 22.0858V20.3523C28.9204 20.267 28.9878 20.1992 29.0686 20.1992H30.3057V17.7659C30.3057 17.6653 30.3664 17.599 30.4771 17.599H32.2471C32.35 17.599 32.4138 17.669 32.4138 17.7659V20.1992H33.9429C34.0572 20.1992 34.1281 20.2589 34.1281 20.3801V22.0764ZM24.6315 28.827C27.0963 28.827 28.9704 26.8201 28.9704 24.5393C28.9704 22.2172 27.0464 20.2506 24.7695 20.2506C23.4206 20.2506 22.5026 21.0021 22.5026 21.0021V15.9592C22.5026 15.8595 22.4244 15.8016 22.3451 15.8016H20.5521C20.456 15.8016 20.3944 15.8704 20.3944 15.9593V24.0898C20.3944 25.8626 20.7632 26.6413 21.4064 27.3761C22.3127 28.4106 23.5906 28.827 24.6315 28.827ZM24.6175 22.3046C25.8587 22.3046 26.8581 23.2346 26.8581 24.5461C26.8581 25.885 25.7867 26.7778 24.5917 26.7778C23.2601 26.7778 22.4057 25.6738 22.4057 24.4778C22.4057 23.4238 23.2151 22.3046 24.6175 22.3046ZM19.5389 26.0452C19.5389 27.5749 18.4147 28.8301 16.378 28.8301C15.5474 28.8301 14.9975 28.7113 14.0107 28.3707C13.9218 28.3427 13.8534 28.3059 13.8534 28.1947V26.5446C13.8534 26.4087 13.9383 26.3369 14.0523 26.3369C14.1247 26.3369 14.1874 26.3635 14.2424 26.387C14.9404 26.6564 15.6266 26.9118 16.4404 26.9098C17.0154 26.9098 17.5064 26.7081 17.5064 26.1952C17.5064 25.9147 17.4107 25.8172 17.2911 25.7566C17.1598 25.6841 17.012 25.6166 16.8607 25.5603C16.4646 25.4127 16.078 25.3479 15.6694 25.191C15.2806 25.0439 14.7911 24.8378 14.43 24.4959C13.9872 24.0903 13.7601 23.5423 13.7601 22.8435C13.7601 21.1718 15.1292 20.1381 16.8332 20.1381C17.9618 20.1381 18.8849 20.4913 18.8849 20.4913C18.9726 20.5212 19.0609 20.5501 19.0609 20.6489V22.2618C19.0609 22.3835 19.0044 22.4746 18.8978 22.4746C18.8357 22.4746 18.7087 22.4195 18.7087 22.4195C18.7087 22.4195 17.6498 22.0101 16.9252 22.0179C16.1092 22.0179 15.7898 22.3719 15.7898 22.7599C15.7898 23.1181 16.1309 23.2133 16.5869 23.3578C16.8058 23.4179 17.6909 23.6455 18.088 23.8286C18.974 24.1843 19.5389 25.0079 19.5389 26.0452Z" fill="white"/>
</svg>
