<svg width="48" height="48" viewBox="0 0 48 48" fill="none" xmlns="http://www.w3.org/2000/svg">
<rect x="1" y="1" width="46" height="46" rx="23" fill="white" stroke="#F8F8F8" stroke-width="2"/>
<path fill-rule="evenodd" clip-rule="evenodd" d="M43.8163 26.7145L43.5999 20.6918L39.3889 20.8438L33.1963 21.07L28.9863 21.2232L20.1391 21.5747L20.3228 27.5986L29.2441 27.2448L33.3734 27.0948L39.6476 26.8666L43.8163 26.7145Z" fill="#EA2227"/>
<path fill-rule="evenodd" clip-rule="evenodd" d="M20.3576 28.7432L20.0662 19.1837L13.7502 19.4276L13.8173 20.9961L9.45666 21.1373L4.18176 21.308L4.40894 28.3115L9.73528 28.1406L14.1168 27.9965L14.1579 28.9604L20.3576 28.7432Z" fill="#231F20"/>
<path fill-rule="evenodd" clip-rule="evenodd" d="M20.9166 22.0686L20.7821 22.0734H20.7803L20.4801 22.0864L20.4781 22.0844L20.4623 22.0852L20.4603 22.0864L20.4523 22.0873V22.0943L20.4454 22.1032L20.4523 22.109L20.4752 23.0512L24.0504 22.912L24.0177 21.9451L20.9166 22.0686ZM21.7383 23.1569L21.8765 26.8191L22.965 26.7806L22.8345 23.1174L21.7383 23.1569ZM28.4958 25.4098C28.3634 24.6779 28.2252 24.3153 27.7916 24.3233V24.2977C27.9221 24.2729 27.9061 24.2977 28.2006 24.0893C28.4179 23.9412 28.5956 23.5628 28.5709 23.0393C28.5461 22.516 28.2301 22.0636 27.8292 21.9373C27.6009 21.866 27.3136 21.8167 26.7793 21.8384L25.9733 21.8699L26.0009 22.7768L26.5936 22.7382C26.9738 22.7233 27.4825 22.7046 27.5112 23.2942C27.5112 23.4463 27.4332 23.8078 27.1477 23.9116C26.9279 23.9802 26.6995 24.0176 26.4692 24.0222L26.0425 24.0388L26.075 24.901L26.561 24.8823C27.1536 24.8597 27.3285 24.981 27.4104 25.5588C27.4717 25.9807 27.5674 26.3094 27.7887 26.6107L28.8919 26.5476C28.7031 26.1909 28.5699 25.8076 28.4968 25.4107L28.4958 25.4098ZM24.7602 21.8914L24.9518 26.6816L26.0541 26.6374L25.8623 21.8473L24.7602 21.8914ZM32.8217 21.638L30.5641 21.7238L30.5966 22.6097L32.8623 22.5229L32.8217 21.638ZM32.7141 23.4611L30.6272 23.5362L30.6588 24.434L32.7545 24.3589L32.7141 23.4611ZM30.7121 25.6142L30.7456 26.5111L33.0441 26.424L33.0015 25.5263L30.7121 25.6142ZM29.285 21.7604L29.4845 26.5545L30.5936 26.522L30.3891 21.7239L29.285 21.7604ZM39.0568 21.7812V21.7357L39.033 21.7822H39.0281C39.0281 21.7822 38.0819 23.5747 38.0819 23.5815L38.153 26.2355L39.2336 26.1969L39.0628 21.7812H39.0568ZM38.0494 21.4374C37.9072 21.6587 36.4988 24.2276 36.4988 24.2276L36.561 25.96C36.7408 25.6517 39.0389 21.4936 39.0688 21.4047L38.0494 21.4374ZM34.5362 21.5747L33.517 21.6123C33.5525 21.7022 36.1837 25.6913 36.3813 25.9827H36.3832L36.3202 24.2483C36.3202 24.2483 34.6943 21.7791 34.5362 21.5747ZM33.4983 21.8433L33.6731 26.3767L34.7319 26.354L34.6479 23.5994L33.4983 21.8433ZM43.2296 21.2725L40.972 21.3585L41.0045 22.2433L43.2712 22.1575L43.2296 21.2725ZM43.1219 23.0958L41.0361 23.1708L41.0677 24.0686L43.1635 23.9945L43.1219 23.0958ZM43.4104 25.1619L41.121 25.2479L41.1526 26.1455L43.452 26.0587L43.4104 25.1619ZM40.7959 21.3585L41.0025 26.1585L39.8923 26.19L39.6939 21.3949L40.7959 21.3585Z" fill="white"/>
<path fill-rule="evenodd" clip-rule="evenodd" d="M7.73438 24.1425L6.74659 23.9263C6.53341 23.8761 6.03155 23.7287 6.0179 23.3436C6.0079 23.0384 6.41976 22.8794 6.82279 22.825L6.793 21.8681C5.2761 21.939 4.72983 22.7184 4.75948 23.565C4.79707 24.673 5.69293 24.9308 6.05817 25.0118L7.35217 25.2972C7.70279 25.3792 7.98024 25.5698 7.98914 25.8196C8.0079 26.3668 7.32928 26.4122 7.11314 26.4241L7.16548 27.4483C8.42472 27.3673 9.34617 26.757 9.30659 25.6073L9.30866 25.6063C9.2701 24.4843 8.43755 24.2976 7.73438 24.1425ZM7.89238 23.6189L9.05286 23.4641C9.02714 22.9119 8.81479 21.8454 6.97872 21.8621L7.02735 22.8112C7.68459 22.8281 7.88631 23.4684 7.89238 23.6189ZM5.90217 25.6034V25.6043L4.69824 25.6963C4.7141 25.9234 4.73776 26.4429 5.13583 26.8538C5.60507 27.3476 6.41976 27.4601 6.96597 27.4532L6.93328 26.423C6.17486 26.3905 5.91617 25.8059 5.90217 25.6034ZM13.9358 21.6132L11.3087 21.7139L11.3462 22.743L13.9842 22.6434L13.9358 21.6132ZM13.8094 23.7347L11.3807 23.8217L11.4202 24.8665L13.8598 24.7797L13.8094 23.7347ZM11.4826 26.2394L11.5189 27.2824L14.1947 27.1816L14.1462 26.1367L11.4826 26.2394ZM9.82314 21.7545L10.0524 27.3346L11.3442 27.2963L11.1041 21.713L9.82314 21.7545ZM18.3971 24.435L17.4776 26.7294L18.0801 27.9708L20.0731 27.8986L18.3971 24.435ZM17.7976 20.0488L14.6036 28.0962L16.5966 28.0251L19.7927 19.9767L17.7976 20.0488ZM15.992 23.6498L14.3111 20.1743L16.3043 20.1032L16.9254 21.3881L15.992 23.6498Z" fill="white"/>
</svg>
