<svg width="48" height="48" viewBox="0 0 48 48" fill="none" xmlns="http://www.w3.org/2000/svg">
<rect x="1" y="1" width="46" height="46" rx="23" fill="white" stroke="#F8F8F8" stroke-width="2"/>
<path fill-rule="evenodd" clip-rule="evenodd" d="M4.11951 25.9264H27.2424V21.3377H4.11951V25.9264Z" fill="black"/>
<path fill-rule="evenodd" clip-rule="evenodd" d="M27.0835 25.7476V26.0519H4V21.2163H27.0835V21.5264H4.30027V25.7476H27.0835Z" fill="white"/>
<path fill-rule="evenodd" clip-rule="evenodd" d="M36.1195 24.9635C35.4539 24.9635 34.9688 24.5151 34.9688 23.5273C34.9688 22.5397 35.4548 22.0904 36.1195 22.0904C36.7842 22.0904 37.2702 22.5397 37.2702 23.5273C37.2702 24.5151 36.7851 24.9635 36.1195 24.9635ZM38.7388 21.1709V21.8553C38.2448 21.3259 37.4015 21 36.1195 21C34.883 21 34.2914 21.2055 33.8322 21.5324C33.5522 21.7316 33.3262 21.9973 33.1743 22.3056V21.2192H31.1378V23.0089H29.12V21.2163H27.0834V26.0539H29.12V24.1841H31.1368V26.0539H33.1732V24.7383C33.5832 25.5333 34.4968 26.0539 36.1184 26.0539C37.3551 26.0539 38.1867 25.722 38.7052 25.2232C39.1002 24.844 39.3303 24.2652 39.3303 23.5273C39.3388 23.1251 39.2554 22.7261 39.0864 22.3609H40.3407V26.0528H42.397V22.362H44V21.1709H38.7388Z" fill="#EE3F34"/>
<path fill-rule="evenodd" clip-rule="evenodd" d="M24.5512 22.4499L24.002 23.4791L23.4845 22.4499H22.1758L23.3985 24.198V24.9427H24.4465V24.198L25.6682 22.4499H24.5512Z" fill="white"/>
<path fill-rule="evenodd" clip-rule="evenodd" d="M20.0316 22.4499H18.7664L18.1906 23.2104L17.6346 22.4499H16.2903L17.363 23.644L16.2567 24.8993H17.4983L18.1226 24.0716L18.7231 24.8993H20.0652L18.9432 23.644L20.0316 22.4499Z" fill="white"/>
<path fill-rule="evenodd" clip-rule="evenodd" d="M12.1443 23.9304H13.4075V23.4159H12.1443V22.9655H13.4915V22.4499H11.1487V24.8953H13.5063V24.3807H12.1443V23.9304Z" fill="white"/>
<path fill-rule="evenodd" clip-rule="evenodd" d="M8.42174 23.7101C8.11067 23.4287 7.0292 23.3299 6.876 23.1817C6.8484 23.1532 6.83347 23.1148 6.83467 23.0751C6.83467 22.9555 6.94427 22.8775 7.15174 22.8775C7.25214 22.8695 7.3524 22.8919 7.44 22.9417C7.52 23.0035 7.56467 23.1005 7.55947 23.2015H8.52534C8.51267 22.7185 8.21134 22.4429 7.2168 22.4429C6.28147 22.4429 5.81134 22.6731 5.81134 23.1856C5.806 23.3391 5.8664 23.4875 5.97734 23.5935C6.29134 23.8691 7.40934 23.9788 7.54174 24.1279C7.5688 24.1572 7.5836 24.1957 7.5832 24.2355C7.5832 24.4232 7.36307 24.4725 7.15854 24.4725C7.05534 24.4785 6.95387 24.4431 6.87707 24.3739C6.81134 24.2939 6.7788 24.1916 6.78614 24.0884L5.78174 24.0923C5.8016 24.5259 5.86281 24.9061 7.1328 24.9061C8.19747 24.9061 8.60641 24.6099 8.60641 24.1447C8.61427 23.9792 8.54641 23.8192 8.42174 23.7101Z" fill="white"/>
</svg>
