<svg width="48" height="48" viewBox="0 0 48 48" fill="none" xmlns="http://www.w3.org/2000/svg">
<rect x="1" y="1" width="46" height="46" rx="23" fill="white" stroke="#F8F8F8" stroke-width="2"/>
<path fill-rule="evenodd" clip-rule="evenodd" d="M41.256 24.3271H43.4723C43.8681 24.3271 43.9999 24.1512 43.9999 23.6939C43.9999 22.5066 43.226 21.7326 42.0653 21.7326C40.8691 21.7326 40.0512 22.5594 40.0512 23.9665C40.0512 25.2945 40.8075 26.1564 42.1707 26.1564C42.7424 26.1564 43.3579 26.0069 43.7625 25.7166L43.8066 24.9163C43.4371 25.1714 42.9006 25.3473 42.4081 25.3473C41.7573 25.3473 41.3353 25.013 41.256 24.3271ZM42.0652 22.5241C42.5664 22.5241 42.8742 22.9023 42.8742 23.5707C42.8742 23.6323 42.8567 23.6587 42.7951 23.6587H41.2385C41.2737 22.8672 41.6165 22.5242 42.0652 22.5241ZM37.9435 21.7326C37.3366 21.7326 36.8969 21.9877 36.6419 22.3131C36.3692 21.891 35.9031 21.7326 35.3578 21.7326C34.7158 21.7326 34.2584 21.9965 34.0122 22.3571L33.8012 21.8118H32.5963V22.6385H33.1064V26.0773H34.276V23.6147C34.276 23.2805 34.32 23.0519 34.452 22.8759C34.5751 22.7177 34.7774 22.6121 35.0236 22.6121C35.2523 22.6121 35.4458 22.7001 35.5601 22.8496C35.6833 23.0167 35.6921 23.2013 35.6921 23.4741V26.0773H36.8617V23.6147C36.8617 23.2805 36.9057 23.0519 37.0377 22.8759C37.1608 22.7177 37.363 22.6121 37.6093 22.6121C37.838 22.6121 38.0315 22.7001 38.1458 22.8496C38.2689 23.0167 38.2777 23.2013 38.2777 23.474V26.0773H39.4474V23.2981C39.4474 22.8056 39.3682 22.5065 39.2012 22.2691C38.9637 21.9261 38.5152 21.7326 37.9435 21.7326ZM31.9418 25.0923V21.8118H30.2621V22.6386H30.7722V25.145C30.7722 25.4264 30.8161 25.6727 30.9305 25.831C31.0712 26.0245 31.3174 26.13 31.6781 26.13C31.9946 26.13 32.2849 26.0245 32.4521 25.9102L32.4871 25.2418C32.4168 25.2945 32.2586 25.3561 32.153 25.3561C32.0122 25.3561 31.9418 25.277 31.9418 25.0923ZM31.335 21.3017C31.6956 21.3017 31.9682 21.0115 31.9682 20.6509C31.9682 20.2903 31.6868 20 31.3264 20C30.9656 20 30.6754 20.2903 30.6754 20.6509C30.6754 21.0115 30.9746 21.3017 31.335 21.3017ZM28.8285 24.6965V22.6385H29.8135V21.8118H28.8285V20.4661L27.6588 20.7564V21.8118H26.9903V22.6385H27.6588V24.714C27.6588 25.2682 27.7378 25.5759 27.9578 25.8134C28.16 26.0245 28.5118 26.1564 28.9253 26.1564C29.321 26.1564 29.7431 26.042 29.9893 25.875L30.0157 25.0922C29.8135 25.2154 29.5408 25.3209 29.2946 25.3209C28.9339 25.3209 28.8285 25.101 28.8285 24.6965ZM26.7703 23.8873C26.7703 24.6526 26.568 25.3121 26.093 25.7079C25.7324 26.0069 25.2487 26.1565 24.6331 26.1565C24.3956 26.1565 24.1229 26.1301 23.9559 26.0948V27.8274H22.7864V22.6385H22.2761V21.8118H23.4986L23.7272 22.3659C24.0086 21.9613 24.4749 21.7326 25.0378 21.7326C26.2338 21.7326 26.7703 22.5857 26.7703 23.8873ZM25.5829 23.9226C25.5829 23.0519 25.3192 22.5945 24.7298 22.5945C24.4749 22.5945 24.2549 22.6913 24.1229 22.8847C23.991 23.0607 23.9559 23.2893 23.9559 23.6146V25.3297C24.1318 25.3737 24.3253 25.4001 24.5275 25.4001C25.3455 25.4001 25.5829 24.8372 25.5829 23.9226ZM19.9981 26.1564C21.3348 26.1564 22.0735 25.3297 22.0735 23.9489C22.0735 22.5681 21.3348 21.7327 19.9981 21.7327C18.6612 21.7327 17.9224 22.5681 17.9224 23.9489C17.9224 25.3297 18.6612 26.1564 19.9981 26.1564ZM19.9981 22.533C20.5433 22.533 20.8864 22.9112 20.8864 23.9489C20.8864 24.9867 20.5433 25.3561 19.9981 25.3561C19.4527 25.3561 19.1097 24.9867 19.1097 23.9489C19.1097 22.9112 19.4527 22.533 19.9981 22.533ZM15.7894 21.7326C15.2969 21.7326 14.9275 21.8998 14.6901 22.1284V20.0616H13.5204V26.0773H14.6901V23.6323C14.6901 23.3069 14.7253 23.0694 14.866 22.8847C14.9891 22.7265 15.1827 22.6121 15.4641 22.6121C15.7191 22.6121 15.9039 22.7001 16.0181 22.8496C16.1325 23.0079 16.1589 23.1925 16.1589 23.474V26.0773H17.3286V23.2893C17.3286 22.8056 17.2318 22.4362 16.9592 22.146C16.6954 21.8733 16.2908 21.7326 15.7894 21.7326ZM12.9064 24.8109C12.9064 25.7078 12.1589 26.1564 11.1826 26.1564C10.646 26.1564 10.0657 26.0596 9.63471 25.8662L9.70518 24.9867C10.0746 25.2066 10.6724 25.3561 11.1035 25.3561C11.5608 25.3561 11.8246 25.2154 11.8246 24.9339C11.8246 24.1863 9.61713 24.6525 9.61713 23.0782C9.61713 22.2339 10.3383 21.7327 11.376 21.7327C11.7806 21.7327 12.2643 21.803 12.5721 21.9173V22.744C12.2732 22.6208 11.8774 22.5241 11.4553 22.5241C11.0155 22.5241 10.6989 22.6824 10.6989 22.9638C10.6989 23.6498 12.9064 23.263 12.9064 24.8109Z" fill="#FF6914"/>
<path fill-rule="evenodd" clip-rule="evenodd" d="M8.38869 26.1212H6.19682L8.38869 23.9293V26.1212Z" fill="#781FD1"/>
<path fill-rule="evenodd" clip-rule="evenodd" d="M8.38869 21.7326L4.00026 26.1213V23.9242L6.19135 21.7326H8.38869Z" fill="#781FD1"/>
<path fill-rule="evenodd" clip-rule="evenodd" d="M8.38869 21.7326V23.9293L6.19682 26.1213H4.00026L8.38869 21.7326Z" fill="#FF6914"/>
<path fill-rule="evenodd" clip-rule="evenodd" d="M4 21.7326H6.19125L4 23.9241V21.7326Z" fill="#FF6914"/>
</svg>
