<svg width="48" height="48" viewBox="0 0 48 48" fill="none" xmlns="http://www.w3.org/2000/svg">
<rect x="1" y="1" width="46" height="46" rx="23" fill="white" stroke="#F8F8F8" stroke-width="2"/>
<path fill-rule="evenodd" clip-rule="evenodd" d="M36 13.9291C36 12.8642 35.1359 12 34.0709 12H13.9289C12.8642 12 12 12.8642 12 13.9291V34.0711C12 35.1358 12.8642 36 13.9289 36H34.0709C35.1359 36 36 35.1358 36 34.0711V13.9291Z" fill="black"/>
<path fill-rule="evenodd" clip-rule="evenodd" d="M24.0041 24C20.0845 23.5086 12.4998 23.1154 12.2211 18.2826V34.0711C12.2211 35.0129 12.9871 35.7789 13.929 35.7789H34.071C35.013 35.7789 35.7788 35.0129 35.7788 34.0711V29.2504C35.0499 24.8601 27.7965 24.4751 24.0041 24Z" fill="white"/>
<path fill-rule="evenodd" clip-rule="evenodd" d="M24.8231 31.9291L23.9713 30.6348H23.5945V32.6006H23.9754V31.3105L24.8396 32.6006H25.1999V30.6348H24.8231V31.9291ZM26.9858 30.6348L27.8376 31.9291V30.6348H28.2144V32.6006H27.8539L26.9898 31.3105V32.6006H26.609V30.6348H26.9858ZM32.5639 30.6389V32.2812H33.3461V32.6048H32.1624V30.6389H32.5639ZM30.7536 31.7652H30.0368V32.2852H30.8396V32.6089H29.6314V30.6389H29.6356H30.8191V30.9625H30.0368V31.4417H30.7536V31.7652ZM22.3331 32.6006L21.6288 30.6348H21.0798L20.3713 32.6006H20.7973L20.9691 32.1215H21.727L21.9031 32.6006H22.3331ZM21.3502 30.9501L21.6327 31.7978H21.0636L21.3502 30.9501ZM18.7085 31.4417H17.955V30.6389H17.5536V32.6006H17.955V31.7611H18.7085V32.6048H19.1099V30.6389H18.7085V31.4417ZM16.1242 32.2361L16.1938 32.5475C16.0545 32.6048 15.8785 32.6334 15.7064 32.6334C15.1085 32.6334 14.7236 32.2157 14.7236 31.6218C14.7236 31.028 15.0921 30.602 15.7188 30.602C15.8908 30.602 16.0545 30.6266 16.1816 30.6798L16.1079 30.9952C16.0013 30.9543 15.8785 30.9257 15.7556 30.9257C15.3338 30.9257 15.1248 31.2491 15.1248 31.6258C15.1248 31.9863 15.3379 32.31 15.7514 32.31C15.8988 32.31 16.0178 32.2812 16.1242 32.2361Z" fill="black"/>
<path fill-rule="evenodd" clip-rule="evenodd" d="M18.9502 17.6765C18.9502 17.3653 18.7863 17.1727 18.7249 17.1154C18.6471 17.0336 18.5488 16.972 18.4463 16.923C18.3562 16.8819 18.2171 16.8328 18.1023 16.804C17.8811 16.7468 17.3776 16.6811 17.1399 16.6567C17.08 16.6498 17.0094 16.6427 16.9341 16.6351C16.6951 16.6112 16.4095 16.5825 16.2757 16.5419C16.2225 16.5256 16.116 16.4723 16.116 16.3494C16.116 16.2594 16.1651 16.1857 16.2635 16.1202C16.4191 16.026 16.7303 15.9645 17.054 15.9645C17.4388 15.9645 17.7665 16.0505 17.9712 16.1407C18.0411 16.1734 18.1229 16.2185 18.1925 16.2716C18.2662 16.3331 18.3685 16.456 18.4056 16.632H18.7536V15.686H18.3645V15.7965C18.3645 15.8334 18.3277 15.8785 18.258 15.8416C18.0942 15.7474 17.6028 15.551 16.9965 15.551C16.6568 15.551 16.2675 15.6165 15.9399 15.7639C15.6326 15.8991 15.3829 16.1202 15.3829 16.4847C15.3829 16.7778 15.5501 16.9595 15.5795 16.9915C15.583 16.9953 15.5846 16.997 15.5837 16.9965C15.5865 16.999 15.5893 17.0016 15.5921 17.0042C15.6827 17.087 15.8285 17.2202 16.1897 17.2997C16.3535 17.3365 16.714 17.3939 17.0703 17.4308C17.4225 17.4676 17.7706 17.5045 17.9099 17.5373C17.9136 17.5382 17.9175 17.5392 17.9214 17.5402C18.0331 17.5689 18.2088 17.6139 18.2088 17.8157C18.2088 18.0123 18.0413 18.0798 17.9867 18.1019C17.9821 18.1037 17.9784 18.1053 17.9755 18.1065L17.9742 18.1071C17.9333 18.1253 17.7003 18.2294 17.2751 18.2294C16.9597 18.2294 16.5789 18.1353 16.4395 18.086C16.2799 18.0287 16.116 17.9508 15.9563 17.7625C15.9196 17.7174 15.858 17.5863 15.858 17.4594H15.4689V18.5448H15.8989V18.3973C15.8989 18.3808 15.9235 18.3113 15.9932 18.348C16.0832 18.3891 16.3454 18.4914 16.624 18.5488L16.6309 18.5503C16.8521 18.5986 16.9993 18.6307 17.2751 18.6307C17.7317 18.6307 17.9815 18.5576 18.1493 18.5085L18.1516 18.5079C18.3154 18.4628 18.5119 18.3768 18.6717 18.2499C18.7617 18.1802 18.9502 18 18.9502 17.6765ZM33.0062 15.7228V16.0668H32.658C32.5351 16.0668 32.4819 16.0914 32.3877 16.198C32.3428 16.2471 31.3637 17.3653 31.3392 17.3939L31.3269 17.4471V17.9919L31.3352 18.0656C31.3432 18.0942 31.372 18.1188 31.4088 18.131L31.5031 18.1353H31.8594V18.4791H29.9712V18.1353H30.3112L30.4056 18.131C30.4423 18.123 30.4628 18.0942 30.4791 18.0656L30.4834 17.9919V17.4471C30.4834 17.4348 30.4834 17.4267 30.4586 17.398C30.4383 17.3653 29.4715 16.2716 29.4265 16.2225C29.3692 16.1611 29.2751 16.0668 29.1276 16.0668H28.7917V15.7228H30.688V16.0668H30.4586C30.4096 16.0668 30.3728 16.116 30.4179 16.1734L31.0606 16.9434L31.0771 16.9474L31.7405 16.1734C31.7732 16.1365 31.7529 16.0668 31.6832 16.0668H31.4499V15.7228H33.0062ZM26.8425 15.727H28.4642V16.0711H28.116C27.9522 16.0711 27.944 16.1242 27.9399 16.2839L27.9686 18.4833H27.4115L25.2286 16.5337V17.914C25.2286 18.0656 25.2369 18.1353 25.3926 18.1353H25.7815V18.4791H24.1885V18.1353H24.5611C24.6924 18.1353 24.6923 18.0112 24.6922 17.914L24.6922 17.9057V16.2922C24.6922 16.1897 24.6759 16.0668 24.4586 16.0668H24.1557V15.727H25.5154L27.4074 17.4348L27.3911 16.2839C27.3911 16.1365 27.3625 16.0711 27.1986 16.0711H26.8425V15.727ZM21.6616 15.551C21.0512 15.551 20.404 15.7597 20.0354 16.0956C19.7448 16.3617 19.5931 16.7303 19.5931 17.099C19.5931 17.4716 19.7405 17.8362 20.0354 18.1065C20.4328 18.4628 21.0225 18.6511 21.6616 18.6511C22.3043 18.6511 22.9106 18.4628 23.2914 18.1065C23.5782 17.8403 23.7297 17.4594 23.7297 17.099C23.7297 16.7262 23.5863 16.3617 23.2914 16.0956C22.8779 15.7228 22.3412 15.551 21.6616 15.551ZM22.5339 17.9057C22.3168 18.123 22.0014 18.2416 21.6615 18.2416C21.3255 18.2416 21.0062 18.123 20.7891 17.9057C20.5843 17.697 20.4697 17.4103 20.4697 17.095C20.4697 16.7836 20.5802 16.4928 20.7891 16.2839C21.0062 16.0711 21.3255 15.9522 21.6615 15.9522C21.9972 15.9522 22.3168 16.0711 22.5339 16.2839C22.7468 16.4928 22.8532 16.7796 22.8532 17.095C22.8574 17.4225 22.7549 17.6887 22.5339 17.9057Z" fill="white"/>
</svg>
