<svg width="48" height="48" viewBox="0 0 48 48" fill="none" xmlns="http://www.w3.org/2000/svg">
<rect x="1" y="1" width="46" height="46" rx="23" fill="white" stroke="#F8F8F8" stroke-width="2"/>
<path fill-rule="evenodd" clip-rule="evenodd" d="M32.3256 22.6235C32.0404 22.9023 31.8496 23.2668 31.8047 23.6721C31.799 23.7271 31.7961 23.7832 31.7953 23.8403C31.7953 23.843 31.7951 23.8457 31.7948 23.8484V23.8485C31.7945 23.8513 31.7943 23.8541 31.7943 23.8571L31.7945 23.8627L31.7948 23.8653L31.7948 23.8654C31.795 23.8681 31.7953 23.8708 31.7953 23.8736C31.7961 23.9308 31.799 23.9869 31.8047 24.0419C31.8496 24.4471 32.0404 24.8122 32.3256 25.0906C32.3418 25.1066 32.3587 25.1226 32.3756 25.1379C32.3922 25.153 32.4096 25.1674 32.4271 25.1819L32.4271 25.1819L32.4279 25.1826C32.6924 25.4001 33.0141 25.5468 33.3444 25.6071L33.3482 25.6076C33.3528 25.6083 33.3575 25.609 33.3622 25.6101C33.41 25.6181 33.4576 25.625 33.5051 25.6294C33.5655 25.6346 33.6265 25.6382 33.6883 25.6382C33.6961 25.6382 33.7042 25.6377 33.7121 25.6372L33.7275 25.6364L33.7314 25.6363C33.7815 25.6353 33.8335 25.6309 33.8857 25.6261C34.2618 25.585 34.624 25.4292 34.9215 25.1737L35.1195 25.0031L35.9743 25.8859L35.7528 26.0782C35.2339 26.5277 34.4439 26.8078 33.6883 26.8078C31.6941 26.8078 30.5035 25.3078 30.5035 23.8574V23.8571V23.8567C30.5035 22.4058 31.6941 20.906 33.6883 20.906C34.4439 20.906 35.2339 21.1861 35.7528 21.6358L35.9743 21.828L35.1195 22.7109L34.9215 22.5403C34.624 22.285 34.2618 22.129 33.8857 22.0877C33.8335 22.0831 33.7815 22.0789 33.7314 22.0779C33.7257 22.0778 33.7198 22.0774 33.7139 22.0771C33.7054 22.0766 33.6967 22.0762 33.6883 22.0762C33.6265 22.0762 33.5655 22.0791 33.5051 22.0848C33.4576 22.0895 33.41 22.0958 33.3622 22.104C33.3562 22.1052 33.3501 22.1059 33.3444 22.1064C33.0141 22.1672 32.6924 22.3134 32.4279 22.5316L32.4269 22.5325C32.4095 22.5469 32.3922 22.5613 32.3756 22.5761C32.3587 22.5913 32.3418 22.6075 32.3256 22.6235ZM40 20.988V22.157H37.4559V23.2457H40V24.4147H37.4559V25.5569H40V26.7268H36.1501V20.988H40ZM28.4516 20.988L30.9195 26.7268H29.5548C29.5548 26.7268 29.1618 25.772 29.0565 25.5196H26.875C26.7705 25.772 26.3773 26.7268 26.3773 26.7268H25.0114L25.0556 26.6251L25.639 25.2684L27.4799 20.988H28.4516ZM27.966 22.86C28.1992 23.4302 28.4314 23.9989 28.5909 24.3912H27.3408C27.5004 23.9989 27.7321 23.4302 27.966 22.86ZM23.7355 24.9601H23.1917V26.7268H21.9435V20.988H23.7355C25.1208 20.988 25.8681 22.0132 25.8681 22.9768C25.8681 23.9388 25.1208 24.9601 23.7355 24.9601ZM23.592 22.1164C24.6198 22.1164 24.6198 22.7647 24.6198 22.9768C24.6198 23.1885 24.6198 23.8315 23.592 23.8315H23.1917V22.1164H23.592ZM21.496 25.042C21.496 26.0647 20.5776 26.7791 19.2626 26.7791C17.9489 26.7791 17.1016 26.107 16.9977 24.9795L16.9938 24.9205H18.3421C18.3812 25.2682 18.5255 25.6228 19.3018 25.6228C19.777 25.6228 20.1482 25.3922 20.1482 25.096C20.1482 24.8835 19.8994 24.6918 19.4086 24.5273L18.6364 24.2682C17.5975 23.9212 17.0924 23.3671 17.0924 22.5732C17.0924 21.5742 17.998 20.8494 19.2465 20.8494C20.7625 20.8494 21.4748 21.7177 21.4748 21.7177C21.182 22.1089 20.931 22.6542 20.931 22.6542C20.4786 22.2836 19.9672 22.0057 19.2383 22.0057C18.5171 22.0057 18.4394 22.3889 18.4394 22.5523C18.4394 22.6596 18.4394 22.8819 19.1204 23.0998L19.8843 23.3454C20.9544 23.6862 21.496 24.2572 21.496 25.042Z" fill="#413D3F"/>
<path fill-rule="evenodd" clip-rule="evenodd" d="M11.7582 20C9.68298 20 8.00006 21.6825 8.00006 23.7576C8.00006 25.8333 9.68298 27.5156 11.7582 27.5156C13.8332 27.5156 15.5156 25.8333 15.5156 23.7576C15.5156 21.6825 13.8332 20 11.7582 20ZM11.7582 25.9956C10.5857 25.9956 9.63498 25.0522 9.63498 23.8889C9.63498 23.045 10.1353 22.3171 10.8575 21.9811V21.5263C10.8575 21.0327 11.2606 20.6327 11.7582 20.6327C12.2556 20.6327 12.6581 21.0327 12.6581 21.5263L12.6422 21.9739C13.3731 22.3068 13.8812 23.0388 13.8812 23.8889C13.8812 25.0522 12.9306 25.9956 11.7582 25.9956ZM10.8576 23.8619C10.8576 23.3685 11.261 22.9688 11.7582 22.9688C12.2548 22.9688 12.658 23.3685 12.658 23.8619C12.658 24.3552 12.2548 24.7551 11.7582 24.7551C11.261 24.7551 10.8576 24.3552 10.8576 23.8619Z" fill="#F7DE05"/>
</svg>
