<svg width="49" height="49" viewBox="0 0 49 49" fill="none" xmlns="http://www.w3.org/2000/svg">
<circle cx="24.6666" cy="24.6667" r="23" fill="white" stroke="#F8F8F8" stroke-width="2"/>
<path d="M42.6668 27.0686V25.7159H40.1283L41.1895 24.7568C42.1527 23.8797 42.6259 23.3963 42.6259 22.4864C42.6259 21.3221 41.8425 20.6666 40.3972 20.6666H38.4717L37.9004 22.019H40.3081C40.8712 22.019 41.0833 22.2402 41.0833 22.5845C41.0833 22.9699 40.7241 23.2485 40.161 23.7816L37.9817 25.8636V27.0686H42.6668Z" fill="#FF0930"/>
<path d="M7.88831 25.7569L7.33337 27.0686H9.89634L10.4513 25.7569H7.88831Z" fill="#FF0930"/>
<path d="M21.2496 25.8226C20.5234 25.8226 19.9926 25.2734 19.9926 24.5438C19.9926 23.8141 20.5234 23.2732 21.2496 23.2732C21.9758 23.2732 22.5066 23.8141 22.5066 24.5438C22.5066 25.2734 21.9761 25.8226 21.2496 25.8226ZM21.2496 21.9126C19.7233 21.9126 18.5236 23.0601 18.5236 24.5438C18.5236 26.0274 19.7233 27.1835 21.2496 27.1835C22.7759 27.1835 23.9756 26.027 23.9756 24.5438C23.9756 23.0605 22.7759 21.9145 21.2496 21.9145" fill="#09043E"/>
<path d="M15.2589 25.8389C14.5406 25.8389 14.0101 25.2898 14.0101 24.5437C14.0101 23.7976 14.5402 23.2574 15.2589 23.2574C15.9851 23.2574 16.5241 23.7983 16.5241 24.5444C16.5241 25.2905 15.9769 25.8397 15.2589 25.8397V25.8389ZM15.5932 21.9133C14.8585 21.9133 14.3281 22.2573 14.0424 22.6673V22.0264H12.5897V28.6666H14.0755V26.544C14.4098 26.9372 14.9818 27.1588 15.6263 27.1588C16.9895 27.1588 17.9935 26.0023 17.9935 24.5519C17.9946 23.0519 16.9483 21.9144 15.5936 21.9144" fill="#09043E"/>
<path d="M35.2229 27.0685L37.3531 22.0272H35.6393L34.529 25.0518L33.4437 22.0272H31.6968L33.7865 27.0685H35.2229Z" fill="#09043E"/>
<path d="M26.0326 27.0686V24.7239C26.0326 23.8797 26.5222 23.381 27.5184 23.381H27.7714V22.0264H27.641C26.8327 22.0264 26.3513 22.2559 26.0003 22.7971V22.0264H24.5472V27.0686H26.0326Z" fill="#09043E"/>
<path d="M12.0515 25.6749V25.5603C12.0515 24.5027 11.3739 24.0357 10.1905 23.9126L9.15419 23.8059C8.90123 23.7816 8.81134 23.7078 8.81134 23.5682C8.81134 23.419 8.91758 23.3388 9.14564 23.3388H11.0634L11.6184 22.0264H9.21065C8.077 22.0264 7.33411 22.6666 7.33411 23.6093C7.33411 24.552 7.83221 25.0519 9.18687 25.1914L10.1419 25.2899C10.3948 25.3145 10.5337 25.4126 10.5337 25.6342V25.6749H12.0515Z" fill="#09043E"/>
<path d="M31.2726 27.0686V25.7159H30.6608C30.0487 25.7159 29.7693 25.4372 29.7693 24.8306V23.3798H30.8956L31.4683 22.0264H29.7693V20.6666H28.2836V25.0601C28.2836 26.3799 29.0179 27.0686 30.536 27.0686H31.2726Z" fill="#09043E"/>
</svg>
