<svg width="49" height="49" viewBox="0 0 49 49" fill="none" xmlns="http://www.w3.org/2000/svg">
<circle cx="24.6667" cy="24.6667" r="23" fill="white" stroke="#F8F8F8" stroke-width="2"/>
<path d="M42.3672 21.8142V20.6666H38.2301L37.6644 22.0192H40.5171L38.917 23.4696V24.4285H40.3471C40.8967 24.4285 41.1958 24.6334 41.1958 25.076C41.1958 25.4936 40.8884 25.7153 40.331 25.7153H37.7853V27.0674H40.5096C41.867 27.0674 42.6666 26.3215 42.6666 25.043C42.6666 24.0268 41.9396 23.3386 40.8248 23.273L42.3672 21.8142Z" fill="#FF0930"/>
<path d="M9.87036 27.0674L10.4195 25.7559H7.8825L7.33331 27.0674H9.87036Z" fill="#FF0930"/>
<path d="M21.109 21.9125C19.5981 21.9125 18.4106 23.0596 18.4106 24.5431C18.4106 26.0265 19.5981 27.182 21.109 27.182C22.62 27.182 23.8078 26.0265 23.8078 24.5431C23.8078 23.0596 22.62 21.9125 21.109 21.9125ZM21.109 25.8223C20.3903 25.8223 19.865 25.2734 19.865 24.5438C19.865 23.8143 20.3891 23.2737 21.109 23.2737C21.8289 23.2737 22.353 23.8139 22.353 24.5431C22.353 25.2723 21.8289 25.8216 21.1087 25.8216" fill="#09043E"/>
<path d="M15.5097 21.9125C14.7827 21.9125 14.2575 22.2568 13.9749 22.6664V22.0271H12.5366V28.6666H14.0071V26.5428C14.3384 26.9361 14.9055 27.1574 15.5419 27.1574C16.8896 27.1574 17.8851 26.0019 17.8851 24.5514C17.8851 23.0516 16.8507 21.9125 15.5094 21.9125H15.5097ZM15.1781 25.8383C14.4668 25.8383 13.9427 25.289 13.9427 24.5431C13.9427 23.7972 14.4668 23.2566 15.1781 23.2566C15.8972 23.2566 16.4307 23.7976 16.4307 24.5431C16.4307 25.2886 15.8893 25.8383 15.1781 25.8383Z" fill="#09043E"/>
<path d="M34.9417 27.0674L37.0509 22.0271H35.3539L34.2551 25.0514L33.1803 22.0271H31.4515L33.5199 27.0674H34.9417Z" fill="#09043E"/>
<path d="M25.844 27.0674V24.7234C25.844 23.8796 26.3307 23.3796 27.3145 23.3796H27.5649V22.0271H27.4358C26.6358 22.0271 26.1592 22.2549 25.8118 22.7973V22.0271H24.3746V27.0674H25.844Z" fill="#09043E"/>
<path d="M12.0035 25.6743V25.5604C12.0035 24.5033 11.3326 24.0363 10.1612 23.9134L9.13511 23.8056C8.88429 23.7813 8.79557 23.7072 8.79557 23.5679C8.79557 23.4206 8.90076 23.3402 9.12688 23.3402H11.0256L11.5752 22.0271H9.19164C8.06856 22.0271 7.33331 22.6664 7.33331 23.6089C7.33331 24.5515 7.82597 25.0514 9.16768 25.1907L10.1114 25.2883C10.3619 25.3129 10.4993 25.4112 10.4993 25.6326V25.6735L12.0035 25.6743Z" fill="#09043E"/>
<path d="M31.0311 27.0674V25.7153H30.425C29.8193 25.7153 29.5445 25.4363 29.5445 24.8301V23.3796H30.6594L31.2254 22.0271H29.5445V20.667H28.074V25.0605C28.074 26.38 28.801 27.0686 30.3041 27.0686L31.0311 27.0674Z" fill="#09043E"/>
</svg>
