<svg width="49" height="49" viewBox="0 0 49 49" fill="none" xmlns="http://www.w3.org/2000/svg">
<circle cx="24.6666" cy="24.6667" r="23" fill="white" stroke="#F8F8F8" stroke-width="2"/>
<path d="M7.98653 25.938L7.33337 27.4681H10.35L11.0031 25.938H7.98653Z" fill="#FF0930"/>
<path d="M23.7125 26.0146C22.8578 26.0146 22.2331 25.374 22.2331 24.5228C22.2331 23.6716 22.8578 23.0406 23.7125 23.0406C24.5672 23.0406 25.192 23.672 25.192 24.5228C25.192 25.3736 24.5677 26.0146 23.7125 26.0146ZM23.7125 21.4535C21.9161 21.4535 20.504 22.7921 20.504 24.5228C20.504 26.2535 21.9161 27.6022 23.7125 27.6022C25.5089 27.6022 26.9215 26.2531 26.9215 24.5228C26.9215 22.7925 25.5094 21.4535 23.7125 21.4535Z" fill="#09043E"/>
<path d="M16.6612 26.0338C15.8161 26.0338 15.1918 25.3932 15.1918 24.5228C15.1918 23.6525 15.8161 23.0214 16.6612 23.0214C17.5163 23.0214 18.1502 23.6529 18.1502 24.5228C18.1502 25.3927 17.5089 26.0338 16.6612 26.0338ZM17.0547 21.4535C16.1899 21.4535 15.5652 21.8552 15.2294 22.333V21.5871H13.52V29.3333H15.2688V26.8563C15.6622 27.3154 16.3351 27.5734 17.094 27.5734C18.6985 27.5734 19.8802 26.2244 19.8802 24.5324C19.8802 22.7825 18.6504 21.4535 17.056 21.4535" fill="#09043E"/>
<path d="M40.6491 21.5871L39.3428 25.116L38.0649 21.5871H36.0093L38.4684 27.4681H40.159L42.6667 21.5871H40.6491Z" fill="#09043E"/>
<path d="M29.3422 27.4681V24.7339C29.3422 23.7487 29.9184 23.1673 31.0909 23.1673H31.3886V21.5871H31.2365C30.2852 21.5871 29.7186 21.8552 29.3055 22.4862V21.5871H27.5939V27.4681H29.3422Z" fill="#09043E"/>
<path d="M12.8861 25.8427V25.7087C12.8861 24.4754 12.0886 23.9301 10.6958 23.7865L9.47558 23.6625C9.17786 23.6338 9.07119 23.5476 9.07119 23.3848C9.07119 23.2108 9.19622 23.1172 9.46465 23.1172H11.7223L12.3754 21.5871H9.54291C8.20774 21.5871 7.33337 22.333 7.33337 23.4327C7.33337 24.5324 7.91964 25.116 9.51405 25.2783L10.6381 25.3932C10.9358 25.4219 11.0993 25.5368 11.0993 25.7949V25.8427H12.8861Z" fill="#09043E"/>
<path d="M35.5095 27.4681V25.8906H34.789C34.0686 25.8906 33.7398 25.5651 33.7398 24.8575V23.1672H35.0653L35.7395 21.5871H33.7415V20H31.9928V25.1255C31.9928 26.6648 32.8571 27.4681 34.6439 27.4681H35.5095Z" fill="#09043E"/>
</svg>
