<svg width="48" height="48" viewBox="0 0 48 48" fill="none" xmlns="http://www.w3.org/2000/svg">
<rect x="1" y="1" width="46" height="46" rx="23" fill="white" stroke="#F8F8F8" stroke-width="2"/>
<path fill-rule="evenodd" clip-rule="evenodd" d="M39.7076 19.379C39.7076 20.7987 38.637 21.9164 37.3377 22.0815L39.9977 25.7956H37.6725L35.18 22.0815V25.7979H33.1708V16.5257H36.4321C38.4554 16.5257 39.7076 17.5373 39.7076 19.379ZM36.4298 18.2919H35.1776V20.5888H36.4298C37.1844 20.5888 37.6678 20.1054 37.6678 19.3649C37.6678 18.6834 37.1844 18.2919 36.4298 18.2919Z" fill="#241C32"/>
<path d="M32.6403 19.4687H28.0207C27.9594 19.4687 27.9311 19.438 27.9145 19.3791L26.4643 15L25.0447 19.3791C25.0305 19.4404 24.9999 19.4687 24.9386 19.4687H20.319L24.0496 22.1876C24.0944 22.2183 24.1392 22.2183 24.1863 22.1876C25.2121 21.5533 26.1342 21.1005 28.0513 20.6171C26.2992 21.9754 24.5778 23.5153 23.1582 25.298C23.1134 25.3593 23.0969 25.3735 23.0686 25.4631L22.6606 26.7153L26.3912 24.0128C26.4525 23.968 26.4808 23.968 26.5421 24.0128L30.2727 26.7153L28.8531 22.3055C28.8389 22.2442 28.8531 22.2159 28.8979 22.1853L32.6403 19.4687Z" fill="url(#paint0_linear_920_656)"/>
<path d="M14.9896 16.5257V18.3509H17.027V25.7956H19.0668V18.3509H21.1042V16.5257H14.9896Z" fill="#241C32"/>
<path d="M11.2142 19.9379C10.6105 19.6667 10.3841 19.3649 10.3841 18.9711C10.3841 18.5183 10.7614 18.141 11.3651 18.1552C11.8933 18.1693 12.3013 18.457 12.589 19.1362L14.3246 18.3651C13.8411 17.127 12.8601 16.4031 11.2755 16.4031C9.59883 16.4031 8.36081 17.5067 8.36081 18.9852C8.36081 19.9969 8.85838 20.7963 10.0374 21.3858L11.3368 22.0343C12.0607 22.3975 12.4097 22.6687 12.4097 23.1969C12.4097 23.7699 11.9428 24.1779 11.3368 24.1779C10.6883 24.1779 10.0988 23.8147 9.82757 23.0012L8.01416 23.5317C8.43627 25.0575 9.6908 25.9488 11.3203 25.9488C13.0865 25.9488 14.4448 24.8169 14.4448 23.1851C14.4448 21.9329 13.7657 21.1005 12.4663 20.5133L11.2142 19.9379Z" fill="#241C32"/>
<path d="M35.9865 29.67H36.8024V32.6224H38.3163V33.377H35.9865V29.67Z" fill="#241C32"/>
<path d="M32.3738 29.67H34.8923V30.4246H33.1897V31.1155H34.798V31.8701H33.1897V32.6247H34.9866V33.3793H32.3738V29.67Z" fill="#241C32"/>
<path d="M27.7612 29.67H28.8696L30.4448 32.2451H30.4542V29.67H31.2749V33.377H30.2066L28.5866 30.7382H28.5771V33.377H27.7612V29.67Z" fill="#241C32"/>
<path d="M23.1794 29.67H24.2901L25.8653 32.2451H25.8747V29.67H26.6907V33.377H25.6224L24.0047 30.7382H23.9953V33.377H23.1794V29.67Z" fill="#241C32"/>
<path fill-rule="evenodd" clip-rule="evenodd" d="M20.8802 29.67H20.2058L18.6022 33.377H19.503L19.812 32.5917H21.2528L21.5711 33.377H22.4932L20.8802 29.67ZM20.069 31.9031L20.5194 30.75L20.9745 31.9031H20.069Z" fill="#241C32"/>
<path d="M14.6971 29.67H15.5131V31.0519H17.1001V29.67H17.916V33.377H17.1001V31.7758H15.5131V33.377H14.6971V29.67Z" fill="#241C32"/>
<path d="M13.2186 30.6345C13.0559 30.4411 12.82 30.3303 12.5158 30.3303C11.898 30.3303 11.4429 30.8326 11.4429 31.5235C11.4429 32.2144 11.898 32.7167 12.4899 32.7167C12.82 32.7167 13.0865 32.5705 13.2539 32.3182L13.9354 32.8252C13.6265 33.2662 13.103 33.469 12.596 33.469C11.4382 33.469 10.5963 32.7096 10.5963 31.5211C10.5963 30.3326 11.4382 29.5733 12.596 29.5733C13.0087 29.5733 13.5322 29.7148 13.8482 30.118L13.2186 30.6345Z" fill="#241C32"/>
<defs>
<linearGradient id="paint0_linear_920_656" x1="27.2429" y1="30.1745" x2="34.467" y2="20.6513" gradientUnits="userSpaceOnUse">
<stop offset="0.28" stop-color="#FA1660"/>
<stop offset="0.78" stop-color="#FF7D17"/>
</linearGradient>
</defs>
</svg>
