<svg width="48" height="48" viewBox="0 0 48 48" fill="none" xmlns="http://www.w3.org/2000/svg">
<rect x="1" y="1" width="46" height="46" rx="23" fill="white" stroke="#F8F8F8" stroke-width="2"/>
<path fill-rule="evenodd" clip-rule="evenodd" d="M32.5335 24.8926H33.7779V19.0424H32.5335V24.8926ZM23.7741 23.6321V19.0423H22.5294V23.3185C22.5294 23.6115 22.3332 23.7863 22.0042 23.7863H21.6406C21.3118 23.7863 21.1155 23.6115 21.1155 23.3185V19.0423H19.8711V23.6321C19.8711 24.2839 20.4511 24.9436 21.5602 24.9436H22.1655C23.2215 24.9436 23.7741 24.2837 23.7741 23.6321ZM13.8331 20.1992H15.213V24.8926H16.4577V20.1992H17.8359V19.0424H13.8331V20.1992ZM38.7558 20.6247C38.7558 20.3316 38.5594 20.157 38.2306 20.157H37.867C37.538 20.157 37.3418 20.3318 37.3418 20.6247V23.3188C37.3418 23.6118 37.538 23.7868 37.867 23.7868H38.2306C38.5594 23.7868 38.7558 23.6118 38.7558 23.3188V20.6247ZM40 20.3112V23.6321C40 24.2837 39.4474 24.9436 38.3914 24.9436H37.7864C36.6775 24.9436 36.0973 24.2839 36.0973 23.6321V20.3112C36.0973 19.6595 36.6775 19 37.7864 19H38.3914C39.4474 19 40 19.6595 40 20.3112ZM10.3073 21.5069C10.2422 21.4766 10.179 21.4473 10.1192 21.4186L10.0157 21.3699C9.60173 21.1752 9.24424 21.007 9.24424 20.7203V20.646C9.24424 20.3529 9.44063 20.1783 9.76941 20.1783H10.0905C10.4191 20.1783 10.6155 20.3529 10.6155 20.646V20.9441H11.8601V20.3326C11.8601 19.681 11.3076 19.0215 10.2515 19.0215H9.528C8.52486 19.0215 8 19.681 8 20.3326V20.8746C8 21.8321 9.0331 22.3003 9.78745 22.6421L9.87075 22.6799C9.92 22.7024 9.97129 22.7238 10.0223 22.7455C10.309 22.8668 10.6058 22.9919 10.6058 23.2759V23.3401C10.6058 23.8079 10.2243 23.8079 10.0805 23.8079H9.77051C9.44173 23.8079 9.24533 23.6331 9.24533 23.3401V23.1876H8.00094V23.6534C8.00094 24.305 8.58102 24.9647 9.69004 24.9647H10.288C11.344 24.9647 11.8966 24.305 11.8966 23.6534V23.0095C11.8966 22.2447 10.9809 21.8195 10.3073 21.5069ZM28.8765 20.6756C28.8765 20.3826 28.6802 20.2077 28.3514 20.2077H27.4315V23.7356H28.3514C28.6802 23.7356 28.8765 23.5608 28.8765 23.2678V20.6756ZM30.1208 23.5813C30.1208 24.2329 29.5682 24.8926 28.5122 24.8926H26.1871V19.0508H28.5122C29.5682 19.0508 30.1208 19.7104 30.1208 20.362V23.5813ZM37.486 27.247H37.1217V28.9856H38.1192V28.6209H37.486V27.247ZM34.3671 28.3025L34.1936 27.7446H34.1686L33.9947 28.3025H34.3671ZM34.3622 27.2447L34.9093 28.9856H34.5813L34.4753 28.6443L33.8869 28.6453L33.7802 28.9856H33.4562L34.0035 27.2447H34.3622ZM30.749 27.9396C30.59 27.8755 30.4525 27.8211 30.4525 27.7502V27.706C30.4525 27.6258 30.5071 27.5771 30.6013 27.5771H30.7736C30.8695 27.5771 30.9267 27.6271 30.9267 27.7108V27.8511H31.2886V27.6301C31.2886 27.4338 31.1252 27.2348 30.8136 27.2348H30.5399C30.2442 27.2348 30.09 27.4312 30.09 27.6256V27.7816C30.09 28.0873 30.4223 28.2162 30.6648 28.3099C30.8122 28.3672 30.9404 28.4166 30.9404 28.4822V28.5242C30.9404 28.6445 30.8274 28.658 30.7795 28.658H30.603C30.5258 28.658 30.4431 28.6225 30.4431 28.5215V28.4547H30.0808V28.5998C30.0808 28.7986 30.2529 28.9998 30.5821 28.9998V29H30.822C31.1371 29 31.3023 28.8003 31.3023 28.6024V28.4215C31.3023 28.1612 30.9955 28.0388 30.749 27.9396ZM27.4762 27.7228C27.4762 27.6405 27.4188 27.5913 27.3216 27.5913H27.0077V28.0602H27.3256V28.0604C27.3991 28.0604 27.4762 28.0257 27.4762 27.9292V27.7228ZM27.5923 28.3606L27.8828 28.9858H27.5015V28.9856L27.2565 28.402H27.0078V28.9856H26.6435V27.247H27.3633C27.6751 27.247 27.8384 27.4469 27.8384 27.6446V28.0099C27.8384 28.1563 27.747 28.2873 27.5923 28.3606ZM23.6635 28.2776H24.2449V27.9354H23.6635V27.589H24.3272V27.247H23.2987V28.9856H24.35V28.643H23.6635V28.2776ZM20.36 28.4709L19.9994 27.2493H19.6331L20.1804 28.9856H20.5396L21.0863 27.2493H20.7224L20.36 28.4709ZM17.0536 28.9856H17.4596V27.247H17.0536V28.9856ZM14.424 28.247L13.8932 27.247H13.5325V28.9856H13.8974V28.027L14.4314 28.9856H14.786V27.247H14.424V28.247ZM10.8747 27.247H11.2375V28.5998C11.2375 28.7986 11.0755 28.9998 10.7664 28.9998H10.5078C10.1851 28.9998 10.0157 28.7986 10.0157 28.5998V27.247H10.3805V28.5214C10.3805 28.6222 10.4573 28.6579 10.5288 28.6579H10.7242C10.7972 28.6579 10.8747 28.6222 10.8747 28.5214V27.247Z" fill="black"/>
</svg>
