<svg width="48" height="48" viewBox="0 0 48 48" fill="none" xmlns="http://www.w3.org/2000/svg">
<rect x="1" y="1" width="46" height="46" rx="23" fill="white" stroke="#F8F8F8" stroke-width="2"/>
<path fill-rule="evenodd" clip-rule="evenodd" d="M25.9688 20L24.3959 21.598V27.8174C24.466 27.8888 24.5054 27.9288 24.5755 28H27.6855C27.7558 27.9288 27.7951 27.8888 27.8653 27.8174V26.822H31.2988C31.3689 26.7508 31.4083 26.7107 31.4784 26.6393V24.1641C31.4083 24.0929 31.3689 24.0528 31.2988 23.9816H27.8653V23.1962H31.2988C31.3689 23.125 31.4083 23.0849 31.4784 23.0137V20.1827C31.4083 20.1115 31.3689 20.0714 31.2988 20H25.9688ZM39.8204 20H36.7106H36.7104C36.6402 20.0714 36.6008 20.1115 36.5307 20.1827V23.9816H35.7393V20.1827C35.669 20.1115 35.6298 20.0714 35.5595 20H32.4496C32.3795 20.0714 32.3399 20.1115 32.2698 20.1827V23.9816L34.4003 26.146V27.8174C34.4704 27.8888 34.5098 27.9288 34.5801 28H37.69C37.7602 27.9288 37.7995 27.8888 37.8696 27.8174V26.1463L40 23.9816V20.1827C39.9299 20.1115 39.8905 20.0714 39.8204 20ZM20.3148 20C20.2447 20.0714 20.2052 20.1115 20.1351 20.1827V23.9816H19.3437V20.1827C19.2734 20.1115 19.234 20.0714 19.1639 20H16.054C15.9838 20.0714 15.9445 20.1115 15.8742 20.1827V23.9816L18.0047 26.146V27.8174C18.075 27.8888 18.1142 27.9288 18.1845 28H21.2943C21.3644 27.9288 21.4039 27.8888 21.4742 27.8174V26.1463L23.6045 23.9816V20.1827C23.5341 20.1115 23.4949 20.0714 23.4246 20H20.3148ZM11.5413 23.9816V24.7669H8.17976C8.10949 24.8383 8.07027 24.8781 8 24.9495V27.8174C8.07027 27.8888 8.10949 27.9288 8.17976 28H13.5098L15.0828 26.402V24.1641C15.0125 24.0929 14.9732 24.0528 14.9031 23.9816H11.5413ZM14.9031 20C14.9732 20.0714 15.0125 20.1115 15.0828 20.1827V23.0137C15.0125 23.0849 14.9732 23.125 14.9031 23.1962H11.5413V23.9816H8.17992C8.10949 23.9108 8.07027 23.8707 8.00016 23.7995V21.598L9.57318 20H14.9031Z" fill="black"/>
</svg>
