<svg width="48" height="48" viewBox="0 0 48 48" fill="none" xmlns="http://www.w3.org/2000/svg">
<rect x="1" y="1" width="46" height="46" rx="23" fill="white" stroke="#F8F8F8" stroke-width="2"/>
<path fill-rule="evenodd" clip-rule="evenodd" d="M36 24C36 30.6251 30.6309 35.9968 24.0057 36C17.3806 36.0032 12.0063 30.6368 12 24.0114C11.9935 17.3863 17.3575 12.0096 23.9828 12C30.6079 11.9905 35.9872 17.3519 36 23.9769" fill="#410E41"/>
<path fill-rule="evenodd" clip-rule="evenodd" d="M27.1312 20.6467L26.6667 21.131C26.6576 23.2287 26.6726 25.3263 26.6589 27.4236L28.1493 27.4286L28.5944 26.9766L27.1275 26.9587C27.1352 24.8709 27.1276 22.7346 27.1312 20.6467ZM24.7159 23.1341C24.8066 23.021 24.9036 22.9115 25.0061 22.8089C24.7335 22.486 24.3333 22.2516 23.9042 22.1976C23.8233 22.1843 23.7424 22.177 23.6624 22.1758C23.1026 22.1663 22.5753 22.4483 22.1926 22.9753C22.899 22.489 24.0206 22.6295 24.5326 23.3169C24.4324 23.4172 24.3341 23.5189 24.2367 23.6223C24.7069 23.6293 25.1769 23.6226 25.647 23.6266C25.7172 23.62 25.8019 23.6373 25.857 23.5836C26.0104 23.452 26.1438 23.2752 26.2839 23.1306C25.7615 23.1438 25.239 23.1355 24.7159 23.1341ZM31.3419 26.9749C31.3378 25.8833 31.3419 24.7661 31.3395 23.674L29.9207 24.5178L28.6087 23.6887L28.6019 24.5276L29.4686 25.0953C29.9359 24.7861 30.3979 24.4684 30.8732 24.1704C30.8722 25.2575 30.873 26.3447 30.8726 27.4323C31.3578 27.4216 31.8467 27.4518 32.3301 27.418C32.4933 27.2824 32.7729 26.9772 32.7729 26.9772L31.3419 26.9749ZM17.203 26.9658C17.2058 25.3567 17.2044 23.7104 17.2039 22.1013C16.6301 22.1049 16.0575 22.1013 15.4835 22.1029L15.4816 20.6866L15.0147 21.2455C15.0147 21.2455 15.0167 22.1736 15.0159 22.5961C15.5881 22.5953 16.1599 22.5955 16.7315 22.5958C16.7298 24.2072 16.7355 25.8183 16.7287 27.43C17.2453 27.4349 17.7619 27.4301 18.2781 27.4329C18.4369 27.2823 18.5919 27.1278 18.7486 26.9756C18.2338 26.9718 17.7178 26.9875 17.203 26.9658ZM21.7782 26.4421C21.0996 25.9723 20.6227 25.2364 20.4807 24.4367C20.3182 23.571 20.5519 22.6495 21.1019 21.9524C20.7109 22.248 20.421 22.6601 20.2189 23.0973C19.8889 23.8361 19.8684 24.7001 20.1593 25.4543C20.4689 26.2586 21.1275 26.9303 21.9439 27.2569C22.4919 27.4918 23.1041 27.5341 23.693 27.4641C24.469 27.3496 25.205 26.9506 25.6926 26.3476C25.2329 26.704 24.6739 26.9361 24.0904 27.0075C23.2839 27.1113 22.4364 26.9107 21.7782 26.4421ZM19.9682 22.5981C19.5622 22.591 19.1562 22.602 18.7501 22.5913L18.7493 22.1027V22.1026C19.3124 22.103 19.875 22.1018 20.4381 22.1035C20.2819 22.257 20.1293 22.4495 19.9682 22.5981Z" fill="#AB3331"/>
<path fill-rule="evenodd" clip-rule="evenodd" d="M29.9206 22.8331L27.1311 20.6468L27.1274 26.9586L28.5945 26.9766L28.6088 23.6888L29.9206 24.5177L31.3396 23.674C31.3396 23.674 31.3277 27.022 31.3419 26.9749L32.7728 26.9772L32.7825 20.6008L29.9206 22.8331ZM26.0553 21.7117C25.8637 21.5177 25.6593 21.3337 25.4265 21.1892C24.9288 20.8663 24.3382 20.6965 23.7437 20.6828C23.387 20.6746 23.029 20.7226 22.6886 20.8274C22.06 21.0157 21.5065 21.4094 21.0999 21.9137C20.5503 22.6163 20.3165 23.5451 20.479 24.4176C20.6208 25.2232 21.0974 25.9646 21.7757 26.4383C22.4334 26.9105 23.2806 27.1123 24.0868 27.0079C24.67 26.9359 25.2288 26.702 25.6882 26.3429C25.8588 26.2066 26.0123 26.0522 26.1574 25.8908L25.0523 24.8529C24.7257 25.2622 24.2186 25.5583 23.6773 25.5305C22.833 25.5762 22.0485 24.8782 21.9634 24.0599C21.911 23.6691 22.0083 23.2616 22.2317 22.9342C22.5906 22.4003 23.269 22.0848 23.9162 22.1925C24.3453 22.2469 24.7336 22.4836 25.006 22.8089L24.7159 23.1342C25.2386 23.1356 25.7617 23.144 26.2839 23.1306C26.3694 23.0859 26.4 22.9874 26.394 22.8976C26.3933 22.3869 26.3956 21.8759 26.3923 21.3651L26.0553 21.7117ZM20.438 22.1037L18.7493 22.1028L18.7476 26.9757L17.203 26.9657L17.2039 22.1012L15.4834 22.1031L15.4816 20.6865L20.4411 20.6859L20.438 22.1037Z" fill="#EBEBCA"/>
</svg>
