<svg width="48" height="48" viewBox="0 0 48 48" fill="none" xmlns="http://www.w3.org/2000/svg">
<rect x="1" y="1" width="46" height="46" rx="23" fill="white" stroke="#F8F8F8" stroke-width="2"/>
<path fill-rule="evenodd" clip-rule="evenodd" d="M27.606 24.7914C27.1266 24.7914 26.8599 24.441 26.8599 24.0168C26.8599 23.5841 27.1135 23.234 27.606 23.234C28.0295 23.234 28.3576 23.5209 28.3576 24.0059C28.3576 24.5275 27.9903 24.7914 27.606 24.7914ZM27.8011 22.3248C27.1339 22.3248 26.8656 22.7039 26.8656 22.7039V22.4166H25.9066V26.8764H26.8656V25.3086C26.8656 25.3086 27.1168 25.6904 27.8024 25.6904C28.7374 25.6904 29.302 24.8524 29.302 24.0144C29.302 23.0868 28.6439 22.3248 27.8011 22.3248ZM31.5169 24.7575C31.0584 24.7575 30.766 24.4255 30.766 24.0138C30.766 23.5555 31.103 23.258 31.509 23.258C31.9341 23.258 32.2619 23.5399 32.2619 24.0075C32.2619 24.4895 31.9075 24.7575 31.5169 24.7575ZM31.504 22.3285C30.5639 22.3285 29.784 23.0399 29.784 24.0218C29.784 24.8895 30.461 25.6879 31.5223 25.6879C32.4265 25.6879 33.2469 25.0284 33.2469 24.0075C33.2469 23.0529 32.4883 22.3285 31.504 22.3285ZM36.0104 24.3893L36.8583 24.8701C36.6436 25.2364 36.1594 25.6906 35.404 25.6906C34.4725 25.6906 33.7004 25.0246 33.7004 23.9996C33.7004 22.9771 34.4748 22.3305 35.3956 22.3305C36.1019 22.3305 36.5908 22.704 36.8579 23.1379L36.0059 23.6299C35.9144 23.4329 35.7268 23.2744 35.3796 23.2744C34.934 23.2744 34.6588 23.6221 34.6588 24.0068C34.6588 24.4875 35.0168 24.7474 35.3976 24.7474C35.6923 24.7474 35.915 24.6093 36.0104 24.3893ZM38.8174 24.7798C38.3675 24.7798 38.0455 24.4698 38.0455 24.0169C38.0455 23.4954 38.4198 23.2309 38.8356 23.2309C39.3029 23.2309 39.6226 23.5368 39.6226 24.0038C39.6226 24.525 39.272 24.7798 38.8174 24.7798ZM39.629 22.4106V22.7308C39.629 22.7308 39.387 22.33 38.6243 22.33C37.8141 22.33 37.0513 23.0114 37.0513 24.0199C37.0513 24.9453 37.7506 25.69 38.6461 25.69C39.3454 25.69 39.629 25.2913 39.629 25.2913V25.5954H40.6211V22.4106H39.629ZM25.1653 21.56C25.1653 21.8783 24.901 22.1361 24.5753 22.1361C24.2494 22.1361 23.9853 21.8783 23.9853 21.56C23.9853 21.2418 24.2494 20.9839 24.5753 20.9839C24.901 20.9839 25.1653 21.2418 25.1653 21.56ZM24.0829 25.6039H25.07V22.411H24.0829V25.6039ZM21.7276 24.7914C21.2483 24.7914 20.9815 24.441 20.9815 24.0168C20.9815 23.5841 21.235 23.234 21.7276 23.234C22.151 23.234 22.479 23.5209 22.479 24.0059C22.479 24.5275 22.1119 24.7914 21.7276 24.7914ZM21.9225 22.3248C21.2553 22.3248 20.9871 22.7039 20.9871 22.7039V22.4166H20.0283V26.8764H20.9871V25.3086C20.9871 25.3086 21.2384 25.6904 21.9239 25.6904C22.8588 25.6904 23.4236 24.8524 23.4236 24.0144C23.4236 23.0868 22.7654 22.3248 21.9225 22.3248Z" fill="#000A38"/>
<path fill-rule="evenodd" clip-rule="evenodd" d="M15.4005 28.0001C13.2115 28.0001 11.4291 26.2411 11.4291 24.0128C11.4291 21.7739 13.2291 20 15.4123 20C16.698 20 17.5427 20.5251 18.054 21.0247C18.1086 21.0688 18.145 21.1066 18.145 21.195C18.145 21.2544 18.1286 21.2974 18.085 21.335L17.2163 22.2505C17.1878 22.278 17.1416 22.3038 17.0855 22.3038C16.9937 22.3038 16.9557 22.2616 16.9172 22.22C16.6305 21.9548 16.0577 21.6789 15.4672 21.6789C14.2281 21.6789 13.3028 22.7098 13.3028 23.966C13.3028 25.2529 14.273 26.2203 15.4753 26.2203C16.1561 26.2203 16.7355 25.8913 16.9358 25.6925C16.9675 25.6611 17.0177 25.6391 17.0905 25.6391C17.1803 25.6391 17.2117 25.6721 17.2586 25.725L18.0821 26.608C18.1202 26.6466 18.1437 26.6875 18.1437 26.7578C18.1437 26.8278 18.1202 26.8896 18.0676 26.937C17.3882 27.582 16.5007 28.0001 15.4005 28.0001Z" fill="#FF142D"/>
<path fill-rule="evenodd" clip-rule="evenodd" d="M7.7995 21.7151H6.23513C6.075 21.7151 6 21.622 6 21.4746V20.3266C6 20.1915 6.07812 20.1017 6.23275 20.1017H11.0984C11.276 20.1017 11.3366 20.2082 11.3366 20.3577V21.4746C11.3366 21.6624 11.218 21.7151 11.0964 21.7151H9.537V27.5714C9.537 27.686 9.46925 27.804 9.30437 27.804H8.0325C7.8815 27.804 7.7995 27.7219 7.7995 27.5849V21.7151Z" fill="#000A38"/>
</svg>
