<svg width="48" height="48" viewBox="0 0 48 48" fill="none" xmlns="http://www.w3.org/2000/svg">
<rect x="1" y="1" width="46" height="46" rx="23" fill="white" stroke="#F8F8F8" stroke-width="2"/>
<path fill-rule="evenodd" clip-rule="evenodd" d="M25.8269 22.4807H26.2615C26.2452 21.4759 26.8428 21.0372 27.7978 21.0995V22.0306C27.404 21.9904 27.2082 22.1655 27.2082 22.4807H27.7978V23.4117H27.2082V25.724H26.2615V23.4117H25.8269V22.4807ZM35.1999 23.6182V25.5377H34.2535V23.7889C34.2535 23.41 34.0049 23.2266 33.6903 23.2266C33.2545 23.2266 33.1053 23.5336 33.1053 23.8199V25.5377H32.1434V22.4651H33.1053V22.7659C33.1053 22.7659 33.3198 22.3754 33.9984 22.3754C34.7063 22.3754 35.1999 22.8687 35.1999 23.6182ZM30.4047 24.183C30.4047 24.4692 30.2555 24.7762 29.8198 24.7762C29.5052 24.7762 29.2565 24.5929 29.2565 24.214V22.464H28.3102V24.3881C28.3102 25.1376 28.8039 25.6309 29.5117 25.6309C30.1903 25.6309 30.4047 25.2404 30.4047 25.2404V25.5366H31.3668V22.464H30.4047V24.183Z" fill="#000A38"/>
<path fill-rule="evenodd" clip-rule="evenodd" d="M21.4005 28C19.2113 28 17.429 26.241 17.429 24.0128C17.429 21.7736 19.2291 20 21.4123 20C22.6978 20 23.5426 20.525 24.0538 21.0246C24.1086 21.0686 24.1448 21.1065 24.1448 21.1949C24.1448 21.2543 24.1285 21.2973 24.0848 21.335L23.2163 22.2504C23.1878 22.278 23.1415 22.3038 23.0853 22.3038C22.9937 22.3038 22.9556 22.2615 22.9172 22.2199C22.6303 21.9546 22.0577 21.6788 21.4671 21.6788C20.2281 21.6788 19.3027 22.7097 19.3027 23.9659C19.3027 25.2526 20.273 26.2201 21.4753 26.2201C22.1561 26.2201 22.7355 25.8911 22.9358 25.6924C22.9673 25.661 23.0177 25.639 23.0903 25.639C23.1803 25.639 23.2116 25.672 23.2586 25.7249L24.082 26.6079C24.1201 26.6465 24.1436 26.6874 24.1436 26.7575C24.1436 26.8276 24.1202 26.8895 24.0675 26.9369C23.3882 27.5819 22.5006 28 21.4005 28Z" fill="#FF142D"/>
<path fill-rule="evenodd" clip-rule="evenodd" d="M13.7995 21.715H12.2351C12.0749 21.715 12 21.622 12 21.4745V20.3266C12 20.1915 12.0781 20.1016 12.2326 20.1016H17.0982C17.276 20.1016 17.3365 20.2081 17.3365 20.3576V21.4745C17.3365 21.6622 17.2179 21.715 17.0963 21.715H15.5369V27.5714C15.5369 27.686 15.4692 27.804 15.3043 27.804H14.0324C13.8814 27.804 13.7995 27.7219 13.7995 27.5849V21.715Z" fill="#000A38"/>
</svg>
