<svg width="48" height="48" viewBox="0 0 48 48" fill="none" xmlns="http://www.w3.org/2000/svg">
<rect x="1" y="1" width="46" height="46" rx="23" fill="white" stroke="#F8F8F8" stroke-width="2"/>
<path fill-rule="evenodd" clip-rule="evenodd" d="M32.1782 21.5683C32.1782 21.8866 31.9139 22.1449 31.5876 22.1449C31.2616 22.1449 30.9972 21.8866 30.9972 21.5683C30.9972 21.2499 31.2616 20.9916 31.5876 20.9916C31.9139 20.9916 32.1782 21.2499 32.1782 21.5683ZM34.4401 22.3761C33.5287 22.3761 32.7725 23.0656 32.7725 24.0176C32.7725 24.859 33.4289 25.633 34.4577 25.633C35.3345 25.633 36.1299 24.9936 36.1299 24.0038C36.1299 23.0784 35.3944 22.3761 34.4401 22.3761ZM39.878 23.6194V25.5278H38.9314V23.79C38.9314 23.4111 38.6829 23.2278 38.3682 23.2278C37.9325 23.2278 37.7832 23.5349 37.7832 23.821V25.5278H36.8214V22.4558H37.7832V22.7505C37.7832 22.7505 37.9977 22.3766 38.6762 22.3766C39.3841 22.3766 39.878 22.8699 39.878 23.6194ZM33.7246 24.01C33.7246 24.4091 34.0081 24.731 34.4526 24.731C34.8314 24.731 35.175 24.4711 35.175 24.0038C35.175 23.5505 34.8572 23.2771 34.445 23.2771C34.0512 23.2771 33.7246 23.5656 33.7246 24.01ZM31.096 25.6365H32.089V22.4248H31.096V25.6365ZM30.5064 22.4635H29.8625V21.5868L28.9239 21.8661V22.4635H28.4272V23.3711H28.9239V24.4883C28.9239 25.4354 29.3747 25.6358 30.0899 25.6358C30.3369 25.6358 30.5064 25.6066 30.5064 25.6066V24.752C30.4839 24.7526 30.4621 24.7533 30.4407 24.7539C30.0671 24.7652 29.8625 24.7714 29.8625 24.4261V23.3711H30.5064V22.4635ZM28.1375 24.8403L27.3157 24.3739C27.223 24.5873 27.0072 24.7213 26.7216 24.7213C26.3524 24.7213 26.0051 24.4693 26.0051 24.0031C26.0051 23.6301 26.272 23.2931 26.7041 23.2931C27.0405 23.2931 27.2225 23.4468 27.3111 23.6378L28.1372 23.1609C27.8782 22.7401 27.4044 22.3781 26.7196 22.3781C25.8267 22.3781 25.076 23.005 25.076 23.9961C25.076 24.99 25.8246 25.6358 26.7277 25.6358C27.46 25.6358 27.9295 25.1953 28.1375 24.8403ZM22.3485 22.3774C23.088 22.3774 23.3226 22.766 23.3226 22.766V22.4558H24.2846V25.5434H23.3226V25.2485C23.3226 25.2485 23.0477 25.6351 22.3697 25.6351C21.5016 25.6351 20.8235 24.9131 20.8235 24.0159C20.8235 23.0381 21.5631 22.3774 22.3485 22.3774ZM21.7874 24.013C21.7874 24.452 22.0996 24.7525 22.5357 24.7525C22.9766 24.7525 23.3165 24.5056 23.3165 24.0003C23.3165 23.5475 23.0065 23.2509 22.5535 23.2509C22.1502 23.2509 21.7874 23.5074 21.7874 24.013Z" fill="#000A38"/>
<path fill-rule="evenodd" clip-rule="evenodd" d="M16.4005 28C14.2115 28 12.4291 26.241 12.4291 24.0128C12.4291 21.7738 14.2291 20 16.4123 20C17.6978 20 18.5427 20.525 19.0538 21.0246C19.1086 21.0686 19.1448 21.1065 19.1448 21.1949C19.1448 21.2543 19.1286 21.2973 19.085 21.335L18.2163 22.2504C18.1878 22.278 18.1416 22.3038 18.0855 22.3038C17.9937 22.3038 17.9557 22.2615 17.9172 22.2199C17.6305 21.9546 17.0577 21.6788 16.4671 21.6788C15.2281 21.6788 14.3027 22.7096 14.3027 23.9659C14.3027 25.2527 15.273 26.2201 16.4753 26.2201C17.1561 26.2201 17.7355 25.8911 17.9358 25.6924C17.9675 25.661 18.0177 25.639 18.0903 25.639C18.1803 25.639 18.2117 25.672 18.2586 25.7249L19.0821 26.6079C19.1201 26.6465 19.1437 26.6874 19.1437 26.7575C19.1437 26.8278 19.1202 26.8896 19.0676 26.9369C18.3882 27.5819 17.5007 28 16.4005 28Z" fill="#FF142D"/>
<path fill-rule="evenodd" clip-rule="evenodd" d="M8.7995 21.715H7.23513C7.075 21.715 7 21.622 7 21.4745V20.3266C7 20.1915 7.07812 20.1016 7.23275 20.1016H12.0984C12.276 20.1016 12.3366 20.2081 12.3366 20.3576V21.4745C12.3366 21.6622 12.2179 21.715 12.0964 21.715H10.537V27.5712C10.537 27.6859 10.4692 27.8039 10.3043 27.8039H9.0325C8.8815 27.8039 8.7995 27.7219 8.7995 27.5847V21.715Z" fill="#000A38"/>
</svg>
