<svg width="48" height="48" viewBox="0 0 48 48" fill="none" xmlns="http://www.w3.org/2000/svg">
<rect x="1" y="1" width="46" height="46" rx="23" fill="white" stroke="#F8F8F8" stroke-width="2"/>
<path fill-rule="evenodd" clip-rule="evenodd" d="M34.7131 21.5554C34.7131 21.8734 34.4491 22.1313 34.1234 22.1313C33.7978 22.1313 33.5338 21.8734 33.5338 21.5554C33.5338 21.2373 33.7978 20.9795 34.1234 20.9795C34.4491 20.9795 34.7131 21.2373 34.7131 21.5554ZM37.3931 22.4522H38.349V25.5047H37.3931V25.2272C37.3931 25.2272 37.1307 25.5964 36.4984 25.5964C35.8383 25.5964 35.2963 25.1673 35.2963 24.2867V22.4522H36.2522V24.1789C36.2498 24.511 36.4389 24.7486 36.804 24.7486C37.1552 24.7486 37.3931 24.5468 37.3931 24.1171V22.4522ZM33.6313 25.5971H34.6179V22.4058H33.6313V25.5971ZM43.9298 23.5621V25.4969H42.9895V23.6701C42.9895 23.3932 42.8271 23.2023 42.533 23.2023C42.1902 23.2023 42.049 23.4812 42.049 23.7318V25.4969H41.1085V23.7009C41.1085 23.3836 40.9486 23.2055 40.6532 23.2055C40.3199 23.2055 40.1681 23.4601 40.1681 23.7318V25.4969H39.2277V22.4368H40.1681V22.7143C40.3256 22.5061 40.5495 22.3565 41.0147 22.3565C41.4773 22.3565 41.7033 22.5817 41.8254 22.7537C42.0079 22.5223 42.2687 22.3575 42.7354 22.3575C43.4626 22.3575 43.9298 22.8709 43.9298 23.5621ZM32.8451 23.5621V25.4969H31.9048V23.6701C31.9048 23.3932 31.7424 23.2023 31.4482 23.2023C31.1055 23.2023 30.9641 23.4812 30.9641 23.7318V25.4969H30.0238V23.7009C30.0238 23.3836 29.8639 23.2055 29.5685 23.2055C29.2351 23.2055 29.0834 23.4601 29.0834 23.7318V25.4969H28.1429V22.4368H29.0834V22.7143C29.2408 22.5061 29.4648 22.3565 29.9298 22.3565C30.3926 22.3565 30.6185 22.5817 30.7405 22.7537C30.923 22.5223 31.184 22.3575 31.6507 22.3575C32.3778 22.3575 32.8451 22.8709 32.8451 23.5621ZM25.0221 23.6546C25.1033 23.361 25.3351 23.1732 25.7128 23.1732C26.0686 23.1732 26.3178 23.3445 26.3942 23.6546H25.0221ZM25.7184 22.3582C24.6639 22.3582 24.0128 23.1045 24.0128 23.9751C24.0128 25.0105 24.8045 25.5958 25.8106 25.5958C26.4484 25.5958 26.8896 25.3691 27.1912 24.9612L26.4189 24.5345C26.3189 24.6312 26.1723 24.7671 25.7926 24.7671C25.3276 24.7671 25.1249 24.576 25.0441 24.3484H27.3103C27.3103 24.3484 27.3589 24.1786 27.3578 23.9811C27.3578 23.065 26.673 22.3582 25.7184 22.3582ZM23.8261 22.3596V23.4072C23.1776 23.3237 22.8857 23.6701 22.8857 24.1164V25.4969H21.9608V22.4212H22.8857V22.9609C22.9461 22.7662 23.1913 22.3596 23.8261 22.3596ZM19.5501 24.657C19.0646 24.657 18.7944 24.3022 18.7944 23.8724C18.7944 23.4343 19.0513 23.0796 19.5501 23.0796C19.9792 23.0796 20.3113 23.3702 20.3113 23.8614C20.3113 24.3897 19.9394 24.657 19.5501 24.657ZM19.7476 22.1586C19.072 22.1586 18.8002 22.5427 18.8002 22.5427V22.2517H17.829V26.7689H18.8002V25.181C18.8002 25.181 19.0546 25.5676 19.7491 25.5676C20.6961 25.5676 21.2681 24.7189 21.2681 23.8701C21.2681 22.9304 20.6014 22.1586 19.7476 22.1586Z" fill="#000A38"/>
<path fill-rule="evenodd" clip-rule="evenodd" d="M13.3421 27.9504C11.1666 27.9504 9.39526 26.2023 9.39526 23.9878C9.39526 21.7628 11.1842 20.0001 13.3539 20.0001C14.6314 20.0001 15.4709 20.5218 15.979 21.0183C16.0334 21.062 16.0694 21.0997 16.0694 21.1875C16.0694 21.2465 16.0532 21.2893 16.0098 21.3266L15.1467 22.2365C15.1184 22.2638 15.0723 22.2894 15.0165 22.2894C14.9253 22.2894 14.8876 22.2475 14.8494 22.2061C14.5643 21.9425 13.9953 21.6684 13.4083 21.6684C12.177 21.6684 11.2574 22.6929 11.2574 23.9413C11.2574 25.2202 12.2216 26.1816 13.4165 26.1816C14.093 26.1816 14.6688 25.8546 14.8679 25.6571C14.8992 25.6259 14.9493 25.604 15.0215 25.604C15.1109 25.604 15.142 25.6368 15.1887 25.6894L16.0069 26.5669C16.0448 26.6053 16.0682 26.6459 16.0682 26.7156C16.0682 26.7853 16.045 26.8468 15.9925 26.8938C15.3175 27.5348 14.4354 27.9504 13.3421 27.9504Z" fill="#FF142D"/>
<path fill-rule="evenodd" clip-rule="evenodd" d="M5.78838 21.7044H4.23373C4.07447 21.7044 4.00006 21.6119 4.00006 21.4655V20.3246C4.00006 20.1903 4.0777 20.101 4.23124 20.101H9.06664C9.24329 20.101 9.30342 20.2069 9.30342 20.3554V21.4655C9.30342 21.6521 9.18553 21.7044 9.06466 21.7044H7.51497V27.5244C7.51497 27.6383 7.44776 27.7555 7.28379 27.7555H6.01981C5.86975 27.7555 5.78838 27.6739 5.78838 27.5378V21.7044Z" fill="#000A38"/>
</svg>
