<svg width="48" height="48" viewBox="0 0 48 48" fill="none" xmlns="http://www.w3.org/2000/svg">
<rect x="1" y="1" width="46" height="46" rx="23" fill="white" stroke="#F8F8F8" stroke-width="2"/>
<path fill-rule="evenodd" clip-rule="evenodd" d="M37.609 22.2718C36.9304 22.2718 36.7159 22.6623 36.7159 22.6623V21.0963H35.754V25.5191H36.7159V23.7457C36.7159 23.4594 36.865 23.1524 37.3009 23.1524C37.6154 23.1524 37.8641 23.3357 37.8641 23.7147V25.5191H38.8105V23.5147C38.8105 22.7651 38.3167 22.2718 37.609 22.2718ZM34.4481 24.2714L35.27 24.7377C35.062 25.0927 34.5925 25.5332 33.86 25.5332C32.957 25.5332 32.2085 24.8873 32.2085 23.8937C32.2085 22.9024 32.9591 22.2754 33.852 22.2754C34.5366 22.2754 35.0106 22.6376 35.2696 23.0583L34.4436 23.5352C34.3549 23.3442 34.1729 23.1906 33.8365 23.1906C33.4044 23.1906 33.1376 23.5276 33.1376 23.9006C33.1376 24.3667 33.4846 24.6187 33.854 24.6187C34.1397 24.6187 34.3555 24.4847 34.4481 24.2714ZM30.5549 24.0878C30.5549 24.3741 30.4057 24.6811 29.9699 24.6811C29.6554 24.6811 29.4066 24.4978 29.4066 24.1188V22.3688H28.4602V24.2929C28.4602 25.0424 28.9539 25.5357 29.6617 25.5357C30.3404 25.5357 30.5549 25.1451 30.5549 25.1451V25.4414H31.5169V22.3688H30.5549V24.0878ZM26.0907 25.5303C26.9666 25.5303 27.761 24.8917 27.761 23.9029C27.761 22.9784 27.0262 22.2769 26.0731 22.2769C25.1626 22.2769 24.4072 22.9658 24.4072 23.9167C24.4072 24.7572 25.0629 25.5303 26.0907 25.5303ZM26.8071 23.9029C26.8071 23.4501 26.4897 23.1771 26.078 23.1771C25.6846 23.1771 25.3584 23.4652 25.3584 23.9091C25.3584 24.3078 25.6415 24.6294 26.0855 24.6294C26.4639 24.6294 26.8071 24.3697 26.8071 23.9029ZM22.3302 21.7639L23.269 21.4846V22.3612H23.9129V23.2689H23.269V24.3239C23.269 24.669 23.4734 24.6629 23.847 24.6517C23.8684 24.6511 23.8904 24.6504 23.9129 24.6498V25.5044C23.9129 25.5044 23.7432 25.5334 23.4962 25.5334C22.7812 25.5334 22.3302 25.3331 22.3302 24.3861V23.2689H21.8337V22.3612H22.3302V21.7639Z" fill="#000A38"/>
<path fill-rule="evenodd" clip-rule="evenodd" d="M17.4005 28C15.2113 28 13.429 26.241 13.429 24.0128C13.429 21.7738 15.2291 20 17.4123 20C18.6978 20 19.5426 20.525 20.0538 21.0246C20.1086 21.0686 20.1448 21.1065 20.1448 21.1949C20.1448 21.2543 20.1285 21.2973 20.0848 21.335L19.2163 22.2504C19.1878 22.278 19.1416 22.3038 19.0853 22.3038C18.9937 22.3038 18.9556 22.2615 18.9172 22.2199C18.6303 21.9546 18.0577 21.6788 17.4671 21.6788C16.2281 21.6788 15.3027 22.7097 15.3027 23.9659C15.3027 25.2527 16.273 26.2201 17.4753 26.2201C18.1561 26.2201 18.7355 25.8911 18.9358 25.6924C18.9673 25.6611 19.0177 25.639 19.0903 25.639C19.1803 25.639 19.2116 25.672 19.2586 25.7249L20.082 26.6079C20.1201 26.6465 20.1436 26.6874 20.1436 26.7575C20.1436 26.8278 20.1202 26.8896 20.0675 26.9369C19.3882 27.582 18.5006 28 17.4005 28Z" fill="#FF142D"/>
<path fill-rule="evenodd" clip-rule="evenodd" d="M9.7995 21.715H8.23513C8.07488 21.715 8 21.622 8 21.4745V20.3266C8 20.1915 8.07812 20.1016 8.23262 20.1016H13.0982C13.276 20.1016 13.3365 20.2081 13.3365 20.3576V21.4745C13.3365 21.6622 13.2179 21.715 13.0963 21.715H11.5369V27.5712C11.5369 27.6859 11.4692 27.804 11.3043 27.804H10.0324C9.88138 27.804 9.7995 27.7219 9.7995 27.5847V21.715Z" fill="#000A38"/>
</svg>
