<svg width="48" height="48" viewBox="0 0 48 48" fill="none" xmlns="http://www.w3.org/2000/svg">
<rect x="1" y="1" width="46" height="46" rx="23" fill="white" stroke="#F8F8F8" stroke-width="2"/>
<path fill-rule="evenodd" clip-rule="evenodd" d="M33.4618 25.6239H32.4863V20.875H33.4618V25.6239ZM36.125 22.4504V23.358H35.4826V24.4132C35.4826 24.7584 35.6867 24.7522 36.0597 24.7409C36.081 24.7403 36.1027 24.7396 36.125 24.739V25.5936C36.125 25.5936 35.9558 25.6227 35.7094 25.6227C34.9959 25.6227 34.546 25.4223 34.546 24.4752V23.358H34.0505V22.4504H34.546V21.853L35.4826 21.5736V22.4504H36.125ZM30.6279 24.1771C30.6279 24.4633 30.4791 24.7703 30.0444 24.7703C29.7304 24.7703 29.4824 24.587 29.4824 24.2081V22.458H28.5381V24.3821C28.5381 25.1318 29.0306 25.625 29.7369 25.625C30.4141 25.625 30.6279 25.2344 30.6279 25.2344V25.5309H31.5878V22.458H30.6279V24.1771ZM27.2322 24.3581L28.0515 24.8239C27.844 25.1785 27.3761 25.6186 26.6462 25.6186C25.7461 25.6186 25 24.9734 25 23.9807C25 22.9905 25.7482 22.3642 26.6381 22.3642C27.3206 22.3642 27.793 22.726 28.0511 23.1462L27.2278 23.6227C27.1394 23.4318 26.9581 23.2784 26.6227 23.2784C26.1921 23.2784 25.9261 23.615 25.9261 23.9877C25.9261 24.4533 26.2721 24.7049 26.6401 24.7049C26.9248 24.7049 27.1399 24.5711 27.2322 24.3581Z" fill="#000A38"/>
<path fill-rule="evenodd" clip-rule="evenodd" d="M20.3667 28C18.1664 28 16.375 26.241 16.375 24.0128C16.375 21.7738 18.1841 20 20.3785 20C21.6706 20 22.5197 20.525 23.0335 21.0246C23.0884 21.0686 23.125 21.1065 23.125 21.1949C23.125 21.2543 23.1085 21.2973 23.0647 21.335L22.1917 22.2504C22.1631 22.278 22.1165 22.3038 22.0601 22.3038C21.9679 22.3038 21.9297 22.2615 21.891 22.2199C21.6028 21.9546 21.0273 21.6788 20.4336 21.6788C19.1883 21.6788 18.2583 22.7096 18.2583 23.9659C18.2583 25.2527 19.2335 26.2201 20.4418 26.2201C21.1261 26.2201 21.7083 25.8911 21.9099 25.6924C21.9415 25.661 21.9921 25.639 22.0651 25.639C22.1555 25.639 22.187 25.672 22.2341 25.7249L23.0618 26.6079C23.1001 26.6465 23.1237 26.6874 23.1237 26.7575C23.1237 26.8278 23.1001 26.8896 23.0472 26.9369C22.3645 27.5819 21.4724 28 20.3667 28Z" fill="#FF142D"/>
<path fill-rule="evenodd" clip-rule="evenodd" d="M12.8125 21.7484H11.2367C11.0754 21.7484 11 21.6548 11 21.5064V20.3514C11 20.2154 11.0787 20.125 11.2343 20.125H16.135C16.3139 20.125 16.375 20.2322 16.375 20.3826V21.5064C16.375 21.6953 16.2555 21.7484 16.133 21.7484H14.5624V27.6409C14.5624 27.7563 14.4942 27.875 14.3281 27.875H13.047C12.8949 27.875 12.8125 27.7925 12.8125 27.6545V21.7484Z" fill="#000A38"/>
</svg>
