<svg width="48" height="48" viewBox="0 0 48 48" fill="none" xmlns="http://www.w3.org/2000/svg">
<rect x="1" y="1" width="46" height="46" rx="23" fill="white" stroke="#F8F8F8" stroke-width="2"/>
<path fill-rule="evenodd" clip-rule="evenodd" d="M17.1461 24.2083C16.6519 24.3478 16.1258 24.034 15.9846 23.5127C15.8433 23.0261 16.1258 22.5033 16.6519 22.3655L18.5195 21.8424C18.9413 21.703 20.8426 21.1485 22.0041 23.1656C22.216 23.5475 22.3924 23.9293 22.5672 24.3128C22.7807 24.7994 22.9909 25.2508 23.3069 25.6345C23.3774 25.7042 23.448 25.774 23.5186 25.8436C23.801 26.1209 24.117 26.262 24.4347 26.2952C24.717 26.2952 25.0315 26.1906 25.3492 25.9133C25.4215 25.8784 25.4921 25.8069 25.5274 25.774C25.5627 25.739 25.5627 25.739 25.5963 25.7042C25.8435 25.3903 26.1241 24.8691 26.3729 24.3809C26.5478 23.9991 26.7226 23.652 26.9697 23.2703C27.2521 22.817 27.5328 22.47 27.884 22.226C28.2741 21.9122 28.7312 21.7394 29.2943 21.703C30.1383 21.6697 30.8072 21.8789 31.4763 22.0865C32.0042 22.2609 32.5337 22.4352 32.9203 22.3305H32.9925C33.0631 22.3305 33.1674 22.2957 33.238 22.2609C33.3085 22.226 33.3774 22.226 33.4497 22.1893C33.6599 22.0865 33.7659 21.947 33.7659 21.8076C33.7659 21.6697 33.7305 21.5303 33.6952 21.3909C33.6599 21.2514 33.6246 21.112 33.5557 20.9742C33.0985 20.2088 32.1117 19.6178 31.3014 19.269C31.2663 19.269 31.2663 19.269 31.2309 19.2359C30.9855 19.1297 30.7383 19.025 30.4208 18.9569C30.1046 18.8507 29.7871 18.7477 29.5046 18.6432C27.8152 18.1916 26.0535 17.9475 24.8567 17.9127H23.9069C23.5892 17.9475 23.2732 17.9475 22.9555 17.9823C21.3704 18.1218 19.7163 18.5053 18.1664 19.1297C18.1312 19.1297 18.1312 19.1662 18.1312 19.1662C17.7092 19.3404 17.3226 19.548 16.9344 19.7556C16.5813 19.9647 16.2636 20.2088 15.9493 20.4529C14.5036 21.5651 13.9053 22.817 13.9405 24.034C13.9405 24.278 13.9775 24.5204 14.0464 24.7994C14.117 25.0434 14.1876 25.2858 14.2935 25.495C14.8213 26.7468 15.9846 27.7563 17.3226 28.4866C17.5681 28.5913 17.8152 28.6941 18.0958 28.8336C18.3783 28.9731 18.6589 29.0778 18.9413 29.1822C20.4912 29.7386 22.4277 30.1553 24.4701 30.0855C24.998 30.0855 25.5627 30.0506 26.1241 29.9808C26.6872 29.9476 27.2168 29.843 27.7446 29.7386C30.4208 29.2171 32.7808 27.9985 34.2246 25.8784C34.5408 25.4253 35.1408 25.3206 35.5628 25.5995C36.0199 25.8784 36.1274 26.4696 35.8436 26.9212C34.0834 29.4944 31.2663 30.9554 28.1312 31.6163C27.5681 31.7208 26.9344 31.8237 26.336 31.8951C25.7375 31.9648 25.1374 31.9981 24.5054 31.9981C22.216 32.0329 20.034 31.583 18.2724 30.9554C17.9193 30.8509 17.6033 30.7114 17.3226 30.5719C17.0032 30.4343 16.7226 30.2963 16.4418 30.1553C14.7155 29.2852 13.2345 27.9304 12.5319 26.262C12.3553 25.9133 12.2512 25.5647 12.1453 25.216C12.0747 24.8691 12.0376 24.4873 12.0041 24.1037C11.9335 22.2609 12.7773 20.4529 14.749 18.9569C15.1021 18.678 15.5256 18.3991 15.9493 18.1218C16.3695 17.8778 16.8284 17.6354 17.3226 17.4262C17.3563 17.3914 17.3915 17.3914 17.4269 17.3914C19.1869 16.6608 20.9838 16.2442 22.7807 16.1047C23.132 16.0697 23.4834 16.0366 23.8363 16.0366C24.1877 16 24.5407 16 24.892 16C26.23 16.0366 28.2035 16.3123 29.9988 16.8336C30.3871 16.9381 30.7383 17.0427 31.0545 17.149C31.372 17.2519 31.6882 17.3564 32.0042 17.4959C32.0042 17.4959 32.0411 17.4959 32.0411 17.5309C33.1674 17.9823 34.5408 18.8507 35.2451 20.0693C35.3862 20.3482 35.4905 20.6255 35.5963 20.9045C35.6686 21.2166 35.7023 21.5303 35.6686 21.8789C35.6317 22.7124 35.2114 23.408 34.3306 23.8612C34.1894 23.9293 34.0128 23.9991 33.8365 24.0688C33.7305 24.1037 33.5557 24.1385 33.4145 24.2083H33.3085C32.4278 24.3809 31.6528 24.1385 30.9149 23.8945C30.3871 23.7567 29.8929 23.5824 29.4355 23.6155C29.2609 23.6155 29.1197 23.652 29.0474 23.7217C28.9061 23.8264 28.7666 23.9991 28.6254 24.2431C28.4489 24.5204 28.2741 24.8691 28.0975 25.216C27.78 25.8436 27.4991 26.4346 27.0403 26.956V26.9908H27.0051C27.0051 26.9908 27.0051 27.0257 26.9697 27.0257C26.8638 27.1651 26.7578 27.2681 26.6183 27.3726C25.9141 27.9637 25.1038 28.2427 24.3289 28.1729C23.5557 28.138 22.816 27.7911 22.1806 27.2348C22.0764 27.1286 21.9687 26.9908 21.8292 26.8514C21.335 26.2952 21.0543 25.6693 20.8072 25.0434C20.6678 24.7296 20.5266 24.4175 20.3483 24.1037C19.9281 23.408 19.2944 23.5824 19.1869 23.6155C19.1532 23.652 19.0826 23.687 19.0472 23.687L17.1461 24.2083Z" fill="#0CB14B"/>
</svg>
