<svg width="48" height="48" viewBox="0 0 48 48" fill="none" xmlns="http://www.w3.org/2000/svg">
<rect x="1" y="1" width="46" height="46" rx="23" fill="white" stroke="#F8F8F8" stroke-width="2"/>
<path fill-rule="evenodd" clip-rule="evenodd" d="M16.9699 31.8366H9.06149C8.50839 31.8366 8.05067 31.3942 8.00392 30.8354L8 30.7412V17.0943C8 16.5249 8.42871 16.0522 8.9702 16.004L9.06149 16H16.9699C17.5213 16 17.9804 16.4426 18.0271 17.0004L18.0311 17.0943V30.7412C18.0311 31.3119 17.6011 31.7844 17.0609 31.8326L16.9699 31.8366ZM40 30.7412V17.0943L39.9961 17.0004C39.9493 16.4426 39.4905 16 38.9393 16H31.0304L30.9391 16.004C30.3978 16.0522 29.9693 16.5249 29.9693 17.0943V30.7412L29.9733 30.8354C30.0199 31.3943 30.4775 31.8366 31.0304 31.8366H38.9393L39.0303 31.8326C39.5702 31.7844 40 31.3119 40 30.7412ZM35.2678 21.7894C34.0184 21.7894 33.0039 22.8337 33.0039 24.1242C33.0039 25.412 34.0184 26.4593 35.2678 26.4593C35.8455 26.4593 36.3746 26.2334 36.7725 25.8667L36.8055 25.8433C36.8533 25.8198 36.9144 25.8278 36.9528 25.8667L37.7705 26.7099L37.7914 26.7405C37.8127 26.7844 37.8077 26.8392 37.7768 26.878C37.1224 27.5148 36.2386 27.9069 35.2671 27.9069C33.2422 27.9069 31.6011 26.2118 31.6011 24.1242C31.6011 22.0335 33.2422 20.3393 35.2671 20.3393C36.2386 20.3393 37.1202 20.731 37.7768 21.3692C37.8155 21.4203 37.8136 21.4918 37.7705 21.5382L36.9528 22.3829L36.9203 22.4064C36.8728 22.4297 36.8119 22.422 36.7738 22.3829L36.6712 22.2939C36.2856 21.9786 35.7973 21.7894 35.2678 21.7894ZM20.045 31.8364C19.4919 31.8364 19.0342 31.3942 18.9876 30.8354L18.9837 30.7412V17.0947C18.9837 16.5247 19.4122 16.0524 19.9537 16.0041L20.045 16.0002H27.9537C28.5049 16.0002 28.9638 16.4426 29.0107 17.0006L29.0144 17.0947V30.7412C29.0144 31.3119 28.5848 31.7842 28.0447 31.8325L27.9537 31.8364H20.045ZM23.3661 27.8769C22.3479 27.8234 21.9049 27.1113 21.9049 26.1965V20.4937L21.9093 20.4601C21.9239 20.4067 21.9721 20.3672 22.029 20.3672H23.1838C23.2525 20.3672 23.3076 20.4242 23.3076 20.4937V25.7362L23.3115 25.8118C23.3479 26.1601 23.6331 26.4305 23.9807 26.4305H26.1134L26.1468 26.4351C26.1997 26.4505 26.2369 26.5014 26.2369 26.5595V27.7516L26.2326 27.7858C26.2185 27.8401 26.1713 27.88 26.1134 27.88H23.491L23.3661 27.8769ZM15.8025 20.3672C15.8711 20.3672 15.9277 20.4243 15.9274 20.4939V21.6878L15.9228 21.7217C15.9082 21.7757 15.8593 21.8153 15.8022 21.8153H14.1402L14.074 21.8195C13.8144 21.853 13.614 22.0814 13.614 22.3587V27.7524L13.6096 27.7863C13.5951 27.8404 13.5478 27.8799 13.4905 27.8799H12.3341L12.301 27.8753C12.2488 27.8605 12.2107 27.8111 12.2107 27.7524V22.3587L12.2066 22.2904C12.1743 22.0227 11.9536 21.8156 11.6844 21.8156H9.95059L9.91796 21.8112C9.86588 21.7962 9.82682 21.7466 9.82682 21.6878V20.4942L9.83122 20.4604C9.8458 20.4068 9.89443 20.3672 9.95059 20.3672H15.8025Z" fill="#EE2A30"/>
</svg>
