<svg width="276" height="120" viewBox="0 0 276 120" fill="none" xmlns="http://www.w3.org/2000/svg">
<g clip-path="url(#clip0_4329_12488)">
<path d="M38.8889 42.0789H50.6516C53.6097 42.0789 55.087 42.9151 56.5643 45.3576L68.7138 64.2734H69.1319V42.0789H117.28C109.653 17.6963 86.8944 0 59.9997 0C33.105 0 10.3461 17.6963 2.72614 42.0789H38.8889Z" fill="#FD3823"/>
<path d="M106.124 50.8008V86.2527H94.1729V50.8008H80.5044V86.2527H72.529C69.5709 86.2527 68.1563 85.4165 66.6163 82.9741L51.1533 59.8249H50.9059V86.2527H39.2965V50.8008H25.6802V86.2527H13.5202V50.8008H0.705277C0.24536 53.8007 0.00146484 56.8738 0.00146484 60.0026C0.00146484 93.141 26.8648 120.001 59.9997 120.001C93.1346 120.001 119.998 93.1375 119.998 60.0026C119.998 56.8738 119.758 53.8007 119.294 50.8008H106.12H106.124Z" fill="#FD3823"/>
<path d="M271.084 50.832V51.4836H270.178V54.7378H269.36V51.4836H268.45V50.832H271.084Z" fill="#FD3823"/>
<path d="M271.447 54.7378V50.832H272.76L273.373 53.4905H273.384L274.032 50.832H275.304V54.7378H274.509V51.7275H274.499L273.746 54.7378H272.969L272.255 51.7275H272.241V54.7378H271.447Z" fill="#FD3823"/>
<path d="M127.489 78.2072V51.0547H135.161L142.381 69.859H142.457V51.0547H147.757V78.2072H140.276L132.865 58.3506H132.792V78.2072H127.489Z" fill="#FD3823"/>
<path d="M151.52 64.6329C151.52 57.452 151.52 50.6055 160.882 50.6055C170.244 50.6055 170.244 57.4485 170.244 64.6329C170.244 71.8174 170.244 78.6604 160.882 78.6604C151.52 78.6604 151.52 71.7407 151.52 64.6329ZM164.495 64.6329C164.495 57.6749 164.08 54.6681 160.885 54.6681C157.69 54.6681 157.276 57.6749 157.276 64.6329C157.276 71.5909 157.69 74.5978 160.885 74.5978C164.08 74.5978 164.495 71.5909 164.495 64.6329Z" fill="#FD3823"/>
<path d="M171.826 51.0547H177.732L181.94 70.7998H182.017L186.756 51.0547H192.358L185.177 78.2072H178.519L171.826 51.0547Z" fill="#FD3823"/>
<path d="M194.163 78.2072V51.0547H208.981V55.2288H199.842V61.9255H208.267V66.0995H199.842V74.0331H209.281V78.2072H194.163Z" fill="#FD3823"/>
<path d="M212.253 78.2072V51.0547H217.929V73.6951H226.43V78.2072H212.253Z" fill="#FD3823"/>
<path d="M225.528 78.2076L233.05 51.0586H240.535L247.907 78.2076H241.928L240.423 72.1904H232.678L231.138 78.2076H225.535H225.528ZM236.472 56.2849H236.395L233.8 68.0163H239.214L236.468 56.2849H236.472Z" fill="#FD3823"/>
<path d="M256.325 78.6569C249.294 78.6569 247.977 74.5211 248.277 69.8209H253.956C253.956 72.4167 254.067 74.5978 257.189 74.5978C259.105 74.5978 260.046 73.3574 260.046 71.5143C260.046 66.6259 248.614 66.3263 248.614 58.2394C248.614 53.9886 250.646 50.6055 257.565 50.6055C263.095 50.6055 265.837 53.0862 265.461 58.7655H259.931C259.931 56.7342 259.593 54.6681 257.297 54.6681C255.454 54.6681 254.363 55.682 254.363 57.5635C254.363 62.7166 265.795 62.2637 265.795 70.8C265.795 77.8312 260.642 78.6604 256.318 78.6604" fill="#FD3823"/>
</g>
<defs>
<clipPath id="clip0_4329_12488">
<rect width="275.302" height="120" fill="white" transform="translate(0.00146484)"/>
</clipPath>
</defs>
</svg>
