<svg width="48" height="48" viewBox="0 0 48 48" fill="none" xmlns="http://www.w3.org/2000/svg">
<rect x="1" y="1" width="46" height="46" rx="23" fill="white" stroke="#F8F8F8" stroke-width="2"/>
<path fill-rule="evenodd" clip-rule="evenodd" d="M12.5276 18.0414H21.0236C21.096 18.0414 21.1838 18.0389 21.2794 18.0362C21.6225 18.0264 22.0674 18.0136 22.2716 18.1033C22.4376 18.176 22.5947 18.351 22.6972 18.4963C22.7846 18.6202 22.8678 18.7499 22.9509 18.8794C23.0055 18.9646 23.0601 19.0497 23.1159 19.133C23.1514 19.1862 23.1847 19.2384 23.2184 19.2914C23.252 19.3441 23.2861 19.3976 23.3232 19.4534L25.0006 22.033C25.0236 22.0676 25.0422 22.0954 25.0613 22.1241C25.0763 22.1466 25.0917 22.1696 25.1097 22.1967C25.1212 22.2139 25.1311 22.2311 25.1407 22.2476C25.1646 22.2889 25.1863 22.3265 25.226 22.3533V18.0414H34.4679C34.4322 17.8876 34.2299 17.3644 34.1638 17.1994C33.9674 16.7079 33.6602 16.0889 33.3912 15.6434C33.0716 15.1145 32.8313 14.7612 32.4428 14.2812C32.4212 14.2544 32.4012 14.2308 32.3814 14.2076C32.3581 14.1803 32.3353 14.1534 32.3106 14.1222L31.8343 13.5796C31.5993 13.3127 30.9504 12.74 30.6962 12.5345C30.1519 12.094 29.059 11.3637 28.3809 11.084L27.7735 10.8182C26.7779 10.3749 25.0169 9.99994 23.9343 9.99994H23.7642C22.6453 10.0001 22.1915 10.0086 21.0096 10.2591C20.7109 10.3225 20.374 10.4179 20.0937 10.5073C20.0664 10.516 20.0398 10.5244 20.0137 10.5326C19.8884 10.5723 19.7748 10.6082 19.6564 10.6524C18.5498 11.0659 17.9978 11.3532 16.9778 12.0305C16.5635 12.3054 16.0551 12.7177 15.698 13.0612C15.6471 13.1104 15.5925 13.1605 15.5364 13.2119C15.3914 13.345 15.2372 13.4866 15.1137 13.6413L14.5695 14.2612C13.7603 15.253 13.1097 16.3987 12.6755 17.6072C12.6631 17.6416 12.6497 17.6771 12.636 17.7133C12.5955 17.8206 12.5526 17.934 12.5276 18.0414ZM34.9955 21.0464V21.8347C34.9669 22.6686 34.8502 23.5055 34.6647 24.2602C34.5198 24.8486 34.353 25.3114 34.1354 25.8595C34.1077 25.929 34.0805 25.991 34.053 26.0537L34.032 26.1015C34.0127 26.1452 33.9935 26.1856 33.9746 26.2254C33.9568 26.2629 33.9393 26.2997 33.9223 26.3378C33.6462 26.9587 33.2771 27.5652 32.8854 28.1207C32.7963 28.247 32.7095 28.3622 32.6155 28.4869L32.5839 28.5289C32.2979 28.9079 31.9154 29.3177 31.589 29.6443L30.6498 30.488C29.7953 31.1689 28.7873 31.7674 27.768 32.1724C26.4814 32.6838 25.087 32.9964 23.6616 32.9964C22.0892 32.9964 21.1004 32.8158 19.7295 32.3618C19.5207 32.2928 18.9502 32.0676 18.7311 31.9596C18.6678 31.9284 18.6043 31.8976 18.5407 31.8668C18.2888 31.7446 18.0359 31.622 17.7954 31.4761C17.2831 31.1652 16.7873 30.8493 16.3255 30.4716L16.0361 30.2336C15.627 29.9041 14.9134 29.1639 14.5573 28.7105C14.2309 28.295 13.9606 27.93 13.6813 27.4762L13.4199 27.0281C13.1884 26.6295 12.8055 25.7792 12.657 25.3348C12.5391 24.9815 12.4233 24.6314 12.331 24.2602C12.0428 23.0997 12 22.376 12 21.1889L12.0186 20.8073C12.0218 20.6786 12.0251 20.5564 12.0414 20.4298L12.1272 19.7334H14.565V26.5012H16.9484V19.7334H19.5137V26.5012H21.715V21.2434C21.7539 21.272 21.849 21.4204 21.9117 21.5184L21.9117 21.5184C21.9295 21.5461 21.9446 21.5697 21.9552 21.5855L22.8054 22.8636C23.2227 23.5147 23.7183 24.2546 24.1864 24.9533L24.1866 24.9535L24.1869 24.9541C24.3476 25.1939 24.505 25.4288 24.6548 25.6537C24.679 25.6899 24.7042 25.7264 24.7295 25.7629L24.7296 25.7629C24.7832 25.8404 24.8369 25.918 24.8797 25.9926C24.998 26.1988 25.1983 26.5195 25.4808 26.5195H27.4274V19.7334H29.9743V26.5195H32.3575V19.7334H34.8681C34.8696 19.7965 34.8842 19.8882 34.8979 19.9742L34.898 19.9743L34.898 19.9744C34.9043 20.0142 34.9105 20.0528 34.915 20.0868C34.9575 20.3984 34.9839 20.72 34.9955 21.0464ZM31.8709 37.6444V37.6444C31.8775 37.5403 31.8804 37.4947 31.8617 37.3492C31.7948 36.8294 31.3379 36.4963 30.902 36.2713L30.6439 36.1291L30.6083 36.1077L30.5826 36.0925L30.5823 36.0923C30.3554 35.9577 30.0652 35.7857 30.0652 35.4706C30.0652 35.1468 30.2568 35.0157 30.5564 35.0157C30.8838 35.0157 30.9386 35.3663 30.9386 35.6707H31.8118C31.8604 35.4621 31.8102 35.1905 31.7553 35.0175C31.7142 34.8881 31.62 34.7264 31.5157 34.6387C30.9652 34.1772 29.1558 34.1689 29.1558 35.4706C29.1558 35.8514 29.1822 36.0272 29.4257 36.3287C29.6064 36.5522 29.9502 36.7544 30.2559 36.9343C30.5008 37.0784 30.7214 37.2082 30.8143 37.323C31.1249 37.7074 30.8802 38.1451 30.5747 38.1451L30.5456 38.1452C30.3943 38.1459 30.2134 38.1467 30.1089 37.9922C30.0076 37.8428 30.009 37.646 30.0104 37.4619C30.0106 37.4409 30.0107 37.4199 30.0107 37.3993H29.1011C29.1011 37.4481 29.1006 37.4934 29.1 37.5362L29.1 37.5365C29.0971 37.7764 29.0951 37.9368 29.1969 38.1948C29.3546 38.5939 29.7919 38.7999 30.2653 38.7999C31.0396 38.7999 31.8118 38.6916 31.867 37.7089C31.8684 37.6847 31.8697 37.6636 31.8709 37.6444ZM33.1217 34.4882V35.0157H33.0306L33.0225 34.6492L32.9033 35.0157H32.8124C32.8074 34.9548 32.7288 34.7148 32.685 34.652V35.0157H32.5942V34.5427C32.5942 34.4836 32.6363 34.4853 32.6893 34.4874L32.7109 34.4881L32.7214 34.4882C32.7334 34.5396 32.7556 34.6 32.7783 34.6616L32.7783 34.6616C32.8103 34.7489 32.8432 34.8383 32.8488 34.9068C32.8845 34.8804 32.8867 34.872 32.895 34.84L32.895 34.8399L32.895 34.8398L32.895 34.8397C32.8977 34.8294 32.901 34.8167 32.9062 34.8002C32.9248 34.7422 32.9385 34.6949 32.9496 34.6564C32.9957 34.4973 32.9983 34.4882 33.1217 34.4882ZM32.121 34.4882H32.5396V34.561H32.3758V35.0157H32.2848V34.561H32.121V34.4882ZM27.1545 38.0539H28.6281V38.7272H26.2449V34.4336H28.5371C28.579 34.4336 28.5918 34.4462 28.5918 34.4882V35.0522C28.5918 35.094 28.579 35.1069 28.5371 35.1069H27.1545V36.1439H28.428C28.4699 36.1439 28.4826 36.1564 28.4826 36.1983V36.8168H27.1545V38.0539ZM25.4989 38.7272H24.5893V34.4336H25.4989V38.7272ZM23.1884 36.5986V36.635C23.4814 36.635 23.758 36.8068 23.8595 37.0738C23.9204 37.2339 23.9283 37.5584 23.9362 37.8836C23.9446 38.2296 23.953 38.5765 24.0253 38.7272H23.1338C23.0283 38.507 23.0346 38.1531 23.0406 37.8163C23.0419 37.7488 23.043 37.6819 23.0433 37.6169C23.0461 36.9582 22.6801 36.9601 22.2606 36.9622L22.1878 36.9625V38.7272H21.2784V34.4336H22.9519C23.2623 34.4336 23.4999 34.5503 23.6574 34.7105C23.9343 34.9919 23.9343 35.3424 23.9343 35.6982V35.7073C23.9343 36.1409 23.5994 36.5895 23.1884 36.5986ZM22.1738 36.2875L22.5338 36.2925C22.9362 36.2925 23.0679 35.9388 23.0221 35.5269C23.0018 35.3421 22.9316 35.1948 22.7793 35.134C22.6643 35.0881 22.3093 35.086 22.1738 35.1041V36.2875ZM19.2406 38.0539H20.7144V38.7272H18.331V34.4336H20.6234C20.6653 34.4336 20.678 34.4462 20.678 34.4882V35.0522C20.678 35.094 20.6653 35.1069 20.6234 35.1069H19.2406V36.1439H20.5143C20.556 36.1439 20.5687 36.1564 20.5687 36.1983V36.8168H19.2406V38.0539ZM17.5793 38.1758C17.6832 37.9524 17.6943 37.7587 17.6943 37.5082C17.6943 36.8036 17.1127 36.4847 16.6105 36.2093C16.229 36.0001 15.8934 35.8161 15.8934 35.5071C15.8934 35.1621 16.0213 35.0157 16.3844 35.0157C16.721 35.0157 16.761 35.4241 16.7664 35.6707H17.6398L17.6398 35.6314C17.6402 35.2276 17.6405 34.9008 17.2889 34.6023C16.8882 34.2621 15.8094 34.2844 15.3548 34.6411C15.0775 34.8588 14.9653 35.2084 14.9653 35.5797C14.9653 36.2862 15.5333 36.6159 16.0335 36.9063C16.4982 37.1761 16.9045 37.412 16.7426 37.8844C16.6533 38.1452 16.4499 38.1451 16.2632 38.1451H16.257C15.8658 38.1451 15.8204 37.7912 15.8204 37.3993H14.9108C14.9108 37.8218 14.9252 38.2177 15.2149 38.4959C15.3995 38.6731 15.7161 38.7719 16.0553 38.7999H16.466C16.8039 38.7726 17.1205 38.6777 17.3082 38.5228C17.4402 38.4141 17.5019 38.3419 17.5793 38.1758Z" fill="#FF4B57"/>
</svg>
