<svg width="48" height="48" viewBox="0 0 48 48" fill="none" xmlns="http://www.w3.org/2000/svg">
<rect x="1" y="1" width="46" height="46" rx="23" fill="white" stroke="#F8F8F8" stroke-width="2"/>
<path fill-rule="evenodd" clip-rule="evenodd" d="M35.8585 22.1568H33.2232V29.2464H30.8328V22.1568H28.1017V29.2464H26.5057C25.9129 29.2464 25.6297 29.0784 25.3225 28.5912L22.2312 23.9616H22.1809V29.2464H19.8577V22.1568H17.1337V29.2464H14.7025V22.1568H12.1417C12.048 22.7568 12 23.3736 12 23.9999C12 30.6266 17.3737 36 24 36C30.6265 36 36 30.6266 36 23.9999C36 23.3736 35.952 22.7568 35.8585 22.1568ZM19.7737 20.4144H12.5449C14.0689 15.5376 18.6217 12 24 12C29.3785 12 33.9312 15.5376 35.4552 20.4144H25.8217V24.8544H25.7377L23.3089 21.0696C23.0137 20.5801 22.7185 20.4144 22.1257 20.4144H19.7737Z" fill="black"/>
</svg>
