<svg width="125" height="120" viewBox="0 0 125 120" fill="none" xmlns="http://www.w3.org/2000/svg">
<path d="M8.31334 102.909H3.30581V96.4668H0V113.07C0 113.07 0.530046 118.447 5.57942 119.248H9.57568C9.57568 119.248 14.7506 118.447 15.0644 113.607V108.92C15.0644 108.92 14.7645 103.334 8.31334 102.909ZM12.1562 112.757C12.0446 115.257 10.4196 116.239 9.22 116.239H6.0746C3.46622 116.191 3.28489 112.757 3.28489 112.757V106.043H8.86431C12.0097 106.203 12.1701 109.825 12.1701 109.825L12.1562 112.757Z" fill="#84AD7E"/>
<path d="M31.8236 108.495C31.0773 103.543 25.6932 102.923 25.6932 102.923H22.8686C17.7495 103.132 16.9405 106.837 16.794 108.537C16.7131 110.275 16.7247 112.016 16.8289 113.753C17.2055 119.074 22.4083 119.262 22.4083 119.262H26.3557C30.7426 119.262 31.8445 113.69 31.8445 113.69C32.0323 111.963 32.0253 110.221 31.8236 108.495ZM28.734 113.53C28.734 113.53 28.5736 115.71 25.9094 116.24H23.0151C22.2972 116.189 21.6191 115.891 21.0965 115.397C20.5738 114.903 20.2388 114.243 20.1486 113.53V109.163C20.1486 109.163 20.6299 106.378 23.029 106.294H25.6374C25.6374 106.294 28.4689 106.294 28.734 109.54V113.53Z" fill="#84AD7E"/>
<path d="M37.3123 119.248C37.5285 118.984 40.7995 113.976 40.7995 113.976L44.2866 119.248C44.2866 119.248 48.2341 119.673 48.1294 119.248C48.0248 118.823 42.6895 111.079 42.6895 111.079L47.969 102.909H44.1402L41.0436 107.854L37.3123 102.909H33.8252L39.0559 111.169L33.4765 119.248H37.3123Z" fill="#84AD7E"/>
<path d="M59.093 102.909H54.0785V96.4668H50.7727V113.07C50.7727 113.07 51.3097 118.447 56.3521 119.248H60.3484C60.3484 119.248 65.5233 118.447 65.8441 113.607V108.92C65.8441 108.92 65.5582 103.334 59.093 102.909ZM62.9289 112.757C62.8242 115.257 61.1992 116.239 59.9997 116.239H56.8543C54.2389 116.191 54.0646 112.757 54.0646 112.757V106.043H59.6091C62.7545 106.203 62.9149 109.825 62.9149 109.825L62.9289 112.757Z" fill="#84AD7E"/>
<path d="M67.6504 119.248V107.569C67.6504 106.712 68.5571 102.909 73.5925 102.909H75.915V105.96H74.5201C74.5201 105.96 72.6091 105.96 71.8978 106.517C71.671 106.677 71.4819 106.885 71.3434 107.125C71.2049 107.366 71.1204 107.634 71.0957 107.91V119.22L67.6504 119.248Z" fill="#84AD7E"/>
<path d="M116.352 96.4668V114.575C116.352 114.575 116.526 118.928 122.392 119.645H125V116.532H123.347C123.347 116.532 119.923 116.288 119.818 114.408V96.4668H116.352Z" fill="#84AD7E"/>
<path d="M86.7669 103.557C83.6982 102.826 83.3425 103.069 83.3425 103.069C83.3425 103.069 76.4171 102.373 76.2915 108.042H79.7787C79.7787 108.042 79.7229 106.573 82.0872 106.447H84.5212C84.5212 106.447 86.6135 106.496 86.6135 108.042C86.6135 109.588 84.5212 109.79 84.5212 109.79C84.5212 109.79 77.3167 109.094 76.2497 113.844C75.1826 118.593 80.4342 120 81.4246 120H84.7513C84.7513 120 89.5427 119.722 90.1494 116.149V107.436C90.0292 106.529 89.6443 105.678 89.0428 104.988C88.4413 104.298 87.6498 103.801 86.7669 103.557ZM86.5437 115.264C86.2857 116.532 84.5142 116.706 84.5142 116.706H81.4176C81.1875 116.711 80.9587 116.67 80.7445 116.586C80.5303 116.502 80.3349 116.376 80.1695 116.216C80.0042 116.056 79.8722 115.865 79.7812 115.654C79.6902 115.443 79.6419 115.216 79.6392 114.986C79.7159 113.537 80.6714 113.196 81.7315 113.189C82.7916 113.182 84.9048 113.189 84.9048 113.189C85.4683 113.255 86.0381 113.137 86.5298 112.855L86.5437 115.264Z" fill="#84AD7E"/>
<path d="M93.3367 102.909L108.638 103.028V106.51C108.638 106.51 107.892 112.36 102.884 112.632C97.8769 112.903 98.8812 113.105 98.8812 113.105C98.2177 113.288 97.6335 113.685 97.2197 114.235C96.8059 114.784 96.5858 115.455 96.5937 116.142H108.638V119.283H93.3367V117.688C93.3367 117.688 93.0716 109.86 99.6135 109.755L101.964 109.651C101.964 109.651 104.816 109.916 105.291 106.238C105.291 106.238 93.3227 106.19 93.3227 106.238L93.3367 102.909Z" fill="#84AD7E"/>
<path d="M113.897 96.4668H110.64V99.7193H113.897V96.4668Z" fill="#84AD7E"/>
<path d="M113.897 102.909H110.64V119.248H113.897V102.909Z" fill="#84AD7E"/>
<path d="M3.75624e-06 53.6348V81.8483C3.75624e-06 81.8483 -0.0557899 89.9412 13.4325 89.9412V84.676L10.022 84.6203C10.022 84.6203 5.38415 83.7706 5.27953 80.9429V68.5181H13.4325V63.037H5.22374V53.6348H3.75624e-06Z" fill="#3A646D"/>
<path d="M16.5639 89.9692V70.8723C16.5639 69.4794 18.0424 63.2112 26.2791 63.2112H30.08V68.2606H27.7576C27.7576 68.2606 24.6401 68.2606 23.4684 69.1799C23.0921 69.4438 22.7797 69.7884 22.554 70.1885C22.3283 70.5885 22.1952 71.034 22.1642 71.4921V89.9901L16.5639 89.9692Z" fill="#3A646D"/>
<path d="M49.3081 63.8102C44.468 62.6471 43.9379 63.0371 43.9379 63.0371C43.9379 63.0371 32.9953 61.9924 32.7791 70.8723H38.2539C38.2539 70.8723 38.1702 68.5601 41.8945 68.3581H45.7303C45.7303 68.3581 49.0501 68.4347 49.0849 70.8723C49.1198 73.3099 45.807 73.6581 45.807 73.6581C45.807 73.6581 34.4738 72.4393 32.7791 80.0168C31.0843 87.5943 39.3698 89.7185 40.932 89.7185H46.1697C46.1697 89.7185 53.7228 89.2797 54.6853 83.6523V69.9182C54.6853 69.9182 54.1483 64.9663 49.3081 63.8102ZM48.9455 82.2525C48.5479 84.2513 45.7512 84.5299 45.7512 84.5299H40.8692C40.5072 84.5354 40.1477 84.4694 39.8113 84.3357C39.4748 84.2021 39.1682 84.0033 38.909 83.7509C38.6497 83.4985 38.443 83.1974 38.3007 82.8649C38.1583 82.5325 38.0832 82.1752 38.0795 81.8137C38.1981 79.5363 39.7045 79.0278 41.3993 78.9791C43.094 78.9303 46.3998 78.9791 46.3998 78.9791C48.3526 78.9791 48.9524 78.4568 48.9524 78.4568L48.9455 82.2525Z" fill="#3A646D"/>
<path d="M54.7062 63.0372L65.4606 89.9693H70.5239L81.348 63.0372L75.4826 62.9745C75.4826 62.9745 67.9225 82.0923 67.9225 82.2525C67.9225 82.4127 60.4461 63.0372 60.4461 63.0372H54.7062Z" fill="#3A646D"/>
<path d="M107.118 74.306C107.118 74.306 107.118 63.0373 94.8432 63.0373C82.5685 63.0373 82.0524 73.8324 82.0524 73.8324V78.8678C82.0524 78.8678 82.2198 89.1684 92.6393 90.0669L107.118 89.9763V84.732L94.4457 84.7807C94.4457 84.7807 93.4484 84.725 92.6951 84.6066C91.2844 84.4545 89.9715 83.814 88.9842 82.7963C87.9969 81.7786 87.3975 80.4478 87.2901 79.0349H107.118V74.306ZM87.3319 73.8672C87.5297 72.4492 88.1953 71.1374 89.2236 70.1396C90.2518 69.1419 91.5839 68.515 93.009 68.3582H96.0428C100.925 68.8388 101.525 73.707 101.559 73.8672C101.594 74.0274 87.311 73.9926 87.3319 73.8672Z" fill="#3A646D"/>
<path d="M111.254 53.6349V81.7997C111.254 81.7997 111.519 88.5554 120.634 89.6767L124.686 89.621V84.7457H122.127C122.127 84.7457 116.791 84.3697 116.638 81.4445V53.6349H111.254Z" fill="#3A646D"/>
<path d="M62.469 50.758H61.5205C30.6105 50.1938 22.3181 24.383 22.2134 24.0975C22.0886 23.6985 22.1276 23.2663 22.3218 22.896C22.516 22.5258 22.8496 22.2477 23.2491 22.123C23.6487 21.9983 24.0814 22.0373 24.4522 22.2312C24.823 22.4252 25.1015 22.7583 25.2263 23.1573C25.5332 24.1393 33.0027 47.0667 61.5763 47.5821H62.462C90.3591 47.5821 98.5539 23.3801 98.6306 23.1364C98.6952 22.9397 98.7979 22.7577 98.9329 22.6007C99.0679 22.4437 99.2326 22.3148 99.4175 22.2214C99.6024 22.1279 99.8039 22.0717 100.011 22.0561C100.217 22.0404 100.425 22.0655 100.622 22.13C100.819 22.1945 101.001 22.297 101.158 22.4319C101.315 22.5667 101.444 22.7311 101.538 22.9157C101.632 23.1004 101.688 23.3016 101.704 23.508C101.719 23.7143 101.694 23.9217 101.63 24.1184C101.546 24.383 92.6327 50.758 62.469 50.758Z" fill="#3A646D"/>
<path d="M61.9245 37.1492C58.2457 37.1492 54.6495 36.0598 51.5907 34.0188C48.5319 31.9778 46.1478 29.0768 44.74 25.6828C43.3322 22.2887 42.9638 18.554 43.6815 14.9509C44.3992 11.3478 46.1707 8.03808 48.7721 5.44038C51.3734 2.84268 54.6876 1.07362 58.2958 0.356914C61.9039 -0.359791 65.6438 0.00804794 69.0426 1.41391C72.4414 2.81978 75.3464 5.20053 77.3902 8.2551C79.434 11.3097 80.5249 14.9009 80.5249 18.5746C80.5212 23.4997 78.5604 28.2221 75.0729 31.7047C71.5855 35.1873 66.8565 37.1455 61.9245 37.1492ZM61.9245 2.32618C58.7061 2.32618 55.56 3.27931 52.8841 5.06502C50.2082 6.85072 48.1227 9.38879 46.8914 12.3582C45.6601 15.3276 45.3383 18.595 45.9667 21.7471C46.5951 24.8991 48.1454 27.7943 50.4217 30.0664C52.6979 32.3385 55.5978 33.8855 58.7545 34.5116C61.9112 35.1378 65.183 34.815 68.156 33.5842C71.129 32.3533 73.6697 30.2696 75.4567 27.5967C77.2438 24.9237 78.1969 21.7815 78.1955 18.5676C78.19 14.2613 76.4735 10.1331 73.4229 7.08931C70.3723 4.04555 66.2369 2.33499 61.9245 2.33315V2.32618Z" fill="#3A646D"/>
<path d="M61.9246 29.3837C59.7835 29.3851 57.6901 28.7523 55.9091 27.5654C54.1282 26.3786 52.7398 24.6909 51.9195 22.7159C51.0991 20.7409 50.8838 18.5674 51.3007 16.4702C51.7175 14.373 52.7479 12.4463 54.2614 10.934C55.7749 9.42159 57.7035 8.39143 59.8034 7.9738C61.9032 7.55616 64.0799 7.76981 66.0582 8.58772C68.0364 9.40563 69.7273 10.791 70.917 12.5687C72.1067 14.3464 72.7417 16.4365 72.7417 18.5746C72.7398 21.4396 71.5998 24.1868 69.5718 26.2133C67.5438 28.2398 64.7935 29.38 61.9246 29.3837Z" fill="#3A646D"/>
</svg>
