<svg width="48" height="48" viewBox="0 0 48 48" fill="none" xmlns="http://www.w3.org/2000/svg">
<rect x="1" y="1" width="46" height="46" rx="23" fill="#F8BE2F" stroke="#F8F8F8" stroke-width="2"/>
<path d="M12.4979 33.67L12.0579 35.24C12.0546 35.25 12.0562 35.26 12.0629 35.27C12.0696 35.28 12.0779 35.285 12.0879 35.285H12.9179C12.9279 35.285 12.9362 35.28 12.9429 35.27C12.9496 35.26 12.9512 35.25 12.9479 35.24L12.5079 33.67C12.5079 33.6667 12.5062 33.665 12.5029 33.665C12.4996 33.665 12.4979 33.6667 12.4979 33.67ZM11.2029 36.7C11.1329 36.7 11.0779 36.6717 11.0379 36.615C10.9979 36.5583 10.9896 36.4967 11.0129 36.43L12.0479 33.32C12.0779 33.24 12.1262 33.175 12.1929 33.125C12.2629 33.075 12.3396 33.05 12.4229 33.05H12.6029C12.6896 33.05 12.7662 33.075 12.8329 33.125C12.9029 33.175 12.9512 33.24 12.9779 33.32L14.0129 36.43C14.0362 36.4967 14.0279 36.5583 13.9879 36.615C13.9479 36.6717 13.8929 36.7 13.8229 36.7H13.6429C13.5629 36.7 13.4879 36.675 13.4179 36.625C13.3512 36.5717 13.3062 36.505 13.2829 36.425L13.1229 35.86C13.1196 35.8333 13.1012 35.82 13.0679 35.82H11.9379C11.9079 35.82 11.8896 35.8333 11.8829 35.86L11.7229 36.425C11.7029 36.505 11.6579 36.5717 11.5879 36.625C11.5212 36.675 11.4462 36.7 11.3629 36.7H11.2029Z" fill="#047BE3"/>
<path d="M15.1995 33.62V34.825C15.1995 34.8483 15.2128 34.8633 15.2395 34.87C15.3662 34.8867 15.4895 34.895 15.6095 34.895C15.8795 34.895 16.0845 34.8367 16.2245 34.72C16.3678 34.6 16.4395 34.43 16.4395 34.21C16.4395 33.7667 16.1628 33.545 15.6095 33.545C15.4895 33.545 15.3662 33.5533 15.2395 33.57C15.2128 33.5767 15.1995 33.5933 15.1995 33.62ZM14.7895 36.7C14.7128 36.7 14.6462 36.6717 14.5895 36.615C14.5362 36.5583 14.5095 36.4917 14.5095 36.415V33.36C14.5095 33.28 14.5362 33.2083 14.5895 33.145C14.6428 33.0817 14.7095 33.0467 14.7895 33.04C15.0728 33.0133 15.3462 33 15.6095 33C16.1095 33 16.4845 33.1 16.7345 33.3C16.9845 33.4967 17.1095 33.7833 17.1095 34.16C17.1095 34.5767 16.9878 34.8917 16.7445 35.105C16.5045 35.3183 16.1478 35.425 15.6745 35.425C15.5645 35.425 15.4195 35.4183 15.2395 35.405C15.2128 35.405 15.1995 35.4183 15.1995 35.445V36.415C15.1995 36.4917 15.1712 36.5583 15.1145 36.615C15.0578 36.6717 14.9912 36.7 14.9145 36.7H14.7895Z" fill="#047BE3"/>
<path d="M18.5526 33.67L18.1126 35.24C18.1092 35.25 18.1109 35.26 18.1176 35.27C18.1242 35.28 18.1326 35.285 18.1426 35.285H18.9726C18.9826 35.285 18.9909 35.28 18.9976 35.27C19.0042 35.26 19.0059 35.25 19.0026 35.24L18.5626 33.67C18.5626 33.6667 18.5609 33.665 18.5576 33.665C18.5542 33.665 18.5526 33.6667 18.5526 33.67ZM17.2576 36.7C17.1876 36.7 17.1326 36.6717 17.0926 36.615C17.0526 36.5583 17.0442 36.4967 17.0676 36.43L18.1026 33.32C18.1326 33.24 18.1809 33.175 18.2476 33.125C18.3176 33.075 18.3942 33.05 18.4776 33.05H18.6576C18.7442 33.05 18.8209 33.075 18.8876 33.125C18.9576 33.175 19.0059 33.24 19.0326 33.32L20.0676 36.43C20.0909 36.4967 20.0826 36.5583 20.0426 36.615C20.0026 36.6717 19.9476 36.7 19.8776 36.7H19.6976C19.6176 36.7 19.5426 36.675 19.4726 36.625C19.4059 36.5717 19.3609 36.505 19.3376 36.425L19.1776 35.86C19.1742 35.8333 19.1559 35.82 19.1226 35.82H17.9926C17.9626 35.82 17.9442 35.8333 17.9376 35.86L17.7776 36.425C17.7576 36.505 17.7126 36.5717 17.6426 36.625C17.5759 36.675 17.5009 36.7 17.4176 36.7H17.2576Z" fill="#047BE3"/>
<path d="M21.2542 33.62V34.705C21.2542 34.7317 21.2692 34.745 21.2992 34.745H21.5492C22.1425 34.745 22.4392 34.5333 22.4392 34.11C22.4392 33.7333 22.1642 33.545 21.6142 33.545C21.5142 33.545 21.4092 33.5533 21.2992 33.57C21.2692 33.5767 21.2542 33.5933 21.2542 33.62ZM20.8492 36.7C20.7725 36.7 20.7058 36.6717 20.6492 36.615C20.5925 36.5583 20.5642 36.4917 20.5642 36.415V33.36C20.5642 33.28 20.5909 33.2083 20.6442 33.145C20.6975 33.0817 20.7642 33.0467 20.8442 33.04C21.1275 33.0133 21.4009 33 21.6642 33C22.1542 33 22.5209 33.0917 22.7642 33.275C23.0075 33.455 23.1292 33.71 23.1292 34.04C23.1292 34.2767 23.0642 34.485 22.9342 34.665C22.8075 34.845 22.6359 34.9717 22.4192 35.045C22.4159 35.045 22.4142 35.0467 22.4142 35.05C22.4142 35.0567 22.4159 35.06 22.4192 35.06C22.5792 35.16 22.7158 35.3567 22.8292 35.65L23.1292 36.435C23.1525 36.4983 23.1442 36.5583 23.1042 36.615C23.0675 36.6717 23.0159 36.7 22.9492 36.7H22.7942C22.7075 36.7 22.6292 36.6767 22.5592 36.63C22.4892 36.58 22.4392 36.515 22.4092 36.435L22.1292 35.665C22.0692 35.505 22.0009 35.4 21.9242 35.35C21.8475 35.3 21.7158 35.275 21.5292 35.275H21.2992C21.2692 35.275 21.2542 35.29 21.2542 35.32V36.415C21.2542 36.4917 21.2259 36.5583 21.1692 36.615C21.1159 36.6717 21.0509 36.7 20.9742 36.7H20.8492Z" fill="#047BE3"/>
<path d="M24.0181 36.7C23.9415 36.7 23.8748 36.6717 23.8181 36.615C23.7615 36.5583 23.7331 36.4917 23.7331 36.415V33.335C23.7331 33.2583 23.7615 33.1917 23.8181 33.135C23.8748 33.0783 23.9415 33.05 24.0181 33.05H25.7181C25.7948 33.05 25.8615 33.0783 25.9181 33.135C25.9748 33.1917 26.0031 33.2583 26.0031 33.335C26.0031 33.4117 25.9748 33.4783 25.9181 33.535C25.8615 33.5883 25.7948 33.615 25.7181 33.615H24.4781C24.4481 33.615 24.4331 33.63 24.4331 33.66V34.465C24.4331 34.495 24.4481 34.51 24.4781 34.51H25.6331C25.7098 34.51 25.7731 34.5367 25.8231 34.59C25.8765 34.6433 25.9031 34.7067 25.9031 34.78C25.9031 34.8533 25.8765 34.9167 25.8231 34.97C25.7731 35.02 25.7098 35.045 25.6331 35.045H24.4781C24.4481 35.045 24.4331 35.06 24.4331 35.09V36.09C24.4331 36.12 24.4481 36.135 24.4781 36.135H25.7181C25.7948 36.135 25.8615 36.1633 25.9181 36.22C25.9748 36.2733 26.0031 36.3383 26.0031 36.415C26.0031 36.4917 25.9748 36.5583 25.9181 36.615C25.8615 36.6717 25.7948 36.7 25.7181 36.7H24.0181Z" fill="#047BE3"/>
<path d="M28.1821 36.75C27.6554 36.75 27.2371 36.5883 26.9271 36.265C26.6204 35.9383 26.4671 35.475 26.4671 34.875C26.4671 34.2817 26.6154 33.8217 26.9121 33.495C27.2121 33.165 27.6304 33 28.1671 33C28.4138 33 28.6204 33.015 28.7871 33.045C28.8671 33.0583 28.9338 33.0983 28.9871 33.165C29.0404 33.2317 29.0671 33.3067 29.0671 33.39V33.43C29.0671 33.5 29.0371 33.555 28.9771 33.595C28.9204 33.635 28.8588 33.6467 28.7921 33.63C28.6288 33.5867 28.4454 33.565 28.2421 33.565C27.9121 33.565 27.6521 33.6783 27.4621 33.905C27.2754 34.1317 27.1821 34.455 27.1821 34.875C27.1821 35.2917 27.2788 35.615 27.4721 35.845C27.6688 36.0717 27.9304 36.185 28.2571 36.185C28.4771 36.185 28.6654 36.165 28.8221 36.125C28.8888 36.1083 28.9504 36.12 29.0071 36.16C29.0671 36.2 29.0971 36.255 29.0971 36.325V36.36C29.0971 36.4433 29.0704 36.5183 29.0171 36.585C28.9671 36.6483 28.9004 36.6867 28.8171 36.7C28.6271 36.7333 28.4154 36.75 28.1821 36.75Z" fill="#047BE3"/>
<path d="M30.2461 36.7C30.1694 36.7 30.1027 36.6717 30.0461 36.615C29.9894 36.5583 29.9611 36.4917 29.9611 36.415V33.335C29.9611 33.2583 29.9894 33.1917 30.0461 33.135C30.1027 33.0783 30.1694 33.05 30.2461 33.05H30.4461C30.5227 33.05 30.5894 33.0783 30.6461 33.135C30.7027 33.1917 30.7311 33.2583 30.7311 33.335V36.415C30.7311 36.4917 30.7027 36.5583 30.6461 36.615C30.5894 36.6717 30.5227 36.7 30.4461 36.7H30.2461Z" fill="#047BE3"/>
<path d="M32.3139 33.63V36.12C32.3139 36.1433 32.3272 36.1583 32.3539 36.165C32.4605 36.1817 32.5605 36.19 32.6539 36.19C33.0439 36.19 33.3305 36.085 33.5139 35.875C33.6972 35.6617 33.7889 35.3117 33.7889 34.825C33.7889 34.3883 33.6955 34.0683 33.5089 33.865C33.3222 33.6617 33.0372 33.56 32.6539 33.56C32.5605 33.56 32.4605 33.5683 32.3539 33.585C32.3272 33.5917 32.3139 33.6067 32.3139 33.63ZM31.9039 36.715C31.8205 36.705 31.7522 36.67 31.6989 36.61C31.6455 36.5467 31.6189 36.4733 31.6189 36.39V33.36C31.6189 33.2767 31.6455 33.205 31.6989 33.145C31.7522 33.0817 31.8205 33.045 31.9039 33.035C32.1172 33.0117 32.3555 33 32.6189 33C33.2122 33 33.6655 33.155 33.9789 33.465C34.2955 33.775 34.4539 34.2283 34.4539 34.825C34.4539 35.465 34.2955 35.9467 33.9789 36.27C33.6655 36.59 33.2122 36.75 32.6189 36.75C32.3555 36.75 32.1172 36.7383 31.9039 36.715Z" fill="#047BE3"/>
<path d="M36.1209 33.67L35.6809 35.24C35.6776 35.25 35.6793 35.26 35.6859 35.27C35.6926 35.28 35.7009 35.285 35.7109 35.285H36.5409C36.5509 35.285 36.5593 35.28 36.5659 35.27C36.5726 35.26 36.5743 35.25 36.5709 35.24L36.1309 33.67C36.1309 33.6667 36.1293 33.665 36.1259 33.665C36.1226 33.665 36.1209 33.6667 36.1209 33.67ZM34.8259 36.7C34.7559 36.7 34.7009 36.6717 34.6609 36.615C34.6209 36.5583 34.6126 36.4967 34.6359 36.43L35.6709 33.32C35.7009 33.24 35.7493 33.175 35.8159 33.125C35.8859 33.075 35.9626 33.05 36.0459 33.05H36.2259C36.3126 33.05 36.3893 33.075 36.4559 33.125C36.5259 33.175 36.5743 33.24 36.6009 33.32L37.6359 36.43C37.6593 36.4967 37.6509 36.5583 37.6109 36.615C37.5709 36.6717 37.5159 36.7 37.4459 36.7H37.2659C37.1859 36.7 37.1109 36.675 37.0409 36.625C36.9743 36.5717 36.9293 36.505 36.9059 36.425L36.7459 35.86C36.7426 35.8333 36.7243 35.82 36.6909 35.82H35.5609C35.5309 35.82 35.5126 35.8333 35.5059 35.86L35.3459 36.425C35.3259 36.505 35.2809 36.5717 35.2109 36.625C35.1443 36.675 35.0693 36.7 34.9859 36.7H34.8259Z" fill="#047BE3"/>
<path d="M23.2374 10.5422C23.2666 10.286 23.4834 10.0925 23.7412 10.0925C23.9983 10.0925 24.2148 10.2849 24.2448 10.5402L26.5484 30.0898C26.6062 30.5806 26.2174 31.0094 25.7233 30.9998L21.8122 30.9238C21.3321 30.9145 20.9641 30.494 21.0185 30.0169L23.2374 10.5422Z" fill="#047BE3"/>
<path fill-rule="evenodd" clip-rule="evenodd" d="M16.6782 28.8291C16.5579 28.7364 16.5101 28.5782 16.555 28.4331L22.2431 10.0809C22.4457 9.42711 23.0504 8.98141 23.735 8.98141C24.4166 8.98141 25.0195 9.42345 25.2245 10.0735L31.0082 28.4115C31.054 28.5566 31.0067 28.7153 30.8864 28.8085C30.1262 29.3977 29.2909 29.8947 28.3974 30.2828C28.1817 30.3764 27.9396 30.2381 27.9013 30.0062L24.6736 10.4532C24.6004 10.0101 24.2173 9.6851 23.7683 9.6851C23.3199 9.6851 22.9371 10.0092 22.8633 10.4516L19.6017 29.9916C19.5629 30.2237 19.3202 30.3615 19.1046 30.267C18.235 29.8859 17.4211 29.4014 16.6782 28.8291Z" fill="#047BE3"/>
<path d="M14.0654 26.1293L14.4914 26.7218L14.7321 27.0181C14.8387 27.1537 14.9542 27.1957 15.0614 27.1879C15.3401 27.1676 15.4662 26.847 15.562 26.5845L16.3432 24.4441L19.1394 17.148C20.0159 14.7838 21.7912 10.0074 21.8801 9.81478C21.9912 9.57404 22.4356 8.49999 23.8245 8.49999C24.9356 8.49999 25.5467 9.37652 25.7134 9.81478L27.5837 14.6851L29.4911 19.9072C30.3367 22.1602 32.0577 26.7441 32.1762 27.0552C32.2947 27.3663 32.4972 27.2712 32.5836 27.1848C32.7935 26.9564 33.2539 26.4478 33.4169 26.2404C33.5358 26.089 33.5371 25.8364 33.5099 25.6438C33.4926 25.5217 33.4468 25.4063 33.3957 25.294L27.8985 13.2221L26.1393 9.38886C25.9356 8.92591 25.1726 8 23.7504 8C22.3282 8 21.4418 9.28392 21.1764 9.92589C18.8555 15.0122 14.184 25.2515 14.0654 25.5182C13.9469 25.7848 14.0161 26.0367 14.0654 26.1293Z" fill="#047BE3"/>
</svg>
