<svg width="314" height="120" viewBox="0 0 314 120" fill="none" xmlns="http://www.w3.org/2000/svg">
<path d="M205.964 66.484C205.964 62.7272 209.141 60.125 212.897 60.125C216.94 60.125 220.118 62.7272 220.118 66.484C220.118 69.9528 216.94 72.843 212.897 72.843C209.141 72.843 205.964 69.9528 205.964 66.484Z" fill="#185242"/>
<path d="M241.784 105.507C241.784 109.554 243.228 110.422 245.538 109.265L247.271 118.805C238.316 120.827 229.362 120.538 229.362 107.531V61.5701H241.784V105.507Z" fill="#185242"/>
<path d="M219.252 119.094H206.83V78.0474H219.252V119.094Z" fill="#185242"/>
<path d="M190.076 94.5234L185.165 92.4998C179.098 90.4761 181.121 84.9837 188.054 87.0073L194.12 90.1881L199.608 82.3827C179.676 66.484 156.566 89.6095 178.521 101.461L185.165 103.774C188.632 104.93 190.365 109.554 185.165 110.133C181.699 110.422 177.943 109.265 173.899 106.086L167.833 113.89C192.098 132.68 214.052 102.906 190.076 94.5234Z" fill="#185242"/>
<path fill-rule="evenodd" clip-rule="evenodd" d="M161.766 119.094V95.6793C161.477 85.2729 157.144 79.7805 149.922 77.4688C144.146 76.6023 137.213 77.1796 127.68 82.3827L132.59 90.7654C143.857 84.1171 149.346 86.7181 149.346 92.4998C130.858 92.4998 124.791 102.906 126.814 110.711C128.836 117.937 139.523 124.008 150.501 114.757L151.657 119.094H161.766ZM149.346 100.015C140.679 101.172 136.635 103.774 139.235 108.398C141.834 110.999 145.301 111.289 149.346 106.664V100.015Z" fill="#185242"/>
<path d="M123.925 89.031L125.946 77.7581L125.581 77.7001C120.202 76.8443 114.553 75.9457 108.904 85.273L108.615 78.0461H98.5038V119.094H110.925V95.6793C113.526 88.1632 118.147 87.0073 123.925 89.031Z" fill="#185242"/>
<path fill-rule="evenodd" clip-rule="evenodd" d="M71.9284 119.094C82.6169 119.094 91.283 112.445 91.283 104.64C91.283 97.7029 87.8165 91.9212 80.0164 90.4761C84.927 88.7417 88.3947 84.1171 88.3947 78.3354C88.3947 71.3979 80.8836 65.6174 73.6616 65.6174H50.2637V119.094H71.9284ZM78.8613 102.328C78.8613 98.8587 75.973 95.6793 72.2175 95.6793H62.6841V108.976H72.2175C75.973 108.976 78.8613 105.796 78.8613 102.328ZM70.7733 86.4288H62.6841V75.4452H70.7733C73.9507 75.4452 76.5499 77.7581 76.5499 80.9376C76.5499 84.1171 73.9507 86.4288 70.7733 86.4288Z" fill="#185242"/>
<path d="M27.7317 99.4373L23.398 84.1171H16.7541L23.9761 105.507H31.4872L38.7092 84.1171H32.0654L27.7317 99.4373Z" fill="#185242"/>
<path d="M14.444 84.1171L16.1772 89.031H9.82122V95.39C9.82122 99.148 9.82122 101.461 14.7318 100.015L15.8881 105.796C5.48877 107.531 3.17738 103.774 3.17738 100.015V89.031H0V84.1171H3.17738L4.04462 78.0461H9.82122V84.1171H14.444Z" fill="#185242"/>
<path fill-rule="evenodd" clip-rule="evenodd" d="M273.559 87.5858C294.356 60.7022 307.067 41.9145 314 28.618C300.423 11.5621 281.358 1.44511 255.071 0C269.225 15.8987 278.759 39.6016 273.559 87.5858Z" fill="#FFD600"/>
<path fill-rule="evenodd" clip-rule="evenodd" d="M227.339 31.5082C250.16 35.2662 264.603 55.7896 273.558 87.587C278.758 39.6016 269.226 15.8987 255.071 0C244.672 9.25046 235.14 20.5233 227.339 31.5082Z" fill="#108439"/>
</svg>
