<svg width="48" height="48" viewBox="0 0 48 48" fill="none" xmlns="http://www.w3.org/2000/svg">
<rect x="1" y="1" width="46" height="46" rx="23" fill="white" stroke="#F8F8F8" stroke-width="2"/>
<path fill-rule="evenodd" clip-rule="evenodd" d="M23.3946 12C18.2183 12 14.0222 16.196 14.0222 21.3723C14.0222 26.5486 18.2183 30.7448 23.3946 30.7448C28.5708 30.7448 32.7669 26.5486 32.7669 21.3723C32.7669 16.196 28.5708 12 23.3946 12ZM33.454 35.9535H34.0069L32.9991 33.2278H32.4615L31.4812 35.9535H32.0205L32.2282 35.3343H33.2343L33.454 35.9535ZM33.0711 34.8751L32.7243 33.8637L32.3843 34.8751H33.0711ZM31.4623 35.9535L31.1551 35.4217C31.0337 35.2098 30.9372 35.0623 30.8657 34.9792C30.7942 34.8962 30.7034 34.8202 30.5935 34.7506C30.8145 34.716 30.9805 34.632 31.0915 34.4988C31.2026 34.3654 31.258 34.1966 31.258 33.992C31.258 33.8309 31.2215 33.6877 31.1482 33.5626C31.0748 33.4372 30.9774 33.3503 30.8555 33.3014C30.7335 33.2523 30.538 33.2278 30.2691 33.2278H29.1994V35.9535H29.7077V34.8155H29.8108C29.9274 34.8155 30.0126 34.8258 30.0665 34.8463C30.1202 34.8668 30.1711 34.9045 30.2192 34.9598C30.2672 35.0148 30.3566 35.1485 30.4872 35.3603L30.8546 35.9535H31.4623ZM30.5405 34.3471C30.6009 34.3248 30.6485 34.2865 30.6829 34.2318C30.7172 34.1774 30.7345 34.1091 30.7345 34.0272C30.7345 33.9357 30.7117 33.8615 30.6665 33.8051C30.6214 33.7488 30.5575 33.7131 30.4751 33.6983C30.4338 33.6922 30.3103 33.6889 30.1043 33.6889H29.7077V34.3806H30.0837C30.3274 34.3806 30.4797 34.3695 30.5405 34.3471ZM28.9282 35.9535L27.9205 33.2278H27.3828L26.4025 35.9535H26.9417L27.1494 35.3343H28.1555L28.3754 35.9535H28.9282ZM27.9923 34.8751L27.6455 33.8637L27.3055 34.8751H27.9923ZM24.4831 33.2278L24.9397 35.0871L25.3912 33.2278H26.1537V35.9535H25.6814V33.8078L25.1818 35.9535H24.6925L24.1945 33.8078V35.9535H23.7223V33.2278H24.4831ZM22.4518 33.2278L23.4597 35.9535H22.9068L22.6871 35.3343H21.6809L21.4732 35.9535H20.934L21.9143 33.2278H22.4518ZM22.1771 33.8637L22.5238 34.8751H21.8372L22.1771 33.8637ZM21.5968 33.0717H21.9865L22.172 32.7948L22.3711 33.0717H22.7591L22.4038 32.5232H21.9574L21.5968 33.0717ZM19.7029 35.5295C19.838 35.5295 19.9542 35.4831 20.0515 35.3903C20.1488 35.2972 20.2186 35.1509 20.2609 34.9514L20.7538 35.1206C20.6782 35.418 20.5525 35.6391 20.3769 35.7834C20.2011 35.9278 19.9782 36 19.7082 36C19.374 36 19.0992 35.8765 18.884 35.6291C18.6688 35.3818 18.5612 35.0438 18.5612 34.6149C18.5612 34.1612 18.6694 33.8088 18.8857 33.5578C19.102 33.3069 19.3865 33.1814 19.7391 33.1814C20.0469 33.1814 20.2971 33.28 20.4894 33.4769C20.6038 33.5935 20.6897 33.7608 20.7469 33.9789L20.2438 34.1091C20.214 33.9678 20.152 33.8563 20.0575 33.7745C19.9631 33.6926 19.8483 33.6517 19.7132 33.6517C19.5268 33.6517 19.3754 33.7245 19.2592 33.8692C19.1429 34.0142 19.0848 34.2492 19.0848 34.5738C19.0848 34.9185 19.1422 35.164 19.2566 35.3102C19.3709 35.4565 19.5198 35.5295 19.7029 35.5295ZM16.2588 35.2451L15.6218 33.2278H15.0708L15.9705 35.9535H16.5129L17.4143 33.2278H16.8752L16.2588 35.2451ZM13.7469 33.6889H13V33.2278H15.0003V33.6889H14.2551V35.9535H13.7469V33.6889Z" fill="#127B81"/>
<path fill-rule="evenodd" clip-rule="evenodd" d="M29.0054 20.989C29.0054 20.989 29.3302 25.6469 24.5385 26.6377V21.0278H23.1328L23.1334 27.9818C23.1334 27.9818 30.0287 28.4284 30.3213 21.0052L29.0054 20.989Z" fill="white"/>
<path fill-rule="evenodd" clip-rule="evenodd" d="M16.7334 22.1993H20.669V27.9882H21.9094V21.0277H16.7179L16.7334 22.1993Z" fill="white"/>
</svg>
