<svg width="48" height="48" viewBox="0 0 48 48" fill="none" xmlns="http://www.w3.org/2000/svg">
<rect x="1" y="1" width="46" height="46" rx="23" fill="white" stroke="#F8F8F8" stroke-width="2"/>
<path fill-rule="evenodd" clip-rule="evenodd" d="M43.3329 25.9802C43.4348 26.223 43.6072 26.3171 43.803 26.2348C43.9912 26.1564 44.05 25.9604 43.956 25.7215C43.8097 25.35 43.6612 24.9809 43.5122 24.6105L43.5121 24.6103L43.3838 24.2914L43.3716 24.2608L43.3709 24.2591L43.3707 24.2586C43.0499 23.4545 42.729 22.6504 42.4042 21.8464C42.3025 21.5918 42.0948 21.4978 41.8988 21.6074C41.7893 21.6701 41.7462 21.7795 41.703 21.8892L41.7029 21.8895C41.5631 22.239 41.423 22.5884 41.2828 22.938L41.2816 22.9411L41.2813 22.9417C40.9505 23.7667 40.6195 24.5923 40.2924 25.4198C40.2414 25.5451 40.1865 25.5883 40.0533 25.5843C39.5284 25.5766 39.0073 25.5766 38.4861 25.5843C38.3489 25.5843 38.3176 25.5491 38.3176 25.4119C38.3235 24.5631 38.3228 23.7143 38.322 22.8656C38.3218 22.5859 38.3216 22.3063 38.3216 22.0267L38.3199 21.9891C38.3171 21.9233 38.3144 21.858 38.298 21.7955C38.2538 21.6363 38.1181 21.5475 37.9773 21.5492C37.8929 21.5503 37.8068 21.5839 37.7377 21.6544C37.6476 21.7444 37.6398 21.862 37.6398 21.9796V23.8995V25.7999C37.6398 26.1564 37.7417 26.2583 38.0904 26.2583C38.8544 26.2583 39.6145 26.2583 40.3786 26.2622C40.5902 26.266 40.7234 26.1799 40.7978 25.984C40.8622 25.8144 40.9295 25.6466 40.9968 25.4789C41.0647 25.3096 41.1325 25.1404 41.1974 24.9692C41.2366 24.8672 41.2876 24.832 41.3973 24.832C41.8401 24.8399 42.2868 24.8399 42.7296 24.832C42.8354 24.828 42.8862 24.8634 42.9254 24.9654C43.0251 25.228 43.1317 25.4884 43.2381 25.7482L43.2382 25.7483L43.2389 25.7501C43.2703 25.8268 43.3017 25.9035 43.3329 25.9802ZM42.2831 23.3621C42.3766 23.5968 42.4675 23.8252 42.561 24.0523C42.5964 24.1346 42.5649 24.1543 42.4865 24.1543C42.2957 24.1516 42.1032 24.1525 41.9112 24.1534H41.9112L41.9111 24.1534C41.8154 24.1538 41.7198 24.1543 41.6246 24.1543C41.5501 24.1543 41.5345 24.1346 41.5658 24.0602C41.7084 23.7105 41.8481 23.3579 41.995 22.9871L42.0636 22.8142C42.1396 23.0017 42.212 23.1836 42.283 23.3617L42.2831 23.3621ZM37.4282 23.9035C37.4321 25.2083 36.4173 26.2504 35.1361 26.2544C33.847 26.2544 32.8282 25.2278 32.8244 23.923C32.8204 22.6183 33.8392 21.5722 35.1164 21.5683C36.3937 21.5643 37.4244 22.6066 37.4282 23.9035ZM36.7502 23.9191C36.7542 22.9944 36.0254 22.246 35.1202 22.246C34.2113 22.2499 33.4982 22.9866 33.5022 23.923C33.5061 24.8438 34.227 25.5804 35.1242 25.5804C36.0177 25.5804 36.7464 24.836 36.7502 23.9191ZM32.1621 24.8712C32.2601 24.7302 32.3854 24.6754 32.55 24.7184C32.7028 24.7576 32.7734 24.8712 32.7929 25.0162C32.8085 25.126 32.7498 25.216 32.6872 25.3023C32.2601 25.9018 31.5705 26.2544 30.8104 26.2544C29.6349 26.2935 28.4398 25.2082 28.526 23.7388C28.6005 22.4968 29.7289 21.482 30.9828 21.576C31.7037 21.6308 32.2718 21.96 32.6912 22.5438C32.8361 22.7436 32.8204 22.9435 32.6597 23.061C32.4952 23.1824 32.2914 23.1316 32.1425 22.9318C31.6606 22.2852 30.8534 22.0658 30.1598 22.391C29.4429 22.724 29.0629 23.5272 29.247 24.3188C29.4233 25.0711 30.1208 25.6118 30.8966 25.5804C31.4333 25.557 31.8526 25.3062 32.1621 24.8712ZM27.5348 23.7506C27.4093 23.7036 27.2761 23.6644 27.1469 23.6212C26.9392 23.5508 26.7237 23.492 26.5198 23.4058C26.2534 23.2922 26.1516 23.065 26.2104 22.7828C26.277 22.4772 26.5552 22.246 26.9038 22.2186C27.2644 22.1911 27.574 22.391 27.711 22.7436C27.8089 22.9944 27.954 23.0767 28.1538 23.0023C28.3458 22.9318 28.4045 22.7515 28.3184 22.5124C28.1145 21.9443 27.617 21.5878 27.0057 21.5682C26.3122 21.5447 25.6932 22.0148 25.5678 22.6496C25.4346 23.3274 25.7558 23.8328 26.4885 24.0954C26.755 24.1934 27.0332 24.2716 27.3036 24.3619C27.5348 24.4402 27.7032 24.5695 27.7268 24.8399C27.7502 25.1219 27.6326 25.3335 27.4016 25.4824C26.9705 25.7567 26.3945 25.5648 26.132 25.0671C26.0224 24.8555 25.85 24.7811 25.6736 24.8712C25.4933 24.9575 25.4424 25.1378 25.5481 25.3532C25.842 25.937 26.324 26.2268 26.9705 26.2544C27.1508 26.2622 27.3232 26.2268 27.4916 26.1682C28.0166 25.9722 28.3732 25.4864 28.381 24.9495C28.3889 24.358 28.1264 23.9858 27.5348 23.7506ZM23.4754 22.2814C24.0005 22.2891 24.5216 22.2852 25.0426 22.2852C25.3132 22.2852 25.4738 22.1559 25.4697 21.9404C25.4658 21.7327 25.3132 21.6112 25.0468 21.6112H23.068C22.7545 21.6112 22.6486 21.7171 22.6486 22.0344V23.9152C22.6486 24.5656 22.6448 25.22 22.6486 25.8743C22.6526 26.1368 22.7624 26.2583 23.0132 26.2583C23.7144 26.2622 24.412 26.2583 25.1093 26.2583C25.1956 26.2583 25.2778 26.2466 25.3445 26.1838C25.4541 26.082 25.4972 25.9604 25.4464 25.8156C25.3916 25.6471 25.2622 25.5882 25.0976 25.5882C24.5688 25.5882 24.0397 25.5804 23.5108 25.5922C23.3422 25.596 23.307 25.5412 23.3148 25.3846C23.3265 25.0788 23.3265 24.7694 23.3148 24.4638C23.3109 24.307 23.3462 24.2522 23.5146 24.256C23.9457 24.2716 24.3766 24.2639 24.8077 24.26C25.0309 24.256 25.1641 24.1307 25.1682 23.9348C25.1682 23.7232 25.027 23.59 24.7802 23.59C24.3414 23.586 23.9065 23.5822 23.4677 23.59C23.3501 23.5939 23.3109 23.5664 23.3148 23.4411C23.3226 23.108 23.3226 22.775 23.3148 22.4419C23.3109 22.3166 23.3462 22.2814 23.4754 22.2814ZM22.1393 21.9443C21.6457 23.3 21.156 24.6598 20.67 26.0192C20.6269 26.1368 20.58 26.2427 20.4349 26.2427C20.29 26.2427 20.239 26.1328 20.1998 26.0192C19.7374 24.7419 19.2752 23.4606 18.8206 22.1834C18.7776 22.0658 18.7384 22.0031 18.5934 22.0148C18.3661 22.0306 18.135 22.0267 17.9077 22.0148C17.7745 22.0071 17.751 22.0579 17.751 22.1795C17.7549 23.394 17.7549 24.6087 17.7549 25.8234V25.9802C17.7549 26.129 17.6961 26.2466 17.5356 26.2427C17.3749 26.2427 17.32 26.129 17.32 25.9762C17.324 25.1338 17.32 24.2914 17.32 23.449C17.32 23.0258 17.3161 22.5987 17.324 22.1755C17.3278 22.0462 17.2848 22.011 17.1593 22.0148C16.8733 22.0227 16.5833 22.0187 16.2973 22.0187C16.1014 22.0187 15.9838 21.9366 15.9956 21.7955C16.0113 21.6074 16.1445 21.5799 16.3052 21.5799C17.1358 21.5839 17.9626 21.5878 18.7932 21.576C19.0009 21.572 19.0988 21.6544 19.1616 21.8386C19.5573 22.9552 19.9609 24.068 20.3605 25.1808C20.388 25.2356 20.3918 25.2984 20.4506 25.3414C20.8072 24.35 21.1638 23.3588 21.5202 22.3675C21.5869 22.1795 21.6534 21.9875 21.7241 21.7994C21.7945 21.6112 21.9082 21.533 22.0374 21.5956C22.1942 21.67 22.1942 21.7994 22.1393 21.9443Z" fill="#12110E"/>
<path fill-rule="evenodd" clip-rule="evenodd" d="M11.3369 28.5975C8.65679 29.0363 6.23533 27.3319 5.74159 24.6557C5.69853 24.4284 5.66733 24.1935 5.69066 23.9348C6.03946 24.1699 6.38826 24.3776 6.76813 24.5068C6.94853 24.5695 7.02679 24.6675 7.08559 24.8439C7.56359 26.2544 8.50013 27.1556 9.99293 27.4337C11.5759 27.7276 13.2881 26.7676 13.868 25.2631C14.0052 24.9104 13.8563 24.5421 13.5232 24.3932C13.1744 24.2404 12.7945 24.3853 12.6339 24.7576C12.3124 25.5059 11.7521 25.9448 10.9725 26.1093C10.0283 26.3092 8.95079 25.7764 8.57853 24.9261H8.98199C10.1692 24.93 11.2507 24.6008 12.1715 23.8368C13.0843 23.0767 13.2216 21.8935 12.5163 21.0353C12.0892 20.5181 11.5172 20.2635 10.8627 20.2164C9.11919 20.0871 7.75573 20.9725 7.12479 22.6104C7.11693 22.6339 7.10519 22.6575 7.09346 22.6809C7.09026 22.6872 7.08466 22.6917 7.08106 22.6975C7.05853 22.7787 7.03373 22.8627 7.01893 22.9435C6.99159 23.1197 6.90146 23.1159 6.77213 23.0415C6.45079 22.8612 6.17266 22.63 5.90626 22.34C5.73386 22.8573 5.66733 23.3588 5.67119 23.8721C5.58106 23.8837 5.54186 23.8212 5.49493 23.7859C4.78559 23.2217 4.30759 22.4968 4.03719 21.6348C3.91586 21.2391 4.09999 20.8708 4.46426 20.7571C4.82866 20.6473 5.17346 20.8355 5.30279 21.2273C5.43213 21.6192 5.61226 21.9835 5.89453 22.3205C6.15306 21.6465 6.48613 21.0353 6.98386 20.5299C7.69293 19.7501 8.57453 19.2643 9.60506 19.0801C12.2537 18.61 14.6675 20.2516 15.2276 22.8808C15.788 25.502 13.9737 28.1665 11.3369 28.5975Z" fill="#F29006"/>
<path fill-rule="evenodd" clip-rule="evenodd" d="M8.98593 23.6057C8.79793 23.5939 8.60993 23.5821 8.4178 23.5703C8.30807 23.5626 8.261 23.5234 8.27687 23.3979C8.41007 22.4577 9.26033 21.6426 10.2123 21.5369C10.4866 21.5055 10.761 21.5015 11.0274 21.5878C11.3134 21.6779 11.5523 21.8267 11.6229 22.1481C11.6857 22.4537 11.5054 22.6613 11.2938 22.8338C10.7531 23.2726 10.1222 23.4998 9.43273 23.5743C9.28367 23.5978 9.13487 23.5978 8.98593 23.6057Z" fill="#F29006"/>
</svg>
