<svg width="48" height="48" viewBox="0 0 48 48" fill="none" xmlns="http://www.w3.org/2000/svg">
<rect x="1" y="1" width="46" height="46" rx="23" fill="white" stroke="#F8F8F8" stroke-width="2"/>
<path fill-rule="evenodd" clip-rule="evenodd" d="M37.7972 31.638H38.6499L39.9768 34.8225H39.0544L38.8107 34.2526L37.6056 34.2395L37.3925 34.8181H36.4658L37.7972 31.638ZM38.2148 32.6342L37.8625 33.5652H38.567L38.2148 32.6342Z" fill="#1497D4"/>
<path fill-rule="evenodd" clip-rule="evenodd" d="M34.9388 33.9872C34.8344 34.0916 34.6822 34.1437 34.4819 34.1437C34.2733 34.1437 34.1123 34.0784 33.9992 33.9525C33.8859 33.8219 33.8251 33.587 33.8251 33.2389C33.8251 32.9605 33.8729 32.7517 33.9686 32.6211C34.0947 32.4427 34.2776 32.3556 34.5167 32.3556C34.6212 32.3556 34.7169 32.3774 34.8038 32.4166C34.891 32.4558 34.9606 32.5123 35.0216 32.5862C35.0563 32.6299 35.0911 32.6994 35.126 32.7951L36.057 32.6037C35.935 32.2731 35.7524 32.0294 35.5087 31.8684C35.2606 31.7075 34.9257 31.6291 34.4951 31.6291C33.9468 31.6291 33.5205 31.7684 33.2203 32.0468C32.92 32.3252 32.7678 32.7211 32.7678 33.2389C32.7678 33.6261 32.8548 33.948 33.0244 34.196C33.1942 34.444 33.3987 34.6181 33.6337 34.718C33.7642 34.7746 33.9163 34.8137 34.0904 34.8356L33.7336 35.2924L34.3864 35.5882L34.656 34.8661H34.6733C34.9214 34.8573 35.1303 34.8181 35.3044 34.7484C35.5043 34.6659 35.6697 34.5484 35.8001 34.3874C35.935 34.2266 36.0308 34.0307 36.0918 33.7913L35.1651 33.5347C35.1171 33.7306 35.0432 33.8828 34.9388 33.9872Z" fill="#1497D4"/>
<path fill-rule="evenodd" clip-rule="evenodd" d="M31.0756 34.8182H32.1326V31.6858H31.0756V34.8182Z" fill="#1497D4"/>
<path fill-rule="evenodd" clip-rule="evenodd" d="M28.4259 32.4558V34.8138H29.4789V32.4558H30.5578V31.6858H27.347V32.4558H28.4259Z" fill="#1497D4"/>
<path fill-rule="evenodd" clip-rule="evenodd" d="M26.4856 32.9866C26.2856 32.8952 25.9548 32.7995 25.4936 32.7081C25.3066 32.6732 25.1892 32.6341 25.1413 32.5906C25.089 32.5515 25.063 32.5079 25.063 32.4558C25.063 32.3863 25.0934 32.3295 25.1545 32.2817C25.2154 32.2338 25.311 32.2122 25.4328 32.2122C25.5807 32.2122 25.6982 32.2426 25.7853 32.3079C25.8679 32.3731 25.9243 32.4731 25.9504 32.6168L26.9468 32.5645C26.9033 32.2384 26.7684 32.0033 26.5378 31.8554C26.3072 31.7076 25.9766 31.6336 25.5415 31.6336C25.1849 31.6336 24.9064 31.6727 24.7018 31.7554C24.4974 31.8379 24.3452 31.951 24.245 32.0948C24.1449 32.2384 24.0928 32.3906 24.0928 32.5515C24.0928 32.795 24.193 32.9996 24.393 33.1561C24.5887 33.3128 24.9195 33.4389 25.3848 33.5348C25.6678 33.5914 25.846 33.6521 25.9243 33.7174C26.0028 33.7827 26.0419 33.8523 26.0419 33.9349C26.0419 34.022 26.0028 34.096 25.92 34.1613C25.8373 34.2265 25.7244 34.2569 25.5721 34.2569C25.3719 34.2569 25.2154 34.1917 25.1064 34.0655C25.0412 33.9873 24.9933 33.874 24.9717 33.7217L23.9666 33.7783C23.997 34.096 24.1234 34.3569 24.3452 34.5614C24.567 34.766 24.9717 34.8704 25.5503 34.8704C25.8809 34.8704 26.155 34.8268 26.3725 34.7398C26.59 34.6529 26.7597 34.5223 26.8814 34.3526C27.0034 34.1829 27.0643 34.0002 27.0643 33.7957C27.0643 33.6261 27.0207 33.4693 26.9294 33.3302C26.8293 33.1952 26.6858 33.0778 26.4856 32.9866Z" fill="#1497D4"/>
<path fill-rule="evenodd" clip-rule="evenodd" d="M22.3917 33.5957C22.3917 33.7697 22.3396 33.9044 22.2351 33.9959C22.1307 34.0874 21.9915 34.1394 21.8088 34.1394C21.626 34.1394 21.4824 34.0916 21.3781 33.9959C21.2736 33.9002 21.2213 33.7654 21.2213 33.5957V31.6858H20.1685V33.5522C20.1685 33.7044 20.2033 33.8828 20.2642 34.0828C20.3033 34.2047 20.3817 34.3264 20.4905 34.444C20.5993 34.5614 20.7211 34.6528 20.8517 34.7136C20.9821 34.7789 21.1475 34.818 21.3433 34.8399C21.539 34.8616 21.7217 34.8704 21.8871 34.8704C22.1742 34.8704 22.4221 34.8355 22.6267 34.766C22.7746 34.718 22.9137 34.6311 23.0488 34.5048C23.1835 34.3831 23.2835 34.2396 23.3445 34.0742C23.4054 33.909 23.4403 33.7348 23.4403 33.5522V31.6858H22.3874V33.5957H22.3917Z" fill="#1497D4"/>
<path fill-rule="evenodd" clip-rule="evenodd" d="M18.4066 33.613C18.4066 33.8045 18.3803 33.9392 18.324 34.0177C18.2674 34.0959 18.1804 34.1395 18.0628 34.1395C17.9888 34.1395 17.9325 34.1264 17.8888 34.1002C17.8279 34.0611 17.7887 34.0045 17.7628 33.9392C17.7366 33.874 17.7235 33.7696 17.7235 33.6305L16.7142 33.7565C16.7317 34.0002 16.7925 34.2004 16.8969 34.3656C17.0013 34.531 17.1448 34.6573 17.3364 34.7398C17.5278 34.8268 17.7932 34.866 18.1368 34.866C18.463 34.866 18.7286 34.8007 18.9374 34.6701C19.1462 34.5397 19.2855 34.383 19.3551 34.1961C19.4246 34.0089 19.4595 33.7392 19.4595 33.3825V31.6814H18.4022V33.613H18.4066Z" fill="#1497D4"/>
<path fill-rule="evenodd" clip-rule="evenodd" d="M13.7819 34.8138L15.0522 31.6857H13.9777L13.2207 33.9349L12.4507 31.6857H11.3499L12.6376 34.8138H13.7819Z" fill="#1497D4"/>
<path fill-rule="evenodd" clip-rule="evenodd" d="M8 31.6857V32.4558H9.07453V34.8138H10.1317V32.4558H11.2064V31.6857H8Z" fill="#1497D4"/>
<path fill-rule="evenodd" clip-rule="evenodd" d="M23.9884 13C19.3028 13 15.5004 16.798 15.5004 21.488C15.5004 23.8591 16.4706 25.9995 18.0367 27.5396L20.4383 25.1729L20.4862 25.1381C19.5246 24.2201 18.9288 22.9278 18.9288 21.4923C18.9288 18.7254 21.1779 16.4499 23.945 16.4283C26.7727 16.4021 29.0699 18.6992 29.0437 21.5271C29.0221 24.2723 26.7815 26.5128 24.0362 26.5389C22.8659 26.5519 21.7827 26.1604 20.9213 25.5036L20.8866 25.5514L18.511 27.9617C19.9901 29.2102 21.9001 29.9672 23.9884 29.9672C28.674 29.9672 32.4764 26.1692 32.4764 21.4793C32.4764 16.7893 28.674 13 23.9884 13Z" fill="#054A85"/>
<path fill-rule="evenodd" clip-rule="evenodd" d="M27.0295 16.9808H30.4054L30.4662 22.332C30.4662 22.332 30.8536 26.1736 27.1513 28.6315C27.1513 28.6315 23.3314 31.2551 19.0461 27.9659L21.2692 25.6906C21.2692 25.6906 27.1294 28.8969 27.0033 20.8309L27.0295 16.9808Z" fill="white"/>
<path fill-rule="evenodd" clip-rule="evenodd" d="M26.4899 16.9808H29.8659V22.4451C29.8659 22.4451 30.3184 26.1693 26.6118 28.6273C26.6118 28.6273 22.7919 31.2507 18.5067 27.9616L20.9169 25.4949C20.9169 25.4949 26.5899 28.8926 26.4639 20.8266L26.4899 16.9808Z" fill="#9ED4EE"/>
</svg>
