<svg width="48" height="48" viewBox="0 0 48 48" fill="none" xmlns="http://www.w3.org/2000/svg">
<rect x="1" y="1" width="46" height="46" rx="23" fill="white" stroke="#F8F8F8" stroke-width="2"/>
<path fill-rule="evenodd" clip-rule="evenodd" d="M24.0151 12C17.3697 12 12 17.146 12 23.486C12 29.826 17.3697 35 24.0151 35C30.6306 35 36 29.8543 36 23.486C36 17.146 30.6306 12 24.0151 12ZM24.1929 33.1806C21.7605 33.2092 19.387 32.413 17.5181 30.8778V22.7467H21.8195C23.125 22.7467 24.1929 23.7704 24.1929 25.0213V33.1806ZM21.8195 21.979C23.125 21.979 24.1929 20.9556 24.1929 19.7045V15.4683H20.6922C19.0903 15.4683 17.5181 16.9755 17.5181 18.5105V21.979H21.8195ZM24.9939 15.4683H25.4984C29.1472 15.4683 32.114 18.3117 32.114 21.8086V21.979H27.3674C26.0619 21.979 24.9939 20.9556 24.9939 19.7045V15.4683ZM32.1435 22.9171H32.173V22.7467H27.3969C26.0914 22.7467 25.0237 23.7704 25.0237 25.0213V29.2574H25.5279C29.1767 29.2574 32.1435 26.4143 32.1435 22.9171Z" fill="#FD7E14"/>
</svg>
