<svg width="93" height="120" viewBox="0 0 93 120" fill="none" xmlns="http://www.w3.org/2000/svg">
<g clip-path="url(#clip0_2509_12800)">
<path d="M46.8023 31.8658C49.7379 31.8406 52.7727 32.6528 55.6137 34.2363C57.7276 35.4144 59.5181 36.9956 61.0763 38.8779C63.1773 41.4259 64.4613 44.3687 65.1289 47.6006C65.2978 48.507 65.3915 49.4264 65.4091 50.349C65.4394 51.1168 65.5153 51.887 65.4943 52.656C65.3881 56.6653 64.243 60.2919 61.7778 63.453C59.9622 65.7855 57.6411 67.6495 54.9997 68.8958C53.1984 69.765 51.2749 70.3363 49.3002 70.5886C48.1563 70.7325 47.0124 70.8801 45.8627 70.8105C43.3485 70.6593 40.9078 70.1783 38.5675 69.1538C35.938 68.0014 33.594 66.2565 31.7089 64.048C30.3876 62.5331 29.3546 60.7768 28.6636 58.8703C28.0563 57.1369 27.6889 55.3245 27.5722 53.4862C27.481 52.0683 27.5087 50.6451 27.6551 49.2321C27.8949 46.7499 28.6186 44.3427 29.7829 42.1541C30.9919 39.8515 32.6342 37.8189 34.6144 36.1746C36.5946 34.5303 38.8731 33.307 41.3175 32.576C42.3311 32.2698 43.372 32.0688 44.4247 31.9762C45.1203 31.9126 45.8078 31.9006 46.8023 31.8658Z" fill="#F53319"/>
<path d="M3.32198 72.7207C10.1257 82.3312 19.1531 88.759 30.062 92.3616C41.0094 95.9774 52.042 95.9714 62.9906 92.346C73.8797 88.7398 82.858 82.2784 89.7108 72.7735C89.0622 74.3946 88.3217 75.9753 87.4931 77.5074C86.6724 79.0474 85.7635 80.536 84.7711 81.9653C83.8186 83.3473 82.7868 84.6693 81.727 85.971C80.3263 87.6985 78.9081 89.4164 77.3102 90.9556C74.9979 93.1846 72.5047 95.176 69.7524 96.8087C66.4176 98.7882 62.8319 100.123 59.0944 100.988C56.8919 101.498 54.659 101.911 52.4202 102.241C49.48 102.673 46.5316 102.641 43.5902 102.541C41.2557 102.46 38.9294 102.052 36.6288 101.527C34.3551 101.008 32.1712 100.235 29.9639 99.4984C28.114 98.8904 26.3091 98.1463 24.5632 97.2718C22.5995 96.2932 20.7465 95.0955 19.0375 93.7004C17.2909 92.2787 15.6405 90.7363 14.0978 89.0841C11.7634 86.5528 9.51646 83.9628 7.62905 81.0464C5.95319 78.4427 4.49516 75.6976 3.27062 72.8407C3.26479 72.8275 3.28463 72.8047 3.32198 72.7207Z" fill="#1B50A9"/>
<path d="M89.7411 29.7723C82.872 20.2638 73.8669 13.8276 62.9614 10.2178C51.9977 6.59238 40.9545 6.59838 29.9826 10.2454C19.0982 13.8623 10.1537 20.3405 3.29861 29.8191C3.74566 28.4347 4.41215 27.1678 5.07047 25.9058C6.43262 23.2965 7.9757 20.8036 9.7989 18.4991C11.0735 16.8879 12.3481 15.2803 13.7091 13.7388C15.7343 11.4438 18.0033 9.46197 20.4382 7.64808C22.3284 6.24721 24.3565 5.05421 26.4891 4.08869C28.9743 2.96825 31.5657 2.11552 34.222 1.54419C36.1351 1.12311 38.0551 0.744019 39.9787 0.379321C40.8378 0.217366 41.7296 0.225772 42.5968 0.117802C44.1201 -0.0693452 45.6468 0.0338259 47.1712 -0.00216402C49.7029 -0.0537496 52.1961 0.253361 54.6881 0.699636C57.0137 1.12489 59.3046 1.73086 61.5409 2.51233C64.3621 3.48525 67.1553 4.53496 69.7641 6.02375C71.525 7.03554 73.1912 8.21262 74.7411 9.53995C76.2858 10.847 77.754 12.2467 79.1381 13.7316C81.3861 16.1525 83.5082 18.673 85.3337 21.4646C86.8791 23.8304 88.1654 26.3281 89.3875 28.8713C89.5252 29.1725 89.6244 29.4736 89.7411 29.7723Z" fill="#1B50A9"/>
<path d="M81.7981 35.6727C81.1806 35.032 80.7009 34.2799 80.0986 33.6332C79.271 32.7371 78.524 31.7738 77.6159 30.9436C76.6027 30.0163 75.5873 29.1009 74.5064 28.2587C73.1237 27.1911 71.6731 26.2196 70.1643 25.3508C67.2282 23.6478 64.1136 22.2927 60.8802 21.3115C58.9006 20.7044 56.8843 20.2315 54.8445 19.8959C53.0376 19.5984 51.2261 19.416 49.3982 19.2757C47.8165 19.1678 46.2304 19.1449 44.6464 19.2073C43.031 19.2577 41.4167 19.428 39.8059 19.6416C37.5638 19.9369 35.344 20.3894 33.162 20.996C31.0312 21.5872 28.9459 22.3399 26.9232 23.2478C24.2203 24.4542 21.6444 25.9415 19.2359 27.6865C18.0273 28.5697 16.8727 29.5285 15.7785 30.5573C14.4596 31.793 13.2783 33.1558 12.1274 34.551C11.8205 34.9229 11.7668 35.5107 11.2263 35.6811C15.9513 23.0438 29.8705 10.4017 48.6266 11.4167C57.2396 11.8833 64.8803 15.1044 71.4296 20.9132C76.0168 24.9825 79.5115 29.8915 81.7981 35.6727Z" fill="#16A843"/>
<path d="M11.2322 66.9082C11.8217 67.5584 12.3072 68.307 12.9095 68.9596C13.6962 69.8126 14.3756 70.7591 15.2732 71.5185C15.9945 72.1279 16.6587 72.8129 17.3812 73.438C18.8862 74.7307 20.4976 75.8867 22.1971 76.893C24.4491 78.2347 26.8085 79.3761 29.2495 80.3048C32.0124 81.3441 34.8584 82.1329 37.7551 82.6622C39.1138 82.9129 40.4993 83.0617 41.8824 83.1972C43.8786 83.3796 45.8832 83.4465 47.8867 83.3976C49.662 83.3664 51.4257 83.1576 53.1905 82.9477C56.3425 82.5424 59.447 81.813 62.4572 80.7703C64.2633 80.144 66.0293 79.4015 67.7447 78.5473C70.1871 77.3598 72.5051 75.9191 74.6629 74.2477C76.1709 73.0721 77.6486 71.8292 78.9116 70.368C79.7776 69.3675 80.7464 68.4354 81.3441 67.2129C81.4456 67.0066 81.6265 66.9982 81.811 66.9322C79.7062 72.2504 76.4618 77.0124 72.3191 80.8639C66.8926 85.9553 60.5569 89.2615 53.3049 90.5812C44.4749 92.1803 36.0825 90.7803 28.1909 86.3931C20.5035 82.1235 14.1771 74.7012 11.2322 66.9082Z" fill="#16A843"/>
<path d="M75.5219 61.5784C74.2625 64.4828 72.8023 67.1724 70.8612 69.5874C68.4917 72.5337 65.6834 74.9067 62.4805 76.8165C59.8302 78.3754 56.975 79.533 54.0029 80.2536C52.734 80.557 51.4474 80.7762 50.1511 80.9098C48.6594 81.088 47.1573 81.1577 45.6561 81.1185C43.5686 81.0427 41.4918 80.777 39.45 80.3244C36.6282 79.7047 33.9048 78.6822 31.3587 77.2868C29.4767 76.2629 27.7072 75.0342 26.0805 73.6218C25.2436 72.902 24.3962 72.1822 23.6562 71.3521C21.938 69.4326 20.381 67.386 19.1589 65.0778C18.5753 63.9645 18.0839 62.8129 17.5504 61.5664C18.0862 61.9095 18.3418 62.3858 18.6663 62.7781C19.9386 64.3172 21.3953 65.6333 22.971 66.8305C24.8386 68.2473 26.8591 69.3726 28.9636 70.3515C31.3353 71.4468 33.8109 72.2866 36.351 72.8576C38.0079 73.2498 39.6869 73.5363 41.3782 73.7154C42.4661 73.8222 43.5528 73.8882 44.6464 73.9649C45.3734 74.0362 46.1037 74.065 46.8338 74.0513C49.271 73.9385 51.7012 73.785 54.1185 73.3663C56.7435 72.9191 59.3227 72.224 61.8234 71.2897C64.0717 70.4365 66.23 69.3513 68.2653 68.0506C70.3573 66.7166 72.2723 65.1097 73.9625 63.2699C74.3246 62.869 74.6633 62.4464 74.9768 62.0043C75.0901 61.8387 75.2138 61.6432 75.5219 61.5784Z" fill="#AED329"/>
<path d="M75.3865 41.0701C74.6206 40.0714 73.7942 39.1234 72.912 38.2317C71.0293 36.3458 68.8979 34.8247 66.5996 33.5194C64.278 32.1998 61.828 31.2305 59.3021 30.4363C57.4335 29.8506 55.5248 29.4095 53.5921 29.1167C51.9288 28.8635 50.2631 28.704 48.5835 28.6116C47.6392 28.5612 46.6949 28.4916 45.7565 28.5372C43.6981 28.6148 41.645 28.801 39.6052 29.0951C36.7454 29.5267 33.9363 30.2592 31.2222 31.2809C28.1092 32.4553 25.1969 34.0113 22.5392 36.0711C21.2552 37.0644 20.116 38.1957 19.0071 39.3726C18.6931 39.7073 18.4515 40.1128 18.1516 40.4619C17.98 40.6622 17.8341 40.9142 17.4769 41.0113C17.9683 39.9472 18.3897 38.9131 18.9126 37.9354C19.7216 36.383 20.6696 34.9115 21.7443 33.5398C22.7668 32.2658 23.8079 31.0205 25.0125 29.9156C26.3813 28.6557 27.8444 27.5084 29.3884 26.4846C31.8848 24.8477 34.6021 23.5974 37.4528 22.774C38.935 22.3365 40.4463 22.0109 41.9747 21.7999C43.7862 21.5492 45.6001 21.3812 47.4233 21.4652C49.4909 21.5494 51.5476 21.8155 53.5711 22.2606C56.3722 22.8857 59.0766 23.9029 61.6086 25.2837C63.4588 26.2817 65.203 27.4746 66.8132 28.8431C67.7248 29.5999 68.5898 30.414 69.4033 31.2809C70.99 33.0073 72.3834 34.9111 73.5575 36.9565C74.243 38.1932 74.8538 39.472 75.3865 40.7858C75.3983 40.8802 75.3983 40.9757 75.3865 41.0701Z" fill="#AED329"/>
<path d="M5.44755e-05 108.447C2.52477 108.447 5.04948 108.455 7.57302 108.437C7.95004 108.437 8.07143 108.531 8.05042 108.925C8.01657 109.562 8.02824 110.203 8.05042 110.845C8.05859 111.134 7.97455 111.224 7.69325 111.212C7.15049 111.19 6.60423 111.232 6.05913 111.197C5.67628 111.172 5.58173 111.297 5.58407 111.687C5.60158 114.263 5.58407 116.838 5.60391 119.413C5.60391 119.86 5.50587 119.991 5.06699 119.965C4.3496 119.927 3.63084 119.927 2.91345 119.965C2.52943 119.983 2.43489 119.864 2.43723 119.475C2.45473 116.899 2.43722 114.324 2.45823 111.748C2.45823 111.301 2.35902 111.167 1.92014 111.197C1.28284 111.241 0.636192 111.208 -0.00111389 111.208L5.44755e-05 108.447Z" fill="black"/>
<path d="M8.53014 108.447C9.52928 108.447 10.4607 108.464 11.3922 108.438C11.7739 108.427 11.9466 108.521 12.082 108.93C12.8022 111.089 13.6251 113.21 14.2729 115.395C14.3221 115.599 14.361 115.805 14.3896 116.013C15.09 113.558 15.9992 111.245 16.7754 108.886C16.8851 108.551 17.0089 108.427 17.359 108.437C18.3232 108.464 19.2873 108.447 20.311 108.447C19.7273 109.886 19.1566 111.259 18.5928 112.635C17.8341 114.492 17.0758 116.349 16.3179 118.207C16.1159 118.702 15.9175 119.2 15.7343 119.703C15.6584 119.912 15.5242 119.952 15.3351 119.951C14.7141 119.951 14.092 119.927 13.4733 119.96C13.2095 119.974 13.1232 119.807 13.0636 119.645C11.7587 116.446 10.4596 113.241 9.16627 110.03L8.53014 108.447Z" fill="black"/>
<path d="M66.7805 114.199C66.7805 112.441 66.7934 110.684 66.7724 108.928C66.7724 108.539 66.8634 108.421 67.2474 108.437C68.0225 108.469 68.801 108.458 69.5819 108.437C69.862 108.43 69.9391 108.516 69.9321 108.804C69.9227 112.397 69.9227 115.99 69.9321 119.584C69.9321 119.871 69.8585 119.96 69.5819 119.952C68.7858 119.933 67.9886 119.93 67.1937 119.952C66.8634 119.963 66.7735 119.862 66.777 119.524C66.7899 117.752 66.7805 115.976 66.7805 114.199Z" fill="black"/>
<path d="M70.7001 104.492C70.0453 105.247 69.3835 105.854 68.9154 106.592C68.4053 107.396 67.7482 107.266 66.9836 107.22C67.4354 106.325 67.8719 105.482 68.2839 104.627C68.3586 104.473 68.4543 104.495 68.5594 104.495C69.2282 104.491 69.8982 104.492 70.7001 104.492Z" fill="black"/>
<path d="M65.6484 119.417C65.1021 117.885 64.6177 116.332 64.0948 114.79C63.4073 112.759 62.6941 110.737 62.0241 108.7C61.9459 108.46 61.8619 108.444 61.674 108.445C60.5667 108.445 59.4598 108.445 58.3532 108.445C58.1198 108.445 57.9949 108.501 57.9062 108.776C57.3062 110.635 56.6747 112.483 56.0503 114.333C55.476 116.034 54.8959 117.734 54.2994 119.483C53.8384 118.813 53.4077 118.202 52.9933 117.582C52.5789 116.962 52.1646 116.292 51.7374 115.663C51.5611 115.399 51.5366 115.257 51.8985 115.154C52.3024 115.054 52.6739 114.847 52.9758 114.554C53.8746 113.635 54.045 112.539 53.8512 111.287C53.5466 109.327 52.2405 108.58 50.8164 108.483C49.1928 108.371 47.5552 108.462 45.9246 108.45C45.655 108.45 45.5592 108.51 45.5592 108.81C45.5701 112.404 45.5701 115.998 45.5592 119.591C45.5592 119.951 45.7028 119.969 45.9689 119.965C46.6483 119.953 47.3299 119.939 48.0081 119.965C48.3769 119.98 48.5018 119.888 48.4925 119.485C48.4645 118.225 48.482 116.965 48.482 115.567C49.299 117.024 50.0694 118.343 50.7896 119.685C50.9425 119.969 51.1234 119.957 51.351 119.957C53.1381 119.957 54.9239 119.942 56.7109 119.968C57.1907 119.975 57.4498 119.896 57.4801 119.329C57.4976 118.977 57.7346 118.642 57.7894 118.286C57.8408 117.956 58.0054 117.918 58.2645 117.919C59.4317 117.919 60.599 117.937 61.7592 117.909C62.0685 117.902 62.1642 118.058 62.2261 118.291C62.351 118.735 62.5144 119.178 62.5611 119.631C62.5938 119.954 62.7151 119.965 62.9533 119.962C63.7306 119.951 64.508 119.943 65.2877 119.962C65.7196 119.967 65.8106 119.873 65.6484 119.417ZM50.8141 112.668C50.7499 113.168 50.1698 113.671 49.6049 113.714C48.4831 113.801 48.4831 113.801 48.4831 112.653V112.234C48.4831 111.934 48.5205 111.634 48.475 111.338C48.3921 110.81 48.7084 110.729 49.0364 110.858C49.3644 110.986 49.6854 110.882 49.9924 111.003C50.618 111.262 50.9191 111.854 50.8141 112.668ZM58.6275 115.497C59.0185 113.883 59.6255 112.357 59.9745 110.602L61.3892 115.497H58.6275Z" fill="black"/>
<path d="M81.0908 115.993C80.8994 114.781 80.2189 113.913 78.8381 113.682C80.3403 113.187 80.6986 112.229 80.6251 111.192C80.4897 109.297 79.3797 108.612 77.742 108.478C76.0461 108.338 74.3302 108.451 72.6226 108.442C72.3646 108.442 72.2514 108.482 72.2514 108.792C72.2631 112.402 72.2631 116.012 72.2514 119.621C72.2514 119.885 72.3261 119.957 72.5794 119.955C74.3746 119.94 76.1733 120.01 77.9615 119.817C78.6805 119.739 79.4147 119.577 80.0076 119.097C80.9974 118.306 81.2799 117.186 81.0908 115.993ZM75.166 112.634C75.1837 112.377 75.1856 112.119 75.1718 111.862V111.564C75.1718 110.672 75.1718 110.665 76.0367 110.731C76.3571 110.738 76.6753 110.788 76.9833 110.879C77.5016 111.064 77.6732 111.496 77.6206 112.042C77.5646 112.622 77.1339 112.789 76.6869 112.871C76.318 112.939 75.9328 112.862 75.5582 112.991C75.3072 113.078 75.1298 112.979 75.166 112.631V112.634ZM78.084 116.387C78.0583 116.976 77.6463 117.356 76.932 117.433C76.7376 117.444 76.5428 117.444 76.3484 117.433C75.1671 117.433 75.1671 117.433 75.1671 116.193V116.073C75.1671 115.001 75.1671 115.003 76.1978 115.036C76.5596 115.047 76.9098 115.149 77.2705 115.182C77.7969 115.23 78.112 115.773 78.0864 116.387H78.084Z" fill="black"/>
<path d="M44.4037 119.192C43.2458 115.748 42.075 112.308 40.9405 108.853C40.8238 108.503 40.6814 108.44 40.3814 108.443C39.3309 108.452 38.2862 108.461 37.2392 108.443C36.9019 108.436 36.7992 108.588 36.7046 108.882C36.1911 110.467 35.6541 112.042 35.1277 113.621C34.4787 115.562 33.8438 117.505 33.1749 119.44C33.043 119.823 33.0582 119.987 33.5029 119.96C33.8706 119.936 34.2406 119.96 34.6083 119.952C35.1102 119.944 35.7055 120.093 36.0872 119.866C36.491 119.626 36.4303 118.931 36.5797 118.441C36.6965 118.048 36.8342 117.865 37.2649 117.906C37.7656 117.954 38.2734 117.918 38.7823 117.918H39.5293C40.9557 117.918 40.9568 117.918 41.3397 119.284C41.3552 119.361 41.3653 119.439 41.37 119.517C41.4132 119.829 41.5533 119.978 41.8941 119.963C42.5524 119.934 43.2131 119.955 43.8784 119.955C44.6523 119.95 44.6581 119.948 44.4037 119.192ZM39.8795 115.518C39.0858 115.511 38.2921 115.518 37.4552 115.518C37.9221 113.918 38.3796 112.338 38.8442 110.738C39.2865 112.235 39.7079 113.7 40.1585 115.154C40.2635 115.486 40.1515 115.522 39.8795 115.518Z" fill="black"/>
<path d="M92.9265 119.426C92.5681 118.459 92.2775 117.464 91.9518 116.484C91.0997 113.923 90.2395 111.365 89.3921 108.806C89.2952 108.512 89.1353 108.438 88.8482 108.446C87.8584 108.464 86.8639 108.488 85.8787 108.438C85.4224 108.415 85.2228 108.625 85.1002 108.995C83.8921 112.624 82.6887 116.256 81.4608 119.957C81.9604 119.957 82.4062 119.957 82.851 119.957C83.4346 119.949 84.1349 120.132 84.5493 119.856C84.8994 119.617 84.9333 118.857 85.0734 118.319C85.1586 117.991 85.3243 117.903 85.6406 117.914C86.3783 117.939 87.116 117.923 87.8584 117.923C89.4785 117.923 89.4925 117.923 89.8426 119.557C89.9173 119.904 90.0516 119.966 90.3387 119.962C91.0764 119.952 91.8141 119.944 92.5564 119.962C92.9661 119.968 93.105 119.892 92.9265 119.426ZM85.8974 115.499C86.3561 113.933 86.809 112.389 87.2923 110.739C87.7813 112.396 88.2342 113.935 88.6929 115.499H85.8974Z" fill="black"/>
<path d="M33.6675 111.798C33.5216 109.781 32.3754 108.581 30.4378 108.466C28.8702 108.372 27.2933 108.466 25.721 108.436C25.3452 108.436 25.2786 108.556 25.2821 108.905C25.3008 110.661 25.2903 112.419 25.2903 114.175C25.2903 115.952 25.3031 117.728 25.281 119.505C25.281 119.887 25.3825 119.973 25.7338 119.959C26.4342 119.929 27.1345 119.932 27.8349 119.959C28.1523 119.971 28.22 119.857 28.2154 119.554C28.1979 118.556 28.2282 117.558 28.199 116.555C28.1874 116.171 28.3029 116.085 28.6531 116.103C29.2367 116.134 29.8203 116.13 30.4039 116.103C31.9318 116.043 33.2601 115.227 33.594 113.494C33.6935 112.935 33.7182 112.364 33.6675 111.798ZM30.537 112.828C30.3747 113.33 29.9207 113.369 29.5448 113.46C29.1947 113.544 28.8142 113.468 28.4488 113.483C28.227 113.491 28.1979 113.377 28.2014 113.192C28.2107 112.855 28.2014 112.517 28.2014 112.18V112.001C28.2014 110.906 28.2014 110.902 29.2787 110.963C30.5767 111.037 30.8416 111.89 30.5417 112.828H30.537Z" fill="black"/>
</g>
<defs>
<clipPath id="clip0_2509_12800">
<rect width="93" height="120" fill="white"/>
</clipPath>
</defs>
</svg>
