<svg width="48" height="48" viewBox="0 0 48 48" fill="none" xmlns="http://www.w3.org/2000/svg">
<rect x="1" y="1" width="46" height="46" rx="23" fill="white" stroke="#F8F8F8" stroke-width="2"/>
<path fill-rule="evenodd" clip-rule="evenodd" d="M38.3719 24.4C36.6428 21.8288 33.7235 20.1333 30.3888 20.1333C27.054 20.1333 24.1235 21.8288 22.4056 24.4H15.5228C17.9817 20.5488 22.2933 18 27.2 18C32.1066 18 36.4182 20.5488 38.8772 24.4H38.3719ZM37.8555 29.7781C38.967 29.7781 39.9775 29.0933 39.9663 27.6C39.9663 26.1067 38.967 25.4218 37.8555 25.4218C36.7438 25.4218 35.7445 26.1067 35.7445 27.6C35.7445 29.0933 36.7438 29.7781 37.8555 29.7781ZM37.8555 26.3312C38.6976 26.3312 38.8547 27.0611 38.8547 27.5887C38.8547 28.1165 38.6976 28.8463 37.8555 28.8463C37.0245 28.8463 36.8673 28.1165 36.8673 27.5887C36.8673 27.0611 37.0134 26.3312 37.8555 26.3312ZM34.2064 24.3775H35.2954V29.722H34.2287V29.1382H34.2175C33.948 29.5986 33.4652 29.767 33.0161 29.767C31.7924 29.767 31.2758 28.6779 31.2758 27.5439C31.2758 26.1179 32.0842 25.4105 32.9936 25.4105C33.6898 25.4105 34.0154 25.7922 34.195 26.0505H34.2064V24.3775ZM34.1502 27.6898C34.1502 27.0273 33.9593 26.3649 33.2182 26.3649C32.5222 26.3649 32.2863 26.9825 32.2863 27.6337C32.2863 28.1165 32.4884 28.8799 33.1845 28.8799C33.8695 28.8799 34.1502 28.3074 34.1502 27.6898ZM30.8154 28.8799V26.6456C30.8154 25.6237 29.7487 25.4442 29.1649 25.4442C28.3228 25.4442 27.4807 25.6351 27.3347 26.7804H28.3901L28.3973 26.7545C28.4423 26.5912 28.5199 26.3088 29.0415 26.3088C29.3222 26.3088 29.76 26.3312 29.76 26.7916C29.76 27.0273 29.5467 27.0947 29.3783 27.1172L28.4014 27.2632C27.7165 27.3641 27.2 27.7796 27.2 28.5881C27.2 29.4413 27.8287 29.7895 28.4575 29.7895C29.1986 29.7895 29.5467 29.4413 29.7936 29.1832C29.7991 29.2211 29.7966 29.2694 29.7927 29.3484V29.3484C29.7884 29.4332 29.7824 29.5532 29.7824 29.7333H30.8154V28.8799ZM29.76 27.6561C29.6477 27.746 29.468 27.8132 29.0189 27.8807C28.6147 27.9481 28.2779 28.0491 28.2779 28.4982C28.2779 28.8799 28.5698 29.0035 28.7831 29.0035C29.266 29.0035 29.76 28.6891 29.76 28.1839V27.6561ZM23.9326 25.4667H25.1901C25.9986 25.4667 26.6274 25.9495 26.6274 26.8588V29.7333H25.5382V27.1509C25.5382 26.8477 25.527 26.3312 24.831 26.3312C24.7752 26.3312 24.7231 26.331 24.6744 26.3307C24.3434 26.3291 24.1692 26.3282 24.0776 26.4148C23.9759 26.511 23.9764 26.7153 23.9773 27.1465L23.9775 27.2856V29.7333H22.9333V25.4667H23.9326ZM22.6077 27.6898V27.8807H19.767L19.769 27.8998C19.8032 28.2223 19.8741 28.8912 20.7326 28.8912C21.0358 28.8912 21.3165 28.7453 21.4175 28.4982L22.3494 28.9249C22.0687 29.4526 21.44 29.767 20.7326 29.767C19.5649 29.767 18.6779 29.2056 18.6779 27.4989C18.6779 27.0049 18.8463 25.4105 20.6652 25.4105C21.4849 25.4105 22.6077 25.8035 22.6077 27.6898ZM21.4736 27.1846C21.4063 26.522 20.9796 26.3088 20.6315 26.3088C20.115 26.3088 19.8456 26.6343 19.7894 27.1846H21.4736ZM16.5894 29.7781C17.2294 29.7781 18.3972 29.5536 18.3972 28.3523C18.3972 27.4366 17.4507 27.2461 16.7012 27.0953C16.21 26.9965 15.8035 26.9146 15.8035 26.6568C15.8035 26.4772 15.8821 26.2526 16.4772 26.2526C17.0722 26.2526 17.1621 26.5333 17.207 26.7916L18.2736 26.8028C18.1951 25.6351 17.2294 25.433 16.421 25.433C15.1298 25.433 14.748 26.2077 14.748 26.814C14.748 27.7417 15.6697 27.9248 16.4094 28.0718C16.9052 28.1703 17.3193 28.2526 17.3193 28.5319C17.3193 28.6891 17.1845 28.9586 16.6231 28.9586C15.9382 28.9586 15.7136 28.7228 15.6463 28.386L14.6807 28.8126C14.9052 29.4639 15.6463 29.7781 16.5894 29.7781Z" fill="#0C5D9C"/>
<path fill-rule="evenodd" clip-rule="evenodd" d="M14.3888 25.4562L13.0189 29.7228H11.8288L10.6386 26.2983H9.79649V28.5887C9.79649 28.8246 9.79649 28.9144 10.2456 28.9144H10.4702V29.7228H9.95368H9.74035C8.79719 29.7228 8.70737 29.3522 8.70737 28.8132V26.2983H8V25.4562H8.70737V25.108L9.79649 24.2434V25.4674H10.6274H11.4695L12.4239 28.5887H12.4351L13.3109 25.4674V25.4562H14.3888Z" fill="#808285"/>
</svg>
