<svg width="48" height="48" viewBox="0 0 48 48" fill="none" xmlns="http://www.w3.org/2000/svg">
<rect x="1" y="1" width="46" height="46" rx="23" fill="white" stroke="#F8F8F8" stroke-width="2"/>
<path fill-rule="evenodd" clip-rule="evenodd" d="M42.4156 25.5922V25.1149H43.8183V23.8589H42.4156V23.3816H43.948V22.0753H40.5973V26.8984H44V25.5922H42.4156ZM40.2856 24.5622C40.2856 25.9941 39.2467 26.9236 37.7663 26.9236H35.4545V22.0753H35.4804H37.3247C39.0129 22.0753 40.2856 22.7787 40.2856 24.5622ZM38.4676 24.5622C38.4676 23.884 38.0519 23.5826 37.4025 23.5826H37.2987V25.4666H37.4025C38 25.4666 38.4676 25.1902 38.4676 24.5622ZM31.8441 22.0753L33.3765 24.738V22.0753H35.0908V26.8984H33.3765L31.8183 24.3613V26.8984H30.0779V22.0753H31.8441ZM27.0129 26.9989C28.5195 26.9989 29.7663 26.0694 29.7663 24.5121C29.7663 22.9796 28.5195 22 27.0129 22C25.5065 22 24.2597 23.0048 24.2597 24.5121C24.2597 26.0694 25.4804 26.9989 27.0129 26.9989ZM27.0129 23.5826C27.5844 23.5826 27.948 24.0347 27.948 24.5371C27.948 25.0898 27.5584 25.4666 27.0129 25.4666C26.4676 25.4666 26.0779 25.0898 26.0779 24.5371C26.0779 24.0096 26.4415 23.5826 27.0129 23.5826ZM21.6104 22.0753L20.8831 24.6124L20.1817 22.0753H18.3117L17.5065 26.8984H19.2467L19.5065 24.2607L20.3636 26.8984H21.4285L22.2856 24.2607L22.5195 26.8984H24.2856L23.4545 22.0753H21.6104ZM15.7663 23.7835C14.9869 23.7835 14.7013 23.9593 14.7013 23.9593L14.8311 23.4319H17.1428V22.0753H13.5065L13.0129 24.9642C13.0129 24.9642 13.6104 24.8134 14.2077 24.7631C14.8572 24.738 15.5065 24.8637 15.4804 25.2907C15.4545 25.6424 14.6753 25.8182 14.0519 25.6926C13.4545 25.567 12.9349 25.341 12.9349 25.341L12.7013 26.6221C12.7013 26.6221 13.8961 27.024 14.7532 26.9989C15.6104 26.9737 17.3247 26.7728 17.4285 25.2907C17.4804 24.2859 16.3896 23.7835 15.7663 23.7835ZM13.2467 22.0753L11.1428 26.8984H9.4804L8.07787 23.5826H7.03893V26.8984H5.1688V23.6076H4V22.0753H9.4804L10.3117 24.8134L11.1428 22.0753H13.2467Z" fill="#00ABE9"/>
</svg>
