<svg width="48" height="48" viewBox="0 0 48 48" fill="none" xmlns="http://www.w3.org/2000/svg">
<rect x="1" y="1" width="46" height="46" rx="23" fill="white" stroke="#F8F8F8" stroke-width="2"/>
<path fill-rule="evenodd" clip-rule="evenodd" d="M14.6489 17C13.8483 17 13.4671 17.3085 13.4671 17.9629V19.3491C13.4671 19.6185 13.3538 19.734 13.0858 19.734H12.9525C12.304 19.734 12 20.1001 12 20.8893C12 21.6596 12.304 22.0262 12.9525 22.0262H13.0858C13.3538 22.0262 13.4671 22.1415 13.4671 22.4105V25.1644C13.4671 27.918 14.5538 29.3229 16.6891 29.3229C18.1574 29.3229 18.9577 28.8035 18.9577 27.8414C18.9577 27.3789 18.7472 27.1477 18.3471 27.1477C18.1938 27.1477 18.0431 27.1657 17.8523 27.1862C17.5857 27.2252 17.3378 27.2437 17.1469 27.2437C16.3075 27.2437 15.8886 26.5895 15.8886 25.2996V22.4105C15.8886 22.1415 16.0035 22.0262 16.2698 22.0262H16.9178C17.5857 22.0262 17.8702 21.6596 17.8702 20.8501C17.8702 20.1001 17.5658 19.734 16.9178 19.734H16.2698C15.9838 19.734 15.8886 19.6384 15.8886 19.3491V17.9629C15.8886 17.3085 15.5071 17 14.6489 17ZM24.2385 21.0632L22.9614 24.7784C22.9229 24.9326 22.8269 25.0103 22.7122 25.0103C22.5798 25.0103 22.5022 24.9326 22.4462 24.7784L21.1695 21.0632C20.788 19.9457 20.5212 19.6764 19.7386 19.6764C19.0142 19.6764 18.6342 19.9654 18.6342 20.5043C18.6342 20.6394 18.652 20.7359 18.7285 20.9281L21.264 27.8414C21.6452 28.8999 21.9509 29.1698 22.7122 29.1698C23.4745 29.1698 23.7797 28.8999 24.1612 27.8414L26.6969 20.9281C26.7731 20.697 26.792 20.6394 26.792 20.5043C26.792 19.9654 26.4109 19.6764 25.6863 19.6764C24.9049 19.6764 24.6198 19.9457 24.2385 21.0632ZM26.8115 25.897C26.8115 29.8052 28.7177 32 32.1108 32C34.1882 32 35.7512 31.1144 35.7512 29.9589C35.7512 29.5165 35.5234 29.2267 35.1997 29.2267C35.0651 29.2267 34.9323 29.2665 34.6268 29.3816C33.7311 29.7473 33.2354 29.8624 32.5111 29.8624C30.4709 29.8624 29.2318 28.6888 29.2318 26.7816C29.2318 26.5895 29.3271 26.4928 29.5555 26.4928H34.3411C35.6045 26.4928 35.9917 26.0599 36 24.6334V24.5419C35.9825 21.6397 34.2509 19.6955 31.6723 19.6955C28.6409 19.6955 26.8115 22.0261 26.8115 25.897ZM29.2709 24.2783C29.2709 22.6231 30.186 21.4678 31.5385 21.4678C32.9102 21.4678 33.6742 22.4295 33.6742 24.2012C33.6742 24.4527 33.5974 24.5479 33.3692 24.5479H29.5746C29.3845 24.5479 29.2709 24.4527 29.2709 24.2783Z" fill="url(#paint0_linear_920_860)"/>
<defs>
<linearGradient id="paint0_linear_920_860" x1="24" y1="9.5" x2="10.5169" y2="31.073" gradientUnits="userSpaceOnUse">
<stop stop-color="#2DC4FB"/>
<stop offset="1" stop-color="#003FBF"/>
</linearGradient>
</defs>
</svg>
