<svg width="48" height="48" viewBox="0 0 48 48" fill="none" xmlns="http://www.w3.org/2000/svg">
<rect x="1" y="1" width="46" height="46" rx="23" fill="white" stroke="#F8F8F8" stroke-width="2"/>
<path fill-rule="evenodd" clip-rule="evenodd" d="M23.9016 34.1524C19.2069 34.1524 15.8314 31.4365 14.4435 27.5984H13.4496C14.8375 31.8392 18.8214 34.7863 23.5675 34.7863C27.1741 34.7863 30.2841 33.2014 32.1945 30.6141H31.6204C29.8043 32.7732 27.1571 34.1524 23.9016 34.1524Z" fill="black"/>
<path fill-rule="evenodd" clip-rule="evenodd" d="M33.2997 29.1321L32.6058 27.3672H32.1688L33.1113 29.689H33.4709L34.4307 27.3672H33.9937L33.2997 29.1321Z" fill="black"/>
<path fill-rule="evenodd" clip-rule="evenodd" d="M31.0207 29.6889V27.7442H31.7491V27.3671H29.8899V27.7442H30.6182V29.6889H31.0207Z" fill="black"/>
<path fill-rule="evenodd" clip-rule="evenodd" d="M41.841 25.2082V21.67L40.5732 21.61V26.3392H44V25.2255L41.841 25.2082Z" fill="black"/>
<path fill-rule="evenodd" clip-rule="evenodd" d="M34.9104 26.3304L36.8635 21.4559L38.0886 21.4902L40.0249 26.3304H38.6628L38.3286 25.4653H36.5724L36.2382 26.3304H34.9104ZM37.4633 23.0579L36.9408 24.4201L37.9688 24.4373L37.4633 23.0579Z" fill="black"/>
<path fill-rule="evenodd" clip-rule="evenodd" d="M32.9999 23.2549C32.366 23.0921 32.2032 22.9294 32.2032 22.758C32.2032 22.5696 32.3573 22.4498 32.6658 22.4498C33.0685 22.4498 33.5224 22.6212 33.9509 22.9467L34.5761 21.9957C34.0793 21.5588 33.4795 21.3018 32.7001 21.3018C31.6034 21.3018 30.9181 21.9355 30.9181 22.878C30.9181 23.769 31.672 24.2061 32.6487 24.4629C33.2654 24.6257 33.4112 24.7286 33.4112 24.9512C33.4112 25.1739 33.2226 25.2853 32.8885 25.2853C32.3573 25.2853 31.8603 25.0798 31.4063 24.6857L30.7038 25.6025C31.2609 26.1594 32.0318 26.4333 32.8456 26.4333C33.9595 26.4333 34.696 25.8337 34.696 24.84C34.696 23.8888 34.0536 23.5204 32.9999 23.2549Z" fill="black"/>
<path fill-rule="evenodd" clip-rule="evenodd" d="M28.3737 21.3189C29.5558 21.3189 30.3184 21.9613 30.3184 23.0495C30.3184 23.8203 29.95 24.3173 29.3845 24.5828L30.4725 26.3477H28.9904L28.1851 24.8142H27.5341V26.3477H26.249V21.3189H28.3737ZM27.5341 23.7005H28.3394C28.7933 23.7005 29.0419 23.4605 29.0419 23.1007C29.0419 22.6981 28.7762 22.4754 28.3394 22.4754H27.5341V23.7005Z" fill="black"/>
<path fill-rule="evenodd" clip-rule="evenodd" d="M25.338 22.4252V21.2354H21.6471V26.3334H25.3726V25.135H22.9577V24.3184H25.1138V23.2068H22.9577V22.4252H25.338Z" fill="black"/>
<path fill-rule="evenodd" clip-rule="evenodd" d="M17.6818 21.3444L16.2681 21.3701L18.1271 26.3391H19.3524L21.1514 21.3101C20.6803 21.3101 20.2177 21.3187 19.755 21.3187L18.7785 24.4972L17.6818 21.3444Z" fill="black"/>
<path fill-rule="evenodd" clip-rule="evenodd" d="M14.4006 26.3391H15.6943V21.3787C15.2659 21.3874 14.829 21.4044 14.4006 21.4044V26.3391Z" fill="black"/>
<path fill-rule="evenodd" clip-rule="evenodd" d="M13.4497 21.4216L12.1903 21.4559V24.0346L10.3055 21.5157L9.13182 21.5501V26.3391H10.374V23.6918L12.3273 26.3391H13.4497V21.4216Z" fill="black"/>
<path fill-rule="evenodd" clip-rule="evenodd" d="M6.98137 24.283C6.98137 24.9426 6.64725 25.251 6.13333 25.251C5.61059 25.251 5.29373 24.9512 5.29373 24.283V21.7043C4.86529 21.7298 4.42824 21.7471 4 21.7643V24.3345C4 25.7653 4.82235 26.4247 6.12471 26.4247C7.41843 26.4247 8.26647 25.7567 8.26647 24.2316V21.593L6.98137 21.6357V24.283Z" fill="black"/>
<path fill-rule="evenodd" clip-rule="evenodd" d="M23.9615 13.8996C28.2537 13.8996 31.9803 16.7096 33.4195 20.522H33.9421C32.5286 16.1614 28.4507 13 23.6103 13C18.907 13 14.8803 16.0071 13.3811 20.2135L14.9917 20.1792C16.4482 16.4184 19.8064 13.8996 23.9615 13.8996Z" fill="black"/>
</svg>
