<svg width="48" height="48" viewBox="0 0 48 48" fill="none" xmlns="http://www.w3.org/2000/svg">
<rect x="1" y="1" width="46" height="46" rx="23" fill="white" stroke="#F8F8F8" stroke-width="2"/>
<path fill-rule="evenodd" clip-rule="evenodd" d="M35.4246 25.049C35.7422 25.0487 35.9996 24.7947 36 24.4813C36 24.1677 35.7424 23.9135 35.4246 23.9135C35.1068 23.9135 34.8492 24.1677 34.8492 24.4813C34.8492 24.7948 35.1068 25.049 35.4246 25.049ZM35.4246 24.0165C35.6853 24.0181 35.8958 24.227 35.8958 24.4842L35.8956 24.4871C35.894 24.7454 35.6805 24.9535 35.4186 24.9519C35.1569 24.9502 34.946 24.7396 34.9475 24.4813C34.9492 24.223 35.1628 24.0149 35.4246 24.0165ZM35.6072 24.3083L35.5312 24.4936L35.4601 24.3083H35.37L35.312 24.6544H35.4027L35.4318 24.455L35.5128 24.6544H35.5491L35.6333 24.455L35.6599 24.6544H35.7506L35.6973 24.3083H35.6072ZM35.3356 24.3089H35.0934V24.3849H35.1674V24.655H35.2593V24.3849H35.3356V24.3089ZM34.5387 24.1013C34.2234 24.4877 33.4939 25.0104 32.4148 24.9274C31.9149 24.8898 31.4361 24.7135 31.0335 24.4188C31.3268 23.9978 31.4158 23.4904 31.4359 23.0811C31.6874 23.2799 31.9827 23.4178 32.2981 23.4839C32.7182 23.5705 33.4939 23.571 33.6072 23.0501C33.7091 22.5807 33.0796 22.514 32.7241 22.4877C32.4148 22.4597 32.0771 22.3959 31.8051 22.2632C30.9872 21.8645 31.0548 20.5532 31.702 19.8108C32.2933 19.1326 33.1965 18.932 33.9491 19.0192C34.2193 19.0542 34.4818 19.1333 34.726 19.2529L34.2804 20.4322C34.1195 20.3209 33.9384 20.2414 33.7469 20.1983C33.4394 20.1211 33.0512 20.1375 32.7705 20.3994C32.6654 20.489 32.606 20.6197 32.608 20.7567C32.6016 20.879 32.6605 20.9959 32.7633 21.0647C32.9519 21.1881 33.2192 21.2031 33.4665 21.217C33.5462 21.2215 33.6238 21.2259 33.696 21.2337C34.0386 21.2705 34.3811 21.3371 34.6365 21.5669C34.7654 21.6838 34.8684 21.8256 34.9386 21.9838C35.0235 22.1762 35.0689 22.3831 35.072 22.593C35.0845 23.1852 34.9014 23.6575 34.5387 24.1013ZM29.5775 22.9641C29.5775 23.581 29.3007 24.075 28.7176 24.1796C28.1345 24.2843 27.8679 23.8925 27.8679 23.2758V20.175L26.4889 20.4264V23.5728C26.4889 25.0384 27.4371 25.7435 28.72 25.5091C30.0398 25.2687 30.9547 24.4334 30.9547 22.9133V19.6096L29.5775 19.8587V22.9641ZM21.2854 21.3583L24.6425 23.4419V20.7631L26.1019 20.4965V26.0364L22.7254 23.9451L22.7271 26.5894L21.2848 26.8443L21.2854 21.3583ZM18.7194 25.2343L20.864 24.8169V23.5547L18.7224 23.9739L18.7241 23.1227L20.8705 22.7327V21.4518L18.1594 21.9475L17.2906 23.9762L17.2818 27.581L20.9149 26.9116V25.695L18.7169 26.0926L18.7194 25.2343ZM14.8339 24.7841L16.8456 19.8323L18.6234 19.5313L15.0045 27.9996C14.9814 28.0499 12 23.0888 12 23.0888L13.6391 22.7859L14.8339 24.7841Z" fill="#783CBD"/>
</svg>
