<svg width="289" height="120" viewBox="0 0 289 120" fill="none" xmlns="http://www.w3.org/2000/svg">
<path fill-rule="evenodd" clip-rule="evenodd" d="M288.925 2.72211V117.823C288.925 118.932 287.951 120 286.883 120H257.445C256.406 120 255.354 119.385 255.354 117.651V44.6417C255.354 43.0451 254.591 41.9993 253.055 41.9993H236.506V75.5494C236.506 76.6584 235.929 77.7795 234.302 77.7795H206.523C204.599 77.7795 203.951 78.7606 203.951 80.2217V117.821C203.951 118.932 202.977 120 201.908 120H172.471C171.431 120 170.379 119.383 170.379 117.651V80.2413C170.379 78.5093 169.542 77.7795 167.836 77.7795H141.547V117.823C141.547 118.932 140.574 120 139.505 120H109.864C108.825 120 107.773 119.385 107.773 117.651V6.88277C107.773 5.61877 106.74 5.08608 106.089 6.88277L69.4365 116.355C68.8154 118.169 68.0135 120 66.061 120H42.606C40.6521 120 39.918 118.239 39.2728 116.112L1.26107 3.14043C0.728831 1.64621 0.573537 0.00601903 2.76742 0.00601903H32.9679C35.1321 -0.00451428 35.8309 1.24744 36.5693 3.57681L53.3918 61.7026C53.8845 63.4707 54.7951 63.5249 55.3189 61.6349L72.3307 2.6875C72.6695 1.31516 73.6351 0.00150476 75.4633 0.00150476H138.996C140.561 0.00150476 141.547 1.02625 141.547 2.72361V41.9993H167.79C169.536 41.9993 170.379 41.1672 170.379 39.4728V3.33906C170.379 1.30162 171.205 0 173.505 0H201.397C202.964 0 203.951 1.02625 203.951 2.72211V39.4743C203.951 41.0227 204.352 41.9993 206.516 41.9993H236.506V19.4595C236.506 17.6568 237.182 16.8262 238.763 15.4749L254.108 3.06971C256.377 1.28807 257.431 0 259.619 0H286.371V0.00150476C287.938 0.00150476 288.925 1.02625 288.925 2.72211Z" fill="#941BC8"/>
</svg>
