<svg width="48" height="48" viewBox="0 0 48 48" fill="none" xmlns="http://www.w3.org/2000/svg">
<rect x="1" y="1" width="46" height="46" rx="23" fill="white" stroke="#F8F8F8" stroke-width="2"/>
<path fill-rule="evenodd" clip-rule="evenodd" d="M33.5376 24.1298L32.5903 18.2265L31.8138 23.2269C31.7882 23.3832 31.8735 23.5308 32.0187 23.5828L33.5376 24.1298ZM35.6197 26.1787L34.3738 26.5259C34.1521 26.5865 34.024 26.5171 33.9984 26.3001L33.623 24.6507L31.8223 25.1543C31.6517 25.1976 31.5237 25.3452 31.4895 25.5362L31.225 27.0814C31.1737 27.3159 31.097 27.4461 30.8495 27.5155L29.6036 27.8627C29.3476 27.9323 29.1683 27.8108 29.2195 27.5763L31.1568 17.0979C31.2078 16.8548 31.4382 16.6204 31.6857 16.5423L33.5376 16.0213C33.7936 15.9519 34.0325 16.056 34.0751 16.273L35.9953 25.6664C36.0295 25.9007 35.8758 26.1091 35.6197 26.1787ZM28.3918 17.4017L27.2142 17.749C26.9837 17.8184 26.907 17.9486 26.8642 18.1829L25.5842 26.3783L24.2615 19.1554C24.2272 18.8167 24.0908 18.6866 23.9201 18.7386L22.7596 19.0858C22.5292 19.1554 22.3755 19.3724 22.4182 19.5807L24.2018 28.9827C24.2444 29.2084 24.4748 29.3038 24.7137 29.2344L26.4375 28.7222C26.668 28.6441 26.8898 28.4097 26.9324 28.1666L28.7416 17.6882C28.7843 17.4538 28.6222 17.3322 28.3918 17.4017ZM21.4965 19.6849L20.1738 19.9801C19.9008 20.0409 19.6961 20.2753 19.6961 20.501V30.311C19.6961 30.528 19.9008 30.6755 20.1738 30.6235L21.4965 30.3283C21.7356 30.2675 21.9574 30.0245 21.9574 29.8073V19.9975C21.9574 19.763 21.7441 19.6328 21.4965 19.6849ZM18.3305 20.4316L16.5214 30.9099C16.4788 31.1531 16.2569 31.3875 16.0264 31.4656L14.3027 31.9777C14.0637 32.0472 13.8334 31.9517 13.7907 31.726L12.0071 22.324C11.9644 22.1158 12.1182 21.8986 12.3485 21.8291L13.509 21.482C13.6797 21.4298 13.8162 21.5601 13.8504 21.8986L15.173 29.1303L16.4531 20.9351C16.4959 20.7006 16.5727 20.5704 16.8031 20.501L17.9808 20.1537C18.2111 20.0755 18.3732 20.1971 18.3305 20.4316Z" fill="#655498"/>
</svg>
