<svg width="131" height="120" viewBox="0 0 131 120" fill="none" xmlns="http://www.w3.org/2000/svg">
<path fill-rule="evenodd" clip-rule="evenodd" d="M88.2516 115.557L87.5358 118.489H87.5233L86.8486 115.557H85.396V119.868H86.2738V116.542H86.2855L87.0751 119.868H87.9353L88.7652 116.542H88.777V119.868H89.6555V115.557H88.2516Z" fill="black"/>
<path fill-rule="evenodd" clip-rule="evenodd" d="M82.0879 115.557V116.273H83.0915V119.868H83.9928V116.273H84.9972V115.557H82.0879Z" fill="black"/>
<path fill-rule="evenodd" clip-rule="evenodd" d="M91.6133 89.1888C79.3415 102.505 60.8985 112.575 59.1388 113.528L59.0683 113.559L59.0004 113.528C56.9797 112.435 32.9161 99.2922 21.501 83.0184C3.5683 57.4393 6.21164 26.2739 6.21164 26.2739L16.5072 24.2113L17.8289 19.3618L29.8834 16.2746L31.351 10.2486L59.0004 6.14765L59.0683 6.13758L59.1388 6.14765L86.789 10.2486L88.2541 16.2746L100.315 19.3618L101.636 24.2113L111.927 26.2739C111.927 26.2739 112.967 38.5961 109.288 54.1079C109.281 54.1364 109.273 54.1641 109.267 54.1909C111.583 54.2103 113.809 54.5904 115.899 55.2768C120.02 36.4672 117.798 20.8303 117.798 20.8303L104.86 18.1862L103.937 13.617L92.199 10.9006L90.4057 4.7278L59.1481 0L27.7276 4.7278L26.0921 10.7462L14.7391 13.4793L13.4141 18.333L0.627066 20.8303C0.627066 20.8303 -4.788 56.7294 16.2077 86.3986C29.7373 105.515 56.722 118.749 58.9928 119.963L59.0683 120L59.1481 119.963C61.1075 118.92 82.1166 108.243 96.2286 93.7261C94.4765 92.4497 92.9182 90.9199 91.6133 89.1888Z" fill="black"/>
<path fill-rule="evenodd" clip-rule="evenodd" d="M117.804 85.3536H112.17L107.115 71.9187H103.135V85.3536H98.6636V71.9187H94.4032C94.764 70.931 95.0863 69.8964 95.3397 68.808C95.3858 68.5445 95.4303 68.2843 95.4748 68.0242H110.71L114.998 80.5184L119.256 68.0242H124.322L117.804 85.3536ZM72.171 86.0361V61.0183C72.171 61.0183 77.0952 58.2802 79.4448 58.3674C80.2084 58.3867 85.0974 57.7398 85.0092 64.6762C84.9245 71.6336 72.171 86.0361 72.171 86.0361ZM72.0378 24.7104C72.0378 24.7104 89.937 29.8133 90.1468 36.681C90.3809 44.1687 72.0378 50.8744 72.0378 50.8744V24.7104ZM109.127 54.1803C103.821 54.1803 98.9535 56.0852 95.1697 59.2463C93.4746 54.5034 89.6111 51.7686 89.6111 51.7686C89.6111 51.7686 101.988 45.099 102.088 37.315C102.23 26.1886 76.4742 15.7596 71.9948 14.6704C68.3235 13.77 63.6024 12.805 62.1808 13.6852C61.5548 14.0637 61.5229 14.7753 61.5229 14.7753V106.158C61.5229 106.158 72.155 100.937 81.2976 90.6148C82.7418 88.9876 85.5362 86.0875 88.3054 82.3919C91.0545 91.2769 99.3479 97.7476 109.127 97.7476C121.139 97.7476 130.908 87.9765 130.908 75.9631C130.908 63.9447 121.14 54.1803 109.127 54.1803Z" fill="black"/>
<path fill-rule="evenodd" clip-rule="evenodd" d="M25.1795 45.9729C26.653 55.676 29.538 61.3101 29.538 61.3101L31.7987 57.2872C31.7987 57.2872 30.6189 46.1155 30.3251 41.1209C30.0289 36.1187 30.4712 20.2469 30.4712 20.2469C30.4712 20.2469 33.4132 18.6206 35.0303 17.8897C36.644 17.1588 38.3743 16.4959 39.2546 17.09C40.1298 17.6732 40.0224 18.6206 40.0224 18.6206C40.0224 18.6206 40.0182 26.5666 40.0224 43.1827C40.0375 61.3907 46.1978 72.4264 46.1978 72.4264V15.2422C46.1978 15.2422 48.8705 14.0162 50.8173 13.6931C52.7532 13.3675 54.805 13.2106 55.8371 13.7141C56.6402 14.1093 56.6402 15.3932 56.6402 15.3932V106.249C56.6402 106.249 47.3768 98.8942 42.0834 88.1614C39.3519 82.6213 34.7366 69.9324 34.7366 69.9324L29.001 78.3105C29.001 78.3105 21.4074 68.735 18.1247 58.071C16.8911 54.0892 15.4981 48.5491 14.8889 43.1281C14.1588 36.6045 14.2964 30.597 14.2964 30.597C14.2964 30.597 17.1739 27.9797 18.3999 27.029C19.6343 26.0715 21.8807 24.3881 22.8844 24.7397C23.8527 25.088 23.8527 27.7431 23.8527 27.7431C23.8527 27.7431 23.7093 36.2639 25.1795 45.9729Z" fill="black"/>
</svg>
