<svg width="48" height="48" viewBox="0 0 48 48" fill="none" xmlns="http://www.w3.org/2000/svg">
<rect x="1" y="1" width="46" height="46" rx="23" fill="white" stroke="#F8F8F8" stroke-width="2"/>
<path fill-rule="evenodd" clip-rule="evenodd" d="M30.6423 40C31.0464 40 31.4143 39.6911 31.4143 38.9727C31.4143 38.2523 31.0443 37.9454 30.6423 37.9454C30.2377 37.9454 29.8701 38.2544 29.8701 38.9727C29.8701 39.689 30.2377 40 30.6423 40ZM30.6423 38.2269C30.8676 38.2269 31.0485 38.4236 31.0485 38.9727C31.0464 39.5218 30.8657 39.7186 30.6423 39.7186C30.4167 39.7186 30.2358 39.5218 30.2358 38.9727C30.2358 38.4236 30.4167 38.2269 30.6423 38.2269ZM28.6855 38.9727C28.6855 39.6911 28.3176 40 27.9133 40C27.5089 40 27.1392 39.689 27.1392 38.9727C27.1392 38.2544 27.5089 37.9454 27.9133 37.9454C28.3176 37.9454 28.6855 38.2523 28.6855 38.9727ZM28.3197 38.9727C28.3197 38.4236 28.1388 38.2269 27.9133 38.2269C27.6879 38.2269 27.5068 38.4236 27.5068 38.9727C27.5068 39.5218 27.6879 39.7186 27.9133 39.7186C28.1388 39.7186 28.3197 39.5218 28.3197 38.9727ZM24.9487 38.7856H25.5238V37.9729H25.8815V39.9703H25.5238V39.0888H24.9487V39.9703H24.5931V37.9729H24.9487V38.7856ZM22.5614 40C22.9657 40 23.3355 39.6911 23.3355 38.9727C23.3355 38.2523 22.9638 37.9454 22.5614 37.9454C22.1573 37.9454 21.7872 38.2544 21.7872 38.9727C21.7872 39.689 22.1573 40 22.5614 40ZM22.5614 38.2269C22.7869 38.2269 22.9678 38.4236 22.9678 38.9727C22.9657 39.5218 22.7848 39.7186 22.5614 39.7186C22.3358 39.7186 22.1551 39.5218 22.1551 38.9727C22.1551 38.4236 22.3358 38.2269 22.5614 38.2269ZM20.6067 38.9727C20.6067 39.6911 20.2369 40 19.8326 40C19.4283 40 19.0585 39.689 19.0585 38.9727C19.0585 38.2544 19.4283 37.9454 19.8326 37.9454C20.2369 37.9454 20.6067 38.2523 20.6067 38.9727ZM20.239 38.9727C20.239 38.4236 20.0581 38.2269 19.8326 38.2269C19.607 38.2269 19.4261 38.4236 19.4261 38.9727C19.4261 39.5218 19.607 39.7186 19.8326 39.7186C20.0581 39.7186 20.239 39.5218 20.239 38.9727ZM17.4045 39.512H17.4105L17.6949 37.9729H18.0181L17.6178 39.9703H17.191L16.9026 38.3352H16.8966L16.5917 39.9703H16.1712L15.779 37.9729H16.1102L16.3845 39.512H16.3907L16.6832 37.9729H17.1161L17.4045 39.512ZM37 36.383H11V8H37V36.383ZM35.7481 35.0978H12.2496V9.28882H35.7481V35.0978ZM27.6309 29.83C27.6309 27.2501 28.9598 26.1399 30.4087 26.1399C31.8571 26.1399 33.1862 27.2501 33.1862 29.83C33.1862 32.4098 31.8571 33.5196 30.4087 33.5196C28.9579 33.5196 27.6309 32.4098 27.6309 29.83ZM28.9496 29.8279C28.9496 31.7996 29.5998 32.5102 30.4087 32.5102C31.2173 32.5102 31.8673 31.7996 31.8673 29.8279C31.8673 27.8562 31.2173 27.1456 30.4087 27.1456C29.5977 27.1456 28.9496 27.8562 28.9496 29.8279ZM17.6585 33.5175C19.1072 33.5175 20.4362 32.4078 20.4362 29.8279C20.4362 27.248 19.1093 26.1381 17.6585 26.1381C16.2096 26.1381 14.8808 27.248 14.8808 29.8279C14.8808 32.4078 16.2096 33.5175 17.6585 33.5175ZM17.6585 27.1477C18.4673 27.1477 19.1173 27.8578 19.1173 29.8299C19.1173 31.8016 18.469 32.512 17.6585 32.512C16.8498 32.512 16.1996 31.8016 16.1996 29.8299C16.1996 27.8578 16.8498 27.1477 17.6585 27.1477ZM21.2326 22.4816C21.2326 21.2695 21.5272 20.3819 21.9885 19.7817C22.5086 19.103 23.244 18.7918 24.0103 18.7918C25.4588 18.7918 26.7899 19.9017 26.7899 22.4816C26.7899 23.7569 26.4646 24.6738 25.9609 25.2743H25.9588C25.4424 25.8862 24.7435 26.1715 24.0103 26.1715C22.5614 26.1715 21.2326 25.0597 21.2326 22.4816ZM24.012 25.1641C23.2035 25.1641 22.5533 24.4535 22.5533 22.4816C22.5533 21.7949 22.6304 21.2615 22.7685 20.8581C23.0246 20.1026 23.4859 19.7994 24.012 19.7994C24.8208 19.7994 25.4732 20.5099 25.4732 22.4816C25.4732 23.2433 25.3734 23.8178 25.209 24.2332C24.9468 24.8962 24.5099 25.1641 24.012 25.1641ZM29.3804 15.0096H31.4469V18.1758H32.7268V10.999H31.4469V13.9194H29.3804V10.999H28.1003V18.1758H29.3804V15.0096ZM15.2387 18.1758L13.8283 10.999H15.0292L16.0086 16.5288H16.0289L17.0773 10.999H18.6378L19.6763 16.5288H19.6964L20.7143 10.999H21.8747L20.4341 18.1758H18.9062L17.8658 12.2958H17.8455L16.7463 18.1758H15.2387Z" fill="black"/>
</svg>
