<svg width="120" height="120" viewBox="0 0 120 120" fill="none" xmlns="http://www.w3.org/2000/svg">
<g clip-path="url(#clip0_9074_572)">
<path d="M112.877 0H7.12308C3.18911 0 0 3.18912 0 7.12309V112.877C0 116.811 3.18911 120 7.12308 120H112.877C116.811 120 120 116.811 120 112.877V7.12309C120 3.18912 116.811 0 112.877 0Z" fill="#3982FF"/>
<path d="M65.577 41.7201V55.378C65.577 57.4128 64.049 58.8975 61.9709 58.8975C60.4022 58.8975 59.1721 58.0062 58.7061 56.6921H58.622C57.3487 58.3041 55.482 59.1522 53.0652 59.1522C47.6356 59.1522 44.7095 55.844 44.7095 49.7345V41.7176C44.7095 39.3848 46.0669 37.9434 48.2723 37.9434C50.4777 37.9434 51.8351 39.3848 51.8351 41.7176V48.8865C51.8351 51.3033 52.9378 52.6199 54.9752 52.6199C57.2239 52.6199 58.4539 51.1352 58.4539 48.4204V41.7176C58.4539 39.3848 59.8113 37.9434 62.0168 37.9434C64.2222 37.9434 65.5796 39.3848 65.5796 41.7176L65.577 41.7201Z" fill="white"/>
<path d="M99.7589 46.6412V55.1243C99.7589 57.457 98.4015 58.8985 96.1961 58.8985C93.9906 58.8985 92.6332 57.457 92.6332 55.1243V47.4893C92.6332 45.3271 91.7852 44.2244 90.1298 44.2244C88.3472 44.2244 87.4584 45.4978 87.4584 47.9579V55.1268C87.4584 57.4596 86.101 58.901 83.8955 58.901C81.6901 58.901 80.3327 57.4596 80.3327 55.1268V47.4918C80.3327 45.3297 79.4847 44.227 77.8293 44.227C76.0466 44.227 75.1579 45.5003 75.1579 47.9604V55.1294C75.1579 57.4621 73.8005 58.9035 71.595 58.9035C69.3896 58.9035 68.0322 57.4621 68.0322 55.1294V41.7261C68.0322 39.3934 69.3896 37.9519 71.595 37.9519C73.2504 37.9519 74.3939 38.8 74.9032 40.1574H74.9872C76.1332 38.5453 77.7453 37.6973 80.1188 37.6973C82.4923 37.6973 84.4023 38.5886 85.6324 40.2007H85.7164C87.0738 38.5886 89.1952 37.6973 91.994 37.6973C97.0848 37.6973 99.7563 40.7507 99.7563 46.6463L99.7589 46.6412Z" fill="white"/>
<path d="M42.4662 64.6224V87.2727C42.4662 89.6055 41.1088 91.0469 38.9034 91.0469C37.248 91.0469 36.1453 90.2421 35.6385 88.9255H35.5545C34.2404 90.4102 32.2463 91.3016 29.827 91.3016C24.0154 91.3016 20.2412 87.1021 20.2412 80.5698C20.2412 74.0376 24.0154 69.8381 29.827 69.8381C32.0757 69.8381 33.9424 70.5588 35.2565 71.8729H35.3405V64.6199C35.3405 62.2871 36.6979 60.8457 38.9034 60.8457C41.1088 60.8457 42.4662 62.2871 42.4662 64.6199V64.6224ZM35.3405 80.5698C35.3405 78.153 33.6444 76.3703 31.3524 76.3703C29.0604 76.3703 27.5349 78.0664 27.5349 80.5698C27.5349 83.0732 29.1037 84.7693 31.3524 84.7693C33.6011 84.7693 35.3405 82.9866 35.3405 80.5698Z" fill="#FFCE00"/>
<path d="M65.577 73.8666V87.5245C65.577 89.5593 64.049 91.044 61.9709 91.044C60.4022 91.044 59.1721 90.1527 58.7061 88.8386H58.622C57.3487 90.4506 55.482 91.2987 53.0652 91.2987C47.6356 91.2987 44.7095 87.9905 44.7095 81.881V73.864C44.7095 71.5313 46.0669 70.0898 48.2723 70.0898C50.4777 70.0898 51.8351 71.5313 51.8351 73.864V81.033C51.8351 83.4498 52.9378 84.7664 54.9752 84.7664C57.2239 84.7664 58.4539 83.2817 58.4539 80.5669V73.864C58.4539 71.5313 59.8113 70.0898 62.0168 70.0898C64.2222 70.0898 65.5796 71.5313 65.5796 73.864L65.577 73.8666Z" fill="#FFCE00"/>
<path d="M99.7589 78.7897V87.2727C99.7589 89.6055 98.4015 91.0469 96.1961 91.0469C93.9906 91.0469 92.6332 89.6055 92.6332 87.2727V79.6377C92.6332 77.4756 91.7852 76.3729 90.1298 76.3729C88.3472 76.3729 87.4584 77.6462 87.4584 80.1063V87.2752C87.4584 89.608 86.101 91.0494 83.8955 91.0494C81.6901 91.0494 80.3327 89.608 80.3327 87.2752V79.6403C80.3327 77.4781 79.4847 76.3754 77.8293 76.3754C76.0466 76.3754 75.1579 77.6488 75.1579 80.1089V87.2778C75.1579 89.6106 73.8005 91.052 71.595 91.052C69.3896 91.052 68.0322 89.6106 68.0322 87.2778V73.8746C68.0322 71.5418 69.3896 70.1004 71.595 70.1004C73.2504 70.1004 74.3939 70.9484 74.9032 72.3058H74.9872C76.1332 70.6938 77.7453 69.8457 80.1188 69.8457C82.4923 69.8457 84.4023 70.737 85.6324 72.3491H85.7164C87.0738 70.737 89.1952 69.8457 91.994 69.8457C97.0848 69.8457 99.7563 72.8992 99.7563 78.7948L99.7589 78.7897Z" fill="#FFCE00"/>
<path d="M38.9009 28.6992C36.698 28.6992 35.3381 30.1406 35.3381 32.4734V39.7264H35.2541C33.94 38.4097 32.0758 37.689 29.8245 37.689C24.013 37.689 20.2388 41.8911 20.2388 48.4208C20.2388 54.9505 24.013 59.15 29.8245 59.15C32.2439 59.15 34.2354 58.2586 35.552 56.7765H35.6361C36.1428 58.0906 37.2481 58.8979 38.9009 58.8979C41.1089 58.8979 42.4663 57.4539 42.4663 55.1237V32.4734C42.4663 30.1381 41.1063 28.6992 38.9009 28.6992ZM36.6649 47.3843L34.4391 49.3987L35.058 52.3325C35.1827 52.9182 34.5563 53.3715 34.0393 53.0761L31.4366 51.5787L28.8364 53.0761C28.3194 53.3715 27.6929 52.9182 27.8177 52.3325L28.434 49.3987L26.2108 47.3843C25.7651 46.9844 26.0045 46.251 26.6004 46.1848L29.5826 45.8665L30.8075 43.1262C31.0495 42.5838 31.8237 42.5838 32.0681 43.1262L33.2931 45.8665L36.2753 46.1848C36.8687 46.251 37.108 46.9844 36.6649 47.3843Z" fill="white"/>
</g>
<defs>
<clipPath id="clip0_9074_572">
<rect width="120" height="120" fill="white"/>
</clipPath>
</defs>
</svg>
